M48
;Layer_Color=9474304
;FILE_FORMAT=2:5
INCH,LZ
;TYPE=PLATED
T1F00S00C0.01181
T2F00S00C0.03543
T3F00S00C0.03622
T4F00S00C0.03937
T5F00S00C0.09055
T6F00S00C0.12598
%
T01
X0094402Y0016
X0101902
X0104902Y0072
X0111729Y0080043
X0109902Y0087
X0104402Y00995
X012354Y0109571
X0131315Y0109965
X0123251Y0125349
X0127477Y0137917
X0128433Y01629
X0131436Y0168072
X0121402Y01645
X0112402Y01605
X0106402Y0143
X0095902Y0139
X0096902Y01485
X0057902Y01495
Y01555
Y01425
X0046902Y0135
Y0121
X0027902Y0114
X0026902Y0164
X0045902Y01605
X0063902Y0091
X0063107Y0046705
X0063902Y0041
X0010902Y0064
X0130902Y0075
X0151902Y008
X0153902Y0086
X0157902Y0072
X0165354Y0068898
X0174016Y0073228
X0182677Y0075197
X0190075Y0070945
Y0079945
X0199622Y0080535
Y0070535
X0214402Y0071
X0226402Y0089
X0199902Y0097
X0193902
X0170902Y0098
Y0092
X0172902Y01195
X0177902
X0151918Y0124984
X0152083Y0134276
X0150402Y01385
X014913Y0109768
X0140862Y0110063
X0139484Y0163213
X0139663Y0169361
X0144902Y0166
X0189902Y0159
Y0153
Y0147
Y0141
X0200902Y017
X0237122Y0155081
X0237145Y0151574
X023663Y0146382
X0238847Y0142851
X0235402Y0126
X0264288Y0112327
X026911Y0112721
X0268815Y0150811
X0272902Y0182
X0254996Y0082095
X0267902Y0064
X0234512Y0052588
X0227512Y0053588
X0170001Y0027557
X0167323Y0027559
X0168402Y02085
X0171902Y0205
X0174802Y0217
X0161902
X0165902Y0223
X0160902Y0233
X0159902Y0239
Y0244
X0157902Y0249
X0147902Y0243
X0145702Y0235
X0151902Y0234
X0145902Y0226
X0151402Y0205
X0184402Y0209
X0183902Y0226
X0188902
X0181217Y0237622
X0173302Y0239
Y0244
X0169402Y02345
X0192043Y0245496
X0208902Y0245
X0217402Y02405
X0223902Y0234
X0226902Y0251
X0233677Y0266559
X0223902Y02705
X0219402Y0267
X0214402
X0204902Y0263
Y0256
X0182477Y0263925
X0190173Y0271776
X0187902Y0301
X018978Y0308882
X0189902Y0332
X0182477Y0331075
X0213402Y0327
X0218402
X0222994Y0323908
X0222402Y0299
Y02945
Y0284
X0218402Y0288
X0213402
Y0303
X0157402Y0266
X0142402Y02655
X0146902Y03315
X0205902Y0187
X0217634Y0184472
X0237319Y0190378
X0246402Y0213
Y02175
X0245902Y0223
X0260051Y022715
X0266902Y0198
X0110402Y02015
X0114402Y02175
Y0222
X0100402Y0217
X0103902Y02395
X0094902Y0239
X0089902
X0092402Y0249
X0096402Y02525
X0103402
X0090902Y0258
X0092402Y0269
X0087402
X0083402Y02725
X0092402Y02795
X0090402Y0295
Y02995
X0081902Y0299
X0077402Y0295
X0072402
X0071902Y0314
X0078402
X0097402Y0322
X0102402
Y03295
X0097402
X0086902Y0337
X0054002Y03345
X0054147Y0328146
X005415Y0309177
X0054002Y02935
Y028
X0053902Y0239
X0032402Y0242
X0027402
X0025902Y0214
X0026591Y0294315
X0008902Y0288
X0004642Y0304945
X0004902Y031
X0008902Y0316
Y03305
X0099402Y03035
X0122555Y0308882
Y0325811
X0134902Y0332
X0122902Y0291
X0121902Y02855
X0122902Y024
Y02335
X0130902
Y024
X0131902Y0227
X0082902Y0245
X0086902Y0345
X0104902
X0128402Y0354
Y03585
X0135402
Y0354
X0096402Y0374
X0081402
X0083902Y0411
Y0417
X0084516Y0422386
X0058902Y0422
X0051402Y0422098
X0022902Y0441
X0075902Y0464
X0123146
X0131402Y0441
X0131902Y0429
X0119902Y042
X0123902Y0408
X0020402Y03425
X0005626Y0342347
X0144902Y03505
Y03555
X0148402Y036
X0152902
X0162402Y03605
X0161902Y03555
X0169402
Y03605
X0191902Y03555
Y03505
X0199902
Y03555
X0200152Y0371
X0207902Y0377
X0211902Y0374
X0214902Y036
X0233829Y0367269
X0232902Y0374
X0257402Y03825
X0264402Y0382
Y03935
X0257402
X0248146Y042463
X0234051Y043085
X0266902Y043
X0225902Y0464
X0173819Y0441142
X0169783Y0442913
X0161417Y0437992
X0158378Y043552
X0158366Y0428642
X0162205Y0428248
X0174705Y042687
X0176279Y0423327
X0165902Y0411
X0153264Y0409638
X014854
Y0414362
X0153264
X0148902Y0427
X0147902Y0441
T02
X0145902Y0183
X0155902
X0165902
X0175902
X0185902
X0195902
Y0193
X0185902
X0175902
X0165902
X0155902
X0145902
X0251902Y0246
X0261902
Y0256
X0251902
Y0266
X0261902
Y0276
X0251902
Y0286
X0261902
Y0296
X0251902
Y0306
X0261902
Y0316
X0251902
Y0326
X0261902
Y0336
X0251902
X0135902Y0193
Y0183
X0125902
Y0193
X0115902
Y0183
X0105902
Y0193
X0095902
Y0183
X0085902
Y0193
X0075902
Y0183
X0065902
Y0193
X0055902
Y0183
X0045902
Y0193
X0035902
Y0183
X0133402Y0383
Y0393
X0143402
Y0383
X0153402
Y0393
X0163402
Y0383
X0173402
Y0393
X0183402
Y0383
X0193402
Y0393
X0192902Y04125
X0202902
X0212902
X0222902
X0232902
X0242902
X0252902
X0262902
X0261902Y0366
Y0356
Y0346
X0251902
Y0356
Y0366
X0182902Y04125
X0153902Y0473
X0143902
T03
X0132008Y0051319
Y0059193
X014185
Y0051319
X0099823Y0433906
Y044178
X0089981
Y0433906
X0189122Y0442858
X0198965Y0442858
X0206839
X0216681
T04
X0217185Y0136409
X0234902
Y0162
X0217185
T05
X0113228Y004065
X016063
X0118603Y0452449
X0071201
X0177036Y0453528
X0228768
T06
X0253Y0025
X0025
X0024902Y0468
X0253
M30
