M48
;Layer_Color=9474304
;FILE_FORMAT=2:5
INCH,LZ
;TYPE=PLATED
T1F00S00C0.01000
T2F00S00C0.01299
T3F00S00C0.01400
T4F00S00C0.03543
T5F00S00C0.03622
T6F00S00C0.03937
T7F00S00C0.09055
T8F00S00C0.12598
%
T01
X02685Y0302
X0276
T02
X0322638Y0695638
Y0700362
X0327362
Y0695638
T03
X037Y0312
X0305Y0361
X0285827Y0366043
X0284Y0373
X02785Y03855
X0279Y0358
X0299Y0395
X030511Y039411
X0297Y0411
X03015Y0425
X0302531Y04489
X0305535Y0454072
X02955Y04505
X02865Y04465
X02805Y0429
X027Y0425
X0271Y04345
X0232Y04355
Y04415
Y04285
X0221Y0421
Y0407
X0202Y04
X0201Y045
X022Y04465
X0238Y0377
X0237205Y0332705
X0238Y0327
X0185Y035
X0332Y0358
X0326Y0366
X0328Y0372
X0345Y0378
Y0384
X0347Y04055
X0352
X0326016Y0410984
X0327Y042
X03245Y04245
X0323Y0395
X0314953Y0394953
X0313583Y0449213
X0313761Y0455361
X0319Y0452
X0364Y0445
Y0439
Y0433
Y0427
X0375Y0456
X04Y0468
X0415Y0445
Y0439
Y0433
Y0428
X04095Y0412
X0438386Y0398327
X0443209Y0398721
X0442913Y0436811
X0447Y0468
X0429095Y0368094
X0442Y035
X0404Y0341
X0392Y0339
X0385Y034
X03885Y0357
X03745Y03565
Y03665
X03635Y0366
Y0357
X03505
X0368Y0383
X0374
X04005Y0375
X038Y0473
X0406102Y0489665
X04205Y0499
Y05035
X042Y0509
X043415Y051315
X0441Y0484
X0398Y052
X03915Y05265
X0383Y0531
X0379Y0542
Y0549
X03885Y0553
X03935
X0398Y05565
X0408957Y0553051
X0401Y0537
X03965Y057
X03925Y0574
X03875
Y0589
X03965Y0585
Y05805
X0397092Y0609908
X03925Y0613
X03875
X0364Y0618
X0356575Y0617075
X0365Y0595
X0362Y0587
X0365Y0559
X0356575Y0549925
X0355Y053
X03475
Y0525
X03435Y05205
X0335Y0519
X0334Y0525
Y053
X0332Y0535
X0322Y0529
X03198Y0521
X0326Y052
X032Y0512
X034Y0509
X0336Y0503
X0349
X03425Y04945
X0346Y0491
X03585Y0495
X0358Y0512
X0363
X0367Y0531
X03315Y0552
X03165Y05515
X03255Y0491
X0321Y06175
X0309Y0618
X0297Y0613
X0295327Y0594827
X0297Y0577
X0296Y05715
X02665Y05655
Y0555
X02615
X02575Y05585
X0265Y0544
X02665Y0535
X02705Y05385
X02775
X0278Y05255
X0269Y0525
X0264
X0257Y0531
X0228Y0525
X02065Y0528
X02015
X02Y05
X02745Y0503
X02885Y05035
Y0508
X0297Y05195
Y0526
X0305
Y05195
X0306Y0513
X02845Y04875
X02735Y05895
X02645Y05855
Y0581
X0256Y0585
X02515Y0581
X02465
X0246Y06
X02525
X02715Y0608
X02765
Y06155
X02715
X0261Y0623
X02281Y06205
X0228246Y0614146
X0228352Y0595248
X02281Y05795
Y0566
X0205Y0583
X0183Y0574
X017874Y0590945
X0179Y0596
X0183Y0602
Y06165
X01835Y06235
X01945Y06285
X0261Y0631
X0279
X03025Y064
Y06445
X03095
Y064
X02705Y066
X02555
X0258Y0697
Y0703
Y0709
X0233Y0708
X02255Y0708098
X0197Y0727
X025Y075
X0297244
X03055Y0727
X0306Y0715
X0294Y0706
X0298Y0694
X0323Y0713
X0332Y0716
Y0722
X0322Y0727
X034Y0736
X0346358Y0706
X034Y0697
X03365Y06465
X0336Y06415
X03435
Y06465
X0327Y0646
X03225
X0319Y06415
Y06365
X0366
Y06415
X0374
Y06365
X037425Y0657
X0382Y0663
X0386Y066
X0389Y0646
X0407928Y0653269
X0407Y066
X04315Y06685
X04385Y0668
Y06795
X04315
X0422244Y071063
X040815Y071685
X0441Y0716
X04Y075
T04
X032Y0469
X033
X034
X035
X036
X037
Y0479
X036
X035
X034
X033
X032
X0426Y0532
X0436
Y0542
X0426
Y0552
X0436
Y0562
X0426
Y0572
X0436
Y0582
X0426
Y0592
X0436
Y0602
X0426
Y0612
X0436
Y0622
X0426
X031Y0479
Y0469
X03
Y0479
X029
Y0469
X028
Y0479
X027
Y0469
X026
Y0479
X025
Y0469
X024
Y0479
X023
Y0469
X022
Y0479
X021
Y0469
X03075Y0669
Y0679
X03175
Y0669
X03275
Y0679
X03375
Y0669
X03475
Y0679
X03575
Y0669
X03675
Y0679
X0367Y06985
X0377
X0387
X0397
X0407
X0417
X0427
X0437
X0436Y0652
Y0642
Y0632
X0426
Y0642
Y0652
X0357Y06985
X0328Y0759
X0318
T05
X0306079Y0337221
Y0345094
X0315921
Y0337221
X0273921Y0719906
Y0727779
X0264079
Y0719906
X0363221Y0728858
X0373063Y0728858
X0380937
X0390779
T06
X0391283Y0422409
X0409
Y0448
X0391283
T07
X0287299Y0326551
X0334701
X0292701Y0738449
X0245299
X0351134Y0739528
X0402866
T08
X0427098Y0311
X0199098
X0199Y0754
X0427098
M30
