G04*
G04 #@! TF.GenerationSoftware,Altium Limited,Altium Designer,20.0.13 (296)*
G04*
G04 Layer_Color=16711935*
%FSAX25Y25*%
%MOIN*%
G70*
G01*
G75*
G04:AMPARAMS|DCode=56|XSize=168mil|YSize=168mil|CornerRadius=28mil|HoleSize=0mil|Usage=FLASHONLY|Rotation=0.000|XOffset=0mil|YOffset=0mil|HoleType=Round|Shape=RoundedRectangle|*
%AMROUNDEDRECTD56*
21,1,0.16800,0.11200,0,0,0.0*
21,1,0.11200,0.16800,0,0,0.0*
1,1,0.05600,0.05600,-0.05600*
1,1,0.05600,-0.05600,-0.05600*
1,1,0.05600,-0.05600,0.05600*
1,1,0.05600,0.05600,0.05600*
%
%ADD56ROUNDEDRECTD56*%
G04:AMPARAMS|DCode=74|XSize=76.9mil|YSize=157.61mil|CornerRadius=12.61mil|HoleSize=0mil|Usage=FLASHONLY|Rotation=90.000|XOffset=0mil|YOffset=0mil|HoleType=Round|Shape=RoundedRectangle|*
%AMROUNDEDRECTD74*
21,1,0.07690,0.13238,0,0,90.0*
21,1,0.05167,0.15761,0,0,90.0*
1,1,0.02522,0.06619,0.02584*
1,1,0.02522,0.06619,-0.02584*
1,1,0.02522,-0.06619,-0.02584*
1,1,0.02522,-0.06619,0.02584*
%
%ADD74ROUNDEDRECTD74*%
G04:AMPARAMS|DCode=78|XSize=78.87mil|YSize=59.18mil|CornerRadius=11.68mil|HoleSize=0mil|Usage=FLASHONLY|Rotation=90.000|XOffset=0mil|YOffset=0mil|HoleType=Round|Shape=RoundedRectangle|*
%AMROUNDEDRECTD78*
21,1,0.07887,0.03583,0,0,90.0*
21,1,0.05551,0.05918,0,0,90.0*
1,1,0.02335,0.01791,0.02776*
1,1,0.02335,0.01791,-0.02776*
1,1,0.02335,-0.01791,-0.02776*
1,1,0.02335,-0.01791,0.02776*
%
%ADD78ROUNDEDRECTD78*%
%ADD80C,0.08674*%
G04:AMPARAMS|DCode=81|XSize=82.8mil|YSize=82.8mil|CornerRadius=15.22mil|HoleSize=0mil|Usage=FLASHONLY|Rotation=180.000|XOffset=0mil|YOffset=0mil|HoleType=Round|Shape=RoundedRectangle|*
%AMROUNDEDRECTD81*
21,1,0.08280,0.05236,0,0,180.0*
21,1,0.05236,0.08280,0,0,180.0*
1,1,0.03044,-0.02618,0.02618*
1,1,0.03044,0.02618,0.02618*
1,1,0.03044,0.02618,-0.02618*
1,1,0.03044,-0.02618,-0.02618*
%
%ADD81ROUNDEDRECTD81*%
%ADD82C,0.08280*%
%ADD83C,0.23635*%
%ADD84C,0.07099*%
G04:AMPARAMS|DCode=85|XSize=70.99mil|YSize=70.99mil|CornerRadius=13.45mil|HoleSize=0mil|Usage=FLASHONLY|Rotation=180.000|XOffset=0mil|YOffset=0mil|HoleType=Round|Shape=RoundedRectangle|*
%AMROUNDEDRECTD85*
21,1,0.07099,0.04409,0,0,180.0*
21,1,0.04409,0.07099,0,0,180.0*
1,1,0.02690,-0.02205,0.02205*
1,1,0.02690,0.02205,0.02205*
1,1,0.02690,0.02205,-0.02205*
1,1,0.02690,-0.02205,-0.02205*
%
%ADD85ROUNDEDRECTD85*%
%ADD86C,0.15761*%
G04:AMPARAMS|DCode=87|XSize=70.99mil|YSize=70.99mil|CornerRadius=13.45mil|HoleSize=0mil|Usage=FLASHONLY|Rotation=90.000|XOffset=0mil|YOffset=0mil|HoleType=Round|Shape=RoundedRectangle|*
%AMROUNDEDRECTD87*
21,1,0.07099,0.04409,0,0,90.0*
21,1,0.04409,0.07099,0,0,90.0*
1,1,0.02690,0.02205,0.02205*
1,1,0.02690,0.02205,-0.02205*
1,1,0.02690,-0.02205,-0.02205*
1,1,0.02690,-0.02205,0.02205*
%
%ADD87ROUNDEDRECTD87*%
G04:AMPARAMS|DCode=88|XSize=82.8mil|YSize=82.8mil|CornerRadius=15.22mil|HoleSize=0mil|Usage=FLASHONLY|Rotation=270.000|XOffset=0mil|YOffset=0mil|HoleType=Round|Shape=RoundedRectangle|*
%AMROUNDEDRECTD88*
21,1,0.08280,0.05236,0,0,270.0*
21,1,0.05236,0.08280,0,0,270.0*
1,1,0.03044,-0.02618,-0.02618*
1,1,0.03044,-0.02618,0.02618*
1,1,0.03044,0.02618,0.02618*
1,1,0.03044,0.02618,-0.02618*
%
%ADD88ROUNDEDRECTD88*%
%ADD89C,0.02362*%
D56*
X0010902Y0052000D02*
D03*
X0267902Y0051000D02*
D03*
X0010902Y0441000D02*
D03*
X0266902Y0442000D02*
D03*
D74*
X0268902Y0103905D02*
D03*
Y0082095D02*
D03*
Y0142905D02*
D03*
Y0121095D02*
D03*
D78*
X0153610Y0484500D02*
D03*
X0142193D02*
D03*
D80*
X0234902Y0162000D02*
D03*
Y0136409D02*
D03*
X0217185Y0162000D02*
D03*
Y0136409D02*
D03*
D81*
X0153902Y0473000D02*
D03*
X0133402Y0383000D02*
D03*
X0182902Y0412500D02*
D03*
X0195902Y0193000D02*
D03*
D82*
X0143902Y0473000D02*
D03*
X0133402Y0393000D02*
D03*
X0143402Y0383000D02*
D03*
Y0393000D02*
D03*
X0153402Y0383000D02*
D03*
Y0393000D02*
D03*
X0163402Y0383000D02*
D03*
Y0393000D02*
D03*
X0173402Y0383000D02*
D03*
Y0393000D02*
D03*
X0183402Y0383000D02*
D03*
Y0393000D02*
D03*
X0193402Y0383000D02*
D03*
Y0393000D02*
D03*
X0192902Y0412500D02*
D03*
X0262902D02*
D03*
X0252902D02*
D03*
X0242902D02*
D03*
X0232902D02*
D03*
X0222902D02*
D03*
X0212902D02*
D03*
X0202902D02*
D03*
X0195902Y0183000D02*
D03*
X0185902Y0193000D02*
D03*
Y0183000D02*
D03*
X0175902Y0193000D02*
D03*
Y0183000D02*
D03*
X0165902Y0193000D02*
D03*
Y0183000D02*
D03*
X0155902Y0193000D02*
D03*
Y0183000D02*
D03*
X0145902Y0193000D02*
D03*
Y0183000D02*
D03*
X0135902Y0193000D02*
D03*
Y0183000D02*
D03*
X0125902Y0193000D02*
D03*
Y0183000D02*
D03*
X0115902Y0193000D02*
D03*
Y0183000D02*
D03*
X0105902Y0193000D02*
D03*
Y0183000D02*
D03*
X0095902Y0193000D02*
D03*
Y0183000D02*
D03*
X0085902Y0193000D02*
D03*
Y0183000D02*
D03*
X0075902Y0193000D02*
D03*
Y0183000D02*
D03*
X0065902Y0193000D02*
D03*
Y0183000D02*
D03*
X0055902Y0193000D02*
D03*
Y0183000D02*
D03*
X0045902Y0193000D02*
D03*
Y0183000D02*
D03*
X0035902Y0193000D02*
D03*
Y0183000D02*
D03*
X0261902Y0246000D02*
D03*
X0251902D02*
D03*
X0261902Y0256000D02*
D03*
X0251902D02*
D03*
X0261902Y0266000D02*
D03*
X0251902D02*
D03*
X0261902Y0276000D02*
D03*
X0251902D02*
D03*
X0261902Y0286000D02*
D03*
X0251902D02*
D03*
X0261902Y0296000D02*
D03*
X0251902D02*
D03*
X0261902Y0306000D02*
D03*
X0251902D02*
D03*
X0261902Y0316000D02*
D03*
X0251902D02*
D03*
X0261902Y0326000D02*
D03*
X0251902D02*
D03*
X0261902Y0336000D02*
D03*
X0251902D02*
D03*
X0261902Y0346000D02*
D03*
X0251902D02*
D03*
X0261902Y0356000D02*
D03*
X0251902D02*
D03*
X0261902Y0366000D02*
D03*
D83*
X0024902Y0468000D02*
D03*
X0253000D02*
D03*
Y0025000D02*
D03*
X0025000D02*
D03*
D84*
X0198965Y0442858D02*
D03*
X0189122Y0442858D02*
D03*
X0206839Y0442858D02*
D03*
X0131981Y0059095D02*
D03*
X0141823Y0051221D02*
D03*
X0131981D02*
D03*
X0099823Y0441780D02*
D03*
X0089981D02*
D03*
X0099823Y0433906D02*
D03*
D85*
X0216681Y0442858D02*
D03*
D86*
X0228768Y0453528D02*
D03*
X0177036D02*
D03*
X0160602Y0040551D02*
D03*
X0113201D02*
D03*
X0118603Y0452449D02*
D03*
X0071201D02*
D03*
D87*
X0141823Y0059095D02*
D03*
X0089981Y0433906D02*
D03*
D88*
X0251902Y0366000D02*
D03*
D89*
X0190173Y0271776D02*
D03*
X0189780Y0308882D02*
D03*
X0152083Y0134276D02*
D03*
X0149130Y0109768D02*
D03*
X0140862Y0110063D02*
D03*
X0131315Y0109965D02*
D03*
X0127477Y0137917D02*
D03*
X0123540Y0109571D02*
D03*
X0122555Y0308882D02*
D03*
X0054150Y0309177D02*
D03*
X0233677Y0266559D02*
D03*
X0238847Y0142851D02*
D03*
X0236630Y0146382D02*
D03*
X0237145Y0151574D02*
D03*
X0237122Y0155081D02*
D03*
X0005626Y0342347D02*
D03*
X0123251Y0125349D02*
D03*
X0122555Y0325811D02*
D03*
X0204902Y0263000D02*
D03*
X0181217Y0237622D02*
D03*
X0173302Y0239000D02*
D03*
X0174802Y0217000D02*
D03*
X0173302Y0244000D02*
D03*
X0192043Y0245496D02*
D03*
X0119902Y0420000D02*
D03*
X0237319Y0190378D02*
D03*
X0217634Y0184472D02*
D03*
X0222994Y0323908D02*
D03*
X0004642Y0304945D02*
D03*
X0111729Y0080043D02*
D03*
X0264288Y0112327D02*
D03*
X0269110Y0112721D02*
D03*
X0268815Y0150811D02*
D03*
X0233829Y0367269D02*
D03*
X0139484Y0163213D02*
D03*
X0131436Y0168072D02*
D03*
X0139663Y0169361D02*
D03*
X0248146Y0424630D02*
D03*
X0063107Y0046705D02*
D03*
X0101902Y0016000D02*
D03*
X0094402D02*
D03*
X0051402Y0422098D02*
D03*
X0148540Y0409638D02*
D03*
X0153264Y0414362D02*
D03*
X0148540D02*
D03*
X0153264Y0409638D02*
D03*
X0257402Y0382500D02*
D03*
X0254996Y0082095D02*
D03*
X0208902Y0245000D02*
D03*
X0182477Y0263925D02*
D03*
X0260051Y0227150D02*
D03*
X0045902Y0160500D02*
D03*
X0207902Y0377000D02*
D03*
X0211902Y0374000D02*
D03*
X0100402Y0217000D02*
D03*
X0081402Y0374000D02*
D03*
X0096402D02*
D03*
X0157902Y0436000D02*
D03*
Y0430000D02*
D03*
X0148902Y0427000D02*
D03*
X0266902Y0198000D02*
D03*
X0189902Y0332000D02*
D03*
X0272902Y0182000D02*
D03*
X0092402Y0249000D02*
D03*
X0054002Y0293500D02*
D03*
X0081902Y0299000D02*
D03*
X0083402Y0272500D02*
D03*
X0090402Y0295000D02*
D03*
X0092402Y0279500D02*
D03*
X0121902Y0285500D02*
D03*
X0008902Y0316000D02*
D03*
X0054147Y0328146D02*
D03*
X0078402Y0314000D02*
D03*
X0054002Y0334500D02*
D03*
X0022902Y0441000D02*
D03*
X0058902Y0422000D02*
D03*
X0086902Y0345000D02*
D03*
Y0337000D02*
D03*
X0083902Y0411000D02*
D03*
Y0417000D02*
D03*
Y0423000D02*
D03*
X0090402Y0299500D02*
D03*
X0097402Y0329500D02*
D03*
X0134902Y0332000D02*
D03*
X0128402Y0358500D02*
D03*
X0123902Y0408000D02*
D03*
X0131902Y0429000D02*
D03*
X0146902Y0331500D02*
D03*
X0182477Y0331075D02*
D03*
X0144902Y0355500D02*
D03*
X0152902Y0360000D02*
D03*
X0162402Y0360500D02*
D03*
X0234051Y0430850D02*
D03*
X0200902Y0170000D02*
D03*
X0063902Y0041000D02*
D03*
X0145702Y0235000D02*
D03*
X0063902Y0091000D02*
D03*
X0046902Y0121000D02*
D03*
Y0135000D02*
D03*
X0191902Y0350500D02*
D03*
X0151902Y0080000D02*
D03*
X0095902Y0139000D02*
D03*
X0160902Y0233000D02*
D03*
X0159902Y0239000D02*
D03*
X0169402Y0234500D02*
D03*
X0200152Y0371000D02*
D03*
X0222402Y0299000D02*
D03*
Y0294500D02*
D03*
Y0284000D02*
D03*
X0223902Y0270500D02*
D03*
X0226902Y0251000D02*
D03*
X0204902Y0256000D02*
D03*
X0187902Y0301000D02*
D03*
X0151902Y0234000D02*
D03*
X0130902Y0233500D02*
D03*
X0145902Y0226000D02*
D03*
X0131902Y0227000D02*
D03*
X0161902Y0217000D02*
D03*
X0114402Y0217500D02*
D03*
X0168402Y0208500D02*
D03*
X0171902Y0205000D02*
D03*
X0151402D02*
D03*
X0110402Y0201500D02*
D03*
X0103902Y0239500D02*
D03*
X0004902Y0310000D02*
D03*
X0008902Y0288000D02*
D03*
X0122902Y0291000D02*
D03*
X0223902Y0234000D02*
D03*
X0142402Y0265500D02*
D03*
X0092402Y0269000D02*
D03*
X0102402Y0322000D02*
D03*
X0032402Y0242000D02*
D03*
X0072402Y0295000D02*
D03*
X0172902Y0119500D02*
D03*
X0151918Y0124984D02*
D03*
X0150402Y0138500D02*
D03*
X0104402Y0099500D02*
D03*
X0104902Y0072000D02*
D03*
X0157902D02*
D03*
X0130902Y0075000D02*
D03*
X0170902Y0098000D02*
D03*
X0153902Y0086000D02*
D03*
X0157402Y0266000D02*
D03*
X0157902Y0249000D02*
D03*
X0054002Y0280000D02*
D03*
X0020402Y0342500D02*
D03*
X0094902Y0239000D02*
D03*
X0089902D02*
D03*
X0082902Y0245000D02*
D03*
X0159902Y0244000D02*
D03*
X0210902Y0054000D02*
D03*
X0217902Y0053000D02*
D03*
X0199902Y0097000D02*
D03*
X0176402Y0071000D02*
D03*
X0229902Y0055000D02*
D03*
X0232902Y0374000D02*
D03*
X0096902Y0148500D02*
D03*
X0183902Y0226000D02*
D03*
X0165902Y0223000D02*
D03*
X0188902Y0226000D02*
D03*
X0205902Y0187000D02*
D03*
X0170902Y0092000D02*
D03*
X0195902Y0026000D02*
D03*
X0165902Y0411000D02*
D03*
X0128433Y0162900D02*
D03*
X0189902Y0159000D02*
D03*
Y0153000D02*
D03*
Y0147000D02*
D03*
Y0141000D02*
D03*
X0214902Y0360000D02*
D03*
X0112402Y0160500D02*
D03*
X0008902Y0330500D02*
D03*
X0027402Y0242000D02*
D03*
X0053902Y0239000D02*
D03*
X0010902Y0064000D02*
D03*
X0267902D02*
D03*
X0266902Y0430000D02*
D03*
X0075902Y0464000D02*
D03*
X0123146D02*
D03*
X0225902D02*
D03*
X0104902Y0345000D02*
D03*
X0025902Y0214000D02*
D03*
X0026902Y0164000D02*
D03*
X0027902Y0114000D02*
D03*
X0226402Y0089000D02*
D03*
X0235402Y0126000D02*
D03*
X0144902Y0166000D02*
D03*
X0131402Y0441000D02*
D03*
X0172259Y0420000D02*
D03*
X0165902Y0450000D02*
D03*
X0026591Y0294315D02*
D03*
X0109902Y0087000D02*
D03*
X0193902Y0097000D02*
D03*
X0177902Y0119500D02*
D03*
X0147902Y0441000D02*
D03*
X0057902Y0155500D02*
D03*
Y0149500D02*
D03*
Y0142500D02*
D03*
X0184402Y0209000D02*
D03*
X0099402Y0303500D02*
D03*
X0135402Y0358500D02*
D03*
X0144902Y0350500D02*
D03*
X0148402Y0360000D02*
D03*
X0169402Y0355500D02*
D03*
X0128402Y0354000D02*
D03*
X0135402D02*
D03*
X0169402Y0360500D02*
D03*
X0191902Y0355500D02*
D03*
X0199902D02*
D03*
Y0350500D02*
D03*
X0071902Y0314000D02*
D03*
X0102402Y0329500D02*
D03*
X0097402Y0322000D02*
D03*
X0077402Y0295000D02*
D03*
X0087402Y0269000D02*
D03*
X0103402Y0252500D02*
D03*
X0090902Y0258000D02*
D03*
X0096402Y0252500D02*
D03*
X0114402Y0222000D02*
D03*
X0130902Y0240000D02*
D03*
X0122902D02*
D03*
Y0233500D02*
D03*
X0147902Y0243000D02*
D03*
X0214402Y0267000D02*
D03*
X0219402D02*
D03*
X0213402Y0288000D02*
D03*
X0218402D02*
D03*
X0213402Y0303000D02*
D03*
Y0327000D02*
D03*
X0218402D02*
D03*
X0257402Y0393500D02*
D03*
X0264402Y0382000D02*
D03*
Y0393500D02*
D03*
X0121402Y0164500D02*
D03*
X0106402Y0143000D02*
D03*
X0161902Y0355500D02*
D03*
X0246402Y0217500D02*
D03*
Y0213000D02*
D03*
X0245902Y0223000D02*
D03*
X0217402Y0240500D02*
D03*
X0214402Y0071000D02*
D03*
X0199622Y0070535D02*
D03*
X0190075Y0070945D02*
D03*
Y0079945D02*
D03*
X0199622Y0080535D02*
D03*
M02*
