G04*
G04 #@! TF.GenerationSoftware,Altium Limited,Altium Designer,20.0.13 (296)*
G04*
G04 Layer_Physical_Order=1*
G04 Layer_Color=255*
%FSAX25Y25*%
%MOIN*%
G70*
G01*
G75*
%ADD12C,0.01000*%
%ADD14C,0.00600*%
%ADD16R,0.14961X0.03937*%
%ADD17R,0.10630X0.05906*%
%ADD18R,0.03543X0.03937*%
%ADD19R,0.04724X0.05906*%
%ADD20R,0.05906X0.04724*%
%ADD21R,0.03937X0.03543*%
%ADD22C,0.03000*%
%ADD23R,0.21654X0.07874*%
%ADD24R,0.03937X0.03150*%
%ADD25R,0.03150X0.03937*%
%ADD26R,0.03937X0.03937*%
%ADD27R,0.06950X0.03500*%
%ADD28R,0.06950X0.12400*%
%ADD29O,0.05906X0.02165*%
%ADD30R,0.04331X0.02559*%
%ADD31R,0.05118X0.07480*%
%ADD32R,0.05118X0.07087*%
%ADD33R,0.07874X0.21654*%
%ADD34O,0.01181X0.07087*%
%ADD35O,0.07087X0.01181*%
%ADD36R,0.03937X0.03937*%
%ADD37R,0.16000X0.16000*%
%ADD38R,0.09843X0.09843*%
%ADD39O,0.05512X0.00984*%
%ADD40O,0.00984X0.05512*%
%ADD41O,0.01181X0.06890*%
%ADD42O,0.06890X0.01181*%
%ADD43O,0.07874X0.02362*%
%ADD44R,0.07480X0.04724*%
%ADD45R,0.02362X0.03150*%
%ADD46R,0.03150X0.02362*%
%ADD88C,0.02000*%
%ADD89C,0.03000*%
%ADD90C,0.01200*%
%ADD91C,0.05000*%
%ADD92C,0.01100*%
%ADD93C,0.00900*%
%ADD94C,0.02500*%
%ADD95R,0.05906X0.05906*%
%ADD96C,0.05906*%
%ADD97C,0.07874*%
%ADD98R,0.05906X0.05906*%
%ADD99C,0.14961*%
%ADD100C,0.06299*%
%ADD101R,0.06299X0.06299*%
%ADD102C,0.22835*%
%ADD103R,0.06299X0.06299*%
%ADD104C,0.02400*%
G36*
X0429728Y0777340D02*
X0432325Y0776898D01*
X0434856Y0776169D01*
X0437289Y0775161D01*
X0439594Y0773887D01*
X0441742Y0772363D01*
X0443706Y0770608D01*
X0445461Y0768644D01*
X0446986Y0766496D01*
X0448260Y0764191D01*
X0449268Y0761757D01*
X0449997Y0759226D01*
X0450438Y0756630D01*
X0450560Y0754451D01*
X0450471Y0754000D01*
Y0737312D01*
X0450000Y0737000D01*
X0449871Y0737000D01*
X0441500D01*
Y0728000D01*
Y0719000D01*
X0449871D01*
X0450000Y0719000D01*
X0450471Y0718688D01*
Y0431874D01*
X0443500D01*
Y0428905D01*
Y0425937D01*
X0450471D01*
Y0420968D01*
X0434520D01*
Y0420427D01*
X0433965Y0420197D01*
X0427276Y0426887D01*
Y0488556D01*
X0427830Y0488786D01*
X0428058Y0488558D01*
X0428720Y0488116D01*
X0429500Y0487961D01*
X0430228D01*
Y0487032D01*
X0432811D01*
Y0479646D01*
X0432770Y0479584D01*
X0432614Y0478803D01*
Y0470968D01*
X0431882D01*
Y0465031D01*
X0437425D01*
Y0470968D01*
X0436693D01*
Y0475819D01*
X0439862D01*
Y0478000D01*
Y0480181D01*
X0436890D01*
Y0488150D01*
X0436890Y0488150D01*
X0436734Y0488930D01*
X0436292Y0489592D01*
X0435772Y0490112D01*
Y0492969D01*
X0430539D01*
Y0494512D01*
X0435772D01*
Y0500449D01*
X0430228D01*
Y0499519D01*
X0429480D01*
X0428700Y0499364D01*
X0428038Y0498922D01*
X0427830Y0498714D01*
X0427276Y0498944D01*
Y0515516D01*
X0427159Y0516102D01*
X0426828Y0516598D01*
X0426207Y0517219D01*
X0426455Y0517819D01*
X0432862D01*
Y0520000D01*
X0433362D01*
D01*
X0432862D01*
Y0522181D01*
X0428553D01*
X0428039Y0522695D01*
Y0528582D01*
X0428819Y0529181D01*
X0429453Y0530007D01*
X0429851Y0530968D01*
X0429987Y0532000D01*
X0429851Y0533032D01*
X0429453Y0533993D01*
X0428819Y0534819D01*
X0427993Y0535453D01*
X0427032Y0535851D01*
X0426000Y0535987D01*
X0424968Y0535851D01*
X0424007Y0535453D01*
X0423792Y0535288D01*
X0423175Y0535571D01*
X0423113Y0535885D01*
X0422781Y0536381D01*
X0414081Y0545081D01*
X0413585Y0545413D01*
X0413000Y0545529D01*
X0397118D01*
Y0547000D01*
X0394346D01*
Y0547500D01*
D01*
Y0547000D01*
X0391575D01*
Y0545529D01*
X0390573D01*
X0390425Y0545677D01*
Y0550468D01*
X0390291D01*
X0390109Y0551068D01*
X0390302Y0551198D01*
X0390855Y0552025D01*
X0391049Y0553000D01*
X0390855Y0553975D01*
X0390692Y0554219D01*
X0390982Y0554819D01*
X0392862D01*
Y0557000D01*
X0393362D01*
Y0557500D01*
X0395937D01*
Y0557774D01*
X0410351D01*
X0422063Y0546063D01*
X0422493Y0545775D01*
X0423000Y0545675D01*
X0423310D01*
X0423514Y0545075D01*
X0423181Y0544819D01*
X0422582Y0544039D01*
X0421845D01*
X0412466Y0553418D01*
X0412355Y0553975D01*
X0411802Y0554802D01*
X0410976Y0555355D01*
X0410000Y0555549D01*
X0409024Y0555355D01*
X0408198Y0554802D01*
X0407645Y0553975D01*
X0407451Y0553000D01*
X0407506Y0552725D01*
X0407461Y0552500D01*
X0407616Y0551720D01*
X0408058Y0551058D01*
X0408720Y0550616D01*
X0409500Y0550461D01*
X0409655D01*
X0419558Y0540558D01*
X0420220Y0540116D01*
X0421000Y0539961D01*
X0422582D01*
X0423181Y0539181D01*
X0424007Y0538547D01*
X0424968Y0538149D01*
X0426000Y0538013D01*
X0427032Y0538149D01*
X0427993Y0538547D01*
X0428819Y0539181D01*
X0429453Y0540007D01*
X0429851Y0540968D01*
X0429987Y0542000D01*
X0429851Y0543032D01*
X0429453Y0543993D01*
X0428819Y0544819D01*
X0428486Y0545075D01*
X0428690Y0545675D01*
X0431000D01*
X0431507Y0545775D01*
X0431937Y0546063D01*
X0434300Y0548426D01*
X0434968Y0548149D01*
X0436000Y0548013D01*
X0437032Y0548149D01*
X0437993Y0548547D01*
X0438819Y0549181D01*
X0439342Y0549863D01*
X0439942Y0549692D01*
Y0544308D01*
X0439342Y0544137D01*
X0438819Y0544819D01*
X0437993Y0545453D01*
X0437032Y0545851D01*
X0436000Y0545987D01*
X0434968Y0545851D01*
X0434007Y0545453D01*
X0433181Y0544819D01*
X0432547Y0543993D01*
X0432149Y0543032D01*
X0432013Y0542000D01*
X0432149Y0540968D01*
X0432547Y0540007D01*
X0433181Y0539181D01*
X0434007Y0538547D01*
X0434968Y0538149D01*
X0436000Y0538013D01*
X0437032Y0538149D01*
X0437993Y0538547D01*
X0438819Y0539181D01*
X0439342Y0539863D01*
X0439942Y0539692D01*
Y0534308D01*
X0439342Y0534137D01*
X0438819Y0534819D01*
X0437993Y0535453D01*
X0437032Y0535851D01*
X0436000Y0535987D01*
X0434968Y0535851D01*
X0434007Y0535453D01*
X0433181Y0534819D01*
X0432547Y0533993D01*
X0432149Y0533032D01*
X0432013Y0532000D01*
X0432149Y0530968D01*
X0432547Y0530007D01*
X0433181Y0529181D01*
X0434007Y0528547D01*
X0434968Y0528149D01*
X0436000Y0528013D01*
X0437032Y0528149D01*
X0437993Y0528547D01*
X0438819Y0529181D01*
X0439342Y0529863D01*
X0439942Y0529692D01*
Y0500449D01*
X0438496D01*
Y0494512D01*
X0444039D01*
Y0500449D01*
X0442593D01*
Y0596732D01*
X0442492Y0597239D01*
X0442205Y0597670D01*
X0439574Y0600300D01*
X0439851Y0600968D01*
X0439987Y0602000D01*
X0439851Y0603032D01*
X0439453Y0603993D01*
X0438819Y0604819D01*
X0437993Y0605453D01*
X0437032Y0605851D01*
X0436000Y0605987D01*
X0434968Y0605851D01*
X0434007Y0605453D01*
X0433181Y0604819D01*
X0432547Y0603993D01*
X0432149Y0603032D01*
X0432013Y0602000D01*
X0432149Y0600968D01*
X0432426Y0600300D01*
X0430451Y0598325D01*
X0428690D01*
X0428486Y0598925D01*
X0428819Y0599181D01*
X0429453Y0600007D01*
X0429851Y0600968D01*
X0429987Y0602000D01*
X0429851Y0603032D01*
X0429453Y0603993D01*
X0428819Y0604819D01*
X0428486Y0605075D01*
X0428690Y0605675D01*
X0431000D01*
X0431507Y0605775D01*
X0431937Y0606063D01*
X0434300Y0608426D01*
X0434968Y0608149D01*
X0436000Y0608013D01*
X0437032Y0608149D01*
X0437993Y0608547D01*
X0438819Y0609181D01*
X0439453Y0610007D01*
X0439851Y0610968D01*
X0439987Y0612000D01*
X0439851Y0613032D01*
X0439453Y0613993D01*
X0438819Y0614819D01*
X0437993Y0615453D01*
X0437032Y0615851D01*
X0436000Y0615987D01*
X0434968Y0615851D01*
X0434007Y0615453D01*
X0433181Y0614819D01*
X0432547Y0613993D01*
X0432149Y0613032D01*
X0432013Y0612000D01*
X0432149Y0610968D01*
X0432426Y0610300D01*
X0430451Y0608325D01*
X0428690D01*
X0428486Y0608925D01*
X0428819Y0609181D01*
X0429453Y0610007D01*
X0429851Y0610968D01*
X0429987Y0612000D01*
X0429851Y0613032D01*
X0429453Y0613993D01*
X0428819Y0614819D01*
X0428486Y0615074D01*
X0428690Y0615674D01*
X0431000D01*
X0431507Y0615775D01*
X0431937Y0616063D01*
X0434300Y0618426D01*
X0434968Y0618149D01*
X0436000Y0618013D01*
X0437032Y0618149D01*
X0437993Y0618547D01*
X0438819Y0619181D01*
X0439453Y0620007D01*
X0439851Y0620968D01*
X0439987Y0622000D01*
X0439851Y0623032D01*
X0439453Y0623993D01*
X0438819Y0624819D01*
X0437993Y0625453D01*
X0437032Y0625851D01*
X0436000Y0625987D01*
X0434968Y0625851D01*
X0434007Y0625453D01*
X0433181Y0624819D01*
X0432547Y0623993D01*
X0432149Y0623032D01*
X0432013Y0622000D01*
X0432149Y0620968D01*
X0432426Y0620300D01*
X0430451Y0618326D01*
X0428690D01*
X0428486Y0618926D01*
X0428819Y0619181D01*
X0429453Y0620007D01*
X0429851Y0620968D01*
X0429987Y0622000D01*
X0429851Y0623032D01*
X0429453Y0623993D01*
X0428819Y0624819D01*
X0428486Y0625074D01*
X0428690Y0625674D01*
X0431000D01*
X0431507Y0625775D01*
X0431937Y0626063D01*
X0434300Y0628426D01*
X0434968Y0628149D01*
X0436000Y0628013D01*
X0437032Y0628149D01*
X0437993Y0628547D01*
X0438819Y0629181D01*
X0439453Y0630007D01*
X0439851Y0630968D01*
X0439987Y0632000D01*
X0439851Y0633032D01*
X0439453Y0633993D01*
X0438819Y0634819D01*
X0437993Y0635453D01*
X0437032Y0635851D01*
X0436000Y0635987D01*
X0434968Y0635851D01*
X0434007Y0635453D01*
X0433181Y0634819D01*
X0432547Y0633993D01*
X0432149Y0633032D01*
X0432013Y0632000D01*
X0432149Y0630968D01*
X0432426Y0630300D01*
X0430451Y0628326D01*
X0428690D01*
X0428486Y0628926D01*
X0428819Y0629181D01*
X0429453Y0630007D01*
X0429851Y0630968D01*
X0429987Y0632000D01*
X0429851Y0633032D01*
X0429453Y0633993D01*
X0428819Y0634819D01*
X0428486Y0635075D01*
X0428690Y0635674D01*
X0431000D01*
X0431507Y0635775D01*
X0431937Y0636063D01*
X0434300Y0638426D01*
X0434968Y0638149D01*
X0436000Y0638013D01*
X0437032Y0638149D01*
X0437993Y0638547D01*
X0438819Y0639181D01*
X0439453Y0640007D01*
X0439851Y0640968D01*
X0439987Y0642000D01*
X0439851Y0643032D01*
X0439453Y0643993D01*
X0438819Y0644819D01*
X0437993Y0645453D01*
X0437032Y0645851D01*
X0436000Y0645987D01*
X0434968Y0645851D01*
X0434007Y0645453D01*
X0433181Y0644819D01*
X0432547Y0643993D01*
X0432149Y0643032D01*
X0432013Y0642000D01*
X0432149Y0640968D01*
X0432426Y0640300D01*
X0430451Y0638326D01*
X0428690D01*
X0428486Y0638926D01*
X0428819Y0639181D01*
X0429453Y0640007D01*
X0429851Y0640968D01*
X0429987Y0642000D01*
X0429851Y0643032D01*
X0429453Y0643993D01*
X0428819Y0644819D01*
X0427993Y0645453D01*
X0427032Y0645851D01*
X0426000Y0645987D01*
X0424968Y0645851D01*
X0424007Y0645453D01*
X0423181Y0644819D01*
X0422547Y0643993D01*
X0422149Y0643032D01*
X0422013Y0642000D01*
X0422149Y0640968D01*
X0422426Y0640300D01*
X0415063Y0632937D01*
X0414775Y0632507D01*
X0414675Y0632000D01*
Y0623640D01*
X0398491Y0607457D01*
X0394937D01*
Y0608500D01*
X0392362D01*
Y0609000D01*
X0391862D01*
Y0611181D01*
X0389811D01*
X0389692Y0611781D01*
X0389855Y0612024D01*
X0390049Y0613000D01*
X0389855Y0613975D01*
X0389302Y0614802D01*
X0388475Y0615355D01*
X0387767Y0615496D01*
X0387545Y0616123D01*
X0395018Y0623596D01*
X0395360Y0624108D01*
X0395480Y0624713D01*
Y0684745D01*
X0403118Y0692382D01*
X0403460Y0692895D01*
X0403580Y0693500D01*
Y0695530D01*
X0404148Y0695723D01*
X0404181Y0695681D01*
X0405007Y0695047D01*
X0405675Y0694771D01*
Y0661760D01*
X0405414Y0661586D01*
X0404928Y0660858D01*
X0404757Y0660000D01*
X0404928Y0659142D01*
X0405414Y0658414D01*
X0406142Y0657928D01*
X0407000Y0657757D01*
X0407858Y0657928D01*
X0408586Y0658414D01*
X0409072Y0659142D01*
X0409243Y0660000D01*
X0409072Y0660858D01*
X0408586Y0661586D01*
X0408325Y0661760D01*
Y0694771D01*
X0408993Y0695047D01*
X0409819Y0695681D01*
X0410453Y0696507D01*
X0410851Y0697468D01*
X0410987Y0698500D01*
X0410851Y0699532D01*
X0410453Y0700493D01*
X0409819Y0701319D01*
X0408993Y0701953D01*
X0408032Y0702351D01*
X0407000Y0702487D01*
X0405968Y0702351D01*
X0405007Y0701953D01*
X0404181Y0701319D01*
X0404148Y0701277D01*
X0403580Y0701470D01*
Y0702000D01*
X0403460Y0702605D01*
X0403118Y0703118D01*
X0396117Y0710117D01*
X0395605Y0710460D01*
X0395000Y0710580D01*
X0342969D01*
Y0713425D01*
X0337032D01*
Y0707882D01*
X0340537D01*
X0341049Y0707540D01*
X0341653Y0707420D01*
X0344024D01*
X0344275Y0706950D01*
X0344278Y0706820D01*
X0344115Y0706000D01*
X0344285Y0705142D01*
X0344772Y0704414D01*
X0345499Y0703928D01*
X0346358Y0703757D01*
X0347216Y0703928D01*
X0347944Y0704414D01*
X0348430Y0705142D01*
X0348485Y0705420D01*
X0385658D01*
X0388162Y0702916D01*
X0387855Y0702374D01*
X0387000Y0702487D01*
X0385968Y0702351D01*
X0385007Y0701953D01*
X0384181Y0701319D01*
X0383547Y0700493D01*
X0383149Y0699532D01*
X0383013Y0698500D01*
X0383149Y0697468D01*
X0383426Y0696800D01*
X0377563Y0690937D01*
X0377275Y0690507D01*
X0377174Y0690000D01*
Y0635933D01*
X0376847Y0635665D01*
X0376701Y0635740D01*
X0376479Y0636149D01*
X0376549Y0636500D01*
X0376355Y0637475D01*
X0375802Y0638302D01*
X0374975Y0638855D01*
X0374000Y0639049D01*
X0373025Y0638855D01*
X0372781Y0638692D01*
X0372624Y0638717D01*
X0372181Y0638982D01*
Y0640862D01*
X0367819D01*
Y0638982D01*
X0367376Y0638717D01*
X0367219Y0638692D01*
X0366975Y0638855D01*
X0366000Y0639049D01*
X0365024Y0638855D01*
X0364406Y0638442D01*
X0363806Y0638714D01*
Y0649431D01*
X0370049Y0655675D01*
X0372490D01*
X0372664Y0655414D01*
X0373392Y0654928D01*
X0374250Y0654757D01*
X0375108Y0654928D01*
X0375836Y0655414D01*
X0376322Y0656142D01*
X0376493Y0657000D01*
X0376322Y0657858D01*
X0375836Y0658586D01*
X0375108Y0659072D01*
X0374250Y0659243D01*
X0373392Y0659072D01*
X0372664Y0658586D01*
X0372490Y0658325D01*
X0369500D01*
X0368993Y0658225D01*
X0368563Y0657937D01*
X0366072Y0655446D01*
X0365421Y0655644D01*
X0365355Y0655975D01*
X0364802Y0656802D01*
X0363976Y0657355D01*
X0363000Y0657549D01*
X0362024Y0657355D01*
X0361198Y0656802D01*
X0360645Y0655975D01*
X0360469Y0655089D01*
X0359869Y0655148D01*
Y0659494D01*
X0365800Y0665426D01*
X0366468Y0665149D01*
X0367500Y0665013D01*
X0368532Y0665149D01*
X0369493Y0665547D01*
X0370319Y0666181D01*
X0370953Y0667007D01*
X0371351Y0667968D01*
X0371487Y0669000D01*
X0371351Y0670032D01*
X0370953Y0670993D01*
X0370319Y0671819D01*
X0369493Y0672453D01*
X0368532Y0672851D01*
X0367500Y0672987D01*
X0366468Y0672851D01*
X0365800Y0672574D01*
X0364325Y0674049D01*
Y0675697D01*
X0364926Y0675993D01*
X0365507Y0675547D01*
X0366468Y0675149D01*
X0367000Y0675079D01*
Y0679000D01*
Y0682921D01*
X0366468Y0682851D01*
X0365507Y0682453D01*
X0364848Y0681948D01*
X0364570Y0681974D01*
X0364279Y0682045D01*
X0364152Y0682116D01*
X0363937Y0682437D01*
X0360437Y0685937D01*
X0360007Y0686225D01*
X0359500Y0686326D01*
X0356049D01*
X0346726Y0695649D01*
Y0700388D01*
X0346625Y0700895D01*
X0346337Y0701326D01*
X0343804Y0703859D01*
X0343374Y0704146D01*
X0342867Y0704247D01*
X0336726D01*
X0336606Y0704327D01*
X0336024Y0704443D01*
X0332018D01*
X0331491Y0704492D01*
X0331443Y0705018D01*
Y0706608D01*
X0331482Y0706807D01*
Y0713319D01*
X0331933Y0713770D01*
X0332000Y0713757D01*
X0332858Y0713928D01*
X0333586Y0714414D01*
X0334072Y0715142D01*
X0334243Y0716000D01*
X0334072Y0716858D01*
X0334017Y0716941D01*
X0334300Y0717471D01*
X0337032D01*
Y0714575D01*
X0342969D01*
Y0717471D01*
X0373828D01*
X0374414Y0717587D01*
X0374910Y0717919D01*
X0381774Y0724783D01*
X0382020Y0724816D01*
X0383030Y0725234D01*
X0383896Y0725899D01*
X0384562Y0726766D01*
X0384980Y0727775D01*
X0385101Y0728696D01*
X0385663Y0728982D01*
X0386630Y0728015D01*
Y0724709D01*
X0394929D01*
Y0733008D01*
X0391622D01*
X0363134Y0761496D01*
X0362403Y0762057D01*
X0361551Y0762410D01*
X0360638Y0762530D01*
X0331953D01*
Y0762953D01*
X0324047D01*
Y0755047D01*
X0331953D01*
Y0755470D01*
X0359175D01*
X0381061Y0733584D01*
X0380774Y0733022D01*
X0379854Y0732901D01*
X0378844Y0732483D01*
X0377977Y0731818D01*
X0377328Y0730972D01*
X0377004Y0730921D01*
X0376996D01*
X0376672Y0730972D01*
X0376023Y0731818D01*
X0375156Y0732483D01*
X0374146Y0732901D01*
X0373063Y0733044D01*
X0371980Y0732901D01*
X0370970Y0732483D01*
X0370104Y0731818D01*
X0369438Y0730951D01*
X0369020Y0729942D01*
X0368878Y0728858D01*
X0369020Y0727775D01*
X0369438Y0726766D01*
X0370104Y0725899D01*
X0370970Y0725234D01*
X0371980Y0724816D01*
X0372471Y0724751D01*
Y0722634D01*
X0372366Y0722529D01*
X0342969D01*
Y0725425D01*
X0337032D01*
Y0722529D01*
X0334138D01*
X0334072Y0722858D01*
X0333586Y0723586D01*
X0332858Y0724072D01*
X0332000Y0724243D01*
X0331142Y0724072D01*
X0330414Y0723586D01*
X0329928Y0722858D01*
X0329862Y0722529D01*
X0281334D01*
X0277731Y0726133D01*
X0277964Y0726696D01*
X0278107Y0727779D01*
X0277964Y0728863D01*
X0277546Y0729872D01*
X0276881Y0730739D01*
X0276014Y0731404D01*
X0275005Y0731822D01*
X0273921Y0731965D01*
X0272838Y0731822D01*
X0271829Y0731404D01*
X0270962Y0730739D01*
X0270297Y0729872D01*
X0269879Y0728863D01*
X0269736Y0727779D01*
X0269879Y0726696D01*
X0270297Y0725687D01*
X0270962Y0724820D01*
X0271808Y0724171D01*
X0271858Y0723847D01*
Y0723839D01*
X0271808Y0723514D01*
X0270962Y0722865D01*
X0270297Y0721998D01*
X0269879Y0720989D01*
X0269736Y0719906D01*
X0269879Y0718822D01*
X0270297Y0717813D01*
X0270962Y0716946D01*
X0271829Y0716281D01*
X0272838Y0715863D01*
X0273921Y0715720D01*
X0275005Y0715863D01*
X0276014Y0716281D01*
X0276881Y0716946D01*
X0277283Y0717471D01*
X0307882D01*
Y0715500D01*
X0310850D01*
Y0714500D01*
X0307882D01*
Y0712457D01*
X0286478D01*
X0285971Y0712356D01*
X0285541Y0712069D01*
X0285440Y0711969D01*
X0281575D01*
Y0706032D01*
X0287118D01*
Y0709806D01*
X0291148D01*
X0291377Y0709252D01*
X0280917Y0698791D01*
X0280802Y0698802D01*
X0279976Y0699355D01*
X0279000Y0699549D01*
X0278025Y0699355D01*
X0277198Y0698802D01*
X0276879Y0698325D01*
X0270937D01*
Y0699181D01*
X0264138D01*
Y0697000D01*
Y0694819D01*
X0270937D01*
Y0695675D01*
X0276879D01*
X0277198Y0695198D01*
X0278025Y0694645D01*
X0279000Y0694451D01*
X0279976Y0694645D01*
X0280802Y0695198D01*
X0281140Y0695702D01*
X0281507Y0695775D01*
X0281937Y0696063D01*
X0294480Y0708606D01*
X0296882D01*
Y0706500D01*
X0299654D01*
X0302425D01*
Y0708606D01*
X0303575D01*
Y0703031D01*
X0309118D01*
Y0704471D01*
X0310015D01*
X0310198Y0704198D01*
X0311024Y0703645D01*
X0311234Y0703603D01*
X0312005Y0702833D01*
X0311775Y0702278D01*
X0296953D01*
X0296445Y0702177D01*
X0296016Y0701890D01*
X0287951Y0693825D01*
X0264000D01*
X0263493Y0693725D01*
X0263063Y0693437D01*
X0261716Y0692091D01*
X0261429Y0691661D01*
X0261328Y0691153D01*
Y0690969D01*
X0259882D01*
Y0687103D01*
X0251716Y0678937D01*
X0232472D01*
Y0669063D01*
X0242525D01*
Y0662968D01*
X0240882D01*
Y0657031D01*
X0240384Y0656786D01*
X0226817D01*
X0226309Y0656685D01*
X0225879Y0656398D01*
X0200863Y0631381D01*
X0200575Y0630951D01*
X0200475Y0630444D01*
Y0622349D01*
X0196746Y0618621D01*
X0194234D01*
X0193913Y0619221D01*
X0194188Y0619632D01*
X0194350Y0620445D01*
X0194188Y0621257D01*
X0193728Y0621946D01*
X0193039Y0622407D01*
X0192395Y0622535D01*
Y0626461D01*
X0193052D01*
X0193525Y0626145D01*
X0194500Y0625951D01*
X0195475Y0626145D01*
X0196302Y0626698D01*
X0196855Y0627525D01*
X0196855Y0627527D01*
X0196984Y0627720D01*
X0197139Y0628500D01*
X0196984Y0629280D01*
X0196855Y0629473D01*
X0196855Y0629475D01*
X0196302Y0630302D01*
X0195475Y0630855D01*
X0194500Y0631049D01*
X0193525Y0630855D01*
X0193052Y0630539D01*
X0191537D01*
Y0630681D01*
X0184738D01*
Y0628500D01*
X0184238D01*
D01*
X0184738D01*
Y0626319D01*
X0188317D01*
Y0622535D01*
X0187673Y0622407D01*
X0186984Y0621946D01*
X0186524Y0621257D01*
X0186362Y0620445D01*
X0186524Y0619632D01*
X0186984Y0618943D01*
Y0618797D01*
X0186524Y0618108D01*
X0186362Y0617295D01*
X0186408Y0617067D01*
X0185981Y0616510D01*
X0185554Y0616494D01*
X0185549Y0616500D01*
X0185355Y0617476D01*
X0184802Y0618302D01*
X0183976Y0618855D01*
X0183000Y0619049D01*
X0182025Y0618855D01*
X0181198Y0618302D01*
X0180645Y0617476D01*
X0180451Y0616500D01*
X0180645Y0615524D01*
X0180676Y0615478D01*
X0180819Y0614937D01*
X0180819Y0614937D01*
X0180819D01*
X0180819Y0614937D01*
Y0609787D01*
Y0608138D01*
X0183000D01*
X0185181D01*
Y0609787D01*
Y0612107D01*
X0186056D01*
X0186464Y0611507D01*
X0186362Y0610996D01*
X0186524Y0610183D01*
X0186984Y0609494D01*
Y0609348D01*
X0186524Y0608659D01*
X0186362Y0607846D01*
X0186524Y0607034D01*
X0186984Y0606345D01*
Y0606198D01*
X0186524Y0605510D01*
X0186462Y0605197D01*
X0190356D01*
X0194250D01*
X0194188Y0605510D01*
X0193913Y0605921D01*
X0194234Y0606521D01*
X0194646D01*
X0195153Y0606622D01*
X0195583Y0606909D01*
X0203520Y0614846D01*
X0204075Y0614616D01*
Y0612046D01*
X0194901Y0602873D01*
X0194234D01*
X0193913Y0603473D01*
X0194188Y0603884D01*
X0194250Y0604197D01*
X0190356D01*
X0186462D01*
X0186524Y0603884D01*
X0186984Y0603195D01*
Y0603049D01*
X0186524Y0602360D01*
X0186362Y0601547D01*
X0186524Y0600735D01*
X0186984Y0600046D01*
Y0599899D01*
X0186524Y0599210D01*
X0186362Y0598398D01*
X0186427Y0598073D01*
X0186031Y0597537D01*
X0185638Y0597507D01*
X0185181Y0597942D01*
Y0598937D01*
X0183925D01*
X0183780Y0599034D01*
X0183000Y0599189D01*
X0182220Y0599034D01*
X0182075Y0598937D01*
X0180819D01*
Y0598911D01*
X0179362D01*
X0178387Y0598717D01*
X0177560Y0598165D01*
X0177198Y0597802D01*
X0176645Y0596976D01*
X0176451Y0596000D01*
X0176645Y0595024D01*
X0177198Y0594198D01*
X0178024Y0593645D01*
X0179000Y0593451D01*
X0179975Y0593645D01*
X0180227Y0593813D01*
X0180819D01*
Y0592138D01*
X0183000D01*
X0185181D01*
Y0593209D01*
X0186056D01*
X0186464Y0592609D01*
X0186362Y0592098D01*
X0186524Y0591286D01*
X0186984Y0590597D01*
Y0590450D01*
X0186524Y0589761D01*
X0186362Y0588949D01*
X0186490Y0588308D01*
X0185916Y0588118D01*
X0183500D01*
Y0585150D01*
X0183000D01*
Y0584650D01*
X0180032D01*
Y0582419D01*
X0180032Y0581819D01*
X0180032Y0581581D01*
Y0575882D01*
X0180451D01*
Y0574000D01*
X0180645Y0573025D01*
X0181198Y0572198D01*
X0182025Y0571645D01*
X0183000Y0571451D01*
X0183976Y0571645D01*
X0184802Y0572198D01*
X0185355Y0573025D01*
X0185549Y0574000D01*
Y0575456D01*
X0185663Y0575571D01*
X0185929Y0575706D01*
X0186524Y0575538D01*
X0186984Y0574849D01*
Y0574702D01*
X0186524Y0574013D01*
X0186362Y0573201D01*
X0186524Y0572388D01*
X0186984Y0571699D01*
Y0571553D01*
X0186524Y0570864D01*
X0186362Y0570051D01*
X0186524Y0569239D01*
X0186984Y0568550D01*
Y0568403D01*
X0186524Y0567714D01*
X0186362Y0566902D01*
X0186524Y0566089D01*
X0186984Y0565400D01*
Y0565253D01*
X0186524Y0564565D01*
X0186362Y0563752D01*
X0186524Y0562939D01*
X0186984Y0562251D01*
Y0562104D01*
X0186524Y0561415D01*
X0186362Y0560602D01*
X0186524Y0559790D01*
X0186984Y0559101D01*
Y0558954D01*
X0186524Y0558265D01*
X0186362Y0557453D01*
X0186524Y0556640D01*
X0186984Y0555951D01*
Y0555805D01*
X0186524Y0555116D01*
X0186362Y0554303D01*
X0186524Y0553490D01*
X0186984Y0552802D01*
Y0552655D01*
X0186524Y0551966D01*
X0186362Y0551154D01*
X0186524Y0550341D01*
X0186984Y0549652D01*
Y0549506D01*
X0186524Y0548817D01*
X0186362Y0548004D01*
X0186524Y0547191D01*
X0186984Y0546502D01*
Y0546356D01*
X0186524Y0545667D01*
X0186362Y0544854D01*
X0186524Y0544042D01*
X0186984Y0543353D01*
Y0543206D01*
X0186524Y0542517D01*
X0186362Y0541705D01*
X0186524Y0540892D01*
X0186984Y0540203D01*
Y0540057D01*
X0186524Y0539368D01*
X0186362Y0538555D01*
X0186524Y0537743D01*
X0186984Y0537054D01*
X0187673Y0536593D01*
X0188411Y0536447D01*
Y0532000D01*
X0188566Y0531220D01*
X0189008Y0530558D01*
X0189670Y0530116D01*
X0190450Y0529961D01*
X0198951D01*
Y0528000D01*
X0199145Y0527025D01*
X0199698Y0526198D01*
X0200524Y0525645D01*
X0201500Y0525451D01*
X0202476Y0525645D01*
X0203302Y0526198D01*
X0203855Y0527025D01*
X0204049Y0528000D01*
Y0529819D01*
X0205962D01*
Y0532000D01*
Y0534181D01*
X0202154D01*
X0201500Y0534311D01*
X0200846Y0534181D01*
X0199163D01*
Y0534039D01*
X0192490D01*
Y0536484D01*
X0193039Y0536593D01*
X0193728Y0537054D01*
X0194188Y0537743D01*
X0194350Y0538555D01*
X0194188Y0539368D01*
X0193913Y0539779D01*
X0194234Y0540379D01*
X0194305D01*
X0194812Y0540480D01*
X0195242Y0540767D01*
X0225537Y0571063D01*
X0225825Y0571493D01*
X0225925Y0572000D01*
Y0619845D01*
X0227655Y0621574D01*
X0230557D01*
X0230956Y0620974D01*
X0230950Y0620945D01*
X0234844D01*
Y0619945D01*
X0230950D01*
X0231012Y0619632D01*
X0231472Y0618943D01*
Y0618797D01*
X0231012Y0618108D01*
X0230851Y0617295D01*
X0231012Y0616483D01*
X0231472Y0615794D01*
Y0615647D01*
X0231012Y0614958D01*
X0230950Y0614646D01*
X0234844D01*
X0238738D01*
X0238676Y0614958D01*
X0238401Y0615370D01*
X0238722Y0615970D01*
X0247973D01*
X0251067Y0612876D01*
X0250838Y0612322D01*
X0238722D01*
X0238401Y0612921D01*
X0238676Y0613333D01*
X0238738Y0613646D01*
X0234844D01*
X0230950D01*
X0231012Y0613333D01*
X0231472Y0612644D01*
Y0612498D01*
X0231012Y0611809D01*
X0230851Y0610996D01*
X0231012Y0610183D01*
X0231472Y0609494D01*
Y0609348D01*
X0231012Y0608659D01*
X0230851Y0607846D01*
X0231012Y0607034D01*
X0231472Y0606345D01*
Y0606198D01*
X0231012Y0605510D01*
X0230851Y0604697D01*
X0231012Y0603884D01*
X0231472Y0603195D01*
Y0603049D01*
X0231012Y0602360D01*
X0230851Y0601547D01*
X0231012Y0600735D01*
X0231472Y0600046D01*
Y0599899D01*
X0231012Y0599210D01*
X0230851Y0598398D01*
X0231012Y0597585D01*
X0231472Y0596896D01*
Y0596749D01*
X0231012Y0596061D01*
X0230950Y0595748D01*
X0234844D01*
Y0594748D01*
X0230950D01*
X0231012Y0594435D01*
X0231472Y0593747D01*
Y0593600D01*
X0231012Y0592911D01*
X0230851Y0592098D01*
X0231012Y0591286D01*
X0231472Y0590597D01*
Y0590450D01*
X0231012Y0589761D01*
X0230851Y0588949D01*
X0231012Y0588136D01*
X0231472Y0587447D01*
Y0587301D01*
X0231012Y0586612D01*
X0230851Y0585799D01*
X0231012Y0584987D01*
X0231472Y0584298D01*
Y0584151D01*
X0231012Y0583462D01*
X0230851Y0582650D01*
X0231012Y0581837D01*
X0231472Y0581148D01*
Y0581002D01*
X0231012Y0580313D01*
X0230950Y0580000D01*
X0234844D01*
Y0579000D01*
X0230950D01*
X0231012Y0578687D01*
X0231472Y0577998D01*
Y0577852D01*
X0231012Y0577163D01*
X0230851Y0576350D01*
X0231012Y0575538D01*
X0231472Y0574849D01*
Y0574702D01*
X0231012Y0574013D01*
X0230851Y0573201D01*
X0231012Y0572388D01*
X0231472Y0571699D01*
Y0571553D01*
X0231012Y0570864D01*
X0230851Y0570051D01*
X0231012Y0569239D01*
X0231287Y0568827D01*
X0230966Y0568227D01*
X0229002D01*
X0228591Y0568145D01*
X0228100Y0568243D01*
X0227242Y0568072D01*
X0226514Y0567586D01*
X0226028Y0566858D01*
X0225857Y0566000D01*
X0226028Y0565142D01*
X0226514Y0564414D01*
X0227242Y0563928D01*
X0228100Y0563757D01*
X0228958Y0563928D01*
X0229686Y0564414D01*
X0230172Y0565142D01*
X0230259Y0565576D01*
X0230966D01*
X0231287Y0564976D01*
X0231012Y0564565D01*
X0230851Y0563752D01*
X0231012Y0562939D01*
X0231472Y0562251D01*
Y0562104D01*
X0231012Y0561415D01*
X0230851Y0560602D01*
X0231012Y0559790D01*
X0231472Y0559101D01*
Y0558954D01*
X0231012Y0558265D01*
X0230851Y0557453D01*
X0231012Y0556640D01*
X0231472Y0555951D01*
Y0555805D01*
X0231012Y0555116D01*
X0230851Y0554303D01*
X0231012Y0553490D01*
X0231472Y0552802D01*
Y0552655D01*
X0231012Y0551966D01*
X0230851Y0551154D01*
X0231012Y0550341D01*
X0231472Y0549652D01*
Y0549506D01*
X0231012Y0548817D01*
X0230851Y0548004D01*
X0231012Y0547191D01*
X0231472Y0546502D01*
Y0546356D01*
X0231012Y0545667D01*
X0230851Y0544854D01*
X0231012Y0544042D01*
X0231472Y0543353D01*
Y0543206D01*
X0231012Y0542517D01*
X0230851Y0541705D01*
X0231012Y0540892D01*
X0231472Y0540203D01*
Y0540057D01*
X0231012Y0539368D01*
X0230950Y0539055D01*
X0234844D01*
X0238738D01*
X0238676Y0539368D01*
X0238401Y0539779D01*
X0238722Y0540379D01*
X0241000D01*
X0241507Y0540480D01*
X0241937Y0540767D01*
X0248744Y0547575D01*
X0267291D01*
Y0544500D01*
X0270654D01*
Y0544000D01*
X0271154D01*
Y0540047D01*
X0274951D01*
Y0538500D01*
X0275145Y0537525D01*
X0275698Y0536698D01*
X0276524Y0536145D01*
X0277500Y0535951D01*
X0278475Y0536145D01*
X0279302Y0536698D01*
X0279855Y0537525D01*
X0280049Y0538500D01*
Y0540047D01*
X0280709D01*
Y0542369D01*
X0286000D01*
X0286624Y0542493D01*
X0287154Y0542846D01*
X0289618Y0545311D01*
X0289972Y0545840D01*
X0290096Y0546465D01*
Y0547929D01*
X0290934D01*
X0290998Y0539167D01*
X0291037Y0538975D01*
X0291077Y0538781D01*
X0291078Y0538779D01*
X0291078Y0538777D01*
X0291189Y0538614D01*
X0291299Y0538451D01*
X0291302Y0538447D01*
X0291387Y0537932D01*
X0291347Y0537721D01*
X0283863Y0530237D01*
X0283575Y0529807D01*
X0283474Y0529300D01*
Y0507349D01*
X0273951Y0497825D01*
X0259409D01*
Y0500661D01*
X0269937Y0511189D01*
X0270225Y0511619D01*
X0270325Y0512126D01*
Y0523240D01*
X0270586Y0523414D01*
X0271072Y0524142D01*
X0271243Y0525000D01*
X0271072Y0525858D01*
X0270966Y0526018D01*
X0271249Y0526547D01*
X0275451D01*
Y0525500D01*
X0275645Y0524524D01*
X0276198Y0523698D01*
X0277025Y0523145D01*
X0278000Y0522951D01*
X0278976Y0523145D01*
X0279802Y0523698D01*
X0280355Y0524524D01*
X0280549Y0525500D01*
Y0526547D01*
X0281209D01*
Y0534453D01*
X0271654D01*
Y0530500D01*
X0271154D01*
Y0530000D01*
X0267791D01*
Y0526838D01*
X0267414Y0526586D01*
X0266928Y0525858D01*
X0266826Y0525346D01*
X0266806Y0525246D01*
X0266194D01*
X0266174Y0525346D01*
X0266072Y0525858D01*
X0265586Y0526586D01*
X0264858Y0527072D01*
X0264000Y0527243D01*
X0263142Y0527072D01*
X0262414Y0526586D01*
X0261928Y0525858D01*
X0261757Y0525000D01*
X0261928Y0524142D01*
X0262414Y0523414D01*
X0262674Y0523240D01*
Y0520175D01*
X0257929Y0515429D01*
X0254498D01*
X0253898Y0515429D01*
X0253660Y0515429D01*
X0248748D01*
Y0513826D01*
X0243618D01*
Y0515469D01*
X0238075D01*
Y0509531D01*
X0243618D01*
Y0511174D01*
X0248748D01*
Y0509492D01*
X0253660D01*
X0254260Y0509492D01*
X0254498Y0509492D01*
X0259409D01*
Y0513161D01*
X0264937Y0518689D01*
X0265225Y0519119D01*
X0265325Y0519626D01*
X0265325Y0519626D01*
Y0523240D01*
X0265586Y0523414D01*
X0266072Y0524142D01*
X0266174Y0524654D01*
X0266194Y0524754D01*
X0266806D01*
X0266826Y0524654D01*
X0266928Y0524142D01*
X0267414Y0523414D01*
X0267674Y0523240D01*
Y0512675D01*
X0257929Y0502929D01*
X0254260D01*
Y0502929D01*
X0253898D01*
Y0502929D01*
X0248748D01*
Y0501326D01*
X0244118D01*
Y0502969D01*
X0238575D01*
Y0497031D01*
X0244118D01*
Y0498674D01*
X0248748D01*
Y0496992D01*
X0249834D01*
X0250063Y0496438D01*
X0234254Y0480628D01*
X0233573Y0480703D01*
X0233453Y0480993D01*
X0232819Y0481819D01*
X0231993Y0482453D01*
X0231032Y0482851D01*
X0230000Y0482987D01*
X0228968Y0482851D01*
X0228007Y0482453D01*
X0227181Y0481819D01*
X0226547Y0480993D01*
X0226149Y0480032D01*
X0226013Y0479000D01*
X0226149Y0477968D01*
X0226547Y0477007D01*
X0227181Y0476181D01*
X0228007Y0475547D01*
X0228968Y0475149D01*
X0230000Y0475013D01*
X0231032Y0475149D01*
X0231700Y0475426D01*
X0233675Y0473451D01*
Y0471690D01*
X0233074Y0471486D01*
X0232819Y0471819D01*
X0231993Y0472453D01*
X0231032Y0472851D01*
X0230000Y0472987D01*
X0228968Y0472851D01*
X0228007Y0472453D01*
X0227181Y0471819D01*
X0226925Y0471486D01*
X0226325Y0471690D01*
Y0475000D01*
X0226225Y0475507D01*
X0225937Y0475937D01*
X0223857Y0478017D01*
X0223987Y0479000D01*
X0223851Y0480032D01*
X0223453Y0480993D01*
X0222819Y0481819D01*
X0221993Y0482453D01*
X0221032Y0482851D01*
X0220000Y0482987D01*
X0218968Y0482851D01*
X0218007Y0482453D01*
X0217181Y0481819D01*
X0216547Y0480993D01*
X0216149Y0480032D01*
X0216013Y0479000D01*
X0216149Y0477968D01*
X0216547Y0477007D01*
X0217181Y0476181D01*
X0218007Y0475547D01*
X0218968Y0475149D01*
X0220000Y0475013D01*
X0221032Y0475149D01*
X0221993Y0475547D01*
X0222324Y0475801D01*
X0223675Y0474451D01*
Y0471690D01*
X0223075Y0471486D01*
X0222819Y0471819D01*
X0221993Y0472453D01*
X0221032Y0472851D01*
X0220000Y0472987D01*
X0218968Y0472851D01*
X0218007Y0472453D01*
X0217181Y0471819D01*
X0216547Y0470993D01*
X0216149Y0470032D01*
X0216013Y0469000D01*
X0216149Y0467968D01*
X0216547Y0467007D01*
X0217181Y0466181D01*
X0218007Y0465547D01*
X0218674Y0465271D01*
Y0461424D01*
X0218775Y0460916D01*
X0219063Y0460486D01*
X0252981Y0426569D01*
X0252732Y0425969D01*
X0247575D01*
Y0420031D01*
X0251441D01*
X0252207Y0419265D01*
X0251931Y0418693D01*
X0251236Y0418555D01*
X0250514Y0418073D01*
X0250032Y0417351D01*
X0249863Y0416500D01*
X0250032Y0415649D01*
X0250514Y0414927D01*
X0251236Y0414445D01*
X0251937Y0414306D01*
Y0413694D01*
X0251236Y0413555D01*
X0250687Y0413188D01*
X0244979Y0418895D01*
Y0420031D01*
X0246425D01*
Y0425969D01*
X0240882D01*
Y0420031D01*
X0242328D01*
Y0418347D01*
X0242429Y0417839D01*
X0242716Y0417409D01*
X0248126Y0412000D01*
X0240063Y0403937D01*
X0239775Y0403507D01*
X0239125Y0403313D01*
X0238764Y0403555D01*
X0238063Y0403694D01*
Y0404306D01*
X0238764Y0404445D01*
X0239486Y0404927D01*
X0239968Y0405649D01*
X0240137Y0406500D01*
X0239968Y0407351D01*
X0239486Y0408073D01*
X0238764Y0408555D01*
X0238063Y0408694D01*
Y0409306D01*
X0238764Y0409445D01*
X0239486Y0409928D01*
X0239968Y0410649D01*
X0240137Y0411500D01*
X0239968Y0412351D01*
X0239486Y0413072D01*
X0238764Y0413555D01*
X0238063Y0413694D01*
Y0414306D01*
X0238764Y0414445D01*
X0239486Y0414927D01*
X0239968Y0415649D01*
X0240038Y0416000D01*
X0235157D01*
X0230277D01*
X0230347Y0415649D01*
X0230829Y0414927D01*
X0231551Y0414445D01*
X0232252Y0414306D01*
Y0413694D01*
X0231551Y0413555D01*
X0231528Y0413539D01*
X0223181D01*
Y0415862D01*
X0218819D01*
Y0413787D01*
Y0409063D01*
X0218961D01*
Y0408448D01*
X0218645Y0407975D01*
X0218451Y0407000D01*
X0218645Y0406025D01*
X0219198Y0405198D01*
X0220024Y0404645D01*
X0221000Y0404451D01*
X0221975Y0404645D01*
X0222802Y0405198D01*
X0223355Y0406025D01*
X0223549Y0407000D01*
X0223355Y0407975D01*
X0223039Y0408448D01*
Y0409063D01*
X0223181D01*
Y0409461D01*
X0225461D01*
Y0404000D01*
X0225616Y0403220D01*
X0226058Y0402558D01*
X0228558Y0400058D01*
X0229220Y0399616D01*
X0230000Y0399461D01*
X0231528D01*
X0231551Y0399445D01*
X0232402Y0399276D01*
X0233118D01*
Y0390843D01*
X0233274Y0390062D01*
X0233716Y0389401D01*
X0236905Y0386212D01*
X0237032Y0386127D01*
Y0384882D01*
X0242969D01*
Y0384882D01*
X0243032D01*
Y0384882D01*
X0248969D01*
Y0384882D01*
X0249031D01*
Y0384882D01*
X0254969D01*
Y0390425D01*
X0249031D01*
Y0390425D01*
X0248969D01*
Y0390425D01*
X0243032D01*
Y0390425D01*
X0242969D01*
Y0390425D01*
X0238459D01*
X0237863Y0391020D01*
X0238093Y0391575D01*
X0242969D01*
Y0391575D01*
X0243032D01*
Y0391575D01*
X0248969D01*
Y0391575D01*
X0249031D01*
Y0391575D01*
X0254969D01*
Y0397118D01*
X0253326D01*
Y0398108D01*
X0254493Y0399276D01*
X0257598D01*
X0258449Y0399445D01*
X0259171Y0399927D01*
X0259336Y0400175D01*
X0273951D01*
X0277858Y0396268D01*
X0278288Y0395980D01*
X0278795Y0395879D01*
X0285091D01*
X0285584Y0395279D01*
X0285575Y0395236D01*
X0285699Y0394616D01*
X0286050Y0394090D01*
X0286576Y0393738D01*
X0287197Y0393615D01*
X0288420D01*
Y0387681D01*
X0285138D01*
Y0385500D01*
Y0383319D01*
X0291937D01*
Y0387681D01*
X0291683D01*
Y0388720D01*
X0292000Y0388980D01*
X0295605D01*
X0295615Y0388972D01*
Y0388551D01*
X0297236D01*
Y0387551D01*
X0295615D01*
Y0385197D01*
X0295738Y0384576D01*
X0296090Y0384050D01*
X0296532Y0383755D01*
X0296742Y0383116D01*
X0294151Y0380525D01*
X0267937D01*
Y0383126D01*
X0258063D01*
Y0380525D01*
X0253350D01*
X0252842Y0380425D01*
X0252597Y0380261D01*
X0252118Y0379969D01*
X0246419D01*
X0245819Y0379969D01*
X0245581Y0379969D01*
X0243350D01*
Y0377000D01*
Y0374031D01*
X0245581D01*
X0246181Y0374031D01*
X0246419Y0374031D01*
X0252118D01*
Y0376094D01*
X0253899Y0377874D01*
X0258063D01*
Y0359472D01*
X0267937D01*
Y0377874D01*
X0281216D01*
X0281446Y0377320D01*
X0273063Y0368937D01*
X0272775Y0368507D01*
X0272674Y0368000D01*
Y0345447D01*
X0268491Y0341264D01*
X0267937Y0341493D01*
Y0345724D01*
X0258063D01*
Y0335223D01*
X0252118D01*
Y0335968D01*
X0246419D01*
X0245819Y0335968D01*
X0245581Y0335968D01*
X0243350D01*
Y0333000D01*
X0242850D01*
Y0332500D01*
X0239882D01*
Y0330569D01*
X0239882Y0329969D01*
X0239882Y0329110D01*
X0239282Y0328789D01*
X0238858Y0329072D01*
X0238000Y0329243D01*
X0237142Y0329072D01*
X0236414Y0328586D01*
X0235928Y0327858D01*
X0235757Y0327000D01*
X0235928Y0326142D01*
X0236414Y0325414D01*
X0237142Y0324928D01*
X0238000Y0324757D01*
X0238858Y0324928D01*
X0239282Y0325211D01*
X0239882Y0324890D01*
Y0324031D01*
X0245425D01*
Y0329595D01*
X0245819Y0330031D01*
X0246001D01*
X0246575Y0329594D01*
Y0324031D01*
X0252118D01*
Y0325675D01*
X0256102D01*
X0256610Y0325775D01*
X0257040Y0326063D01*
X0257509Y0326532D01*
X0258063Y0326302D01*
Y0322071D01*
X0267937D01*
Y0336960D01*
X0274937Y0343960D01*
X0275225Y0344390D01*
X0275325Y0344898D01*
Y0367451D01*
X0284549Y0376675D01*
X0286291D01*
Y0373500D01*
X0289654D01*
Y0373000D01*
X0290154D01*
Y0369047D01*
X0293160D01*
Y0368181D01*
X0291138D01*
Y0366000D01*
Y0363819D01*
X0293160D01*
Y0362740D01*
X0292150D01*
Y0353260D01*
X0299268D01*
Y0362740D01*
X0298258D01*
Y0369047D01*
X0299709D01*
Y0376953D01*
X0299709Y0376953D01*
X0299709D01*
X0300054Y0377391D01*
X0304223Y0381560D01*
X0304555Y0382056D01*
X0304671Y0382642D01*
Y0383215D01*
X0305110Y0383575D01*
X0305153Y0383584D01*
X0305753Y0383091D01*
Y0375618D01*
X0302031D01*
Y0370075D01*
X0307518D01*
Y0368925D01*
X0305500D01*
Y0366154D01*
Y0363382D01*
X0307518D01*
Y0349572D01*
X0306918Y0349169D01*
X0306079Y0349280D01*
X0304995Y0349137D01*
X0303986Y0348719D01*
X0303119Y0348054D01*
X0302454Y0347187D01*
X0302036Y0346178D01*
X0301893Y0345094D01*
X0302036Y0344011D01*
X0302454Y0343002D01*
X0303119Y0342135D01*
X0303965Y0341486D01*
X0304016Y0341161D01*
Y0341153D01*
X0303965Y0340829D01*
X0303119Y0340180D01*
X0302454Y0339313D01*
X0302036Y0338304D01*
X0301893Y0337221D01*
X0302036Y0336137D01*
X0302454Y0335128D01*
X0303119Y0334261D01*
X0303986Y0333596D01*
X0304995Y0333178D01*
X0306079Y0333035D01*
X0307162Y0333178D01*
X0308172Y0333596D01*
X0309038Y0334261D01*
X0309703Y0335128D01*
X0310121Y0336137D01*
X0310264Y0337221D01*
X0310121Y0338304D01*
X0309888Y0338867D01*
X0311966Y0340945D01*
X0312973D01*
X0313177Y0340345D01*
X0312962Y0340180D01*
X0312297Y0339313D01*
X0311878Y0338304D01*
X0311802Y0337720D01*
X0315921D01*
X0320041D01*
X0319964Y0338304D01*
X0319546Y0339313D01*
X0318881Y0340180D01*
X0318666Y0340345D01*
X0318870Y0340945D01*
X0320071D01*
Y0341564D01*
X0329658D01*
X0335679Y0335544D01*
X0335422Y0335001D01*
X0335201Y0335023D01*
Y0327051D01*
X0343173D01*
X0343151Y0327272D01*
X0343693Y0327529D01*
X0352719Y0318504D01*
X0353450Y0317943D01*
X0353732Y0317826D01*
Y0316457D01*
X0355252D01*
Y0313559D01*
X0355407Y0312779D01*
X0355849Y0312117D01*
X0357063Y0310904D01*
Y0309819D01*
X0363862D01*
Y0312000D01*
Y0314181D01*
X0359553D01*
X0359331Y0314404D01*
Y0316457D01*
X0360850D01*
Y0325543D01*
X0355664D01*
X0354502Y0326706D01*
X0354731Y0327260D01*
X0360850D01*
Y0336740D01*
X0360822D01*
Y0343619D01*
X0396031D01*
Y0341350D01*
X0399000D01*
X0401968D01*
Y0343819D01*
X0401968Y0343819D01*
Y0344181D01*
X0401968D01*
X0401968Y0344419D01*
Y0345126D01*
X0422996Y0366153D01*
X0423557Y0366884D01*
X0423910Y0367736D01*
X0424030Y0368650D01*
Y0382023D01*
X0424584Y0382253D01*
X0428919Y0377919D01*
X0429415Y0377587D01*
X0430000Y0377471D01*
X0434520D01*
Y0376031D01*
X0450471D01*
Y0371063D01*
X0443500D01*
Y0368094D01*
Y0365126D01*
X0450471D01*
Y0346000D01*
X0442500D01*
Y0337000D01*
Y0328000D01*
X0450471D01*
Y0311098D01*
X0450565Y0310626D01*
X0450438Y0308370D01*
X0449997Y0305774D01*
X0449268Y0303243D01*
X0448260Y0300809D01*
X0446986Y0298504D01*
X0445461Y0296356D01*
X0443706Y0294392D01*
X0441742Y0292637D01*
X0439594Y0291113D01*
X0437289Y0289839D01*
X0434856Y0288831D01*
X0432325Y0288102D01*
X0429728Y0287661D01*
X0427163Y0287516D01*
X0427098Y0287529D01*
X0199197D01*
X0199120Y0287514D01*
X0199098Y0287513D01*
X0196469Y0287661D01*
X0193872Y0288102D01*
X0191341Y0288831D01*
X0188908Y0289839D01*
X0186602Y0291113D01*
X0184454Y0292637D01*
X0182491Y0294392D01*
X0180735Y0296356D01*
X0179211Y0298504D01*
X0177937Y0300809D01*
X0176929Y0303243D01*
X0176200Y0305774D01*
X0175759Y0308370D01*
X0175612Y0310984D01*
X0175628Y0311000D01*
X0175628D01*
X0175529Y0311494D01*
Y0328688D01*
X0176000Y0329000D01*
X0176129Y0329000D01*
X0184500D01*
Y0338000D01*
Y0347000D01*
X0176129D01*
X0176000Y0347000D01*
X0175529Y0347312D01*
Y0717688D01*
X0176000Y0718000D01*
X0176129Y0718000D01*
X0184500D01*
Y0727000D01*
Y0736000D01*
X0176129D01*
X0176000Y0736000D01*
X0175529Y0736312D01*
Y0753902D01*
X0175514Y0753979D01*
X0175513Y0754000D01*
X0175661Y0756630D01*
X0176102Y0759226D01*
X0176831Y0761757D01*
X0177839Y0764191D01*
X0179113Y0766496D01*
X0180637Y0768644D01*
X0182392Y0770608D01*
X0184356Y0772363D01*
X0186504Y0773887D01*
X0188809Y0775161D01*
X0191243Y0776169D01*
X0193774Y0776898D01*
X0196370Y0777340D01*
X0198935Y0777484D01*
X0199000Y0777471D01*
X0427000D01*
X0427077Y0777486D01*
X0427098Y0777487D01*
X0429728Y0777340D01*
D02*
G37*
G36*
X0266575Y0690969D02*
Y0685032D01*
X0272118D01*
Y0686674D01*
X0280725D01*
Y0678937D01*
X0269874D01*
Y0669063D01*
X0280375D01*
Y0663393D01*
X0279951Y0662968D01*
X0278819Y0662968D01*
X0278581Y0662968D01*
X0276350D01*
Y0660000D01*
X0275850D01*
Y0659500D01*
X0272882D01*
Y0657386D01*
X0272882Y0657031D01*
X0272384Y0656786D01*
X0253616D01*
X0253118Y0657031D01*
X0253118Y0657386D01*
Y0659500D01*
X0250150D01*
Y0660000D01*
X0249650D01*
Y0662968D01*
X0247419D01*
X0246819Y0662968D01*
X0246581Y0662968D01*
X0245176D01*
Y0669063D01*
X0256126D01*
Y0678937D01*
X0256126D01*
X0255932Y0679404D01*
X0261560Y0685032D01*
X0265425D01*
Y0690969D01*
X0265940Y0691175D01*
X0266060D01*
X0266575Y0690969D01*
D02*
G37*
G36*
X0299882Y0694500D02*
X0302850D01*
Y0694000D01*
X0303350D01*
Y0691032D01*
X0305819D01*
Y0691032D01*
X0306181D01*
Y0691032D01*
X0309912D01*
X0310142Y0690477D01*
X0306563Y0686898D01*
X0306275Y0686468D01*
X0306174Y0685961D01*
Y0682729D01*
X0305507Y0682453D01*
X0304681Y0681819D01*
X0304047Y0680993D01*
X0303649Y0680032D01*
X0303513Y0679000D01*
X0303649Y0677968D01*
X0304047Y0677007D01*
X0304681Y0676181D01*
X0305507Y0675547D01*
X0306468Y0675149D01*
X0307500Y0675013D01*
X0308532Y0675149D01*
X0309200Y0675426D01*
X0311073Y0673553D01*
X0310929Y0672953D01*
X0305422D01*
X0296925Y0681449D01*
Y0695445D01*
X0298023Y0696543D01*
X0299882D01*
Y0694500D01*
D02*
G37*
G36*
X0345175Y0651254D02*
Y0644024D01*
X0344645Y0643741D01*
X0344476Y0643855D01*
X0343500Y0644049D01*
X0342781Y0643906D01*
X0342251Y0644247D01*
X0342181Y0644347D01*
Y0645862D01*
X0337819D01*
Y0643982D01*
X0337376Y0643717D01*
X0337219Y0643692D01*
X0336976Y0643855D01*
X0336000Y0644049D01*
X0335425Y0643935D01*
X0334825Y0644389D01*
Y0656000D01*
X0334725Y0656507D01*
X0334437Y0656937D01*
X0326886Y0664489D01*
X0327166Y0665057D01*
X0327500Y0665013D01*
X0328532Y0665149D01*
X0329493Y0665547D01*
X0330279Y0666150D01*
X0345175Y0651254D01*
D02*
G37*
G36*
X0311074Y0645051D02*
Y0642591D01*
X0310545Y0642308D01*
X0310475Y0642355D01*
X0309500Y0642549D01*
X0308781Y0642406D01*
X0308181Y0642792D01*
Y0643862D01*
X0303819D01*
Y0642847D01*
X0303749Y0642747D01*
X0303219Y0642406D01*
X0302500Y0642549D01*
X0301524Y0642355D01*
X0300698Y0641802D01*
X0300186Y0641037D01*
X0299986Y0640927D01*
X0299573Y0640802D01*
X0290394Y0649981D01*
X0290623Y0650535D01*
X0305590D01*
X0311074Y0645051D01*
D02*
G37*
G36*
X0294274Y0693919D02*
Y0680900D01*
X0294375Y0680393D01*
X0294663Y0679963D01*
X0303547Y0671078D01*
Y0665047D01*
X0310472D01*
X0328075Y0647445D01*
Y0643937D01*
X0327500D01*
Y0641362D01*
X0326500D01*
Y0643937D01*
X0324819D01*
Y0643937D01*
X0324681D01*
Y0643937D01*
X0323000D01*
Y0641362D01*
X0322500D01*
Y0640862D01*
X0320319D01*
Y0639347D01*
X0320249Y0639247D01*
X0319719Y0638906D01*
X0319000Y0639049D01*
X0318024Y0638855D01*
X0317855Y0638741D01*
X0317325Y0639024D01*
Y0650391D01*
X0317225Y0650898D01*
X0316937Y0651328D01*
X0311868Y0656398D01*
X0311438Y0656685D01*
X0310931Y0656786D01*
X0285616D01*
X0285118Y0657031D01*
Y0662968D01*
X0283026D01*
Y0669063D01*
X0293528D01*
Y0678937D01*
X0283376D01*
Y0686674D01*
X0285697D01*
X0286204Y0686775D01*
X0286634Y0687063D01*
X0293720Y0694149D01*
X0294274Y0693919D01*
D02*
G37*
G36*
X0263382Y0639000D02*
X0266154D01*
Y0638000D01*
X0263382D01*
Y0635553D01*
X0263382Y0635532D01*
X0263331Y0634953D01*
X0263291D01*
Y0631500D01*
X0266654D01*
Y0630500D01*
X0263291D01*
Y0627553D01*
X0263291Y0627047D01*
X0263291Y0626447D01*
Y0623500D01*
X0266654D01*
Y0622500D01*
X0263291D01*
Y0620473D01*
X0261402D01*
X0248537Y0633337D01*
X0248107Y0633625D01*
X0247600Y0633726D01*
X0226408D01*
X0226178Y0634280D01*
X0232680Y0640782D01*
X0263382D01*
Y0639000D01*
D02*
G37*
G36*
X0380637Y0660963D02*
X0380675Y0660907D01*
Y0620949D01*
X0377531Y0617806D01*
X0376594D01*
X0376476Y0617949D01*
X0375154D01*
X0375109Y0617979D01*
X0374488Y0618102D01*
X0371535D01*
X0368583D01*
X0367962Y0617979D01*
X0367917Y0617949D01*
X0366714D01*
X0366492Y0617734D01*
X0366108Y0617722D01*
X0366026Y0617703D01*
X0365941D01*
X0365834Y0617658D01*
X0365721Y0617632D01*
X0365652Y0617583D01*
X0365573Y0617550D01*
X0365491Y0617468D01*
X0365397Y0617401D01*
X0365352Y0617329D01*
X0365292Y0617269D01*
X0365067Y0616933D01*
X0364578Y0616606D01*
X0364000Y0616491D01*
X0363422Y0616606D01*
X0362933Y0616933D01*
X0362606Y0617422D01*
X0362491Y0618000D01*
X0362606Y0618578D01*
X0362933Y0619067D01*
X0363422Y0619394D01*
X0363531Y0619416D01*
X0363611Y0619449D01*
X0363695Y0619463D01*
X0363793Y0619524D01*
X0363899Y0619568D01*
X0363960Y0619629D01*
X0364032Y0619674D01*
X0364099Y0619768D01*
X0364180Y0619850D01*
X0364213Y0619929D01*
X0364263Y0619999D01*
X0364414Y0620335D01*
X0364422Y0620373D01*
X0364442Y0620405D01*
X0364467Y0620565D01*
X0364503Y0620723D01*
X0364496Y0620761D01*
X0364502Y0620799D01*
X0364495Y0620970D01*
X0365069Y0621084D01*
X0365596Y0621436D01*
X0365947Y0621962D01*
X0366071Y0622583D01*
Y0624210D01*
X0369035D01*
X0369543Y0624311D01*
X0369973Y0624598D01*
X0379437Y0634063D01*
X0379725Y0634493D01*
X0379825Y0635000D01*
Y0660774D01*
X0380426Y0661100D01*
X0380637Y0660963D01*
D02*
G37*
G36*
X0292110Y0622895D02*
X0293930D01*
Y0622583D01*
X0294053Y0621962D01*
X0294405Y0621436D01*
X0294931Y0621084D01*
X0295551Y0620961D01*
X0296172Y0621084D01*
X0296535Y0621327D01*
X0296899Y0621084D01*
X0297520Y0620961D01*
X0298140Y0621084D01*
X0298504Y0621327D01*
X0298868Y0621084D01*
X0299488Y0620961D01*
X0300109Y0621084D01*
X0300472Y0621327D01*
X0300836Y0621084D01*
X0301457Y0620961D01*
X0302077Y0621084D01*
X0302441Y0621327D01*
X0302805Y0621084D01*
X0303425Y0620961D01*
X0304046Y0621084D01*
X0304410Y0621327D01*
X0304773Y0621084D01*
X0305394Y0620961D01*
X0306014Y0621084D01*
X0306378Y0621327D01*
X0306742Y0621084D01*
X0307362Y0620961D01*
X0307983Y0621084D01*
X0308140Y0621190D01*
X0308326Y0621127D01*
X0308430Y0621047D01*
X0308280Y0620406D01*
X0308025Y0620355D01*
X0307198Y0619802D01*
X0306645Y0618975D01*
X0306451Y0618000D01*
X0306645Y0617025D01*
X0307198Y0616198D01*
X0308025Y0615645D01*
X0309000Y0615451D01*
X0309976Y0615645D01*
X0310802Y0616198D01*
X0311355Y0617025D01*
X0311549Y0618000D01*
X0311509Y0618202D01*
X0312453Y0619146D01*
X0312806Y0619675D01*
X0312931Y0620299D01*
Y0620684D01*
X0313268Y0620961D01*
X0313888Y0621084D01*
X0314252Y0621327D01*
X0314616Y0621084D01*
X0315236Y0620961D01*
X0315857Y0621084D01*
X0316220Y0621327D01*
X0316584Y0621084D01*
X0317205Y0620961D01*
X0317825Y0621084D01*
X0318189Y0621327D01*
X0318553Y0621084D01*
X0319173Y0620961D01*
X0319794Y0621084D01*
X0320158Y0621327D01*
X0320521Y0621084D01*
X0321142Y0620961D01*
X0321145Y0620958D01*
X0321164Y0620200D01*
X0321000Y0620049D01*
X0320024Y0619855D01*
X0319198Y0619302D01*
X0318645Y0618475D01*
X0318451Y0617500D01*
X0318645Y0616525D01*
X0319198Y0615698D01*
X0320024Y0615145D01*
X0321000Y0614951D01*
X0321975Y0615145D01*
X0322802Y0615698D01*
X0323355Y0616525D01*
X0323549Y0617500D01*
X0323509Y0617702D01*
X0324264Y0618457D01*
X0324617Y0618986D01*
X0324742Y0619610D01*
Y0620684D01*
X0325079Y0620961D01*
X0325699Y0621084D01*
X0326225Y0621436D01*
X0326577Y0621962D01*
X0326700Y0622583D01*
Y0622895D01*
X0327394D01*
Y0622583D01*
X0327518Y0621962D01*
X0327869Y0621436D01*
X0328395Y0621084D01*
X0329016Y0620961D01*
X0329636Y0621084D01*
X0330000Y0621327D01*
X0330364Y0621084D01*
X0330984Y0620961D01*
X0331321Y0620684D01*
Y0620047D01*
X0331446Y0619423D01*
X0331799Y0618894D01*
X0334705Y0615988D01*
X0335234Y0615635D01*
X0335858Y0615510D01*
X0338858D01*
X0339483Y0615635D01*
X0340012Y0615988D01*
X0340365Y0616517D01*
X0340490Y0617142D01*
Y0620684D01*
X0340827Y0620961D01*
X0341447Y0621084D01*
X0341811Y0621327D01*
X0342175Y0621084D01*
X0342795Y0620961D01*
X0343416Y0621084D01*
X0343779Y0621327D01*
X0344143Y0621084D01*
X0344764Y0620961D01*
X0345384Y0621084D01*
X0345748Y0621327D01*
X0346112Y0621084D01*
X0346732Y0620961D01*
X0347353Y0621084D01*
X0347716Y0621327D01*
X0348080Y0621084D01*
X0348701Y0620961D01*
X0349321Y0621084D01*
X0349685Y0621327D01*
X0350049Y0621084D01*
X0350669Y0620961D01*
X0351290Y0621084D01*
X0351654Y0621327D01*
X0352017Y0621084D01*
X0352638Y0620961D01*
X0353258Y0621084D01*
X0353622Y0621327D01*
X0353986Y0621084D01*
X0354606Y0620961D01*
X0354943Y0620684D01*
Y0618992D01*
X0354772Y0618877D01*
X0354220Y0618050D01*
X0354026Y0617075D01*
X0354220Y0616099D01*
X0354772Y0615272D01*
X0355599Y0614720D01*
X0356575Y0614526D01*
X0357550Y0614720D01*
X0358377Y0615272D01*
X0358930Y0616099D01*
X0359124Y0617075D01*
X0358930Y0618050D01*
X0358377Y0618877D01*
X0358206Y0618992D01*
Y0620684D01*
X0358543Y0620961D01*
X0359164Y0621084D01*
X0359528Y0621327D01*
X0359891Y0621084D01*
X0360512Y0620961D01*
X0361132Y0621084D01*
X0361496Y0621327D01*
X0361860Y0621084D01*
X0362480Y0620961D01*
X0363101Y0621084D01*
X0363213Y0621160D01*
X0363470Y0621055D01*
X0363484Y0620753D01*
X0363333Y0620416D01*
X0363024Y0620355D01*
X0362198Y0619802D01*
X0361645Y0618975D01*
X0361451Y0618000D01*
X0361645Y0617025D01*
X0362198Y0616198D01*
X0363024Y0615645D01*
X0364000Y0615451D01*
X0364976Y0615645D01*
X0365802Y0616198D01*
X0366140Y0616703D01*
X0366763Y0616722D01*
X0366961Y0616480D01*
X0367084Y0615860D01*
X0367327Y0615496D01*
X0367084Y0615132D01*
X0366961Y0614512D01*
X0367084Y0613891D01*
X0367327Y0613528D01*
X0367084Y0613164D01*
X0366961Y0612543D01*
X0367084Y0611923D01*
X0367327Y0611559D01*
X0367084Y0611195D01*
X0366961Y0610575D01*
X0367084Y0609954D01*
X0367327Y0609591D01*
X0367084Y0609227D01*
X0366961Y0608606D01*
X0367084Y0607986D01*
X0367327Y0607622D01*
X0367084Y0607258D01*
X0366961Y0606638D01*
X0367084Y0606017D01*
X0367327Y0605653D01*
X0367084Y0605290D01*
X0366961Y0604669D01*
X0367084Y0604049D01*
X0367327Y0603685D01*
X0367084Y0603321D01*
X0366961Y0602701D01*
X0367084Y0602080D01*
X0367327Y0601717D01*
X0367084Y0601353D01*
X0366961Y0600732D01*
X0367084Y0600112D01*
X0367327Y0599748D01*
X0367084Y0599384D01*
X0366961Y0598764D01*
X0367084Y0598143D01*
X0367247Y0597899D01*
X0367015Y0597322D01*
X0366404Y0597069D01*
X0365975Y0597355D01*
X0365000Y0597549D01*
X0364024Y0597355D01*
X0363198Y0596802D01*
X0362645Y0595975D01*
X0362451Y0595000D01*
X0362645Y0594025D01*
X0363198Y0593198D01*
X0364024Y0592645D01*
X0365000Y0592451D01*
X0365975Y0592645D01*
X0366384Y0592918D01*
X0366460Y0592910D01*
X0367009Y0592614D01*
X0367084Y0592238D01*
X0367327Y0591874D01*
X0367084Y0591510D01*
X0366961Y0590890D01*
X0367084Y0590269D01*
X0367327Y0589906D01*
X0367084Y0589542D01*
X0366961Y0588921D01*
X0367084Y0588301D01*
X0367327Y0587937D01*
X0367084Y0587573D01*
X0366961Y0586953D01*
X0366684Y0586616D01*
X0365054D01*
X0364549Y0587000D01*
X0364355Y0587976D01*
X0363802Y0588802D01*
X0362976Y0589355D01*
X0362000Y0589549D01*
X0361024Y0589355D01*
X0360198Y0588802D01*
X0359645Y0587976D01*
X0359451Y0587000D01*
X0359645Y0586025D01*
X0360198Y0585198D01*
X0361024Y0584645D01*
X0362000Y0584451D01*
X0362202Y0584491D01*
X0362862Y0583831D01*
X0363391Y0583477D01*
X0364016Y0583353D01*
X0366684D01*
X0366961Y0583016D01*
X0367084Y0582395D01*
X0367436Y0581869D01*
X0367962Y0581518D01*
X0368583Y0581394D01*
X0371392D01*
X0371520Y0581369D01*
X0371599Y0581384D01*
X0378000D01*
Y0579685D01*
X0377400Y0579474D01*
X0376858Y0580016D01*
X0376429Y0580303D01*
X0375921Y0580404D01*
X0375367D01*
X0375109Y0580577D01*
X0374488Y0580700D01*
X0368583D01*
X0367962Y0580577D01*
X0367436Y0580226D01*
X0367084Y0579699D01*
X0366961Y0579079D01*
X0367084Y0578458D01*
X0367327Y0578094D01*
X0367084Y0577731D01*
X0366961Y0577110D01*
X0367084Y0576490D01*
X0367327Y0576126D01*
X0367084Y0575762D01*
X0366961Y0575142D01*
X0367084Y0574521D01*
X0367327Y0574157D01*
X0367084Y0573794D01*
X0366961Y0573173D01*
X0367084Y0572553D01*
X0367327Y0572189D01*
X0367084Y0571825D01*
X0366961Y0571205D01*
X0367084Y0570584D01*
X0367327Y0570221D01*
X0367084Y0569857D01*
X0366961Y0569236D01*
X0367084Y0568616D01*
X0367327Y0568252D01*
X0367084Y0567888D01*
X0366961Y0567268D01*
X0367084Y0566647D01*
X0367327Y0566284D01*
X0367084Y0565920D01*
X0366961Y0565299D01*
X0367084Y0564679D01*
X0367327Y0564315D01*
X0367084Y0563951D01*
X0366961Y0563331D01*
X0367084Y0562710D01*
X0367327Y0562347D01*
X0367084Y0561983D01*
X0366971Y0561412D01*
X0366765Y0561257D01*
X0366408Y0561066D01*
X0365975Y0561355D01*
X0365000Y0561549D01*
X0364024Y0561355D01*
X0363198Y0560802D01*
X0362645Y0559975D01*
X0362451Y0559000D01*
X0362645Y0558025D01*
X0363198Y0557198D01*
X0364024Y0556645D01*
X0364054Y0556639D01*
X0364421Y0556272D01*
X0364950Y0555918D01*
X0365575Y0555794D01*
X0366684D01*
X0366961Y0555457D01*
X0367084Y0554836D01*
X0367327Y0554472D01*
X0367084Y0554109D01*
X0366961Y0553488D01*
X0367084Y0552868D01*
X0367327Y0552504D01*
X0367084Y0552140D01*
X0366961Y0551520D01*
X0367084Y0550899D01*
X0367327Y0550535D01*
X0367084Y0550172D01*
X0366961Y0549551D01*
X0367084Y0548931D01*
X0367436Y0548405D01*
X0367962Y0548053D01*
X0368583Y0547929D01*
X0374488D01*
X0374952Y0548022D01*
X0376647D01*
X0377198Y0547198D01*
X0378000Y0546661D01*
Y0544339D01*
X0377198Y0543802D01*
X0376645Y0542976D01*
X0376451Y0542000D01*
X0376645Y0541024D01*
X0377198Y0540198D01*
X0378000Y0539661D01*
Y0533165D01*
X0376884Y0532000D01*
X0369338D01*
X0368802Y0532802D01*
X0367975Y0533355D01*
X0367000Y0533549D01*
X0366437Y0533437D01*
X0365774Y0534100D01*
Y0538633D01*
X0365947Y0538891D01*
X0366071Y0539512D01*
Y0545417D01*
X0365947Y0546038D01*
X0365596Y0546564D01*
X0365069Y0546916D01*
X0364449Y0547039D01*
X0363828Y0546916D01*
X0363465Y0546673D01*
X0363101Y0546916D01*
X0362480Y0547039D01*
X0361860Y0546916D01*
X0361496Y0546673D01*
X0361132Y0546916D01*
X0360512Y0547039D01*
X0359891Y0546916D01*
X0359528Y0546673D01*
X0359164Y0546916D01*
X0358543Y0547039D01*
X0358206Y0547316D01*
Y0548008D01*
X0358377Y0548123D01*
X0358930Y0548950D01*
X0359124Y0549925D01*
X0358930Y0550901D01*
X0358377Y0551728D01*
X0357550Y0552280D01*
X0356575Y0552474D01*
X0355599Y0552280D01*
X0354772Y0551728D01*
X0354220Y0550901D01*
X0354026Y0549925D01*
X0354220Y0548950D01*
X0354772Y0548123D01*
X0354943Y0548008D01*
Y0547316D01*
X0354606Y0547039D01*
X0353986Y0546916D01*
X0353622Y0546673D01*
X0353258Y0546916D01*
X0352638Y0547039D01*
X0352017Y0546916D01*
X0351654Y0546673D01*
X0351290Y0546916D01*
X0350669Y0547039D01*
X0350049Y0546916D01*
X0349685Y0546673D01*
X0349321Y0546916D01*
X0348701Y0547039D01*
X0348080Y0546916D01*
X0347716Y0546673D01*
X0347353Y0546916D01*
X0346732Y0547039D01*
X0346112Y0546916D01*
X0345748Y0546673D01*
X0345384Y0546916D01*
X0344764Y0547039D01*
X0344143Y0546916D01*
X0343779Y0546673D01*
X0343416Y0546916D01*
X0342795Y0547039D01*
X0342175Y0546916D01*
X0341811Y0546673D01*
X0341447Y0546916D01*
X0340827Y0547039D01*
X0340206Y0546916D01*
X0339843Y0546673D01*
X0339479Y0546916D01*
X0338858Y0547039D01*
X0338238Y0546916D01*
X0337874Y0546673D01*
X0337510Y0546916D01*
X0336890Y0547039D01*
X0336269Y0546916D01*
X0335906Y0546673D01*
X0335542Y0546916D01*
X0334921Y0547039D01*
X0334301Y0546916D01*
X0333937Y0546673D01*
X0333573Y0546916D01*
X0332953Y0547039D01*
X0332630Y0546975D01*
X0332335Y0547528D01*
X0332653Y0547847D01*
X0333007Y0548376D01*
X0333131Y0549000D01*
Y0550083D01*
X0333302Y0550198D01*
X0333855Y0551024D01*
X0334049Y0552000D01*
X0333855Y0552976D01*
X0333302Y0553802D01*
X0332475Y0554355D01*
X0331500Y0554549D01*
X0330524Y0554355D01*
X0329698Y0553802D01*
X0329145Y0552976D01*
X0328951Y0552000D01*
X0329145Y0551024D01*
X0329698Y0550198D01*
X0329737Y0549544D01*
X0327862Y0547669D01*
X0327509Y0547140D01*
X0327286Y0546991D01*
X0327047Y0547039D01*
X0326427Y0546916D01*
X0325901Y0546564D01*
X0325549Y0546038D01*
X0325426Y0545417D01*
Y0542513D01*
X0325416Y0542465D01*
Y0536176D01*
X0324847Y0535606D01*
X0324493Y0535077D01*
X0324369Y0534453D01*
Y0532000D01*
X0320826D01*
Y0533951D01*
X0323937Y0537063D01*
X0324225Y0537493D01*
X0324325Y0538000D01*
Y0538468D01*
X0324608Y0538891D01*
X0324732Y0539512D01*
Y0545417D01*
X0324608Y0546038D01*
X0324257Y0546564D01*
X0323731Y0546916D01*
X0323110Y0547039D01*
X0322490Y0546916D01*
X0322126Y0546673D01*
X0321762Y0546916D01*
X0321142Y0547039D01*
X0320805Y0547316D01*
Y0548827D01*
X0320680Y0549451D01*
X0320327Y0549980D01*
X0319009Y0551298D01*
X0319049Y0551500D01*
X0318855Y0552476D01*
X0318302Y0553302D01*
X0317476Y0553855D01*
X0316500Y0554049D01*
X0315525Y0553855D01*
X0314698Y0553302D01*
X0314145Y0552476D01*
X0313951Y0551500D01*
X0314145Y0550525D01*
X0314698Y0549698D01*
X0315525Y0549145D01*
X0316500Y0548951D01*
X0316702Y0548991D01*
X0317542Y0548151D01*
Y0547316D01*
X0317205Y0547039D01*
X0316584Y0546916D01*
X0316220Y0546673D01*
X0315857Y0546916D01*
X0315236Y0547039D01*
X0314616Y0546916D01*
X0314252Y0546673D01*
X0313888Y0546916D01*
X0313268Y0547039D01*
X0312647Y0546916D01*
X0312283Y0546673D01*
X0311920Y0546916D01*
X0311299Y0547039D01*
X0310679Y0546916D01*
X0310315Y0546673D01*
X0309951Y0546916D01*
X0309331Y0547039D01*
X0308710Y0546916D01*
X0308347Y0546673D01*
X0307983Y0546916D01*
X0307362Y0547039D01*
X0306742Y0546916D01*
X0306378Y0546673D01*
X0306014Y0546916D01*
X0305394Y0547039D01*
X0304773Y0546916D01*
X0304410Y0546673D01*
X0304046Y0546916D01*
X0303425Y0547039D01*
X0302805Y0546916D01*
X0302441Y0546673D01*
X0302077Y0546916D01*
X0301457Y0547039D01*
X0300836Y0546916D01*
X0300472Y0546673D01*
X0300109Y0546916D01*
X0299488Y0547039D01*
X0298868Y0546916D01*
X0298504Y0546673D01*
X0298140Y0546916D01*
X0297520Y0547039D01*
X0296899Y0546916D01*
X0296535Y0546673D01*
X0296172Y0546916D01*
X0295551Y0547039D01*
X0294931Y0546916D01*
X0294405Y0546564D01*
X0294053Y0546038D01*
X0293930Y0545417D01*
Y0540304D01*
X0292572Y0538947D01*
X0292017Y0539174D01*
X0291952Y0548036D01*
X0292038Y0548053D01*
X0292564Y0548405D01*
X0292916Y0548931D01*
X0293039Y0549551D01*
X0292916Y0550172D01*
X0292673Y0550535D01*
X0292916Y0550899D01*
X0293039Y0551520D01*
X0292916Y0552140D01*
X0292673Y0552504D01*
X0292916Y0552868D01*
X0293039Y0553488D01*
X0292916Y0554109D01*
X0292673Y0554472D01*
X0292916Y0554836D01*
X0293039Y0555457D01*
X0292916Y0556077D01*
X0292673Y0556441D01*
X0292916Y0556805D01*
X0293039Y0557425D01*
X0292916Y0558046D01*
X0292673Y0558410D01*
X0292916Y0558773D01*
X0293039Y0559394D01*
X0292916Y0560014D01*
X0292673Y0560378D01*
X0292916Y0560742D01*
X0293039Y0561362D01*
X0292916Y0561983D01*
X0292673Y0562347D01*
X0292916Y0562710D01*
X0293039Y0563331D01*
X0292916Y0563951D01*
X0292564Y0564477D01*
X0292038Y0564829D01*
X0291829Y0564870D01*
X0291823Y0565727D01*
X0292038Y0565769D01*
X0292564Y0566121D01*
X0292916Y0566647D01*
X0293039Y0567268D01*
X0292916Y0567888D01*
X0292673Y0568252D01*
X0292916Y0568616D01*
X0293039Y0569236D01*
X0293316Y0569573D01*
X0294384D01*
X0295024Y0569145D01*
X0296000Y0568951D01*
X0296975Y0569145D01*
X0297802Y0569698D01*
X0298355Y0570525D01*
X0298549Y0571500D01*
X0298355Y0572475D01*
X0297802Y0573302D01*
X0296975Y0573855D01*
X0296910Y0573868D01*
X0297000Y0574451D01*
X0297975Y0574645D01*
X0298802Y0575198D01*
X0299355Y0576024D01*
X0299549Y0577000D01*
X0299355Y0577976D01*
X0298802Y0578802D01*
X0297975Y0579355D01*
X0297000Y0579549D01*
X0296798Y0579509D01*
X0294106Y0582201D01*
X0293577Y0582554D01*
X0292953Y0582679D01*
X0291700D01*
X0291694Y0583418D01*
X0292038Y0583486D01*
X0292564Y0583838D01*
X0292916Y0584364D01*
X0293039Y0584984D01*
X0292916Y0585605D01*
X0292673Y0585968D01*
X0292916Y0586332D01*
X0293039Y0586953D01*
X0292916Y0587573D01*
X0292673Y0587937D01*
X0292916Y0588301D01*
X0293039Y0588921D01*
X0292916Y0589542D01*
X0292673Y0589906D01*
X0292916Y0590269D01*
X0293039Y0590890D01*
X0292916Y0591510D01*
X0292673Y0591874D01*
X0292916Y0592238D01*
X0293010Y0592714D01*
X0293272Y0592872D01*
X0293396Y0592919D01*
X0293624Y0592958D01*
X0294351Y0592472D01*
X0295327Y0592278D01*
X0296302Y0592472D01*
X0297129Y0593024D01*
X0297682Y0593851D01*
X0297876Y0594827D01*
X0297682Y0595802D01*
X0297129Y0596629D01*
X0296302Y0597182D01*
X0295327Y0597376D01*
X0294351Y0597182D01*
X0293624Y0596696D01*
X0293396Y0596735D01*
X0293272Y0596782D01*
X0293010Y0596940D01*
X0292916Y0597416D01*
X0292673Y0597780D01*
X0292916Y0598143D01*
X0293039Y0598764D01*
X0292916Y0599384D01*
X0292673Y0599748D01*
X0292916Y0600112D01*
X0293039Y0600732D01*
X0292916Y0601353D01*
X0292673Y0601717D01*
X0292916Y0602080D01*
X0293039Y0602701D01*
X0292916Y0603321D01*
X0292673Y0603685D01*
X0292916Y0604049D01*
X0293039Y0604669D01*
X0292916Y0605290D01*
X0292673Y0605653D01*
X0292916Y0606017D01*
X0293039Y0606638D01*
X0292916Y0607258D01*
X0292673Y0607622D01*
X0292916Y0607986D01*
X0293039Y0608606D01*
X0292916Y0609227D01*
X0292673Y0609591D01*
X0292916Y0609954D01*
X0293039Y0610575D01*
X0292916Y0611195D01*
X0292673Y0611559D01*
X0292916Y0611923D01*
X0293039Y0612543D01*
X0293316Y0612881D01*
X0294475D01*
X0294645Y0612024D01*
X0295198Y0611198D01*
X0296024Y0610645D01*
X0297000Y0610451D01*
X0297975Y0610645D01*
X0298802Y0611198D01*
X0299355Y0612024D01*
X0299549Y0613000D01*
X0299355Y0613975D01*
X0298802Y0614802D01*
X0297975Y0615355D01*
X0297000Y0615549D01*
X0296798Y0615509D01*
X0296642Y0615665D01*
X0296112Y0616019D01*
X0295488Y0616143D01*
X0293316D01*
X0293039Y0616480D01*
X0292916Y0617101D01*
X0292673Y0617465D01*
X0292916Y0617828D01*
X0293039Y0618449D01*
X0292916Y0619069D01*
X0292564Y0619596D01*
X0292038Y0619947D01*
X0291427Y0620069D01*
X0291406Y0622823D01*
X0291962Y0623049D01*
X0292110Y0622895D01*
D02*
G37*
G36*
X0274055Y0616022D02*
X0273951Y0615500D01*
X0274094Y0614781D01*
X0273708Y0614181D01*
X0272138D01*
Y0612000D01*
Y0609819D01*
X0274018D01*
X0274308Y0609219D01*
X0274145Y0608976D01*
X0273951Y0608000D01*
X0274045Y0607525D01*
X0273553Y0606925D01*
X0270949D01*
X0261807Y0616067D01*
X0262037Y0616622D01*
X0273576D01*
X0274055Y0616022D01*
D02*
G37*
G36*
X0263869Y0596680D02*
X0263640Y0596126D01*
X0245349D01*
X0239417Y0602058D01*
X0239665Y0602658D01*
X0242882D01*
Y0601532D01*
X0243295D01*
X0243632Y0600996D01*
X0243636Y0600932D01*
X0243451Y0600000D01*
X0243645Y0599024D01*
X0244198Y0598198D01*
X0245024Y0597645D01*
X0246000Y0597451D01*
X0246975Y0597645D01*
X0247802Y0598198D01*
X0248355Y0599024D01*
X0248549Y0600000D01*
X0248364Y0600932D01*
X0248368Y0600996D01*
X0248429Y0601093D01*
X0248819Y0601532D01*
X0249181D01*
Y0601532D01*
X0251650D01*
Y0604500D01*
X0252650D01*
Y0601532D01*
X0255118D01*
Y0604647D01*
X0255672Y0604877D01*
X0263869Y0596680D01*
D02*
G37*
G36*
X0208875Y0600616D02*
Y0595749D01*
X0197101Y0583975D01*
X0194234D01*
X0193913Y0584575D01*
X0194188Y0584987D01*
X0194250Y0585299D01*
X0190356D01*
Y0586299D01*
X0194250D01*
X0194188Y0586612D01*
X0193913Y0587023D01*
X0194234Y0587623D01*
X0194549D01*
X0195056Y0587724D01*
X0195486Y0588012D01*
X0208320Y0600846D01*
X0208875Y0600616D01*
D02*
G37*
G36*
X0271085Y0590173D02*
X0270951Y0589500D01*
X0271145Y0588524D01*
X0271308Y0588281D01*
X0271189Y0587681D01*
X0269138D01*
Y0585500D01*
X0268638D01*
Y0585000D01*
X0266063D01*
Y0583319D01*
X0266063D01*
Y0583181D01*
X0266063D01*
Y0581500D01*
X0268638D01*
Y0580500D01*
X0266063D01*
Y0579825D01*
X0262049D01*
X0261377Y0580498D01*
Y0588949D01*
X0261276Y0589456D01*
X0260988Y0589886D01*
X0260558Y0590173D01*
X0260620Y0590773D01*
X0270677D01*
X0271085Y0590173D01*
D02*
G37*
G36*
X0422057Y0592334D02*
X0422013Y0592000D01*
X0422149Y0590968D01*
X0422426Y0590300D01*
X0411451Y0579325D01*
X0394937D01*
Y0580000D01*
X0392362D01*
Y0581000D01*
X0394937D01*
Y0582681D01*
X0394937D01*
Y0582819D01*
X0394937D01*
Y0584500D01*
X0392362D01*
Y0585000D01*
X0391862D01*
Y0587181D01*
X0389982D01*
X0389692Y0587781D01*
X0389855Y0588025D01*
X0390049Y0589000D01*
X0389855Y0589976D01*
X0389741Y0590145D01*
X0390024Y0590674D01*
X0419000D01*
X0419507Y0590775D01*
X0419937Y0591063D01*
X0421489Y0592614D01*
X0422057Y0592334D01*
D02*
G37*
G36*
X0258726Y0579949D02*
X0258827Y0579442D01*
X0259098Y0579036D01*
X0259045Y0578772D01*
X0258906Y0578436D01*
X0248242D01*
X0248060Y0579036D01*
X0248302Y0579198D01*
X0248855Y0580024D01*
X0249049Y0581000D01*
X0248855Y0581976D01*
X0248692Y0582219D01*
X0248982Y0582819D01*
X0250862D01*
Y0585000D01*
X0251362D01*
Y0585500D01*
X0253937D01*
Y0587181D01*
X0254318Y0587623D01*
X0258726D01*
Y0579949D01*
D02*
G37*
G36*
X0210074Y0592416D02*
Y0578949D01*
X0208801Y0577676D01*
X0194234D01*
X0193913Y0578276D01*
X0194188Y0578687D01*
X0194350Y0579500D01*
X0194188Y0580313D01*
X0193913Y0580724D01*
X0194234Y0581324D01*
X0197650D01*
X0198157Y0581425D01*
X0198587Y0581712D01*
X0209520Y0592646D01*
X0210074Y0592416D01*
D02*
G37*
G36*
X0422428Y0583705D02*
X0422149Y0583032D01*
X0422013Y0582000D01*
X0422149Y0580968D01*
X0422426Y0580300D01*
X0410951Y0568825D01*
X0394937D01*
Y0569500D01*
X0392362D01*
Y0570000D01*
X0391862D01*
Y0572181D01*
X0389811D01*
X0389692Y0572781D01*
X0389855Y0573025D01*
X0390049Y0574000D01*
X0389875Y0574874D01*
X0390187Y0575475D01*
X0412800D01*
X0413307Y0575575D01*
X0413737Y0575863D01*
X0421919Y0584045D01*
X0422428Y0583705D01*
D02*
G37*
G36*
X0268063Y0566000D02*
X0270638D01*
Y0565000D01*
X0268063D01*
Y0564426D01*
X0248700D01*
X0248193Y0564325D01*
X0247763Y0564037D01*
X0242504Y0558778D01*
X0239371D01*
X0239310Y0559378D01*
X0239740Y0559665D01*
X0246749Y0566675D01*
X0268063D01*
Y0566000D01*
D02*
G37*
G36*
X0259063Y0559500D02*
X0261638D01*
Y0559000D01*
X0262138D01*
Y0556819D01*
X0264018D01*
X0264308Y0556219D01*
X0264145Y0555975D01*
X0263951Y0555000D01*
X0264065Y0554425D01*
X0263611Y0553826D01*
X0244584D01*
X0244354Y0554380D01*
X0250011Y0560037D01*
X0259063D01*
Y0559500D01*
D02*
G37*
G36*
X0381471Y0548043D02*
Y0546000D01*
X0381587Y0545415D01*
X0381919Y0544919D01*
X0385284Y0541553D01*
X0385036Y0540953D01*
X0384291D01*
Y0540376D01*
X0383737Y0540147D01*
X0381466Y0542418D01*
X0381355Y0542976D01*
X0380802Y0543802D01*
X0379976Y0544355D01*
X0379020Y0544545D01*
Y0546661D01*
X0379000Y0546760D01*
Y0546860D01*
X0378962Y0546953D01*
X0378942Y0547052D01*
X0378886Y0547135D01*
X0378848Y0547228D01*
X0378777Y0547299D01*
X0378721Y0547382D01*
X0378638Y0547438D01*
X0378567Y0547509D01*
X0377933Y0547933D01*
X0377495Y0548588D01*
X0377424Y0548659D01*
X0377368Y0548743D01*
X0377284Y0548799D01*
X0377213Y0548870D01*
X0377121Y0548908D01*
X0377037Y0548964D01*
X0376939Y0548983D01*
X0376846Y0549022D01*
X0376745D01*
X0376647Y0549041D01*
X0376481D01*
X0376473Y0549051D01*
X0371535D01*
Y0549898D01*
X0374488D01*
X0375109Y0550021D01*
X0375154Y0550051D01*
X0376464D01*
X0376480Y0550071D01*
X0379444D01*
X0381471Y0548043D01*
D02*
G37*
G36*
X0418571Y0534004D02*
Y0518900D01*
X0418687Y0518315D01*
X0419019Y0517819D01*
X0422617Y0514220D01*
Y0512628D01*
X0422063Y0512399D01*
X0419024Y0515437D01*
X0418594Y0515725D01*
X0418087Y0515826D01*
X0408484D01*
X0407977Y0515725D01*
X0407547Y0515437D01*
X0405958Y0513849D01*
X0405653Y0514153D01*
X0405500Y0514000D01*
X0398369D01*
X0398221Y0514221D01*
X0397890Y0514442D01*
X0397500Y0514520D01*
X0390422D01*
X0390020Y0514922D01*
Y0515000D01*
X0389942Y0515390D01*
X0389904Y0515447D01*
X0390225Y0516047D01*
X0390846D01*
Y0520000D01*
Y0523953D01*
X0387336D01*
X0387000Y0524020D01*
X0385086D01*
X0384866Y0524111D01*
X0383953Y0524231D01*
X0375000D01*
X0374086Y0524111D01*
X0373971Y0524063D01*
X0370260D01*
Y0524020D01*
X0370000D01*
X0369409Y0524461D01*
X0369369Y0524784D01*
X0374522Y0529937D01*
X0379740D01*
Y0530069D01*
X0380340Y0530408D01*
X0380600Y0530252D01*
X0380645Y0530024D01*
X0381198Y0529198D01*
X0382025Y0528645D01*
X0383000Y0528451D01*
X0383976Y0528645D01*
X0384802Y0529198D01*
X0385355Y0530024D01*
X0385549Y0531000D01*
X0385355Y0531976D01*
X0385040Y0532447D01*
X0385360Y0533047D01*
X0393846D01*
Y0537000D01*
X0394346D01*
Y0537500D01*
X0397709D01*
Y0540871D01*
X0411704D01*
X0418571Y0534004D01*
D02*
G37*
G36*
X0349675Y0527757D02*
Y0505603D01*
X0349219Y0505199D01*
X0349000Y0505243D01*
X0348142Y0505072D01*
X0347414Y0504586D01*
X0347045Y0504034D01*
X0346460Y0503879D01*
X0346321Y0503886D01*
X0346089Y0504071D01*
Y0510000D01*
X0345988Y0510507D01*
X0345701Y0510937D01*
X0342325Y0514313D01*
Y0522563D01*
X0343000D01*
Y0525138D01*
X0343500D01*
Y0525638D01*
X0345681D01*
Y0527689D01*
X0346281Y0527808D01*
X0346525Y0527645D01*
X0347500Y0527451D01*
X0348476Y0527645D01*
X0349075Y0528045D01*
X0349675Y0527757D01*
D02*
G37*
G36*
X0326500Y0521563D02*
X0328181D01*
X0328274Y0521002D01*
Y0515006D01*
X0328375Y0514499D01*
X0328663Y0514069D01*
X0336952Y0505779D01*
X0336931Y0505662D01*
X0336247Y0505194D01*
X0336000Y0505243D01*
X0335693Y0505182D01*
X0324325Y0516549D01*
Y0521563D01*
X0325500D01*
Y0524138D01*
X0326500D01*
Y0521563D01*
D02*
G37*
G36*
X0294508Y0526285D02*
X0294451Y0526000D01*
X0294645Y0525025D01*
X0295198Y0524198D01*
X0296024Y0523645D01*
X0297000Y0523451D01*
X0297975Y0523645D01*
X0298219Y0523808D01*
X0298819Y0523518D01*
Y0521638D01*
X0301000D01*
X0303181D01*
Y0523518D01*
X0303781Y0523808D01*
X0304025Y0523645D01*
X0305000Y0523451D01*
X0305976Y0523645D01*
X0306237Y0523819D01*
X0306766Y0523537D01*
Y0518000D01*
X0306867Y0517493D01*
X0307154Y0517063D01*
X0309111Y0515106D01*
Y0511548D01*
X0308556Y0511318D01*
X0307936Y0511938D01*
X0308072Y0512142D01*
X0308243Y0513000D01*
X0308072Y0513858D01*
X0307586Y0514586D01*
X0306858Y0515072D01*
X0306683Y0515107D01*
X0306507Y0515225D01*
X0306000Y0515325D01*
X0305493Y0515225D01*
X0305317Y0515107D01*
X0305142Y0515072D01*
X0304414Y0514586D01*
X0303928Y0513858D01*
X0303893Y0513683D01*
X0303775Y0513507D01*
X0303675Y0513000D01*
X0303775Y0512493D01*
X0303893Y0512317D01*
X0303928Y0512142D01*
X0304414Y0511414D01*
X0305142Y0510928D01*
X0305212Y0510914D01*
X0320663Y0495463D01*
X0321093Y0495175D01*
X0321600Y0495075D01*
X0321600Y0495075D01*
X0326445D01*
X0333675Y0487845D01*
Y0481690D01*
X0333074Y0481486D01*
X0332819Y0481819D01*
X0331993Y0482453D01*
X0331032Y0482851D01*
X0330000Y0482987D01*
X0328968Y0482851D01*
X0328300Y0482574D01*
X0327326Y0483549D01*
Y0489772D01*
X0327572Y0490142D01*
X0327743Y0491000D01*
X0327572Y0491858D01*
X0327086Y0492586D01*
X0326358Y0493072D01*
X0325500Y0493243D01*
X0324642Y0493072D01*
X0323914Y0492586D01*
X0323428Y0491858D01*
X0323257Y0491000D01*
X0323428Y0490142D01*
X0323914Y0489414D01*
X0324642Y0488928D01*
X0324675Y0488921D01*
Y0483000D01*
X0324775Y0482493D01*
X0325063Y0482063D01*
X0326426Y0480700D01*
X0326149Y0480032D01*
X0326013Y0479000D01*
X0326149Y0477968D01*
X0326547Y0477007D01*
X0327181Y0476181D01*
X0328007Y0475547D01*
X0328968Y0475149D01*
X0330000Y0475013D01*
X0331032Y0475149D01*
X0331700Y0475426D01*
X0333675Y0473451D01*
Y0471690D01*
X0333074Y0471486D01*
X0332819Y0471819D01*
X0331993Y0472453D01*
X0331032Y0472851D01*
X0330000Y0472987D01*
X0328968Y0472851D01*
X0328007Y0472453D01*
X0327181Y0471819D01*
X0326925Y0471486D01*
X0326325Y0471690D01*
Y0474000D01*
X0326225Y0474507D01*
X0325937Y0474937D01*
X0323574Y0477300D01*
X0323851Y0477968D01*
X0323987Y0479000D01*
X0323851Y0480032D01*
X0323453Y0480993D01*
X0322819Y0481819D01*
X0321993Y0482453D01*
X0321032Y0482851D01*
X0320000Y0482987D01*
X0318968Y0482851D01*
X0318007Y0482453D01*
X0317181Y0481819D01*
X0317063Y0481811D01*
X0293325Y0505549D01*
Y0525951D01*
X0293955Y0526580D01*
X0294508Y0526285D01*
D02*
G37*
G36*
X0387000Y0517000D02*
X0389000Y0515000D01*
Y0514500D01*
X0390000Y0513500D01*
X0397500D01*
Y0508000D01*
X0370000D01*
Y0521000D01*
Y0522000D01*
X0370500Y0522500D01*
X0370000Y0523000D01*
X0387000D01*
Y0517000D01*
D02*
G37*
G36*
X0421421Y0509292D02*
Y0507514D01*
X0420821Y0506988D01*
X0420500Y0507030D01*
X0419586Y0506910D01*
X0418735Y0506557D01*
X0418004Y0505996D01*
X0417691Y0505684D01*
X0416453D01*
Y0508347D01*
X0412500D01*
Y0508847D01*
X0412000D01*
Y0512209D01*
X0408949D01*
X0408726Y0512730D01*
X0409086Y0513174D01*
X0417538D01*
X0421421Y0509292D01*
D02*
G37*
G36*
X0408547Y0498791D02*
X0411471D01*
X0411586Y0498744D01*
X0412500Y0498623D01*
X0416970D01*
Y0477549D01*
X0406000D01*
X0405024Y0477355D01*
X0404198Y0476802D01*
X0403645Y0475976D01*
X0403451Y0475000D01*
X0403645Y0474024D01*
X0404198Y0473198D01*
X0405024Y0472645D01*
X0406000Y0472451D01*
X0416970D01*
Y0447010D01*
X0416370Y0446731D01*
X0415858Y0447072D01*
X0415000Y0447243D01*
X0414471Y0447138D01*
X0414040Y0447500D01*
X0409000D01*
X0404086D01*
X0404190Y0446711D01*
X0404688Y0445510D01*
X0405479Y0444479D01*
X0406200Y0443926D01*
X0405996Y0443326D01*
X0394287D01*
X0394083Y0443926D01*
X0394805Y0444479D01*
X0395596Y0445510D01*
X0396093Y0446711D01*
X0396263Y0448000D01*
X0396093Y0449289D01*
X0395596Y0450490D01*
X0394805Y0451521D01*
X0393773Y0452313D01*
X0392572Y0452810D01*
X0391283Y0452980D01*
X0389995Y0452810D01*
X0388830Y0452328D01*
X0378326Y0462832D01*
Y0470751D01*
X0378925Y0471072D01*
X0379142Y0470928D01*
X0380000Y0470757D01*
X0380858Y0470928D01*
X0381586Y0471414D01*
X0382072Y0472142D01*
X0382243Y0473000D01*
X0382072Y0473858D01*
X0381586Y0474586D01*
X0381326Y0474760D01*
Y0479000D01*
X0381225Y0479507D01*
X0380937Y0479937D01*
X0376429Y0484446D01*
X0376658Y0485000D01*
X0384116D01*
X0389558Y0479558D01*
X0389558Y0479558D01*
X0390220Y0479116D01*
X0391000Y0478961D01*
X0391000Y0478961D01*
X0398552D01*
X0399025Y0478645D01*
X0400000Y0478451D01*
X0400976Y0478645D01*
X0401802Y0479198D01*
X0402355Y0480024D01*
X0402549Y0481000D01*
X0402355Y0481976D01*
X0401802Y0482802D01*
X0400976Y0483355D01*
X0400000Y0483549D01*
X0399025Y0483355D01*
X0398552Y0483039D01*
X0391845D01*
X0390438Y0484446D01*
X0390668Y0485000D01*
X0400000D01*
Y0492000D01*
X0406000D01*
Y0500711D01*
X0408547D01*
Y0498791D01*
D02*
G37*
G36*
X0278007Y0465547D02*
X0278675Y0465271D01*
Y0458854D01*
X0278775Y0458347D01*
X0279063Y0457917D01*
X0284417Y0452563D01*
X0284847Y0452275D01*
X0285354Y0452175D01*
X0292976D01*
X0293259Y0451645D01*
X0293145Y0451475D01*
X0292951Y0450500D01*
X0293145Y0449524D01*
X0293308Y0449281D01*
X0293018Y0448681D01*
X0291138D01*
Y0446500D01*
X0290638D01*
Y0446000D01*
X0288063D01*
Y0445326D01*
X0284843D01*
X0276651Y0453518D01*
Y0465990D01*
X0277251Y0466127D01*
X0278007Y0465547D01*
D02*
G37*
G36*
X0375675Y0464516D02*
Y0462284D01*
X0375775Y0461776D01*
X0376063Y0461346D01*
X0386956Y0450453D01*
X0386473Y0449289D01*
X0386304Y0448000D01*
X0386473Y0446711D01*
X0386971Y0445510D01*
X0387762Y0444479D01*
X0388484Y0443926D01*
X0388280Y0443326D01*
X0380895D01*
X0378284Y0445937D01*
X0378118Y0446048D01*
Y0447968D01*
X0372575D01*
Y0447039D01*
X0371425D01*
Y0447968D01*
X0365882D01*
Y0447110D01*
X0365282Y0446789D01*
X0364858Y0447072D01*
X0364000Y0447243D01*
X0363142Y0447072D01*
X0362926Y0446928D01*
X0362326Y0447249D01*
Y0451951D01*
X0375120Y0464746D01*
X0375675Y0464516D01*
D02*
G37*
G36*
X0319236Y0429094D02*
X0319360Y0428474D01*
X0319390Y0428429D01*
Y0427572D01*
X0319510Y0427596D01*
X0319874Y0427839D01*
X0320238Y0427596D01*
X0320858Y0427473D01*
X0321195Y0427196D01*
Y0426173D01*
X0321320Y0425549D01*
X0321673Y0425020D01*
X0321991Y0424702D01*
X0321951Y0424500D01*
X0322145Y0423525D01*
X0322698Y0422698D01*
X0323524Y0422145D01*
X0324500Y0421951D01*
X0324587Y0421968D01*
X0324948Y0421428D01*
X0324645Y0420975D01*
X0324451Y0420000D01*
X0324645Y0419025D01*
X0325198Y0418198D01*
X0326025Y0417645D01*
X0327000Y0417451D01*
X0327976Y0417645D01*
X0328802Y0418198D01*
X0328931Y0418390D01*
X0329492Y0418308D01*
X0329763Y0417760D01*
X0329596Y0417510D01*
X0329473Y0416890D01*
X0329596Y0416269D01*
X0329839Y0415906D01*
X0329596Y0415542D01*
X0329473Y0414921D01*
X0329596Y0414301D01*
X0329839Y0413937D01*
X0329596Y0413573D01*
X0329473Y0412953D01*
X0329196Y0412616D01*
X0327932D01*
X0327818Y0412787D01*
X0326991Y0413339D01*
X0326016Y0413533D01*
X0325040Y0413339D01*
X0324213Y0412787D01*
X0323661Y0411960D01*
X0323467Y0410984D01*
X0323661Y0410009D01*
X0324213Y0409182D01*
X0325040Y0408629D01*
X0326016Y0408435D01*
X0326991Y0408629D01*
X0327818Y0409182D01*
X0327932Y0409353D01*
X0329196D01*
X0329473Y0409016D01*
X0329596Y0408395D01*
X0329839Y0408032D01*
X0329596Y0407668D01*
X0329473Y0407047D01*
X0329596Y0406427D01*
X0329839Y0406063D01*
X0329596Y0405699D01*
X0329473Y0405079D01*
X0329596Y0404458D01*
X0329839Y0404095D01*
X0329596Y0403731D01*
X0329473Y0403110D01*
X0329596Y0402490D01*
X0329839Y0402126D01*
X0329596Y0401762D01*
X0329473Y0401142D01*
X0329596Y0400521D01*
X0329839Y0400157D01*
X0329596Y0399794D01*
X0329473Y0399173D01*
X0329596Y0398553D01*
X0329839Y0398189D01*
X0329596Y0397825D01*
X0329473Y0397205D01*
X0329596Y0396584D01*
X0329839Y0396220D01*
X0329596Y0395857D01*
X0329473Y0395236D01*
X0329596Y0394616D01*
X0329948Y0394090D01*
X0330474Y0393738D01*
X0331000Y0393633D01*
Y0391000D01*
X0330000Y0390000D01*
X0328385D01*
Y0390905D01*
X0328262Y0391526D01*
X0327910Y0392052D01*
X0327384Y0392404D01*
X0326764Y0392527D01*
X0326356Y0393058D01*
X0326302Y0393329D01*
X0325949Y0393858D01*
X0325426Y0394381D01*
X0325549Y0395000D01*
X0325355Y0395975D01*
X0324802Y0396802D01*
X0323975Y0397355D01*
X0323000Y0397549D01*
X0322024Y0397355D01*
X0321198Y0396802D01*
X0320645Y0395975D01*
X0320491Y0395200D01*
X0320234Y0395149D01*
X0319705Y0394795D01*
X0319351Y0394266D01*
X0319227Y0393642D01*
Y0393302D01*
X0318926Y0393140D01*
X0318467Y0393412D01*
X0318428Y0393608D01*
X0318075Y0394138D01*
X0317462Y0394751D01*
X0317502Y0394953D01*
X0317308Y0395928D01*
X0316755Y0396755D01*
X0315928Y0397308D01*
X0314953Y0397502D01*
X0313977Y0397308D01*
X0313150Y0396755D01*
X0312598Y0395928D01*
X0312404Y0394953D01*
X0312598Y0393977D01*
X0313150Y0393150D01*
X0312995Y0392536D01*
X0312984Y0392527D01*
X0312364Y0392404D01*
X0312000Y0392161D01*
X0311636Y0392404D01*
X0311016Y0392527D01*
X0310395Y0392404D01*
X0310032Y0392161D01*
X0309668Y0392404D01*
X0309047Y0392527D01*
X0308427Y0392404D01*
X0308253Y0392288D01*
X0307645Y0392533D01*
X0307422Y0393071D01*
X0307465Y0393135D01*
X0307659Y0394110D01*
X0307465Y0395086D01*
X0306913Y0395913D01*
X0306086Y0396465D01*
X0305110Y0396659D01*
X0304135Y0396465D01*
X0303308Y0395913D01*
X0302755Y0395086D01*
X0302561Y0394110D01*
X0302755Y0393135D01*
X0302798Y0393071D01*
X0302575Y0392533D01*
X0301968Y0392288D01*
X0301794Y0392404D01*
X0301173Y0392527D01*
X0300754Y0392444D01*
X0300520Y0393009D01*
X0300802Y0393198D01*
X0301355Y0394024D01*
X0301549Y0395000D01*
X0301355Y0395975D01*
X0300802Y0396802D01*
X0299975Y0397355D01*
X0299000Y0397549D01*
X0298025Y0397355D01*
X0297198Y0396802D01*
X0296645Y0395975D01*
X0296639Y0395946D01*
X0296083Y0395390D01*
X0295729Y0394861D01*
X0295605Y0394236D01*
Y0390000D01*
X0292000D01*
Y0393615D01*
X0292905D01*
X0293526Y0393738D01*
X0294052Y0394090D01*
X0294404Y0394616D01*
X0294428Y0394736D01*
X0290051D01*
Y0395583D01*
X0292905D01*
X0293526Y0395706D01*
X0293571Y0395736D01*
X0294428D01*
X0294404Y0395857D01*
X0294161Y0396220D01*
X0294404Y0396584D01*
X0294527Y0397205D01*
X0294404Y0397825D01*
X0294161Y0398189D01*
X0294404Y0398553D01*
X0294527Y0399173D01*
X0294404Y0399794D01*
X0294161Y0400157D01*
X0294404Y0400521D01*
X0294527Y0401142D01*
X0294404Y0401762D01*
X0294161Y0402126D01*
X0294404Y0402490D01*
X0294527Y0403110D01*
X0294404Y0403731D01*
X0294161Y0404095D01*
X0294404Y0404458D01*
X0294527Y0405079D01*
X0294404Y0405699D01*
X0294161Y0406063D01*
X0294404Y0406427D01*
X0294527Y0407047D01*
X0294404Y0407668D01*
X0294161Y0408032D01*
X0294404Y0408395D01*
X0294527Y0409016D01*
X0294582Y0409083D01*
X0295198Y0409198D01*
X0296024Y0408645D01*
X0297000Y0408451D01*
X0297975Y0408645D01*
X0298802Y0409198D01*
X0299355Y0410024D01*
X0299549Y0411000D01*
X0299494Y0411275D01*
X0299539Y0411500D01*
X0299384Y0412280D01*
X0298942Y0412942D01*
X0298280Y0413384D01*
X0297500Y0413539D01*
X0297275Y0413494D01*
X0297000Y0413549D01*
X0296024Y0413355D01*
X0295198Y0412802D01*
X0294565Y0412906D01*
X0294527Y0412953D01*
X0294404Y0413573D01*
X0294161Y0413937D01*
X0294404Y0414301D01*
X0294527Y0414921D01*
X0294404Y0415542D01*
X0294161Y0415906D01*
X0294404Y0416269D01*
X0294527Y0416890D01*
X0294404Y0417510D01*
X0294161Y0417874D01*
X0294404Y0418238D01*
X0294527Y0418858D01*
X0294404Y0419479D01*
X0294161Y0419842D01*
X0294404Y0420206D01*
X0294527Y0420827D01*
X0294404Y0421447D01*
X0294161Y0421811D01*
X0294404Y0422175D01*
X0294527Y0422795D01*
X0294404Y0423416D01*
X0294161Y0423779D01*
X0294404Y0424143D01*
X0294428Y0424264D01*
X0293571D01*
X0293526Y0424294D01*
X0292905Y0424417D01*
X0290100D01*
X0290051Y0424427D01*
Y0425264D01*
X0294428D01*
X0294404Y0425384D01*
X0294052Y0425911D01*
X0293526Y0426262D01*
X0292905Y0426385D01*
X0292000D01*
Y0429000D01*
X0295633D01*
X0295738Y0428474D01*
X0296090Y0427948D01*
X0296616Y0427596D01*
X0297236Y0427473D01*
X0297644Y0426942D01*
X0297698Y0426671D01*
X0298051Y0426142D01*
X0298991Y0425202D01*
X0298951Y0425000D01*
X0299145Y0424024D01*
X0299698Y0423198D01*
X0300524Y0422645D01*
X0301500Y0422451D01*
X0302476Y0422645D01*
X0303302Y0423198D01*
X0303855Y0424024D01*
X0304049Y0425000D01*
X0303855Y0425976D01*
X0303302Y0426802D01*
X0303146Y0426907D01*
X0303325Y0427509D01*
X0303762Y0427596D01*
X0304126Y0427839D01*
X0304490Y0427596D01*
X0305110Y0427473D01*
X0305731Y0427596D01*
X0306095Y0427839D01*
X0306458Y0427596D01*
X0307079Y0427473D01*
X0307699Y0427596D01*
X0308063Y0427839D01*
X0308427Y0427596D01*
X0309047Y0427473D01*
X0309668Y0427596D01*
X0310032Y0427839D01*
X0310395Y0427596D01*
X0311016Y0427473D01*
X0311636Y0427596D01*
X0312000Y0427839D01*
X0312364Y0427596D01*
X0312984Y0427473D01*
X0313605Y0427596D01*
X0313968Y0427839D01*
X0314332Y0427596D01*
X0314953Y0427473D01*
X0315573Y0427596D01*
X0315937Y0427839D01*
X0316301Y0427596D01*
X0316921Y0427473D01*
X0317542Y0427596D01*
X0317905Y0427839D01*
X0318269Y0427596D01*
X0318390Y0427572D01*
Y0428429D01*
X0318420Y0428474D01*
X0318543Y0429094D01*
Y0431949D01*
X0319236D01*
Y0429094D01*
D02*
G37*
G36*
X0253675Y0466310D02*
Y0466000D01*
X0253775Y0465493D01*
X0254063Y0465063D01*
X0281263Y0437863D01*
X0281693Y0437575D01*
X0282200Y0437474D01*
X0289836D01*
X0295615Y0431696D01*
Y0430020D01*
X0292000D01*
X0291610Y0429942D01*
X0291279Y0429721D01*
X0291058Y0429390D01*
X0290980Y0429000D01*
Y0427037D01*
X0290380Y0426789D01*
X0282937Y0434232D01*
Y0436681D01*
X0276138D01*
Y0434500D01*
Y0432319D01*
X0279857D01*
X0280048Y0432071D01*
X0279799Y0431410D01*
X0279524Y0431355D01*
X0278698Y0430802D01*
X0278145Y0429976D01*
X0277951Y0429000D01*
X0278145Y0428024D01*
X0278308Y0427781D01*
X0278018Y0427181D01*
X0276138D01*
Y0425000D01*
Y0422819D01*
X0281024D01*
X0282201Y0421642D01*
X0282730Y0421288D01*
X0283354Y0421164D01*
X0285120D01*
X0285457Y0420630D01*
X0285091Y0420184D01*
X0273297D01*
X0251325Y0442155D01*
Y0465271D01*
X0251993Y0465547D01*
X0252819Y0466181D01*
X0253075Y0466514D01*
X0253675Y0466310D01*
D02*
G37*
G36*
X0413414Y0426414D02*
X0414142Y0425928D01*
X0415000Y0425757D01*
X0415858Y0425928D01*
X0416370Y0426269D01*
X0416970Y0425990D01*
Y0370112D01*
X0397538Y0350680D01*
X0390020D01*
Y0355009D01*
X0390302Y0355198D01*
X0390855Y0356025D01*
X0391049Y0357000D01*
X0390855Y0357976D01*
X0390302Y0358802D01*
X0390020Y0358991D01*
Y0374000D01*
X0389942Y0374390D01*
X0389721Y0374721D01*
X0389390Y0374942D01*
X0389000Y0375020D01*
X0380014D01*
X0377118Y0377915D01*
Y0380968D01*
X0376164D01*
X0376050Y0381569D01*
X0376355Y0382025D01*
X0376549Y0383000D01*
X0376355Y0383976D01*
X0375802Y0384802D01*
X0374975Y0385355D01*
X0374000Y0385549D01*
X0373025Y0385355D01*
X0372198Y0384802D01*
X0371645Y0383976D01*
X0371451Y0383000D01*
X0371645Y0382025D01*
X0371950Y0381569D01*
X0371836Y0380968D01*
X0370819Y0380968D01*
X0370581Y0380968D01*
X0368350D01*
Y0378000D01*
X0367850D01*
Y0377500D01*
X0364882D01*
Y0375031D01*
X0365475D01*
X0365724Y0374431D01*
X0360479Y0369187D01*
X0360258Y0368856D01*
X0360257Y0368850D01*
X0358042D01*
X0357813Y0369404D01*
X0361133Y0372725D01*
X0361354Y0373056D01*
X0361432Y0373446D01*
X0361354Y0373836D01*
X0361125Y0374390D01*
X0360904Y0374721D01*
X0360573Y0374942D01*
X0360183Y0375020D01*
X0349881D01*
X0349723Y0374988D01*
X0349563Y0374969D01*
X0349529Y0374950D01*
X0349490Y0374942D01*
X0349357Y0374852D01*
X0349216Y0374773D01*
X0347836Y0373587D01*
X0347812Y0373557D01*
X0347779Y0373535D01*
X0347690Y0373401D01*
X0347590Y0373274D01*
X0347580Y0373237D01*
X0347558Y0373204D01*
X0347527Y0373046D01*
X0347483Y0372891D01*
X0347488Y0372852D01*
X0347480Y0372814D01*
Y0340000D01*
X0347558Y0339610D01*
X0347779Y0339279D01*
X0348110Y0339058D01*
X0348500Y0338980D01*
X0353761D01*
Y0336740D01*
X0353732D01*
Y0328259D01*
X0353178Y0328029D01*
X0333616Y0347591D01*
X0332885Y0348152D01*
X0332034Y0348504D01*
X0331120Y0348625D01*
X0320071D01*
Y0349244D01*
X0312545D01*
Y0353260D01*
X0318850D01*
Y0362740D01*
X0317840D01*
Y0363819D01*
X0319862D01*
Y0366000D01*
Y0368181D01*
X0317840D01*
Y0369047D01*
X0321846D01*
Y0373000D01*
X0322346D01*
Y0373500D01*
X0325709D01*
Y0376369D01*
X0332063D01*
Y0375819D01*
X0338862D01*
Y0378000D01*
Y0380181D01*
X0332063D01*
Y0379631D01*
X0321676D01*
X0320419Y0380888D01*
Y0383215D01*
X0320812Y0383537D01*
X0321055Y0383558D01*
X0321450Y0383534D01*
X0321745Y0383092D01*
X0322919Y0381919D01*
X0323415Y0381587D01*
X0324000Y0381471D01*
X0330882D01*
Y0381031D01*
X0336425D01*
Y0386726D01*
X0337575D01*
Y0381031D01*
X0343118D01*
Y0381612D01*
X0343718Y0381850D01*
X0344024Y0381645D01*
X0345000Y0381451D01*
X0345975Y0381645D01*
X0346802Y0382198D01*
X0347355Y0383025D01*
X0347549Y0384000D01*
X0347355Y0384976D01*
X0346802Y0385802D01*
X0346319Y0386126D01*
X0346501Y0386726D01*
X0354949D01*
X0355456Y0386827D01*
X0355886Y0387114D01*
X0361937Y0393165D01*
X0362225Y0393595D01*
X0362326Y0394102D01*
Y0424751D01*
X0362926Y0425072D01*
X0363142Y0424928D01*
X0364000Y0424757D01*
X0364858Y0424928D01*
X0365282Y0425211D01*
X0365882Y0424890D01*
Y0424031D01*
X0371425D01*
Y0424961D01*
X0372575D01*
Y0424031D01*
X0378118D01*
Y0425674D01*
X0381347D01*
X0381854Y0425775D01*
X0382284Y0426063D01*
X0382895Y0426675D01*
X0387799D01*
X0387991Y0426106D01*
X0387762Y0425931D01*
X0386971Y0424899D01*
X0386473Y0423698D01*
X0386304Y0422409D01*
X0386473Y0421121D01*
X0386971Y0419920D01*
X0387762Y0418888D01*
X0388794Y0418097D01*
X0389995Y0417599D01*
X0390258Y0417565D01*
X0390346Y0417433D01*
X0394882Y0412897D01*
Y0409031D01*
X0400425D01*
Y0414968D01*
X0396560D01*
X0393956Y0417572D01*
X0394060Y0418317D01*
X0394805Y0418888D01*
X0395596Y0419920D01*
X0396093Y0421121D01*
X0396263Y0422409D01*
X0396093Y0423698D01*
X0395596Y0424899D01*
X0394805Y0425931D01*
X0394576Y0426106D01*
X0394768Y0426675D01*
X0405515D01*
X0405708Y0426106D01*
X0405479Y0425931D01*
X0404688Y0424899D01*
X0404190Y0423698D01*
X0404086Y0422909D01*
X0409000D01*
X0413914D01*
X0413810Y0423698D01*
X0413312Y0424899D01*
X0412521Y0425931D01*
X0412292Y0426106D01*
X0412485Y0426675D01*
X0413240D01*
X0413414Y0426414D01*
D02*
G37*
G36*
X0305563Y0461563D02*
X0305993Y0461275D01*
X0306500Y0461174D01*
X0312557D01*
X0323470Y0450262D01*
Y0436909D01*
X0323327Y0436791D01*
Y0435469D01*
X0323297Y0435424D01*
X0323173Y0434803D01*
Y0431949D01*
Y0429094D01*
X0323297Y0428474D01*
X0323327Y0428429D01*
Y0427572D01*
X0323447Y0427596D01*
X0323811Y0427839D01*
X0324175Y0427596D01*
X0324795Y0427473D01*
X0325416Y0427596D01*
X0325780Y0427839D01*
X0326143Y0427596D01*
X0326764Y0427473D01*
X0327384Y0427596D01*
X0327910Y0427948D01*
X0328262Y0428474D01*
X0328385Y0429095D01*
Y0434803D01*
X0328262Y0435424D01*
X0328089Y0435682D01*
Y0448548D01*
X0328617Y0448774D01*
X0329031Y0448432D01*
Y0444575D01*
X0334968D01*
Y0449308D01*
X0335568Y0449557D01*
X0339275Y0445851D01*
Y0422652D01*
X0338938Y0422532D01*
X0338397Y0422934D01*
X0338301Y0423416D01*
X0338058Y0423779D01*
X0338301Y0424143D01*
X0338425Y0424764D01*
X0338301Y0425384D01*
X0337950Y0425911D01*
X0337424Y0426262D01*
X0336803Y0426385D01*
X0335274D01*
Y0438705D01*
X0335173Y0439212D01*
X0334968Y0439519D01*
Y0443425D01*
X0329031D01*
Y0437882D01*
X0332623D01*
Y0426385D01*
X0331095D01*
X0330474Y0426262D01*
X0329948Y0425911D01*
X0329596Y0425384D01*
X0329473Y0424764D01*
X0329196Y0424427D01*
X0328795D01*
X0328795Y0424427D01*
X0328171Y0424302D01*
X0327642Y0423949D01*
X0326185Y0422492D01*
X0325640Y0422459D01*
X0325435Y0422535D01*
X0325153Y0422816D01*
X0324786Y0422968D01*
X0324612D01*
X0323922Y0423105D01*
X0323433Y0423433D01*
X0323106Y0423922D01*
X0322991Y0424500D01*
X0322991Y0424503D01*
Y0424603D01*
X0323011Y0424702D01*
X0322991Y0424800D01*
Y0424901D01*
X0322953Y0424994D01*
X0322933Y0425092D01*
X0322877Y0425176D01*
X0322839Y0425268D01*
X0322768Y0425339D01*
X0322712Y0425423D01*
X0322465Y0425670D01*
X0322280Y0425947D01*
X0322215Y0426274D01*
Y0426983D01*
X0322327Y0427105D01*
Y0428429D01*
X0322357Y0428474D01*
X0322480Y0429094D01*
Y0431949D01*
Y0434803D01*
X0322357Y0435424D01*
X0322327Y0435469D01*
Y0436325D01*
X0322206Y0436301D01*
X0321843Y0436058D01*
X0321479Y0436301D01*
X0320858Y0436425D01*
X0320419Y0436785D01*
Y0438296D01*
X0320529Y0438850D01*
Y0439063D01*
X0321181D01*
Y0443787D01*
Y0445862D01*
X0319000D01*
Y0446362D01*
X0318500D01*
Y0448937D01*
X0316819D01*
X0316325Y0449194D01*
Y0453000D01*
X0316225Y0453507D01*
X0316163Y0453599D01*
X0316243Y0454000D01*
X0316072Y0454858D01*
X0315586Y0455586D01*
X0314858Y0456072D01*
X0314000Y0456243D01*
X0313693Y0456182D01*
X0313337Y0456537D01*
X0312907Y0456825D01*
X0312400Y0456925D01*
X0307343D01*
X0299767Y0464502D01*
X0300092Y0465025D01*
X0301032Y0465149D01*
X0301700Y0465426D01*
X0305563Y0461563D01*
D02*
G37*
G36*
X0356075Y0415916D02*
Y0402590D01*
X0354991Y0401506D01*
X0354437Y0401736D01*
Y0403681D01*
X0352362D01*
Y0401500D01*
X0351362D01*
Y0403681D01*
X0349482D01*
X0349192Y0404281D01*
X0349355Y0404525D01*
X0349549Y0405500D01*
X0349355Y0406475D01*
X0348802Y0407302D01*
X0348037Y0407814D01*
X0347927Y0408014D01*
X0347802Y0408427D01*
X0355520Y0416146D01*
X0356075Y0415916D01*
D02*
G37*
G36*
X0432919Y0416919D02*
X0433415Y0416587D01*
X0434000Y0416471D01*
X0434520D01*
Y0415031D01*
X0450471D01*
Y0410063D01*
X0443500D01*
Y0407094D01*
Y0404126D01*
X0450471D01*
Y0392874D01*
X0443500D01*
Y0389906D01*
Y0386937D01*
X0450471D01*
Y0381968D01*
X0434520D01*
Y0380529D01*
X0430633D01*
X0425676Y0385487D01*
Y0423377D01*
X0426230Y0423607D01*
X0432919Y0416919D01*
D02*
G37*
G36*
X0389000Y0350680D02*
X0385750D01*
Y0356500D01*
X0381275D01*
X0376800D01*
Y0350680D01*
X0358359D01*
X0358205Y0350744D01*
X0357291Y0350864D01*
X0356378Y0350744D01*
X0356152Y0350650D01*
X0352250D01*
Y0345150D01*
X0353761D01*
Y0340000D01*
X0348500D01*
Y0372814D01*
X0349881Y0374000D01*
X0360183D01*
X0360412Y0373446D01*
X0355817Y0368850D01*
X0352250D01*
Y0363350D01*
X0361200D01*
Y0368466D01*
X0366734Y0374000D01*
X0389000D01*
Y0350680D01*
D02*
G37*
%LPC*%
G36*
X0318000Y0762987D02*
X0316968Y0762851D01*
X0316194Y0762530D01*
X0284000D01*
X0283086Y0762410D01*
X0282235Y0762057D01*
X0281504Y0761496D01*
X0254004Y0733996D01*
X0253443Y0733265D01*
X0253090Y0732414D01*
X0252970Y0731500D01*
Y0724000D01*
X0253090Y0723086D01*
X0253443Y0722235D01*
X0254004Y0721504D01*
X0258098Y0717409D01*
X0258829Y0716848D01*
X0259681Y0716496D01*
X0259929Y0716463D01*
Y0715756D01*
X0265345D01*
X0267110Y0713990D01*
Y0712393D01*
X0266686Y0711969D01*
X0265819Y0711969D01*
X0265581Y0711969D01*
X0263350D01*
Y0709000D01*
Y0706032D01*
X0265581D01*
X0266181Y0706032D01*
X0266419Y0706032D01*
X0267110D01*
Y0705181D01*
X0264138D01*
Y0703000D01*
Y0700819D01*
X0270937D01*
Y0702075D01*
X0271034Y0702220D01*
X0271189Y0703000D01*
Y0706032D01*
X0272118D01*
Y0707675D01*
X0274882D01*
Y0706032D01*
X0280425D01*
Y0711969D01*
X0274882D01*
Y0710325D01*
X0272118D01*
Y0711969D01*
X0271189D01*
Y0714835D01*
X0271034Y0715615D01*
X0270591Y0716277D01*
X0268228Y0718640D01*
Y0724055D01*
X0267027D01*
X0266823Y0724655D01*
X0267038Y0724820D01*
X0267703Y0725687D01*
X0268122Y0726696D01*
X0268198Y0727280D01*
X0264079D01*
Y0727779D01*
X0263579D01*
Y0731899D01*
X0262996Y0731822D01*
X0262428Y0731588D01*
X0262089Y0732096D01*
X0285462Y0755470D01*
X0316194D01*
X0316968Y0755149D01*
X0318000Y0755013D01*
X0319032Y0755149D01*
X0319993Y0755547D01*
X0320819Y0756181D01*
X0321453Y0757007D01*
X0321851Y0757968D01*
X0321987Y0759000D01*
X0321851Y0760032D01*
X0321453Y0760993D01*
X0320819Y0761819D01*
X0319993Y0762453D01*
X0319032Y0762851D01*
X0318000Y0762987D01*
D02*
G37*
G36*
X0225800Y0774100D02*
X0215800D01*
Y0734100D01*
X0225800D01*
Y0774100D01*
D02*
G37*
G36*
X0351134Y0748049D02*
X0349471Y0747885D01*
X0347873Y0747400D01*
X0346400Y0746613D01*
X0345108Y0745553D01*
X0344049Y0744262D01*
X0343261Y0742789D01*
X0342776Y0741190D01*
X0342613Y0739528D01*
X0342776Y0737865D01*
X0343261Y0736267D01*
X0344049Y0734793D01*
X0345108Y0733502D01*
X0346400Y0732442D01*
X0347873Y0731655D01*
X0349471Y0731170D01*
X0351134Y0731006D01*
X0352796Y0731170D01*
X0354395Y0731655D01*
X0355868Y0732442D01*
X0357159Y0733502D01*
X0358219Y0734793D01*
X0359007Y0736267D01*
X0359491Y0737865D01*
X0359655Y0739528D01*
X0359491Y0741190D01*
X0359007Y0742789D01*
X0358219Y0744262D01*
X0357159Y0745553D01*
X0355868Y0746613D01*
X0354395Y0747400D01*
X0352796Y0747885D01*
X0351134Y0748049D01*
D02*
G37*
G36*
X0292701Y0746970D02*
X0291038Y0746806D01*
X0289440Y0746321D01*
X0287967Y0745534D01*
X0286675Y0744474D01*
X0285615Y0743183D01*
X0284828Y0741710D01*
X0284343Y0740111D01*
X0284179Y0738449D01*
X0284343Y0736786D01*
X0284828Y0735188D01*
X0285615Y0733715D01*
X0286675Y0732423D01*
X0287967Y0731364D01*
X0289440Y0730576D01*
X0291038Y0730091D01*
X0292701Y0729927D01*
X0294363Y0730091D01*
X0295962Y0730576D01*
X0297435Y0731364D01*
X0298726Y0732423D01*
X0299786Y0733715D01*
X0300573Y0735188D01*
X0301058Y0736786D01*
X0301222Y0738449D01*
X0301058Y0740111D01*
X0300573Y0741710D01*
X0299786Y0743183D01*
X0298726Y0744474D01*
X0297435Y0745534D01*
X0295962Y0746321D01*
X0294363Y0746806D01*
X0292701Y0746970D01*
D02*
G37*
G36*
X0245299D02*
X0243637Y0746806D01*
X0242038Y0746321D01*
X0240565Y0745534D01*
X0239274Y0744474D01*
X0238214Y0743183D01*
X0237426Y0741710D01*
X0236942Y0740111D01*
X0236778Y0738449D01*
X0236942Y0736786D01*
X0237426Y0735188D01*
X0238028Y0734062D01*
X0231558Y0727592D01*
X0231116Y0726930D01*
X0230961Y0726150D01*
Y0721937D01*
X0230819D01*
Y0716787D01*
Y0715138D01*
X0233000D01*
X0235181D01*
Y0716787D01*
Y0721937D01*
X0235039D01*
Y0725305D01*
X0240912Y0731178D01*
X0242038Y0730576D01*
X0243637Y0730091D01*
X0245299Y0729927D01*
X0246962Y0730091D01*
X0248560Y0730576D01*
X0250033Y0731364D01*
X0251325Y0732423D01*
X0252384Y0733715D01*
X0253172Y0735188D01*
X0253657Y0736786D01*
X0253821Y0738449D01*
X0253657Y0740111D01*
X0253172Y0741710D01*
X0252384Y0743183D01*
X0251325Y0744474D01*
X0250033Y0745534D01*
X0248560Y0746321D01*
X0246962Y0746806D01*
X0245299Y0746970D01*
D02*
G37*
G36*
X0363720Y0732978D02*
Y0729358D01*
X0367340D01*
X0367263Y0729942D01*
X0366845Y0730951D01*
X0366180Y0731818D01*
X0365313Y0732483D01*
X0364304Y0732901D01*
X0363720Y0732978D01*
D02*
G37*
G36*
X0362720Y0732978D02*
X0362137Y0732901D01*
X0361128Y0732483D01*
X0360261Y0731818D01*
X0359596Y0730951D01*
X0359178Y0729942D01*
X0359101Y0729358D01*
X0362720D01*
Y0732978D01*
D02*
G37*
G36*
X0440500Y0737000D02*
X0432000D01*
Y0728500D01*
X0440500D01*
Y0737000D01*
D02*
G37*
G36*
X0264579Y0731899D02*
Y0728279D01*
X0268198D01*
X0268122Y0728863D01*
X0267703Y0729872D01*
X0267038Y0730739D01*
X0266172Y0731404D01*
X0265162Y0731822D01*
X0264579Y0731899D01*
D02*
G37*
G36*
X0310350Y0729969D02*
X0307882D01*
Y0727500D01*
X0310350D01*
Y0729969D01*
D02*
G37*
G36*
X0185500Y0736000D02*
Y0727500D01*
X0194000D01*
Y0736000D01*
X0185500D01*
D02*
G37*
G36*
X0340000Y0738243D02*
X0339142Y0738072D01*
X0338414Y0737586D01*
X0337928Y0736858D01*
X0337757Y0736000D01*
X0337928Y0735142D01*
X0338414Y0734414D01*
X0338471Y0734376D01*
Y0732118D01*
X0337032D01*
Y0726575D01*
X0342969D01*
Y0732118D01*
X0341529D01*
Y0734376D01*
X0341586Y0734414D01*
X0342072Y0735142D01*
X0342243Y0736000D01*
X0342072Y0736858D01*
X0341586Y0737586D01*
X0340858Y0738072D01*
X0340000Y0738243D01*
D02*
G37*
G36*
X0367340Y0728358D02*
X0363720D01*
Y0724739D01*
X0364304Y0724816D01*
X0365313Y0725234D01*
X0366180Y0725899D01*
X0366845Y0726766D01*
X0367263Y0727775D01*
X0367340Y0728358D01*
D02*
G37*
G36*
X0362720D02*
X0359101D01*
X0359178Y0727775D01*
X0359596Y0726766D01*
X0360261Y0725899D01*
X0361128Y0725234D01*
X0362137Y0724816D01*
X0362720Y0724739D01*
Y0728358D01*
D02*
G37*
G36*
X0313819Y0729969D02*
X0313581Y0729969D01*
X0311350D01*
Y0727000D01*
Y0724031D01*
X0313581D01*
X0314181Y0724031D01*
X0314419Y0724031D01*
X0320118D01*
Y0724612D01*
X0320718Y0724850D01*
X0321024Y0724645D01*
X0322000Y0724451D01*
X0322975Y0724645D01*
X0323802Y0725198D01*
X0324355Y0726024D01*
X0324549Y0727000D01*
X0324355Y0727976D01*
X0323802Y0728802D01*
X0322975Y0729355D01*
X0322000Y0729549D01*
X0321024Y0729355D01*
X0320718Y0729150D01*
X0320118Y0729388D01*
Y0729969D01*
X0314419D01*
X0313819Y0729969D01*
D02*
G37*
G36*
X0310350Y0726500D02*
X0307882D01*
Y0724031D01*
X0310350D01*
Y0726500D01*
D02*
G37*
G36*
X0440500Y0727500D02*
X0432000D01*
Y0719000D01*
X0440500D01*
Y0727500D01*
D02*
G37*
G36*
X0194000Y0726500D02*
X0185500D01*
Y0718000D01*
X0194000D01*
Y0726500D01*
D02*
G37*
G36*
X0402866Y0748049D02*
X0401204Y0747885D01*
X0399605Y0747400D01*
X0398132Y0746613D01*
X0396841Y0745553D01*
X0395781Y0744262D01*
X0394993Y0742789D01*
X0394509Y0741190D01*
X0394345Y0739528D01*
X0394509Y0737865D01*
X0394993Y0736267D01*
X0395781Y0734793D01*
X0396841Y0733502D01*
X0398132Y0732442D01*
X0399605Y0731655D01*
X0401204Y0731170D01*
X0402866Y0731006D01*
X0404529Y0731170D01*
X0406127Y0731655D01*
X0407253Y0732257D01*
X0411961Y0727549D01*
Y0724937D01*
X0411819D01*
Y0719787D01*
Y0718138D01*
X0414000D01*
Y0717638D01*
D01*
Y0718138D01*
X0416181D01*
Y0719787D01*
Y0724937D01*
X0416039D01*
Y0728394D01*
X0416039Y0728394D01*
X0415884Y0729174D01*
X0415442Y0729836D01*
X0410137Y0735141D01*
X0410739Y0736267D01*
X0411224Y0737865D01*
X0411387Y0739528D01*
X0411224Y0741190D01*
X0410739Y0742789D01*
X0409951Y0744262D01*
X0408892Y0745553D01*
X0407600Y0746613D01*
X0406127Y0747400D01*
X0404529Y0747885D01*
X0402866Y0748049D01*
D02*
G37*
G36*
X0416181Y0717138D02*
X0414500D01*
Y0715063D01*
X0416181D01*
Y0717138D01*
D02*
G37*
G36*
X0413500D02*
X0411819D01*
Y0715063D01*
X0413500D01*
Y0717138D01*
D02*
G37*
G36*
X0235181Y0714138D02*
X0233500D01*
Y0712063D01*
X0235181D01*
Y0714138D01*
D02*
G37*
G36*
X0232500D02*
X0230819D01*
Y0712063D01*
X0232500D01*
Y0714138D01*
D02*
G37*
G36*
X0262350Y0711969D02*
X0259882D01*
Y0709500D01*
X0262350D01*
Y0711969D01*
D02*
G37*
G36*
Y0708500D02*
X0259882D01*
Y0706032D01*
X0262350D01*
Y0708500D01*
D02*
G37*
G36*
X0263138Y0705181D02*
X0261063D01*
Y0703500D01*
X0263138D01*
Y0705181D01*
D02*
G37*
G36*
X0302425Y0705500D02*
X0300154D01*
Y0703031D01*
X0302425D01*
Y0705500D01*
D02*
G37*
G36*
X0299154D02*
X0296882D01*
Y0703031D01*
X0299154D01*
Y0705500D01*
D02*
G37*
G36*
X0263138Y0702500D02*
X0261063D01*
Y0700819D01*
X0263138D01*
Y0702500D01*
D02*
G37*
G36*
X0367500Y0702421D02*
Y0699000D01*
X0370921D01*
X0370851Y0699532D01*
X0370453Y0700493D01*
X0369819Y0701319D01*
X0368993Y0701953D01*
X0368032Y0702351D01*
X0367500Y0702421D01*
D02*
G37*
G36*
X0366500D02*
X0365968Y0702351D01*
X0365007Y0701953D01*
X0364181Y0701319D01*
X0363547Y0700493D01*
X0363149Y0699532D01*
X0363079Y0699000D01*
X0366500D01*
Y0702421D01*
D02*
G37*
G36*
X0263138Y0699181D02*
X0261063D01*
Y0697500D01*
X0263138D01*
Y0699181D01*
D02*
G37*
G36*
Y0696500D02*
X0261063D01*
Y0694819D01*
X0263138D01*
Y0696500D01*
D02*
G37*
G36*
X0370921Y0698000D02*
X0367500D01*
Y0694579D01*
X0368032Y0694649D01*
X0368993Y0695047D01*
X0369819Y0695681D01*
X0370453Y0696507D01*
X0370851Y0697468D01*
X0370921Y0698000D01*
D02*
G37*
G36*
X0366500D02*
X0363079D01*
X0363149Y0697468D01*
X0363547Y0696507D01*
X0364181Y0695681D01*
X0365007Y0695047D01*
X0365968Y0694649D01*
X0366500Y0694579D01*
Y0698000D01*
D02*
G37*
G36*
X0437000Y0702487D02*
X0435968Y0702351D01*
X0435007Y0701953D01*
X0434181Y0701319D01*
X0433547Y0700493D01*
X0433149Y0699532D01*
X0433013Y0698500D01*
X0433149Y0697468D01*
X0433547Y0696507D01*
X0434181Y0695681D01*
X0435007Y0695047D01*
X0435968Y0694649D01*
X0437000Y0694513D01*
X0438032Y0694649D01*
X0438993Y0695047D01*
X0439819Y0695681D01*
X0440453Y0696507D01*
X0440851Y0697468D01*
X0440987Y0698500D01*
X0440851Y0699532D01*
X0440453Y0700493D01*
X0439819Y0701319D01*
X0438993Y0701953D01*
X0438032Y0702351D01*
X0437000Y0702487D01*
D02*
G37*
G36*
X0427000D02*
X0425968Y0702351D01*
X0425007Y0701953D01*
X0424181Y0701319D01*
X0423547Y0700493D01*
X0423149Y0699532D01*
X0423013Y0698500D01*
X0423149Y0697468D01*
X0423547Y0696507D01*
X0424181Y0695681D01*
X0425007Y0695047D01*
X0425968Y0694649D01*
X0427000Y0694513D01*
X0428032Y0694649D01*
X0428993Y0695047D01*
X0429819Y0695681D01*
X0430453Y0696507D01*
X0430851Y0697468D01*
X0430987Y0698500D01*
X0430851Y0699532D01*
X0430453Y0700493D01*
X0429819Y0701319D01*
X0428993Y0701953D01*
X0428032Y0702351D01*
X0427000Y0702487D01*
D02*
G37*
G36*
X0377000D02*
X0375968Y0702351D01*
X0375007Y0701953D01*
X0374181Y0701319D01*
X0373547Y0700493D01*
X0373149Y0699532D01*
X0373013Y0698500D01*
X0373149Y0697468D01*
X0373547Y0696507D01*
X0374181Y0695681D01*
X0375007Y0695047D01*
X0375968Y0694649D01*
X0377000Y0694513D01*
X0378032Y0694649D01*
X0378993Y0695047D01*
X0379819Y0695681D01*
X0380453Y0696507D01*
X0380851Y0697468D01*
X0380987Y0698500D01*
X0380851Y0699532D01*
X0380453Y0700493D01*
X0379819Y0701319D01*
X0378993Y0701953D01*
X0378032Y0702351D01*
X0377000Y0702487D01*
D02*
G37*
G36*
X0366937Y0691681D02*
X0364862D01*
Y0690000D01*
X0366937D01*
Y0691681D01*
D02*
G37*
G36*
Y0689000D02*
X0364862D01*
Y0687319D01*
X0366937D01*
Y0689000D01*
D02*
G37*
G36*
X0360953Y0702453D02*
X0353047D01*
Y0694547D01*
X0354451D01*
Y0692138D01*
X0354645Y0691162D01*
X0355006Y0690622D01*
X0355116Y0690070D01*
X0355558Y0689408D01*
X0356220Y0688966D01*
X0356653Y0688880D01*
X0357063Y0688470D01*
Y0687319D01*
X0358402D01*
X0358662Y0687145D01*
X0359638Y0686951D01*
X0360613Y0687145D01*
X0360873Y0687319D01*
X0363862D01*
Y0689500D01*
Y0691681D01*
X0361062D01*
X0359549Y0693194D01*
Y0694547D01*
X0360953D01*
Y0702453D01*
D02*
G37*
G36*
X0368000Y0682921D02*
Y0679500D01*
X0371421D01*
X0371351Y0680032D01*
X0370953Y0680993D01*
X0370319Y0681819D01*
X0369493Y0682453D01*
X0368532Y0682851D01*
X0368000Y0682921D01*
D02*
G37*
G36*
X0371421Y0678500D02*
X0368000D01*
Y0675079D01*
X0368532Y0675149D01*
X0369493Y0675547D01*
X0370319Y0676181D01*
X0370953Y0677007D01*
X0371351Y0677968D01*
X0371421Y0678500D01*
D02*
G37*
G36*
X0441709Y0677953D02*
X0438846D01*
Y0674500D01*
X0441709D01*
Y0677953D01*
D02*
G37*
G36*
Y0673500D02*
X0438846D01*
Y0670047D01*
X0441709D01*
Y0673500D01*
D02*
G37*
G36*
X0431500Y0682049D02*
X0430524Y0681855D01*
X0429698Y0681302D01*
X0429145Y0680476D01*
X0428951Y0679500D01*
Y0677953D01*
X0428291D01*
Y0670047D01*
X0428951D01*
Y0668500D01*
X0429145Y0667524D01*
X0429698Y0666698D01*
X0430524Y0666145D01*
X0431500Y0665951D01*
X0432476Y0666145D01*
X0433302Y0666698D01*
X0433855Y0667524D01*
X0434049Y0668500D01*
Y0670047D01*
X0437846D01*
Y0674000D01*
Y0677953D01*
X0434049D01*
Y0679500D01*
X0433855Y0680476D01*
X0433302Y0681302D01*
X0432476Y0681855D01*
X0431500Y0682049D01*
D02*
G37*
G36*
X0436500Y0655921D02*
Y0652500D01*
X0439921D01*
X0439851Y0653032D01*
X0439453Y0653993D01*
X0438819Y0654819D01*
X0437993Y0655453D01*
X0437032Y0655851D01*
X0436500Y0655921D01*
D02*
G37*
G36*
X0429953Y0655953D02*
X0426500D01*
Y0652500D01*
X0429953D01*
Y0655953D01*
D02*
G37*
G36*
X0435500Y0655921D02*
X0434968Y0655851D01*
X0434007Y0655453D01*
X0433181Y0654819D01*
X0432547Y0653993D01*
X0432149Y0653032D01*
X0432079Y0652500D01*
X0435500D01*
Y0655921D01*
D02*
G37*
G36*
X0425500Y0655953D02*
X0422047D01*
Y0652500D01*
X0425500D01*
Y0655953D01*
D02*
G37*
G36*
X0417000Y0702487D02*
X0415968Y0702351D01*
X0415007Y0701953D01*
X0414181Y0701319D01*
X0413547Y0700493D01*
X0413149Y0699532D01*
X0413013Y0698500D01*
X0413149Y0697468D01*
X0413547Y0696507D01*
X0414181Y0695681D01*
X0415007Y0695047D01*
X0415674Y0694771D01*
Y0664549D01*
X0409063Y0657937D01*
X0408775Y0657507D01*
X0408674Y0657000D01*
Y0653760D01*
X0408414Y0653586D01*
X0407928Y0652858D01*
X0407757Y0652000D01*
X0407928Y0651142D01*
X0408414Y0650414D01*
X0409142Y0649928D01*
X0410000Y0649757D01*
X0410858Y0649928D01*
X0411586Y0650414D01*
X0412072Y0651142D01*
X0412243Y0652000D01*
X0412072Y0652858D01*
X0411586Y0653586D01*
X0411326Y0653760D01*
Y0656451D01*
X0417937Y0663063D01*
X0418225Y0663493D01*
X0418326Y0664000D01*
Y0694771D01*
X0418993Y0695047D01*
X0419819Y0695681D01*
X0420453Y0696507D01*
X0420851Y0697468D01*
X0420987Y0698500D01*
X0420851Y0699532D01*
X0420453Y0700493D01*
X0419819Y0701319D01*
X0418993Y0701953D01*
X0418032Y0702351D01*
X0417000Y0702487D01*
D02*
G37*
G36*
X0439921Y0651500D02*
X0436500D01*
Y0648079D01*
X0437032Y0648149D01*
X0437993Y0648547D01*
X0438819Y0649181D01*
X0439453Y0650007D01*
X0439851Y0650968D01*
X0439921Y0651500D01*
D02*
G37*
G36*
X0435500D02*
X0432079D01*
X0432149Y0650968D01*
X0432547Y0650007D01*
X0433181Y0649181D01*
X0434007Y0648547D01*
X0434968Y0648149D01*
X0435500Y0648079D01*
Y0651500D01*
D02*
G37*
G36*
X0429953D02*
X0426500D01*
Y0648047D01*
X0429953D01*
Y0651500D01*
D02*
G37*
G36*
X0425500D02*
X0422047D01*
Y0648047D01*
X0425500D01*
Y0651500D01*
D02*
G37*
G36*
X0372181Y0643937D02*
X0370500D01*
Y0641862D01*
X0372181D01*
Y0643937D01*
D02*
G37*
G36*
X0369500D02*
X0367819D01*
Y0641862D01*
X0369500D01*
Y0643937D01*
D02*
G37*
G36*
X0183738Y0630681D02*
X0181663D01*
Y0629000D01*
X0183738D01*
Y0630681D01*
D02*
G37*
G36*
Y0628000D02*
X0181663D01*
Y0626319D01*
X0183738D01*
Y0628000D01*
D02*
G37*
G36*
X0394937Y0611181D02*
X0392862D01*
Y0609500D01*
X0394937D01*
Y0611181D01*
D02*
G37*
G36*
X0185181Y0607138D02*
X0183500D01*
Y0605063D01*
X0185181D01*
Y0607138D01*
D02*
G37*
G36*
X0182500D02*
X0180819D01*
Y0605063D01*
X0182500D01*
Y0607138D01*
D02*
G37*
G36*
X0185181Y0591138D02*
X0183500D01*
Y0589063D01*
X0185181D01*
Y0591138D01*
D02*
G37*
G36*
X0182500D02*
X0180819D01*
Y0589063D01*
X0182500D01*
Y0591138D01*
D02*
G37*
G36*
Y0588118D02*
X0180032D01*
Y0585650D01*
X0182500D01*
Y0588118D01*
D02*
G37*
G36*
X0395937Y0556500D02*
X0393862D01*
Y0554819D01*
X0395937D01*
Y0556500D01*
D02*
G37*
G36*
X0397118Y0550468D02*
X0394847D01*
Y0548000D01*
X0397118D01*
Y0550468D01*
D02*
G37*
G36*
X0393847D02*
X0391575D01*
Y0548000D01*
X0393847D01*
Y0550468D01*
D02*
G37*
G36*
X0270154Y0543500D02*
X0267291D01*
Y0540047D01*
X0270154D01*
Y0543500D01*
D02*
G37*
G36*
X0238738Y0538055D02*
X0235344D01*
Y0536432D01*
X0236714D01*
X0237527Y0536593D01*
X0238216Y0537054D01*
X0238676Y0537743D01*
X0238738Y0538055D01*
D02*
G37*
G36*
X0234344D02*
X0230950D01*
X0231012Y0537743D01*
X0231472Y0537054D01*
X0232161Y0536593D01*
X0232974Y0536432D01*
X0234344D01*
Y0538055D01*
D02*
G37*
G36*
X0209037Y0534181D02*
X0206962D01*
Y0532500D01*
X0209037D01*
Y0534181D01*
D02*
G37*
G36*
X0270654Y0534453D02*
X0267791D01*
Y0531000D01*
X0270654D01*
Y0534453D01*
D02*
G37*
G36*
X0209037Y0531500D02*
X0206962D01*
Y0529819D01*
X0209037D01*
Y0531500D01*
D02*
G37*
G36*
X0257000Y0533243D02*
X0256142Y0533072D01*
X0255414Y0532586D01*
X0254928Y0531858D01*
X0254757Y0531000D01*
X0254928Y0530142D01*
X0255414Y0529414D01*
X0255675Y0529240D01*
Y0528353D01*
X0255250Y0527929D01*
X0253898Y0527929D01*
X0253660Y0527929D01*
X0248748D01*
Y0526326D01*
X0244118D01*
Y0527969D01*
X0238575D01*
Y0522031D01*
X0244118D01*
Y0523674D01*
X0248748D01*
Y0521992D01*
X0253660D01*
X0254260Y0521992D01*
X0254498Y0521992D01*
X0259409D01*
Y0527929D01*
X0258326D01*
Y0529240D01*
X0258586Y0529414D01*
X0259072Y0530142D01*
X0259243Y0531000D01*
X0259072Y0531858D01*
X0258586Y0532586D01*
X0257858Y0533072D01*
X0257000Y0533243D01*
D02*
G37*
G36*
X0237425Y0527969D02*
X0231882D01*
Y0526631D01*
X0229917D01*
X0229802Y0526802D01*
X0228976Y0527355D01*
X0228000Y0527549D01*
X0227025Y0527355D01*
X0226198Y0526802D01*
X0225645Y0525976D01*
X0225451Y0525000D01*
X0225645Y0524024D01*
X0226198Y0523198D01*
X0227025Y0522645D01*
X0228000Y0522451D01*
X0228976Y0522645D01*
X0229802Y0523198D01*
X0229917Y0523369D01*
X0231882D01*
Y0522031D01*
X0233022D01*
Y0515469D01*
X0231382D01*
Y0509531D01*
X0233022D01*
Y0502969D01*
X0231882D01*
Y0497031D01*
X0237425D01*
Y0502969D01*
X0236285D01*
Y0509531D01*
X0236925D01*
Y0515469D01*
X0236285D01*
Y0522031D01*
X0237425D01*
Y0527969D01*
D02*
G37*
G36*
X0435937Y0522181D02*
X0433862D01*
Y0520500D01*
X0435937D01*
Y0522181D01*
D02*
G37*
G36*
Y0519500D02*
X0433862D01*
Y0517819D01*
X0435937D01*
Y0519500D01*
D02*
G37*
G36*
X0444039Y0492969D02*
X0441768D01*
Y0490500D01*
X0444039D01*
Y0492969D01*
D02*
G37*
G36*
X0440768D02*
X0438496D01*
Y0490500D01*
X0440768D01*
Y0492969D01*
D02*
G37*
G36*
X0444039Y0489500D02*
X0441768D01*
Y0487032D01*
X0444039D01*
Y0489500D01*
D02*
G37*
G36*
X0440768D02*
X0438496D01*
Y0487032D01*
X0440768D01*
Y0489500D01*
D02*
G37*
G36*
X0210500Y0482921D02*
Y0479500D01*
X0213921D01*
X0213851Y0480032D01*
X0213453Y0480993D01*
X0212819Y0481819D01*
X0211993Y0482453D01*
X0211032Y0482851D01*
X0210500Y0482921D01*
D02*
G37*
G36*
X0209500D02*
X0208968Y0482851D01*
X0208007Y0482453D01*
X0207181Y0481819D01*
X0206547Y0480993D01*
X0206149Y0480032D01*
X0206079Y0479500D01*
X0209500D01*
Y0482921D01*
D02*
G37*
G36*
X0442937Y0480181D02*
X0440862D01*
Y0478500D01*
X0442937D01*
Y0480181D01*
D02*
G37*
G36*
Y0477500D02*
X0440862D01*
Y0475819D01*
X0442937D01*
Y0477500D01*
D02*
G37*
G36*
X0213921Y0478500D02*
X0210500D01*
Y0475079D01*
X0211032Y0475149D01*
X0211993Y0475547D01*
X0212819Y0476181D01*
X0213453Y0477007D01*
X0213851Y0477968D01*
X0213921Y0478500D01*
D02*
G37*
G36*
X0209500D02*
X0206079D01*
X0206149Y0477968D01*
X0206547Y0477007D01*
X0207181Y0476181D01*
X0208007Y0475547D01*
X0208968Y0475149D01*
X0209500Y0475079D01*
Y0478500D01*
D02*
G37*
G36*
X0210500Y0472921D02*
Y0469500D01*
X0213921D01*
X0213851Y0470032D01*
X0213453Y0470993D01*
X0212819Y0471819D01*
X0211993Y0472453D01*
X0211032Y0472851D01*
X0210500Y0472921D01*
D02*
G37*
G36*
X0209500D02*
X0208968Y0472851D01*
X0208007Y0472453D01*
X0207181Y0471819D01*
X0206547Y0470993D01*
X0206149Y0470032D01*
X0206079Y0469500D01*
X0209500D01*
Y0472921D01*
D02*
G37*
G36*
X0444118Y0470968D02*
X0438575D01*
Y0465031D01*
X0444118D01*
Y0466369D01*
X0445083D01*
X0445198Y0466198D01*
X0446025Y0465645D01*
X0447000Y0465451D01*
X0447975Y0465645D01*
X0448802Y0466198D01*
X0449355Y0467025D01*
X0449549Y0468000D01*
X0449355Y0468975D01*
X0448802Y0469802D01*
X0447975Y0470355D01*
X0447000Y0470549D01*
X0446025Y0470355D01*
X0445198Y0469802D01*
X0445083Y0469631D01*
X0444118D01*
Y0470968D01*
D02*
G37*
G36*
X0213921Y0468500D02*
X0210500D01*
Y0465079D01*
X0211032Y0465149D01*
X0211993Y0465547D01*
X0212819Y0466181D01*
X0213453Y0467007D01*
X0213851Y0467968D01*
X0213921Y0468500D01*
D02*
G37*
G36*
X0209500D02*
X0206079D01*
X0206149Y0467968D01*
X0206547Y0467007D01*
X0207181Y0466181D01*
X0208007Y0465547D01*
X0208968Y0465149D01*
X0209500Y0465079D01*
Y0468500D01*
D02*
G37*
G36*
X0229618Y0444468D02*
X0224075D01*
Y0439069D01*
X0224075Y0438531D01*
X0224075Y0437931D01*
Y0432569D01*
X0224075Y0432531D01*
Y0431968D01*
X0224075Y0431931D01*
Y0426031D01*
X0229618D01*
Y0427175D01*
X0230240D01*
X0230414Y0426914D01*
X0231142Y0426428D01*
X0232000Y0426257D01*
X0232858Y0426428D01*
X0233586Y0426914D01*
X0234072Y0427642D01*
X0234243Y0428500D01*
X0234072Y0429358D01*
X0233586Y0430086D01*
X0232858Y0430572D01*
X0232000Y0430743D01*
X0231142Y0430572D01*
X0230414Y0430086D01*
X0230240Y0429825D01*
X0229618D01*
Y0431931D01*
X0229618Y0431968D01*
Y0432531D01*
X0229618Y0432569D01*
Y0434174D01*
X0230240D01*
X0230414Y0433914D01*
X0231142Y0433428D01*
X0232000Y0433257D01*
X0232858Y0433428D01*
X0233586Y0433914D01*
X0234072Y0434642D01*
X0234243Y0435500D01*
X0234072Y0436358D01*
X0233586Y0437086D01*
X0232858Y0437572D01*
X0232000Y0437743D01*
X0231142Y0437572D01*
X0230414Y0437086D01*
X0229736Y0437132D01*
X0229618Y0437250D01*
X0229618Y0438469D01*
X0229618Y0439069D01*
Y0440174D01*
X0230240D01*
X0230414Y0439914D01*
X0231142Y0439428D01*
X0232000Y0439257D01*
X0232858Y0439428D01*
X0233586Y0439914D01*
X0234072Y0440642D01*
X0234243Y0441500D01*
X0234072Y0442358D01*
X0233586Y0443086D01*
X0232858Y0443572D01*
X0232000Y0443743D01*
X0231142Y0443572D01*
X0230414Y0443086D01*
X0230240Y0442826D01*
X0229618D01*
Y0444468D01*
D02*
G37*
G36*
X0442500Y0431874D02*
X0434520D01*
Y0429405D01*
X0442500D01*
Y0431874D01*
D02*
G37*
G36*
X0220000Y0449049D02*
X0219024Y0448855D01*
X0218198Y0448302D01*
X0217645Y0447475D01*
X0217451Y0446500D01*
X0217645Y0445525D01*
X0217950Y0445069D01*
X0217629Y0444468D01*
X0217382D01*
Y0438531D01*
X0217382D01*
X0217382Y0438469D01*
X0217382D01*
Y0432531D01*
X0217382D01*
Y0431968D01*
X0217382D01*
Y0426031D01*
X0222925D01*
Y0431968D01*
X0222925D01*
Y0432531D01*
X0222925D01*
Y0438469D01*
X0222925D01*
X0222925Y0438531D01*
X0222925D01*
Y0444468D01*
X0222371D01*
X0222050Y0445069D01*
X0222355Y0445525D01*
X0222549Y0446500D01*
X0222355Y0447475D01*
X0221802Y0448302D01*
X0220975Y0448855D01*
X0220000Y0449049D01*
D02*
G37*
G36*
X0442500Y0428406D02*
X0434520D01*
Y0425937D01*
X0442500D01*
Y0428406D01*
D02*
G37*
G36*
X0237913Y0418724D02*
X0235658D01*
Y0417000D01*
X0240038D01*
X0239968Y0417351D01*
X0239486Y0418073D01*
X0238764Y0418555D01*
X0237913Y0418724D01*
D02*
G37*
G36*
X0234658D02*
X0232402D01*
X0231551Y0418555D01*
X0230829Y0418073D01*
X0230347Y0417351D01*
X0230277Y0417000D01*
X0234658D01*
Y0418724D01*
D02*
G37*
G36*
X0223181Y0418937D02*
X0221500D01*
Y0416862D01*
X0223181D01*
Y0418937D01*
D02*
G37*
G36*
X0220500D02*
X0218819D01*
Y0416862D01*
X0220500D01*
Y0418937D01*
D02*
G37*
G36*
X0284138Y0387681D02*
X0282063D01*
Y0386000D01*
X0284138D01*
Y0387681D01*
D02*
G37*
G36*
Y0385000D02*
X0282063D01*
Y0383319D01*
X0284138D01*
Y0385000D01*
D02*
G37*
G36*
X0242350Y0379969D02*
X0239882D01*
Y0377500D01*
X0242350D01*
Y0379969D01*
D02*
G37*
G36*
Y0376500D02*
X0239882D01*
Y0374031D01*
X0242350D01*
Y0376500D01*
D02*
G37*
G36*
X0289154Y0372500D02*
X0286291D01*
Y0369047D01*
X0289154D01*
Y0372500D01*
D02*
G37*
G36*
X0442500Y0371063D02*
X0434520D01*
Y0368595D01*
X0442500D01*
Y0371063D01*
D02*
G37*
G36*
X0304500Y0368925D02*
X0302031D01*
Y0366653D01*
X0304500D01*
Y0368925D01*
D02*
G37*
G36*
X0290138Y0368181D02*
X0288063D01*
Y0366500D01*
X0290138D01*
Y0368181D01*
D02*
G37*
G36*
X0442500Y0367595D02*
X0434520D01*
Y0365126D01*
X0442500D01*
Y0367595D01*
D02*
G37*
G36*
X0290138Y0365500D02*
X0288063D01*
Y0363819D01*
X0290138D01*
Y0365500D01*
D02*
G37*
G36*
X0304500Y0365653D02*
X0302031D01*
Y0363382D01*
X0304500D01*
Y0365653D01*
D02*
G37*
G36*
X0287850Y0362740D02*
X0280732D01*
Y0360571D01*
X0280132Y0360250D01*
X0279976Y0360355D01*
X0279000Y0360549D01*
X0278025Y0360355D01*
X0277198Y0359802D01*
X0276645Y0358976D01*
X0276451Y0358000D01*
X0276645Y0357025D01*
X0277198Y0356198D01*
X0278025Y0355645D01*
X0279000Y0355451D01*
X0279976Y0355645D01*
X0280132Y0355750D01*
X0280732Y0355429D01*
Y0353260D01*
X0287850D01*
Y0362740D01*
D02*
G37*
G36*
X0185500Y0347000D02*
Y0338500D01*
X0194000D01*
Y0347000D01*
X0185500D01*
D02*
G37*
G36*
X0401968Y0340350D02*
X0399500D01*
Y0337882D01*
X0401968D01*
Y0340350D01*
D02*
G37*
G36*
X0398500D02*
X0396031D01*
Y0337882D01*
X0398500D01*
Y0340350D01*
D02*
G37*
G36*
X0441500Y0346000D02*
X0433000D01*
Y0337500D01*
X0441500D01*
Y0346000D01*
D02*
G37*
G36*
X0388008Y0336409D02*
X0385539D01*
Y0334335D01*
X0388008D01*
Y0336409D01*
D02*
G37*
G36*
X0384539D02*
X0382071D01*
Y0334335D01*
X0384539D01*
Y0336409D01*
D02*
G37*
G36*
X0242350Y0335968D02*
X0239882D01*
Y0333500D01*
X0242350D01*
Y0335968D01*
D02*
G37*
G36*
X0320041Y0336720D02*
X0316421D01*
Y0333101D01*
X0317004Y0333178D01*
X0318014Y0333596D01*
X0318881Y0334261D01*
X0319546Y0335128D01*
X0319964Y0336137D01*
X0320041Y0336720D01*
D02*
G37*
G36*
X0315421D02*
X0311802D01*
X0311878Y0336137D01*
X0312297Y0335128D01*
X0312962Y0334261D01*
X0313828Y0333596D01*
X0314838Y0333178D01*
X0315421Y0333101D01*
Y0336720D01*
D02*
G37*
G36*
X0392000Y0341549D02*
X0391024Y0341355D01*
X0390198Y0340802D01*
X0389645Y0339976D01*
X0389451Y0339000D01*
X0389645Y0338024D01*
X0389850Y0337718D01*
X0389612Y0337118D01*
X0389032D01*
Y0331575D01*
X0394969D01*
Y0337118D01*
X0394388D01*
X0394150Y0337718D01*
X0394355Y0338024D01*
X0394549Y0339000D01*
X0394355Y0339976D01*
X0393802Y0340802D01*
X0392975Y0341355D01*
X0392000Y0341549D01*
D02*
G37*
G36*
X0194000Y0337500D02*
X0185500D01*
Y0329000D01*
X0194000D01*
Y0337500D01*
D02*
G37*
G36*
X0441500Y0336500D02*
X0433000D01*
Y0328000D01*
X0441500D01*
Y0336500D01*
D02*
G37*
G36*
X0287799Y0335023D02*
Y0327051D01*
X0295771D01*
X0295657Y0328214D01*
X0295172Y0329812D01*
X0294385Y0331285D01*
X0293325Y0332577D01*
X0292033Y0333636D01*
X0290560Y0334424D01*
X0288962Y0334909D01*
X0287799Y0335023D01*
D02*
G37*
G36*
X0286799D02*
X0285637Y0334909D01*
X0284038Y0334424D01*
X0282565Y0333636D01*
X0281274Y0332577D01*
X0280214Y0331285D01*
X0279427Y0329812D01*
X0278942Y0328214D01*
X0278827Y0327051D01*
X0286799D01*
Y0335023D01*
D02*
G37*
G36*
X0334201D02*
X0333038Y0334909D01*
X0331440Y0334424D01*
X0329967Y0333636D01*
X0328675Y0332577D01*
X0327615Y0331285D01*
X0326828Y0329812D01*
X0326343Y0328214D01*
X0326229Y0327051D01*
X0334201D01*
Y0335023D01*
D02*
G37*
G36*
X0388008Y0333335D02*
X0385039D01*
X0382071D01*
Y0331498D01*
X0382071Y0330898D01*
X0382071Y0330660D01*
Y0325748D01*
X0388008D01*
Y0326284D01*
X0389032D01*
Y0324882D01*
X0394969D01*
Y0330425D01*
X0389032D01*
Y0330364D01*
X0388432Y0330363D01*
X0388008Y0330786D01*
X0388008Y0331260D01*
X0388008Y0331498D01*
Y0333335D01*
D02*
G37*
G36*
X0343173Y0326051D02*
X0335201D01*
Y0318079D01*
X0336363Y0318194D01*
X0337962Y0318678D01*
X0339435Y0319466D01*
X0340726Y0320526D01*
X0341786Y0321817D01*
X0342573Y0323290D01*
X0343058Y0324889D01*
X0343173Y0326051D01*
D02*
G37*
G36*
X0286799Y0326051D02*
X0278827D01*
X0278942Y0324889D01*
X0279427Y0323290D01*
X0280214Y0321817D01*
X0281274Y0320526D01*
X0282565Y0319466D01*
X0284038Y0318678D01*
X0285637Y0318194D01*
X0286799Y0318079D01*
Y0326051D01*
D02*
G37*
G36*
X0295771D02*
X0287799D01*
Y0318079D01*
X0288962Y0318194D01*
X0290560Y0318678D01*
X0292033Y0319466D01*
X0293325Y0320526D01*
X0294385Y0321817D01*
X0295172Y0323290D01*
X0295657Y0324889D01*
X0295771Y0326051D01*
D02*
G37*
G36*
X0334201Y0326051D02*
X0326229D01*
X0326343Y0324889D01*
X0326828Y0323290D01*
X0327615Y0321817D01*
X0328675Y0320526D01*
X0329967Y0319466D01*
X0331440Y0318678D01*
X0333038Y0318194D01*
X0334201Y0318079D01*
Y0326051D01*
D02*
G37*
G36*
X0372268Y0336740D02*
X0365150D01*
Y0327260D01*
X0365178D01*
Y0325543D01*
X0365150D01*
Y0316457D01*
X0372268D01*
Y0325543D01*
X0372239D01*
Y0327260D01*
X0372268D01*
Y0336740D01*
D02*
G37*
G36*
X0366937Y0314181D02*
X0364862D01*
Y0312500D01*
X0366937D01*
Y0314181D01*
D02*
G37*
G36*
Y0311500D02*
X0364862D01*
Y0309819D01*
X0366937D01*
Y0311500D01*
D02*
G37*
%LPD*%
G36*
X0223500Y0740592D02*
X0223571Y0740582D01*
X0223576D01*
X0223586Y0740577D01*
X0223602D01*
X0223622Y0740571D01*
X0223668Y0740556D01*
X0223708Y0740541D01*
X0223719Y0740536D01*
X0223734Y0740526D01*
X0223759Y0740510D01*
X0223780Y0740490D01*
X0223785Y0740485D01*
X0223790Y0740470D01*
X0223795Y0740449D01*
X0223800Y0740419D01*
Y0737273D01*
X0223795Y0737258D01*
X0223790Y0737237D01*
X0223780Y0737212D01*
X0223775Y0737207D01*
X0223764Y0737192D01*
X0223739Y0737176D01*
X0223708Y0737156D01*
X0223698Y0737151D01*
X0223673Y0737146D01*
X0223627Y0737130D01*
X0223571Y0737120D01*
X0223566D01*
X0223556D01*
X0223535Y0737115D01*
X0223510D01*
X0223479D01*
X0223444Y0737110D01*
X0223362D01*
X0223357D01*
X0223342D01*
X0223316D01*
X0223286D01*
X0223220Y0737115D01*
X0223154Y0737120D01*
X0223148D01*
X0223138D01*
X0223123Y0737125D01*
X0223103Y0737130D01*
X0223057Y0737136D01*
X0223016Y0737151D01*
X0223011D01*
X0223006Y0737156D01*
X0222986Y0737166D01*
X0222960Y0737186D01*
X0222935Y0737207D01*
X0222930Y0737212D01*
X0222919Y0737227D01*
X0222914Y0737248D01*
X0222909Y0737278D01*
Y0738342D01*
X0219209D01*
X0219713Y0737426D01*
Y0737421D01*
X0219723Y0737410D01*
X0219728Y0737390D01*
X0219738Y0737365D01*
X0219759Y0737314D01*
X0219774Y0737258D01*
Y0737222D01*
X0219769Y0737192D01*
X0219748Y0737161D01*
X0219743Y0737156D01*
X0219718Y0737141D01*
X0219677Y0737125D01*
X0219652Y0737115D01*
X0219621Y0737110D01*
X0219616D01*
X0219601D01*
X0219580Y0737105D01*
X0219550D01*
X0219514D01*
X0219468Y0737100D01*
X0219418D01*
X0219361D01*
X0219356D01*
X0219341D01*
X0219326D01*
X0219300D01*
X0219245D01*
X0219188D01*
X0219183D01*
X0219178D01*
X0219148Y0737105D01*
X0219107Y0737110D01*
X0219071Y0737120D01*
X0219061Y0737125D01*
X0219041Y0737136D01*
X0219015Y0737151D01*
X0218990Y0737171D01*
X0218985Y0737176D01*
X0218970Y0737192D01*
X0218949Y0737222D01*
X0218924Y0737258D01*
X0218135Y0738474D01*
X0218130Y0738479D01*
X0218125Y0738490D01*
X0218114Y0738510D01*
X0218104Y0738530D01*
Y0738535D01*
X0218099Y0738556D01*
X0218094Y0738581D01*
X0218089Y0738617D01*
Y0738627D01*
X0218084Y0738653D01*
X0218079Y0738698D01*
Y0738790D01*
X0218074Y0738815D01*
Y0739075D01*
X0218079Y0739156D01*
Y0739202D01*
X0218084Y0739243D01*
Y0739279D01*
X0218089Y0739304D01*
X0218094Y0739355D01*
X0218099Y0739380D01*
X0218104Y0739401D01*
Y0739406D01*
X0218109Y0739411D01*
X0218114Y0739431D01*
X0218130Y0739457D01*
X0218145Y0739472D01*
X0218150Y0739477D01*
X0218160Y0739482D01*
X0218186Y0739487D01*
X0218211Y0739492D01*
X0222909D01*
Y0740424D01*
X0222914Y0740444D01*
X0222919Y0740464D01*
X0222935Y0740490D01*
X0222940Y0740495D01*
X0222955Y0740510D01*
X0222980Y0740531D01*
X0223016Y0740546D01*
X0223026Y0740551D01*
X0223052Y0740561D01*
X0223098Y0740571D01*
X0223154Y0740582D01*
X0223159D01*
X0223169Y0740587D01*
X0223184D01*
X0223210Y0740592D01*
X0223240D01*
X0223276Y0740597D01*
X0223316D01*
X0223362D01*
X0223367D01*
X0223383D01*
X0223403D01*
X0223433D01*
X0223500Y0740592D01*
D02*
G37*
%LPC*%
G36*
X0250650Y0662968D02*
Y0660500D01*
X0253118D01*
Y0662968D01*
X0250650D01*
D02*
G37*
G36*
X0275350D02*
X0272882D01*
Y0660500D01*
X0275350D01*
Y0662968D01*
D02*
G37*
G36*
X0302350Y0693500D02*
X0299882D01*
Y0691032D01*
X0302350D01*
Y0693500D01*
D02*
G37*
G36*
X0342181Y0648937D02*
X0340500D01*
Y0646862D01*
X0342181D01*
Y0648937D01*
D02*
G37*
G36*
X0339500D02*
X0337819D01*
Y0646862D01*
X0339500D01*
Y0648937D01*
D02*
G37*
G36*
X0308181Y0646937D02*
X0306500D01*
Y0644862D01*
X0308181D01*
Y0646937D01*
D02*
G37*
G36*
X0305500D02*
X0303819D01*
Y0644862D01*
X0305500D01*
Y0646937D01*
D02*
G37*
G36*
X0322000Y0643937D02*
X0320319D01*
Y0641862D01*
X0322000D01*
Y0643937D01*
D02*
G37*
G36*
X0374488Y0620071D02*
X0372035D01*
Y0618949D01*
X0376010D01*
X0375987Y0619069D01*
X0375635Y0619596D01*
X0375109Y0619947D01*
X0374488Y0620071D01*
D02*
G37*
G36*
X0371035D02*
X0368583D01*
X0367962Y0619947D01*
X0367436Y0619596D01*
X0367084Y0619069D01*
X0367060Y0618949D01*
X0371035D01*
Y0620071D01*
D02*
G37*
G36*
X0271138Y0614181D02*
X0269063D01*
Y0612500D01*
X0271138D01*
Y0614181D01*
D02*
G37*
G36*
Y0611500D02*
X0269063D01*
Y0609819D01*
X0271138D01*
Y0611500D01*
D02*
G37*
G36*
X0268138Y0587681D02*
X0266063D01*
Y0586000D01*
X0268138D01*
Y0587681D01*
D02*
G37*
G36*
X0394937Y0587181D02*
X0392862D01*
Y0585500D01*
X0394937D01*
Y0587181D01*
D02*
G37*
G36*
X0253937Y0584500D02*
X0251862D01*
Y0582819D01*
X0253937D01*
Y0584500D01*
D02*
G37*
G36*
X0394937Y0572181D02*
X0392862D01*
Y0570500D01*
X0394937D01*
Y0572181D01*
D02*
G37*
G36*
X0261138Y0558500D02*
X0259063D01*
Y0556819D01*
X0261138D01*
Y0558500D01*
D02*
G37*
G36*
X0397709Y0536500D02*
X0394846D01*
Y0533047D01*
X0397709D01*
Y0536500D01*
D02*
G37*
G36*
X0394709Y0523953D02*
X0391846D01*
Y0520500D01*
X0394709D01*
Y0523953D01*
D02*
G37*
G36*
Y0519500D02*
X0391846D01*
Y0516047D01*
X0394709D01*
Y0519500D01*
D02*
G37*
G36*
X0345681Y0524638D02*
X0344000D01*
Y0522563D01*
X0345681D01*
Y0524638D01*
D02*
G37*
G36*
X0303181Y0520638D02*
X0301500D01*
Y0518563D01*
X0303181D01*
Y0520638D01*
D02*
G37*
G36*
X0300500D02*
X0298819D01*
Y0518563D01*
X0300500D01*
Y0520638D01*
D02*
G37*
G36*
X0416453Y0512209D02*
X0413000D01*
Y0509346D01*
X0416453D01*
Y0512209D01*
D02*
G37*
G36*
X0406000Y0490549D02*
X0405024Y0490355D01*
X0404198Y0489802D01*
X0403645Y0488975D01*
X0403451Y0488000D01*
X0403645Y0487024D01*
X0403961Y0486552D01*
Y0482448D01*
X0403645Y0481976D01*
X0403451Y0481000D01*
X0403645Y0480024D01*
X0404198Y0479198D01*
X0405024Y0478645D01*
X0406000Y0478451D01*
X0406976Y0478645D01*
X0407802Y0479198D01*
X0408355Y0480024D01*
X0408549Y0481000D01*
X0408355Y0481976D01*
X0408039Y0482448D01*
Y0486552D01*
X0408355Y0487024D01*
X0408549Y0488000D01*
X0408355Y0488975D01*
X0407802Y0489802D01*
X0406976Y0490355D01*
X0406000Y0490549D01*
D02*
G37*
G36*
X0400500Y0477450D02*
Y0475500D01*
X0402450D01*
X0402355Y0475976D01*
X0401802Y0476802D01*
X0400976Y0477355D01*
X0400500Y0477450D01*
D02*
G37*
G36*
X0399500D02*
X0399025Y0477355D01*
X0398198Y0476802D01*
X0397645Y0475976D01*
X0397551Y0475500D01*
X0399500D01*
Y0477450D01*
D02*
G37*
G36*
X0402450Y0474500D02*
X0400500D01*
Y0472550D01*
X0400976Y0472645D01*
X0401802Y0473198D01*
X0402355Y0474024D01*
X0402450Y0474500D01*
D02*
G37*
G36*
X0399500D02*
X0397551D01*
X0397645Y0474024D01*
X0398198Y0473198D01*
X0399025Y0472645D01*
X0399500Y0472550D01*
Y0474500D01*
D02*
G37*
G36*
X0409500Y0452914D02*
Y0448500D01*
X0413914D01*
X0413810Y0449289D01*
X0413312Y0450490D01*
X0412521Y0451521D01*
X0411490Y0452313D01*
X0410289Y0452810D01*
X0409500Y0452914D01*
D02*
G37*
G36*
X0408500D02*
X0407711Y0452810D01*
X0406510Y0452313D01*
X0405479Y0451521D01*
X0404688Y0450490D01*
X0404190Y0449289D01*
X0404086Y0448500D01*
X0408500D01*
Y0452914D01*
D02*
G37*
G36*
X0290138Y0448681D02*
X0288063D01*
Y0447000D01*
X0290138D01*
Y0448681D01*
D02*
G37*
G36*
X0275138Y0436681D02*
X0273063D01*
Y0435000D01*
X0275138D01*
Y0436681D01*
D02*
G37*
G36*
Y0434000D02*
X0273063D01*
Y0432319D01*
X0275138D01*
Y0434000D01*
D02*
G37*
G36*
Y0427181D02*
X0273063D01*
Y0425500D01*
X0275138D01*
Y0427181D01*
D02*
G37*
G36*
Y0424500D02*
X0273063D01*
Y0422819D01*
X0275138D01*
Y0424500D01*
D02*
G37*
G36*
X0413914Y0421909D02*
X0409500D01*
Y0417496D01*
X0410289Y0417599D01*
X0411490Y0418097D01*
X0412521Y0418888D01*
X0413312Y0419920D01*
X0413810Y0421121D01*
X0413914Y0421909D01*
D02*
G37*
G36*
X0408500D02*
X0404086D01*
X0404190Y0421121D01*
X0404688Y0419920D01*
X0405479Y0418888D01*
X0406510Y0418097D01*
X0407711Y0417599D01*
X0408500Y0417496D01*
Y0421909D01*
D02*
G37*
G36*
X0407118Y0414968D02*
X0401575D01*
Y0409031D01*
X0407118D01*
Y0409961D01*
X0408052D01*
X0408525Y0409645D01*
X0409500Y0409451D01*
X0410475Y0409645D01*
X0411302Y0410198D01*
X0411855Y0411025D01*
X0412049Y0412000D01*
X0411855Y0412976D01*
X0411302Y0413802D01*
X0410475Y0414355D01*
X0409500Y0414549D01*
X0408525Y0414355D01*
X0408052Y0414039D01*
X0407118D01*
Y0414968D01*
D02*
G37*
G36*
X0341937Y0380181D02*
X0339862D01*
Y0378500D01*
X0341937D01*
Y0380181D01*
D02*
G37*
G36*
X0367350Y0380968D02*
X0364882D01*
Y0378500D01*
X0367350D01*
Y0380968D01*
D02*
G37*
G36*
X0341937Y0377500D02*
X0339862D01*
Y0375819D01*
X0341937D01*
Y0377500D01*
D02*
G37*
G36*
X0325709Y0372500D02*
X0322846D01*
Y0369047D01*
X0325709D01*
Y0372500D01*
D02*
G37*
G36*
X0322937Y0368181D02*
X0320862D01*
Y0366500D01*
X0322937D01*
Y0368181D01*
D02*
G37*
G36*
Y0365500D02*
X0320862D01*
Y0363819D01*
X0322937D01*
Y0365500D01*
D02*
G37*
G36*
X0330268Y0362740D02*
X0323150D01*
Y0353260D01*
X0330268D01*
Y0355429D01*
X0330868Y0355750D01*
X0331025Y0355645D01*
X0332000Y0355451D01*
X0332976Y0355645D01*
X0333802Y0356198D01*
X0334355Y0357025D01*
X0334549Y0358000D01*
X0334355Y0358976D01*
X0333802Y0359802D01*
X0332976Y0360355D01*
X0332000Y0360549D01*
X0331025Y0360355D01*
X0330868Y0360250D01*
X0330268Y0360571D01*
Y0362740D01*
D02*
G37*
G36*
X0321181Y0448937D02*
X0319500D01*
Y0446862D01*
X0321181D01*
Y0448937D01*
D02*
G37*
G36*
X0442500Y0410063D02*
X0434520D01*
Y0407594D01*
X0442500D01*
Y0410063D01*
D02*
G37*
G36*
Y0406595D02*
X0434520D01*
Y0404126D01*
X0442500D01*
Y0406595D01*
D02*
G37*
G36*
X0442500Y0392874D02*
X0434520D01*
Y0390406D01*
X0442500D01*
Y0392874D01*
D02*
G37*
G36*
Y0389405D02*
X0434520D01*
Y0386937D01*
X0442500D01*
Y0389405D01*
D02*
G37*
G36*
X0385750Y0364200D02*
X0381775D01*
Y0357500D01*
X0385750D01*
Y0364200D01*
D02*
G37*
G36*
X0361200Y0359750D02*
X0357225D01*
Y0357500D01*
X0361200D01*
Y0359750D01*
D02*
G37*
G36*
X0380775Y0364200D02*
X0376800D01*
Y0357500D01*
X0380775D01*
Y0364200D01*
D02*
G37*
G36*
X0356225Y0359750D02*
X0352250D01*
Y0357500D01*
X0356225D01*
Y0359750D01*
D02*
G37*
G36*
X0361200Y0356500D02*
X0357225D01*
Y0354250D01*
X0361200D01*
Y0356500D01*
D02*
G37*
G36*
X0356225D02*
X0352250D01*
Y0354250D01*
X0356225D01*
Y0356500D01*
D02*
G37*
%LPD*%
D12*
X0387653Y0546286D02*
X0389940Y0544000D01*
X0386600Y0542400D02*
X0412337D01*
X0383000Y0546000D02*
X0386600Y0542400D01*
X0389940Y0544000D02*
X0413000D01*
X0371535Y0551520D02*
X0371616Y0551600D01*
X0371535Y0549551D02*
X0378449D01*
X0379000Y0549000D01*
X0319000Y0438850D02*
Y0440850D01*
X0332653Y0383000D02*
X0333653Y0384000D01*
X0324000Y0383000D02*
X0332653D01*
X0322827Y0384173D02*
X0324000Y0383000D01*
X0322827Y0384173D02*
Y0388051D01*
X0318890Y0438740D02*
X0319000Y0438850D01*
X0318890Y0380110D02*
Y0388051D01*
X0306347Y0706000D02*
X0311000D01*
X0314079Y0702921D02*
X0316240D01*
X0380937Y0726109D02*
Y0728858D01*
X0273921Y0727779D02*
X0280701Y0721000D01*
X0373828Y0719000D02*
X0380937Y0726109D01*
X0373063Y0728858D02*
X0374000Y0727921D01*
Y0722000D02*
Y0727921D01*
X0373000Y0721000D02*
X0374000Y0722000D01*
X0273921Y0719906D02*
X0274827Y0719000D01*
X0318890Y0431949D02*
Y0438740D01*
X0306079Y0337221D02*
X0311016Y0342158D01*
X0296650Y0355650D02*
X0296709Y0355591D01*
X0296650Y0376150D02*
X0303142Y0382642D01*
Y0388051D01*
X0324016Y0706760D02*
Y0711984D01*
X0333760Y0697016D02*
X0339984D01*
X0340000Y0697000D01*
X0319000Y0714000D02*
X0321000Y0716000D01*
X0325000D01*
X0325984Y0706760D02*
Y0715016D01*
X0325000Y0716000D02*
X0325984Y0715016D01*
X0327953Y0706760D02*
Y0719000D01*
X0329953Y0706807D02*
Y0713953D01*
X0332000Y0716000D01*
X0318890Y0426000D02*
Y0431949D01*
X0274827Y0719000D02*
X0327953D01*
X0280701Y0721000D02*
X0331000D01*
X0332000Y0722000D01*
X0306079Y0345094D02*
X0309047Y0348063D01*
Y0388051D01*
X0340000Y0729347D02*
Y0736000D01*
X0413000Y0544000D02*
X0421700Y0535300D01*
X0412337Y0542400D02*
X0420100Y0534637D01*
X0371616Y0551600D02*
X0380077D01*
X0371535Y0553488D02*
X0380451D01*
X0384940Y0549000D01*
X0380077Y0551600D02*
X0383000Y0548677D01*
Y0546000D02*
Y0548677D01*
X0387653Y0546286D02*
Y0547500D01*
Y0549000D01*
X0311016Y0342158D02*
Y0388051D01*
X0421700Y0519563D02*
Y0535300D01*
X0434000Y0418000D02*
X0443000D01*
X0420100Y0518900D02*
Y0534637D01*
X0332000Y0721000D02*
X0373000D01*
X0327953Y0719000D02*
X0373828D01*
X0309000Y0695047D02*
X0316240D01*
X0317150Y0714000D02*
X0319000D01*
X0311000Y0706000D02*
X0314079Y0702921D01*
X0296650Y0373000D02*
Y0376150D01*
Y0355650D02*
Y0358000D01*
X0430000Y0379000D02*
X0443000D01*
X0421700Y0519563D02*
X0425746Y0515516D01*
Y0426254D02*
X0434000Y0418000D01*
X0425746Y0426254D02*
Y0515516D01*
X0420100Y0518900D02*
X0424147Y0514853D01*
Y0384854D02*
X0430000Y0379000D01*
X0424147Y0384854D02*
Y0514853D01*
X0384940Y0549000D02*
X0387653D01*
D14*
X0325000Y0701000D02*
X0327953Y0698047D01*
X0283853Y0619147D02*
X0284551Y0618449D01*
X0260853Y0619147D02*
X0283853D01*
X0283053Y0617947D02*
X0284520Y0616480D01*
X0260356Y0617947D02*
X0283053D01*
X0247103Y0631200D02*
X0260356Y0617947D01*
X0284551Y0618449D02*
X0288465D01*
X0247600Y0632400D02*
X0260853Y0619147D01*
X0284520Y0616480D02*
X0288465D01*
X0345000Y0453788D02*
Y0474000D01*
X0340000Y0479000D02*
X0345000Y0474000D01*
Y0476000D02*
X0350000Y0471000D01*
X0345000Y0476000D02*
Y0481788D01*
X0350000Y0469000D02*
Y0471000D01*
X0310000Y0479000D02*
X0314500Y0474500D01*
Y0469051D02*
Y0474500D01*
X0320000Y0469000D02*
Y0471000D01*
X0315000Y0476000D02*
X0320000Y0471000D01*
X0315000Y0476000D02*
Y0480303D01*
X0417000Y0664000D02*
Y0698500D01*
X0410000Y0657000D02*
X0417000Y0664000D01*
X0410000Y0652000D02*
Y0657000D01*
X0415623Y0566532D02*
X0430532D01*
X0421732Y0567732D02*
X0426000Y0572000D01*
X0415126Y0567732D02*
X0421732D01*
X0371535Y0565299D02*
X0380913D01*
X0371535Y0567268D02*
X0380641D01*
X0371535Y0569236D02*
X0380370D01*
X0371535Y0571205D02*
X0380098D01*
X0381000Y0592000D02*
X0419000D01*
X0380200Y0593200D02*
X0417200D01*
X0379400Y0594400D02*
X0411400D01*
X0379000Y0596000D02*
X0410000D01*
X0404200Y0597200D02*
X0424000Y0617000D01*
X0371940Y0597200D02*
X0404200D01*
X0402764Y0598764D02*
X0426000Y0622000D01*
X0371535Y0598764D02*
X0402764D01*
X0398732Y0600732D02*
X0425000Y0627000D01*
X0371535Y0600732D02*
X0398732D01*
X0375953Y0586953D02*
X0381000Y0592000D01*
X0371535Y0586953D02*
X0375953D01*
X0371535Y0563331D02*
X0371866Y0563000D01*
X0431000Y0547000D02*
X0436000Y0552000D01*
X0421697Y0558000D02*
X0430000D01*
X0434000Y0562000D02*
X0436000D01*
X0430000Y0558000D02*
X0434000Y0562000D01*
X0430532Y0566532D02*
X0436000Y0572000D01*
X0441268Y0497480D02*
Y0596732D01*
X0436000Y0602000D02*
X0441268Y0596732D01*
X0431000Y0577000D02*
X0436000Y0582000D01*
X0431000Y0587000D02*
X0436000Y0592000D01*
X0431000Y0607000D02*
X0436000Y0612000D01*
X0424000Y0607000D02*
X0431000D01*
X0411400Y0594400D02*
X0424000Y0607000D01*
X0431000Y0597000D02*
X0436000Y0602000D01*
X0424000Y0597000D02*
X0431000D01*
X0419000Y0592000D02*
X0424000Y0597000D01*
X0410000Y0596000D02*
X0426000Y0612000D01*
X0417200Y0593200D02*
X0426000Y0602000D01*
X0375921Y0588921D02*
X0380200Y0593200D01*
X0371535Y0588921D02*
X0375921D01*
X0375890Y0590890D02*
X0379400Y0594400D01*
X0371535Y0590890D02*
X0375890D01*
X0375858Y0592858D02*
X0379000Y0596000D01*
X0371535Y0592858D02*
X0375858D01*
X0399004Y0602701D02*
X0422000Y0625697D01*
X0371535Y0602701D02*
X0399004D01*
X0399275Y0604669D02*
X0420800Y0626194D01*
X0371535Y0604669D02*
X0399275D01*
X0399040Y0606132D02*
X0416000Y0623091D01*
X0384509Y0606132D02*
X0399040D01*
X0384003Y0606638D02*
X0384509Y0606132D01*
X0416000Y0623091D02*
Y0632000D01*
X0420800Y0626194D02*
Y0632249D01*
X0422000Y0625697D02*
Y0628000D01*
X0371535Y0596795D02*
X0371940Y0597200D01*
X0424000Y0617000D02*
X0431000D01*
X0425000Y0627000D02*
X0431000D01*
Y0617000D02*
X0436000Y0622000D01*
X0422000Y0628000D02*
X0426000Y0632000D01*
X0431000Y0627000D02*
X0436000Y0632000D01*
X0420800Y0632249D02*
X0425551Y0637000D01*
X0371535Y0606638D02*
X0384003D01*
X0425551Y0637000D02*
X0431000D01*
X0436000Y0642000D01*
X0378012Y0614512D02*
X0386000Y0622500D01*
X0371535Y0614512D02*
X0378012D01*
X0378080Y0616480D02*
X0382000Y0620400D01*
X0371535Y0616480D02*
X0378080D01*
X0416000Y0632000D02*
X0426000Y0642000D01*
X0407000Y0660000D02*
Y0698500D01*
X0378500Y0690000D02*
X0387000Y0698500D01*
X0378500Y0635000D02*
Y0690000D01*
X0369035Y0625535D02*
X0378500Y0635000D01*
X0382000Y0620400D02*
Y0663000D01*
X0369500Y0657000D02*
X0374250D01*
X0362480Y0649980D02*
X0369500Y0657000D01*
X0362480Y0625535D02*
Y0649980D01*
X0386000Y0622500D02*
Y0660000D01*
X0387000Y0670500D02*
Y0698500D01*
Y0670500D02*
X0389000Y0668500D01*
Y0646000D02*
Y0668500D01*
X0270000Y0479000D02*
X0275325Y0473674D01*
Y0452969D02*
Y0473674D01*
Y0452969D02*
X0284295Y0444000D01*
X0337379Y0494500D02*
X0342000D01*
X0329479Y0502400D02*
X0337379Y0494500D01*
X0349106Y0487500D02*
X0355700Y0480906D01*
X0328982Y0501200D02*
X0342682Y0487500D01*
X0349106D01*
X0328485Y0500000D02*
X0349485Y0479000D01*
X0327988Y0498800D02*
X0345000Y0481788D01*
X0340000Y0479000D02*
Y0485091D01*
X0327491Y0497600D02*
X0340000Y0485091D01*
X0349485Y0479000D02*
X0350000D01*
X0240000D02*
X0248500Y0487500D01*
X0355700Y0473300D02*
Y0480906D01*
X0312500Y0681661D02*
X0320079Y0689240D01*
X0312500Y0675697D02*
Y0681661D01*
Y0675697D02*
X0317500Y0670697D01*
X0362500Y0666000D02*
Y0672000D01*
X0357500Y0677000D02*
X0362500Y0672000D01*
X0357500Y0677000D02*
Y0679000D01*
X0345400Y0695100D02*
X0355500Y0685000D01*
X0344200Y0694194D02*
X0357500Y0680894D01*
X0353200Y0673300D02*
Y0683497D01*
X0343000Y0693697D02*
X0353200Y0683497D01*
X0343000Y0693697D02*
Y0697394D01*
X0357500Y0679000D02*
Y0680894D01*
X0344200Y0694194D02*
Y0698000D01*
X0355500Y0685000D02*
X0359500D01*
X0363000Y0681500D01*
Y0673500D02*
Y0681500D01*
Y0673500D02*
X0367500Y0669000D01*
X0375000Y0466500D02*
Y0474000D01*
X0370000Y0479000D02*
X0375000Y0474000D01*
X0366200Y0472800D02*
X0370000Y0469000D01*
X0366200Y0472800D02*
Y0474497D01*
X0365053Y0475644D02*
X0366200Y0474497D01*
X0365053Y0475644D02*
Y0482947D01*
X0360000Y0479000D02*
X0365000Y0474000D01*
X0344764Y0503236D02*
X0365053Y0482947D01*
X0355700Y0473300D02*
X0360000Y0469000D01*
X0350000Y0479000D02*
X0354500Y0474500D01*
X0326994Y0496400D02*
X0335000Y0488394D01*
Y0477000D02*
Y0488394D01*
Y0477000D02*
X0340000Y0472000D01*
X0300000Y0476347D02*
X0305000Y0471347D01*
X0300000Y0469000D02*
X0306500Y0462500D01*
X0317500Y0669000D02*
Y0670697D01*
X0307500Y0679000D02*
X0312500Y0674000D01*
Y0667500D02*
Y0674000D01*
X0353200Y0673300D02*
X0357500Y0669000D01*
X0347500Y0679000D02*
X0352000Y0674500D01*
X0342500Y0675697D02*
X0343700Y0674497D01*
Y0672800D02*
X0347500Y0669000D01*
X0343700Y0672800D02*
Y0674497D01*
X0337500Y0679000D02*
X0342500Y0674000D01*
Y0667500D02*
Y0674000D01*
Y0675697D02*
Y0688803D01*
X0338303Y0693000D02*
X0342500Y0688803D01*
X0322000Y0667500D02*
Y0672205D01*
X0317800Y0676405D02*
X0322000Y0672205D01*
X0299205Y0383705D02*
Y0388051D01*
X0294700Y0379200D02*
X0299205Y0383705D01*
X0340994Y0699400D02*
X0343000Y0697394D01*
X0270000Y0456091D02*
X0283291Y0442800D01*
X0265000Y0459394D02*
X0282794Y0441600D01*
X0299000Y0440000D02*
X0301173Y0437827D01*
X0282697Y0440000D02*
X0299000D01*
X0290385Y0438800D02*
X0297236Y0431949D01*
X0282200Y0438800D02*
X0290385D01*
X0255000Y0466000D02*
X0282200Y0438800D01*
X0301173Y0431949D02*
Y0437827D01*
X0260000Y0462697D02*
X0282697Y0440000D01*
X0303142Y0431949D02*
Y0437555D01*
X0312600Y0437500D02*
Y0445006D01*
Y0437500D02*
X0312984Y0437116D01*
Y0431949D02*
Y0437116D01*
X0313800Y0438003D02*
Y0447200D01*
X0312000Y0449000D02*
X0313800Y0447200D01*
X0314953Y0431949D02*
Y0436850D01*
X0313800Y0438003D02*
X0314953Y0436850D01*
X0316921Y0431949D02*
Y0436579D01*
X0315000Y0438500D02*
X0316921Y0436579D01*
X0315000Y0438500D02*
Y0453000D01*
X0314000Y0454000D02*
X0315000Y0453000D01*
X0302531Y0448900D02*
X0311016Y0440415D01*
Y0431949D02*
Y0440415D01*
X0246700Y0550100D02*
X0280994D01*
X0244400Y0551300D02*
X0280497D01*
X0284382Y0553488D02*
X0288465D01*
X0280994Y0550100D02*
X0284382Y0553488D01*
X0284654Y0555457D02*
X0288465D01*
X0280497Y0551300D02*
X0284654Y0555457D01*
X0284925Y0557425D02*
X0288465D01*
X0280000Y0552500D02*
X0284925Y0557425D01*
X0243100Y0552500D02*
X0280000D01*
X0281900Y0548900D02*
X0284520Y0551520D01*
X0248195Y0548900D02*
X0281900D01*
X0241000Y0541705D02*
X0248195Y0548900D01*
X0241454Y0544854D02*
X0246700Y0550100D01*
X0241104Y0548004D02*
X0244400Y0551300D01*
X0241754Y0551154D02*
X0243100Y0552500D01*
X0234844Y0544854D02*
X0241454D01*
X0234844Y0551154D02*
X0241754D01*
X0234844Y0548004D02*
X0241104D01*
X0234844Y0554303D02*
X0242403D01*
X0284520Y0551520D02*
X0288465D01*
X0282000Y0579079D02*
X0288465D01*
X0283733Y0592858D02*
X0288465D01*
X0284004Y0590890D02*
X0288465D01*
X0284276Y0588921D02*
X0288465D01*
X0284547Y0586953D02*
X0288465D01*
X0225115Y0630000D02*
X0246000D01*
X0282500Y0610575D02*
X0288465D01*
X0225612Y0628800D02*
X0245503D01*
X0226109Y0627600D02*
X0245006D01*
X0226606Y0626400D02*
X0244509D01*
X0227103Y0625200D02*
X0244012D01*
X0227106Y0622900D02*
X0244615D01*
X0224600Y0620394D02*
X0227106Y0622900D01*
X0224600Y0572000D02*
Y0620394D01*
X0234844Y0617295D02*
X0248522D01*
X0234844Y0610996D02*
X0253125D01*
X0234844Y0607846D02*
X0254577D01*
X0323000Y0516000D02*
Y0522000D01*
X0321142Y0537839D02*
Y0542465D01*
X0344764Y0537000D02*
Y0542465D01*
Y0503236D02*
Y0510000D01*
X0342795Y0503508D02*
Y0510272D01*
Y0503508D02*
X0360000Y0486303D01*
X0340600Y0542238D02*
X0340827Y0542465D01*
X0353400Y0536353D02*
X0355000Y0534754D01*
X0353400Y0536353D02*
Y0536994D01*
X0352638Y0537756D02*
X0353400Y0536994D01*
X0352638Y0537756D02*
Y0542465D01*
X0350669Y0538028D02*
Y0542465D01*
X0348701Y0538299D02*
Y0542465D01*
X0355000Y0530000D02*
Y0534754D01*
X0317205Y0625535D02*
Y0629901D01*
X0319173Y0625535D02*
Y0629630D01*
X0321142Y0625535D02*
Y0629358D01*
X0327500Y0669000D02*
X0329303D01*
X0340827Y0625535D02*
Y0629500D01*
X0332000Y0668000D02*
Y0674500D01*
X0346732Y0625535D02*
Y0630314D01*
X0344764Y0625535D02*
Y0630043D01*
X0342795Y0625535D02*
Y0629772D01*
X0358543Y0625535D02*
Y0660043D01*
X0367500Y0669000D01*
X0360512Y0652512D02*
X0363000Y0655000D01*
X0360512Y0625535D02*
Y0652512D01*
X0327500Y0679000D02*
X0332000Y0674500D01*
X0322700Y0681400D02*
X0324016Y0682716D01*
X0322700Y0673800D02*
Y0681400D01*
Y0673800D02*
X0327500Y0669000D01*
X0324016Y0682716D02*
Y0689240D01*
X0322047Y0706760D02*
Y0709953D01*
X0320868Y0711131D02*
X0322047Y0709953D01*
X0286478Y0711131D02*
X0320868D01*
X0296766Y0699068D02*
X0316156D01*
X0312491Y0697868D02*
X0313344Y0697016D01*
X0297474Y0697868D02*
X0312491D01*
X0295600Y0695994D02*
X0297474Y0697868D01*
X0316156Y0699068D02*
X0316240Y0698984D01*
X0295600Y0680900D02*
Y0695994D01*
Y0680900D02*
X0307500Y0669000D01*
X0269150Y0709000D02*
X0277654D01*
X0284347D02*
X0286478Y0711131D01*
X0296953Y0700953D02*
X0316240D01*
X0307500Y0685961D02*
X0314618Y0693079D01*
X0327953Y0686047D02*
Y0689240D01*
Y0686047D02*
X0333200Y0680800D01*
Y0673300D02*
Y0680800D01*
Y0673300D02*
X0337500Y0669000D01*
X0347500Y0679000D02*
Y0685500D01*
X0332953Y0535047D02*
X0333000Y0535000D01*
X0330000Y0479000D02*
X0335000Y0474000D01*
X0194549Y0588949D02*
X0209000Y0603400D01*
X0254842Y0406500D02*
X0271500D01*
X0250500D02*
X0254842D01*
X0204200Y0617400D02*
Y0629450D01*
X0205400Y0611497D02*
Y0628953D01*
X0250500Y0411500D02*
X0254842D01*
X0206600Y0611000D02*
Y0628456D01*
X0207800Y0603897D02*
Y0627959D01*
X0240000Y0469000D02*
Y0471294D01*
X0263000Y0333898D02*
X0274000Y0344898D01*
X0323000Y0516000D02*
X0336000Y0503000D01*
X0281701Y0660449D02*
X0282150Y0660000D01*
X0281701Y0660449D02*
Y0674000D01*
X0278795Y0397205D02*
X0290051D01*
X0274500Y0401500D02*
X0278795Y0397205D01*
X0254842Y0401500D02*
X0274500D01*
X0268197Y0411500D02*
X0278555Y0401142D01*
X0254842Y0411500D02*
X0268197D01*
X0278555Y0401142D02*
X0290051D01*
X0278827Y0399173D02*
X0290051D01*
X0271500Y0406500D02*
X0278827Y0399173D01*
X0276345Y0405079D02*
X0290051D01*
X0220000Y0461424D02*
X0276345Y0405079D01*
X0276073Y0407047D02*
X0290051D01*
X0225000Y0458121D02*
X0276073Y0407047D01*
X0275802Y0409016D02*
X0290051D01*
X0230000Y0454818D02*
X0275802Y0409016D01*
X0273562Y0412953D02*
X0290051D01*
X0235000Y0451515D02*
X0273562Y0412953D01*
X0273290Y0414921D02*
X0290051D01*
X0240000Y0448212D02*
X0273290Y0414921D01*
X0273019Y0416890D02*
X0290051D01*
X0245000Y0444909D02*
X0273019Y0416890D01*
X0272748Y0418858D02*
X0290051D01*
X0250000Y0441606D02*
X0272748Y0418858D01*
X0243850Y0673551D02*
X0244299Y0674000D01*
X0243850Y0660000D02*
Y0673551D01*
X0364449Y0533551D02*
X0367000Y0531000D01*
X0364449Y0533551D02*
Y0542465D01*
X0359200Y0513200D02*
Y0534103D01*
X0358000Y0512000D02*
X0359200Y0513200D01*
X0358543Y0534760D02*
Y0542465D01*
Y0534760D02*
X0359200Y0534103D01*
X0377346Y0445000D02*
X0380346Y0442000D01*
X0375346Y0445000D02*
X0377346D01*
X0249150Y0377000D02*
X0251150D01*
X0249150Y0333000D02*
X0251150D01*
X0252000Y0398657D02*
X0254842Y0401500D01*
X0252000Y0394346D02*
Y0398657D01*
X0315236Y0625535D02*
Y0629885D01*
X0364000Y0445000D02*
X0368653D01*
X0375346Y0427000D02*
X0381347D01*
X0364000Y0433000D02*
X0368653D01*
X0391283Y0418370D02*
Y0422409D01*
Y0418370D02*
X0397654Y0412000D01*
X0377000Y0462284D02*
X0391283Y0448000D01*
X0256102Y0327000D02*
X0263000Y0333898D01*
X0249346Y0327000D02*
X0256102D01*
X0305110Y0431949D02*
Y0437284D01*
X0307079Y0431949D02*
Y0437012D01*
X0270000Y0456091D02*
Y0469000D01*
X0265000Y0459394D02*
Y0474000D01*
X0260000Y0462697D02*
Y0469000D01*
X0255000Y0466000D02*
Y0474000D01*
X0249500Y0411500D02*
X0250500D01*
X0241000Y0403000D02*
X0249500Y0411500D01*
X0246000Y0402000D02*
X0250500Y0406500D01*
X0246000Y0394346D02*
Y0402000D01*
X0243653Y0418347D02*
X0250500Y0411500D01*
X0243653Y0418347D02*
Y0423000D01*
X0254842Y0416500D02*
Y0418504D01*
X0250346Y0423000D02*
X0254842Y0418504D01*
X0235000Y0451515D02*
Y0474000D01*
X0230000Y0454818D02*
Y0469000D01*
X0225000Y0458121D02*
Y0475000D01*
X0220000Y0461424D02*
Y0469000D01*
X0300000Y0476347D02*
Y0479000D01*
X0304853Y0476147D02*
X0310000Y0471000D01*
Y0469000D02*
Y0471000D01*
X0201800Y0621800D02*
Y0630444D01*
X0197295Y0617295D02*
X0201800Y0621800D01*
X0190356Y0617295D02*
X0197295D01*
X0329600Y0515006D02*
X0346000Y0498606D01*
X0370000Y0479000D02*
Y0480000D01*
X0360000Y0479000D02*
Y0486303D01*
X0346000Y0491000D02*
Y0498606D01*
X0326000Y0483000D02*
X0330000Y0479000D01*
X0304853Y0476147D02*
Y0488753D01*
X0257000Y0525126D02*
Y0531000D01*
X0256835Y0524961D02*
X0257000Y0525126D01*
X0234844Y0541705D02*
X0241000D01*
X0283732Y0567268D02*
X0288465D01*
X0301173Y0383673D02*
Y0388051D01*
X0234844Y0557453D02*
X0243053D01*
X0234844Y0601547D02*
X0238053D01*
X0234844Y0598398D02*
X0239505D01*
X0190356Y0588949D02*
X0194549D01*
X0190356Y0592098D02*
X0196001D01*
X0190356Y0598398D02*
X0193998D01*
X0190356Y0601547D02*
X0195450D01*
X0196001Y0592098D02*
X0207800Y0603897D01*
X0193998Y0598398D02*
X0206600Y0611000D01*
X0195450Y0601547D02*
X0205400Y0611497D01*
X0209000Y0603400D02*
Y0627462D01*
X0332953Y0535047D02*
Y0542465D01*
X0228100Y0566000D02*
X0229002Y0566902D01*
X0234844D01*
X0334000Y0530000D02*
X0334921Y0530921D01*
Y0542465D01*
X0326764Y0388051D02*
X0354949D01*
X0220000Y0479000D02*
X0221000D01*
X0225000Y0475000D01*
X0230000Y0479000D02*
X0235000Y0474000D01*
X0250000Y0479000D02*
X0255000Y0474000D01*
X0260000Y0479000D02*
X0265000Y0474000D01*
X0280000Y0458854D02*
Y0469000D01*
Y0479000D02*
X0285000Y0474000D01*
Y0459303D02*
Y0474000D01*
X0290000Y0459400D02*
Y0469000D01*
Y0479000D02*
X0295000Y0474000D01*
X0320000Y0479000D02*
X0325000Y0474000D01*
X0340000Y0469000D02*
Y0472000D01*
X0264000Y0519626D02*
Y0525000D01*
X0269000Y0512126D02*
Y0525000D01*
X0307362Y0535000D02*
X0308091Y0534271D01*
X0307362Y0535000D02*
Y0542465D01*
X0252047Y0333898D02*
X0263000D01*
X0251150Y0333000D02*
X0252047Y0333898D01*
X0329921Y0686132D02*
X0337053Y0679000D01*
X0325984Y0680516D02*
X0327500Y0679000D01*
X0317500D02*
X0322047Y0683547D01*
X0281701Y0674000D02*
X0282050Y0674350D01*
X0307500Y0679000D02*
Y0685961D01*
X0334921Y0625535D02*
Y0629862D01*
X0336890Y0625535D02*
Y0630110D01*
X0307750Y0669250D02*
X0308144D01*
X0364000Y0439000D02*
X0368653D01*
X0364000Y0427000D02*
X0368653D01*
X0345400Y0695100D02*
Y0700388D01*
X0322047Y0683547D02*
Y0689240D01*
X0329921Y0686132D02*
Y0689240D01*
X0325984Y0680516D02*
Y0689240D01*
X0314618Y0693079D02*
X0316240D01*
X0313344Y0697016D02*
X0316240D01*
X0323000Y0713000D02*
X0324016Y0711984D01*
X0338000Y0695000D02*
X0347500Y0685500D01*
X0333760Y0698984D02*
X0337584D01*
X0338000Y0699400D01*
X0340994D01*
X0333760Y0700953D02*
X0341247D01*
X0344200Y0698000D01*
X0333760Y0702921D02*
X0342867D01*
X0345400Y0700388D01*
X0190356Y0607846D02*
X0194646D01*
X0204200Y0617400D01*
X0190356Y0610996D02*
X0196099D01*
X0203000Y0617897D01*
Y0629947D01*
X0295500Y0378000D02*
X0301173Y0383673D01*
X0251150Y0377000D02*
X0253350Y0379200D01*
X0238000Y0327000D02*
X0242653D01*
X0223400Y0621497D02*
X0227103Y0625200D01*
X0222200Y0621994D02*
X0226606Y0626400D01*
X0221000Y0622491D02*
X0226109Y0627600D01*
X0219800Y0622988D02*
X0225612Y0628800D01*
X0218600Y0623485D02*
X0225115Y0630000D01*
X0217400Y0623982D02*
X0224618Y0631200D01*
X0247103D01*
X0216200Y0624479D02*
X0224121Y0632400D01*
X0247600D01*
X0240000Y0448212D02*
Y0469000D01*
X0245000Y0444909D02*
Y0474000D01*
X0250000Y0441606D02*
Y0469000D01*
X0381347Y0427000D02*
X0382347Y0428000D01*
X0312400Y0455600D02*
X0314000Y0454000D01*
X0309600Y0454400D02*
X0312000Y0452000D01*
Y0449000D02*
Y0452000D01*
X0329600Y0515006D02*
Y0536600D01*
X0330984Y0537984D01*
Y0542465D01*
X0305000Y0372847D02*
X0307079Y0374925D01*
Y0388051D01*
X0362480Y0512520D02*
X0363000Y0512000D01*
X0362480Y0512520D02*
Y0542465D01*
X0360512Y0498488D02*
Y0542465D01*
Y0498488D02*
X0380000Y0479000D01*
Y0473000D02*
Y0479000D01*
X0377000Y0462284D02*
Y0480303D01*
X0190356Y0570051D02*
X0207051D01*
X0190356Y0566902D02*
X0205902D01*
X0190356Y0563752D02*
X0204473D01*
X0190356Y0560602D02*
X0203020D01*
X0190356Y0557453D02*
X0201568D01*
X0190356Y0554303D02*
X0200115D01*
X0190356Y0551154D02*
X0198662D01*
X0190356Y0548004D02*
X0197210D01*
X0190356Y0544854D02*
X0195757D01*
X0190356Y0541705D02*
X0194305D01*
X0223400Y0572497D02*
Y0621497D01*
X0222200Y0572994D02*
Y0621994D01*
X0221000Y0573491D02*
Y0622491D01*
X0219800Y0573988D02*
Y0622988D01*
X0218600Y0574485D02*
Y0623485D01*
X0217400Y0574982D02*
Y0623982D01*
X0216200Y0575479D02*
Y0624479D01*
X0215000Y0576000D02*
Y0624976D01*
X0213800Y0576800D02*
Y0625473D01*
X0194305Y0541705D02*
X0224600Y0572000D01*
X0195757Y0544854D02*
X0223400Y0572497D01*
X0197210Y0548004D02*
X0222200Y0572994D01*
X0198662Y0551154D02*
X0221000Y0573491D01*
X0200115Y0554303D02*
X0219800Y0573988D01*
X0201568Y0557453D02*
X0218600Y0574485D01*
X0203020Y0560602D02*
X0217400Y0574982D01*
X0204473Y0563752D02*
X0216200Y0575479D01*
X0205902Y0566902D02*
X0215000Y0576000D01*
X0207051Y0570051D02*
X0213800Y0576800D01*
X0190356Y0573201D02*
X0208201D01*
X0212600Y0577600D01*
Y0625971D01*
X0190356Y0576350D02*
X0209350D01*
X0211400Y0578400D01*
Y0626468D01*
X0210200Y0595200D02*
Y0626965D01*
X0190356Y0582650D02*
X0197650D01*
X0210200Y0595200D01*
X0234844Y0563752D02*
X0238852D01*
X0234844Y0560602D02*
X0238802D01*
X0238852Y0563752D02*
X0244336Y0569236D01*
X0288465D01*
X0234844Y0570051D02*
X0241051D01*
X0242000Y0571000D01*
X0269654D01*
X0234844Y0573201D02*
X0266201D01*
X0274000Y0344898D02*
Y0368000D01*
X0284000Y0378000D01*
X0295500D01*
X0215000Y0624976D02*
X0232284Y0642261D01*
X0213800Y0625473D02*
X0231787Y0643461D01*
X0212600Y0625971D02*
X0231290Y0644661D01*
X0211400Y0626468D02*
X0230793Y0645861D01*
X0210200Y0626965D02*
X0230296Y0647061D01*
X0209000Y0627462D02*
X0229799Y0648261D01*
X0207800Y0627959D02*
X0229302Y0649461D01*
X0206600Y0628456D02*
X0228805Y0650661D01*
X0205400Y0628953D02*
X0228308Y0651861D01*
X0204200Y0629450D02*
X0227811Y0653061D01*
X0203000Y0629947D02*
X0227314Y0654261D01*
X0201800Y0630444D02*
X0226817Y0655461D01*
X0310931D01*
X0227314Y0654261D02*
X0307739D01*
X0227811Y0653061D02*
X0306939D01*
X0228308Y0651861D02*
X0306139D01*
X0272847Y0638500D02*
Y0642107D01*
X0232438D02*
X0272847D01*
X0232284Y0642261D02*
X0232438Y0642107D01*
X0226847Y0441500D02*
X0231000D01*
X0226847Y0435500D02*
X0232000D01*
X0226847Y0429000D02*
X0227346Y0428500D01*
X0232000D01*
X0350000Y0442879D02*
Y0469000D01*
X0354500Y0440076D02*
Y0474500D01*
X0333949Y0397205D02*
X0354261D01*
X0333949Y0403110D02*
X0340610D01*
X0333949Y0409016D02*
X0340713D01*
X0333949Y0407047D02*
X0340441D01*
X0333949Y0414921D02*
X0340921D01*
X0340000Y0457091D02*
Y0469000D01*
X0335000Y0460394D02*
Y0474000D01*
X0330000Y0463697D02*
Y0469000D01*
X0325000Y0467000D02*
Y0474000D01*
X0330000Y0463697D02*
X0344200Y0449497D01*
X0335000Y0460394D02*
X0345400Y0449994D01*
X0340000Y0457091D02*
X0346600Y0450491D01*
X0345000Y0453788D02*
X0347800Y0450988D01*
Y0443382D02*
Y0450988D01*
X0346600Y0442885D02*
Y0450491D01*
X0345400Y0442388D02*
Y0449994D01*
X0344200Y0441800D02*
Y0449497D01*
X0333949Y0424764D02*
Y0438705D01*
X0332000Y0440654D02*
X0333949Y0438705D01*
X0326764Y0431949D02*
Y0450539D01*
X0324795Y0431949D02*
Y0450811D01*
X0306500Y0462500D02*
X0313106D01*
X0324795Y0450811D01*
X0305000Y0466500D02*
Y0471347D01*
Y0466500D02*
X0307500Y0464000D01*
X0313303D01*
X0326764Y0450539D01*
X0310347Y0469000D02*
X0332000Y0447346D01*
X0310000Y0469000D02*
X0310347D01*
X0314500Y0469051D02*
X0319854Y0463697D01*
X0333949Y0412953D02*
X0342953D01*
X0333949Y0405079D02*
X0340882D01*
X0365000Y0467782D02*
Y0474000D01*
X0370000Y0466347D02*
Y0469000D01*
X0333949Y0395236D02*
X0356130D01*
X0354949Y0388051D02*
X0361000Y0394102D01*
Y0452500D01*
X0375000Y0466500D01*
X0356130Y0395236D02*
X0359800Y0398906D01*
X0354261Y0397205D02*
X0358600Y0401544D01*
X0340610Y0403110D02*
X0356200Y0418700D01*
Y0438376D01*
X0354500Y0440076D02*
X0356200Y0438376D01*
X0340882Y0405079D02*
X0355000Y0419197D01*
Y0437879D01*
X0340441Y0407047D02*
X0353800Y0420406D01*
Y0437382D01*
X0340713Y0409016D02*
X0352600Y0420903D01*
Y0436885D01*
X0346600Y0442885D02*
X0352600Y0436885D01*
X0350000Y0442879D02*
X0355000Y0437879D01*
X0347800Y0443382D02*
X0353800Y0437382D01*
X0357400Y0466400D02*
X0360000Y0469000D01*
X0358600Y0401544D02*
Y0461382D01*
X0365000Y0467782D01*
X0359800Y0398906D02*
Y0456147D01*
X0370000Y0466347D01*
X0333949Y0416890D02*
X0339284D01*
X0325000Y0467000D02*
X0343000Y0449000D01*
X0339284Y0416890D02*
X0343000Y0420606D01*
X0333949Y0418858D02*
X0339555D01*
X0320000Y0469000D02*
X0341800Y0447200D01*
X0339555Y0418858D02*
X0341800Y0421103D01*
X0333949Y0420827D02*
X0339827D01*
X0319854Y0463697D02*
X0323303D01*
X0340600Y0446400D01*
X0339827Y0420827D02*
X0340600Y0421600D01*
Y0446400D01*
X0341800Y0421103D02*
Y0447200D01*
X0343000Y0420606D02*
Y0449000D01*
X0347000Y0432346D02*
Y0439000D01*
X0344200Y0441800D02*
X0347000Y0439000D01*
X0340921Y0414921D02*
X0347000Y0421000D01*
Y0423654D01*
X0345400Y0442388D02*
X0351400Y0436388D01*
X0342953Y0412953D02*
X0351400Y0421400D01*
Y0436388D01*
X0315236Y0512264D02*
X0325100Y0502400D01*
X0329479D01*
X0324603Y0501200D02*
X0328982D01*
X0324106Y0500000D02*
X0328485D01*
X0323609Y0498800D02*
X0327988D01*
X0323112Y0497600D02*
X0327491D01*
X0321600Y0496400D02*
X0326994D01*
X0269150Y0697000D02*
X0279000D01*
X0318529Y0709932D02*
X0320079Y0708382D01*
X0293932Y0709932D02*
X0318529D01*
X0279000Y0697000D02*
X0281000D01*
X0293932Y0709932D01*
X0264000Y0692500D02*
X0288500D01*
X0262653Y0691153D02*
X0264000Y0692500D01*
X0262653Y0688000D02*
Y0691153D01*
X0288500Y0692500D02*
X0296953Y0700953D01*
X0248654Y0674000D02*
X0262653Y0688000D01*
X0244299Y0674000D02*
X0248654D01*
X0285697Y0688000D02*
X0296766Y0699068D01*
X0282050Y0674350D02*
Y0687950D01*
X0282000Y0688000D02*
X0282050Y0687950D01*
X0269346Y0688000D02*
X0282000D01*
X0285697D01*
X0354606Y0537000D02*
Y0542465D01*
X0352200Y0497800D02*
X0370000Y0480000D01*
X0350669Y0538028D02*
X0352200Y0536497D01*
X0348701Y0538299D02*
X0351000Y0536000D01*
X0349000Y0503000D02*
X0351000Y0505000D01*
Y0536000D01*
X0352200Y0497800D02*
Y0536497D01*
X0354400Y0529400D02*
X0355000Y0530000D01*
X0354400Y0499100D02*
X0358500Y0495000D01*
X0354400Y0499100D02*
Y0529400D01*
X0355600Y0501703D02*
Y0512994D01*
Y0501703D02*
X0377000Y0480303D01*
X0354606Y0537000D02*
X0357400Y0534206D01*
Y0514794D02*
Y0534206D01*
X0355600Y0512994D02*
X0357400Y0514794D01*
X0248500Y0487500D02*
X0284500D01*
X0240000Y0479000D02*
X0245000Y0474000D01*
X0295551Y0540051D02*
Y0542465D01*
X0235000Y0476295D02*
X0240000Y0471294D01*
X0235000Y0476295D02*
Y0479500D01*
X0252000Y0496500D02*
X0274500D01*
X0235000Y0479500D02*
X0252000Y0496500D01*
X0241347Y0500000D02*
X0251284D01*
X0251323Y0499961D01*
X0240846Y0512500D02*
X0251284D01*
X0251323Y0512461D01*
X0256835D02*
X0264000Y0519626D01*
X0256835Y0499961D02*
X0269000Y0512126D01*
X0281957Y0606638D02*
X0288465D01*
X0281686Y0604669D02*
X0288465D01*
X0281414Y0602701D02*
X0288465D01*
X0282228Y0608606D02*
X0288465D01*
X0234844Y0582650D02*
X0237350D01*
X0316000Y0634500D02*
X0321142Y0629358D01*
X0316000Y0634500D02*
Y0650391D01*
X0310931Y0655461D02*
X0316000Y0650391D01*
X0314800Y0634003D02*
Y0647200D01*
X0307739Y0654261D02*
X0314800Y0647200D01*
X0313600Y0633506D02*
Y0646400D01*
X0306939Y0653061D02*
X0313600Y0646400D01*
X0306139Y0651861D02*
X0312400Y0645600D01*
X0314800Y0634003D02*
X0319173Y0629630D01*
X0313600Y0633506D02*
X0317205Y0629901D01*
X0312400Y0632721D02*
X0315236Y0629885D01*
X0312400Y0632721D02*
Y0645600D01*
X0333500Y0633500D02*
X0336890Y0630110D01*
X0333500Y0633500D02*
Y0656000D01*
X0322000Y0667500D02*
X0333500Y0656000D01*
X0317500Y0669000D02*
X0332300Y0654200D01*
X0308144Y0669250D02*
X0329400Y0647994D01*
X0329016Y0625535D02*
X0329400Y0625920D01*
Y0647994D01*
X0331068Y0625620D02*
Y0648932D01*
X0312500Y0667500D02*
X0331068Y0648932D01*
X0332300Y0632483D02*
X0334921Y0629862D01*
X0332300Y0632483D02*
Y0654200D01*
X0337500Y0669000D02*
X0346301Y0660199D01*
X0342500Y0667500D02*
X0347501Y0662499D01*
X0347500Y0669000D02*
X0348701Y0667799D01*
X0340827Y0629500D02*
X0346500Y0635173D01*
Y0651803D01*
X0329303Y0669000D02*
X0346500Y0651803D01*
X0347700Y0634676D02*
Y0652300D01*
X0348900Y0634179D02*
Y0652797D01*
X0346301Y0655396D02*
X0348900Y0652797D01*
X0346301Y0655396D02*
Y0660199D01*
X0350100Y0633682D02*
Y0653294D01*
X0347501Y0655893D02*
X0350100Y0653294D01*
X0348701Y0625535D02*
Y0630586D01*
X0351300Y0633185D01*
Y0653791D01*
X0348701Y0656390D02*
X0351300Y0653791D01*
X0350669Y0625535D02*
Y0630857D01*
X0352500Y0632688D01*
Y0654288D01*
X0352638Y0625535D02*
Y0631129D01*
X0353700Y0632191D01*
X0342795Y0629772D02*
X0347700Y0634676D01*
X0332000Y0668000D02*
X0347700Y0652300D01*
X0344764Y0630043D02*
X0348900Y0634179D01*
X0346732Y0630314D02*
X0350100Y0633682D01*
X0347501Y0655893D02*
Y0662499D01*
X0348701Y0656390D02*
Y0667799D01*
X0354900Y0658400D02*
X0362500Y0666000D01*
X0354606Y0625535D02*
X0354900Y0625829D01*
Y0658400D01*
X0353700Y0665200D02*
X0357500Y0669000D01*
X0353700Y0632191D02*
Y0665200D01*
X0352000Y0654788D02*
X0352500Y0654288D01*
X0352000Y0654788D02*
Y0674500D01*
X0309331Y0625535D02*
Y0629169D01*
X0228805Y0650661D02*
X0287839D01*
X0307362Y0625535D02*
Y0629441D01*
X0229302Y0649461D02*
X0287342D01*
X0305394Y0625535D02*
Y0629712D01*
X0229799Y0648261D02*
X0286845D01*
X0303425Y0625535D02*
Y0629984D01*
X0230296Y0647061D02*
X0286348D01*
X0301457Y0625535D02*
Y0630255D01*
X0230793Y0645861D02*
X0285851D01*
X0299488Y0625535D02*
Y0630527D01*
X0231290Y0644661D02*
X0285354D01*
X0231787Y0643461D02*
X0284857D01*
X0272847Y0642107D02*
X0273000Y0642261D01*
X0284360D01*
X0295551Y0631070D01*
Y0625535D02*
Y0631070D01*
X0284857Y0643461D02*
X0297520Y0630798D01*
Y0625535D02*
Y0630798D01*
X0285354Y0644661D02*
X0299488Y0630527D01*
X0285851Y0645861D02*
X0301457Y0630255D01*
X0286348Y0647061D02*
X0303425Y0629984D01*
X0286845Y0648261D02*
X0305394Y0629712D01*
X0287342Y0649461D02*
X0307362Y0629441D01*
X0287839Y0650661D02*
X0309331Y0629169D01*
X0364449Y0625535D02*
X0369035D01*
X0281143Y0600732D02*
X0288465D01*
X0234844Y0588949D02*
X0260051D01*
Y0579949D02*
Y0588949D01*
X0281421Y0578500D02*
X0282000Y0579079D01*
X0260051Y0579949D02*
X0261500Y0578500D01*
X0237350Y0582650D02*
X0242890Y0577110D01*
X0283358Y0575142D02*
X0288465D01*
X0282631Y0575869D02*
X0283358Y0575142D01*
X0266201Y0573201D02*
X0268868Y0575869D01*
X0282631D01*
X0242890Y0577110D02*
X0288465D01*
X0261500Y0578500D02*
X0281421D01*
X0280591Y0596000D02*
X0283733Y0592858D01*
X0288060Y0597200D02*
X0288465Y0596795D01*
X0280094Y0594800D02*
X0284004Y0590890D01*
X0288101Y0598400D02*
X0288465Y0598764D01*
X0279697Y0593500D02*
X0284276Y0588921D01*
X0246000Y0630000D02*
X0270400Y0605600D01*
X0277525D01*
X0282500Y0610575D01*
X0245503Y0628800D02*
X0269903Y0604400D01*
X0278022D01*
X0282228Y0608606D01*
X0245006Y0627600D02*
X0269406Y0603200D01*
X0278519D01*
X0281957Y0606638D01*
X0244509Y0626400D02*
X0268909Y0602000D01*
X0279016D01*
X0281686Y0604669D01*
X0244012Y0625200D02*
X0268412Y0600800D01*
X0279513D01*
X0281414Y0602701D01*
X0244615Y0622900D02*
X0267915Y0599600D01*
X0280010D01*
X0281143Y0600732D01*
X0248522Y0617295D02*
X0267418Y0598400D01*
X0288101D01*
X0253125Y0610996D02*
X0266921Y0597200D01*
X0288060D01*
X0254577Y0607846D02*
X0266424Y0596000D01*
X0280591D01*
X0238053Y0601547D02*
X0244800Y0594800D01*
X0280094D01*
X0239505Y0598398D02*
X0244403Y0593500D01*
X0279697D01*
X0234844Y0592098D02*
X0279402D01*
X0284547Y0586953D01*
X0238802Y0560602D02*
X0246200Y0568000D01*
X0283000D01*
X0283732Y0567268D01*
X0288234Y0563100D02*
X0288465Y0563331D01*
X0242403Y0554303D02*
X0249462Y0561362D01*
X0243053Y0557453D02*
X0248700Y0563100D01*
X0288234D01*
X0249462Y0561362D02*
X0288465D01*
X0319000Y0480000D02*
X0320000Y0479000D01*
X0317000Y0480000D02*
X0319000D01*
X0303425Y0537925D02*
Y0542465D01*
X0301457Y0537654D02*
Y0542465D01*
X0299488Y0537382D02*
Y0542465D01*
X0297520Y0537111D02*
Y0542465D01*
X0286000Y0525591D02*
X0297520Y0537111D01*
X0274500Y0496500D02*
X0284800Y0506800D01*
Y0529300D01*
X0295551Y0540051D01*
X0286000Y0502500D02*
Y0525591D01*
Y0502500D02*
X0300000Y0488500D01*
Y0479000D02*
Y0488500D01*
X0290894Y0501106D02*
X0292500D01*
X0288500Y0503500D02*
X0290894Y0501106D01*
X0292500D02*
X0304853Y0488753D01*
X0288500Y0508000D02*
Y0526394D01*
X0299488Y0537382D01*
X0292000Y0505000D02*
X0317000Y0480000D01*
X0292000Y0505000D02*
Y0526500D01*
X0303425Y0537925D01*
X0290800Y0504503D02*
Y0526997D01*
X0301457Y0537654D01*
X0290800Y0504503D02*
X0315000Y0480303D01*
X0314036Y0511767D02*
X0324603Y0501200D01*
X0314036Y0511767D02*
Y0517146D01*
X0313268Y0517915D02*
X0314036Y0517146D01*
X0313268Y0517915D02*
Y0542465D01*
X0312836Y0511270D02*
X0324106Y0500000D01*
X0312836Y0511270D02*
Y0516649D01*
X0311636Y0510773D02*
X0323609Y0498800D01*
X0311636Y0510773D02*
Y0516152D01*
X0310436Y0510276D02*
X0323112Y0497600D01*
X0310436Y0510276D02*
Y0515655D01*
X0311299Y0518186D02*
Y0542465D01*
Y0518186D02*
X0312836Y0516649D01*
X0309331Y0518458D02*
X0311636Y0516152D01*
X0309331Y0518458D02*
Y0542465D01*
X0308091Y0518000D02*
X0310436Y0515655D01*
X0308091Y0518000D02*
Y0534271D01*
X0315236Y0512264D02*
Y0542465D01*
X0319500Y0525500D02*
X0323000Y0522000D01*
X0319500Y0525500D02*
Y0534500D01*
X0323000Y0538000D01*
X0318300Y0534997D02*
X0321142Y0537839D01*
X0317100Y0542360D02*
X0317205Y0542465D01*
X0317100Y0514900D02*
X0320000Y0512000D01*
X0317100Y0514900D02*
Y0542360D01*
X0318300Y0522500D02*
X0319800Y0521000D01*
X0318300Y0522500D02*
Y0534997D01*
X0340600Y0536230D02*
Y0542238D01*
X0342795Y0536728D02*
Y0542465D01*
X0341000Y0513764D02*
X0344764Y0510000D01*
X0341000Y0513764D02*
Y0533236D01*
X0344764Y0537000D01*
X0339800Y0513267D02*
Y0533733D01*
X0338600Y0512770D02*
Y0534230D01*
X0335000Y0519000D02*
X0337400Y0521400D01*
Y0534727D01*
X0338858Y0536186D01*
Y0542465D01*
X0336200Y0535224D02*
X0336890Y0535914D01*
Y0542465D01*
X0339800Y0513267D02*
X0342795Y0510272D01*
X0339800Y0533733D02*
X0342795Y0536728D01*
X0338600Y0534230D02*
X0340600Y0536230D01*
X0334000Y0526000D02*
X0336200Y0528200D01*
Y0535224D01*
X0340000Y0509000D02*
Y0511370D01*
X0338600Y0512770D02*
X0340000Y0511370D01*
X0371535Y0561362D02*
X0375638D01*
X0423000Y0547000D02*
X0431000D01*
X0385500Y0567500D02*
X0411500D01*
X0385003Y0566300D02*
X0411997D01*
X0384506Y0565100D02*
X0412494D01*
X0384009Y0563900D02*
X0412991D01*
X0371866Y0563000D02*
X0381515D01*
X0383015Y0561500D01*
X0410900Y0559100D02*
X0423000Y0547000D01*
X0380098Y0571205D02*
X0385003Y0566300D01*
X0380370Y0569236D02*
X0384506Y0565100D01*
X0412494D02*
X0415126Y0567732D01*
X0380641Y0567268D02*
X0384009Y0563900D01*
X0412991D02*
X0415623Y0566532D01*
X0380913Y0565299D02*
X0383512Y0562700D01*
X0371535Y0559394D02*
X0371829Y0559100D01*
X0410900D01*
X0417700Y0560300D02*
X0426000Y0552000D01*
X0375638Y0561362D02*
X0376700Y0560300D01*
X0417700D01*
X0418197Y0561500D02*
X0421697Y0558000D01*
X0383015Y0561500D02*
X0418197D01*
X0425300Y0562700D02*
X0426000Y0562000D01*
X0383512Y0562700D02*
X0425300D01*
X0371535Y0579079D02*
X0375921D01*
X0422697Y0577000D02*
X0431000D01*
X0411997Y0566300D02*
X0422697Y0577000D01*
X0411500Y0567500D02*
X0426000Y0582000D01*
X0371535Y0573173D02*
X0379827D01*
X0385500Y0567500D01*
X0371535Y0577110D02*
X0371846Y0576800D01*
X0412800D01*
X0423000Y0587000D02*
X0431000D01*
X0412800Y0576800D02*
X0423000Y0587000D01*
X0375921Y0579079D02*
X0377000Y0578000D01*
X0412000D01*
X0426000Y0592000D01*
X0357400Y0402041D02*
Y0466400D01*
X0354491Y0399131D02*
X0357400Y0402041D01*
X0333991Y0399131D02*
X0354491D01*
X0282794Y0441600D02*
X0299097D01*
X0303142Y0437555D01*
X0283291Y0442800D02*
X0299594D01*
X0305110Y0437284D01*
X0284295Y0444000D02*
X0300091D01*
X0307079Y0437012D01*
X0306297Y0454400D02*
X0309600D01*
X0306794Y0455600D02*
X0312400D01*
X0295000Y0467394D02*
Y0474000D01*
Y0467394D02*
X0306794Y0455600D01*
X0290000Y0459400D02*
X0292900Y0456500D01*
X0304197D01*
X0306297Y0454400D01*
X0285000Y0459303D02*
X0289303Y0455000D01*
X0304000D01*
X0307000Y0452000D01*
X0280000Y0458854D02*
X0285354Y0453500D01*
X0297931D01*
X0302531Y0448900D01*
X0375346Y0439000D02*
X0415000D01*
X0375346Y0433000D02*
X0415000D01*
X0382347Y0428000D02*
X0415000D01*
X0415606D01*
X0380346Y0442000D02*
X0412000D01*
X0415000Y0445000D01*
X0404724Y0510740D02*
X0408484Y0514500D01*
X0326000Y0483000D02*
Y0491000D01*
X0323000Y0538000D02*
Y0542465D01*
X0241347Y0525000D02*
X0251323D01*
X0253350Y0379200D02*
X0294700D01*
X0317800Y0676405D02*
Y0679000D01*
X0347000Y0423654D02*
X0348000Y0424653D01*
X0306303Y0451303D02*
X0312600Y0445006D01*
X0333760Y0695000D02*
X0338000D01*
X0241000Y0394346D02*
Y0403000D01*
X0305000Y0513000D02*
X0321600Y0496400D01*
X0305500Y0513500D02*
X0306000Y0514000D01*
X0333760Y0693000D02*
X0338303D01*
X0269654Y0571000D02*
X0271654Y0573000D01*
X0278346Y0573173D02*
X0288465D01*
X0408484Y0514500D02*
X0418087D01*
X0422747Y0509841D01*
X0420500Y0503500D02*
X0422747Y0505747D01*
Y0509841D01*
X0434654Y0478803D02*
X0434850Y0479000D01*
D16*
X0443000Y0418000D02*
D03*
Y0428905D02*
D03*
Y0407094D02*
D03*
Y0368094D02*
D03*
Y0389906D02*
D03*
Y0379000D02*
D03*
D17*
X0383000Y0502669D02*
D03*
Y0511331D02*
D03*
D18*
X0394346Y0547500D02*
D03*
X0387653D02*
D03*
X0284347Y0709000D02*
D03*
X0277654D02*
D03*
X0234653Y0500000D02*
D03*
X0241347D02*
D03*
X0242653Y0327000D02*
D03*
X0249346D02*
D03*
X0397654Y0412000D02*
D03*
X0404347D02*
D03*
X0240846Y0512500D02*
D03*
X0234154D02*
D03*
X0234653Y0525000D02*
D03*
X0241347D02*
D03*
X0306347Y0706000D02*
D03*
X0299654D02*
D03*
X0441347Y0468000D02*
D03*
X0434654D02*
D03*
X0271654Y0572500D02*
D03*
X0278346D02*
D03*
X0368653Y0445000D02*
D03*
X0375346D02*
D03*
X0368653Y0439000D02*
D03*
X0375346D02*
D03*
X0368653Y0433000D02*
D03*
X0375346D02*
D03*
X0368653Y0427000D02*
D03*
X0375346D02*
D03*
X0433000Y0497480D02*
D03*
X0441268D02*
D03*
Y0490000D02*
D03*
X0433000D02*
D03*
X0333653Y0384000D02*
D03*
X0340347D02*
D03*
X0243653Y0423000D02*
D03*
X0250346D02*
D03*
X0220153Y0441500D02*
D03*
X0226847D02*
D03*
X0226847Y0435500D02*
D03*
X0220153D02*
D03*
X0226847Y0429000D02*
D03*
X0220153D02*
D03*
X0272847Y0638500D02*
D03*
X0266154D02*
D03*
X0262653Y0688000D02*
D03*
X0269346D02*
D03*
D19*
X0384653Y0520000D02*
D03*
X0391347D02*
D03*
X0277346Y0544000D02*
D03*
X0270654D02*
D03*
X0271153Y0530500D02*
D03*
X0277847D02*
D03*
X0273346Y0631000D02*
D03*
X0266653D02*
D03*
X0394346Y0537000D02*
D03*
X0387653D02*
D03*
X0273346Y0623000D02*
D03*
X0266653D02*
D03*
X0438346Y0674000D02*
D03*
X0431653D02*
D03*
X0315653Y0373000D02*
D03*
X0322346D02*
D03*
X0289653D02*
D03*
X0296346D02*
D03*
D20*
X0412500Y0508847D02*
D03*
Y0502153D02*
D03*
D21*
X0392000Y0334347D02*
D03*
Y0327654D02*
D03*
X0305000Y0372847D02*
D03*
Y0366154D02*
D03*
X0252000Y0394346D02*
D03*
Y0387653D02*
D03*
X0246000D02*
D03*
Y0394346D02*
D03*
X0240000D02*
D03*
Y0387653D02*
D03*
X0340000Y0729347D02*
D03*
Y0722653D02*
D03*
Y0710653D02*
D03*
Y0717346D02*
D03*
X0332000Y0447346D02*
D03*
Y0440654D02*
D03*
X0347000Y0431347D02*
D03*
Y0424653D02*
D03*
D22*
X0406000Y0475000D02*
D03*
X0367000Y0531000D02*
D03*
X0355000Y0530000D02*
D03*
X0363000Y0655000D02*
D03*
X0312000Y0706000D02*
D03*
X0279000Y0697000D02*
D03*
X0400000Y0475000D02*
D03*
Y0481000D02*
D03*
X0406000D02*
D03*
X0431500Y0668500D02*
D03*
X0443000Y0436000D02*
D03*
Y0399500D02*
D03*
X0438500Y0397500D02*
D03*
X0429095Y0368094D02*
D03*
X0410000Y0553000D02*
D03*
X0383000Y0531000D02*
D03*
X0356575Y0549925D02*
D03*
X0434150Y0513150D02*
D03*
X0220000Y0446500D02*
D03*
X0274500Y0503000D02*
D03*
X0255500Y0660000D02*
D03*
X0270500D02*
D03*
X0294000Y0706000D02*
D03*
X0177000Y0591000D02*
D03*
X0327362Y0695638D02*
D03*
X0322638Y0700362D02*
D03*
X0323000Y0713000D02*
D03*
X0327362Y0700362D02*
D03*
X0441000Y0484000D02*
D03*
X0364000Y0618000D02*
D03*
X0447000Y0468000D02*
D03*
X0327000Y0420000D02*
D03*
X0266500Y0535000D02*
D03*
X0228100Y0579500D02*
D03*
X0256000Y0585000D02*
D03*
X0257500Y0558500D02*
D03*
X0264500Y0581000D02*
D03*
X0266500Y0565500D02*
D03*
X0296000Y0571500D02*
D03*
X0228352Y0595248D02*
D03*
X0183000Y0602000D02*
D03*
X0228246Y0614146D02*
D03*
X0252500Y0600000D02*
D03*
X0183500Y0623500D02*
D03*
X0228100Y0620500D02*
D03*
X0197000Y0727000D02*
D03*
X0233000Y0708000D02*
D03*
X0261000Y0631000D02*
D03*
Y0623000D02*
D03*
X0258000Y0697000D02*
D03*
Y0703000D02*
D03*
Y0709000D02*
D03*
X0264500Y0585500D02*
D03*
X0271500Y0615500D02*
D03*
X0295327Y0594827D02*
D03*
X0297000Y0613000D02*
D03*
X0309000Y0618000D02*
D03*
X0302500Y0644500D02*
D03*
X0298000Y0694000D02*
D03*
X0306000Y0715000D02*
D03*
X0321000Y0617500D02*
D03*
X0356575Y0617075D02*
D03*
X0319000Y0641500D02*
D03*
X0327000Y0646000D02*
D03*
X0336500Y0646500D02*
D03*
X0408150Y0716850D02*
D03*
X0375000Y0456000D02*
D03*
X0242500Y0338500D02*
D03*
X0238000Y0377000D02*
D03*
X0221000Y0407000D02*
D03*
Y0421000D02*
D03*
X0366000Y0636500D02*
D03*
X0365000Y0559000D02*
D03*
X0326000Y0366000D02*
D03*
X0270000Y0425000D02*
D03*
X0285000Y0366000D02*
D03*
X0343500Y0520500D02*
D03*
X0365000Y0595000D02*
D03*
X0398000Y0609000D02*
D03*
X0396500Y0585000D02*
D03*
Y0580500D02*
D03*
Y0570000D02*
D03*
X0398000Y0556500D02*
D03*
X0401000Y0537000D02*
D03*
X0379000Y0542000D02*
D03*
X0362000Y0587000D02*
D03*
X0326000Y0520000D02*
D03*
X0305000Y0519500D02*
D03*
X0278000Y0525500D02*
D03*
X0179000Y0596000D02*
D03*
X0183000Y0574000D02*
D03*
X0297000Y0577000D02*
D03*
X0379000Y0549000D02*
D03*
X0398000Y0520000D02*
D03*
X0316500Y0551500D02*
D03*
X0266500Y0555000D02*
D03*
X0276500Y0608000D02*
D03*
X0206500Y0528000D02*
D03*
X0246500Y0581000D02*
D03*
X0347000Y0405500D02*
D03*
X0326016Y0410984D02*
D03*
X0324500Y0424500D02*
D03*
X0301500Y0425000D02*
D03*
X0278500Y0385500D02*
D03*
X0279000Y0358000D02*
D03*
X0332000D02*
D03*
X0305000Y0361000D02*
D03*
X0345000Y0384000D02*
D03*
X0314953Y0394953D02*
D03*
X0328000Y0372000D02*
D03*
X0331500Y0552000D02*
D03*
X0194500Y0628500D02*
D03*
X0385000Y0340000D02*
D03*
X0392000Y0339000D02*
D03*
X0374000Y0383000D02*
D03*
X0350500Y0357000D02*
D03*
X0404000Y0341000D02*
D03*
X0271000Y0434500D02*
D03*
X0297000Y0411000D02*
D03*
X0345000Y0378000D02*
D03*
X0370000Y0312000D02*
D03*
X0299000Y0395000D02*
D03*
X0305110Y0394110D02*
D03*
X0323000Y0395000D02*
D03*
X0340000Y0697000D02*
D03*
X0286500Y0446500D02*
D03*
X0183000Y0616500D02*
D03*
X0201500Y0528000D02*
D03*
X0228000Y0525000D02*
D03*
X0185000Y0350000D02*
D03*
X0442000D02*
D03*
X0441000Y0716000D02*
D03*
X0250000Y0750000D02*
D03*
X0300000D02*
D03*
X0400000D02*
D03*
X0279000Y0631000D02*
D03*
X0200000Y0500000D02*
D03*
X0201000Y0450000D02*
D03*
X0202000Y0400000D02*
D03*
X0400500Y0375000D02*
D03*
X0409500Y0412000D02*
D03*
X0319000Y0452000D02*
D03*
X0322638Y0695638D02*
D03*
X0305500Y0727000D02*
D03*
X0400000Y0468000D02*
D03*
X0205000Y0583000D02*
D03*
X0284000Y0373000D02*
D03*
X0368000Y0383000D02*
D03*
X0352000Y0405500D02*
D03*
X0322000Y0727000D02*
D03*
X0406000Y0488000D02*
D03*
X0273500Y0589500D02*
D03*
X0309500Y0644500D02*
D03*
X0319000Y0636500D02*
D03*
X0322500Y0646000D02*
D03*
X0343500Y0641500D02*
D03*
X0302500Y0640000D02*
D03*
X0309500D02*
D03*
X0343500Y0646500D02*
D03*
X0366000Y0641500D02*
D03*
X0374000D02*
D03*
Y0636500D02*
D03*
X0246000Y0600000D02*
D03*
X0276500Y0615500D02*
D03*
X0271500Y0608000D02*
D03*
X0251500Y0581000D02*
D03*
X0261500Y0555000D02*
D03*
X0277500Y0538500D02*
D03*
X0265000Y0544000D02*
D03*
X0270500Y0538500D02*
D03*
X0305000Y0526000D02*
D03*
X0297000D02*
D03*
Y0519500D02*
D03*
X0322000Y0529000D02*
D03*
X0347500Y0525000D02*
D03*
Y0530000D02*
D03*
X0388500Y0553000D02*
D03*
X0393500D02*
D03*
X0387500Y0574000D02*
D03*
X0392500D02*
D03*
X0387500Y0589000D02*
D03*
Y0613000D02*
D03*
X0392500D02*
D03*
X0431500Y0679500D02*
D03*
X0438500Y0668000D02*
D03*
Y0679500D02*
D03*
X0295500Y0450500D02*
D03*
X0280500Y0429000D02*
D03*
X0336000Y0641500D02*
D03*
X0420500Y0503500D02*
D03*
Y0499000D02*
D03*
X0420000Y0509000D02*
D03*
X0391500Y0526500D02*
D03*
X0388500Y0357000D02*
D03*
X0374500Y0356500D02*
D03*
X0363500Y0357000D02*
D03*
Y0366000D02*
D03*
X0374500Y0366500D02*
D03*
D23*
X0281701Y0674000D02*
D03*
X0244299D02*
D03*
D24*
X0385039Y0333835D02*
D03*
Y0328323D02*
D03*
D25*
X0251323Y0499961D02*
D03*
X0256835D02*
D03*
Y0512461D02*
D03*
X0251323D02*
D03*
Y0524961D02*
D03*
X0256835D02*
D03*
D26*
X0243850Y0660000D02*
D03*
X0250150D02*
D03*
X0249150Y0377000D02*
D03*
X0242850D02*
D03*
X0282150Y0660000D02*
D03*
X0275850D02*
D03*
X0310850Y0715000D02*
D03*
X0317150D02*
D03*
X0269150Y0709000D02*
D03*
X0262850D02*
D03*
X0245850Y0604500D02*
D03*
X0252150D02*
D03*
X0374150Y0378000D02*
D03*
X0367850D02*
D03*
X0310850Y0727000D02*
D03*
X0317150D02*
D03*
X0302850Y0694000D02*
D03*
X0309150D02*
D03*
X0249150Y0333000D02*
D03*
X0242850D02*
D03*
D27*
X0356725Y0366100D02*
D03*
Y0357000D02*
D03*
Y0347900D02*
D03*
D28*
X0381275Y0357000D02*
D03*
D29*
X0234844Y0538555D02*
D03*
Y0541705D02*
D03*
Y0544854D02*
D03*
Y0548004D02*
D03*
Y0551154D02*
D03*
Y0554303D02*
D03*
Y0557453D02*
D03*
Y0560602D02*
D03*
Y0563752D02*
D03*
Y0566902D02*
D03*
Y0570051D02*
D03*
Y0573201D02*
D03*
Y0576350D02*
D03*
Y0579500D02*
D03*
Y0582650D02*
D03*
Y0585799D02*
D03*
Y0588949D02*
D03*
Y0592098D02*
D03*
Y0595248D02*
D03*
Y0598398D02*
D03*
Y0601547D02*
D03*
Y0604697D02*
D03*
Y0607846D02*
D03*
Y0610996D02*
D03*
Y0614146D02*
D03*
Y0617295D02*
D03*
Y0620445D02*
D03*
X0190356Y0538555D02*
D03*
Y0541705D02*
D03*
Y0544854D02*
D03*
Y0548004D02*
D03*
Y0551154D02*
D03*
Y0554303D02*
D03*
Y0557453D02*
D03*
Y0560602D02*
D03*
Y0563752D02*
D03*
Y0566902D02*
D03*
Y0570051D02*
D03*
Y0573201D02*
D03*
Y0576350D02*
D03*
Y0579500D02*
D03*
Y0582650D02*
D03*
Y0585799D02*
D03*
Y0588949D02*
D03*
Y0592098D02*
D03*
Y0595248D02*
D03*
Y0598398D02*
D03*
Y0601547D02*
D03*
Y0604697D02*
D03*
Y0607846D02*
D03*
Y0610996D02*
D03*
Y0614146D02*
D03*
Y0617295D02*
D03*
Y0620445D02*
D03*
D30*
X0404724Y0503260D02*
D03*
Y0507000D02*
D03*
Y0510740D02*
D03*
X0395276D02*
D03*
Y0503260D02*
D03*
D31*
X0284291Y0358000D02*
D03*
X0295709D02*
D03*
X0326709D02*
D03*
X0315291D02*
D03*
X0357291Y0332000D02*
D03*
X0368709D02*
D03*
D32*
X0357291Y0321000D02*
D03*
X0368709D02*
D03*
D33*
X0263000Y0371299D02*
D03*
Y0333898D02*
D03*
D34*
X0295551Y0625535D02*
D03*
X0297520D02*
D03*
X0299488D02*
D03*
X0301457D02*
D03*
X0303425D02*
D03*
X0305394D02*
D03*
X0307362D02*
D03*
X0309331D02*
D03*
X0311299D02*
D03*
X0313268D02*
D03*
X0315236D02*
D03*
X0317205D02*
D03*
X0319173D02*
D03*
X0321142D02*
D03*
X0323110D02*
D03*
X0325079D02*
D03*
X0327047D02*
D03*
X0329016D02*
D03*
X0330984D02*
D03*
X0332953D02*
D03*
X0334921D02*
D03*
X0336890D02*
D03*
X0338858D02*
D03*
X0340827D02*
D03*
X0342795D02*
D03*
X0344764D02*
D03*
X0346732D02*
D03*
X0348701D02*
D03*
X0350669D02*
D03*
X0352638D02*
D03*
X0354606D02*
D03*
X0356575D02*
D03*
X0358543D02*
D03*
X0360512D02*
D03*
X0362480D02*
D03*
X0364449D02*
D03*
Y0542465D02*
D03*
X0362480D02*
D03*
X0360512D02*
D03*
X0358543D02*
D03*
X0356575D02*
D03*
X0354606D02*
D03*
X0352638D02*
D03*
X0350669D02*
D03*
X0348701D02*
D03*
X0346732D02*
D03*
X0344764D02*
D03*
X0342795D02*
D03*
X0340827D02*
D03*
X0338858D02*
D03*
X0336890D02*
D03*
X0334921D02*
D03*
X0332953D02*
D03*
X0330984D02*
D03*
X0329016D02*
D03*
X0327047D02*
D03*
X0325079D02*
D03*
X0323110D02*
D03*
X0321142D02*
D03*
X0319173D02*
D03*
X0317205D02*
D03*
X0315236D02*
D03*
X0313268D02*
D03*
X0311299D02*
D03*
X0309331D02*
D03*
X0307362D02*
D03*
X0305394D02*
D03*
X0303425D02*
D03*
X0301457D02*
D03*
X0299488D02*
D03*
X0297520D02*
D03*
X0295551D02*
D03*
D35*
X0371535Y0618449D02*
D03*
Y0616480D02*
D03*
Y0614512D02*
D03*
Y0612543D02*
D03*
Y0610575D02*
D03*
Y0608606D02*
D03*
Y0606638D02*
D03*
Y0604669D02*
D03*
Y0602701D02*
D03*
Y0600732D02*
D03*
Y0598764D02*
D03*
Y0596795D02*
D03*
Y0594827D02*
D03*
Y0592858D02*
D03*
Y0590890D02*
D03*
Y0588921D02*
D03*
Y0586953D02*
D03*
Y0584984D02*
D03*
Y0583016D02*
D03*
Y0581047D02*
D03*
Y0579079D02*
D03*
Y0577110D02*
D03*
Y0575142D02*
D03*
Y0573173D02*
D03*
Y0571205D02*
D03*
Y0569236D02*
D03*
Y0567268D02*
D03*
Y0565299D02*
D03*
Y0563331D02*
D03*
Y0561362D02*
D03*
Y0559394D02*
D03*
Y0557425D02*
D03*
Y0555457D02*
D03*
Y0553488D02*
D03*
Y0551520D02*
D03*
Y0549551D02*
D03*
X0288465D02*
D03*
Y0551520D02*
D03*
Y0553488D02*
D03*
Y0555457D02*
D03*
Y0557425D02*
D03*
Y0559394D02*
D03*
Y0561362D02*
D03*
Y0563331D02*
D03*
Y0565299D02*
D03*
Y0567268D02*
D03*
Y0569236D02*
D03*
Y0571205D02*
D03*
Y0573173D02*
D03*
Y0575142D02*
D03*
Y0577110D02*
D03*
Y0579079D02*
D03*
Y0581047D02*
D03*
Y0583016D02*
D03*
Y0584984D02*
D03*
Y0586953D02*
D03*
Y0588921D02*
D03*
Y0590890D02*
D03*
Y0592858D02*
D03*
Y0594827D02*
D03*
Y0596795D02*
D03*
Y0598764D02*
D03*
Y0600732D02*
D03*
Y0602701D02*
D03*
Y0604669D02*
D03*
Y0606638D02*
D03*
Y0608606D02*
D03*
Y0610575D02*
D03*
Y0612543D02*
D03*
Y0614512D02*
D03*
Y0616480D02*
D03*
Y0618449D02*
D03*
D36*
X0183000Y0578850D02*
D03*
Y0585150D02*
D03*
X0399000Y0347150D02*
D03*
Y0340850D02*
D03*
D37*
X0185000Y0338000D02*
D03*
Y0727000D02*
D03*
X0442000Y0337000D02*
D03*
X0441000Y0728000D02*
D03*
D38*
X0325000Y0698000D02*
D03*
D39*
X0316240Y0693079D02*
D03*
Y0695047D02*
D03*
Y0697016D02*
D03*
Y0698984D02*
D03*
Y0700953D02*
D03*
Y0702921D02*
D03*
X0333760D02*
D03*
Y0700953D02*
D03*
Y0698984D02*
D03*
Y0697016D02*
D03*
Y0695047D02*
D03*
Y0693079D02*
D03*
D40*
X0320079Y0706760D02*
D03*
X0322047D02*
D03*
X0324016D02*
D03*
X0325984D02*
D03*
X0327953D02*
D03*
X0329921D02*
D03*
Y0689240D02*
D03*
X0327953D02*
D03*
X0325984D02*
D03*
X0324016D02*
D03*
X0322047D02*
D03*
X0320079D02*
D03*
D41*
X0297236Y0388051D02*
D03*
X0299205D02*
D03*
X0301173D02*
D03*
X0303142D02*
D03*
X0305110D02*
D03*
X0307079D02*
D03*
X0309047D02*
D03*
X0311016D02*
D03*
X0312984D02*
D03*
X0314953D02*
D03*
X0316921D02*
D03*
X0318890D02*
D03*
X0320858D02*
D03*
X0322827D02*
D03*
X0324795D02*
D03*
X0326764D02*
D03*
Y0431949D02*
D03*
X0324795D02*
D03*
X0322827D02*
D03*
X0320858D02*
D03*
X0318890D02*
D03*
X0316921D02*
D03*
X0314953D02*
D03*
X0312984D02*
D03*
X0311016D02*
D03*
X0309047D02*
D03*
X0307079D02*
D03*
X0305110D02*
D03*
X0303142D02*
D03*
X0301173D02*
D03*
X0299205D02*
D03*
X0297236D02*
D03*
D42*
X0333949Y0395236D02*
D03*
Y0397205D02*
D03*
Y0399173D02*
D03*
Y0401142D02*
D03*
Y0403110D02*
D03*
Y0405079D02*
D03*
Y0407047D02*
D03*
Y0409016D02*
D03*
Y0410984D02*
D03*
Y0412953D02*
D03*
Y0414921D02*
D03*
Y0416890D02*
D03*
Y0418858D02*
D03*
Y0420827D02*
D03*
Y0422795D02*
D03*
Y0424764D02*
D03*
X0290051D02*
D03*
Y0422795D02*
D03*
Y0420827D02*
D03*
Y0418858D02*
D03*
Y0416890D02*
D03*
Y0414921D02*
D03*
Y0412953D02*
D03*
Y0410984D02*
D03*
Y0409016D02*
D03*
Y0407047D02*
D03*
Y0405079D02*
D03*
Y0403110D02*
D03*
Y0401142D02*
D03*
Y0399173D02*
D03*
Y0397205D02*
D03*
Y0395236D02*
D03*
D43*
X0254842Y0401500D02*
D03*
Y0406500D02*
D03*
Y0411500D02*
D03*
Y0416500D02*
D03*
X0235157Y0401500D02*
D03*
Y0406500D02*
D03*
Y0411500D02*
D03*
Y0416500D02*
D03*
D44*
X0375000Y0520701D02*
D03*
Y0533299D02*
D03*
D45*
X0327000Y0641362D02*
D03*
Y0636638D02*
D03*
X0322500Y0641362D02*
D03*
Y0636638D02*
D03*
X0343500Y0525138D02*
D03*
Y0529862D02*
D03*
X0301000Y0521138D02*
D03*
Y0525862D02*
D03*
X0326000Y0524138D02*
D03*
Y0528862D02*
D03*
X0306000Y0644362D02*
D03*
Y0639638D02*
D03*
X0183000Y0607638D02*
D03*
Y0612362D02*
D03*
Y0591638D02*
D03*
Y0596362D02*
D03*
X0233000Y0714638D02*
D03*
Y0719362D02*
D03*
X0414000Y0717638D02*
D03*
Y0722362D02*
D03*
X0370000Y0641362D02*
D03*
Y0636638D02*
D03*
X0319000Y0446362D02*
D03*
Y0441638D02*
D03*
X0221000Y0416362D02*
D03*
Y0411638D02*
D03*
X0340000Y0646362D02*
D03*
Y0641638D02*
D03*
D46*
X0268638Y0581000D02*
D03*
X0273362D02*
D03*
X0270638Y0565500D02*
D03*
X0275362D02*
D03*
X0184238Y0628500D02*
D03*
X0188962D02*
D03*
X0433362Y0520000D02*
D03*
X0428638D02*
D03*
X0392362Y0609000D02*
D03*
X0387638D02*
D03*
X0251362Y0585000D02*
D03*
X0246638D02*
D03*
X0392362Y0580500D02*
D03*
X0387638D02*
D03*
X0440362Y0478000D02*
D03*
X0435638D02*
D03*
X0268638Y0585500D02*
D03*
X0273362D02*
D03*
X0261638Y0559000D02*
D03*
X0266362D02*
D03*
X0392362Y0585000D02*
D03*
X0387638D02*
D03*
X0284638Y0385500D02*
D03*
X0289362D02*
D03*
X0206462Y0532000D02*
D03*
X0201738D02*
D03*
X0271638Y0612000D02*
D03*
X0276362D02*
D03*
X0263638Y0703000D02*
D03*
X0268362D02*
D03*
X0393362Y0557000D02*
D03*
X0388638D02*
D03*
X0364362Y0689500D02*
D03*
X0359638D02*
D03*
X0268362Y0697000D02*
D03*
X0263638D02*
D03*
X0364362Y0312000D02*
D03*
X0359638D02*
D03*
X0290638Y0366000D02*
D03*
X0295362D02*
D03*
X0392362Y0570000D02*
D03*
X0387638D02*
D03*
X0320362Y0366000D02*
D03*
X0315638D02*
D03*
X0339362Y0378000D02*
D03*
X0334638D02*
D03*
X0275638Y0434500D02*
D03*
X0280362D02*
D03*
X0351862Y0401500D02*
D03*
X0347138D02*
D03*
X0290638Y0446500D02*
D03*
X0295362D02*
D03*
X0275638Y0425000D02*
D03*
X0280362D02*
D03*
D88*
X0269150Y0703000D02*
Y0709000D01*
X0408150Y0716850D02*
X0414000D01*
X0366000Y0641500D02*
X0374000D01*
X0336500Y0646500D02*
X0343500D01*
X0434150Y0513150D02*
Y0520000D01*
X0441150Y0478000D02*
Y0489882D01*
X0321150Y0372000D02*
X0327000D01*
X0302500Y0644500D02*
X0309500D01*
X0271500Y0608000D02*
Y0615500D01*
X0183450Y0622650D02*
Y0628500D01*
X0183000Y0585799D02*
X0190356D01*
X0177000Y0590850D02*
X0183000D01*
X0297000Y0519500D02*
X0305000D01*
X0409500Y0552500D02*
X0410500D01*
X0273346Y0623635D02*
X0290865D01*
X0366000Y0636500D02*
X0374000D01*
X0340000Y0641500D02*
X0343500D01*
X0336000D02*
X0340000D01*
X0302500Y0640000D02*
X0309500D01*
X0276500Y0608000D02*
Y0615500D01*
X0183000Y0597150D02*
X0184902Y0595248D01*
X0297000Y0526000D02*
X0301000D01*
X0305000D01*
X0221000Y0410850D02*
X0221650Y0411500D01*
X0290865Y0623635D02*
X0316250Y0598250D01*
X0443000Y0428905D02*
Y0436000D01*
X0429095Y0368094D02*
X0443000D01*
X0421000Y0542000D02*
X0426000D01*
X0410500Y0552500D02*
X0421000Y0542000D01*
X0426000Y0521850D02*
Y0532000D01*
Y0521850D02*
X0427850Y0520000D01*
X0434850Y0479000D02*
Y0488150D01*
X0433000Y0490000D02*
X0434850Y0488150D01*
X0342000Y0572000D02*
X0374500Y0539500D01*
X0322000Y0552000D02*
X0342000Y0572000D01*
X0308701Y0565299D02*
Y0569799D01*
X0295500Y0583000D02*
X0308701Y0569799D01*
X0295500Y0583000D02*
X0301000D01*
X0242500Y0338500D02*
X0242850Y0338150D01*
Y0333000D02*
Y0338150D01*
X0227500Y0411500D02*
X0233469D01*
X0221650D02*
X0227500D01*
Y0404000D02*
Y0411500D01*
Y0404000D02*
X0230000Y0401500D01*
X0235157D01*
X0301000Y0583000D02*
X0316250Y0598250D01*
X0306000Y0715000D02*
X0310850D01*
X0298000Y0694000D02*
X0302850D01*
X0316518Y0598518D02*
X0329000Y0611000D01*
Y0618000D01*
X0185000Y0727000D02*
X0197000D01*
X0233000Y0726150D02*
X0245299Y0738449D01*
X0233000Y0720150D02*
Y0726150D01*
X0183000Y0602000D02*
Y0604697D01*
Y0606850D01*
X0228352Y0595248D02*
X0234844D01*
X0228246Y0614146D02*
X0234844D01*
X0228100Y0620500D02*
X0234844Y0620445D01*
X0233000Y0708000D02*
Y0713850D01*
X0261000Y0623000D02*
X0266063D01*
X0240000Y0387653D02*
X0246000D01*
X0184000Y0579500D02*
X0190356D01*
X0184902Y0595248D02*
X0190356D01*
X0183996Y0614146D02*
X0190356D01*
X0287299Y0326551D02*
Y0337299D01*
X0246000Y0387653D02*
X0252000D01*
X0235157Y0390843D02*
X0238347Y0387653D01*
X0235157Y0390843D02*
Y0401500D01*
X0221650Y0416500D02*
X0235157D01*
X0321150Y0366000D02*
X0326000D01*
X0319000Y0447150D02*
Y0452000D01*
X0270000Y0425000D02*
X0274850D01*
X0285000Y0366000D02*
X0289850D01*
X0221600Y0532000D02*
X0228155Y0538555D01*
X0393150Y0609000D02*
X0398000D01*
X0295701Y0565299D02*
X0308701D01*
X0322000Y0552000D01*
X0342000Y0572000D02*
X0349500Y0579500D01*
X0363000D01*
X0383000Y0502669D02*
X0383591Y0503260D01*
X0207250Y0532000D02*
X0221600D01*
X0228155Y0538555D02*
X0234844D01*
X0190450Y0532000D02*
X0200950D01*
X0190450D02*
Y0538461D01*
X0190356Y0620445D02*
Y0627894D01*
X0356725Y0347900D02*
X0357291Y0347334D01*
X0385039Y0333835D02*
Y0339961D01*
X0385000Y0340000D02*
X0385039Y0339961D01*
Y0328323D02*
X0391331D01*
X0392000Y0327654D01*
Y0334347D02*
Y0339000D01*
X0399000Y0340850D02*
X0403850D01*
X0404000Y0341000D01*
X0374150Y0378000D02*
X0381275Y0370875D01*
Y0357000D02*
Y0370875D01*
X0356725Y0366875D02*
X0367850Y0378000D01*
X0356725Y0366100D02*
Y0366875D01*
X0357291Y0313559D02*
X0358850Y0312000D01*
X0357291Y0313559D02*
Y0321000D01*
X0297000Y0411000D02*
X0297500Y0411500D01*
X0264079Y0719906D02*
X0269150Y0714835D01*
Y0709000D02*
Y0714835D01*
X0414000Y0723150D02*
Y0728394D01*
X0402866Y0739528D02*
X0414000Y0728394D01*
X0183000Y0613150D02*
X0183996Y0614146D01*
X0271654Y0572500D02*
X0278346D01*
X0368653Y0445000D02*
X0375346D01*
X0368653Y0439000D02*
X0375346D01*
X0368653Y0433000D02*
X0375346D01*
X0368653Y0427000D02*
X0375346D01*
X0238347Y0387653D02*
X0240000D01*
X0238000Y0377000D02*
X0242850D01*
X0185000Y0338000D02*
Y0350000D01*
X0442000Y0337000D02*
Y0350000D01*
X0441000Y0716000D02*
Y0728000D01*
X0287299Y0337299D02*
X0305000Y0355000D01*
Y0361000D01*
X0261000Y0631000D02*
X0266063D01*
X0273937D02*
X0279000D01*
X0365150Y0312000D02*
X0370000D01*
X0371000D01*
X0326709Y0358000D02*
X0332000D01*
X0279000D02*
X0284291D01*
X0289653Y0373000D02*
X0289850D01*
X0285000D02*
X0289653D01*
X0278500Y0385500D02*
X0283850D01*
X0404347Y0412000D02*
X0409500D01*
X0350500Y0357000D02*
X0356725D01*
X0340150Y0378000D02*
X0345000D01*
X0346000D01*
X0340347Y0384000D02*
X0345000D01*
X0189750Y0628500D02*
X0194500D01*
X0195100D01*
X0258000Y0709000D02*
X0262850D01*
X0258000Y0703000D02*
X0262850D01*
X0258000Y0697000D02*
X0262850D01*
X0305000Y0727000D02*
X0305500D01*
X0310850D01*
X0317150D02*
X0322000D01*
X0270500Y0660000D02*
X0275850D01*
X0250150D02*
X0255500D01*
X0266154Y0631500D02*
Y0638500D01*
Y0631500D02*
X0266653Y0631000D01*
X0406000Y0481000D02*
Y0488000D01*
X0379000Y0542000D02*
X0384000Y0537000D01*
X0387653D01*
X0394346D02*
X0401000D01*
X0374500Y0533799D02*
X0375000Y0533299D01*
X0374500Y0533799D02*
Y0539500D01*
X0375000Y0533299D02*
X0380701D01*
X0383000Y0531000D01*
Y0511331D02*
X0383591Y0510740D01*
X0367000Y0525299D02*
X0375000Y0533299D01*
X0367000Y0505000D02*
Y0525299D01*
Y0505000D02*
X0391000Y0481000D01*
X0400000D01*
X0182754Y0604697D02*
X0183000D01*
X0190356D01*
X0322362Y0641500D02*
X0322500Y0641362D01*
X0302000Y0644500D02*
X0302500D01*
X0309500D02*
X0310000D01*
X0309500Y0640000D02*
X0310000D01*
X0318500Y0641500D02*
X0319000D01*
X0322362D01*
X0318500Y0636500D02*
X0319000D01*
X0322362D01*
X0322500Y0641362D02*
Y0646000D01*
X0327000Y0642150D02*
Y0646000D01*
X0234844Y0604697D02*
X0243154D01*
X0245850Y0604500D02*
X0246000Y0604350D01*
X0246500Y0581000D02*
Y0584862D01*
X0246638Y0585000D01*
X0252150D02*
X0256000D01*
X0251500Y0581000D02*
Y0584862D01*
X0251362Y0585000D02*
X0251500Y0584862D01*
X0265000Y0581000D02*
X0268638D01*
X0268850D01*
X0264500Y0585500D02*
X0268638D01*
X0273362D02*
Y0589362D01*
X0273500Y0589500D01*
X0266500Y0565500D02*
X0270638D01*
X0271350D01*
X0266362Y0559000D02*
X0283500D01*
X0266500Y0555000D02*
Y0558862D01*
X0266362Y0559000D02*
X0266500Y0558862D01*
X0257500Y0558500D02*
X0258000Y0559000D01*
X0261638D01*
X0261500Y0555000D02*
Y0558862D01*
X0261638Y0559000D01*
X0277847Y0530500D02*
X0278000Y0530346D01*
X0277346Y0544000D02*
X0277500Y0543847D01*
X0271000Y0530500D02*
X0271153D01*
X0270500Y0543847D02*
X0270654Y0544000D01*
X0322000Y0529000D02*
X0325862D01*
X0326000Y0520000D02*
Y0524138D01*
X0343500Y0529862D02*
X0347362D01*
X0347500Y0530000D01*
X0343500Y0525138D02*
X0347362D01*
X0347500Y0525000D01*
X0343500Y0520500D02*
Y0525138D01*
X0388500Y0553000D02*
Y0556862D01*
X0393500Y0553000D02*
Y0556862D01*
X0393362Y0557000D02*
X0393500Y0556862D01*
X0393362Y0557000D02*
X0397500D01*
X0398000Y0556500D01*
X0394346Y0547500D02*
Y0552153D01*
X0393500Y0553000D02*
X0394346Y0552153D01*
X0387638Y0570000D02*
Y0573862D01*
X0387500Y0574000D02*
X0387638Y0573862D01*
X0392362Y0570000D02*
X0396500D01*
X0392500Y0570138D02*
Y0574000D01*
X0392362Y0570000D02*
X0392500Y0570138D01*
X0392362Y0580500D02*
X0396500D01*
X0392362Y0585000D02*
X0396500D01*
X0387500Y0585138D02*
Y0589000D01*
Y0585138D02*
X0387638Y0585000D01*
X0392500Y0609138D02*
Y0613000D01*
X0392362Y0609000D02*
X0392500Y0609138D01*
X0387638Y0609000D02*
Y0612862D01*
X0387500Y0613000D02*
X0387638Y0612862D01*
X0246000Y0599500D02*
Y0600000D01*
Y0604350D01*
X0252500Y0599500D02*
Y0600000D01*
Y0603850D01*
X0357000Y0690850D02*
Y0692138D01*
X0183000Y0612362D02*
Y0613150D01*
Y0616500D01*
X0347000Y0401638D02*
X0347138Y0401500D01*
X0347000Y0401638D02*
Y0405500D01*
X0351862Y0401500D02*
Y0405362D01*
X0352000Y0405500D01*
X0296150Y0446500D02*
X0300547D01*
X0309047Y0438000D01*
X0285787Y0446500D02*
X0286500D01*
X0290638D01*
X0295500Y0446638D02*
Y0450500D01*
X0295362Y0446500D02*
X0295500Y0446638D01*
X0221000Y0407000D02*
Y0410850D01*
Y0411638D01*
Y0416362D02*
Y0421000D01*
X0368000Y0378150D02*
Y0383000D01*
X0367850Y0378000D02*
X0368000Y0378150D01*
X0374000Y0378150D02*
Y0383000D01*
Y0378150D02*
X0374150Y0378000D01*
X0271000Y0434500D02*
X0275638D01*
X0280500Y0425138D02*
Y0429000D01*
X0280362Y0425000D02*
X0280500Y0425138D01*
X0443000Y0399500D02*
Y0407094D01*
X0438500Y0394406D02*
X0443000Y0389906D01*
X0438500Y0394406D02*
Y0397500D01*
X0434654Y0468000D02*
Y0478803D01*
X0429500Y0490000D02*
X0433000D01*
X0428500Y0491000D02*
X0429500Y0490000D01*
X0428500Y0491000D02*
Y0496500D01*
X0429480Y0497480D01*
X0433000D01*
D89*
X0438500Y0668000D02*
Y0679500D01*
X0412500Y0508847D02*
X0420346D01*
X0431500Y0668500D02*
Y0679500D01*
X0265000Y0544000D02*
X0270063D01*
X0400000Y0468000D02*
Y0475000D01*
X0391347Y0520000D02*
X0398000D01*
X0278000Y0525500D02*
Y0530346D01*
X0277500Y0538500D02*
Y0543847D01*
X0266500Y0535000D02*
X0271000Y0530500D01*
X0270500Y0538500D02*
Y0543847D01*
X0357000Y0692138D02*
X0359638Y0689500D01*
X0357000Y0692138D02*
Y0698500D01*
X0364362Y0689500D02*
Y0695862D01*
X0367000Y0698500D01*
X0201500Y0528000D02*
Y0531762D01*
X0206500Y0528000D02*
Y0531962D01*
X0183000Y0574000D02*
Y0578850D01*
X0179000Y0596000D02*
X0179362Y0596362D01*
X0183000D01*
X0295709Y0372362D02*
X0296346Y0373000D01*
X0315291Y0372638D02*
X0315653Y0373000D01*
X0406000Y0475000D02*
X0420000D01*
X0420500Y0475500D01*
X0404724Y0503260D02*
X0412106D01*
X0404724Y0507000D02*
X0410653D01*
X0412500Y0508847D01*
X0315291Y0358000D02*
Y0372638D01*
X0295709Y0358000D02*
Y0372362D01*
X0391500Y0520154D02*
Y0526500D01*
X0391347Y0520000D02*
X0391500Y0520154D01*
D90*
X0322750Y0394750D02*
X0324795Y0392705D01*
X0274850Y0422150D02*
Y0425000D01*
X0346744Y0401894D02*
X0346850Y0402000D01*
X0234653Y0500000D02*
Y0525000D01*
X0295488Y0614512D02*
X0297000Y0613000D01*
X0288465Y0614512D02*
X0295488D01*
X0365575Y0557425D02*
X0371535D01*
X0365000Y0558000D02*
X0365575Y0557425D01*
X0356575Y0542465D02*
Y0549925D01*
X0371535Y0608606D02*
X0386457D01*
X0220000Y0446500D02*
X0220153Y0441500D01*
X0220153Y0435500D02*
Y0441500D01*
Y0429000D02*
Y0435500D01*
X0220153Y0441500D02*
X0220153Y0441500D01*
X0322750Y0394750D02*
X0323000Y0395000D01*
X0321642Y0393642D02*
X0322750Y0394750D01*
X0283894Y0559394D02*
X0288465D01*
X0277346Y0544000D02*
X0286000D01*
X0288465Y0546465D01*
Y0549551D01*
X0321000Y0378000D02*
X0333850D01*
X0318890Y0380110D02*
X0321000Y0378000D01*
X0294000Y0706000D02*
X0299654D01*
X0441150Y0489882D02*
X0441268Y0490000D01*
X0364449Y0618449D02*
X0371535D01*
X0364000Y0618000D02*
X0364449Y0618449D01*
X0441347Y0468000D02*
X0447000D01*
X0328795Y0422795D02*
X0333949D01*
X0327000Y0421000D02*
X0328795Y0422795D01*
X0228100Y0579500D02*
X0234844D01*
X0288465Y0571205D02*
X0295705D01*
X0296000Y0571500D01*
X0288465Y0594827D02*
X0295327D01*
X0321000Y0617500D02*
X0323110Y0619610D01*
Y0625535D01*
X0356575Y0617075D02*
Y0625535D01*
X0288465Y0565299D02*
X0295701D01*
X0364547Y0581047D02*
X0371535D01*
X0309047Y0431949D02*
Y0438000D01*
X0283354Y0422795D02*
X0290051D01*
X0313268Y0625535D02*
Y0629732D01*
X0322827Y0426173D02*
Y0431949D01*
X0365173Y0594827D02*
X0371535D01*
X0365000Y0595000D02*
X0365173Y0594827D01*
X0331500Y0549000D02*
Y0552000D01*
X0362000Y0587000D02*
X0364016Y0584984D01*
X0371535D01*
X0386457Y0608606D02*
X0386850Y0609000D01*
X0228000Y0525000D02*
X0234653D01*
X0322000Y0550500D02*
X0325079Y0547421D01*
X0322000Y0550500D02*
Y0552000D01*
X0325079Y0542465D02*
Y0547421D01*
X0363000Y0579500D02*
X0364547Y0581047D01*
X0327047Y0619953D02*
X0329000Y0618000D01*
X0327000Y0635850D02*
X0327047Y0635803D01*
Y0625535D02*
Y0635803D01*
X0325079Y0625535D02*
Y0629921D01*
X0245051Y0585799D02*
X0245850Y0585000D01*
X0234844Y0585799D02*
X0245051D01*
X0243154Y0604697D02*
X0243850Y0604000D01*
X0288465Y0581047D02*
X0292953D01*
X0319173Y0542465D02*
Y0548827D01*
X0316500Y0551500D02*
X0319173Y0548827D01*
X0371520Y0583000D02*
X0371535Y0583016D01*
X0335858Y0617142D02*
X0338858D01*
X0332953Y0620047D02*
X0335858Y0617142D01*
X0332953Y0620047D02*
Y0625535D01*
X0326016Y0410984D02*
X0333949D01*
X0322827Y0426173D02*
X0324500Y0424500D01*
X0299205Y0427295D02*
X0301500Y0425000D01*
X0299205Y0427295D02*
Y0431949D01*
X0305000Y0361000D02*
Y0366154D01*
X0305110Y0388051D02*
Y0394110D01*
X0324795Y0388051D02*
Y0392705D01*
X0314953Y0388051D02*
Y0394953D01*
X0329016Y0542465D02*
Y0546516D01*
X0331500Y0549000D01*
X0190356Y0538555D02*
X0190450Y0538461D01*
X0189750Y0628500D02*
X0190356Y0627894D01*
X0276173Y0420827D02*
X0290051D01*
X0274850Y0422150D02*
X0276173Y0420827D01*
X0281150Y0425000D02*
X0283354Y0422795D01*
X0333949Y0401142D02*
X0345992D01*
X0320000Y0446150D02*
X0321850D01*
X0322827Y0431949D02*
Y0445173D01*
X0321850Y0446150D02*
X0322827Y0445173D01*
X0290051Y0410984D02*
X0296984D01*
X0297000Y0411000D01*
X0297236Y0388051D02*
Y0394236D01*
X0297953Y0394953D01*
X0290051Y0395236D02*
X0294764D01*
X0298000Y0398472D01*
X0320858Y0388051D02*
Y0393642D01*
X0321642D01*
X0298000Y0398472D02*
X0317528D01*
X0318890Y0397110D01*
X0316921Y0388051D02*
Y0392984D01*
X0314953Y0394953D02*
X0316921Y0392984D01*
X0318890Y0388051D02*
Y0397110D01*
X0290051Y0424764D02*
X0296236D01*
X0301000Y0420000D01*
X0318890D01*
Y0397110D02*
Y0420000D01*
Y0426000D01*
X0290051Y0385598D02*
Y0395236D01*
X0309000Y0618000D02*
X0311299Y0620299D01*
Y0625535D01*
X0338858D02*
Y0633358D01*
X0306000Y0637000D02*
Y0639638D01*
Y0637000D02*
X0313268Y0629732D01*
X0322362Y0636500D02*
X0322500Y0636638D01*
X0322362Y0632638D02*
X0325079Y0629921D01*
X0322362Y0632638D02*
Y0636500D01*
X0338858Y0633358D02*
X0340000Y0634500D01*
Y0641500D01*
Y0641638D01*
X0327047Y0619953D02*
Y0625535D01*
X0288465Y0583016D02*
X0294984D01*
X0276150Y0565299D02*
X0288465D01*
X0338858Y0617142D02*
Y0625535D01*
X0346732Y0534417D02*
Y0542465D01*
X0292953Y0581047D02*
X0297000Y0577000D01*
X0277500Y0612543D02*
X0288465D01*
X0273878Y0584984D02*
X0288465D01*
X0281484Y0581000D02*
X0283500Y0583016D01*
X0273362Y0581000D02*
X0281484D01*
X0283500Y0583016D02*
X0288465D01*
X0273362Y0585500D02*
X0273878Y0584984D01*
X0305394Y0533894D02*
Y0542465D01*
X0301000Y0529500D02*
X0305394Y0533894D01*
X0301000Y0525862D02*
Y0526000D01*
Y0529500D01*
X0325862Y0529000D02*
X0326000Y0528862D01*
Y0534453D02*
X0327047Y0535500D01*
X0326000Y0528862D02*
Y0534453D01*
X0327047Y0535500D02*
Y0542465D01*
X0343500Y0531185D02*
X0346732Y0534417D01*
X0343500Y0529862D02*
Y0531185D01*
X0371535Y0555457D02*
X0387094D01*
X0388500Y0556862D01*
X0388638Y0557000D01*
X0371535Y0583016D02*
X0378016D01*
X0386000Y0570000D02*
X0387638D01*
X0371535Y0575142D02*
X0380858D01*
X0386000Y0570000D01*
X0387090Y0581047D02*
X0387638Y0580500D01*
X0371535Y0581047D02*
X0387090D01*
X0378016Y0583016D02*
X0380000Y0585000D01*
X0386850D01*
X0312984Y0375669D02*
Y0388051D01*
Y0375669D02*
X0315653Y0373000D01*
X0290051Y0424764D02*
Y0424811D01*
X0280362Y0434500D02*
X0290051Y0424811D01*
D91*
X0291000Y0623000D02*
X0291861Y0622139D01*
X0273346Y0623000D02*
X0291000D01*
X0256500Y0731500D02*
X0284000Y0759000D01*
X0256500Y0724000D02*
Y0731500D01*
Y0724000D02*
X0260595Y0719906D01*
X0264079D01*
X0284000Y0759000D02*
X0318000D01*
X0368709Y0321000D02*
Y0332000D01*
X0357291D02*
Y0347334D01*
X0360638Y0759000D02*
X0390779Y0728858D01*
X0183000Y0585150D02*
Y0585799D01*
Y0590850D01*
X0328000Y0759000D02*
X0360638D01*
X0383000Y0511331D02*
X0384653Y0512984D01*
Y0520000D01*
X0375000Y0520701D02*
X0383953D01*
X0384653Y0520000D01*
X0355215Y0321000D02*
X0357291D01*
X0315921Y0345094D02*
X0331120D01*
X0355215Y0321000D01*
X0357475Y0347150D02*
X0399000D01*
X0420500Y0368650D01*
Y0475500D01*
Y0499000D01*
Y0503500D01*
X0412500Y0502153D02*
X0419153D01*
X0420500Y0503500D01*
X0383815Y0502500D02*
X0395500D01*
D92*
X0379830Y0610643D02*
X0393900Y0624713D01*
X0371535Y0610575D02*
X0379575D01*
X0347358Y0707000D02*
X0386313D01*
X0341653Y0709000D02*
X0395000D01*
X0386313Y0707000D02*
X0392000Y0701313D01*
Y0625500D02*
Y0701313D01*
X0393900Y0685400D02*
X0402000Y0693500D01*
X0393900Y0624713D02*
Y0685400D01*
X0379043Y0612543D02*
X0392000Y0625500D01*
X0395000Y0709000D02*
X0402000Y0702000D01*
Y0693500D02*
Y0702000D01*
X0371535Y0612543D02*
X0379043D01*
D93*
X0379643Y0610643D02*
X0379830D01*
X0379575Y0610575D02*
X0379643Y0610643D01*
X0346358Y0706000D02*
X0347358Y0707000D01*
X0340000Y0710653D02*
X0341653Y0709000D01*
D94*
X0383591Y0510740D02*
X0395276D01*
D95*
X0426000Y0652000D02*
D03*
D96*
X0436000D02*
D03*
X0426000Y0642000D02*
D03*
X0436000D02*
D03*
X0426000Y0632000D02*
D03*
X0436000D02*
D03*
X0426000Y0622000D02*
D03*
X0436000D02*
D03*
X0426000Y0612000D02*
D03*
X0436000D02*
D03*
X0426000Y0602000D02*
D03*
X0436000D02*
D03*
X0426000Y0592000D02*
D03*
X0436000D02*
D03*
X0426000Y0582000D02*
D03*
X0436000D02*
D03*
X0426000Y0572000D02*
D03*
X0436000D02*
D03*
X0426000Y0562000D02*
D03*
X0436000D02*
D03*
X0426000Y0552000D02*
D03*
X0436000D02*
D03*
X0426000Y0542000D02*
D03*
X0436000D02*
D03*
X0426000Y0532000D02*
D03*
X0436000D02*
D03*
X0367500Y0679000D02*
D03*
Y0669000D02*
D03*
X0357500Y0679000D02*
D03*
Y0669000D02*
D03*
X0347500Y0679000D02*
D03*
Y0669000D02*
D03*
X0337500Y0679000D02*
D03*
Y0669000D02*
D03*
X0327500Y0679000D02*
D03*
Y0669000D02*
D03*
X0317500Y0679000D02*
D03*
Y0669000D02*
D03*
X0307500Y0679000D02*
D03*
X0210000Y0469000D02*
D03*
Y0479000D02*
D03*
X0220000Y0469000D02*
D03*
Y0479000D02*
D03*
X0230000Y0469000D02*
D03*
Y0479000D02*
D03*
X0240000Y0469000D02*
D03*
Y0479000D02*
D03*
X0250000Y0469000D02*
D03*
Y0479000D02*
D03*
X0260000Y0469000D02*
D03*
Y0479000D02*
D03*
X0270000Y0469000D02*
D03*
Y0479000D02*
D03*
X0280000Y0469000D02*
D03*
Y0479000D02*
D03*
X0290000Y0469000D02*
D03*
Y0479000D02*
D03*
X0300000Y0469000D02*
D03*
Y0479000D02*
D03*
X0310000Y0469000D02*
D03*
Y0479000D02*
D03*
X0320000Y0469000D02*
D03*
Y0479000D02*
D03*
X0330000Y0469000D02*
D03*
Y0479000D02*
D03*
X0340000Y0469000D02*
D03*
Y0479000D02*
D03*
X0350000Y0469000D02*
D03*
Y0479000D02*
D03*
X0360000Y0469000D02*
D03*
Y0479000D02*
D03*
X0370000Y0469000D02*
D03*
X0377000Y0698500D02*
D03*
X0387000D02*
D03*
X0397000D02*
D03*
X0407000D02*
D03*
X0417000D02*
D03*
X0427000D02*
D03*
X0437000D02*
D03*
X0367000D02*
D03*
X0318000Y0759000D02*
D03*
D97*
X0409000Y0448000D02*
D03*
Y0422409D02*
D03*
X0391283Y0448000D02*
D03*
Y0422409D02*
D03*
D98*
X0307500Y0669000D02*
D03*
X0370000Y0479000D02*
D03*
X0357000Y0698500D02*
D03*
X0328000Y0759000D02*
D03*
D99*
X0287299Y0326551D02*
D03*
X0334701D02*
D03*
X0292701Y0738449D02*
D03*
X0245299D02*
D03*
X0351134Y0739528D02*
D03*
X0402866D02*
D03*
D100*
X0306079Y0337221D02*
D03*
X0315921D02*
D03*
X0306079Y0345094D02*
D03*
X0273921Y0727779D02*
D03*
X0264079D02*
D03*
X0273921Y0719906D02*
D03*
X0380937Y0728858D02*
D03*
X0363221Y0728858D02*
D03*
X0373063Y0728858D02*
D03*
D101*
X0315921Y0345094D02*
D03*
X0264079Y0719906D02*
D03*
D102*
X0199000Y0754000D02*
D03*
X0427098D02*
D03*
Y0311000D02*
D03*
X0199098D02*
D03*
D103*
X0390779Y0728858D02*
D03*
D104*
X0382000Y0663000D02*
D03*
X0386000Y0660000D02*
D03*
X0415000Y0433000D02*
D03*
X0332000Y0722000D02*
D03*
Y0716000D02*
D03*
X0238000Y0327000D02*
D03*
X0319800Y0521000D02*
D03*
X0335000Y0519000D02*
D03*
X0334000Y0525000D02*
D03*
X0374250Y0657000D02*
D03*
X0320000Y0512000D02*
D03*
X0306000Y0513000D02*
D03*
X0336000Y0503000D02*
D03*
X0288500Y0503500D02*
D03*
X0349000Y0503000D02*
D03*
X0342500Y0494500D02*
D03*
X0346000Y0491000D02*
D03*
X0325500D02*
D03*
X0284500Y0487500D02*
D03*
X0332000Y0535000D02*
D03*
X0228100Y0566000D02*
D03*
X0269000Y0525000D02*
D03*
X0264000D02*
D03*
X0257000Y0531000D02*
D03*
X0334000Y0530000D02*
D03*
X0407000Y0660000D02*
D03*
X0410000Y0652000D02*
D03*
X0358000Y0512000D02*
D03*
X0340000Y0509000D02*
D03*
X0363000Y0512000D02*
D03*
X0380000Y0473000D02*
D03*
X0302531Y0448900D02*
D03*
X0307000Y0452000D02*
D03*
X0312000Y0449000D02*
D03*
X0364000Y0445000D02*
D03*
Y0439000D02*
D03*
Y0433000D02*
D03*
Y0427000D02*
D03*
X0314000Y0454000D02*
D03*
X0415000Y0445000D02*
D03*
Y0439000D02*
D03*
Y0428000D02*
D03*
X0389000Y0646000D02*
D03*
X0346358Y0706000D02*
D03*
X0340000Y0736000D02*
D03*
X0232000Y0441500D02*
D03*
Y0435500D02*
D03*
Y0428500D02*
D03*
X0355000Y0530000D02*
D03*
X0367000Y0531000D02*
D03*
X0358500Y0495000D02*
D03*
X0288500Y0508000D02*
D03*
M02*
