G04*
G04 #@! TF.GenerationSoftware,Altium Limited,Altium Designer,20.0.13 (296)*
G04*
G04 Layer_Physical_Order=3*
G04 Layer_Color=32768*
%FSAX25Y25*%
%MOIN*%
G70*
G01*
G75*
%ADD46C,0.06000*%
%ADD104C,0.04000*%
%ADD106C,0.07937*%
%ADD107C,0.07543*%
G04:AMPARAMS|DCode=109|XSize=95.433mil|YSize=95.433mil|CornerRadius=0mil|HoleSize=0mil|Usage=FLASHONLY|Rotation=0.000|XOffset=0mil|YOffset=0mil|HoleType=Round|Shape=Relief|Width=10mil|Gap=10mil|Entries=4|*
%AMTHD109*
7,0,0,0.09543,0.07543,0.01000,45*
%
%ADD109THD109*%
%ADD110C,0.07622*%
%ADD112C,0.13055*%
%ADD113C,0.05181*%
%ADD114C,0.16598*%
G36*
X0216000Y0755100D02*
X0225897D01*
X0226000Y0754997D01*
Y0734000D01*
X0216000D01*
X0216000Y0755100D01*
D02*
G37*
G36*
Y0762902D02*
X0216000Y0762902D01*
Y0774000D01*
X0226000D01*
X0225897Y0773897D01*
Y0762902D01*
X0216000D01*
D02*
G37*
G36*
X0225873Y0755100D02*
X0217658D01*
Y0761819D01*
X0225873D01*
Y0755100D01*
D02*
G37*
%LPC*%
G36*
X0223873Y0759819D02*
X0222610D01*
X0222544Y0759815D01*
X0222479Y0759808D01*
X0222424Y0759797D01*
X0222373Y0759786D01*
X0222329Y0759775D01*
X0222297Y0759764D01*
X0222278Y0759757D01*
X0222271Y0759754D01*
X0222213Y0759728D01*
X0222158Y0759699D01*
X0222111Y0759670D01*
X0222067Y0759641D01*
X0222035Y0759612D01*
X0222009Y0759590D01*
X0221995Y0759575D01*
X0221987Y0759572D01*
X0221940Y0759524D01*
X0221900Y0759477D01*
X0221864Y0759430D01*
X0221834Y0759386D01*
X0221809Y0759346D01*
X0221791Y0759313D01*
X0221780Y0759291D01*
X0221776Y0759288D01*
Y0759284D01*
X0221747Y0759219D01*
X0221725Y0759153D01*
X0221703Y0759091D01*
X0221689Y0759029D01*
X0221678Y0758978D01*
X0221671Y0758938D01*
Y0758924D01*
X0221667Y0758913D01*
Y0758902D01*
X0221656D01*
X0221638Y0758967D01*
X0221616Y0759029D01*
X0221594Y0759084D01*
X0221572Y0759128D01*
X0221554Y0759167D01*
X0221540Y0759193D01*
X0221529Y0759211D01*
X0221525Y0759219D01*
X0221492Y0759269D01*
X0221456Y0759313D01*
X0221419Y0759353D01*
X0221387Y0759386D01*
X0221358Y0759411D01*
X0221336Y0759433D01*
X0221318Y0759444D01*
X0221314Y0759448D01*
X0221267Y0759481D01*
X0221216Y0759510D01*
X0221168Y0759531D01*
X0221121Y0759550D01*
X0221085Y0759568D01*
X0221052Y0759579D01*
X0221034Y0759583D01*
X0221026Y0759586D01*
X0220964Y0759601D01*
X0220906Y0759615D01*
X0220848Y0759622D01*
X0220793Y0759626D01*
X0220746Y0759630D01*
X0220713Y0759633D01*
X0220699D01*
X0220688D01*
X0220684D01*
X0220680D01*
X0220593Y0759630D01*
X0220513Y0759619D01*
X0220440Y0759608D01*
X0220375Y0759593D01*
X0220324Y0759575D01*
X0220284Y0759564D01*
X0220269Y0759557D01*
X0220258Y0759553D01*
X0220255Y0759550D01*
X0220251D01*
X0220182Y0759517D01*
X0220120Y0759481D01*
X0220065Y0759441D01*
X0220018Y0759401D01*
X0219982Y0759368D01*
X0219953Y0759339D01*
X0219938Y0759320D01*
X0219931Y0759317D01*
Y0759313D01*
X0219883Y0759251D01*
X0219843Y0759189D01*
X0219811Y0759124D01*
X0219781Y0759066D01*
X0219760Y0759011D01*
X0219741Y0758971D01*
X0219738Y0758953D01*
X0219734Y0758942D01*
X0219730Y0758935D01*
Y0758931D01*
X0219705Y0758844D01*
X0219687Y0758756D01*
X0219676Y0758669D01*
X0219665Y0758585D01*
Y0758549D01*
X0219661Y0758516D01*
Y0758487D01*
X0219658Y0758461D01*
Y0757100D01*
Y0758327D01*
X0219665Y0758247D01*
X0219669Y0758177D01*
X0219676Y0758112D01*
X0219683Y0758061D01*
X0219690Y0758021D01*
X0219694Y0758006D01*
Y0757995D01*
X0219698Y0757992D01*
Y0757988D01*
X0219712Y0757919D01*
X0219730Y0757854D01*
X0219745Y0757795D01*
X0219763Y0757744D01*
X0219774Y0757704D01*
X0219785Y0757671D01*
X0219792Y0757653D01*
X0219796Y0757646D01*
X0219818Y0757595D01*
X0219836Y0757548D01*
X0219858Y0757504D01*
X0219876Y0757471D01*
X0219891Y0757442D01*
X0219902Y0757420D01*
X0219909Y0757406D01*
X0219913Y0757402D01*
X0219934Y0757369D01*
X0219953Y0757340D01*
X0219967Y0757318D01*
X0219978Y0757300D01*
X0219989Y0757286D01*
X0219996Y0757278D01*
X0220004Y0757271D01*
X0220025Y0757253D01*
X0220040Y0757238D01*
X0220054Y0757231D01*
X0220058Y0757227D01*
X0220080Y0757217D01*
X0220098Y0757209D01*
X0220113Y0757206D01*
X0220120Y0757202D01*
X0220145Y0757198D01*
X0220175Y0757195D01*
X0220196Y0757191D01*
X0220200D01*
X0220204D01*
X0220244D01*
X0220287D01*
X0220306D01*
X0220320D01*
X0220331D01*
X0220335D01*
X0220397D01*
X0220422D01*
X0220444Y0757195D01*
X0220462D01*
X0220477D01*
X0220484D01*
X0220488D01*
X0220528Y0757202D01*
X0220553Y0757206D01*
X0220571Y0757213D01*
X0220579D01*
X0220597Y0757224D01*
X0220608Y0757235D01*
X0220615Y0757242D01*
X0220619Y0757246D01*
X0220626Y0757260D01*
X0220630Y0757275D01*
Y0757289D01*
X0220626Y0757307D01*
X0220622Y0757326D01*
X0220604Y0757366D01*
X0220597Y0757380D01*
X0220589Y0757395D01*
X0220586Y0757406D01*
X0220582Y0757409D01*
X0220542Y0757475D01*
X0220524Y0757504D01*
X0220509Y0757537D01*
X0220495Y0757562D01*
X0220484Y0757584D01*
X0220477Y0757599D01*
X0220473Y0757602D01*
X0220433Y0757693D01*
X0220415Y0757737D01*
X0220397Y0757777D01*
X0220386Y0757810D01*
X0220375Y0757835D01*
X0220371Y0757854D01*
X0220368Y0757861D01*
X0220349Y0757915D01*
X0220338Y0757970D01*
X0220327Y0758025D01*
X0220324Y0758072D01*
X0220320Y0758112D01*
X0220317Y0758141D01*
Y0758221D01*
X0220324Y0758272D01*
X0220327Y0758312D01*
X0220335Y0758352D01*
X0220342Y0758381D01*
X0220349Y0758403D01*
X0220353Y0758418D01*
X0220357Y0758421D01*
X0220371Y0758458D01*
X0220389Y0758494D01*
X0220408Y0758523D01*
X0220426Y0758549D01*
X0220440Y0758567D01*
X0220455Y0758585D01*
X0220462Y0758592D01*
X0220466Y0758596D01*
X0220517Y0758640D01*
X0220571Y0758673D01*
X0220593Y0758683D01*
X0220611Y0758691D01*
X0220622Y0758698D01*
X0220626D01*
X0220695Y0758720D01*
X0220728Y0758727D01*
X0220757Y0758731D01*
X0220782Y0758734D01*
X0220804D01*
X0220819D01*
X0220823D01*
X0220873Y0758731D01*
X0220917Y0758727D01*
X0220961Y0758720D01*
X0220997Y0758709D01*
X0221026Y0758698D01*
X0221052Y0758691D01*
X0221066Y0758687D01*
X0221070Y0758683D01*
X0221110Y0758662D01*
X0221146Y0758640D01*
X0221179Y0758614D01*
X0221205Y0758589D01*
X0221227Y0758567D01*
X0221245Y0758549D01*
X0221256Y0758538D01*
X0221259Y0758534D01*
X0221285Y0758498D01*
X0221310Y0758458D01*
X0221332Y0758418D01*
X0221347Y0758381D01*
X0221361Y0758349D01*
X0221372Y0758323D01*
X0221376Y0758305D01*
X0221379Y0758298D01*
X0221394Y0758243D01*
X0221401Y0758188D01*
X0221409Y0758134D01*
X0221416Y0758086D01*
Y0758043D01*
X0221419Y0758006D01*
Y0757620D01*
X0221423Y0757595D01*
X0221427Y0757573D01*
X0221430Y0757559D01*
X0221434Y0757555D01*
X0221445Y0757537D01*
X0221460Y0757522D01*
X0221474Y0757515D01*
X0221478Y0757511D01*
X0221507Y0757500D01*
X0221536Y0757497D01*
X0221558Y0757489D01*
X0221565D01*
X0221569D01*
X0221616Y0757486D01*
X0221663Y0757482D01*
X0221685D01*
X0221703D01*
X0221714D01*
X0221718D01*
X0221754D01*
X0221783D01*
X0221813Y0757486D01*
X0221834D01*
X0221853D01*
X0221867Y0757489D01*
X0221874D01*
X0221878D01*
X0221918Y0757497D01*
X0221947Y0757504D01*
X0221965Y0757511D01*
X0221973Y0757515D01*
X0221995Y0757529D01*
X0222006Y0757544D01*
X0222013Y0757559D01*
X0222016Y0757562D01*
X0222024Y0757584D01*
X0222027Y0757610D01*
Y0757981D01*
X0222031Y0758061D01*
X0222035Y0758134D01*
X0222042Y0758199D01*
X0222049Y0758257D01*
X0222060Y0758305D01*
X0222067Y0758338D01*
X0222071Y0758359D01*
X0222075Y0758367D01*
X0222093Y0758425D01*
X0222111Y0758480D01*
X0222133Y0758527D01*
X0222151Y0758567D01*
X0222169Y0758596D01*
X0222184Y0758622D01*
X0222195Y0758636D01*
X0222198Y0758640D01*
X0222231Y0758680D01*
X0222264Y0758712D01*
X0222293Y0758738D01*
X0222326Y0758764D01*
X0222351Y0758782D01*
X0222373Y0758793D01*
X0222388Y0758800D01*
X0222391Y0758804D01*
X0222435Y0758822D01*
X0222479Y0758836D01*
X0222522Y0758847D01*
X0222562Y0758854D01*
X0222595Y0758858D01*
X0222621Y0758862D01*
X0222639D01*
X0222646D01*
X0222693Y0758858D01*
X0222737Y0758854D01*
X0222777Y0758847D01*
X0222810Y0758840D01*
X0222839Y0758829D01*
X0222861Y0758822D01*
X0222875Y0758818D01*
X0222879Y0758814D01*
X0222916Y0758796D01*
X0222952Y0758774D01*
X0222985Y0758749D01*
X0223010Y0758727D01*
X0223032Y0758709D01*
X0223046Y0758691D01*
X0223057Y0758680D01*
X0223061Y0758676D01*
X0223087Y0758640D01*
X0223108Y0758603D01*
X0223130Y0758563D01*
X0223145Y0758531D01*
X0223156Y0758498D01*
X0223167Y0758472D01*
X0223170Y0758458D01*
X0223174Y0758450D01*
X0223188Y0758399D01*
X0223196Y0758349D01*
X0223203Y0758298D01*
X0223210Y0758250D01*
Y0758210D01*
X0223214Y0758177D01*
Y0758148D01*
X0223210Y0758076D01*
X0223207Y0758006D01*
X0223199Y0757944D01*
X0223192Y0757890D01*
X0223185Y0757846D01*
X0223181Y0757813D01*
X0223174Y0757792D01*
Y0757784D01*
X0223156Y0757726D01*
X0223141Y0757671D01*
X0223127Y0757624D01*
X0223112Y0757584D01*
X0223101Y0757551D01*
X0223090Y0757526D01*
X0223087Y0757511D01*
X0223083Y0757504D01*
X0223065Y0757460D01*
X0223050Y0757424D01*
X0223032Y0757388D01*
X0223021Y0757362D01*
X0223007Y0757337D01*
X0222999Y0757322D01*
X0222996Y0757311D01*
X0222992Y0757307D01*
X0222977Y0757282D01*
X0222966Y0757257D01*
X0222959Y0757238D01*
X0222952Y0757224D01*
X0222948Y0757206D01*
Y0757198D01*
X0222952Y0757180D01*
X0222955Y0757165D01*
X0222977Y0757140D01*
X0222996Y0757126D01*
X0223003Y0757122D01*
X0223007D01*
X0223032Y0757115D01*
X0223065Y0757111D01*
X0223134Y0757104D01*
X0223167Y0757100D01*
X0219658D01*
X0223873D01*
X0223309D01*
X0223330Y0757104D01*
X0223349D01*
X0223363D01*
X0223371D01*
X0223374D01*
X0223418Y0757107D01*
X0223451Y0757111D01*
X0223472Y0757118D01*
X0223476D01*
X0223480D01*
X0223509Y0757126D01*
X0223531Y0757136D01*
X0223545Y0757140D01*
X0223552Y0757144D01*
X0223574Y0757155D01*
X0223592Y0757169D01*
X0223607Y0757180D01*
X0223611Y0757184D01*
X0223622Y0757198D01*
X0223629Y0757217D01*
X0223654Y0757257D01*
X0223665Y0757275D01*
X0223673Y0757289D01*
X0223676Y0757300D01*
X0223680Y0757304D01*
X0223698Y0757340D01*
X0223713Y0757380D01*
X0223731Y0757420D01*
X0223742Y0757457D01*
X0223753Y0757489D01*
X0223764Y0757515D01*
X0223767Y0757529D01*
X0223771Y0757537D01*
X0223785Y0757591D01*
X0223800Y0757646D01*
X0223811Y0757701D01*
X0223822Y0757748D01*
X0223829Y0757792D01*
X0223836Y0757828D01*
X0223840Y0757850D01*
Y0757857D01*
X0223858Y0757995D01*
X0223866Y0758065D01*
X0223869Y0758123D01*
Y0758174D01*
X0223873Y0758214D01*
Y0758257D01*
Y0758250D01*
X0223869Y0758374D01*
X0223862Y0758494D01*
X0223847Y0758600D01*
X0223840Y0758647D01*
X0223833Y0758694D01*
X0223826Y0758734D01*
X0223818Y0758771D01*
X0223811Y0758804D01*
X0223804Y0758829D01*
X0223800Y0758851D01*
X0223796Y0758865D01*
X0223793Y0758876D01*
Y0758880D01*
X0223756Y0758986D01*
X0223720Y0759080D01*
X0223680Y0759167D01*
X0223640Y0759240D01*
X0223622Y0759269D01*
X0223603Y0759299D01*
X0223589Y0759320D01*
X0223574Y0759342D01*
X0223563Y0759357D01*
X0223556Y0759368D01*
X0223549Y0759375D01*
Y0759379D01*
X0223487Y0759451D01*
X0223418Y0759517D01*
X0223352Y0759572D01*
X0223290Y0759619D01*
X0223236Y0759655D01*
X0223210Y0759670D01*
X0223192Y0759681D01*
X0223174Y0759692D01*
X0223163Y0759699D01*
X0223156Y0759703D01*
X0223152D01*
X0223061Y0759743D01*
X0222966Y0759772D01*
X0222875Y0759790D01*
X0222792Y0759804D01*
X0222755Y0759808D01*
X0222719Y0759812D01*
X0222686Y0759815D01*
X0222661Y0759819D01*
X0223873D01*
D02*
G37*
%LPD*%
D46*
X0323000Y0698000D02*
X0327000D01*
D104*
X0199000Y0779000D02*
G03*
X0174000Y0753902I0000000J-0025000D01*
G01*
X0452099Y0754000D02*
G03*
X0427000Y0779000I-0025000J0000000D01*
G01*
X0427098Y0286000D02*
G03*
X0452098Y0311098I0000000J0025000D01*
G01*
X0174098Y0311000D02*
G03*
X0199197Y0286000I0025000J0000000D01*
G01*
X0427098D01*
Y0286000D02*
Y0286000D01*
X0452000Y0311098D02*
X0452098D01*
X0452000D02*
Y0754000D01*
X0452099D01*
X0199000Y0779000D02*
X0427000D01*
X0199000D02*
Y0779000D01*
X0174000Y0311000D02*
Y0753902D01*
D106*
X0409000Y0448000D02*
D03*
Y0422409D02*
D03*
X0391283Y0448000D02*
D03*
Y0422409D02*
D03*
D107*
X0328000Y0759000D02*
D03*
X0318000D02*
D03*
X0307500Y0669000D02*
D03*
Y0679000D02*
D03*
X0317500Y0669000D02*
D03*
Y0679000D02*
D03*
X0327500Y0669000D02*
D03*
Y0679000D02*
D03*
X0337500Y0669000D02*
D03*
Y0679000D02*
D03*
X0347500Y0669000D02*
D03*
Y0679000D02*
D03*
X0357500Y0669000D02*
D03*
Y0679000D02*
D03*
X0367500Y0669000D02*
D03*
Y0679000D02*
D03*
X0367000Y0698500D02*
D03*
X0437000D02*
D03*
X0427000D02*
D03*
X0417000D02*
D03*
X0407000D02*
D03*
X0397000D02*
D03*
X0387000D02*
D03*
X0377000D02*
D03*
X0370000Y0479000D02*
D03*
Y0469000D02*
D03*
X0360000Y0479000D02*
D03*
Y0469000D02*
D03*
X0350000Y0479000D02*
D03*
Y0469000D02*
D03*
X0340000Y0479000D02*
D03*
Y0469000D02*
D03*
X0330000Y0479000D02*
D03*
Y0469000D02*
D03*
X0320000Y0479000D02*
D03*
Y0469000D02*
D03*
X0310000Y0479000D02*
D03*
Y0469000D02*
D03*
X0300000Y0479000D02*
D03*
Y0469000D02*
D03*
X0290000Y0479000D02*
D03*
Y0469000D02*
D03*
X0280000Y0479000D02*
D03*
Y0469000D02*
D03*
X0270000Y0479000D02*
D03*
Y0469000D02*
D03*
X0260000Y0479000D02*
D03*
Y0469000D02*
D03*
X0250000Y0479000D02*
D03*
Y0469000D02*
D03*
X0240000Y0479000D02*
D03*
Y0469000D02*
D03*
X0230000Y0479000D02*
D03*
Y0469000D02*
D03*
X0220000Y0479000D02*
D03*
Y0469000D02*
D03*
X0210000Y0479000D02*
D03*
Y0469000D02*
D03*
X0436000Y0542000D02*
D03*
X0426000D02*
D03*
X0436000Y0552000D02*
D03*
X0426000D02*
D03*
X0436000Y0562000D02*
D03*
X0426000D02*
D03*
X0436000Y0572000D02*
D03*
X0426000D02*
D03*
X0436000Y0582000D02*
D03*
X0426000D02*
D03*
X0436000Y0592000D02*
D03*
X0426000D02*
D03*
X0436000Y0602000D02*
D03*
X0426000D02*
D03*
X0436000Y0612000D02*
D03*
X0426000D02*
D03*
X0436000Y0622000D02*
D03*
X0426000D02*
D03*
X0436000Y0632000D02*
D03*
X0426000D02*
D03*
X0436000Y0642000D02*
D03*
X0426000D02*
D03*
X0436000Y0652000D02*
D03*
X0426000D02*
D03*
D109*
X0357000Y0698500D02*
D03*
X0436000Y0532000D02*
D03*
X0426000D02*
D03*
D110*
X0373063Y0728858D02*
D03*
X0363221Y0728858D02*
D03*
X0380937Y0728858D02*
D03*
X0390779D02*
D03*
X0315921Y0345094D02*
D03*
X0306079D02*
D03*
X0315921Y0337221D02*
D03*
X0306079D02*
D03*
X0273921Y0727779D02*
D03*
X0264079D02*
D03*
X0273921Y0719906D02*
D03*
X0264079D02*
D03*
D112*
X0402866Y0739528D02*
D03*
X0351134D02*
D03*
X0334701Y0326551D02*
D03*
X0287299D02*
D03*
X0292701Y0738449D02*
D03*
X0245299D02*
D03*
D113*
X0364272Y0557776D02*
D03*
X0363878Y0594882D02*
D03*
X0323228Y0395768D02*
D03*
X0314961Y0396063D02*
D03*
X0305413Y0395965D02*
D03*
X0301575Y0423917D02*
D03*
X0297638Y0395571D02*
D03*
X0296654Y0594882D02*
D03*
X0228248Y0595177D02*
D03*
X0407776Y0552559D02*
D03*
X0412945Y0428851D02*
D03*
X0410728Y0432382D02*
D03*
X0411243Y0437574D02*
D03*
X0411221Y0441081D02*
D03*
X0179724Y0628346D02*
D03*
X0296654Y0611811D02*
D03*
X0379000Y0549000D02*
D03*
X0355315Y0523622D02*
D03*
X0347400Y0525000D02*
D03*
X0348900Y0503000D02*
D03*
X0366142Y0531496D02*
D03*
X0294000Y0706000D02*
D03*
X0391732Y0470472D02*
D03*
X0397092Y0609908D02*
D03*
X0178740Y0590945D02*
D03*
X0285827Y0366043D02*
D03*
X0438386Y0398327D02*
D03*
X0443209Y0398721D02*
D03*
X0442913Y0436811D02*
D03*
X0407928Y0653269D02*
D03*
X0313583Y0449213D02*
D03*
X0305535Y0454072D02*
D03*
X0313761Y0455361D02*
D03*
X0422244Y0710630D02*
D03*
X0237205Y0332705D02*
D03*
X0276000Y0302000D02*
D03*
X0268500D02*
D03*
X0225500Y0708098D02*
D03*
X0322638Y0695638D02*
D03*
X0327362Y0700362D02*
D03*
X0322638D02*
D03*
X0327362Y0695638D02*
D03*
X0429095Y0368094D02*
D03*
X0383000Y0531000D02*
D03*
X0356575Y0549925D02*
D03*
X0434150Y0513150D02*
D03*
X0382000Y0663000D02*
D03*
X0386000Y0660000D02*
D03*
X0274500Y0503000D02*
D03*
X0255500Y0660000D02*
D03*
X0270500D02*
D03*
X0332000Y0722000D02*
D03*
Y0716000D02*
D03*
X0441000Y0484000D02*
D03*
X0364000Y0618000D02*
D03*
X0266500Y0535000D02*
D03*
X0228100Y0579500D02*
D03*
X0256000Y0585000D02*
D03*
X0257500Y0558500D02*
D03*
X0264500Y0581000D02*
D03*
X0266500Y0565500D02*
D03*
X0296000Y0571500D02*
D03*
X0183000Y0602000D02*
D03*
X0228246Y0614146D02*
D03*
X0252500Y0600000D02*
D03*
X0228100Y0620500D02*
D03*
X0197000Y0727000D02*
D03*
X0233000Y0708000D02*
D03*
X0261000Y0631000D02*
D03*
Y0623000D02*
D03*
X0258000Y0697000D02*
D03*
Y0703000D02*
D03*
Y0709000D02*
D03*
X0264500Y0585500D02*
D03*
X0271500Y0615500D02*
D03*
X0309000Y0618000D02*
D03*
X0302500Y0644500D02*
D03*
X0298000Y0694000D02*
D03*
X0306000Y0715000D02*
D03*
X0321000Y0617500D02*
D03*
X0356575Y0617075D02*
D03*
X0319000Y0641500D02*
D03*
X0327000Y0646000D02*
D03*
X0336500Y0646500D02*
D03*
X0408150Y0716850D02*
D03*
X0375000Y0456000D02*
D03*
X0238000Y0327000D02*
D03*
X0319800Y0521000D02*
D03*
X0238000Y0377000D02*
D03*
X0221000Y0421000D02*
D03*
X0326000Y0366000D02*
D03*
X0270000Y0425000D02*
D03*
X0335000Y0519000D02*
D03*
X0334000Y0525000D02*
D03*
X0343500Y0520500D02*
D03*
X0374250Y0657000D02*
D03*
X0396500Y0585000D02*
D03*
Y0580500D02*
D03*
Y0570000D02*
D03*
X0398000Y0556500D02*
D03*
X0401000Y0537000D02*
D03*
X0362000Y0587000D02*
D03*
X0326000Y0520000D02*
D03*
X0305000Y0519500D02*
D03*
X0320000Y0512000D02*
D03*
X0306000Y0513000D02*
D03*
X0336000Y0503000D02*
D03*
X0288500Y0503500D02*
D03*
X0342500Y0494500D02*
D03*
X0346000Y0491000D02*
D03*
X0325500D02*
D03*
X0284500Y0487500D02*
D03*
X0398000Y0520000D02*
D03*
X0316500Y0551500D02*
D03*
X0206500Y0528000D02*
D03*
X0326016Y0410984D02*
D03*
X0324500Y0424500D02*
D03*
X0278500Y0385500D02*
D03*
X0305000Y0361000D02*
D03*
X0328000Y0372000D02*
D03*
X0331500Y0552000D02*
D03*
X0332000Y0535000D02*
D03*
X0228100Y0566000D02*
D03*
X0269000Y0525000D02*
D03*
X0264000D02*
D03*
X0257000Y0531000D02*
D03*
X0334000Y0530000D02*
D03*
X0385000Y0340000D02*
D03*
X0404000Y0341000D02*
D03*
X0407000Y0660000D02*
D03*
X0271000Y0434500D02*
D03*
X0358000Y0512000D02*
D03*
X0340000Y0509000D02*
D03*
X0363000Y0512000D02*
D03*
X0380000Y0473000D02*
D03*
X0345000Y0378000D02*
D03*
X0370000Y0312000D02*
D03*
X0302531Y0448900D02*
D03*
X0364000Y0445000D02*
D03*
Y0439000D02*
D03*
Y0433000D02*
D03*
Y0427000D02*
D03*
X0389000Y0646000D02*
D03*
X0286500Y0446500D02*
D03*
X0185000Y0350000D02*
D03*
X0442000D02*
D03*
X0441000Y0716000D02*
D03*
X0250000Y0750000D02*
D03*
X0297244D02*
D03*
X0400000D02*
D03*
X0200000Y0500000D02*
D03*
X0201000Y0450000D02*
D03*
X0202000Y0400000D02*
D03*
X0400500Y0375000D02*
D03*
X0319000Y0452000D02*
D03*
X0305500Y0727000D02*
D03*
X0346358Y0706000D02*
D03*
X0340000Y0736000D02*
D03*
X0200689Y0580315D02*
D03*
X0284000Y0373000D02*
D03*
X0368000Y0383000D02*
D03*
X0352000Y0405500D02*
D03*
X0232000Y0441500D02*
D03*
Y0435500D02*
D03*
Y0428500D02*
D03*
X0358500Y0495000D02*
D03*
X0309500Y0644500D02*
D03*
X0322500Y0646000D02*
D03*
X0343500Y0646500D02*
D03*
X0366000Y0641500D02*
D03*
X0374000D02*
D03*
X0271500Y0608000D02*
D03*
X0251500Y0581000D02*
D03*
X0261500Y0555000D02*
D03*
X0265000Y0544000D02*
D03*
X0270500Y0538500D02*
D03*
X0288500Y0508000D02*
D03*
X0297000Y0519500D02*
D03*
X0393500Y0553000D02*
D03*
X0392500Y0574000D02*
D03*
Y0613000D02*
D03*
X0438500Y0668000D02*
D03*
Y0679500D02*
D03*
X0420500Y0503500D02*
D03*
Y0499000D02*
D03*
X0420000Y0509000D02*
D03*
X0391500Y0526500D02*
D03*
D114*
X0199000Y0754000D02*
D03*
X0427098D02*
D03*
Y0311000D02*
D03*
X0199098D02*
D03*
M02*
