G04*
G04 #@! TF.GenerationSoftware,Altium Limited,Altium Designer,20.0.13 (296)*
G04*
G04 Layer_Physical_Order=2*
G04 Layer_Color=128*
%FSAX25Y25*%
%MOIN*%
G70*
G01*
G75*
%ADD105C,0.04000*%
G04:AMPARAMS|DCode=106|XSize=95.433mil|YSize=95.433mil|CornerRadius=0mil|HoleSize=0mil|Usage=FLASHONLY|Rotation=0.000|XOffset=0mil|YOffset=0mil|HoleType=Round|Shape=Relief|Width=10mil|Gap=10mil|Entries=4|*
%AMTHD106*
7,0,0,0.09543,0.07543,0.01000,45*
%
%ADD106THD106*%
%ADD107C,0.07543*%
G04:AMPARAMS|DCode=108|XSize=99.37mil|YSize=99.37mil|CornerRadius=0mil|HoleSize=0mil|Usage=FLASHONLY|Rotation=0.000|XOffset=0mil|YOffset=0mil|HoleType=Round|Shape=Relief|Width=10mil|Gap=10mil|Entries=4|*
%AMTHD108*
7,0,0,0.09937,0.07937,0.01000,45*
%
%ADD108THD108*%
%ADD109C,0.07937*%
G04:AMPARAMS|DCode=110|XSize=150.551mil|YSize=150.551mil|CornerRadius=0mil|HoleSize=0mil|Usage=FLASHONLY|Rotation=0.000|XOffset=0mil|YOffset=0mil|HoleType=Round|Shape=Relief|Width=10mil|Gap=10mil|Entries=4|*
%AMTHD110*
7,0,0,0.15055,0.13055,0.01000,45*
%
%ADD110THD110*%
%ADD111C,0.07622*%
G04:AMPARAMS|DCode=112|XSize=96.221mil|YSize=96.221mil|CornerRadius=0mil|HoleSize=0mil|Usage=FLASHONLY|Rotation=0.000|XOffset=0mil|YOffset=0mil|HoleType=Round|Shape=Relief|Width=10mil|Gap=10mil|Entries=4|*
%AMTHD112*
7,0,0,0.09622,0.07622,0.01000,45*
%
%ADD112THD112*%
%ADD113C,0.13055*%
G04:AMPARAMS|DCode=114|XSize=185.984mil|YSize=185.984mil|CornerRadius=0mil|HoleSize=0mil|Usage=FLASHONLY|Rotation=0.000|XOffset=0mil|YOffset=0mil|HoleType=Round|Shape=Relief|Width=10mil|Gap=10mil|Entries=4|*
%AMTHD114*
7,0,0,0.18598,0.16598,0.01000,45*
%
%ADD114THD114*%
%ADD115C,0.05400*%
G36*
X0225969Y0751100D02*
X0225800D01*
Y0746100D01*
X0225969D01*
Y0734100D01*
X0215968D01*
Y0746100D01*
X0216008D01*
Y0751100D01*
X0215968D01*
Y0762100D01*
X0215800D01*
Y0774100D01*
X0225969D01*
Y0751100D01*
D02*
G37*
G36*
X0400000Y0485000D02*
X0375000D01*
Y0507000D01*
X0400000D01*
Y0485000D01*
D02*
G37*
%LPC*%
G36*
X0223800Y0750917D02*
X0223245D01*
X0223210Y0750912D01*
X0223179D01*
X0223154Y0750907D01*
X0223133D01*
X0223123Y0750902D01*
X0223118D01*
X0223057Y0750892D01*
X0223011Y0750877D01*
X0222986Y0750867D01*
X0222975Y0750862D01*
X0222940Y0750841D01*
X0222914Y0750821D01*
X0222899Y0750800D01*
X0222894Y0750795D01*
X0222874Y0750770D01*
X0222868Y0750744D01*
X0222863Y0750724D01*
Y0748474D01*
X0222186Y0749136D01*
X0222003Y0749314D01*
X0221922Y0749396D01*
X0221840Y0749472D01*
X0221764Y0749548D01*
X0221688Y0749614D01*
X0221621Y0749670D01*
X0221560Y0749726D01*
X0221504Y0749777D01*
X0221459Y0749818D01*
X0221413Y0749854D01*
X0221377Y0749884D01*
X0221347Y0749910D01*
X0221326Y0749925D01*
X0221316Y0749935D01*
X0221311Y0749940D01*
X0221174Y0750047D01*
X0221046Y0750144D01*
X0220929Y0750225D01*
X0220827Y0750291D01*
X0220782Y0750322D01*
X0220741Y0750342D01*
X0220705Y0750368D01*
X0220680Y0750383D01*
X0220654Y0750398D01*
X0220639Y0750403D01*
X0220629Y0750414D01*
X0220624D01*
X0220512Y0750470D01*
X0220405Y0750521D01*
X0220303Y0750556D01*
X0220222Y0750587D01*
X0220150Y0750607D01*
X0220094Y0750622D01*
X0220074Y0750627D01*
X0220059Y0750632D01*
X0220054D01*
X0220049D01*
X0219947Y0750653D01*
X0219850Y0750663D01*
X0219759Y0750673D01*
X0219672Y0750683D01*
X0219601D01*
X0219545Y0750689D01*
X0219524D01*
X0219509D01*
X0219504D01*
X0219499D01*
X0219382Y0750683D01*
X0219275Y0750673D01*
X0219173Y0750653D01*
X0219087Y0750632D01*
X0219010Y0750612D01*
X0218954Y0750592D01*
X0218934Y0750587D01*
X0218919Y0750582D01*
X0218914Y0750576D01*
X0218909D01*
X0218807Y0750531D01*
X0218720Y0750480D01*
X0218639Y0750429D01*
X0218567Y0750373D01*
X0218512Y0750327D01*
X0218471Y0750286D01*
X0218445Y0750261D01*
X0218435Y0750256D01*
Y0750251D01*
X0218364Y0750164D01*
X0218303Y0750073D01*
X0218252Y0749981D01*
X0218206Y0749889D01*
X0218170Y0749813D01*
X0218155Y0749782D01*
X0218145Y0749752D01*
X0218135Y0749726D01*
X0218130Y0749711D01*
X0218125Y0749701D01*
Y0749696D01*
X0218084Y0749569D01*
X0218058Y0749436D01*
X0218038Y0749304D01*
X0218023Y0749187D01*
X0218018Y0749131D01*
X0218013Y0749080D01*
Y0749034D01*
X0218008Y0748999D01*
Y0750917D01*
D01*
Y0747100D01*
D01*
Y0748820D01*
X0218018Y0748719D01*
X0218023Y0748627D01*
X0218033Y0748546D01*
X0218043Y0748479D01*
X0218053Y0748428D01*
X0218058Y0748408D01*
Y0748393D01*
X0218064Y0748388D01*
Y0748383D01*
X0218084Y0748286D01*
X0218104Y0748199D01*
X0218130Y0748118D01*
X0218150Y0748047D01*
X0218165Y0747986D01*
X0218181Y0747945D01*
X0218191Y0747914D01*
X0218196Y0747909D01*
Y0747904D01*
X0218227Y0747828D01*
X0218252Y0747757D01*
X0218277Y0747695D01*
X0218303Y0747645D01*
X0218323Y0747599D01*
X0218338Y0747568D01*
X0218349Y0747548D01*
X0218354Y0747543D01*
X0218384Y0747492D01*
X0218410Y0747451D01*
X0218435Y0747416D01*
X0218450Y0747390D01*
X0218471Y0747370D01*
X0218481Y0747355D01*
X0218486Y0747349D01*
X0218491Y0747344D01*
X0218527Y0747309D01*
X0218557Y0747283D01*
X0218578Y0747268D01*
X0218583Y0747263D01*
X0218613Y0747248D01*
X0218639Y0747237D01*
X0218659Y0747232D01*
X0218669Y0747227D01*
X0218710Y0747222D01*
X0218746Y0747217D01*
X0218776Y0747212D01*
X0218781D01*
X0218786D01*
X0218842Y0747207D01*
X0218893D01*
X0218919D01*
X0218939D01*
X0218949D01*
X0218954D01*
X0219010D01*
X0219056D01*
X0219102Y0747212D01*
X0219138D01*
X0219168D01*
X0219188Y0747217D01*
X0219204D01*
X0219209D01*
X0219275Y0747227D01*
X0219326Y0747232D01*
X0219346Y0747237D01*
X0219361Y0747242D01*
X0219367D01*
X0219372D01*
X0219412Y0747258D01*
X0219438Y0747273D01*
X0219453Y0747283D01*
X0219458Y0747288D01*
X0219474Y0747314D01*
X0219479Y0747334D01*
X0219484Y0747355D01*
Y0747360D01*
X0219479Y0747385D01*
X0219474Y0747410D01*
X0219448Y0747461D01*
X0219438Y0747482D01*
X0219428Y0747502D01*
X0219423Y0747512D01*
X0219418Y0747517D01*
X0219367Y0747599D01*
X0219321Y0747680D01*
X0219300Y0747716D01*
X0219285Y0747741D01*
X0219275Y0747762D01*
X0219270Y0747767D01*
X0219214Y0747884D01*
X0219188Y0747945D01*
X0219163Y0748001D01*
X0219148Y0748047D01*
X0219132Y0748082D01*
X0219127Y0748108D01*
X0219122Y0748118D01*
X0219097Y0748194D01*
X0219082Y0748276D01*
X0219066Y0748352D01*
X0219061Y0748428D01*
X0219056Y0748490D01*
X0219051Y0748535D01*
Y0748647D01*
X0219061Y0748708D01*
X0219066Y0748764D01*
X0219076Y0748810D01*
X0219087Y0748851D01*
X0219097Y0748876D01*
X0219102Y0748897D01*
X0219107Y0748902D01*
X0219127Y0748953D01*
X0219153Y0748993D01*
X0219178Y0749034D01*
X0219204Y0749065D01*
X0219224Y0749090D01*
X0219245Y0749111D01*
X0219255Y0749121D01*
X0219260Y0749126D01*
X0219336Y0749187D01*
X0219412Y0749228D01*
X0219443Y0749243D01*
X0219468Y0749253D01*
X0219484Y0749263D01*
X0219489D01*
X0219585Y0749294D01*
X0219631Y0749304D01*
X0219672Y0749309D01*
X0219708Y0749314D01*
X0219733D01*
X0219754D01*
X0219759D01*
X0219881Y0749309D01*
X0219937Y0749304D01*
X0219988Y0749294D01*
X0220033Y0749289D01*
X0220069Y0749278D01*
X0220089Y0749273D01*
X0220100D01*
X0220166Y0749258D01*
X0220232Y0749238D01*
X0220298Y0749212D01*
X0220354Y0749192D01*
X0220405Y0749172D01*
X0220446Y0749151D01*
X0220471Y0749141D01*
X0220481Y0749136D01*
X0220563Y0749095D01*
X0220639Y0749050D01*
X0220721Y0749004D01*
X0220792Y0748958D01*
X0220853Y0748912D01*
X0220904Y0748881D01*
X0220934Y0748861D01*
X0220939Y0748851D01*
X0220944D01*
X0221041Y0748780D01*
X0221138Y0748703D01*
X0221230Y0748622D01*
X0221316Y0748546D01*
X0221392Y0748479D01*
X0221423Y0748454D01*
X0221453Y0748428D01*
X0221474Y0748408D01*
X0221489Y0748393D01*
X0221499Y0748383D01*
X0221504Y0748378D01*
X0222558Y0747390D01*
X0222624Y0747329D01*
X0222675Y0747288D01*
X0222695Y0747268D01*
X0222711Y0747258D01*
X0222721Y0747253D01*
X0222726Y0747248D01*
X0222782Y0747212D01*
X0222833Y0747187D01*
X0222853Y0747176D01*
X0222868Y0747166D01*
X0222879Y0747161D01*
X0222884D01*
X0222945Y0747141D01*
X0223006Y0747120D01*
X0223031Y0747115D01*
X0223052D01*
X0223067Y0747110D01*
X0223072D01*
X0223154Y0747105D01*
X0223230Y0747100D01*
X0218008D01*
X0223800D01*
X0223372D01*
X0223423Y0747105D01*
X0223464D01*
X0223505Y0747110D01*
X0223530D01*
X0223556Y0747115D01*
X0223566D01*
X0223571D01*
X0223637Y0747136D01*
X0223683Y0747156D01*
X0223708Y0747176D01*
X0223719Y0747181D01*
X0223749Y0747217D01*
X0223769Y0747253D01*
X0223780Y0747283D01*
X0223785Y0747288D01*
Y0747293D01*
X0223795Y0747349D01*
X0223800Y0747405D01*
Y0750734D01*
X0223795Y0750765D01*
X0223790Y0750790D01*
X0223785Y0750811D01*
X0223780Y0750816D01*
X0223754Y0750841D01*
X0223729Y0750856D01*
X0223708Y0750867D01*
X0223698Y0750872D01*
X0223652Y0750887D01*
X0223602Y0750897D01*
X0223581D01*
X0223566Y0750902D01*
X0223556D01*
X0223551D01*
X0223479Y0750912D01*
X0223408Y0750917D01*
X0223800D01*
D02*
G37*
%LPD*%
D105*
X0199000Y0779000D02*
G03*
X0174000Y0753902I0000000J-0025000D01*
G01*
X0452099Y0754000D02*
G03*
X0427000Y0779000I-0025000J0000000D01*
G01*
X0427098Y0286000D02*
G03*
X0452098Y0311098I0000000J0025000D01*
G01*
X0174098Y0311000D02*
G03*
X0199197Y0286000I0025000J0000000D01*
G01*
X0427098D01*
Y0286000D02*
Y0286000D01*
X0452000Y0311098D02*
X0452098D01*
X0452000D02*
Y0754000D01*
X0452099D01*
X0199000Y0779000D02*
X0427000D01*
X0199000D02*
Y0779000D01*
X0174000Y0311000D02*
Y0753902D01*
D106*
X0426000Y0652000D02*
D03*
X0436000D02*
D03*
X0367500Y0679000D02*
D03*
X0210000Y0469000D02*
D03*
Y0479000D02*
D03*
X0367000Y0698500D02*
D03*
D107*
X0426000Y0642000D02*
D03*
X0436000D02*
D03*
X0426000Y0632000D02*
D03*
X0436000D02*
D03*
X0426000Y0622000D02*
D03*
X0436000D02*
D03*
X0426000Y0612000D02*
D03*
X0436000D02*
D03*
X0426000Y0602000D02*
D03*
X0436000D02*
D03*
X0426000Y0592000D02*
D03*
X0436000D02*
D03*
X0426000Y0582000D02*
D03*
X0436000D02*
D03*
X0426000Y0572000D02*
D03*
X0436000D02*
D03*
X0426000Y0562000D02*
D03*
X0436000D02*
D03*
X0426000Y0552000D02*
D03*
X0436000D02*
D03*
X0426000Y0542000D02*
D03*
X0436000D02*
D03*
X0426000Y0532000D02*
D03*
X0436000D02*
D03*
X0367500Y0669000D02*
D03*
X0357500Y0679000D02*
D03*
Y0669000D02*
D03*
X0347500Y0679000D02*
D03*
Y0669000D02*
D03*
X0337500Y0679000D02*
D03*
Y0669000D02*
D03*
X0327500Y0679000D02*
D03*
Y0669000D02*
D03*
X0317500Y0679000D02*
D03*
Y0669000D02*
D03*
X0307500Y0679000D02*
D03*
Y0669000D02*
D03*
X0220000Y0469000D02*
D03*
Y0479000D02*
D03*
X0230000Y0469000D02*
D03*
Y0479000D02*
D03*
X0240000Y0469000D02*
D03*
Y0479000D02*
D03*
X0250000Y0469000D02*
D03*
Y0479000D02*
D03*
X0260000Y0469000D02*
D03*
Y0479000D02*
D03*
X0270000Y0469000D02*
D03*
Y0479000D02*
D03*
X0280000Y0469000D02*
D03*
Y0479000D02*
D03*
X0290000Y0469000D02*
D03*
Y0479000D02*
D03*
X0300000Y0469000D02*
D03*
Y0479000D02*
D03*
X0310000Y0469000D02*
D03*
Y0479000D02*
D03*
X0320000Y0469000D02*
D03*
Y0479000D02*
D03*
X0330000Y0469000D02*
D03*
Y0479000D02*
D03*
X0340000Y0469000D02*
D03*
Y0479000D02*
D03*
X0350000Y0469000D02*
D03*
Y0479000D02*
D03*
X0360000Y0469000D02*
D03*
Y0479000D02*
D03*
X0370000Y0469000D02*
D03*
Y0479000D02*
D03*
X0357000Y0698500D02*
D03*
X0377000D02*
D03*
X0387000D02*
D03*
X0397000D02*
D03*
X0407000D02*
D03*
X0417000D02*
D03*
X0427000D02*
D03*
X0437000D02*
D03*
X0318000Y0759000D02*
D03*
X0328000D02*
D03*
D108*
X0409000Y0448000D02*
D03*
Y0422409D02*
D03*
D109*
X0391283Y0448000D02*
D03*
Y0422409D02*
D03*
D110*
X0287299Y0326551D02*
D03*
X0334701D02*
D03*
D111*
X0306079Y0337221D02*
D03*
Y0345094D02*
D03*
X0315921D02*
D03*
X0273921Y0727779D02*
D03*
Y0719906D02*
D03*
X0264079D02*
D03*
X0390779Y0728858D02*
D03*
X0380937D02*
D03*
X0373063D02*
D03*
D112*
X0315921Y0337221D02*
D03*
X0264079Y0727779D02*
D03*
X0363221Y0728858D02*
D03*
D113*
X0292701Y0738449D02*
D03*
X0245299D02*
D03*
X0351134Y0739528D02*
D03*
X0402866D02*
D03*
D114*
X0199000Y0754000D02*
D03*
X0427098D02*
D03*
Y0311000D02*
D03*
X0199098D02*
D03*
D115*
X0431500Y0668500D02*
D03*
X0410000Y0553000D02*
D03*
X0383000Y0531000D02*
D03*
X0220000Y0446500D02*
D03*
X0382000Y0663000D02*
D03*
X0386000Y0660000D02*
D03*
X0415000Y0433000D02*
D03*
X0332000Y0722000D02*
D03*
Y0716000D02*
D03*
X0323000Y0713000D02*
D03*
X0447000Y0468000D02*
D03*
X0327000Y0420000D02*
D03*
X0238000Y0327000D02*
D03*
X0319800Y0521000D02*
D03*
X0221000Y0407000D02*
D03*
X0366000Y0636500D02*
D03*
X0335000Y0519000D02*
D03*
X0334000Y0525000D02*
D03*
X0374250Y0657000D02*
D03*
X0379000Y0542000D02*
D03*
X0320000Y0512000D02*
D03*
X0306000Y0513000D02*
D03*
X0336000Y0503000D02*
D03*
X0288500Y0503500D02*
D03*
X0349000Y0503000D02*
D03*
X0342500Y0494500D02*
D03*
X0346000Y0491000D02*
D03*
X0325500D02*
D03*
X0284500Y0487500D02*
D03*
X0278000Y0525500D02*
D03*
X0179000Y0596000D02*
D03*
X0183000Y0574000D02*
D03*
X0297000Y0577000D02*
D03*
X0266500Y0555000D02*
D03*
X0276500Y0608000D02*
D03*
X0246500Y0581000D02*
D03*
X0347000Y0405500D02*
D03*
X0279000Y0358000D02*
D03*
X0332000D02*
D03*
X0345000Y0384000D02*
D03*
X0332000Y0535000D02*
D03*
X0228100Y0566000D02*
D03*
X0194500Y0628500D02*
D03*
X0269000Y0525000D02*
D03*
X0264000D02*
D03*
X0257000Y0531000D02*
D03*
X0334000Y0530000D02*
D03*
X0392000Y0339000D02*
D03*
X0374000Y0383000D02*
D03*
X0350500Y0357000D02*
D03*
X0407000Y0660000D02*
D03*
X0410000Y0652000D02*
D03*
X0297000Y0411000D02*
D03*
X0358000Y0512000D02*
D03*
X0340000Y0509000D02*
D03*
X0363000Y0512000D02*
D03*
X0380000Y0473000D02*
D03*
X0340000Y0697000D02*
D03*
X0302531Y0448900D02*
D03*
X0307000Y0452000D02*
D03*
X0312000Y0449000D02*
D03*
X0364000Y0445000D02*
D03*
Y0439000D02*
D03*
Y0433000D02*
D03*
Y0427000D02*
D03*
X0314000Y0454000D02*
D03*
X0415000Y0445000D02*
D03*
Y0439000D02*
D03*
Y0428000D02*
D03*
X0389000Y0646000D02*
D03*
X0183000Y0616500D02*
D03*
X0201500Y0528000D02*
D03*
X0228000Y0525000D02*
D03*
X0279000Y0631000D02*
D03*
X0409500Y0412000D02*
D03*
X0346358Y0706000D02*
D03*
X0340000Y0736000D02*
D03*
X0322000Y0727000D02*
D03*
X0232000Y0441500D02*
D03*
Y0435500D02*
D03*
Y0428500D02*
D03*
X0355000Y0530000D02*
D03*
X0367000Y0531000D02*
D03*
X0358500Y0495000D02*
D03*
X0406000Y0488000D02*
D03*
X0273500Y0589500D02*
D03*
X0319000Y0636500D02*
D03*
X0343500Y0641500D02*
D03*
X0302500Y0640000D02*
D03*
X0309500D02*
D03*
X0374000Y0636500D02*
D03*
X0246000Y0600000D02*
D03*
X0276500Y0615500D02*
D03*
X0277500Y0538500D02*
D03*
X0288500Y0508000D02*
D03*
X0305000Y0526000D02*
D03*
X0297000D02*
D03*
X0322000Y0529000D02*
D03*
X0347500Y0530000D02*
D03*
X0388500Y0553000D02*
D03*
X0387500Y0574000D02*
D03*
Y0589000D02*
D03*
Y0613000D02*
D03*
X0431500Y0679500D02*
D03*
X0295500Y0450500D02*
D03*
X0280500Y0429000D02*
D03*
X0336000Y0641500D02*
D03*
X0420500Y0503500D02*
D03*
Y0499000D02*
D03*
X0388500Y0357000D02*
D03*
X0374500Y0356500D02*
D03*
X0363500Y0357000D02*
D03*
Y0366000D02*
D03*
X0374500Y0366500D02*
D03*
M02*
