G04*
G04 #@! TF.GenerationSoftware,Altium Limited,Altium Designer,20.0.13 (296)*
G04*
G04 Layer_Color=16711935*
%FSAX25Y25*%
%MOIN*%
G70*
G01*
G75*
%ADD48R,0.15761X0.04737*%
%ADD54C,0.03800*%
%ADD64R,0.05918X0.07887*%
%ADD69R,0.16800X0.16800*%
%ADD79R,0.06706X0.06706*%
%ADD80C,0.06706*%
%ADD81C,0.08674*%
%ADD82R,0.06706X0.06706*%
%ADD83C,0.15761*%
%ADD84C,0.07099*%
%ADD85R,0.07099X0.07099*%
%ADD86C,0.23635*%
%ADD87R,0.07099X0.07099*%
%ADD118C,0.03200*%
D48*
X0443000Y0407094D02*
D03*
Y0428905D02*
D03*
Y0389906D02*
D03*
Y0368094D02*
D03*
D54*
X0431500Y0668500D02*
D03*
X0443000Y0436000D02*
D03*
Y0399500D02*
D03*
X0438500Y0397500D02*
D03*
X0429095Y0368094D02*
D03*
X0410000Y0553000D02*
D03*
X0383000Y0531000D02*
D03*
X0356575Y0549925D02*
D03*
X0434150Y0513150D02*
D03*
X0220000Y0446500D02*
D03*
X0274500Y0503000D02*
D03*
X0255500Y0660000D02*
D03*
X0270500D02*
D03*
X0294000Y0706000D02*
D03*
X0177000Y0591000D02*
D03*
X0327362Y0695638D02*
D03*
X0322638Y0700362D02*
D03*
X0323000Y0713000D02*
D03*
X0327362Y0700362D02*
D03*
X0441000Y0484000D02*
D03*
X0364000Y0618000D02*
D03*
X0447000Y0468000D02*
D03*
X0327000Y0420000D02*
D03*
X0266500Y0535000D02*
D03*
X0228100Y0579500D02*
D03*
X0256000Y0585000D02*
D03*
X0257500Y0558500D02*
D03*
X0264500Y0581000D02*
D03*
X0266500Y0565500D02*
D03*
X0296000Y0571500D02*
D03*
X0228352Y0595248D02*
D03*
X0183000Y0602000D02*
D03*
X0228246Y0614146D02*
D03*
X0252500Y0600000D02*
D03*
X0183500Y0623500D02*
D03*
X0228100Y0620500D02*
D03*
X0197000Y0727000D02*
D03*
X0233000Y0708000D02*
D03*
X0261000Y0631000D02*
D03*
Y0623000D02*
D03*
X0258000Y0697000D02*
D03*
Y0703000D02*
D03*
Y0709000D02*
D03*
X0264500Y0585500D02*
D03*
X0271500Y0615500D02*
D03*
X0295327Y0594827D02*
D03*
X0297000Y0613000D02*
D03*
X0309000Y0618000D02*
D03*
X0302500Y0644500D02*
D03*
X0298000Y0694000D02*
D03*
X0306000Y0715000D02*
D03*
X0321000Y0617500D02*
D03*
X0356575Y0617075D02*
D03*
X0319000Y0641500D02*
D03*
X0327000Y0646000D02*
D03*
X0336500Y0646500D02*
D03*
X0408150Y0716850D02*
D03*
X0375000Y0456000D02*
D03*
X0242500Y0338500D02*
D03*
X0238000Y0377000D02*
D03*
X0221000Y0407000D02*
D03*
Y0421000D02*
D03*
X0366000Y0636500D02*
D03*
X0365000Y0559000D02*
D03*
X0326000Y0366000D02*
D03*
X0270000Y0425000D02*
D03*
X0285000Y0366000D02*
D03*
X0343500Y0520500D02*
D03*
X0365000Y0595000D02*
D03*
X0398000Y0609000D02*
D03*
X0396500Y0585000D02*
D03*
Y0580500D02*
D03*
Y0570000D02*
D03*
X0398000Y0556500D02*
D03*
X0401000Y0537000D02*
D03*
X0379000Y0542000D02*
D03*
X0362000Y0587000D02*
D03*
X0326000Y0520000D02*
D03*
X0305000Y0519500D02*
D03*
X0278000Y0525500D02*
D03*
X0179000Y0596000D02*
D03*
X0183000Y0574000D02*
D03*
X0297000Y0577000D02*
D03*
X0379000Y0549000D02*
D03*
X0398000Y0520000D02*
D03*
X0316500Y0551500D02*
D03*
X0266500Y0555000D02*
D03*
X0276500Y0608000D02*
D03*
X0206500Y0528000D02*
D03*
X0246500Y0581000D02*
D03*
X0347000Y0405500D02*
D03*
X0326016Y0410984D02*
D03*
X0324500Y0424500D02*
D03*
X0301500Y0425000D02*
D03*
X0278500Y0385500D02*
D03*
X0279000Y0358000D02*
D03*
X0332000D02*
D03*
X0305000Y0361000D02*
D03*
X0345000Y0384000D02*
D03*
X0314953Y0394953D02*
D03*
X0328000Y0372000D02*
D03*
X0331500Y0552000D02*
D03*
X0194500Y0628500D02*
D03*
X0385000Y0340000D02*
D03*
X0392000Y0339000D02*
D03*
X0374000Y0383000D02*
D03*
X0350500Y0357000D02*
D03*
X0404000Y0341000D02*
D03*
X0271000Y0434500D02*
D03*
X0297000Y0411000D02*
D03*
X0345000Y0378000D02*
D03*
X0370000Y0312000D02*
D03*
X0299000Y0395000D02*
D03*
X0305110Y0394110D02*
D03*
X0323000Y0395000D02*
D03*
X0340000Y0697000D02*
D03*
X0286500Y0446500D02*
D03*
X0183000Y0616500D02*
D03*
X0201500Y0528000D02*
D03*
X0228000Y0525000D02*
D03*
X0185000Y0350000D02*
D03*
X0442000D02*
D03*
X0441000Y0716000D02*
D03*
X0250000Y0750000D02*
D03*
X0300000D02*
D03*
X0400000D02*
D03*
X0279000Y0631000D02*
D03*
X0200000Y0500000D02*
D03*
X0201000Y0450000D02*
D03*
X0202000Y0400000D02*
D03*
X0400500Y0375000D02*
D03*
X0409500Y0412000D02*
D03*
X0319000Y0452000D02*
D03*
X0322638Y0695638D02*
D03*
X0305500Y0727000D02*
D03*
X0400000Y0468000D02*
D03*
X0205000Y0583000D02*
D03*
X0284000Y0373000D02*
D03*
X0368000Y0383000D02*
D03*
X0352000Y0405500D02*
D03*
X0322000Y0727000D02*
D03*
X0406000Y0488000D02*
D03*
X0273500Y0589500D02*
D03*
X0309500Y0644500D02*
D03*
X0319000Y0636500D02*
D03*
X0322500Y0646000D02*
D03*
X0343500Y0641500D02*
D03*
X0302500Y0640000D02*
D03*
X0309500D02*
D03*
X0343500Y0646500D02*
D03*
X0366000Y0641500D02*
D03*
X0374000D02*
D03*
Y0636500D02*
D03*
X0246000Y0600000D02*
D03*
X0276500Y0615500D02*
D03*
X0271500Y0608000D02*
D03*
X0251500Y0581000D02*
D03*
X0261500Y0555000D02*
D03*
X0277500Y0538500D02*
D03*
X0265000Y0544000D02*
D03*
X0270500Y0538500D02*
D03*
X0305000Y0526000D02*
D03*
X0297000D02*
D03*
Y0519500D02*
D03*
X0322000Y0529000D02*
D03*
X0347500Y0525000D02*
D03*
Y0530000D02*
D03*
X0388500Y0553000D02*
D03*
X0393500D02*
D03*
X0387500Y0574000D02*
D03*
X0392500D02*
D03*
X0387500Y0589000D02*
D03*
Y0613000D02*
D03*
X0392500D02*
D03*
X0431500Y0679500D02*
D03*
X0438500Y0668000D02*
D03*
Y0679500D02*
D03*
X0295500Y0450500D02*
D03*
X0280500Y0429000D02*
D03*
X0336000Y0641500D02*
D03*
X0420500Y0503500D02*
D03*
Y0499000D02*
D03*
X0420000Y0509000D02*
D03*
X0391500Y0526500D02*
D03*
X0388500Y0357000D02*
D03*
X0374500Y0356500D02*
D03*
X0363500Y0357000D02*
D03*
Y0366000D02*
D03*
X0374500Y0366500D02*
D03*
D64*
X0316291Y0770500D02*
D03*
X0327709D02*
D03*
D69*
X0185000Y0338000D02*
D03*
X0442000Y0337000D02*
D03*
X0185000Y0727000D02*
D03*
X0441000Y0728000D02*
D03*
D79*
X0426000Y0652000D02*
D03*
D80*
X0436000D02*
D03*
X0426000Y0642000D02*
D03*
X0436000D02*
D03*
X0426000Y0632000D02*
D03*
X0436000D02*
D03*
X0426000Y0622000D02*
D03*
X0436000D02*
D03*
X0426000Y0612000D02*
D03*
X0436000D02*
D03*
X0426000Y0602000D02*
D03*
X0436000D02*
D03*
X0426000Y0592000D02*
D03*
X0436000D02*
D03*
X0426000Y0582000D02*
D03*
X0436000D02*
D03*
X0426000Y0572000D02*
D03*
X0436000D02*
D03*
X0426000Y0562000D02*
D03*
X0436000D02*
D03*
X0426000Y0552000D02*
D03*
X0436000D02*
D03*
X0426000Y0542000D02*
D03*
X0436000D02*
D03*
X0426000Y0532000D02*
D03*
X0436000D02*
D03*
X0367500Y0679000D02*
D03*
Y0669000D02*
D03*
X0357500Y0679000D02*
D03*
Y0669000D02*
D03*
X0347500Y0679000D02*
D03*
Y0669000D02*
D03*
X0337500Y0679000D02*
D03*
Y0669000D02*
D03*
X0327500Y0679000D02*
D03*
Y0669000D02*
D03*
X0317500Y0679000D02*
D03*
Y0669000D02*
D03*
X0307500Y0679000D02*
D03*
X0210000Y0469000D02*
D03*
Y0479000D02*
D03*
X0220000Y0469000D02*
D03*
Y0479000D02*
D03*
X0230000Y0469000D02*
D03*
Y0479000D02*
D03*
X0240000Y0469000D02*
D03*
Y0479000D02*
D03*
X0250000Y0469000D02*
D03*
Y0479000D02*
D03*
X0260000Y0469000D02*
D03*
Y0479000D02*
D03*
X0270000Y0469000D02*
D03*
Y0479000D02*
D03*
X0280000Y0469000D02*
D03*
Y0479000D02*
D03*
X0290000Y0469000D02*
D03*
Y0479000D02*
D03*
X0300000Y0469000D02*
D03*
Y0479000D02*
D03*
X0310000Y0469000D02*
D03*
Y0479000D02*
D03*
X0320000Y0469000D02*
D03*
Y0479000D02*
D03*
X0330000Y0469000D02*
D03*
Y0479000D02*
D03*
X0340000Y0469000D02*
D03*
Y0479000D02*
D03*
X0350000Y0469000D02*
D03*
Y0479000D02*
D03*
X0360000Y0469000D02*
D03*
Y0479000D02*
D03*
X0370000Y0469000D02*
D03*
X0377000Y0698500D02*
D03*
X0387000D02*
D03*
X0397000D02*
D03*
X0407000D02*
D03*
X0417000D02*
D03*
X0427000D02*
D03*
X0437000D02*
D03*
X0367000D02*
D03*
X0318000Y0759000D02*
D03*
D81*
X0409000Y0448000D02*
D03*
Y0422409D02*
D03*
X0391283Y0448000D02*
D03*
Y0422409D02*
D03*
D82*
X0307500Y0669000D02*
D03*
X0370000Y0479000D02*
D03*
X0357000Y0698500D02*
D03*
X0328000Y0759000D02*
D03*
D83*
X0287299Y0326551D02*
D03*
X0334701D02*
D03*
X0292701Y0738449D02*
D03*
X0245299D02*
D03*
X0351134Y0739528D02*
D03*
X0402866D02*
D03*
D84*
X0306079Y0337221D02*
D03*
X0315921D02*
D03*
X0306079Y0345094D02*
D03*
X0273921Y0727779D02*
D03*
X0264079D02*
D03*
X0273921Y0719906D02*
D03*
X0380937Y0728858D02*
D03*
X0363221Y0728858D02*
D03*
X0373063Y0728858D02*
D03*
D85*
X0315921Y0345094D02*
D03*
X0264079Y0719906D02*
D03*
D86*
X0199000Y0754000D02*
D03*
X0427098D02*
D03*
Y0311000D02*
D03*
X0199098D02*
D03*
D87*
X0390779Y0728858D02*
D03*
D118*
X0382000Y0663000D02*
D03*
X0386000Y0660000D02*
D03*
X0415000Y0433000D02*
D03*
X0332000Y0722000D02*
D03*
Y0716000D02*
D03*
X0238000Y0327000D02*
D03*
X0319800Y0521000D02*
D03*
X0335000Y0519000D02*
D03*
X0334000Y0525000D02*
D03*
X0374250Y0657000D02*
D03*
X0320000Y0512000D02*
D03*
X0306000Y0513000D02*
D03*
X0336000Y0503000D02*
D03*
X0288500Y0503500D02*
D03*
X0349000Y0503000D02*
D03*
X0342500Y0494500D02*
D03*
X0346000Y0491000D02*
D03*
X0325500D02*
D03*
X0284500Y0487500D02*
D03*
X0332000Y0535000D02*
D03*
X0228100Y0566000D02*
D03*
X0269000Y0525000D02*
D03*
X0264000D02*
D03*
X0257000Y0531000D02*
D03*
X0334000Y0530000D02*
D03*
X0407000Y0660000D02*
D03*
X0410000Y0652000D02*
D03*
X0358000Y0512000D02*
D03*
X0340000Y0509000D02*
D03*
X0363000Y0512000D02*
D03*
X0380000Y0473000D02*
D03*
X0302531Y0448900D02*
D03*
X0307000Y0452000D02*
D03*
X0312000Y0449000D02*
D03*
X0364000Y0445000D02*
D03*
Y0439000D02*
D03*
Y0433000D02*
D03*
Y0427000D02*
D03*
X0314000Y0454000D02*
D03*
X0415000Y0445000D02*
D03*
Y0439000D02*
D03*
Y0428000D02*
D03*
X0389000Y0646000D02*
D03*
X0346358Y0706000D02*
D03*
X0340000Y0736000D02*
D03*
X0232000Y0441500D02*
D03*
Y0435500D02*
D03*
Y0428500D02*
D03*
X0355000Y0530000D02*
D03*
X0367000Y0531000D02*
D03*
X0358500Y0495000D02*
D03*
X0288500Y0508000D02*
D03*
M02*
