G04*
G04 #@! TF.GenerationSoftware,Altium Limited,Altium Designer,20.0.13 (296)*
G04*
G04 Layer_Physical_Order=4*
G04 Layer_Color=16711680*
%FSAX25Y25*%
%MOIN*%
G70*
G01*
G75*
%ADD12C,0.01000*%
%ADD14C,0.00600*%
G04:AMPARAMS|DCode=42|XSize=70.87mil|YSize=51.18mil|CornerRadius=7.68mil|HoleSize=0mil|Usage=FLASHONLY|Rotation=90.000|XOffset=0mil|YOffset=0mil|HoleType=Round|Shape=RoundedRectangle|*
%AMROUNDEDRECTD42*
21,1,0.07087,0.03583,0,0,90.0*
21,1,0.05551,0.05118,0,0,90.0*
1,1,0.01535,0.01791,0.02776*
1,1,0.01535,0.01791,-0.02776*
1,1,0.01535,-0.01791,-0.02776*
1,1,0.01535,-0.01791,0.02776*
%
%ADD42ROUNDEDRECTD42*%
%ADD85C,0.02362*%
G04:AMPARAMS|DCode=86|XSize=160mil|YSize=160mil|CornerRadius=24mil|HoleSize=0mil|Usage=FLASHONLY|Rotation=0.000|XOffset=0mil|YOffset=0mil|HoleType=Round|Shape=RoundedRectangle|*
%AMROUNDEDRECTD86*
21,1,0.16000,0.11200,0,0,0.0*
21,1,0.11200,0.16000,0,0,0.0*
1,1,0.04800,0.05600,-0.05600*
1,1,0.04800,-0.05600,-0.05600*
1,1,0.04800,-0.05600,0.05600*
1,1,0.04800,0.05600,0.05600*
%
%ADD86ROUNDEDRECTD86*%
G04:AMPARAMS|DCode=88|XSize=68.9mil|YSize=149.61mil|CornerRadius=8.61mil|HoleSize=0mil|Usage=FLASHONLY|Rotation=90.000|XOffset=0mil|YOffset=0mil|HoleType=Round|Shape=RoundedRectangle|*
%AMROUNDEDRECTD88*
21,1,0.06890,0.13238,0,0,90.0*
21,1,0.05167,0.14961,0,0,90.0*
1,1,0.01722,0.06619,0.02584*
1,1,0.01722,0.06619,-0.02584*
1,1,0.01722,-0.06619,-0.02584*
1,1,0.01722,-0.06619,0.02584*
%
%ADD88ROUNDEDRECTD88*%
%ADD90C,0.02000*%
%ADD91C,0.01200*%
%ADD93C,0.05000*%
%ADD97C,0.07480*%
G04:AMPARAMS|DCode=98|XSize=74.8mil|YSize=74.8mil|CornerRadius=11.22mil|HoleSize=0mil|Usage=FLASHONLY|Rotation=180.000|XOffset=0mil|YOffset=0mil|HoleType=Round|Shape=RoundedRectangle|*
%AMROUNDEDRECTD98*
21,1,0.07480,0.05236,0,0,180.0*
21,1,0.05236,0.07480,0,0,180.0*
1,1,0.02244,-0.02618,0.02618*
1,1,0.02244,0.02618,0.02618*
1,1,0.02244,0.02618,-0.02618*
1,1,0.02244,-0.02618,-0.02618*
%
%ADD98ROUNDEDRECTD98*%
%ADD99C,0.22835*%
%ADD100C,0.07874*%
%ADD101C,0.14961*%
G04:AMPARAMS|DCode=102|XSize=62.99mil|YSize=62.99mil|CornerRadius=9.45mil|HoleSize=0mil|Usage=FLASHONLY|Rotation=180.000|XOffset=0mil|YOffset=0mil|HoleType=Round|Shape=RoundedRectangle|*
%AMROUNDEDRECTD102*
21,1,0.06299,0.04409,0,0,180.0*
21,1,0.04409,0.06299,0,0,180.0*
1,1,0.01890,-0.02205,0.02205*
1,1,0.01890,0.02205,0.02205*
1,1,0.01890,0.02205,-0.02205*
1,1,0.01890,-0.02205,-0.02205*
%
%ADD102ROUNDEDRECTD102*%
%ADD103C,0.06299*%
G04:AMPARAMS|DCode=104|XSize=62.99mil|YSize=62.99mil|CornerRadius=9.45mil|HoleSize=0mil|Usage=FLASHONLY|Rotation=90.000|XOffset=0mil|YOffset=0mil|HoleType=Round|Shape=RoundedRectangle|*
%AMROUNDEDRECTD104*
21,1,0.06299,0.04409,0,0,90.0*
21,1,0.04409,0.06299,0,0,90.0*
1,1,0.01890,0.02205,0.02205*
1,1,0.01890,0.02205,-0.02205*
1,1,0.01890,-0.02205,-0.02205*
1,1,0.01890,-0.02205,0.02205*
%
%ADD104ROUNDEDRECTD104*%
G04:AMPARAMS|DCode=105|XSize=74.8mil|YSize=74.8mil|CornerRadius=11.22mil|HoleSize=0mil|Usage=FLASHONLY|Rotation=270.000|XOffset=0mil|YOffset=0mil|HoleType=Round|Shape=RoundedRectangle|*
%AMROUNDEDRECTD105*
21,1,0.07480,0.05236,0,0,270.0*
21,1,0.05236,0.07480,0,0,270.0*
1,1,0.02244,-0.02618,-0.02618*
1,1,0.02244,-0.02618,0.02618*
1,1,0.02244,0.02618,0.02618*
1,1,0.02244,0.02618,-0.02618*
%
%ADD105ROUNDEDRECTD105*%
G36*
X0255630Y0491339D02*
X0258227Y0490898D01*
X0260757Y0490169D01*
X0263191Y0489161D01*
X0265496Y0487887D01*
X0267644Y0486363D01*
X0269608Y0484608D01*
X0271363Y0482644D01*
X0272887Y0480496D01*
X0274161Y0478191D01*
X0275169Y0475757D01*
X0275899Y0473226D01*
X0276340Y0470630D01*
X0276462Y0468451D01*
X0276372Y0468000D01*
Y0448630D01*
X0275814Y0448488D01*
X0275472Y0449315D01*
X0274927Y0450025D01*
X0274216Y0450570D01*
X0273389Y0450913D01*
X0272502Y0451029D01*
X0267902D01*
Y0442000D01*
Y0432971D01*
X0272502D01*
X0273389Y0433087D01*
X0274216Y0433430D01*
X0274927Y0433975D01*
X0275472Y0434685D01*
X0275814Y0435512D01*
X0276372Y0435370D01*
Y0251692D01*
X0275772Y0251489D01*
X0275398Y0251976D01*
X0269353Y0258022D01*
X0268622Y0258583D01*
X0267770Y0258935D01*
X0266857Y0259056D01*
X0265532D01*
X0265283Y0259381D01*
X0264292Y0260140D01*
X0263139Y0260618D01*
X0262537Y0260697D01*
Y0261303D01*
X0263139Y0261382D01*
X0264292Y0261859D01*
X0265283Y0262619D01*
X0266042Y0263610D01*
X0266520Y0264763D01*
X0266683Y0266000D01*
X0266520Y0267237D01*
X0266042Y0268390D01*
X0265283Y0269381D01*
X0264292Y0270141D01*
X0263139Y0270618D01*
X0262537Y0270697D01*
Y0271303D01*
X0263139Y0271382D01*
X0264292Y0271860D01*
X0265283Y0272619D01*
X0266042Y0273609D01*
X0266520Y0274763D01*
X0266683Y0276000D01*
X0266520Y0277237D01*
X0266042Y0278391D01*
X0265283Y0279381D01*
X0264292Y0280140D01*
X0263139Y0280618D01*
X0262537Y0280697D01*
Y0281303D01*
X0263139Y0281382D01*
X0264292Y0281859D01*
X0265283Y0282619D01*
X0266042Y0283610D01*
X0266520Y0284763D01*
X0266683Y0286000D01*
X0266520Y0287237D01*
X0266042Y0288390D01*
X0265283Y0289381D01*
X0264292Y0290141D01*
X0263139Y0290618D01*
X0262537Y0290697D01*
Y0291303D01*
X0263139Y0291382D01*
X0264292Y0291860D01*
X0265283Y0292619D01*
X0266042Y0293609D01*
X0266520Y0294763D01*
X0266683Y0296000D01*
X0266520Y0297237D01*
X0266042Y0298391D01*
X0265283Y0299381D01*
X0264292Y0300141D01*
X0263139Y0300618D01*
X0262537Y0300697D01*
Y0301303D01*
X0263139Y0301382D01*
X0264292Y0301859D01*
X0265283Y0302619D01*
X0266042Y0303609D01*
X0266520Y0304763D01*
X0266683Y0306000D01*
X0266520Y0307237D01*
X0266042Y0308390D01*
X0265283Y0309381D01*
X0264292Y0310140D01*
X0263139Y0310618D01*
X0262537Y0310697D01*
Y0311303D01*
X0263139Y0311382D01*
X0264292Y0311859D01*
X0265283Y0312619D01*
X0266042Y0313610D01*
X0266520Y0314763D01*
X0266683Y0316000D01*
X0266520Y0317237D01*
X0266042Y0318390D01*
X0265283Y0319381D01*
X0264292Y0320141D01*
X0263139Y0320618D01*
X0262537Y0320697D01*
Y0321303D01*
X0263139Y0321382D01*
X0264292Y0321860D01*
X0265283Y0322619D01*
X0266042Y0323609D01*
X0266520Y0324763D01*
X0266683Y0326000D01*
X0266520Y0327237D01*
X0266042Y0328391D01*
X0265283Y0329381D01*
X0264292Y0330140D01*
X0263139Y0330618D01*
X0262537Y0330697D01*
Y0331303D01*
X0263139Y0331382D01*
X0264292Y0331859D01*
X0265283Y0332619D01*
X0266042Y0333610D01*
X0266520Y0334763D01*
X0266683Y0336000D01*
X0266520Y0337237D01*
X0266042Y0338390D01*
X0265283Y0339381D01*
X0264292Y0340141D01*
X0263139Y0340618D01*
X0262537Y0340697D01*
Y0341303D01*
X0263139Y0341382D01*
X0264292Y0341860D01*
X0265283Y0342619D01*
X0266042Y0343609D01*
X0266520Y0344763D01*
X0266683Y0346000D01*
X0266520Y0347237D01*
X0266042Y0348391D01*
X0265283Y0349381D01*
X0264292Y0350141D01*
X0263139Y0350618D01*
X0262537Y0350697D01*
Y0351303D01*
X0263139Y0351382D01*
X0264292Y0351859D01*
X0265283Y0352619D01*
X0266042Y0353609D01*
X0266520Y0354763D01*
X0266683Y0356000D01*
X0266520Y0357237D01*
X0266042Y0358390D01*
X0265283Y0359381D01*
X0264292Y0360140D01*
X0263139Y0360618D01*
X0262537Y0360697D01*
Y0361303D01*
X0263139Y0361382D01*
X0264292Y0361859D01*
X0265283Y0362619D01*
X0266042Y0363610D01*
X0266520Y0364763D01*
X0266617Y0365500D01*
X0261902D01*
Y0366000D01*
X0261402D01*
Y0370715D01*
X0260664Y0370618D01*
X0259511Y0370141D01*
X0258521Y0369381D01*
X0257761Y0368390D01*
X0257284Y0367237D01*
X0257283Y0367236D01*
X0256683Y0367276D01*
Y0368618D01*
X0256519Y0369446D01*
X0256050Y0370148D01*
X0255348Y0370617D01*
X0254520Y0370782D01*
X0252402D01*
Y0366000D01*
X0251902D01*
Y0365500D01*
X0247120D01*
Y0363382D01*
X0247285Y0362554D01*
X0247754Y0361852D01*
X0248456Y0361383D01*
X0249284Y0361218D01*
X0250626D01*
X0250665Y0360618D01*
X0250664Y0360618D01*
X0249511Y0360140D01*
X0248521Y0359381D01*
X0247761Y0358390D01*
X0247284Y0357237D01*
X0247121Y0356000D01*
X0247284Y0354763D01*
X0247761Y0353609D01*
X0248521Y0352619D01*
X0249511Y0351859D01*
X0250664Y0351382D01*
X0251266Y0351303D01*
Y0350697D01*
X0250664Y0350618D01*
X0249511Y0350141D01*
X0248521Y0349381D01*
X0247761Y0348391D01*
X0247284Y0347237D01*
X0247121Y0346000D01*
X0247284Y0344763D01*
X0247761Y0343609D01*
X0248521Y0342619D01*
X0249511Y0341860D01*
X0250664Y0341382D01*
X0251266Y0341303D01*
Y0340697D01*
X0250664Y0340618D01*
X0249511Y0340141D01*
X0248521Y0339381D01*
X0247761Y0338390D01*
X0247284Y0337237D01*
X0247121Y0336000D01*
X0247284Y0334763D01*
X0247761Y0333610D01*
X0248521Y0332619D01*
X0249511Y0331859D01*
X0250664Y0331382D01*
X0251266Y0331303D01*
Y0330697D01*
X0250664Y0330618D01*
X0249511Y0330140D01*
X0248521Y0329381D01*
X0247761Y0328391D01*
X0247284Y0327237D01*
X0247121Y0326000D01*
X0247284Y0324763D01*
X0247761Y0323609D01*
X0248521Y0322619D01*
X0249511Y0321860D01*
X0250664Y0321382D01*
X0251266Y0321303D01*
Y0320697D01*
X0250664Y0320618D01*
X0249511Y0320141D01*
X0248521Y0319381D01*
X0247761Y0318390D01*
X0247284Y0317237D01*
X0247121Y0316000D01*
X0247284Y0314763D01*
X0247761Y0313610D01*
X0248521Y0312619D01*
X0249511Y0311859D01*
X0250664Y0311382D01*
X0251266Y0311303D01*
Y0310697D01*
X0250664Y0310618D01*
X0249511Y0310140D01*
X0248521Y0309381D01*
X0247761Y0308390D01*
X0247284Y0307237D01*
X0247121Y0306000D01*
X0247284Y0304763D01*
X0247761Y0303609D01*
X0248521Y0302619D01*
X0249511Y0301859D01*
X0250664Y0301382D01*
X0251266Y0301303D01*
Y0300697D01*
X0250664Y0300618D01*
X0249511Y0300141D01*
X0248521Y0299381D01*
X0247761Y0298391D01*
X0247284Y0297237D01*
X0247121Y0296000D01*
X0247284Y0294763D01*
X0247761Y0293609D01*
X0248521Y0292619D01*
X0249511Y0291860D01*
X0250664Y0291382D01*
X0251266Y0291303D01*
Y0290697D01*
X0250664Y0290618D01*
X0249511Y0290141D01*
X0248521Y0289381D01*
X0247761Y0288390D01*
X0247284Y0287237D01*
X0247121Y0286000D01*
X0247284Y0284763D01*
X0247761Y0283610D01*
X0248521Y0282619D01*
X0249511Y0281859D01*
X0250664Y0281382D01*
X0251266Y0281303D01*
Y0280697D01*
X0250664Y0280618D01*
X0249511Y0280140D01*
X0248521Y0279381D01*
X0247761Y0278391D01*
X0247284Y0277237D01*
X0247121Y0276000D01*
X0247284Y0274763D01*
X0247761Y0273609D01*
X0248521Y0272619D01*
X0249511Y0271860D01*
X0250664Y0271382D01*
X0251266Y0271303D01*
Y0270697D01*
X0250664Y0270618D01*
X0249511Y0270141D01*
X0248521Y0269381D01*
X0247761Y0268390D01*
X0247284Y0267237D01*
X0247121Y0266000D01*
X0247284Y0264763D01*
X0247761Y0263610D01*
X0248521Y0262619D01*
X0249511Y0261859D01*
X0250664Y0261382D01*
X0251266Y0261303D01*
Y0260697D01*
X0250664Y0260618D01*
X0249511Y0260140D01*
X0248521Y0259381D01*
X0247761Y0258390D01*
X0247284Y0257237D01*
X0247121Y0256000D01*
X0247284Y0254763D01*
X0247761Y0253609D01*
X0248521Y0252619D01*
X0249511Y0251859D01*
X0250664Y0251382D01*
X0251266Y0251303D01*
Y0250697D01*
X0250664Y0250618D01*
X0249511Y0250141D01*
X0248521Y0249381D01*
X0247761Y0248391D01*
X0247284Y0247237D01*
X0247121Y0246000D01*
X0247284Y0244763D01*
X0247761Y0243609D01*
X0248521Y0242619D01*
X0249511Y0241860D01*
X0250664Y0241382D01*
X0251902Y0241219D01*
X0253139Y0241382D01*
X0254292Y0241860D01*
X0255282Y0242619D01*
X0256042Y0243609D01*
X0256520Y0244763D01*
X0256599Y0245365D01*
X0257204D01*
X0257284Y0244763D01*
X0257761Y0243609D01*
X0258521Y0242619D01*
X0259511Y0241860D01*
X0260664Y0241382D01*
X0261902Y0241219D01*
X0263139Y0241382D01*
X0264292Y0241860D01*
X0265283Y0242619D01*
X0266042Y0243609D01*
X0266520Y0244763D01*
X0266683Y0246000D01*
X0266520Y0247237D01*
X0266042Y0248391D01*
X0265283Y0249381D01*
X0264292Y0250141D01*
X0263139Y0250618D01*
X0262537Y0250697D01*
Y0251303D01*
X0263139Y0251382D01*
X0264292Y0251859D01*
X0264469Y0251995D01*
X0265394D01*
X0269372Y0248018D01*
Y0226962D01*
X0263439Y0221030D01*
X0246902D01*
X0246652Y0220997D01*
X0246402Y0221030D01*
X0245488Y0220910D01*
X0244927Y0220678D01*
X0244327Y0221032D01*
Y0373351D01*
X0247039Y0376063D01*
X0247326Y0376493D01*
X0247427Y0377000D01*
X0247326Y0377507D01*
X0247227Y0377656D01*
Y0394951D01*
X0260599Y0408323D01*
X0261664Y0407882D01*
X0262902Y0407719D01*
X0264139Y0407882D01*
X0265292Y0408359D01*
X0266283Y0409119D01*
X0267042Y0410110D01*
X0267520Y0411263D01*
X0267683Y0412500D01*
X0267520Y0413737D01*
X0267042Y0414890D01*
X0266283Y0415881D01*
X0265292Y0416641D01*
X0264139Y0417118D01*
X0262902Y0417281D01*
X0261664Y0417118D01*
X0260511Y0416641D01*
X0259521Y0415881D01*
X0258761Y0414890D01*
X0258284Y0413737D01*
X0258204Y0413135D01*
X0257599D01*
X0257520Y0413737D01*
X0257042Y0414890D01*
X0256282Y0415881D01*
X0255292Y0416641D01*
X0254139Y0417118D01*
X0252902Y0417281D01*
X0251664Y0417118D01*
X0250511Y0416641D01*
X0249521Y0415881D01*
X0248761Y0414890D01*
X0248284Y0413737D01*
X0248204Y0413135D01*
X0247599D01*
X0247520Y0413737D01*
X0247042Y0414890D01*
X0246283Y0415881D01*
X0245292Y0416641D01*
X0244139Y0417118D01*
X0242902Y0417281D01*
X0241664Y0417118D01*
X0240511Y0416641D01*
X0239521Y0415881D01*
X0238761Y0414890D01*
X0238284Y0413737D01*
X0238204Y0413135D01*
X0237599D01*
X0237520Y0413737D01*
X0237042Y0414890D01*
X0236282Y0415881D01*
X0235292Y0416641D01*
X0234139Y0417118D01*
X0232902Y0417281D01*
X0231664Y0417118D01*
X0230511Y0416641D01*
X0229521Y0415881D01*
X0228761Y0414890D01*
X0228284Y0413737D01*
X0228204Y0413135D01*
X0227599D01*
X0227520Y0413737D01*
X0227042Y0414890D01*
X0226283Y0415881D01*
X0225292Y0416641D01*
X0224139Y0417118D01*
X0222902Y0417281D01*
X0221664Y0417118D01*
X0220511Y0416641D01*
X0219521Y0415881D01*
X0218761Y0414890D01*
X0218284Y0413737D01*
X0218204Y0413135D01*
X0217599D01*
X0217520Y0413737D01*
X0217042Y0414890D01*
X0216283Y0415881D01*
X0215292Y0416641D01*
X0214139Y0417118D01*
X0212902Y0417281D01*
X0211664Y0417118D01*
X0210511Y0416641D01*
X0209521Y0415881D01*
X0208761Y0414890D01*
X0208284Y0413737D01*
X0208204Y0413135D01*
X0207599D01*
X0207520Y0413737D01*
X0207042Y0414890D01*
X0206282Y0415881D01*
X0205292Y0416641D01*
X0204139Y0417118D01*
X0202902Y0417281D01*
X0201664Y0417118D01*
X0200511Y0416641D01*
X0199521Y0415881D01*
X0198761Y0414890D01*
X0198284Y0413737D01*
X0198204Y0413135D01*
X0197599D01*
X0197520Y0413737D01*
X0197042Y0414890D01*
X0196282Y0415881D01*
X0195292Y0416641D01*
X0194139Y0417118D01*
X0193402Y0417215D01*
Y0412500D01*
Y0407785D01*
X0194139Y0407882D01*
X0195292Y0408359D01*
X0196282Y0409119D01*
X0197042Y0410110D01*
X0197520Y0411263D01*
X0197599Y0411865D01*
X0198204D01*
X0198284Y0411263D01*
X0198761Y0410110D01*
X0199521Y0409119D01*
X0200511Y0408359D01*
X0201664Y0407882D01*
X0202902Y0407719D01*
X0204139Y0407882D01*
X0205292Y0408359D01*
X0206282Y0409119D01*
X0207042Y0410110D01*
X0207520Y0411263D01*
X0207599Y0411865D01*
X0208204D01*
X0208284Y0411263D01*
X0208761Y0410110D01*
X0209521Y0409119D01*
X0210511Y0408359D01*
X0211664Y0407882D01*
X0212902Y0407719D01*
X0214139Y0407882D01*
X0215292Y0408359D01*
X0216283Y0409119D01*
X0217042Y0410110D01*
X0217520Y0411263D01*
X0217599Y0411865D01*
X0218204D01*
X0218284Y0411263D01*
X0218761Y0410110D01*
X0219521Y0409119D01*
X0220511Y0408359D01*
X0221664Y0407882D01*
X0222902Y0407719D01*
X0224139Y0407882D01*
X0225292Y0408359D01*
X0226283Y0409119D01*
X0227042Y0410110D01*
X0227520Y0411263D01*
X0227599Y0411865D01*
X0228204D01*
X0228284Y0411263D01*
X0228761Y0410110D01*
X0229521Y0409119D01*
X0230511Y0408359D01*
X0231664Y0407882D01*
X0232902Y0407719D01*
X0234139Y0407882D01*
X0235292Y0408359D01*
X0236282Y0409119D01*
X0237042Y0410110D01*
X0237520Y0411263D01*
X0237599Y0411865D01*
X0238204D01*
X0238284Y0411263D01*
X0238761Y0410110D01*
X0239521Y0409119D01*
X0240511Y0408359D01*
X0241664Y0407882D01*
X0242902Y0407719D01*
X0244139Y0407882D01*
X0245292Y0408359D01*
X0246283Y0409119D01*
X0247042Y0410110D01*
X0247520Y0411263D01*
X0247599Y0411865D01*
X0248204D01*
X0248284Y0411263D01*
X0248761Y0410110D01*
X0249521Y0409119D01*
X0250511Y0408359D01*
X0251664Y0407882D01*
X0252902Y0407719D01*
X0254139Y0407882D01*
X0255292Y0408359D01*
X0256282Y0409119D01*
X0257042Y0410110D01*
X0257520Y0411263D01*
X0257599Y0411865D01*
X0258204D01*
X0258284Y0411263D01*
X0258725Y0410197D01*
X0244965Y0396437D01*
X0244677Y0396007D01*
X0244576Y0395500D01*
Y0378525D01*
X0209506D01*
X0209474Y0378573D01*
X0208753Y0379055D01*
X0207902Y0379224D01*
X0207051Y0379055D01*
X0206329Y0378573D01*
X0205847Y0377851D01*
X0205678Y0377000D01*
X0205847Y0376149D01*
X0206329Y0375428D01*
X0207051Y0374945D01*
X0207902Y0374776D01*
X0208753Y0374945D01*
X0209396Y0375375D01*
X0209483Y0375386D01*
X0209736Y0375108D01*
X0209766Y0375039D01*
X0209827Y0374749D01*
X0209678Y0374000D01*
X0209847Y0373149D01*
X0209997Y0372925D01*
X0209676Y0372325D01*
X0201889D01*
X0201724Y0372572D01*
X0201003Y0373055D01*
X0200152Y0373224D01*
X0199301Y0373055D01*
X0198579Y0372572D01*
X0198097Y0371851D01*
X0197928Y0371000D01*
X0198097Y0370149D01*
X0198579Y0369427D01*
X0199301Y0368945D01*
X0200152Y0368776D01*
X0201003Y0368945D01*
X0201724Y0369427D01*
X0201889Y0369674D01*
X0229549D01*
X0231663Y0367560D01*
X0231606Y0367269D01*
X0231775Y0366418D01*
X0232257Y0365696D01*
X0232978Y0365214D01*
X0233829Y0365045D01*
X0234121Y0365103D01*
X0239276Y0359947D01*
Y0336349D01*
X0238676Y0336100D01*
X0216463Y0358313D01*
X0216474Y0358428D01*
X0216956Y0359149D01*
X0217126Y0360000D01*
X0216956Y0360851D01*
X0216474Y0361573D01*
X0215753Y0362055D01*
X0214902Y0362224D01*
X0214051Y0362055D01*
X0213329Y0361573D01*
X0212847Y0360851D01*
X0212678Y0360000D01*
X0212847Y0359149D01*
X0213329Y0358428D01*
X0213576Y0358262D01*
Y0358000D01*
X0213677Y0357493D01*
X0213965Y0357063D01*
X0236976Y0334051D01*
Y0210794D01*
X0237077Y0210287D01*
X0237365Y0209857D01*
X0239976Y0207245D01*
Y0191275D01*
X0239376Y0191216D01*
X0239374Y0191229D01*
X0238892Y0191950D01*
X0238170Y0192432D01*
X0237319Y0192602D01*
X0236468Y0192432D01*
X0235747Y0191950D01*
X0235264Y0191229D01*
X0235095Y0190378D01*
X0235264Y0189527D01*
X0235747Y0188805D01*
X0236468Y0188323D01*
X0237319Y0188154D01*
X0238170Y0188323D01*
X0238892Y0188805D01*
X0239374Y0189527D01*
X0239376Y0189540D01*
X0239976Y0189481D01*
Y0164218D01*
X0239376Y0164099D01*
X0239214Y0164490D01*
X0238423Y0165521D01*
X0237392Y0166313D01*
X0236191Y0166810D01*
X0235402Y0166914D01*
Y0162000D01*
X0234902D01*
Y0161500D01*
X0229988D01*
X0230092Y0160711D01*
X0230589Y0159510D01*
X0231381Y0158479D01*
X0232412Y0157687D01*
X0233613Y0157190D01*
X0234902Y0157020D01*
X0235150Y0157053D01*
X0235438Y0156486D01*
X0235068Y0155932D01*
X0234898Y0155081D01*
X0235068Y0154230D01*
X0235391Y0153746D01*
X0235511Y0153349D01*
X0235400Y0152887D01*
X0235090Y0152425D01*
X0234921Y0151574D01*
X0235090Y0150723D01*
X0235573Y0150001D01*
X0236294Y0149519D01*
X0237145Y0149350D01*
X0237996Y0149519D01*
X0238718Y0150001D01*
X0238882Y0150248D01*
X0239475D01*
X0239983Y0150349D01*
X0240413Y0150636D01*
X0243022Y0153246D01*
X0243576Y0153016D01*
Y0151549D01*
X0239735Y0147707D01*
X0238368D01*
X0238203Y0147954D01*
X0237481Y0148436D01*
X0236630Y0148606D01*
X0235779Y0148436D01*
X0235058Y0147954D01*
X0234576Y0147233D01*
X0234406Y0146382D01*
X0234576Y0145531D01*
X0235058Y0144809D01*
X0235779Y0144327D01*
X0236406Y0144203D01*
X0236713Y0143805D01*
X0236767Y0143574D01*
X0236623Y0142851D01*
X0236793Y0142000D01*
X0237144Y0141474D01*
X0236747Y0140989D01*
X0236191Y0141219D01*
X0235402Y0141323D01*
Y0136909D01*
X0239815D01*
X0239712Y0137698D01*
X0239214Y0138899D01*
X0238423Y0139931D01*
X0238125Y0140159D01*
X0238379Y0140720D01*
X0238847Y0140627D01*
X0239698Y0140796D01*
X0240420Y0141279D01*
X0240585Y0141525D01*
X0241753D01*
X0242260Y0141626D01*
X0242690Y0141914D01*
X0247039Y0146263D01*
X0247326Y0146693D01*
X0247427Y0147200D01*
Y0208492D01*
X0247329Y0208987D01*
X0247326Y0209004D01*
X0247325Y0209090D01*
X0247580Y0209700D01*
X0248167Y0209943D01*
X0248898Y0210504D01*
X0249459Y0211235D01*
X0249812Y0212086D01*
X0249932Y0213000D01*
Y0213970D01*
X0264902D01*
X0265815Y0214090D01*
X0266667Y0214443D01*
X0267398Y0215004D01*
X0275398Y0223004D01*
X0275772Y0223492D01*
X0276372Y0223288D01*
Y0147825D01*
X0275772Y0147337D01*
X0275521Y0147387D01*
X0269902D01*
Y0142905D01*
Y0138424D01*
X0275521D01*
X0275772Y0138474D01*
X0276372Y0137986D01*
Y0126014D01*
X0275772Y0125526D01*
X0275521Y0125576D01*
X0269902D01*
Y0121095D01*
Y0116613D01*
X0275521D01*
X0275772Y0116663D01*
X0276372Y0116175D01*
Y0108825D01*
X0275772Y0108337D01*
X0275521Y0108387D01*
X0269902D01*
Y0103905D01*
Y0099424D01*
X0275521D01*
X0275772Y0099474D01*
X0276372Y0098986D01*
Y0087014D01*
X0275772Y0086526D01*
X0275521Y0086576D01*
X0269902D01*
Y0082095D01*
Y0077613D01*
X0275521D01*
X0275772Y0077663D01*
X0276372Y0077175D01*
Y0059362D01*
X0275772Y0059143D01*
X0275216Y0059570D01*
X0274389Y0059913D01*
X0273502Y0060029D01*
X0268902D01*
Y0051000D01*
Y0041971D01*
X0273502D01*
X0274389Y0042088D01*
X0275216Y0042430D01*
X0275772Y0042857D01*
X0276372Y0042638D01*
Y0025098D01*
X0276466Y0024626D01*
X0276340Y0022370D01*
X0275899Y0019774D01*
X0275169Y0017243D01*
X0274161Y0014809D01*
X0272887Y0012504D01*
X0271363Y0010356D01*
X0269608Y0008392D01*
X0267644Y0006637D01*
X0265496Y0005113D01*
X0263191Y0003839D01*
X0260757Y0002831D01*
X0258227Y0002102D01*
X0255630Y0001660D01*
X0253065Y0001517D01*
X0253000Y0001529D01*
X0025099D01*
X0025021Y0001514D01*
X0025000Y0001513D01*
X0022370Y0001660D01*
X0019774Y0002102D01*
X0017243Y0002831D01*
X0014809Y0003839D01*
X0012504Y0005113D01*
X0010356Y0006637D01*
X0008392Y0008392D01*
X0006637Y0010356D01*
X0005113Y0012504D01*
X0003839Y0014809D01*
X0002831Y0017243D01*
X0002102Y0019774D01*
X0001661Y0022370D01*
X0001514Y0024984D01*
X0001529Y0025000D01*
X0001529D01*
X0001431Y0025494D01*
Y0045370D01*
X0001989Y0045512D01*
X0002332Y0044685D01*
X0002877Y0043975D01*
X0003587Y0043430D01*
X0004414Y0043088D01*
X0005302Y0042971D01*
X0009902D01*
Y0052000D01*
Y0061029D01*
X0005302D01*
X0004414Y0060913D01*
X0003587Y0060570D01*
X0002877Y0060025D01*
X0002332Y0059315D01*
X0001989Y0058488D01*
X0001431Y0058630D01*
Y0434370D01*
X0001989Y0434512D01*
X0002332Y0433685D01*
X0002877Y0432975D01*
X0003587Y0432430D01*
X0004414Y0432088D01*
X0005302Y0431971D01*
X0009902D01*
Y0441000D01*
Y0450029D01*
X0005302D01*
X0004414Y0449913D01*
X0003587Y0449570D01*
X0002877Y0449025D01*
X0002332Y0448315D01*
X0001989Y0447488D01*
X0001431Y0447630D01*
Y0467902D01*
X0001416Y0467979D01*
X0001415Y0468000D01*
X0001562Y0470630D01*
X0002004Y0473226D01*
X0002733Y0475757D01*
X0003741Y0478191D01*
X0005015Y0480496D01*
X0006539Y0482644D01*
X0008294Y0484608D01*
X0010258Y0486363D01*
X0012406Y0487887D01*
X0014711Y0489161D01*
X0017144Y0490169D01*
X0019675Y0490898D01*
X0022272Y0491339D01*
X0024837Y0491483D01*
X0024902Y0491471D01*
X0252902D01*
X0252979Y0491486D01*
X0253000Y0491487D01*
X0255630Y0491339D01*
D02*
G37*
%LPC*%
G36*
X0155402Y0489078D02*
X0151819D01*
X0151129Y0488941D01*
X0150545Y0488550D01*
X0150154Y0487965D01*
X0150017Y0487276D01*
Y0483500D01*
X0145787D01*
Y0487276D01*
X0145650Y0487965D01*
X0145259Y0488550D01*
X0144674Y0488941D01*
X0143984Y0489078D01*
X0140402D01*
X0139712Y0488941D01*
X0139127Y0488550D01*
X0138737Y0487965D01*
X0138599Y0487276D01*
Y0483500D01*
X0130902D01*
Y0453000D01*
X0163902D01*
X0164402Y0453500D01*
Y0483500D01*
X0157204D01*
Y0487276D01*
X0157067Y0487965D01*
X0156676Y0488550D01*
X0156091Y0488941D01*
X0155402Y0489078D01*
D02*
G37*
G36*
X0051870Y0488100D02*
X0041870D01*
Y0458100D01*
X0041702D01*
Y0448100D01*
X0051870D01*
Y0488100D01*
D02*
G37*
G36*
X0228768Y0462049D02*
X0227105Y0461885D01*
X0225507Y0461400D01*
X0224034Y0460613D01*
X0222742Y0459553D01*
X0221683Y0458262D01*
X0220895Y0456788D01*
X0220410Y0455190D01*
X0220247Y0453528D01*
X0220410Y0451865D01*
X0220895Y0450267D01*
X0221683Y0448793D01*
X0222742Y0447502D01*
X0224034Y0446442D01*
X0225507Y0445655D01*
X0227105Y0445170D01*
X0228768Y0445006D01*
X0230430Y0445170D01*
X0232029Y0445655D01*
X0233502Y0446442D01*
X0234793Y0447502D01*
X0235853Y0448793D01*
X0236641Y0450267D01*
X0237125Y0451865D01*
X0237289Y0453528D01*
X0237125Y0455190D01*
X0236641Y0456788D01*
X0235853Y0458262D01*
X0234793Y0459553D01*
X0233502Y0460613D01*
X0232029Y0461400D01*
X0230430Y0461885D01*
X0228768Y0462049D01*
D02*
G37*
G36*
X0177036D02*
X0175373Y0461885D01*
X0173775Y0461400D01*
X0172301Y0460613D01*
X0171010Y0459553D01*
X0169950Y0458262D01*
X0169163Y0456788D01*
X0168678Y0455190D01*
X0168514Y0453528D01*
X0168678Y0451865D01*
X0169163Y0450267D01*
X0169950Y0448793D01*
X0171010Y0447502D01*
X0172301Y0446442D01*
X0173775Y0445655D01*
X0175373Y0445170D01*
X0177036Y0445006D01*
X0178698Y0445170D01*
X0180297Y0445655D01*
X0181770Y0446442D01*
X0183061Y0447502D01*
X0184121Y0448793D01*
X0184908Y0450267D01*
X0185393Y0451865D01*
X0185557Y0453528D01*
X0185393Y0455190D01*
X0184908Y0456788D01*
X0184121Y0458262D01*
X0183061Y0459553D01*
X0181770Y0460613D01*
X0180297Y0461400D01*
X0178698Y0461885D01*
X0177036Y0462049D01*
D02*
G37*
G36*
X0206839Y0447044D02*
X0205755Y0446901D01*
X0204746Y0446483D01*
X0203879Y0445818D01*
X0203230Y0444972D01*
X0202906Y0444921D01*
X0202898D01*
X0202573Y0444972D01*
X0201924Y0445818D01*
X0201058Y0446483D01*
X0200048Y0446901D01*
X0198965Y0447044D01*
X0197881Y0446901D01*
X0196872Y0446483D01*
X0196005Y0445818D01*
X0195340Y0444951D01*
X0194922Y0443941D01*
X0194779Y0442858D01*
X0194922Y0441775D01*
X0195340Y0440766D01*
X0196005Y0439899D01*
X0196872Y0439234D01*
X0197881Y0438815D01*
X0198965Y0438673D01*
X0200048Y0438815D01*
X0201058Y0439234D01*
X0201924Y0439899D01*
X0202573Y0440745D01*
X0202898Y0440795D01*
X0202906D01*
X0203230Y0440745D01*
X0203879Y0439899D01*
X0204746Y0439234D01*
X0205755Y0438815D01*
X0206839Y0438673D01*
X0207922Y0438815D01*
X0208931Y0439234D01*
X0209798Y0439899D01*
X0210463Y0440766D01*
X0210882Y0441775D01*
X0211024Y0442858D01*
X0210882Y0443941D01*
X0210463Y0444951D01*
X0209798Y0445818D01*
X0208931Y0446483D01*
X0207922Y0446901D01*
X0206839Y0447044D01*
D02*
G37*
G36*
X0118603Y0460970D02*
X0116940Y0460806D01*
X0115342Y0460322D01*
X0113868Y0459534D01*
X0112577Y0458474D01*
X0111517Y0457183D01*
X0110730Y0455710D01*
X0110245Y0454111D01*
X0110081Y0452449D01*
X0110245Y0450786D01*
X0110730Y0449188D01*
X0111517Y0447715D01*
X0112577Y0446423D01*
X0113868Y0445364D01*
X0115342Y0444576D01*
X0116940Y0444091D01*
X0118603Y0443927D01*
X0120265Y0444091D01*
X0121863Y0444576D01*
X0123337Y0445364D01*
X0124628Y0446423D01*
X0125688Y0447715D01*
X0126475Y0449188D01*
X0126960Y0450786D01*
X0127124Y0452449D01*
X0126960Y0454111D01*
X0126475Y0455710D01*
X0125688Y0457183D01*
X0124628Y0458474D01*
X0123337Y0459534D01*
X0121863Y0460322D01*
X0120265Y0460806D01*
X0118603Y0460970D01*
D02*
G37*
G36*
X0071201D02*
X0069538Y0460806D01*
X0067940Y0460322D01*
X0066467Y0459534D01*
X0065175Y0458474D01*
X0064116Y0457183D01*
X0063328Y0455710D01*
X0062843Y0454111D01*
X0062680Y0452449D01*
X0062843Y0450786D01*
X0063328Y0449188D01*
X0064116Y0447715D01*
X0065175Y0446423D01*
X0066467Y0445364D01*
X0067940Y0444576D01*
X0069538Y0444091D01*
X0071201Y0443927D01*
X0072863Y0444091D01*
X0074462Y0444576D01*
X0075935Y0445364D01*
X0077227Y0446423D01*
X0078286Y0447715D01*
X0079074Y0449188D01*
X0079559Y0450786D01*
X0079722Y0452449D01*
X0079559Y0454111D01*
X0079074Y0455710D01*
X0078286Y0457183D01*
X0077227Y0458474D01*
X0075935Y0459534D01*
X0074462Y0460322D01*
X0072863Y0460806D01*
X0071201Y0460970D01*
D02*
G37*
G36*
X0189622Y0446978D02*
Y0443358D01*
X0193242D01*
X0193165Y0443941D01*
X0192747Y0444951D01*
X0192082Y0445818D01*
X0191215Y0446483D01*
X0190206Y0446901D01*
X0189622Y0446978D01*
D02*
G37*
G36*
X0188622Y0446978D02*
X0188039Y0446901D01*
X0187030Y0446483D01*
X0186163Y0445818D01*
X0185498Y0444951D01*
X0185079Y0443941D01*
X0185003Y0443358D01*
X0188622D01*
Y0446978D01*
D02*
G37*
G36*
X0265902Y0451029D02*
X0261302D01*
X0260414Y0450913D01*
X0259587Y0450570D01*
X0258877Y0450025D01*
X0258332Y0449315D01*
X0257989Y0448488D01*
X0257872Y0447600D01*
Y0443000D01*
X0265902D01*
Y0451029D01*
D02*
G37*
G36*
X0090481Y0445899D02*
Y0442279D01*
X0094100D01*
X0094023Y0442863D01*
X0093605Y0443872D01*
X0092940Y0444739D01*
X0092073Y0445404D01*
X0091064Y0445822D01*
X0090481Y0445899D01*
D02*
G37*
G36*
X0089481Y0445899D02*
X0088897Y0445822D01*
X0087888Y0445404D01*
X0087021Y0444739D01*
X0086356Y0443872D01*
X0085938Y0442863D01*
X0085861Y0442279D01*
X0089481D01*
Y0445899D01*
D02*
G37*
G36*
X0016502Y0450029D02*
X0011902D01*
Y0442000D01*
X0019931D01*
Y0446600D01*
X0019814Y0447488D01*
X0019472Y0448315D01*
X0018927Y0449025D01*
X0018216Y0449570D01*
X0017389Y0449913D01*
X0016502Y0450029D01*
D02*
G37*
G36*
X0147902Y0443224D02*
X0147051Y0443055D01*
X0146329Y0442572D01*
X0145847Y0441851D01*
X0145678Y0441000D01*
X0145847Y0440149D01*
X0146329Y0439428D01*
X0147051Y0438945D01*
X0147902Y0438776D01*
X0148753Y0438945D01*
X0149474Y0439428D01*
X0149956Y0440149D01*
X0150126Y0441000D01*
X0149956Y0441851D01*
X0149474Y0442572D01*
X0148753Y0443055D01*
X0147902Y0443224D01*
D02*
G37*
G36*
X0193242Y0442358D02*
X0189622D01*
Y0438739D01*
X0190206Y0438815D01*
X0191215Y0439234D01*
X0192082Y0439899D01*
X0192747Y0440766D01*
X0193165Y0441775D01*
X0193242Y0442358D01*
D02*
G37*
G36*
X0188622D02*
X0185003D01*
X0185079Y0441775D01*
X0185498Y0440766D01*
X0186163Y0439899D01*
X0187030Y0439234D01*
X0188039Y0438815D01*
X0188622Y0438739D01*
Y0442358D01*
D02*
G37*
G36*
X0218886Y0447046D02*
X0214477D01*
X0213718Y0446895D01*
X0213074Y0446465D01*
X0212645Y0445822D01*
X0212494Y0445063D01*
Y0440654D01*
X0212645Y0439895D01*
X0213074Y0439251D01*
X0213718Y0438822D01*
X0214477Y0438671D01*
X0218886D01*
X0219645Y0438822D01*
X0220288Y0439251D01*
X0220718Y0439895D01*
X0220869Y0440654D01*
Y0445063D01*
X0220718Y0445822D01*
X0220288Y0446465D01*
X0219645Y0446895D01*
X0218886Y0447046D01*
D02*
G37*
G36*
X0265902Y0441000D02*
X0257872D01*
Y0436400D01*
X0257989Y0435512D01*
X0258332Y0434685D01*
X0258877Y0433975D01*
X0259587Y0433430D01*
X0260414Y0433087D01*
X0261302Y0432971D01*
X0265902D01*
Y0441000D01*
D02*
G37*
G36*
X0019931Y0440000D02*
X0011902D01*
Y0431971D01*
X0016502D01*
X0017389Y0432088D01*
X0018216Y0432430D01*
X0018927Y0432975D01*
X0019472Y0433685D01*
X0019814Y0434512D01*
X0019931Y0435400D01*
Y0440000D01*
D02*
G37*
G36*
X0099823Y0445965D02*
X0098740Y0445822D01*
X0097730Y0445404D01*
X0096864Y0444739D01*
X0096198Y0443872D01*
X0095780Y0442863D01*
X0095638Y0441780D01*
X0095780Y0440696D01*
X0096198Y0439687D01*
X0096864Y0438820D01*
X0097709Y0438171D01*
X0097760Y0437847D01*
Y0437839D01*
X0097709Y0437514D01*
X0096864Y0436865D01*
X0096198Y0435998D01*
X0095780Y0434989D01*
X0095638Y0433906D01*
X0095780Y0432822D01*
X0096198Y0431813D01*
X0096864Y0430946D01*
X0097730Y0430281D01*
X0098740Y0429863D01*
X0099823Y0429720D01*
X0100906Y0429863D01*
X0101916Y0430281D01*
X0102782Y0430946D01*
X0103448Y0431813D01*
X0103866Y0432822D01*
X0104008Y0433906D01*
X0103866Y0434989D01*
X0103448Y0435998D01*
X0102782Y0436865D01*
X0101937Y0437514D01*
X0101886Y0437839D01*
Y0437847D01*
X0101937Y0438171D01*
X0102782Y0438820D01*
X0103448Y0439687D01*
X0103866Y0440696D01*
X0104008Y0441780D01*
X0103866Y0442863D01*
X0103448Y0443872D01*
X0102782Y0444739D01*
X0101916Y0445404D01*
X0100906Y0445822D01*
X0099823Y0445965D01*
D02*
G37*
G36*
X0094100Y0441280D02*
X0089981D01*
X0085861D01*
X0085938Y0440696D01*
X0086356Y0439687D01*
X0087021Y0438820D01*
X0087295Y0438609D01*
X0087146Y0437968D01*
X0087017Y0437942D01*
X0086374Y0437512D01*
X0085944Y0436869D01*
X0085793Y0436110D01*
Y0431701D01*
X0085944Y0430942D01*
X0086374Y0430299D01*
X0087017Y0429869D01*
X0087776Y0429718D01*
X0092185D01*
X0092944Y0429869D01*
X0093587Y0430299D01*
X0094017Y0430942D01*
X0094168Y0431701D01*
Y0436110D01*
X0094017Y0436869D01*
X0093587Y0437512D01*
X0092944Y0437942D01*
X0092815Y0437968D01*
X0092666Y0438609D01*
X0092940Y0438820D01*
X0093605Y0439687D01*
X0094023Y0440696D01*
X0094100Y0441280D01*
D02*
G37*
G36*
X0157902Y0438224D02*
X0157051Y0438055D01*
X0156329Y0437572D01*
X0155847Y0436851D01*
X0155678Y0436000D01*
X0155847Y0435149D01*
X0156329Y0434427D01*
X0156372Y0434399D01*
Y0431601D01*
X0156329Y0431572D01*
X0155847Y0430851D01*
X0155678Y0430000D01*
X0155847Y0429149D01*
X0156329Y0428428D01*
X0157051Y0427945D01*
X0157902Y0427776D01*
X0158753Y0427945D01*
X0159474Y0428428D01*
X0159956Y0429149D01*
X0160126Y0430000D01*
X0159956Y0430851D01*
X0159474Y0431572D01*
X0159431Y0431601D01*
Y0434399D01*
X0159474Y0434427D01*
X0159956Y0435149D01*
X0160126Y0436000D01*
X0159956Y0436851D01*
X0159474Y0437572D01*
X0158753Y0438055D01*
X0157902Y0438224D01*
D02*
G37*
G36*
X0148902Y0429224D02*
X0148051Y0429055D01*
X0147329Y0428573D01*
X0146847Y0427851D01*
X0146678Y0427000D01*
X0146847Y0426149D01*
X0147329Y0425427D01*
X0148051Y0424945D01*
X0148902Y0424776D01*
X0149753Y0424945D01*
X0150474Y0425427D01*
X0150956Y0426149D01*
X0151126Y0427000D01*
X0150956Y0427851D01*
X0150474Y0428573D01*
X0149753Y0429055D01*
X0148902Y0429224D01*
D02*
G37*
G36*
X0165902Y0452224D02*
X0165051Y0452055D01*
X0164329Y0451573D01*
X0163847Y0450851D01*
X0163678Y0450000D01*
X0163847Y0449149D01*
X0164329Y0448427D01*
X0164372Y0448399D01*
Y0447418D01*
X0164489Y0446833D01*
X0164820Y0446336D01*
X0170730Y0440427D01*
Y0421601D01*
X0170687Y0421572D01*
X0170205Y0420851D01*
X0170036Y0420000D01*
X0170205Y0419149D01*
X0170687Y0418428D01*
X0171408Y0417945D01*
X0172259Y0417776D01*
X0173110Y0417945D01*
X0173832Y0418428D01*
X0174314Y0419149D01*
X0174483Y0420000D01*
X0174314Y0420851D01*
X0173832Y0421572D01*
X0173789Y0421601D01*
Y0441060D01*
X0173672Y0441645D01*
X0173341Y0442142D01*
X0167613Y0447870D01*
X0167474Y0448427D01*
X0167956Y0449149D01*
X0168126Y0450000D01*
X0167956Y0450851D01*
X0167474Y0451573D01*
X0166753Y0452055D01*
X0165902Y0452224D01*
D02*
G37*
G36*
Y0413224D02*
X0165051Y0413055D01*
X0164329Y0412572D01*
X0163847Y0411851D01*
X0163678Y0411000D01*
X0163847Y0410149D01*
X0164329Y0409427D01*
X0165051Y0408945D01*
X0165902Y0408776D01*
X0166753Y0408945D01*
X0167474Y0409427D01*
X0167956Y0410149D01*
X0168126Y0411000D01*
X0167956Y0411851D01*
X0167474Y0412572D01*
X0166753Y0413055D01*
X0165902Y0413224D01*
D02*
G37*
G36*
X0185520Y0417282D02*
X0180284D01*
X0179456Y0417117D01*
X0178754Y0416648D01*
X0178285Y0415946D01*
X0178120Y0415118D01*
Y0409882D01*
X0178285Y0409054D01*
X0178754Y0408352D01*
X0179456Y0407883D01*
X0180284Y0407718D01*
X0185520D01*
X0186348Y0407883D01*
X0187050Y0408352D01*
X0187519Y0409054D01*
X0187683Y0409882D01*
Y0411224D01*
X0188284Y0411264D01*
X0188284Y0411263D01*
X0188761Y0410110D01*
X0189521Y0409119D01*
X0190511Y0408359D01*
X0191664Y0407882D01*
X0192402Y0407785D01*
Y0412500D01*
Y0417215D01*
X0191664Y0417118D01*
X0190511Y0416641D01*
X0189521Y0415881D01*
X0188761Y0414890D01*
X0188284Y0413737D01*
X0188284Y0413736D01*
X0187683Y0413776D01*
Y0415118D01*
X0187519Y0415946D01*
X0187050Y0416648D01*
X0186348Y0417117D01*
X0185520Y0417282D01*
D02*
G37*
G36*
X0183402Y0397781D02*
X0182164Y0397618D01*
X0181011Y0397141D01*
X0180021Y0396381D01*
X0179261Y0395391D01*
X0178784Y0394237D01*
X0178704Y0393635D01*
X0178099D01*
X0178020Y0394237D01*
X0177542Y0395391D01*
X0176783Y0396381D01*
X0175792Y0397141D01*
X0174639Y0397618D01*
X0173402Y0397781D01*
X0172164Y0397618D01*
X0171011Y0397141D01*
X0170021Y0396381D01*
X0169261Y0395391D01*
X0168784Y0394237D01*
X0168704Y0393635D01*
X0168099D01*
X0168020Y0394237D01*
X0167542Y0395391D01*
X0166782Y0396381D01*
X0165792Y0397141D01*
X0164639Y0397618D01*
X0163402Y0397781D01*
X0162164Y0397618D01*
X0161011Y0397141D01*
X0160021Y0396381D01*
X0159261Y0395391D01*
X0158784Y0394237D01*
X0158704Y0393635D01*
X0158099D01*
X0158020Y0394237D01*
X0157542Y0395391D01*
X0156782Y0396381D01*
X0155792Y0397141D01*
X0154639Y0397618D01*
X0153402Y0397781D01*
X0152164Y0397618D01*
X0151011Y0397141D01*
X0150021Y0396381D01*
X0149261Y0395391D01*
X0148784Y0394237D01*
X0148704Y0393635D01*
X0148099D01*
X0148020Y0394237D01*
X0147542Y0395391D01*
X0146783Y0396381D01*
X0145792Y0397141D01*
X0144639Y0397618D01*
X0143402Y0397781D01*
X0142164Y0397618D01*
X0141011Y0397141D01*
X0140021Y0396381D01*
X0139261Y0395391D01*
X0138784Y0394237D01*
X0138704Y0393635D01*
X0138099D01*
X0138020Y0394237D01*
X0137542Y0395391D01*
X0136783Y0396381D01*
X0135792Y0397141D01*
X0134639Y0397618D01*
X0133402Y0397781D01*
X0132164Y0397618D01*
X0131011Y0397141D01*
X0130021Y0396381D01*
X0129261Y0395391D01*
X0128784Y0394237D01*
X0128621Y0393000D01*
X0128784Y0391763D01*
X0129261Y0390610D01*
X0130021Y0389619D01*
X0131011Y0388860D01*
X0132164Y0388382D01*
X0132165Y0388382D01*
X0132126Y0387782D01*
X0130784D01*
X0129956Y0387617D01*
X0129254Y0387148D01*
X0128785Y0386446D01*
X0128620Y0385618D01*
Y0380382D01*
X0128785Y0379554D01*
X0129254Y0378852D01*
X0129956Y0378383D01*
X0130784Y0378218D01*
X0136020D01*
X0136848Y0378383D01*
X0137550Y0378852D01*
X0138019Y0379554D01*
X0138183Y0380382D01*
Y0381724D01*
X0138784Y0381764D01*
X0138784Y0381763D01*
X0139261Y0380609D01*
X0140021Y0379619D01*
X0141011Y0378859D01*
X0142164Y0378382D01*
X0143402Y0378219D01*
X0144639Y0378382D01*
X0145792Y0378859D01*
X0146783Y0379619D01*
X0147542Y0380609D01*
X0148020Y0381763D01*
X0148099Y0382365D01*
X0148704D01*
X0148784Y0381763D01*
X0149261Y0380609D01*
X0150021Y0379619D01*
X0151011Y0378859D01*
X0152164Y0378382D01*
X0153402Y0378219D01*
X0154639Y0378382D01*
X0155792Y0378859D01*
X0156782Y0379619D01*
X0157542Y0380609D01*
X0158020Y0381763D01*
X0158099Y0382365D01*
X0158704D01*
X0158784Y0381763D01*
X0159261Y0380609D01*
X0160021Y0379619D01*
X0161011Y0378859D01*
X0162164Y0378382D01*
X0163402Y0378219D01*
X0164639Y0378382D01*
X0165792Y0378859D01*
X0166782Y0379619D01*
X0167542Y0380609D01*
X0168020Y0381763D01*
X0168099Y0382365D01*
X0168704D01*
X0168784Y0381763D01*
X0169261Y0380609D01*
X0170021Y0379619D01*
X0171011Y0378859D01*
X0172164Y0378382D01*
X0173402Y0378219D01*
X0174639Y0378382D01*
X0175792Y0378859D01*
X0176783Y0379619D01*
X0177542Y0380609D01*
X0178020Y0381763D01*
X0178099Y0382365D01*
X0178704D01*
X0178784Y0381763D01*
X0179261Y0380609D01*
X0180021Y0379619D01*
X0181011Y0378859D01*
X0182164Y0378382D01*
X0183402Y0378219D01*
X0184639Y0378382D01*
X0185792Y0378859D01*
X0186783Y0379619D01*
X0187542Y0380609D01*
X0188020Y0381763D01*
X0188099Y0382365D01*
X0188704D01*
X0188784Y0381763D01*
X0189261Y0380609D01*
X0190021Y0379619D01*
X0191011Y0378859D01*
X0192164Y0378382D01*
X0193402Y0378219D01*
X0194639Y0378382D01*
X0195792Y0378859D01*
X0196783Y0379619D01*
X0197542Y0380609D01*
X0198020Y0381763D01*
X0198183Y0383000D01*
X0198020Y0384237D01*
X0197542Y0385390D01*
X0196783Y0386381D01*
X0195792Y0387140D01*
X0194639Y0387618D01*
X0194037Y0387697D01*
Y0388303D01*
X0194639Y0388382D01*
X0195792Y0388860D01*
X0196783Y0389619D01*
X0197542Y0390610D01*
X0198020Y0391763D01*
X0198117Y0392500D01*
X0193402D01*
Y0393000D01*
X0192902D01*
Y0397715D01*
X0192164Y0397618D01*
X0191011Y0397141D01*
X0190021Y0396381D01*
X0189261Y0395391D01*
X0188784Y0394237D01*
X0188704Y0393635D01*
X0188099D01*
X0188020Y0394237D01*
X0187542Y0395391D01*
X0186783Y0396381D01*
X0185792Y0397141D01*
X0184639Y0397618D01*
X0183402Y0397781D01*
D02*
G37*
G36*
X0193902Y0397715D02*
Y0393500D01*
X0198117D01*
X0198020Y0394237D01*
X0197542Y0395391D01*
X0196783Y0396381D01*
X0195792Y0397141D01*
X0194639Y0397618D01*
X0193902Y0397715D01*
D02*
G37*
G36*
X0257402Y0395724D02*
X0256551Y0395555D01*
X0255829Y0395073D01*
X0255347Y0394351D01*
X0255178Y0393500D01*
X0255347Y0392649D01*
X0255829Y0391928D01*
X0256551Y0391445D01*
X0257402Y0391276D01*
X0258253Y0391445D01*
X0258974Y0391928D01*
X0259456Y0392649D01*
X0259626Y0393500D01*
X0259456Y0394351D01*
X0258974Y0395073D01*
X0258253Y0395555D01*
X0257402Y0395724D01*
D02*
G37*
G36*
Y0384724D02*
X0256551Y0384555D01*
X0255829Y0384072D01*
X0255347Y0383351D01*
X0255178Y0382500D01*
X0255347Y0381649D01*
X0255829Y0380927D01*
X0256551Y0380445D01*
X0257402Y0380276D01*
X0258253Y0380445D01*
X0258974Y0380927D01*
X0259456Y0381649D01*
X0259626Y0382500D01*
X0259456Y0383351D01*
X0258974Y0384072D01*
X0258253Y0384555D01*
X0257402Y0384724D01*
D02*
G37*
G36*
X0262402Y0370715D02*
Y0366500D01*
X0266617D01*
X0266520Y0367237D01*
X0266042Y0368390D01*
X0265283Y0369381D01*
X0264292Y0370141D01*
X0263139Y0370618D01*
X0262402Y0370715D01*
D02*
G37*
G36*
X0251402Y0370782D02*
X0249284D01*
X0248456Y0370617D01*
X0247754Y0370148D01*
X0247285Y0369446D01*
X0247120Y0368618D01*
Y0366500D01*
X0251402D01*
Y0370782D01*
D02*
G37*
G36*
X0169402Y0357724D02*
X0168551Y0357555D01*
X0167829Y0357072D01*
X0167347Y0356351D01*
X0167178Y0355500D01*
X0167347Y0354649D01*
X0167829Y0353927D01*
X0168551Y0353445D01*
X0169402Y0353276D01*
X0170253Y0353445D01*
X0170974Y0353927D01*
X0171456Y0354649D01*
X0171626Y0355500D01*
X0171456Y0356351D01*
X0170974Y0357072D01*
X0170253Y0357555D01*
X0169402Y0357724D01*
D02*
G37*
G36*
X0161902D02*
X0161051Y0357555D01*
X0160329Y0357072D01*
X0159847Y0356351D01*
X0159678Y0355500D01*
X0159847Y0354649D01*
X0160329Y0353927D01*
X0161051Y0353445D01*
X0161902Y0353276D01*
X0162753Y0353445D01*
X0163474Y0353927D01*
X0163956Y0354649D01*
X0164126Y0355500D01*
X0163956Y0356351D01*
X0163474Y0357072D01*
X0162753Y0357555D01*
X0161902Y0357724D01*
D02*
G37*
G36*
X0135402Y0356224D02*
X0134551Y0356055D01*
X0133829Y0355573D01*
X0133347Y0354851D01*
X0133178Y0354000D01*
X0133347Y0353149D01*
X0133829Y0352428D01*
X0134551Y0351945D01*
X0135402Y0351776D01*
X0136253Y0351945D01*
X0136974Y0352428D01*
X0137456Y0353149D01*
X0137626Y0354000D01*
X0137456Y0354851D01*
X0136974Y0355573D01*
X0136253Y0356055D01*
X0135402Y0356224D01*
D02*
G37*
G36*
X0128402D02*
X0127551Y0356055D01*
X0126829Y0355573D01*
X0126347Y0354851D01*
X0126178Y0354000D01*
X0126347Y0353149D01*
X0126829Y0352428D01*
X0127551Y0351945D01*
X0128402Y0351776D01*
X0129253Y0351945D01*
X0129974Y0352428D01*
X0130456Y0353149D01*
X0130626Y0354000D01*
X0130456Y0354851D01*
X0129974Y0355573D01*
X0129253Y0356055D01*
X0128402Y0356224D01*
D02*
G37*
G36*
X0199902Y0352724D02*
X0199051Y0352555D01*
X0198329Y0352073D01*
X0197847Y0351351D01*
X0197678Y0350500D01*
X0197847Y0349649D01*
X0198329Y0348927D01*
X0199051Y0348445D01*
X0199902Y0348276D01*
X0200753Y0348445D01*
X0201474Y0348927D01*
X0201956Y0349649D01*
X0202126Y0350500D01*
X0201956Y0351351D01*
X0201474Y0352073D01*
X0200753Y0352555D01*
X0199902Y0352724D01*
D02*
G37*
G36*
X0191902D02*
X0191051Y0352555D01*
X0190329Y0352073D01*
X0189847Y0351351D01*
X0189678Y0350500D01*
X0189847Y0349649D01*
X0190329Y0348927D01*
X0191051Y0348445D01*
X0191902Y0348276D01*
X0192753Y0348445D01*
X0193474Y0348927D01*
X0193956Y0349649D01*
X0194126Y0350500D01*
X0193956Y0351351D01*
X0193474Y0352073D01*
X0192753Y0352555D01*
X0191902Y0352724D01*
D02*
G37*
G36*
X0144902D02*
X0144051Y0352555D01*
X0143329Y0352073D01*
X0142847Y0351351D01*
X0142678Y0350500D01*
X0142847Y0349649D01*
X0143329Y0348927D01*
X0144051Y0348445D01*
X0144902Y0348276D01*
X0145753Y0348445D01*
X0146474Y0348927D01*
X0146956Y0349649D01*
X0147126Y0350500D01*
X0146956Y0351351D01*
X0146474Y0352073D01*
X0145753Y0352555D01*
X0144902Y0352724D01*
D02*
G37*
G36*
X0104902Y0347224D02*
X0104051Y0347055D01*
X0103329Y0346572D01*
X0102847Y0345851D01*
X0102678Y0345000D01*
X0102847Y0344149D01*
X0103329Y0343427D01*
X0104051Y0342945D01*
X0104902Y0342776D01*
X0105753Y0342945D01*
X0106474Y0343427D01*
X0106956Y0344149D01*
X0107126Y0345000D01*
X0106956Y0345851D01*
X0106474Y0346572D01*
X0105753Y0347055D01*
X0104902Y0347224D01*
D02*
G37*
G36*
X0020402Y0344724D02*
X0019551Y0344555D01*
X0018829Y0344073D01*
X0018347Y0343351D01*
X0018178Y0342500D01*
X0018347Y0341649D01*
X0018829Y0340928D01*
X0019551Y0340445D01*
X0020402Y0340276D01*
X0021253Y0340445D01*
X0021974Y0340928D01*
X0022456Y0341649D01*
X0022626Y0342500D01*
X0022456Y0343351D01*
X0021974Y0344073D01*
X0021253Y0344555D01*
X0020402Y0344724D01*
D02*
G37*
G36*
X0008902Y0332724D02*
X0008051Y0332555D01*
X0007329Y0332072D01*
X0006847Y0331351D01*
X0006678Y0330500D01*
X0006847Y0329649D01*
X0007329Y0328927D01*
X0008051Y0328445D01*
X0008902Y0328276D01*
X0009753Y0328445D01*
X0010474Y0328927D01*
X0010956Y0329649D01*
X0011126Y0330500D01*
X0010956Y0331351D01*
X0010474Y0332072D01*
X0009753Y0332555D01*
X0008902Y0332724D01*
D02*
G37*
G36*
X0102402Y0331724D02*
X0101551Y0331555D01*
X0100829Y0331072D01*
X0100347Y0330351D01*
X0100178Y0329500D01*
X0100347Y0328649D01*
X0100829Y0327927D01*
X0101551Y0327445D01*
X0102402Y0327276D01*
X0103253Y0327445D01*
X0103974Y0327927D01*
X0104456Y0328649D01*
X0104626Y0329500D01*
X0104456Y0330351D01*
X0103974Y0331072D01*
X0103253Y0331555D01*
X0102402Y0331724D01*
D02*
G37*
G36*
X0213402Y0329224D02*
X0212551Y0329055D01*
X0211829Y0328573D01*
X0211347Y0327851D01*
X0211178Y0327000D01*
X0211347Y0326149D01*
X0211829Y0325428D01*
X0212551Y0324945D01*
X0213402Y0324776D01*
X0214253Y0324945D01*
X0214974Y0325428D01*
X0215456Y0326149D01*
X0215626Y0327000D01*
X0215456Y0327851D01*
X0214974Y0328573D01*
X0214253Y0329055D01*
X0213402Y0329224D01*
D02*
G37*
G36*
X0102402Y0324224D02*
X0101551Y0324055D01*
X0100829Y0323572D01*
X0100347Y0322851D01*
X0100178Y0322000D01*
X0100347Y0321149D01*
X0100829Y0320427D01*
X0101551Y0319945D01*
X0102402Y0319776D01*
X0103253Y0319945D01*
X0103974Y0320427D01*
X0104456Y0321149D01*
X0104626Y0322000D01*
X0104456Y0322851D01*
X0103974Y0323572D01*
X0103253Y0324055D01*
X0102402Y0324224D01*
D02*
G37*
G36*
X0071902Y0316224D02*
X0071051Y0316055D01*
X0070329Y0315573D01*
X0069847Y0314851D01*
X0069678Y0314000D01*
X0069847Y0313149D01*
X0070329Y0312427D01*
X0071051Y0311945D01*
X0071902Y0311776D01*
X0072753Y0311945D01*
X0073474Y0312427D01*
X0073956Y0313149D01*
X0074126Y0314000D01*
X0073956Y0314851D01*
X0073474Y0315573D01*
X0072753Y0316055D01*
X0071902Y0316224D01*
D02*
G37*
G36*
X0004902Y0312224D02*
X0004051Y0312055D01*
X0003329Y0311573D01*
X0002847Y0310851D01*
X0002678Y0310000D01*
X0002847Y0309149D01*
X0003329Y0308428D01*
X0004051Y0307945D01*
X0004902Y0307776D01*
X0005753Y0307945D01*
X0006474Y0308428D01*
X0006956Y0309149D01*
X0007126Y0310000D01*
X0006956Y0310851D01*
X0006474Y0311573D01*
X0005753Y0312055D01*
X0004902Y0312224D01*
D02*
G37*
G36*
X0099402Y0305724D02*
X0098551Y0305555D01*
X0097829Y0305072D01*
X0097347Y0304351D01*
X0097178Y0303500D01*
X0097347Y0302649D01*
X0097829Y0301927D01*
X0098551Y0301445D01*
X0099402Y0301276D01*
X0100253Y0301445D01*
X0100974Y0301927D01*
X0101456Y0302649D01*
X0101626Y0303500D01*
X0101456Y0304351D01*
X0100974Y0305072D01*
X0100253Y0305555D01*
X0099402Y0305724D01*
D02*
G37*
G36*
X0213402Y0305224D02*
X0212551Y0305055D01*
X0211829Y0304573D01*
X0211347Y0303851D01*
X0211178Y0303000D01*
X0211347Y0302149D01*
X0211829Y0301428D01*
X0212551Y0300945D01*
X0213402Y0300776D01*
X0214253Y0300945D01*
X0214974Y0301428D01*
X0215456Y0302149D01*
X0215626Y0303000D01*
X0215456Y0303851D01*
X0214974Y0304573D01*
X0214253Y0305055D01*
X0213402Y0305224D01*
D02*
G37*
G36*
X0072402Y0297224D02*
X0071551Y0297055D01*
X0070829Y0296572D01*
X0070347Y0295851D01*
X0070178Y0295000D01*
X0070347Y0294149D01*
X0070829Y0293427D01*
X0071551Y0292945D01*
X0072402Y0292776D01*
X0073253Y0292945D01*
X0073974Y0293427D01*
X0074456Y0294149D01*
X0074626Y0295000D01*
X0074456Y0295851D01*
X0073974Y0296572D01*
X0073253Y0297055D01*
X0072402Y0297224D01*
D02*
G37*
G36*
X0122902Y0293224D02*
X0122051Y0293055D01*
X0121329Y0292572D01*
X0120847Y0291851D01*
X0120678Y0291000D01*
X0120847Y0290149D01*
X0121329Y0289427D01*
X0122051Y0288945D01*
X0122902Y0288776D01*
X0123753Y0288945D01*
X0124474Y0289427D01*
X0124956Y0290149D01*
X0125126Y0291000D01*
X0124956Y0291851D01*
X0124474Y0292572D01*
X0123753Y0293055D01*
X0122902Y0293224D01*
D02*
G37*
G36*
X0213402Y0290224D02*
X0212551Y0290055D01*
X0211829Y0289573D01*
X0211347Y0288851D01*
X0211178Y0288000D01*
X0211347Y0287149D01*
X0211829Y0286427D01*
X0212551Y0285945D01*
X0213402Y0285776D01*
X0214253Y0285945D01*
X0214974Y0286427D01*
X0215456Y0287149D01*
X0215626Y0288000D01*
X0215456Y0288851D01*
X0214974Y0289573D01*
X0214253Y0290055D01*
X0213402Y0290224D01*
D02*
G37*
G36*
X0008902D02*
X0008051Y0290055D01*
X0007329Y0289573D01*
X0006847Y0288851D01*
X0006678Y0288000D01*
X0006847Y0287149D01*
X0007329Y0286427D01*
X0008051Y0285945D01*
X0008902Y0285776D01*
X0009753Y0285945D01*
X0010474Y0286427D01*
X0010956Y0287149D01*
X0011126Y0288000D01*
X0010956Y0288851D01*
X0010474Y0289573D01*
X0009753Y0290055D01*
X0008902Y0290224D01*
D02*
G37*
G36*
X0092402Y0271224D02*
X0091551Y0271055D01*
X0090829Y0270572D01*
X0090347Y0269851D01*
X0090178Y0269000D01*
X0090347Y0268149D01*
X0090829Y0267427D01*
X0091551Y0266945D01*
X0092402Y0266776D01*
X0093253Y0266945D01*
X0093974Y0267427D01*
X0094456Y0268149D01*
X0094626Y0269000D01*
X0094456Y0269851D01*
X0093974Y0270572D01*
X0093253Y0271055D01*
X0092402Y0271224D01*
D02*
G37*
G36*
X0214402Y0269224D02*
X0213551Y0269055D01*
X0212829Y0268572D01*
X0212347Y0267851D01*
X0212178Y0267000D01*
X0212347Y0266149D01*
X0212829Y0265427D01*
X0213551Y0264945D01*
X0214402Y0264776D01*
X0215253Y0264945D01*
X0215974Y0265427D01*
X0216456Y0266149D01*
X0216626Y0267000D01*
X0216456Y0267851D01*
X0215974Y0268572D01*
X0215253Y0269055D01*
X0214402Y0269224D01*
D02*
G37*
G36*
X0204902Y0258224D02*
X0204051Y0258055D01*
X0203329Y0257573D01*
X0202847Y0256851D01*
X0202678Y0256000D01*
X0202847Y0255149D01*
X0203329Y0254428D01*
X0204051Y0253945D01*
X0204902Y0253776D01*
X0205753Y0253945D01*
X0206474Y0254428D01*
X0206956Y0255149D01*
X0207126Y0256000D01*
X0206956Y0256851D01*
X0206474Y0257573D01*
X0205753Y0258055D01*
X0204902Y0258224D01*
D02*
G37*
G36*
X0233677Y0268783D02*
X0232826Y0268614D01*
X0232105Y0268132D01*
X0231623Y0267410D01*
X0231617Y0267383D01*
X0211274Y0247039D01*
X0209776D01*
X0209753Y0247055D01*
X0208902Y0247224D01*
X0208051Y0247055D01*
X0207329Y0246572D01*
X0206847Y0245851D01*
X0206678Y0245000D01*
X0206847Y0244149D01*
X0207329Y0243427D01*
X0208051Y0242945D01*
X0208902Y0242776D01*
X0209753Y0242945D01*
X0209776Y0242961D01*
X0212118D01*
X0212899Y0243116D01*
X0213560Y0243558D01*
X0234501Y0264499D01*
X0234528Y0264505D01*
X0235250Y0264987D01*
X0235732Y0265708D01*
X0235901Y0266559D01*
X0235732Y0267410D01*
X0235250Y0268132D01*
X0234528Y0268614D01*
X0233677Y0268783D01*
D02*
G37*
G36*
X0054002Y0282224D02*
X0053151Y0282055D01*
X0052429Y0281573D01*
X0051947Y0280851D01*
X0051778Y0280000D01*
X0051947Y0279149D01*
X0052429Y0278428D01*
X0053151Y0277945D01*
X0054002Y0277776D01*
X0054293Y0277834D01*
X0084915Y0247212D01*
X0084688Y0246591D01*
X0084474Y0246572D01*
X0083753Y0247055D01*
X0082902Y0247224D01*
X0082051Y0247055D01*
X0081329Y0246572D01*
X0080847Y0245851D01*
X0080678Y0245000D01*
X0080847Y0244149D01*
X0081329Y0243427D01*
X0082051Y0242945D01*
X0082902Y0242776D01*
X0083753Y0242945D01*
X0084474Y0243427D01*
X0084639Y0243674D01*
X0091918D01*
X0092147Y0243120D01*
X0090193Y0241166D01*
X0089902Y0241224D01*
X0089051Y0241055D01*
X0088329Y0240573D01*
X0087847Y0239851D01*
X0087678Y0239000D01*
X0087847Y0238149D01*
X0088329Y0237427D01*
X0089051Y0236945D01*
X0089151Y0236926D01*
X0089092Y0236326D01*
X0066902D01*
X0066395Y0236225D01*
X0065965Y0235937D01*
X0039965Y0209937D01*
X0039677Y0209507D01*
X0039576Y0209000D01*
Y0196912D01*
X0038976Y0196616D01*
X0038292Y0197141D01*
X0037139Y0197618D01*
X0036402Y0197715D01*
Y0193000D01*
X0035902D01*
Y0192500D01*
X0031187D01*
X0031284Y0191763D01*
X0031761Y0190610D01*
X0032521Y0189619D01*
X0033511Y0188859D01*
X0034664Y0188382D01*
X0035266Y0188303D01*
Y0187697D01*
X0034664Y0187618D01*
X0033511Y0187141D01*
X0032521Y0186381D01*
X0031761Y0185390D01*
X0031284Y0184237D01*
X0031187Y0183500D01*
X0035902D01*
Y0183000D01*
X0036402D01*
Y0178285D01*
X0037139Y0178382D01*
X0038292Y0178859D01*
X0038976Y0179384D01*
X0039576Y0179088D01*
Y0148000D01*
X0039677Y0147493D01*
X0039965Y0147063D01*
X0055076Y0131951D01*
Y0048500D01*
X0055177Y0047993D01*
X0055465Y0047563D01*
X0061736Y0041291D01*
X0061678Y0041000D01*
X0061847Y0040149D01*
X0062329Y0039428D01*
X0063051Y0038945D01*
X0063902Y0038776D01*
X0064753Y0038945D01*
X0065474Y0039428D01*
X0065956Y0040149D01*
X0066126Y0041000D01*
X0065956Y0041851D01*
X0065474Y0042573D01*
X0064753Y0043055D01*
X0063902Y0043224D01*
X0063610Y0043166D01*
X0057727Y0049049D01*
Y0132500D01*
X0057626Y0133007D01*
X0057339Y0133437D01*
X0042227Y0148549D01*
Y0179088D01*
X0042827Y0179384D01*
X0043511Y0178859D01*
X0044664Y0178382D01*
X0045902Y0178219D01*
X0047139Y0178382D01*
X0048292Y0178859D01*
X0049283Y0179619D01*
X0050042Y0180610D01*
X0050520Y0181763D01*
X0050599Y0182365D01*
X0051204D01*
X0051284Y0181763D01*
X0051761Y0180610D01*
X0052521Y0179619D01*
X0052576Y0179577D01*
Y0146500D01*
X0052677Y0145993D01*
X0052965Y0145563D01*
X0055736Y0142791D01*
X0055678Y0142500D01*
X0055847Y0141649D01*
X0056329Y0140928D01*
X0057051Y0140445D01*
X0057902Y0140276D01*
X0058753Y0140445D01*
X0059474Y0140928D01*
X0059956Y0141649D01*
X0060126Y0142500D01*
X0059956Y0143351D01*
X0059474Y0144072D01*
X0058753Y0144554D01*
X0057902Y0144724D01*
X0057610Y0144666D01*
X0055227Y0147049D01*
Y0148690D01*
X0055827Y0148749D01*
X0055847Y0148649D01*
X0056329Y0147927D01*
X0057051Y0147445D01*
X0057902Y0147276D01*
X0058753Y0147445D01*
X0059474Y0147927D01*
X0059956Y0148649D01*
X0060126Y0149500D01*
X0060068Y0149791D01*
X0066839Y0156563D01*
X0067126Y0156993D01*
X0067227Y0157500D01*
Y0178418D01*
X0068292Y0178859D01*
X0069283Y0179619D01*
X0070042Y0180610D01*
X0070520Y0181763D01*
X0070599Y0182365D01*
X0071204D01*
X0071284Y0181763D01*
X0071761Y0180610D01*
X0072521Y0179619D01*
X0073511Y0178859D01*
X0074664Y0178382D01*
X0075902Y0178219D01*
X0077139Y0178382D01*
X0078292Y0178859D01*
X0079282Y0179619D01*
X0080042Y0180610D01*
X0080520Y0181763D01*
X0080599Y0182365D01*
X0081204D01*
X0081284Y0181763D01*
X0081761Y0180610D01*
X0082521Y0179619D01*
X0083511Y0178859D01*
X0084664Y0178382D01*
X0085902Y0178219D01*
X0087139Y0178382D01*
X0088292Y0178859D01*
X0089283Y0179619D01*
X0090042Y0180610D01*
X0090520Y0181763D01*
X0090599Y0182365D01*
X0091204D01*
X0091284Y0181763D01*
X0091761Y0180610D01*
X0092521Y0179619D01*
X0093511Y0178859D01*
X0094664Y0178382D01*
X0095902Y0178219D01*
X0097139Y0178382D01*
X0098292Y0178859D01*
X0099282Y0179619D01*
X0100042Y0180610D01*
X0100520Y0181763D01*
X0100599Y0182365D01*
X0101204D01*
X0101284Y0181763D01*
X0101761Y0180610D01*
X0102521Y0179619D01*
X0103511Y0178859D01*
X0104664Y0178382D01*
X0105902Y0178219D01*
X0107139Y0178382D01*
X0108292Y0178859D01*
X0109283Y0179619D01*
X0110042Y0180610D01*
X0110520Y0181763D01*
X0110599Y0182365D01*
X0111204D01*
X0111284Y0181763D01*
X0111761Y0180610D01*
X0112521Y0179619D01*
X0113511Y0178859D01*
X0114664Y0178382D01*
X0115902Y0178219D01*
X0117139Y0178382D01*
X0118292Y0178859D01*
X0119282Y0179619D01*
X0120042Y0180610D01*
X0120520Y0181763D01*
X0120599Y0182365D01*
X0121204D01*
X0121284Y0181763D01*
X0121761Y0180610D01*
X0122521Y0179619D01*
X0123511Y0178859D01*
X0124664Y0178382D01*
X0125902Y0178219D01*
X0127139Y0178382D01*
X0128292Y0178859D01*
X0129282Y0179619D01*
X0130042Y0180610D01*
X0130520Y0181763D01*
X0130599Y0182365D01*
X0131204D01*
X0131284Y0181763D01*
X0131761Y0180610D01*
X0132521Y0179619D01*
X0133511Y0178859D01*
X0134664Y0178382D01*
X0135902Y0178219D01*
X0137139Y0178382D01*
X0138292Y0178859D01*
X0139283Y0179619D01*
X0140042Y0180610D01*
X0140520Y0181763D01*
X0140599Y0182365D01*
X0141204D01*
X0141284Y0181763D01*
X0141761Y0180610D01*
X0142521Y0179619D01*
X0143511Y0178859D01*
X0144664Y0178382D01*
X0145902Y0178219D01*
X0147139Y0178382D01*
X0148292Y0178859D01*
X0149283Y0179619D01*
X0150042Y0180610D01*
X0150520Y0181763D01*
X0150599Y0182365D01*
X0151204D01*
X0151284Y0181763D01*
X0151761Y0180610D01*
X0152521Y0179619D01*
X0153511Y0178859D01*
X0154664Y0178382D01*
X0155902Y0178219D01*
X0157139Y0178382D01*
X0158292Y0178859D01*
X0159283Y0179619D01*
X0160042Y0180610D01*
X0160520Y0181763D01*
X0160599Y0182365D01*
X0161204D01*
X0161284Y0181763D01*
X0161761Y0180610D01*
X0162521Y0179619D01*
X0163511Y0178859D01*
X0164664Y0178382D01*
X0165902Y0178219D01*
X0167139Y0178382D01*
X0168292Y0178859D01*
X0169282Y0179619D01*
X0170042Y0180610D01*
X0170520Y0181763D01*
X0170599Y0182365D01*
X0171204D01*
X0171284Y0181763D01*
X0171761Y0180610D01*
X0172521Y0179619D01*
X0173511Y0178859D01*
X0174664Y0178382D01*
X0175902Y0178219D01*
X0177139Y0178382D01*
X0178292Y0178859D01*
X0179282Y0179619D01*
X0180042Y0180610D01*
X0180520Y0181763D01*
X0180599Y0182365D01*
X0181204D01*
X0181284Y0181763D01*
X0181761Y0180610D01*
X0182521Y0179619D01*
X0183511Y0178859D01*
X0184664Y0178382D01*
X0185902Y0178219D01*
X0187139Y0178382D01*
X0188292Y0178859D01*
X0189283Y0179619D01*
X0190042Y0180610D01*
X0190520Y0181763D01*
X0190599Y0182365D01*
X0191204D01*
X0191284Y0181763D01*
X0191761Y0180610D01*
X0192521Y0179619D01*
X0193511Y0178859D01*
X0194664Y0178382D01*
X0195902Y0178219D01*
X0197139Y0178382D01*
X0198292Y0178859D01*
X0199283Y0179619D01*
X0200042Y0180610D01*
X0200520Y0181763D01*
X0200683Y0183000D01*
X0200520Y0184237D01*
X0200042Y0185390D01*
X0199517Y0186074D01*
X0199813Y0186674D01*
X0203743D01*
X0203847Y0186149D01*
X0204329Y0185427D01*
X0205051Y0184945D01*
X0205902Y0184776D01*
X0206753Y0184945D01*
X0207474Y0185427D01*
X0207956Y0186149D01*
X0208126Y0187000D01*
X0207956Y0187851D01*
X0207474Y0188573D01*
X0206753Y0189055D01*
X0205902Y0189224D01*
X0205523Y0189148D01*
X0205409Y0189225D01*
X0204902Y0189325D01*
X0201033D01*
X0200593Y0189926D01*
X0200683Y0190382D01*
Y0195618D01*
X0200519Y0196446D01*
X0200050Y0197148D01*
X0199348Y0197617D01*
X0198520Y0197782D01*
X0193284D01*
X0192456Y0197617D01*
X0191754Y0197148D01*
X0191285Y0196446D01*
X0191120Y0195618D01*
Y0194276D01*
X0190520Y0194236D01*
X0190520Y0194237D01*
X0190042Y0195390D01*
X0189283Y0196381D01*
X0188292Y0197141D01*
X0187139Y0197618D01*
X0185902Y0197781D01*
X0184664Y0197618D01*
X0183511Y0197141D01*
X0182521Y0196381D01*
X0181761Y0195390D01*
X0181284Y0194237D01*
X0181204Y0193635D01*
X0180599D01*
X0180520Y0194237D01*
X0180042Y0195390D01*
X0179282Y0196381D01*
X0178292Y0197141D01*
X0177139Y0197618D01*
X0175902Y0197781D01*
X0174664Y0197618D01*
X0173511Y0197141D01*
X0172521Y0196381D01*
X0171761Y0195390D01*
X0171284Y0194237D01*
X0171204Y0193635D01*
X0170599D01*
X0170520Y0194237D01*
X0170042Y0195390D01*
X0169282Y0196381D01*
X0168292Y0197141D01*
X0167139Y0197618D01*
X0165902Y0197781D01*
X0164664Y0197618D01*
X0163511Y0197141D01*
X0162521Y0196381D01*
X0161761Y0195390D01*
X0161284Y0194237D01*
X0161204Y0193635D01*
X0160599D01*
X0160520Y0194237D01*
X0160042Y0195390D01*
X0159283Y0196381D01*
X0158292Y0197141D01*
X0157139Y0197618D01*
X0155902Y0197781D01*
X0154664Y0197618D01*
X0153511Y0197141D01*
X0152521Y0196381D01*
X0151761Y0195390D01*
X0151284Y0194237D01*
X0151204Y0193635D01*
X0150599D01*
X0150520Y0194237D01*
X0150042Y0195390D01*
X0149283Y0196381D01*
X0148292Y0197141D01*
X0147139Y0197618D01*
X0145902Y0197781D01*
X0144664Y0197618D01*
X0143511Y0197141D01*
X0142521Y0196381D01*
X0141761Y0195390D01*
X0141284Y0194237D01*
X0141204Y0193635D01*
X0140599D01*
X0140520Y0194237D01*
X0140079Y0195302D01*
X0143451Y0198674D01*
X0175402D01*
X0175909Y0198775D01*
X0176339Y0199063D01*
X0184110Y0206834D01*
X0184402Y0206776D01*
X0185253Y0206945D01*
X0185974Y0207428D01*
X0186456Y0208149D01*
X0186626Y0209000D01*
X0186456Y0209851D01*
X0185974Y0210573D01*
X0185253Y0211055D01*
X0184774Y0211150D01*
X0184577Y0211801D01*
X0189839Y0217063D01*
X0190126Y0217493D01*
X0190227Y0218000D01*
Y0224262D01*
X0190474Y0224428D01*
X0190956Y0225149D01*
X0191126Y0226000D01*
X0190956Y0226851D01*
X0190474Y0227572D01*
X0189753Y0228055D01*
X0188902Y0228224D01*
X0188051Y0228055D01*
X0187329Y0227572D01*
X0186847Y0226851D01*
X0186763Y0226428D01*
X0186708Y0226149D01*
X0186096D01*
X0186040Y0226428D01*
X0185956Y0226851D01*
X0185474Y0227572D01*
X0184753Y0228055D01*
X0183902Y0228224D01*
X0183051Y0228055D01*
X0182329Y0227572D01*
X0182164Y0227326D01*
X0151599D01*
X0151092Y0227225D01*
X0150662Y0226937D01*
X0148284Y0224560D01*
X0147819Y0224943D01*
X0147956Y0225149D01*
X0148126Y0226000D01*
X0147956Y0226851D01*
X0147474Y0227572D01*
X0146753Y0228055D01*
X0145902Y0228224D01*
X0145523Y0228149D01*
X0145409Y0228225D01*
X0144902Y0228326D01*
X0133639D01*
X0133474Y0228573D01*
X0132753Y0229055D01*
X0131902Y0229224D01*
X0131051Y0229055D01*
X0130329Y0228573D01*
X0129847Y0227851D01*
X0129719Y0227208D01*
X0129121Y0226958D01*
X0128942Y0227137D01*
X0128512Y0227425D01*
X0128005Y0227525D01*
X0072708D01*
X0072200Y0227425D01*
X0071770Y0227137D01*
X0045965Y0201331D01*
X0045677Y0200901D01*
X0045576Y0200394D01*
Y0197738D01*
X0044664Y0197618D01*
X0043511Y0197141D01*
X0042827Y0196616D01*
X0042227Y0196912D01*
Y0208451D01*
X0067451Y0233675D01*
X0111402D01*
X0111909Y0233775D01*
X0112339Y0234063D01*
X0112951Y0234675D01*
X0143543D01*
X0143647Y0234149D01*
X0144129Y0233428D01*
X0144851Y0232945D01*
X0145702Y0232776D01*
X0146553Y0232945D01*
X0147274Y0233428D01*
X0147756Y0234149D01*
X0147926Y0235000D01*
X0147871Y0235275D01*
X0148363Y0235875D01*
X0149708D01*
X0150215Y0235975D01*
X0150645Y0236263D01*
X0151457Y0237074D01*
X0154953D01*
X0158736Y0233291D01*
X0158678Y0233000D01*
X0158847Y0232149D01*
X0159329Y0231428D01*
X0160051Y0230945D01*
X0160902Y0230776D01*
X0161753Y0230945D01*
X0162474Y0231428D01*
X0162956Y0232149D01*
X0163126Y0233000D01*
X0162956Y0233851D01*
X0162474Y0234573D01*
X0161753Y0235055D01*
X0160902Y0235224D01*
X0160610Y0235166D01*
X0159540Y0236236D01*
X0159835Y0236789D01*
X0159902Y0236776D01*
X0160753Y0236945D01*
X0161474Y0237427D01*
X0161956Y0238149D01*
X0162126Y0239000D01*
X0161956Y0239851D01*
X0161474Y0240573D01*
X0160753Y0241055D01*
X0160617Y0241350D01*
X0160753Y0241945D01*
X0161474Y0242427D01*
X0161956Y0243149D01*
X0162126Y0244000D01*
X0161956Y0244851D01*
X0161474Y0245572D01*
X0160753Y0246055D01*
X0159902Y0246224D01*
X0159051Y0246055D01*
X0158329Y0245572D01*
X0157725Y0245748D01*
X0157162Y0246312D01*
X0157457Y0246865D01*
X0157902Y0246776D01*
X0158753Y0246945D01*
X0159474Y0247428D01*
X0159956Y0248149D01*
X0160126Y0249000D01*
X0159956Y0249851D01*
X0159474Y0250572D01*
X0158753Y0251055D01*
X0157902Y0251224D01*
X0157051Y0251055D01*
X0156329Y0250572D01*
X0156097Y0250225D01*
X0105003D01*
X0104822Y0250826D01*
X0104974Y0250927D01*
X0105456Y0251649D01*
X0105626Y0252500D01*
X0105456Y0253351D01*
X0104974Y0254072D01*
X0104253Y0254555D01*
X0103402Y0254724D01*
X0102551Y0254555D01*
X0101829Y0254072D01*
X0101347Y0253351D01*
X0101178Y0252500D01*
X0101347Y0251649D01*
X0101829Y0250927D01*
X0101982Y0250826D01*
X0101800Y0250225D01*
X0096408D01*
X0095900Y0250125D01*
X0095470Y0249837D01*
X0093559Y0247925D01*
X0087951D01*
X0056168Y0279709D01*
X0056226Y0280000D01*
X0056056Y0280851D01*
X0055574Y0281573D01*
X0054853Y0282055D01*
X0054002Y0282224D01*
D02*
G37*
G36*
X0192043Y0247720D02*
X0191192Y0247551D01*
X0190471Y0247069D01*
X0189989Y0246347D01*
X0189820Y0245496D01*
X0189989Y0244645D01*
X0190471Y0243924D01*
X0191192Y0243442D01*
X0192043Y0243272D01*
X0192894Y0243442D01*
X0193616Y0243924D01*
X0194098Y0244645D01*
X0194267Y0245496D01*
X0194098Y0246347D01*
X0193616Y0247069D01*
X0192894Y0247551D01*
X0192043Y0247720D01*
D02*
G37*
G36*
X0173302Y0246224D02*
X0172451Y0246055D01*
X0171729Y0245572D01*
X0171247Y0244851D01*
X0171078Y0244000D01*
X0171247Y0243149D01*
X0171729Y0242427D01*
X0172451Y0241945D01*
X0173302Y0241776D01*
X0174153Y0241945D01*
X0174874Y0242427D01*
X0175356Y0243149D01*
X0175526Y0244000D01*
X0175356Y0244851D01*
X0174874Y0245572D01*
X0174153Y0246055D01*
X0173302Y0246224D01*
D02*
G37*
G36*
X0027402Y0244224D02*
X0026551Y0244055D01*
X0025829Y0243572D01*
X0025347Y0242851D01*
X0025178Y0242000D01*
X0025347Y0241149D01*
X0025829Y0240427D01*
X0026551Y0239945D01*
X0027402Y0239776D01*
X0028253Y0239945D01*
X0028974Y0240427D01*
X0029456Y0241149D01*
X0029626Y0242000D01*
X0029456Y0242851D01*
X0028974Y0243572D01*
X0028253Y0244055D01*
X0027402Y0244224D01*
D02*
G37*
G36*
X0053902Y0241224D02*
X0053051Y0241055D01*
X0052329Y0240573D01*
X0051847Y0239851D01*
X0051678Y0239000D01*
X0051847Y0238149D01*
X0052329Y0237427D01*
X0053051Y0236945D01*
X0053902Y0236776D01*
X0054753Y0236945D01*
X0055474Y0237427D01*
X0055956Y0238149D01*
X0056126Y0239000D01*
X0055956Y0239851D01*
X0055474Y0240573D01*
X0054753Y0241055D01*
X0053902Y0241224D01*
D02*
G37*
G36*
X0181217Y0239846D02*
X0180366Y0239677D01*
X0179644Y0239194D01*
X0179162Y0238473D01*
X0178993Y0237622D01*
X0179162Y0236771D01*
X0179644Y0236050D01*
X0180366Y0235567D01*
X0181217Y0235398D01*
X0182068Y0235567D01*
X0182789Y0236050D01*
X0183271Y0236771D01*
X0183441Y0237622D01*
X0183271Y0238473D01*
X0182789Y0239194D01*
X0182068Y0239677D01*
X0181217Y0239846D01*
D02*
G37*
G36*
X0225902Y0221000D02*
X0200902D01*
Y0199000D01*
X0225902D01*
Y0221000D01*
D02*
G37*
G36*
X0035402Y0197715D02*
X0034664Y0197618D01*
X0033511Y0197141D01*
X0032521Y0196381D01*
X0031761Y0195390D01*
X0031284Y0194237D01*
X0031187Y0193500D01*
X0035402D01*
Y0197715D01*
D02*
G37*
G36*
X0272902Y0184224D02*
X0272051Y0184055D01*
X0271329Y0183572D01*
X0270847Y0182851D01*
X0270678Y0182000D01*
X0270847Y0181149D01*
X0271329Y0180428D01*
X0272051Y0179946D01*
X0272902Y0179776D01*
X0273753Y0179946D01*
X0274474Y0180428D01*
X0274956Y0181149D01*
X0275126Y0182000D01*
X0274956Y0182851D01*
X0274474Y0183572D01*
X0273753Y0184055D01*
X0272902Y0184224D01*
D02*
G37*
G36*
X0035402Y0182500D02*
X0031187D01*
X0031284Y0181763D01*
X0031761Y0180610D01*
X0032521Y0179619D01*
X0033511Y0178859D01*
X0034664Y0178382D01*
X0035402Y0178285D01*
Y0182500D01*
D02*
G37*
G36*
X0234402Y0166914D02*
X0233613Y0166810D01*
X0232412Y0166313D01*
X0231381Y0165521D01*
X0230589Y0164490D01*
X0230092Y0163289D01*
X0229988Y0162500D01*
X0234402D01*
Y0166914D01*
D02*
G37*
G36*
X0121402Y0166724D02*
X0120551Y0166554D01*
X0119829Y0166072D01*
X0119347Y0165351D01*
X0119178Y0164500D01*
X0119347Y0163649D01*
X0119829Y0162927D01*
X0120551Y0162445D01*
X0121402Y0162276D01*
X0122253Y0162445D01*
X0122974Y0162927D01*
X0123456Y0163649D01*
X0123626Y0164500D01*
X0123456Y0165351D01*
X0122974Y0166072D01*
X0122253Y0166554D01*
X0121402Y0166724D01*
D02*
G37*
G36*
X0139663Y0171585D02*
X0138812Y0171415D01*
X0138090Y0170933D01*
X0137608Y0170212D01*
X0137439Y0169361D01*
X0137608Y0168510D01*
X0138090Y0167788D01*
X0138388Y0167589D01*
X0138438Y0167338D01*
X0138725Y0166908D01*
X0139610Y0166023D01*
X0139551Y0165748D01*
X0139371Y0165414D01*
X0138633Y0165267D01*
X0137912Y0164785D01*
X0137430Y0164064D01*
X0137261Y0163213D01*
X0137430Y0162362D01*
X0137912Y0161640D01*
X0138633Y0161158D01*
X0138797Y0161126D01*
X0138738Y0160526D01*
X0138042D01*
X0132792Y0165776D01*
X0132827Y0166379D01*
X0133009Y0166500D01*
X0133491Y0167221D01*
X0133660Y0168072D01*
X0133491Y0168923D01*
X0133009Y0169645D01*
X0132287Y0170127D01*
X0131436Y0170296D01*
X0130585Y0170127D01*
X0129864Y0169645D01*
X0129382Y0168923D01*
X0129213Y0168072D01*
X0129382Y0167221D01*
X0129864Y0166500D01*
X0130111Y0166335D01*
Y0165257D01*
X0130141Y0165103D01*
X0129601Y0164743D01*
X0129284Y0164955D01*
X0128433Y0165124D01*
X0127582Y0164955D01*
X0126860Y0164472D01*
X0126379Y0163751D01*
X0126209Y0162900D01*
X0126379Y0162049D01*
X0126860Y0161328D01*
X0127582Y0160845D01*
X0128433Y0160676D01*
X0128724Y0160734D01*
X0132396Y0157063D01*
X0132826Y0156775D01*
X0133333Y0156675D01*
X0172353D01*
X0187736Y0141291D01*
X0187678Y0141000D01*
X0187847Y0140149D01*
X0188329Y0139427D01*
X0189051Y0138945D01*
X0189902Y0138776D01*
X0190753Y0138945D01*
X0191474Y0139427D01*
X0191956Y0140149D01*
X0192126Y0141000D01*
X0191956Y0141851D01*
X0191474Y0142572D01*
X0190753Y0143054D01*
X0189902Y0143224D01*
X0189610Y0143166D01*
X0188045Y0144731D01*
X0188047Y0144918D01*
X0188259Y0145365D01*
X0188410Y0145373D01*
X0189051Y0144946D01*
X0189902Y0144776D01*
X0190753Y0144946D01*
X0191474Y0145428D01*
X0191956Y0146149D01*
X0192126Y0147000D01*
X0191956Y0147851D01*
X0191474Y0148573D01*
X0190753Y0149055D01*
X0189902Y0149224D01*
X0189051Y0149055D01*
X0188329Y0148573D01*
X0188164Y0148326D01*
X0187451D01*
X0177256Y0158520D01*
X0177486Y0159074D01*
X0181953D01*
X0187736Y0153291D01*
X0187678Y0153000D01*
X0187847Y0152149D01*
X0188329Y0151427D01*
X0189051Y0150945D01*
X0189902Y0150776D01*
X0190753Y0150945D01*
X0191474Y0151427D01*
X0191956Y0152149D01*
X0192126Y0153000D01*
X0191956Y0153851D01*
X0191474Y0154572D01*
X0190753Y0155054D01*
X0189902Y0155224D01*
X0189610Y0155166D01*
X0185056Y0159720D01*
X0185286Y0160275D01*
X0186753D01*
X0187736Y0159291D01*
X0187678Y0159000D01*
X0187847Y0158149D01*
X0188329Y0157428D01*
X0189051Y0156946D01*
X0189902Y0156776D01*
X0190753Y0156946D01*
X0191474Y0157428D01*
X0191956Y0158149D01*
X0192126Y0159000D01*
X0191956Y0159851D01*
X0191474Y0160573D01*
X0190753Y0161055D01*
X0189902Y0161224D01*
X0189610Y0161166D01*
X0188239Y0162537D01*
X0187809Y0162825D01*
X0187302Y0162926D01*
X0146457D01*
X0141379Y0168003D01*
X0141717Y0168510D01*
X0141886Y0169361D01*
X0141717Y0170212D01*
X0141235Y0170933D01*
X0140514Y0171415D01*
X0139663Y0171585D01*
D02*
G37*
G36*
X0045902Y0162724D02*
X0045051Y0162555D01*
X0044329Y0162073D01*
X0043847Y0161351D01*
X0043678Y0160500D01*
X0043847Y0159649D01*
X0044329Y0158928D01*
X0045051Y0158446D01*
X0045902Y0158276D01*
X0046753Y0158446D01*
X0047474Y0158928D01*
X0047956Y0159649D01*
X0048126Y0160500D01*
X0047956Y0161351D01*
X0047474Y0162073D01*
X0046753Y0162555D01*
X0045902Y0162724D01*
D02*
G37*
G36*
X0267902Y0147387D02*
X0262283D01*
X0261557Y0147242D01*
X0260941Y0146831D01*
X0260529Y0146215D01*
X0260385Y0145489D01*
Y0143905D01*
X0267902D01*
Y0147387D01*
D02*
G37*
G36*
X0106402Y0145224D02*
X0105551Y0145054D01*
X0104829Y0144572D01*
X0104347Y0143851D01*
X0104178Y0143000D01*
X0104347Y0142149D01*
X0104829Y0141428D01*
X0105551Y0140945D01*
X0106402Y0140776D01*
X0107253Y0140945D01*
X0107974Y0141428D01*
X0108456Y0142149D01*
X0108626Y0143000D01*
X0108456Y0143851D01*
X0107974Y0144572D01*
X0107253Y0145054D01*
X0106402Y0145224D01*
D02*
G37*
G36*
X0267902Y0141905D02*
X0260385D01*
Y0140322D01*
X0260529Y0139596D01*
X0260941Y0138980D01*
X0261557Y0138569D01*
X0262283Y0138424D01*
X0267902D01*
Y0141905D01*
D02*
G37*
G36*
X0234402Y0141323D02*
X0233613Y0141219D01*
X0232412Y0140722D01*
X0231381Y0139931D01*
X0230589Y0138899D01*
X0230092Y0137698D01*
X0229988Y0136909D01*
X0234402D01*
Y0141323D01*
D02*
G37*
G36*
X0152083Y0136499D02*
X0151232Y0136330D01*
X0150510Y0135848D01*
X0150028Y0135127D01*
X0149859Y0134276D01*
X0150028Y0133425D01*
X0150510Y0132703D01*
X0151232Y0132221D01*
X0152083Y0132052D01*
X0152934Y0132221D01*
X0153655Y0132703D01*
X0154137Y0133425D01*
X0154307Y0134276D01*
X0154137Y0135127D01*
X0153655Y0135848D01*
X0152934Y0136330D01*
X0152083Y0136499D01*
D02*
G37*
G36*
X0239815Y0135909D02*
X0235402D01*
Y0131496D01*
X0236191Y0131599D01*
X0237392Y0132097D01*
X0238423Y0132888D01*
X0239214Y0133920D01*
X0239712Y0135121D01*
X0239815Y0135909D01*
D02*
G37*
G36*
X0234402D02*
X0229988D01*
X0230092Y0135121D01*
X0230589Y0133920D01*
X0231381Y0132888D01*
X0232412Y0132097D01*
X0233613Y0131599D01*
X0234402Y0131496D01*
Y0135909D01*
D02*
G37*
G36*
X0217185Y0166980D02*
X0215896Y0166810D01*
X0214695Y0166313D01*
X0213664Y0165521D01*
X0212873Y0164490D01*
X0212375Y0163289D01*
X0212206Y0162000D01*
X0212375Y0160711D01*
X0212873Y0159510D01*
X0213664Y0158479D01*
X0214695Y0157687D01*
X0215860Y0157205D01*
Y0141204D01*
X0214695Y0140722D01*
X0213664Y0139931D01*
X0212873Y0138899D01*
X0212375Y0137698D01*
X0212206Y0136409D01*
X0212375Y0135121D01*
X0212873Y0133920D01*
X0213664Y0132888D01*
X0214695Y0132097D01*
X0215896Y0131599D01*
X0217185Y0131430D01*
X0218474Y0131599D01*
X0219675Y0132097D01*
X0220706Y0132888D01*
X0221498Y0133920D01*
X0221995Y0135121D01*
X0222165Y0136409D01*
X0221995Y0137698D01*
X0221498Y0138899D01*
X0220706Y0139931D01*
X0219675Y0140722D01*
X0218511Y0141204D01*
Y0157205D01*
X0219675Y0157687D01*
X0220706Y0158479D01*
X0221498Y0159510D01*
X0221995Y0160711D01*
X0222165Y0162000D01*
X0221995Y0163289D01*
X0221498Y0164490D01*
X0220706Y0165521D01*
X0219675Y0166313D01*
X0218474Y0166810D01*
X0217185Y0166980D01*
D02*
G37*
G36*
X0235402Y0128224D02*
X0234551Y0128054D01*
X0233829Y0127573D01*
X0233347Y0126851D01*
X0233178Y0126000D01*
X0233347Y0125149D01*
X0233829Y0124427D01*
X0234551Y0123945D01*
X0235402Y0123776D01*
X0236253Y0123945D01*
X0236974Y0124427D01*
X0237456Y0125149D01*
X0237626Y0126000D01*
X0237456Y0126851D01*
X0236974Y0127573D01*
X0236253Y0128054D01*
X0235402Y0128224D01*
D02*
G37*
G36*
X0123251Y0127573D02*
X0122400Y0127404D01*
X0121679Y0126922D01*
X0121197Y0126200D01*
X0121027Y0125349D01*
X0121197Y0124498D01*
X0121679Y0123777D01*
X0122400Y0123295D01*
X0123251Y0123126D01*
X0124102Y0123295D01*
X0124824Y0123777D01*
X0125306Y0124498D01*
X0125475Y0125349D01*
X0125306Y0126200D01*
X0124824Y0126922D01*
X0124102Y0127404D01*
X0123251Y0127573D01*
D02*
G37*
G36*
X0267902Y0125576D02*
X0262283D01*
X0261557Y0125431D01*
X0260941Y0125020D01*
X0260529Y0124404D01*
X0260385Y0123678D01*
Y0122095D01*
X0267902D01*
Y0125576D01*
D02*
G37*
G36*
X0046902Y0123224D02*
X0046051Y0123055D01*
X0045329Y0122573D01*
X0044847Y0121851D01*
X0044678Y0121000D01*
X0044847Y0120149D01*
X0045329Y0119428D01*
X0046051Y0118946D01*
X0046902Y0118776D01*
X0047753Y0118946D01*
X0048474Y0119428D01*
X0048956Y0120149D01*
X0049126Y0121000D01*
X0048956Y0121851D01*
X0048474Y0122573D01*
X0047753Y0123055D01*
X0046902Y0123224D01*
D02*
G37*
G36*
X0172902Y0121724D02*
X0172051Y0121555D01*
X0171329Y0121072D01*
X0170847Y0120351D01*
X0170678Y0119500D01*
X0170847Y0118649D01*
X0171329Y0117928D01*
X0172051Y0117446D01*
X0172902Y0117276D01*
X0173753Y0117446D01*
X0174474Y0117928D01*
X0174956Y0118649D01*
X0175126Y0119500D01*
X0174956Y0120351D01*
X0174474Y0121072D01*
X0173753Y0121555D01*
X0172902Y0121724D01*
D02*
G37*
G36*
X0267902Y0120095D02*
X0260385D01*
Y0118511D01*
X0260529Y0117785D01*
X0260941Y0117169D01*
X0261557Y0116758D01*
X0262283Y0116613D01*
X0267902D01*
Y0120095D01*
D02*
G37*
G36*
X0267902Y0108387D02*
X0262283D01*
X0261557Y0108242D01*
X0260941Y0107831D01*
X0260529Y0107215D01*
X0260385Y0106489D01*
Y0104905D01*
X0267902D01*
Y0108387D01*
D02*
G37*
G36*
Y0102905D02*
X0260385D01*
Y0101322D01*
X0260529Y0100596D01*
X0260941Y0099980D01*
X0261557Y0099569D01*
X0262283Y0099424D01*
X0267902D01*
Y0102905D01*
D02*
G37*
G36*
X0170902Y0100224D02*
X0170051Y0100055D01*
X0169329Y0099572D01*
X0168847Y0098851D01*
X0168678Y0098000D01*
X0168847Y0097149D01*
X0169329Y0096428D01*
X0170051Y0095946D01*
X0170902Y0095776D01*
X0171753Y0095946D01*
X0172474Y0096428D01*
X0172956Y0097149D01*
X0173126Y0098000D01*
X0172956Y0098851D01*
X0172474Y0099572D01*
X0171753Y0100055D01*
X0170902Y0100224D01*
D02*
G37*
G36*
X0199902Y0099224D02*
X0199051Y0099054D01*
X0198329Y0098572D01*
X0197847Y0097851D01*
X0197678Y0097000D01*
X0197847Y0096149D01*
X0198329Y0095428D01*
X0199051Y0094946D01*
X0199902Y0094776D01*
X0200753Y0094946D01*
X0201474Y0095428D01*
X0201956Y0096149D01*
X0202126Y0097000D01*
X0201956Y0097851D01*
X0201474Y0098572D01*
X0200753Y0099054D01*
X0199902Y0099224D01*
D02*
G37*
G36*
X0267902Y0086576D02*
X0262283D01*
X0261557Y0086431D01*
X0260941Y0086020D01*
X0260529Y0085404D01*
X0260385Y0084678D01*
Y0083095D01*
X0267902D01*
Y0086576D01*
D02*
G37*
G36*
X0199622Y0082759D02*
X0198771Y0082590D01*
X0198050Y0082108D01*
X0197568Y0081387D01*
X0197398Y0080535D01*
X0197568Y0079684D01*
X0198050Y0078963D01*
X0198771Y0078481D01*
X0199622Y0078312D01*
X0200473Y0078481D01*
X0201195Y0078963D01*
X0201677Y0079684D01*
X0201846Y0080535D01*
X0201677Y0081387D01*
X0201195Y0082108D01*
X0200473Y0082590D01*
X0199622Y0082759D01*
D02*
G37*
G36*
X0190075Y0082169D02*
X0189224Y0081999D01*
X0188503Y0081517D01*
X0188020Y0080796D01*
X0187851Y0079945D01*
X0188020Y0079094D01*
X0188503Y0078372D01*
X0189224Y0077890D01*
X0190075Y0077721D01*
X0190926Y0077890D01*
X0191648Y0078372D01*
X0192130Y0079094D01*
X0192299Y0079945D01*
X0192130Y0080796D01*
X0191648Y0081517D01*
X0190926Y0081999D01*
X0190075Y0082169D01*
D02*
G37*
G36*
X0267902Y0081094D02*
X0260385D01*
Y0079511D01*
X0260529Y0078785D01*
X0260941Y0078169D01*
X0261557Y0077758D01*
X0262283Y0077613D01*
X0267902D01*
Y0081094D01*
D02*
G37*
G36*
X0157902Y0074224D02*
X0157051Y0074054D01*
X0156329Y0073572D01*
X0155847Y0072851D01*
X0155678Y0072000D01*
X0155847Y0071149D01*
X0156329Y0070428D01*
X0157051Y0069946D01*
X0157902Y0069776D01*
X0158753Y0069946D01*
X0159474Y0070428D01*
X0159956Y0071149D01*
X0160126Y0072000D01*
X0159956Y0072851D01*
X0159474Y0073572D01*
X0158753Y0074054D01*
X0157902Y0074224D01*
D02*
G37*
G36*
X0104902D02*
X0104051Y0074054D01*
X0103329Y0073572D01*
X0102847Y0072851D01*
X0102678Y0072000D01*
X0102847Y0071149D01*
X0103329Y0070428D01*
X0104051Y0069946D01*
X0104902Y0069776D01*
X0105753Y0069946D01*
X0106474Y0070428D01*
X0106956Y0071149D01*
X0107126Y0072000D01*
X0106956Y0072851D01*
X0106474Y0073572D01*
X0105753Y0074054D01*
X0104902Y0074224D01*
D02*
G37*
G36*
X0214402Y0073224D02*
X0213551Y0073054D01*
X0212829Y0072572D01*
X0212347Y0071851D01*
X0212178Y0071000D01*
X0212347Y0070149D01*
X0212829Y0069428D01*
X0213551Y0068945D01*
X0214402Y0068776D01*
X0215253Y0068945D01*
X0215974Y0069428D01*
X0216456Y0070149D01*
X0216626Y0071000D01*
X0216456Y0071851D01*
X0215974Y0072572D01*
X0215253Y0073054D01*
X0214402Y0073224D01*
D02*
G37*
G36*
X0176402D02*
X0175551Y0073054D01*
X0174829Y0072572D01*
X0174347Y0071851D01*
X0174178Y0071000D01*
X0174347Y0070149D01*
X0174829Y0069428D01*
X0175551Y0068945D01*
X0176402Y0068776D01*
X0177253Y0068945D01*
X0177974Y0069428D01*
X0178456Y0070149D01*
X0178626Y0071000D01*
X0178456Y0071851D01*
X0177974Y0072572D01*
X0177253Y0073054D01*
X0176402Y0073224D01*
D02*
G37*
G36*
X0190075Y0073169D02*
X0189224Y0072999D01*
X0188503Y0072517D01*
X0188020Y0071796D01*
X0187851Y0070945D01*
X0188020Y0070094D01*
X0188503Y0069372D01*
X0189224Y0068890D01*
X0190075Y0068721D01*
X0190926Y0068890D01*
X0191648Y0069372D01*
X0192130Y0070094D01*
X0192299Y0070945D01*
X0192130Y0071796D01*
X0191648Y0072517D01*
X0190926Y0072999D01*
X0190075Y0073169D01*
D02*
G37*
G36*
X0199622Y0072759D02*
X0198771Y0072590D01*
X0198050Y0072108D01*
X0197568Y0071386D01*
X0197398Y0070535D01*
X0197568Y0069684D01*
X0198050Y0068963D01*
X0198771Y0068481D01*
X0199622Y0068312D01*
X0200473Y0068481D01*
X0201195Y0068963D01*
X0201677Y0069684D01*
X0201846Y0070535D01*
X0201677Y0071386D01*
X0201195Y0072108D01*
X0200473Y0072590D01*
X0199622Y0072759D01*
D02*
G37*
G36*
X0016502Y0061029D02*
X0011902D01*
Y0053000D01*
X0019931D01*
Y0057600D01*
X0019814Y0058488D01*
X0019472Y0059315D01*
X0018927Y0060025D01*
X0018216Y0060570D01*
X0017389Y0060913D01*
X0016502Y0061029D01*
D02*
G37*
G36*
X0266902Y0060029D02*
X0262302D01*
X0261414Y0059913D01*
X0260587Y0059570D01*
X0259877Y0059025D01*
X0259332Y0058315D01*
X0258989Y0057488D01*
X0258872Y0056600D01*
Y0052000D01*
X0266902D01*
Y0060029D01*
D02*
G37*
G36*
X0144028Y0063282D02*
X0139618D01*
X0138859Y0063131D01*
X0138216Y0062701D01*
X0137786Y0062058D01*
X0137635Y0061299D01*
Y0056890D01*
X0137786Y0056131D01*
X0138216Y0055488D01*
X0138859Y0055058D01*
X0138988Y0055032D01*
X0139138Y0054391D01*
X0138864Y0054180D01*
X0138198Y0053313D01*
X0137780Y0052304D01*
X0137703Y0051720D01*
X0141823D01*
X0145943D01*
X0145866Y0052304D01*
X0145448Y0053313D01*
X0144782Y0054180D01*
X0144508Y0054391D01*
X0144658Y0055032D01*
X0144787Y0055058D01*
X0145430Y0055488D01*
X0145860Y0056131D01*
X0146011Y0056890D01*
Y0061299D01*
X0145860Y0062058D01*
X0145430Y0062701D01*
X0144787Y0063131D01*
X0144028Y0063282D01*
D02*
G37*
G36*
X0217902Y0055224D02*
X0217051Y0055054D01*
X0216329Y0054572D01*
X0215847Y0053851D01*
X0215678Y0053000D01*
X0215847Y0052149D01*
X0216329Y0051428D01*
X0217051Y0050945D01*
X0217902Y0050776D01*
X0218753Y0050945D01*
X0219474Y0051428D01*
X0219956Y0052149D01*
X0220126Y0053000D01*
X0219956Y0053851D01*
X0219474Y0054572D01*
X0218753Y0055054D01*
X0217902Y0055224D01*
D02*
G37*
G36*
X0145943Y0050721D02*
X0142323D01*
Y0047101D01*
X0142906Y0047178D01*
X0143916Y0047596D01*
X0144782Y0048261D01*
X0145448Y0049128D01*
X0145866Y0050137D01*
X0145943Y0050721D01*
D02*
G37*
G36*
X0141323D02*
X0137703D01*
X0137780Y0050137D01*
X0138198Y0049128D01*
X0138864Y0048261D01*
X0139730Y0047596D01*
X0140740Y0047178D01*
X0141323Y0047101D01*
Y0050721D01*
D02*
G37*
G36*
X0131981Y0063280D02*
X0130897Y0063137D01*
X0129888Y0062719D01*
X0129021Y0062054D01*
X0128356Y0061187D01*
X0127938Y0060178D01*
X0127795Y0059095D01*
X0127938Y0058011D01*
X0128356Y0057002D01*
X0129021Y0056135D01*
X0129867Y0055486D01*
X0129918Y0055161D01*
Y0055153D01*
X0129867Y0054829D01*
X0129021Y0054180D01*
X0128356Y0053313D01*
X0127938Y0052304D01*
X0127795Y0051221D01*
X0127938Y0050137D01*
X0128356Y0049128D01*
X0129021Y0048261D01*
X0129888Y0047596D01*
X0130897Y0047178D01*
X0131981Y0047035D01*
X0133064Y0047178D01*
X0134073Y0047596D01*
X0134940Y0048261D01*
X0135605Y0049128D01*
X0136023Y0050137D01*
X0136166Y0051221D01*
X0136023Y0052304D01*
X0135605Y0053313D01*
X0134940Y0054180D01*
X0134094Y0054829D01*
X0134043Y0055153D01*
Y0055161D01*
X0134094Y0055486D01*
X0134940Y0056135D01*
X0135605Y0057002D01*
X0136023Y0058011D01*
X0136166Y0059095D01*
X0136023Y0060178D01*
X0135605Y0061187D01*
X0134940Y0062054D01*
X0134073Y0062719D01*
X0133064Y0063137D01*
X0131981Y0063280D01*
D02*
G37*
G36*
X0019931Y0051000D02*
X0011902D01*
Y0042971D01*
X0016502D01*
X0017389Y0043088D01*
X0018216Y0043430D01*
X0018927Y0043975D01*
X0019472Y0044685D01*
X0019814Y0045512D01*
X0019931Y0046400D01*
Y0051000D01*
D02*
G37*
G36*
X0266902Y0050000D02*
X0258872D01*
Y0045400D01*
X0258989Y0044512D01*
X0259332Y0043685D01*
X0259877Y0042975D01*
X0260587Y0042430D01*
X0261414Y0042088D01*
X0262302Y0041971D01*
X0266902D01*
Y0050000D01*
D02*
G37*
G36*
X0160602Y0049073D02*
X0158940Y0048909D01*
X0157342Y0048424D01*
X0155868Y0047636D01*
X0154577Y0046577D01*
X0153517Y0045285D01*
X0152730Y0043812D01*
X0152245Y0042214D01*
X0152081Y0040551D01*
X0152245Y0038889D01*
X0152730Y0037290D01*
X0153517Y0035817D01*
X0154577Y0034526D01*
X0155868Y0033466D01*
X0157342Y0032678D01*
X0158940Y0032194D01*
X0160602Y0032030D01*
X0162265Y0032194D01*
X0163864Y0032678D01*
X0165337Y0033466D01*
X0166628Y0034526D01*
X0167688Y0035817D01*
X0168475Y0037290D01*
X0168960Y0038889D01*
X0169124Y0040551D01*
X0168960Y0042214D01*
X0168475Y0043812D01*
X0167688Y0045285D01*
X0166628Y0046577D01*
X0165337Y0047636D01*
X0163864Y0048424D01*
X0162265Y0048909D01*
X0160602Y0049073D01*
D02*
G37*
G36*
X0113201D02*
X0111539Y0048909D01*
X0109940Y0048424D01*
X0108467Y0047636D01*
X0107176Y0046577D01*
X0106116Y0045285D01*
X0105328Y0043812D01*
X0104843Y0042214D01*
X0104680Y0040551D01*
X0104843Y0038889D01*
X0105328Y0037290D01*
X0106116Y0035817D01*
X0107176Y0034526D01*
X0108467Y0033466D01*
X0109940Y0032678D01*
X0111539Y0032194D01*
X0113201Y0032030D01*
X0114863Y0032194D01*
X0116462Y0032678D01*
X0117935Y0033466D01*
X0119227Y0034526D01*
X0120286Y0035817D01*
X0121074Y0037290D01*
X0121559Y0038889D01*
X0121722Y0040551D01*
X0121559Y0042214D01*
X0121074Y0043812D01*
X0120286Y0045285D01*
X0119227Y0046577D01*
X0117935Y0047636D01*
X0116462Y0048424D01*
X0114863Y0048909D01*
X0113201Y0049073D01*
D02*
G37*
%LPD*%
G36*
X0048624Y0484114D02*
X0048664Y0484110D01*
X0048704Y0484103D01*
X0048741Y0484092D01*
X0048777Y0484081D01*
X0048781D01*
X0048788Y0484074D01*
X0048803Y0484067D01*
X0048817Y0484059D01*
X0048832Y0484045D01*
X0048846Y0484030D01*
X0048854Y0484012D01*
X0048857Y0483994D01*
Y0483633D01*
X0049596D01*
X0049600D01*
X0049614Y0483630D01*
X0049636Y0483626D01*
X0049654Y0483612D01*
X0049658Y0483608D01*
X0049665Y0483597D01*
X0049680Y0483575D01*
X0049691Y0483546D01*
Y0483539D01*
X0049694Y0483528D01*
X0049698Y0483513D01*
X0049702Y0483473D01*
X0049709Y0483422D01*
Y0483408D01*
X0049713Y0483393D01*
Y0483371D01*
X0049716Y0483342D01*
Y0483310D01*
X0049720Y0483273D01*
Y0483164D01*
X0049716Y0483131D01*
Y0483102D01*
X0049709Y0483037D01*
Y0483026D01*
X0049705Y0483011D01*
Y0482993D01*
X0049698Y0482953D01*
X0049691Y0482913D01*
X0049687Y0482905D01*
X0049680Y0482887D01*
X0049669Y0482869D01*
X0049654Y0482851D01*
X0049651Y0482847D01*
X0049636Y0482844D01*
X0049618Y0482840D01*
X0049596Y0482836D01*
X0048857D01*
Y0481253D01*
X0048854Y0481227D01*
X0048846Y0481198D01*
X0048843Y0481195D01*
X0048835Y0481180D01*
X0048821Y0481162D01*
X0048799Y0481144D01*
X0048795D01*
X0048792Y0481140D01*
X0048770Y0481133D01*
X0048733Y0481122D01*
X0048686Y0481111D01*
X0048683D01*
X0048672D01*
X0048657Y0481107D01*
X0048632D01*
X0048606Y0481104D01*
X0048570D01*
X0048533Y0481100D01*
X0048490D01*
X0048486D01*
X0048471D01*
X0048453D01*
X0048428D01*
X0048373D01*
X0048315Y0481104D01*
X0048311D01*
X0048304D01*
X0048289Y0481107D01*
X0048271D01*
X0048228Y0481111D01*
X0048184Y0481118D01*
X0048180D01*
X0048173Y0481122D01*
X0048162D01*
X0048147Y0481125D01*
X0048111Y0481136D01*
X0048071Y0481147D01*
X0048067D01*
X0048060Y0481151D01*
X0048049Y0481155D01*
X0048035Y0481162D01*
X0047998Y0481180D01*
X0047955Y0481202D01*
X0045727Y0482465D01*
X0045723Y0482469D01*
X0045709Y0482476D01*
X0045694Y0482494D01*
X0045680Y0482516D01*
Y0482520D01*
X0045676Y0482523D01*
X0045665Y0482545D01*
X0045654Y0482578D01*
X0045643Y0482621D01*
Y0482625D01*
X0045640Y0482632D01*
Y0482651D01*
X0045636Y0482669D01*
X0045632Y0482694D01*
X0045629Y0482723D01*
X0045625Y0482756D01*
X0045621Y0482793D01*
Y0482811D01*
X0045618Y0482833D01*
Y0482902D01*
X0045614Y0482942D01*
Y0483138D01*
X0045618Y0483182D01*
Y0483229D01*
X0045621Y0483277D01*
X0045625Y0483320D01*
Y0483339D01*
X0045629Y0483360D01*
X0045632Y0483386D01*
X0045640Y0483444D01*
X0045643Y0483473D01*
X0045650Y0483499D01*
Y0483502D01*
X0045654Y0483510D01*
X0045658Y0483524D01*
X0045661Y0483539D01*
X0045672Y0483572D01*
X0045691Y0483601D01*
X0045694Y0483604D01*
X0045709Y0483619D01*
X0045727Y0483630D01*
X0045752Y0483633D01*
X0048198D01*
Y0484001D01*
X0048202Y0484012D01*
X0048209Y0484023D01*
X0048217Y0484037D01*
X0048231Y0484052D01*
X0048253Y0484067D01*
X0048278Y0484081D01*
X0048282D01*
X0048293Y0484088D01*
X0048311Y0484092D01*
X0048340Y0484099D01*
X0048373Y0484107D01*
X0048417Y0484110D01*
X0048471Y0484118D01*
X0048533D01*
X0048541D01*
X0048559D01*
X0048588D01*
X0048624Y0484114D01*
D02*
G37*
%LPC*%
G36*
X0048198Y0482836D02*
X0046327D01*
Y0482829D01*
X0048198Y0481759D01*
Y0482836D01*
D02*
G37*
%LPD*%
G36*
X0186763Y0225572D02*
X0186847Y0225149D01*
X0187329Y0224428D01*
X0187576Y0224262D01*
Y0218549D01*
X0174559Y0205532D01*
X0173985Y0205706D01*
X0173956Y0205851D01*
X0173474Y0206573D01*
X0172753Y0207055D01*
X0171902Y0207224D01*
X0171051Y0207055D01*
X0170563Y0206729D01*
X0170130Y0207161D01*
X0170456Y0207649D01*
X0170626Y0208500D01*
X0170456Y0209351D01*
X0169974Y0210072D01*
X0169945Y0210092D01*
X0169940Y0210154D01*
X0170096Y0210713D01*
X0170409Y0210775D01*
X0170839Y0211063D01*
X0174594Y0214818D01*
X0174802Y0214776D01*
X0175653Y0214945D01*
X0176374Y0215427D01*
X0176856Y0216149D01*
X0177026Y0217000D01*
X0176856Y0217851D01*
X0176374Y0218572D01*
X0175653Y0219055D01*
X0174802Y0219224D01*
X0173951Y0219055D01*
X0173229Y0218572D01*
X0172747Y0217851D01*
X0172578Y0217000D01*
X0172652Y0216625D01*
X0169353Y0213326D01*
X0086993D01*
X0086486Y0213225D01*
X0086056Y0212937D01*
X0074964Y0201846D01*
X0074677Y0201416D01*
X0074576Y0200909D01*
Y0197582D01*
X0073511Y0197141D01*
X0072521Y0196381D01*
X0071761Y0195390D01*
X0071284Y0194237D01*
X0071204Y0193635D01*
X0070599D01*
X0070520Y0194237D01*
X0070042Y0195390D01*
X0069283Y0196381D01*
X0068292Y0197141D01*
X0067139Y0197618D01*
X0065902Y0197781D01*
X0064664Y0197618D01*
X0063511Y0197141D01*
X0062827Y0196616D01*
X0062227Y0196912D01*
Y0210451D01*
X0072451Y0220674D01*
X0112664D01*
X0112829Y0220427D01*
X0113344Y0220083D01*
X0113350Y0220070D01*
Y0219430D01*
X0113344Y0219417D01*
X0112829Y0219073D01*
X0112347Y0218351D01*
X0112178Y0217500D01*
X0112347Y0216649D01*
X0112829Y0215928D01*
X0113551Y0215445D01*
X0114402Y0215276D01*
X0115253Y0215445D01*
X0115596Y0215674D01*
X0160164D01*
X0160329Y0215427D01*
X0161051Y0214945D01*
X0161902Y0214776D01*
X0162753Y0214945D01*
X0163474Y0215427D01*
X0163956Y0216149D01*
X0164126Y0217000D01*
X0163956Y0217851D01*
X0163474Y0218572D01*
X0162753Y0219055D01*
X0161902Y0219224D01*
X0161051Y0219055D01*
X0160329Y0218572D01*
X0160164Y0218325D01*
X0116461D01*
X0116456Y0218351D01*
X0115974Y0219073D01*
X0115459Y0219417D01*
X0115454Y0219430D01*
Y0220070D01*
X0115459Y0220083D01*
X0115974Y0220427D01*
X0116456Y0221149D01*
X0116626Y0222000D01*
X0116456Y0222851D01*
X0116307Y0223075D01*
X0116628Y0223675D01*
X0126959D01*
X0129970Y0220663D01*
X0130400Y0220375D01*
X0130908Y0220274D01*
X0148896D01*
X0149403Y0220375D01*
X0149833Y0220663D01*
X0150845Y0221674D01*
X0164164D01*
X0164329Y0221427D01*
X0165051Y0220945D01*
X0165902Y0220776D01*
X0166753Y0220945D01*
X0167474Y0221427D01*
X0167956Y0222149D01*
X0168126Y0223000D01*
X0167956Y0223851D01*
X0167807Y0224075D01*
X0168128Y0224675D01*
X0182164D01*
X0182329Y0224428D01*
X0183051Y0223945D01*
X0183902Y0223776D01*
X0184753Y0223945D01*
X0185474Y0224428D01*
X0185956Y0225149D01*
X0186040Y0225572D01*
X0186096Y0225851D01*
X0186708D01*
X0186763Y0225572D01*
D02*
G37*
D12*
X0172259Y0420000D02*
Y0441060D01*
X0165902Y0447418D02*
X0172259Y0441060D01*
X0165902Y0447418D02*
Y0450000D01*
X0157902Y0430000D02*
Y0436000D01*
D14*
X0096408Y0248900D02*
X0157802D01*
X0157902Y0249000D01*
X0241753Y0142851D02*
X0246102Y0147200D01*
X0238847Y0142851D02*
X0241753D01*
X0240284Y0146382D02*
X0244902Y0151000D01*
X0236630Y0146382D02*
X0240284D01*
X0239475Y0151574D02*
X0243702Y0155800D01*
X0237145Y0151574D02*
X0239475D01*
X0237122Y0155081D02*
X0241302Y0159261D01*
Y0207794D01*
X0244902Y0151000D02*
Y0164303D01*
X0246102Y0147200D02*
Y0208492D01*
X0174802Y0216900D02*
Y0217000D01*
X0169902Y0212000D02*
X0174802Y0216900D01*
X0058402Y0155500D02*
X0060770Y0157868D01*
Y0185573D02*
X0065902Y0190706D01*
X0060770Y0157868D02*
Y0185573D01*
X0057902Y0155500D02*
X0058402D01*
X0065902Y0190706D02*
Y0193000D01*
X0078755Y0183000D02*
X0083452Y0187697D01*
X0088099D02*
X0090902Y0190500D01*
X0083452Y0187697D02*
X0088099D01*
X0240602Y0210598D02*
Y0360496D01*
X0230098Y0371000D02*
X0240602Y0360496D01*
X0200152Y0371000D02*
X0230098D01*
X0139484Y0163213D02*
X0142297Y0160400D01*
X0182502D01*
X0137493Y0159200D02*
X0174702D01*
X0131436Y0165257D02*
Y0168072D01*
Y0165257D02*
X0137493Y0159200D01*
X0139663Y0167845D02*
Y0169361D01*
Y0167845D02*
X0145908Y0161600D01*
X0187302D01*
X0056402Y0048500D02*
Y0132500D01*
X0063902Y0041000D02*
Y0041000D01*
X0056402Y0048500D02*
X0063902Y0041000D01*
X0245902Y0395500D02*
X0262902Y0412500D01*
X0245902Y0377200D02*
Y0395500D01*
X0207902Y0377000D02*
X0208102Y0377200D01*
X0245902D01*
X0211902Y0374000D02*
X0232902D01*
X0214902Y0358000D02*
Y0360000D01*
X0204902Y0188000D02*
X0205902Y0187000D01*
X0160902Y0188000D02*
X0204902D01*
X0155902Y0183000D02*
X0160902Y0188000D01*
X0151599Y0226000D02*
X0183902D01*
X0148399Y0222800D02*
X0151599Y0226000D01*
X0086993Y0212000D02*
X0169902D01*
X0075902Y0200909D02*
X0086993Y0212000D01*
X0097255Y0208500D02*
X0167902D01*
X0090902Y0202147D02*
X0097255Y0208500D01*
X0040902Y0148000D02*
X0056402Y0132500D01*
X0040902Y0148000D02*
Y0209000D01*
X0090902Y0190500D02*
Y0202147D01*
X0187302Y0161600D02*
X0189902Y0159000D01*
X0186902Y0147000D02*
X0189902D01*
X0144902Y0227000D02*
X0145902Y0226000D01*
X0131902Y0227000D02*
X0144902D01*
X0130908Y0221600D02*
X0148896D01*
X0131405Y0222800D02*
X0148399D01*
X0150296Y0223000D02*
X0165902D01*
X0148896Y0221600D02*
X0150296Y0223000D01*
X0075902Y0183000D02*
X0078755D01*
X0075902Y0193000D02*
Y0200909D01*
X0045902Y0193000D02*
X0046902Y0194000D01*
X0045902Y0183000D02*
X0050902Y0188000D01*
X0046902Y0194000D02*
Y0200394D01*
X0050902Y0188000D02*
Y0202697D01*
X0217185Y0136409D02*
Y0162000D01*
X0182502Y0160400D02*
X0189902Y0153000D01*
X0174702Y0159200D02*
X0186902Y0147000D01*
X0128433Y0162900D02*
X0133333Y0158000D01*
X0172902D02*
X0189902Y0141000D01*
X0133333Y0158000D02*
X0172902D01*
X0055902Y0183000D02*
Y0184000D01*
X0060902Y0211000D02*
X0071902Y0222000D01*
X0055902Y0184000D02*
X0060902Y0189000D01*
Y0211000D01*
X0057902Y0149500D02*
X0065902Y0157500D01*
Y0183000D01*
X0053902Y0146500D02*
X0057902Y0142500D01*
X0053902Y0146500D02*
Y0181000D01*
X0055902Y0183000D01*
X0135902Y0193000D02*
X0142902Y0200000D01*
X0151402Y0205000D02*
X0171902D01*
X0188902Y0218000D02*
Y0226000D01*
X0172902Y0202000D02*
X0188902Y0218000D01*
X0142902Y0200000D02*
X0175402D01*
X0184402Y0209000D01*
X0089902Y0239000D02*
X0097402Y0246500D01*
X0082902Y0245000D02*
X0094205D01*
X0096905Y0247700D01*
X0054002Y0280000D02*
X0087402Y0246600D01*
X0094108D01*
X0096408Y0248900D01*
X0114402Y0217500D02*
X0114902Y0217000D01*
X0161902D01*
X0071902Y0222000D02*
X0114402D01*
X0050902Y0202697D02*
X0073205Y0225000D01*
X0127508D01*
X0130908Y0221600D01*
X0046902Y0200394D02*
X0072708Y0226200D01*
X0128005D01*
X0131405Y0222800D01*
X0040902Y0209000D02*
X0066902Y0235000D01*
X0144702Y0236000D02*
X0145702Y0235000D01*
X0112402Y0236000D02*
X0144702D01*
X0111402Y0235000D02*
X0112402Y0236000D01*
X0111805Y0237100D02*
X0111905Y0237200D01*
X0094902Y0239000D02*
X0096802Y0237100D01*
X0111805D01*
X0066902Y0235000D02*
X0111402D01*
X0097402Y0246500D02*
X0153402D01*
X0159902Y0240000D01*
X0096905Y0247700D02*
X0153899D01*
X0157599Y0244000D01*
X0159902D01*
X0111905Y0237200D02*
X0149708D01*
X0150908Y0238400D01*
X0155502D02*
X0160902Y0233000D01*
X0150908Y0238400D02*
X0155502D01*
X0243702Y0155800D02*
Y0163806D01*
X0242502Y0165006D02*
X0243702Y0163806D01*
Y0165503D02*
X0244902Y0164303D01*
X0243702Y0165503D02*
Y0209195D01*
X0242502Y0165006D02*
Y0208698D01*
X0241802Y0211095D02*
X0243702Y0209195D01*
X0240602Y0210598D02*
X0242502Y0208698D01*
X0238302Y0210794D02*
Y0334600D01*
X0214902Y0358000D02*
X0238302Y0334600D01*
X0232902Y0374000D02*
X0241802Y0365100D01*
Y0211095D02*
Y0365100D01*
X0243002Y0211592D02*
X0246102Y0208492D01*
X0243002Y0211592D02*
Y0373900D01*
X0246102Y0377000D01*
X0238302Y0210794D02*
X0241302Y0207794D01*
X0109902Y0202000D02*
X0172902D01*
D42*
X0142193Y0484500D02*
D03*
X0153610D02*
D03*
D85*
X0153264Y0409638D02*
D03*
X0148540Y0414362D02*
D03*
X0153264D02*
D03*
X0148540Y0409638D02*
D03*
X0190173Y0271776D02*
D03*
X0189780Y0308882D02*
D03*
X0152083Y0134276D02*
D03*
X0149130Y0109768D02*
D03*
X0140862Y0110063D02*
D03*
X0131315Y0109965D02*
D03*
X0127477Y0137917D02*
D03*
X0123540Y0109571D02*
D03*
X0122555Y0308882D02*
D03*
X0054150Y0309177D02*
D03*
X0233677Y0266559D02*
D03*
X0238847Y0142851D02*
D03*
X0236630Y0146382D02*
D03*
X0237145Y0151574D02*
D03*
X0237122Y0155081D02*
D03*
X0005626Y0342347D02*
D03*
X0123251Y0125349D02*
D03*
X0122555Y0325811D02*
D03*
X0204902Y0263000D02*
D03*
X0181217Y0237622D02*
D03*
X0173302Y0239000D02*
D03*
X0174802Y0217000D02*
D03*
X0173302Y0244000D02*
D03*
X0192043Y0245496D02*
D03*
X0119902Y0420000D02*
D03*
X0237319Y0190378D02*
D03*
X0217634Y0184472D02*
D03*
X0222994Y0323908D02*
D03*
X0004642Y0304945D02*
D03*
X0111729Y0080043D02*
D03*
X0264288Y0112327D02*
D03*
X0269110Y0112721D02*
D03*
X0268815Y0150811D02*
D03*
X0233829Y0367269D02*
D03*
X0139484Y0163213D02*
D03*
X0131436Y0168072D02*
D03*
X0139663Y0169361D02*
D03*
X0248146Y0424630D02*
D03*
X0063107Y0046705D02*
D03*
X0101902Y0016000D02*
D03*
X0094402D02*
D03*
X0051402Y0422098D02*
D03*
X0257402Y0382500D02*
D03*
X0254996Y0082095D02*
D03*
X0208902Y0245000D02*
D03*
X0182477Y0263925D02*
D03*
X0260051Y0227150D02*
D03*
X0045902Y0160500D02*
D03*
X0207902Y0377000D02*
D03*
X0211902Y0374000D02*
D03*
X0100402Y0217000D02*
D03*
X0081402Y0374000D02*
D03*
X0096402D02*
D03*
X0157902Y0436000D02*
D03*
Y0430000D02*
D03*
X0148902Y0427000D02*
D03*
X0266902Y0198000D02*
D03*
X0189902Y0332000D02*
D03*
X0272902Y0182000D02*
D03*
X0092402Y0249000D02*
D03*
X0054002Y0293500D02*
D03*
X0081902Y0299000D02*
D03*
X0083402Y0272500D02*
D03*
X0090402Y0295000D02*
D03*
X0092402Y0279500D02*
D03*
X0121902Y0285500D02*
D03*
X0008902Y0316000D02*
D03*
X0054147Y0328146D02*
D03*
X0078402Y0314000D02*
D03*
X0054002Y0334500D02*
D03*
X0022902Y0441000D02*
D03*
X0058902Y0422000D02*
D03*
X0086902Y0345000D02*
D03*
Y0337000D02*
D03*
X0083902Y0411000D02*
D03*
Y0417000D02*
D03*
Y0423000D02*
D03*
X0090402Y0299500D02*
D03*
X0097402Y0329500D02*
D03*
X0134902Y0332000D02*
D03*
X0128402Y0358500D02*
D03*
X0123902Y0408000D02*
D03*
X0131902Y0429000D02*
D03*
X0146902Y0331500D02*
D03*
X0182477Y0331075D02*
D03*
X0144902Y0355500D02*
D03*
X0152902Y0360000D02*
D03*
X0162402Y0360500D02*
D03*
X0234051Y0430850D02*
D03*
X0200902Y0170000D02*
D03*
X0063902Y0041000D02*
D03*
X0145702Y0235000D02*
D03*
X0063902Y0091000D02*
D03*
X0046902Y0121000D02*
D03*
Y0135000D02*
D03*
X0191902Y0350500D02*
D03*
X0151902Y0080000D02*
D03*
X0095902Y0139000D02*
D03*
X0160902Y0233000D02*
D03*
X0159902Y0239000D02*
D03*
X0169402Y0234500D02*
D03*
X0200152Y0371000D02*
D03*
X0222402Y0299000D02*
D03*
Y0294500D02*
D03*
Y0284000D02*
D03*
X0223902Y0270500D02*
D03*
X0226902Y0251000D02*
D03*
X0204902Y0256000D02*
D03*
X0187902Y0301000D02*
D03*
X0151902Y0234000D02*
D03*
X0130902Y0233500D02*
D03*
X0145902Y0226000D02*
D03*
X0131902Y0227000D02*
D03*
X0161902Y0217000D02*
D03*
X0114402Y0217500D02*
D03*
X0168402Y0208500D02*
D03*
X0171902Y0205000D02*
D03*
X0151402D02*
D03*
X0110402Y0201500D02*
D03*
X0103902Y0239500D02*
D03*
X0004902Y0310000D02*
D03*
X0008902Y0288000D02*
D03*
X0122902Y0291000D02*
D03*
X0223902Y0234000D02*
D03*
X0142402Y0265500D02*
D03*
X0092402Y0269000D02*
D03*
X0102402Y0322000D02*
D03*
X0032402Y0242000D02*
D03*
X0072402Y0295000D02*
D03*
X0172902Y0119500D02*
D03*
X0151918Y0124984D02*
D03*
X0150402Y0138500D02*
D03*
X0104402Y0099500D02*
D03*
X0104902Y0072000D02*
D03*
X0157902D02*
D03*
X0130902Y0075000D02*
D03*
X0170902Y0098000D02*
D03*
X0153902Y0086000D02*
D03*
X0157402Y0266000D02*
D03*
X0157902Y0249000D02*
D03*
X0054002Y0280000D02*
D03*
X0020402Y0342500D02*
D03*
X0094902Y0239000D02*
D03*
X0089902D02*
D03*
X0082902Y0245000D02*
D03*
X0159902Y0244000D02*
D03*
X0210902Y0054000D02*
D03*
X0217902Y0053000D02*
D03*
X0199902Y0097000D02*
D03*
X0176402Y0071000D02*
D03*
X0229902Y0055000D02*
D03*
X0232902Y0374000D02*
D03*
X0096902Y0148500D02*
D03*
X0183902Y0226000D02*
D03*
X0165902Y0223000D02*
D03*
X0188902Y0226000D02*
D03*
X0205902Y0187000D02*
D03*
X0170902Y0092000D02*
D03*
X0195902Y0026000D02*
D03*
X0165902Y0411000D02*
D03*
X0128433Y0162900D02*
D03*
X0189902Y0159000D02*
D03*
Y0153000D02*
D03*
Y0147000D02*
D03*
Y0141000D02*
D03*
X0214902Y0360000D02*
D03*
X0112402Y0160500D02*
D03*
X0008902Y0330500D02*
D03*
X0027402Y0242000D02*
D03*
X0053902Y0239000D02*
D03*
X0010902Y0064000D02*
D03*
X0267902D02*
D03*
X0266902Y0430000D02*
D03*
X0075902Y0464000D02*
D03*
X0123146D02*
D03*
X0225902D02*
D03*
X0104902Y0345000D02*
D03*
X0025902Y0214000D02*
D03*
X0026902Y0164000D02*
D03*
X0027902Y0114000D02*
D03*
X0226402Y0089000D02*
D03*
X0235402Y0126000D02*
D03*
X0144902Y0166000D02*
D03*
X0131402Y0441000D02*
D03*
X0172259Y0420000D02*
D03*
X0165902Y0450000D02*
D03*
X0026591Y0294315D02*
D03*
X0109902Y0087000D02*
D03*
X0193902Y0097000D02*
D03*
X0177902Y0119500D02*
D03*
X0147902Y0441000D02*
D03*
X0057902Y0155500D02*
D03*
Y0149500D02*
D03*
Y0142500D02*
D03*
X0184402Y0209000D02*
D03*
X0099402Y0303500D02*
D03*
X0135402Y0358500D02*
D03*
X0144902Y0350500D02*
D03*
X0148402Y0360000D02*
D03*
X0169402Y0355500D02*
D03*
X0128402Y0354000D02*
D03*
X0135402D02*
D03*
X0169402Y0360500D02*
D03*
X0191902Y0355500D02*
D03*
X0199902D02*
D03*
Y0350500D02*
D03*
X0071902Y0314000D02*
D03*
X0102402Y0329500D02*
D03*
X0097402Y0322000D02*
D03*
X0077402Y0295000D02*
D03*
X0087402Y0269000D02*
D03*
X0103402Y0252500D02*
D03*
X0090902Y0258000D02*
D03*
X0096402Y0252500D02*
D03*
X0114402Y0222000D02*
D03*
X0130902Y0240000D02*
D03*
X0122902D02*
D03*
Y0233500D02*
D03*
X0147902Y0243000D02*
D03*
X0214402Y0267000D02*
D03*
X0219402D02*
D03*
X0213402Y0288000D02*
D03*
X0218402D02*
D03*
X0213402Y0303000D02*
D03*
Y0327000D02*
D03*
X0218402D02*
D03*
X0257402Y0393500D02*
D03*
X0264402Y0382000D02*
D03*
Y0393500D02*
D03*
X0121402Y0164500D02*
D03*
X0106402Y0143000D02*
D03*
X0161902Y0355500D02*
D03*
X0246402Y0217500D02*
D03*
Y0213000D02*
D03*
X0245902Y0223000D02*
D03*
X0217402Y0240500D02*
D03*
X0214402Y0071000D02*
D03*
X0199622Y0070535D02*
D03*
X0190075Y0070945D02*
D03*
Y0079945D02*
D03*
X0199622Y0080535D02*
D03*
D86*
X0266902Y0442000D02*
D03*
X0010902Y0441000D02*
D03*
X0267902Y0051000D02*
D03*
X0010902Y0052000D02*
D03*
D88*
X0268902Y0103905D02*
D03*
Y0082095D02*
D03*
Y0142905D02*
D03*
Y0121095D02*
D03*
D90*
X0264288Y0108520D02*
X0268902Y0103905D01*
X0264288Y0108520D02*
Y0112327D01*
X0148854Y0108953D02*
X0149130Y0109228D01*
Y0109768D01*
X0127477Y0137917D02*
Y0138925D01*
X0127302Y0139100D02*
X0127477Y0138925D01*
X0212118Y0245000D02*
X0233677Y0266559D01*
X0208902Y0245000D02*
X0212118D01*
X0269110Y0112721D02*
Y0120886D01*
X0268902Y0121095D02*
X0269110Y0120886D01*
X0268815Y0142992D02*
Y0150811D01*
Y0142992D02*
X0268902Y0142905D01*
X0254996Y0082095D02*
X0268902D01*
X0182477Y0262575D02*
Y0263925D01*
X0054002Y0328291D02*
X0054147Y0328146D01*
X0089293Y0441780D02*
X0089981D01*
X0141823Y0051221D02*
X0142511D01*
X0095902Y0139000D02*
X0096002Y0139100D01*
X0266902Y0430000D02*
Y0442000D01*
X0010902Y0052000D02*
Y0064000D01*
X0267902Y0051000D02*
Y0064000D01*
D91*
X0119902Y0420000D02*
X0120902D01*
D93*
X0272902Y0225500D02*
Y0249480D01*
X0261902Y0256000D02*
X0262376Y0255525D01*
X0266857D01*
X0272902Y0249480D01*
X0142193Y0474709D02*
Y0484500D01*
Y0474709D02*
X0143902Y0473000D01*
X0153610Y0473291D02*
X0153902Y0473000D01*
X0153610Y0473291D02*
Y0484500D01*
X0143902Y0473000D02*
X0153902D01*
X0246902Y0217500D02*
X0264902D01*
X0272902Y0225500D01*
X0246402Y0213000D02*
Y0217500D01*
D97*
X0143902Y0473000D02*
D03*
X0193402Y0393000D02*
D03*
Y0383000D02*
D03*
X0183402Y0393000D02*
D03*
Y0383000D02*
D03*
X0173402Y0393000D02*
D03*
Y0383000D02*
D03*
X0163402Y0393000D02*
D03*
Y0383000D02*
D03*
X0153402Y0393000D02*
D03*
Y0383000D02*
D03*
X0143402Y0393000D02*
D03*
Y0383000D02*
D03*
X0133402Y0393000D02*
D03*
X0202902Y0412500D02*
D03*
X0212902D02*
D03*
X0222902D02*
D03*
X0232902D02*
D03*
X0242902D02*
D03*
X0252902D02*
D03*
X0262902D02*
D03*
X0192902D02*
D03*
X0035902Y0183000D02*
D03*
Y0193000D02*
D03*
X0045902Y0183000D02*
D03*
Y0193000D02*
D03*
X0055902Y0183000D02*
D03*
Y0193000D02*
D03*
X0065902Y0183000D02*
D03*
Y0193000D02*
D03*
X0075902Y0183000D02*
D03*
Y0193000D02*
D03*
X0085902Y0183000D02*
D03*
Y0193000D02*
D03*
X0095902Y0183000D02*
D03*
Y0193000D02*
D03*
X0105902Y0183000D02*
D03*
Y0193000D02*
D03*
X0115902Y0183000D02*
D03*
Y0193000D02*
D03*
X0125902Y0183000D02*
D03*
Y0193000D02*
D03*
X0135902Y0183000D02*
D03*
Y0193000D02*
D03*
X0145902Y0183000D02*
D03*
Y0193000D02*
D03*
X0155902Y0183000D02*
D03*
Y0193000D02*
D03*
X0165902Y0183000D02*
D03*
Y0193000D02*
D03*
X0175902Y0183000D02*
D03*
Y0193000D02*
D03*
X0185902Y0183000D02*
D03*
Y0193000D02*
D03*
X0195902Y0183000D02*
D03*
X0261902Y0366000D02*
D03*
X0251902Y0356000D02*
D03*
X0261902D02*
D03*
X0251902Y0346000D02*
D03*
X0261902D02*
D03*
X0251902Y0336000D02*
D03*
X0261902D02*
D03*
X0251902Y0326000D02*
D03*
X0261902D02*
D03*
X0251902Y0316000D02*
D03*
X0261902D02*
D03*
X0251902Y0306000D02*
D03*
X0261902D02*
D03*
X0251902Y0296000D02*
D03*
X0261902D02*
D03*
X0251902Y0286000D02*
D03*
X0261902D02*
D03*
X0251902Y0276000D02*
D03*
X0261902D02*
D03*
X0251902Y0266000D02*
D03*
X0261902D02*
D03*
X0251902Y0256000D02*
D03*
X0261902D02*
D03*
X0251902Y0246000D02*
D03*
X0261902D02*
D03*
D98*
X0153902Y0473000D02*
D03*
X0133402Y0383000D02*
D03*
X0182902Y0412500D02*
D03*
X0195902Y0193000D02*
D03*
D99*
X0253000Y0468000D02*
D03*
X0024902D02*
D03*
X0025000Y0025000D02*
D03*
X0253000D02*
D03*
D100*
X0217185Y0136409D02*
D03*
Y0162000D02*
D03*
X0234902Y0136409D02*
D03*
Y0162000D02*
D03*
D101*
X0177036Y0453528D02*
D03*
X0228768D02*
D03*
X0113201Y0040551D02*
D03*
X0160602D02*
D03*
X0071201Y0452449D02*
D03*
X0118603D02*
D03*
D102*
X0216681Y0442858D02*
D03*
D103*
X0206839D02*
D03*
X0189122Y0442858D02*
D03*
X0198965Y0442858D02*
D03*
X0131981Y0051221D02*
D03*
X0141823D02*
D03*
X0131981Y0059095D02*
D03*
X0099823Y0433906D02*
D03*
X0089981Y0441780D02*
D03*
X0099823D02*
D03*
D104*
X0141823Y0059095D02*
D03*
X0089981Y0433906D02*
D03*
D105*
X0251902Y0366000D02*
D03*
M02*
