G04*
G04 #@! TF.GenerationSoftware,Altium Limited,Altium Designer,20.0.13 (296)*
G04*
G04 Layer_Physical_Order=4*
G04 Layer_Color=16711680*
%FSAX25Y25*%
%MOIN*%
G70*
G01*
G75*
%ADD12C,0.01000*%
%ADD14C,0.00600*%
%ADD22R,0.16000X0.16000*%
G04:AMPARAMS|DCode=40|XSize=68.9mil|YSize=149.61mil|CornerRadius=8.61mil|HoleSize=0mil|Usage=FLASHONLY|Rotation=90.000|XOffset=0mil|YOffset=0mil|HoleType=Round|Shape=RoundedRectangle|*
%AMROUNDEDRECTD40*
21,1,0.06890,0.13238,0,0,90.0*
21,1,0.05167,0.14961,0,0,90.0*
1,1,0.01722,0.06619,0.02584*
1,1,0.01722,0.06619,-0.02584*
1,1,0.01722,-0.06619,-0.02584*
1,1,0.01722,-0.06619,0.02584*
%
%ADD40ROUNDEDRECTD40*%
%ADD44R,0.05118X0.07087*%
%ADD87C,0.02362*%
%ADD88C,0.01200*%
%ADD90C,0.02000*%
%ADD91C,0.05000*%
%ADD95C,0.07874*%
%ADD96R,0.07480X0.07480*%
%ADD97C,0.07480*%
%ADD98C,0.22835*%
%ADD99C,0.06299*%
%ADD100R,0.06299X0.06299*%
%ADD101C,0.14961*%
%ADD102R,0.06299X0.06299*%
%ADD103R,0.07480X0.07480*%
G36*
X0429728Y0777340D02*
X0432325Y0776898D01*
X0434856Y0776169D01*
X0437289Y0775161D01*
X0439594Y0773887D01*
X0441742Y0772363D01*
X0443706Y0770608D01*
X0445461Y0768644D01*
X0446986Y0766496D01*
X0448260Y0764191D01*
X0449268Y0761757D01*
X0449997Y0759226D01*
X0450438Y0756630D01*
X0450560Y0754451D01*
X0450471Y0754000D01*
Y0737312D01*
X0450000Y0737000D01*
X0449871Y0737000D01*
X0441500D01*
Y0728000D01*
Y0719000D01*
X0449871D01*
X0450000Y0719000D01*
X0450471Y0718688D01*
Y0537692D01*
X0449871Y0537489D01*
X0449496Y0537977D01*
X0443451Y0544022D01*
X0442720Y0544583D01*
X0441869Y0544935D01*
X0440955Y0545056D01*
X0439630D01*
X0439381Y0545381D01*
X0438390Y0546140D01*
X0437237Y0546618D01*
X0436635Y0546697D01*
Y0547303D01*
X0437237Y0547382D01*
X0438390Y0547859D01*
X0439381Y0548619D01*
X0440140Y0549610D01*
X0440618Y0550763D01*
X0440781Y0552000D01*
X0440618Y0553237D01*
X0440140Y0554390D01*
X0439381Y0555381D01*
X0438390Y0556141D01*
X0437237Y0556618D01*
X0436635Y0556697D01*
Y0557303D01*
X0437237Y0557382D01*
X0438390Y0557860D01*
X0439381Y0558619D01*
X0440140Y0559610D01*
X0440618Y0560763D01*
X0440781Y0562000D01*
X0440618Y0563237D01*
X0440140Y0564391D01*
X0439381Y0565381D01*
X0438390Y0566141D01*
X0437237Y0566618D01*
X0436635Y0566697D01*
Y0567303D01*
X0437237Y0567382D01*
X0438390Y0567860D01*
X0439381Y0568619D01*
X0440140Y0569609D01*
X0440618Y0570763D01*
X0440781Y0572000D01*
X0440618Y0573237D01*
X0440140Y0574391D01*
X0439381Y0575381D01*
X0438390Y0576140D01*
X0437237Y0576618D01*
X0436635Y0576697D01*
Y0577303D01*
X0437237Y0577382D01*
X0438390Y0577859D01*
X0439381Y0578619D01*
X0440140Y0579609D01*
X0440618Y0580763D01*
X0440781Y0582000D01*
X0440618Y0583237D01*
X0440140Y0584390D01*
X0439381Y0585381D01*
X0438390Y0586140D01*
X0437237Y0586618D01*
X0436635Y0586697D01*
Y0587303D01*
X0437237Y0587382D01*
X0438390Y0587859D01*
X0439381Y0588619D01*
X0440140Y0589609D01*
X0440618Y0590763D01*
X0440781Y0592000D01*
X0440618Y0593237D01*
X0440140Y0594390D01*
X0439381Y0595381D01*
X0438390Y0596140D01*
X0437237Y0596618D01*
X0436635Y0596697D01*
Y0597303D01*
X0437237Y0597382D01*
X0438390Y0597859D01*
X0439381Y0598619D01*
X0440140Y0599610D01*
X0440618Y0600763D01*
X0440781Y0602000D01*
X0440618Y0603237D01*
X0440140Y0604390D01*
X0439381Y0605381D01*
X0438390Y0606141D01*
X0437237Y0606618D01*
X0436635Y0606697D01*
Y0607303D01*
X0437237Y0607382D01*
X0438390Y0607860D01*
X0439381Y0608619D01*
X0440140Y0609610D01*
X0440618Y0610763D01*
X0440781Y0612000D01*
X0440618Y0613237D01*
X0440140Y0614391D01*
X0439381Y0615381D01*
X0438390Y0616141D01*
X0437237Y0616618D01*
X0436635Y0616697D01*
Y0617303D01*
X0437237Y0617382D01*
X0438390Y0617860D01*
X0439381Y0618619D01*
X0440140Y0619609D01*
X0440618Y0620763D01*
X0440781Y0622000D01*
X0440618Y0623237D01*
X0440140Y0624391D01*
X0439381Y0625381D01*
X0438390Y0626140D01*
X0437237Y0626618D01*
X0436635Y0626697D01*
Y0627303D01*
X0437237Y0627382D01*
X0438390Y0627859D01*
X0439381Y0628619D01*
X0440140Y0629609D01*
X0440618Y0630763D01*
X0440781Y0632000D01*
X0440618Y0633237D01*
X0440140Y0634390D01*
X0439381Y0635381D01*
X0438390Y0636140D01*
X0437237Y0636618D01*
X0436635Y0636697D01*
Y0637303D01*
X0437237Y0637382D01*
X0438390Y0637859D01*
X0439381Y0638619D01*
X0440140Y0639609D01*
X0440618Y0640763D01*
X0440781Y0642000D01*
X0440618Y0643237D01*
X0440140Y0644390D01*
X0439381Y0645381D01*
X0438390Y0646140D01*
X0437237Y0646618D01*
X0436635Y0646697D01*
Y0647303D01*
X0437237Y0647382D01*
X0438390Y0647859D01*
X0439381Y0648619D01*
X0440140Y0649610D01*
X0440618Y0650763D01*
X0440715Y0651500D01*
X0436000D01*
Y0652000D01*
X0435500D01*
Y0656715D01*
X0434763Y0656618D01*
X0433609Y0656141D01*
X0432619Y0655381D01*
X0431859Y0654390D01*
X0431382Y0653237D01*
X0431340Y0652921D01*
X0430740Y0652960D01*
Y0656740D01*
X0426500D01*
Y0652000D01*
X0426000D01*
Y0651500D01*
X0421260D01*
Y0647260D01*
X0425040D01*
X0425079Y0646660D01*
X0424763Y0646618D01*
X0423609Y0646140D01*
X0422619Y0645381D01*
X0421860Y0644390D01*
X0421382Y0643237D01*
X0421219Y0642000D01*
X0421382Y0640763D01*
X0421860Y0639609D01*
X0422619Y0638619D01*
X0423609Y0637859D01*
X0424763Y0637382D01*
X0425365Y0637303D01*
Y0636697D01*
X0424763Y0636618D01*
X0423609Y0636140D01*
X0422619Y0635381D01*
X0421860Y0634390D01*
X0421382Y0633237D01*
X0421219Y0632000D01*
X0421382Y0630763D01*
X0421860Y0629609D01*
X0422619Y0628619D01*
X0423609Y0627859D01*
X0424763Y0627382D01*
X0425365Y0627303D01*
Y0626697D01*
X0424763Y0626618D01*
X0423609Y0626140D01*
X0422619Y0625381D01*
X0421860Y0624391D01*
X0421382Y0623237D01*
X0421219Y0622000D01*
X0421382Y0620763D01*
X0421860Y0619609D01*
X0422619Y0618619D01*
X0423609Y0617860D01*
X0424763Y0617382D01*
X0425365Y0617303D01*
Y0616697D01*
X0424763Y0616618D01*
X0423609Y0616141D01*
X0422619Y0615381D01*
X0421860Y0614391D01*
X0421382Y0613237D01*
X0421219Y0612000D01*
X0421382Y0610763D01*
X0421860Y0609610D01*
X0422619Y0608619D01*
X0423609Y0607860D01*
X0424763Y0607382D01*
X0425365Y0607303D01*
Y0606697D01*
X0424763Y0606618D01*
X0423609Y0606141D01*
X0422619Y0605381D01*
X0421860Y0604390D01*
X0421382Y0603237D01*
X0421219Y0602000D01*
X0421382Y0600763D01*
X0421860Y0599610D01*
X0422619Y0598619D01*
X0423609Y0597859D01*
X0424763Y0597382D01*
X0425365Y0597303D01*
Y0596697D01*
X0424763Y0596618D01*
X0423609Y0596140D01*
X0422619Y0595381D01*
X0421860Y0594390D01*
X0421382Y0593237D01*
X0421219Y0592000D01*
X0421382Y0590763D01*
X0421860Y0589609D01*
X0422619Y0588619D01*
X0423609Y0587859D01*
X0424763Y0587382D01*
X0425365Y0587303D01*
Y0586697D01*
X0424763Y0586618D01*
X0423609Y0586140D01*
X0422619Y0585381D01*
X0421860Y0584390D01*
X0421382Y0583237D01*
X0421219Y0582000D01*
X0421382Y0580763D01*
X0421860Y0579609D01*
X0422619Y0578619D01*
X0423609Y0577859D01*
X0424763Y0577382D01*
X0425365Y0577303D01*
Y0576697D01*
X0424763Y0576618D01*
X0423609Y0576140D01*
X0422619Y0575381D01*
X0421860Y0574391D01*
X0421382Y0573237D01*
X0421219Y0572000D01*
X0421382Y0570763D01*
X0421860Y0569609D01*
X0422619Y0568619D01*
X0423609Y0567860D01*
X0424763Y0567382D01*
X0425365Y0567303D01*
Y0566697D01*
X0424763Y0566618D01*
X0423609Y0566141D01*
X0422619Y0565381D01*
X0421860Y0564391D01*
X0421382Y0563237D01*
X0421219Y0562000D01*
X0421382Y0560763D01*
X0421860Y0559610D01*
X0422619Y0558619D01*
X0423609Y0557860D01*
X0424763Y0557382D01*
X0425365Y0557303D01*
Y0556697D01*
X0424763Y0556618D01*
X0423609Y0556141D01*
X0422619Y0555381D01*
X0421860Y0554390D01*
X0421382Y0553237D01*
X0421219Y0552000D01*
X0421382Y0550763D01*
X0421860Y0549610D01*
X0422619Y0548619D01*
X0423609Y0547859D01*
X0424763Y0547382D01*
X0425365Y0547303D01*
Y0546697D01*
X0424763Y0546618D01*
X0423609Y0546140D01*
X0422619Y0545381D01*
X0421860Y0544390D01*
X0421382Y0543237D01*
X0421219Y0542000D01*
X0421382Y0540763D01*
X0421860Y0539609D01*
X0422619Y0538619D01*
X0423609Y0537859D01*
X0424763Y0537382D01*
X0425365Y0537303D01*
Y0536697D01*
X0424763Y0536618D01*
X0423609Y0536140D01*
X0422619Y0535381D01*
X0421860Y0534390D01*
X0421382Y0533237D01*
X0421219Y0532000D01*
X0421382Y0530763D01*
X0421860Y0529609D01*
X0422619Y0528619D01*
X0423609Y0527859D01*
X0424763Y0527382D01*
X0426000Y0527219D01*
X0427237Y0527382D01*
X0428391Y0527859D01*
X0429381Y0528619D01*
X0430140Y0529609D01*
X0430618Y0530763D01*
X0430697Y0531365D01*
X0431303D01*
X0431382Y0530763D01*
X0431859Y0529609D01*
X0432619Y0528619D01*
X0433609Y0527859D01*
X0434763Y0527382D01*
X0436000Y0527219D01*
X0437237Y0527382D01*
X0438390Y0527859D01*
X0439381Y0528619D01*
X0440140Y0529609D01*
X0440618Y0530763D01*
X0440781Y0532000D01*
X0440618Y0533237D01*
X0440140Y0534390D01*
X0439381Y0535381D01*
X0438390Y0536140D01*
X0437237Y0536618D01*
X0436635Y0536697D01*
Y0537303D01*
X0437237Y0537382D01*
X0438390Y0537859D01*
X0438567Y0537995D01*
X0439493D01*
X0443470Y0534018D01*
Y0512962D01*
X0437538Y0507030D01*
X0421000D01*
X0420750Y0506997D01*
X0420500Y0507030D01*
X0419586Y0506910D01*
X0419026Y0506678D01*
X0418426Y0507032D01*
Y0659351D01*
X0421137Y0662063D01*
X0421425Y0662493D01*
X0421525Y0663000D01*
X0421425Y0663507D01*
X0421325Y0663656D01*
Y0680951D01*
X0434697Y0694323D01*
X0435763Y0693882D01*
X0437000Y0693719D01*
X0438237Y0693882D01*
X0439391Y0694359D01*
X0440381Y0695119D01*
X0441141Y0696109D01*
X0441618Y0697263D01*
X0441781Y0698500D01*
X0441618Y0699737D01*
X0441141Y0700890D01*
X0440381Y0701881D01*
X0439391Y0702640D01*
X0438237Y0703118D01*
X0437000Y0703281D01*
X0435763Y0703118D01*
X0434610Y0702640D01*
X0433619Y0701881D01*
X0432860Y0700890D01*
X0432382Y0699737D01*
X0432303Y0699135D01*
X0431697D01*
X0431618Y0699737D01*
X0431141Y0700890D01*
X0430381Y0701881D01*
X0429390Y0702640D01*
X0428237Y0703118D01*
X0427000Y0703281D01*
X0425763Y0703118D01*
X0424610Y0702640D01*
X0423619Y0701881D01*
X0422859Y0700890D01*
X0422382Y0699737D01*
X0422303Y0699135D01*
X0421697D01*
X0421618Y0699737D01*
X0421140Y0700890D01*
X0420381Y0701881D01*
X0419390Y0702640D01*
X0418237Y0703118D01*
X0417000Y0703281D01*
X0415763Y0703118D01*
X0414609Y0702640D01*
X0413619Y0701881D01*
X0412859Y0700890D01*
X0412382Y0699737D01*
X0412303Y0699135D01*
X0411697D01*
X0411618Y0699737D01*
X0411140Y0700890D01*
X0410381Y0701881D01*
X0409390Y0702640D01*
X0408237Y0703118D01*
X0407000Y0703281D01*
X0405763Y0703118D01*
X0404609Y0702640D01*
X0403619Y0701881D01*
X0402859Y0700890D01*
X0402382Y0699737D01*
X0402303Y0699135D01*
X0401697D01*
X0401618Y0699737D01*
X0401140Y0700890D01*
X0400381Y0701881D01*
X0399391Y0702640D01*
X0398237Y0703118D01*
X0397000Y0703281D01*
X0395763Y0703118D01*
X0394609Y0702640D01*
X0393619Y0701881D01*
X0392860Y0700890D01*
X0392382Y0699737D01*
X0392303Y0699135D01*
X0391697D01*
X0391618Y0699737D01*
X0391141Y0700890D01*
X0390381Y0701881D01*
X0389390Y0702640D01*
X0388237Y0703118D01*
X0387000Y0703281D01*
X0385763Y0703118D01*
X0384610Y0702640D01*
X0383619Y0701881D01*
X0382859Y0700890D01*
X0382382Y0699737D01*
X0382303Y0699135D01*
X0381697D01*
X0381618Y0699737D01*
X0381140Y0700890D01*
X0380381Y0701881D01*
X0379391Y0702640D01*
X0378237Y0703118D01*
X0377000Y0703281D01*
X0375763Y0703118D01*
X0374609Y0702640D01*
X0373619Y0701881D01*
X0372860Y0700890D01*
X0372382Y0699737D01*
X0372303Y0699135D01*
X0371697D01*
X0371618Y0699737D01*
X0371141Y0700890D01*
X0370381Y0701881D01*
X0369391Y0702640D01*
X0368237Y0703118D01*
X0367500Y0703215D01*
Y0698500D01*
Y0693785D01*
X0368237Y0693882D01*
X0369391Y0694359D01*
X0370381Y0695119D01*
X0371141Y0696109D01*
X0371618Y0697263D01*
X0371697Y0697865D01*
X0372303D01*
X0372382Y0697263D01*
X0372860Y0696109D01*
X0373619Y0695119D01*
X0374609Y0694359D01*
X0375763Y0693882D01*
X0377000Y0693719D01*
X0378237Y0693882D01*
X0379391Y0694359D01*
X0380381Y0695119D01*
X0381140Y0696109D01*
X0381618Y0697263D01*
X0381697Y0697865D01*
X0382303D01*
X0382382Y0697263D01*
X0382859Y0696109D01*
X0383619Y0695119D01*
X0384610Y0694359D01*
X0385763Y0693882D01*
X0387000Y0693719D01*
X0388237Y0693882D01*
X0389390Y0694359D01*
X0390381Y0695119D01*
X0391141Y0696109D01*
X0391618Y0697263D01*
X0391697Y0697865D01*
X0392303D01*
X0392382Y0697263D01*
X0392860Y0696109D01*
X0393619Y0695119D01*
X0394609Y0694359D01*
X0395763Y0693882D01*
X0397000Y0693719D01*
X0398237Y0693882D01*
X0399391Y0694359D01*
X0400381Y0695119D01*
X0401140Y0696109D01*
X0401618Y0697263D01*
X0401697Y0697865D01*
X0402303D01*
X0402382Y0697263D01*
X0402859Y0696109D01*
X0403619Y0695119D01*
X0404609Y0694359D01*
X0405763Y0693882D01*
X0407000Y0693719D01*
X0408237Y0693882D01*
X0409390Y0694359D01*
X0410381Y0695119D01*
X0411140Y0696109D01*
X0411618Y0697263D01*
X0411697Y0697865D01*
X0412303D01*
X0412382Y0697263D01*
X0412859Y0696109D01*
X0413619Y0695119D01*
X0414609Y0694359D01*
X0415763Y0693882D01*
X0417000Y0693719D01*
X0418237Y0693882D01*
X0419390Y0694359D01*
X0420381Y0695119D01*
X0421140Y0696109D01*
X0421618Y0697263D01*
X0421697Y0697865D01*
X0422303D01*
X0422382Y0697263D01*
X0422859Y0696109D01*
X0423619Y0695119D01*
X0424610Y0694359D01*
X0425763Y0693882D01*
X0427000Y0693719D01*
X0428237Y0693882D01*
X0429390Y0694359D01*
X0430381Y0695119D01*
X0431141Y0696109D01*
X0431618Y0697263D01*
X0431697Y0697865D01*
X0432303D01*
X0432382Y0697263D01*
X0432823Y0696198D01*
X0419063Y0682437D01*
X0418775Y0682007D01*
X0418675Y0681500D01*
Y0664526D01*
X0383604D01*
X0383573Y0664572D01*
X0382851Y0665055D01*
X0382000Y0665224D01*
X0381149Y0665055D01*
X0380428Y0664572D01*
X0379945Y0663851D01*
X0379776Y0663000D01*
X0379945Y0662149D01*
X0380428Y0661427D01*
X0381149Y0660945D01*
X0382000Y0660776D01*
X0382851Y0660945D01*
X0383494Y0661375D01*
X0383581Y0661386D01*
X0383834Y0661108D01*
X0383864Y0661039D01*
X0383925Y0660749D01*
X0383776Y0660000D01*
X0383945Y0659149D01*
X0384095Y0658925D01*
X0383774Y0658325D01*
X0375988D01*
X0375822Y0658572D01*
X0375101Y0659055D01*
X0374250Y0659224D01*
X0373399Y0659055D01*
X0372677Y0658572D01*
X0372195Y0657851D01*
X0372026Y0657000D01*
X0372195Y0656149D01*
X0372677Y0655428D01*
X0373399Y0654945D01*
X0374250Y0654776D01*
X0375101Y0654945D01*
X0375822Y0655428D01*
X0375988Y0655675D01*
X0403648D01*
X0405762Y0653560D01*
X0405704Y0653269D01*
X0405873Y0652418D01*
X0406355Y0651696D01*
X0407077Y0651214D01*
X0407928Y0651045D01*
X0408219Y0651103D01*
X0413375Y0645948D01*
Y0622348D01*
X0412775Y0622100D01*
X0390561Y0644313D01*
X0390573Y0644427D01*
X0391055Y0645149D01*
X0391224Y0646000D01*
X0391055Y0646851D01*
X0390573Y0647573D01*
X0389851Y0648055D01*
X0389000Y0648224D01*
X0388149Y0648055D01*
X0387427Y0647573D01*
X0386945Y0646851D01*
X0386776Y0646000D01*
X0386945Y0645149D01*
X0387427Y0644427D01*
X0387674Y0644263D01*
Y0644000D01*
X0387775Y0643493D01*
X0388063Y0643063D01*
X0411074Y0620051D01*
Y0496794D01*
X0411175Y0496287D01*
X0411463Y0495857D01*
X0414075Y0493245D01*
Y0477275D01*
X0413475Y0477216D01*
X0413472Y0477229D01*
X0412990Y0477950D01*
X0412268Y0478433D01*
X0411417Y0478602D01*
X0410566Y0478433D01*
X0409845Y0477950D01*
X0409363Y0477229D01*
X0409194Y0476378D01*
X0409363Y0475527D01*
X0409845Y0474805D01*
X0410566Y0474323D01*
X0411417Y0474154D01*
X0412268Y0474323D01*
X0412990Y0474805D01*
X0413472Y0475527D01*
X0413475Y0475540D01*
X0414075Y0475481D01*
Y0450218D01*
X0413475Y0450099D01*
X0413312Y0450490D01*
X0412521Y0451521D01*
X0411490Y0452313D01*
X0410289Y0452810D01*
X0409500Y0452914D01*
Y0448000D01*
X0409000D01*
Y0447500D01*
X0404086D01*
X0404190Y0446711D01*
X0404688Y0445510D01*
X0405479Y0444479D01*
X0406510Y0443687D01*
X0407711Y0443190D01*
X0409000Y0443020D01*
X0409248Y0443053D01*
X0409536Y0442486D01*
X0409166Y0441932D01*
X0408997Y0441081D01*
X0409166Y0440230D01*
X0409489Y0439746D01*
X0409609Y0439349D01*
X0409498Y0438887D01*
X0409189Y0438425D01*
X0409019Y0437574D01*
X0409189Y0436723D01*
X0409671Y0436001D01*
X0410392Y0435519D01*
X0411243Y0435350D01*
X0412094Y0435519D01*
X0412816Y0436001D01*
X0412981Y0436248D01*
X0413574D01*
X0414081Y0436349D01*
X0414511Y0436636D01*
X0417120Y0439246D01*
X0417674Y0439016D01*
Y0437549D01*
X0413833Y0433707D01*
X0412466D01*
X0412301Y0433954D01*
X0411579Y0434436D01*
X0410728Y0434606D01*
X0409877Y0434436D01*
X0409156Y0433954D01*
X0408674Y0433233D01*
X0408504Y0432382D01*
X0408674Y0431531D01*
X0409156Y0430809D01*
X0409877Y0430327D01*
X0410504Y0430203D01*
X0410811Y0429805D01*
X0410865Y0429573D01*
X0410722Y0428851D01*
X0410891Y0428000D01*
X0411242Y0427474D01*
X0410845Y0426989D01*
X0410289Y0427219D01*
X0409500Y0427323D01*
Y0422909D01*
X0413914D01*
X0413810Y0423698D01*
X0413312Y0424899D01*
X0412521Y0425931D01*
X0412223Y0426159D01*
X0412478Y0426720D01*
X0412945Y0426627D01*
X0413797Y0426796D01*
X0414518Y0427279D01*
X0414683Y0427526D01*
X0415851D01*
X0416358Y0427627D01*
X0416788Y0427914D01*
X0421137Y0432263D01*
X0421425Y0432693D01*
X0421525Y0433200D01*
Y0494492D01*
X0421427Y0494987D01*
X0421424Y0495004D01*
X0421423Y0495090D01*
X0421678Y0495700D01*
X0422265Y0495943D01*
X0422996Y0496504D01*
X0423557Y0497235D01*
X0423910Y0498086D01*
X0424030Y0499000D01*
Y0499970D01*
X0439000D01*
X0439914Y0500090D01*
X0440765Y0500443D01*
X0441496Y0501004D01*
X0449496Y0509004D01*
X0449871Y0509492D01*
X0450471Y0509288D01*
Y0433825D01*
X0449871Y0433337D01*
X0449619Y0433387D01*
X0443500D01*
Y0428905D01*
Y0424424D01*
X0449619D01*
X0449871Y0424474D01*
X0450471Y0423986D01*
Y0412014D01*
X0449871Y0411526D01*
X0449619Y0411576D01*
X0443500D01*
Y0407094D01*
Y0402613D01*
X0449619D01*
X0449871Y0402663D01*
X0450471Y0402175D01*
Y0394825D01*
X0449871Y0394337D01*
X0449619Y0394387D01*
X0443500D01*
Y0389906D01*
Y0385424D01*
X0449619D01*
X0449871Y0385474D01*
X0450471Y0384986D01*
Y0373014D01*
X0449871Y0372526D01*
X0449619Y0372576D01*
X0443500D01*
Y0368094D01*
Y0363613D01*
X0449619D01*
X0449871Y0363663D01*
X0450471Y0363175D01*
Y0346000D01*
X0442500D01*
Y0337000D01*
Y0328000D01*
X0450471D01*
Y0311098D01*
X0450565Y0310626D01*
X0450438Y0308370D01*
X0449997Y0305774D01*
X0449268Y0303243D01*
X0448260Y0300809D01*
X0446986Y0298504D01*
X0445461Y0296356D01*
X0443706Y0294392D01*
X0441742Y0292637D01*
X0439594Y0291113D01*
X0437289Y0289839D01*
X0434856Y0288831D01*
X0432325Y0288102D01*
X0429728Y0287661D01*
X0427163Y0287516D01*
X0427098Y0287529D01*
X0199197D01*
X0199120Y0287514D01*
X0199098Y0287513D01*
X0196469Y0287661D01*
X0193872Y0288102D01*
X0191341Y0288831D01*
X0188908Y0289839D01*
X0186602Y0291113D01*
X0184454Y0292637D01*
X0182491Y0294392D01*
X0180735Y0296356D01*
X0179211Y0298504D01*
X0177937Y0300809D01*
X0176929Y0303243D01*
X0176200Y0305774D01*
X0175759Y0308370D01*
X0175612Y0310984D01*
X0175628Y0311000D01*
X0175628D01*
X0175529Y0311494D01*
Y0328688D01*
X0176000Y0329000D01*
X0176129Y0329000D01*
X0184500D01*
Y0338000D01*
Y0347000D01*
X0176129D01*
X0176000Y0347000D01*
X0175529Y0347312D01*
Y0717688D01*
X0176000Y0718000D01*
X0176129Y0718000D01*
X0184500D01*
Y0727000D01*
Y0736000D01*
X0176129D01*
X0176000Y0736000D01*
X0175529Y0736312D01*
Y0753902D01*
X0175514Y0753979D01*
X0175513Y0754000D01*
X0175661Y0756630D01*
X0176102Y0759226D01*
X0176831Y0761757D01*
X0177839Y0764191D01*
X0179113Y0766496D01*
X0180637Y0768644D01*
X0182392Y0770608D01*
X0184356Y0772363D01*
X0186504Y0773887D01*
X0188809Y0775161D01*
X0191243Y0776169D01*
X0193774Y0776898D01*
X0196370Y0777340D01*
X0198935Y0777484D01*
X0199000Y0777471D01*
X0427000D01*
X0427077Y0777486D01*
X0427098Y0777487D01*
X0429728Y0777340D01*
D02*
G37*
%LPC*%
G36*
X0331268Y0775043D02*
X0324150D01*
Y0769500D01*
X0319850D01*
Y0775043D01*
X0312732D01*
Y0769500D01*
X0305000D01*
Y0739000D01*
X0338000D01*
X0338500Y0739500D01*
Y0769500D01*
X0331268D01*
Y0775043D01*
D02*
G37*
G36*
X0225969Y0774100D02*
X0215968D01*
Y0744100D01*
X0215800D01*
Y0734100D01*
X0225969D01*
Y0774100D01*
D02*
G37*
G36*
X0402866Y0748049D02*
X0401204Y0747885D01*
X0399605Y0747400D01*
X0398132Y0746613D01*
X0396841Y0745553D01*
X0395781Y0744262D01*
X0394993Y0742789D01*
X0394509Y0741190D01*
X0394345Y0739528D01*
X0394509Y0737865D01*
X0394993Y0736267D01*
X0395781Y0734793D01*
X0396841Y0733502D01*
X0398132Y0732442D01*
X0399605Y0731655D01*
X0401204Y0731170D01*
X0402866Y0731006D01*
X0404529Y0731170D01*
X0406127Y0731655D01*
X0407600Y0732442D01*
X0408892Y0733502D01*
X0409951Y0734793D01*
X0410739Y0736267D01*
X0411224Y0737865D01*
X0411387Y0739528D01*
X0411224Y0741190D01*
X0410739Y0742789D01*
X0409951Y0744262D01*
X0408892Y0745553D01*
X0407600Y0746613D01*
X0406127Y0747400D01*
X0404529Y0747885D01*
X0402866Y0748049D01*
D02*
G37*
G36*
X0351134D02*
X0349471Y0747885D01*
X0347873Y0747400D01*
X0346400Y0746613D01*
X0345108Y0745553D01*
X0344049Y0744262D01*
X0343261Y0742789D01*
X0342776Y0741190D01*
X0342613Y0739528D01*
X0342776Y0737865D01*
X0343261Y0736267D01*
X0344049Y0734793D01*
X0345108Y0733502D01*
X0346400Y0732442D01*
X0347873Y0731655D01*
X0349471Y0731170D01*
X0351134Y0731006D01*
X0352796Y0731170D01*
X0354395Y0731655D01*
X0355868Y0732442D01*
X0357159Y0733502D01*
X0358219Y0734793D01*
X0359007Y0736267D01*
X0359491Y0737865D01*
X0359655Y0739528D01*
X0359491Y0741190D01*
X0359007Y0742789D01*
X0358219Y0744262D01*
X0357159Y0745553D01*
X0355868Y0746613D01*
X0354395Y0747400D01*
X0352796Y0747885D01*
X0351134Y0748049D01*
D02*
G37*
G36*
X0380937Y0733044D02*
X0379854Y0732901D01*
X0378844Y0732483D01*
X0377977Y0731818D01*
X0377328Y0730972D01*
X0377004Y0730921D01*
X0376996D01*
X0376672Y0730972D01*
X0376023Y0731818D01*
X0375156Y0732483D01*
X0374146Y0732901D01*
X0373063Y0733044D01*
X0371980Y0732901D01*
X0370970Y0732483D01*
X0370104Y0731818D01*
X0369438Y0730951D01*
X0369020Y0729942D01*
X0368878Y0728858D01*
X0369020Y0727775D01*
X0369438Y0726766D01*
X0370104Y0725899D01*
X0370970Y0725234D01*
X0371980Y0724816D01*
X0373063Y0724673D01*
X0374146Y0724816D01*
X0375156Y0725234D01*
X0376023Y0725899D01*
X0376672Y0726745D01*
X0376996Y0726795D01*
X0377004D01*
X0377328Y0726745D01*
X0377977Y0725899D01*
X0378844Y0725234D01*
X0379854Y0724816D01*
X0380937Y0724673D01*
X0382020Y0724816D01*
X0383030Y0725234D01*
X0383896Y0725899D01*
X0384562Y0726766D01*
X0384980Y0727775D01*
X0385122Y0728858D01*
X0384980Y0729942D01*
X0384562Y0730951D01*
X0383896Y0731818D01*
X0383030Y0732483D01*
X0382020Y0732901D01*
X0380937Y0733044D01*
D02*
G37*
G36*
X0292701Y0746970D02*
X0291038Y0746806D01*
X0289440Y0746321D01*
X0287967Y0745534D01*
X0286675Y0744474D01*
X0285615Y0743183D01*
X0284828Y0741710D01*
X0284343Y0740111D01*
X0284179Y0738449D01*
X0284343Y0736786D01*
X0284828Y0735188D01*
X0285615Y0733715D01*
X0286675Y0732423D01*
X0287967Y0731364D01*
X0289440Y0730576D01*
X0291038Y0730091D01*
X0292701Y0729927D01*
X0294363Y0730091D01*
X0295962Y0730576D01*
X0297435Y0731364D01*
X0298726Y0732423D01*
X0299786Y0733715D01*
X0300573Y0735188D01*
X0301058Y0736786D01*
X0301222Y0738449D01*
X0301058Y0740111D01*
X0300573Y0741710D01*
X0299786Y0743183D01*
X0298726Y0744474D01*
X0297435Y0745534D01*
X0295962Y0746321D01*
X0294363Y0746806D01*
X0292701Y0746970D01*
D02*
G37*
G36*
X0245299D02*
X0243637Y0746806D01*
X0242038Y0746321D01*
X0240565Y0745534D01*
X0239274Y0744474D01*
X0238214Y0743183D01*
X0237426Y0741710D01*
X0236942Y0740111D01*
X0236778Y0738449D01*
X0236942Y0736786D01*
X0237426Y0735188D01*
X0238214Y0733715D01*
X0239274Y0732423D01*
X0240565Y0731364D01*
X0242038Y0730576D01*
X0243637Y0730091D01*
X0245299Y0729927D01*
X0246962Y0730091D01*
X0248560Y0730576D01*
X0250033Y0731364D01*
X0251325Y0732423D01*
X0252384Y0733715D01*
X0253172Y0735188D01*
X0253657Y0736786D01*
X0253821Y0738449D01*
X0253657Y0740111D01*
X0253172Y0741710D01*
X0252384Y0743183D01*
X0251325Y0744474D01*
X0250033Y0745534D01*
X0248560Y0746321D01*
X0246962Y0746806D01*
X0245299Y0746970D01*
D02*
G37*
G36*
X0363720Y0732978D02*
Y0729358D01*
X0367340D01*
X0367263Y0729942D01*
X0366845Y0730951D01*
X0366180Y0731818D01*
X0365313Y0732483D01*
X0364304Y0732901D01*
X0363720Y0732978D01*
D02*
G37*
G36*
X0362720Y0732978D02*
X0362137Y0732901D01*
X0361128Y0732483D01*
X0360261Y0731818D01*
X0359596Y0730951D01*
X0359178Y0729942D01*
X0359101Y0729358D01*
X0362720D01*
Y0732978D01*
D02*
G37*
G36*
X0440500Y0737000D02*
X0432000D01*
Y0728500D01*
X0440500D01*
Y0737000D01*
D02*
G37*
G36*
X0264579Y0731899D02*
Y0728279D01*
X0268198D01*
X0268122Y0728863D01*
X0267703Y0729872D01*
X0267038Y0730739D01*
X0266172Y0731404D01*
X0265162Y0731822D01*
X0264579Y0731899D01*
D02*
G37*
G36*
X0263579Y0731899D02*
X0262996Y0731822D01*
X0261986Y0731404D01*
X0261119Y0730739D01*
X0260454Y0729872D01*
X0260036Y0728863D01*
X0259959Y0728279D01*
X0263579D01*
Y0731899D01*
D02*
G37*
G36*
X0185500Y0736000D02*
Y0727500D01*
X0194000D01*
Y0736000D01*
X0185500D01*
D02*
G37*
G36*
X0322000Y0729224D02*
X0321149Y0729055D01*
X0320427Y0728573D01*
X0319945Y0727851D01*
X0319776Y0727000D01*
X0319945Y0726149D01*
X0320427Y0725427D01*
X0321149Y0724945D01*
X0322000Y0724776D01*
X0322851Y0724945D01*
X0323572Y0725427D01*
X0324055Y0726149D01*
X0324224Y0727000D01*
X0324055Y0727851D01*
X0323572Y0728573D01*
X0322851Y0729055D01*
X0322000Y0729224D01*
D02*
G37*
G36*
X0367340Y0728358D02*
X0363720D01*
Y0724739D01*
X0364304Y0724816D01*
X0365313Y0725234D01*
X0366180Y0725899D01*
X0366845Y0726766D01*
X0367263Y0727775D01*
X0367340Y0728358D01*
D02*
G37*
G36*
X0362720D02*
X0359101D01*
X0359178Y0727775D01*
X0359596Y0726766D01*
X0360261Y0725899D01*
X0361128Y0725234D01*
X0362137Y0724816D01*
X0362720Y0724739D01*
Y0728358D01*
D02*
G37*
G36*
X0394929Y0733008D02*
X0386630D01*
Y0724709D01*
X0394929D01*
Y0733008D01*
D02*
G37*
G36*
X0440500Y0727500D02*
X0432000D01*
Y0719000D01*
X0440500D01*
Y0727500D01*
D02*
G37*
G36*
X0194000Y0726500D02*
X0185500D01*
Y0718000D01*
X0194000D01*
Y0726500D01*
D02*
G37*
G36*
X0268198Y0727280D02*
X0264079D01*
X0259959D01*
X0260036Y0726696D01*
X0260454Y0725687D01*
X0261119Y0724820D01*
X0261334Y0724655D01*
X0261130Y0724055D01*
X0259929D01*
Y0715756D01*
X0268228D01*
Y0724055D01*
X0267027D01*
X0266823Y0724655D01*
X0267038Y0724820D01*
X0267703Y0725687D01*
X0268122Y0726696D01*
X0268198Y0727280D01*
D02*
G37*
G36*
X0273921Y0731965D02*
X0272838Y0731822D01*
X0271829Y0731404D01*
X0270962Y0730739D01*
X0270297Y0729872D01*
X0269879Y0728863D01*
X0269736Y0727779D01*
X0269879Y0726696D01*
X0270297Y0725687D01*
X0270962Y0724820D01*
X0271808Y0724171D01*
X0271858Y0723847D01*
Y0723839D01*
X0271808Y0723514D01*
X0270962Y0722865D01*
X0270297Y0721998D01*
X0269879Y0720989D01*
X0269736Y0719906D01*
X0269879Y0718822D01*
X0270297Y0717813D01*
X0270962Y0716946D01*
X0271829Y0716281D01*
X0272838Y0715863D01*
X0273921Y0715720D01*
X0275005Y0715863D01*
X0276014Y0716281D01*
X0276881Y0716946D01*
X0277546Y0717813D01*
X0277964Y0718822D01*
X0278107Y0719906D01*
X0277964Y0720989D01*
X0277546Y0721998D01*
X0276881Y0722865D01*
X0276035Y0723514D01*
X0275984Y0723839D01*
Y0723847D01*
X0276035Y0724171D01*
X0276881Y0724820D01*
X0277546Y0725687D01*
X0277964Y0726696D01*
X0278107Y0727779D01*
X0277964Y0728863D01*
X0277546Y0729872D01*
X0276881Y0730739D01*
X0276014Y0731404D01*
X0275005Y0731822D01*
X0273921Y0731965D01*
D02*
G37*
G36*
X0332000Y0724224D02*
X0331149Y0724055D01*
X0330428Y0723572D01*
X0329945Y0722851D01*
X0329776Y0722000D01*
X0329945Y0721149D01*
X0330428Y0720428D01*
X0330471Y0720399D01*
Y0717601D01*
X0330428Y0717572D01*
X0329945Y0716851D01*
X0329776Y0716000D01*
X0329945Y0715149D01*
X0330428Y0714428D01*
X0331149Y0713945D01*
X0332000Y0713776D01*
X0332851Y0713945D01*
X0333573Y0714428D01*
X0334055Y0715149D01*
X0334224Y0716000D01*
X0334055Y0716851D01*
X0333573Y0717572D01*
X0333529Y0717601D01*
Y0720399D01*
X0333573Y0720428D01*
X0334055Y0721149D01*
X0334224Y0722000D01*
X0334055Y0722851D01*
X0333573Y0723572D01*
X0332851Y0724055D01*
X0332000Y0724224D01*
D02*
G37*
G36*
X0323000Y0715224D02*
X0322149Y0715055D01*
X0321427Y0714572D01*
X0320945Y0713851D01*
X0320776Y0713000D01*
X0320945Y0712149D01*
X0321427Y0711427D01*
X0322149Y0710945D01*
X0323000Y0710776D01*
X0323851Y0710945D01*
X0324572Y0711427D01*
X0325055Y0712149D01*
X0325224Y0713000D01*
X0325055Y0713851D01*
X0324572Y0714572D01*
X0323851Y0715055D01*
X0323000Y0715224D01*
D02*
G37*
G36*
X0340000Y0738224D02*
X0339149Y0738055D01*
X0338427Y0737572D01*
X0337945Y0736851D01*
X0337776Y0736000D01*
X0337945Y0735149D01*
X0338427Y0734427D01*
X0338471Y0734399D01*
Y0733418D01*
X0338587Y0732833D01*
X0338919Y0732336D01*
X0344828Y0726427D01*
Y0707601D01*
X0344785Y0707573D01*
X0344303Y0706851D01*
X0344134Y0706000D01*
X0344303Y0705149D01*
X0344785Y0704427D01*
X0345507Y0703945D01*
X0346358Y0703776D01*
X0347209Y0703945D01*
X0347930Y0704427D01*
X0348412Y0705149D01*
X0348582Y0706000D01*
X0348412Y0706851D01*
X0347930Y0707573D01*
X0347887Y0707601D01*
Y0727060D01*
X0347771Y0727645D01*
X0347439Y0728142D01*
X0341711Y0733870D01*
X0341572Y0734427D01*
X0342055Y0735149D01*
X0342224Y0736000D01*
X0342055Y0736851D01*
X0341572Y0737572D01*
X0340851Y0738055D01*
X0340000Y0738224D01*
D02*
G37*
G36*
Y0699224D02*
X0339149Y0699055D01*
X0338427Y0698572D01*
X0337945Y0697851D01*
X0337776Y0697000D01*
X0337945Y0696149D01*
X0338427Y0695428D01*
X0339149Y0694945D01*
X0340000Y0694776D01*
X0340851Y0694945D01*
X0341572Y0695428D01*
X0342055Y0696149D01*
X0342224Y0697000D01*
X0342055Y0697851D01*
X0341572Y0698572D01*
X0340851Y0699055D01*
X0340000Y0699224D01*
D02*
G37*
G36*
X0361740Y0703240D02*
X0352260D01*
Y0693760D01*
X0361740D01*
Y0697540D01*
X0362340Y0697579D01*
X0362382Y0697263D01*
X0362860Y0696109D01*
X0363619Y0695119D01*
X0364610Y0694359D01*
X0365763Y0693882D01*
X0366500Y0693785D01*
Y0698500D01*
Y0703215D01*
X0365763Y0703118D01*
X0364610Y0702640D01*
X0363619Y0701881D01*
X0362860Y0700890D01*
X0362382Y0699737D01*
X0362340Y0699421D01*
X0361740Y0699460D01*
Y0703240D01*
D02*
G37*
G36*
X0357500Y0683781D02*
X0356263Y0683618D01*
X0355110Y0683141D01*
X0354119Y0682381D01*
X0353360Y0681390D01*
X0352882Y0680237D01*
X0352803Y0679635D01*
X0352197D01*
X0352118Y0680237D01*
X0351641Y0681390D01*
X0350881Y0682381D01*
X0349890Y0683141D01*
X0348737Y0683618D01*
X0347500Y0683781D01*
X0346263Y0683618D01*
X0345110Y0683141D01*
X0344119Y0682381D01*
X0343359Y0681390D01*
X0342882Y0680237D01*
X0342803Y0679635D01*
X0342197D01*
X0342118Y0680237D01*
X0341640Y0681390D01*
X0340881Y0682381D01*
X0339891Y0683141D01*
X0338737Y0683618D01*
X0337500Y0683781D01*
X0336263Y0683618D01*
X0335109Y0683141D01*
X0334119Y0682381D01*
X0333360Y0681390D01*
X0332882Y0680237D01*
X0332803Y0679635D01*
X0332197D01*
X0332118Y0680237D01*
X0331641Y0681390D01*
X0330881Y0682381D01*
X0329890Y0683141D01*
X0328737Y0683618D01*
X0327500Y0683781D01*
X0326263Y0683618D01*
X0325110Y0683141D01*
X0324119Y0682381D01*
X0323359Y0681390D01*
X0322882Y0680237D01*
X0322803Y0679635D01*
X0322197D01*
X0322118Y0680237D01*
X0321640Y0681390D01*
X0320881Y0682381D01*
X0319890Y0683141D01*
X0318737Y0683618D01*
X0317500Y0683781D01*
X0316263Y0683618D01*
X0315109Y0683141D01*
X0314119Y0682381D01*
X0313359Y0681390D01*
X0312882Y0680237D01*
X0312803Y0679635D01*
X0312197D01*
X0312118Y0680237D01*
X0311641Y0681390D01*
X0310881Y0682381D01*
X0309891Y0683141D01*
X0308737Y0683618D01*
X0307500Y0683781D01*
X0306263Y0683618D01*
X0305110Y0683141D01*
X0304119Y0682381D01*
X0303360Y0681390D01*
X0302882Y0680237D01*
X0302719Y0679000D01*
X0302882Y0677763D01*
X0303360Y0676610D01*
X0304119Y0675619D01*
X0305110Y0674860D01*
X0306263Y0674382D01*
X0306579Y0674340D01*
X0306540Y0673740D01*
X0302760D01*
Y0664260D01*
X0312240D01*
Y0668040D01*
X0312840Y0668079D01*
X0312882Y0667763D01*
X0313359Y0666609D01*
X0314119Y0665619D01*
X0315109Y0664859D01*
X0316263Y0664382D01*
X0317500Y0664219D01*
X0318737Y0664382D01*
X0319890Y0664859D01*
X0320881Y0665619D01*
X0321640Y0666609D01*
X0322118Y0667763D01*
X0322197Y0668365D01*
X0322803D01*
X0322882Y0667763D01*
X0323359Y0666609D01*
X0324119Y0665619D01*
X0325110Y0664859D01*
X0326263Y0664382D01*
X0327500Y0664219D01*
X0328737Y0664382D01*
X0329890Y0664859D01*
X0330881Y0665619D01*
X0331641Y0666609D01*
X0332118Y0667763D01*
X0332197Y0668365D01*
X0332803D01*
X0332882Y0667763D01*
X0333360Y0666609D01*
X0334119Y0665619D01*
X0335109Y0664859D01*
X0336263Y0664382D01*
X0337500Y0664219D01*
X0338737Y0664382D01*
X0339891Y0664859D01*
X0340881Y0665619D01*
X0341640Y0666609D01*
X0342118Y0667763D01*
X0342197Y0668365D01*
X0342803D01*
X0342882Y0667763D01*
X0343359Y0666609D01*
X0344119Y0665619D01*
X0345110Y0664859D01*
X0346263Y0664382D01*
X0347500Y0664219D01*
X0348737Y0664382D01*
X0349890Y0664859D01*
X0350881Y0665619D01*
X0351641Y0666609D01*
X0352118Y0667763D01*
X0352197Y0668365D01*
X0352803D01*
X0352882Y0667763D01*
X0353360Y0666609D01*
X0354119Y0665619D01*
X0355110Y0664859D01*
X0356263Y0664382D01*
X0357500Y0664219D01*
X0358737Y0664382D01*
X0359891Y0664859D01*
X0360881Y0665619D01*
X0361641Y0666609D01*
X0362118Y0667763D01*
X0362197Y0668365D01*
X0362803D01*
X0362882Y0667763D01*
X0363359Y0666609D01*
X0364119Y0665619D01*
X0365109Y0664859D01*
X0366263Y0664382D01*
X0367500Y0664219D01*
X0368737Y0664382D01*
X0369890Y0664859D01*
X0370881Y0665619D01*
X0371640Y0666609D01*
X0372118Y0667763D01*
X0372281Y0669000D01*
X0372118Y0670237D01*
X0371640Y0671390D01*
X0370881Y0672381D01*
X0369890Y0673140D01*
X0368737Y0673618D01*
X0368135Y0673697D01*
Y0674303D01*
X0368737Y0674382D01*
X0369890Y0674860D01*
X0370881Y0675619D01*
X0371640Y0676610D01*
X0372118Y0677763D01*
X0372215Y0678500D01*
X0367500D01*
Y0679000D01*
X0367000D01*
Y0683715D01*
X0366263Y0683618D01*
X0365109Y0683141D01*
X0364119Y0682381D01*
X0363359Y0681390D01*
X0362882Y0680237D01*
X0362803Y0679635D01*
X0362197D01*
X0362118Y0680237D01*
X0361641Y0681390D01*
X0360881Y0682381D01*
X0359891Y0683141D01*
X0358737Y0683618D01*
X0357500Y0683781D01*
D02*
G37*
G36*
X0368000Y0683715D02*
Y0679500D01*
X0372215D01*
X0372118Y0680237D01*
X0371640Y0681390D01*
X0370881Y0682381D01*
X0369890Y0683141D01*
X0368737Y0683618D01*
X0368000Y0683715D01*
D02*
G37*
G36*
X0431500Y0681724D02*
X0430649Y0681555D01*
X0429927Y0681073D01*
X0429445Y0680351D01*
X0429276Y0679500D01*
X0429445Y0678649D01*
X0429927Y0677927D01*
X0430649Y0677445D01*
X0431500Y0677276D01*
X0432351Y0677445D01*
X0433073Y0677927D01*
X0433555Y0678649D01*
X0433724Y0679500D01*
X0433555Y0680351D01*
X0433073Y0681073D01*
X0432351Y0681555D01*
X0431500Y0681724D01*
D02*
G37*
G36*
Y0670724D02*
X0430649Y0670555D01*
X0429927Y0670073D01*
X0429445Y0669351D01*
X0429276Y0668500D01*
X0429445Y0667649D01*
X0429927Y0666927D01*
X0430649Y0666445D01*
X0431500Y0666276D01*
X0432351Y0666445D01*
X0433073Y0666927D01*
X0433555Y0667649D01*
X0433724Y0668500D01*
X0433555Y0669351D01*
X0433073Y0670073D01*
X0432351Y0670555D01*
X0431500Y0670724D01*
D02*
G37*
G36*
X0436500Y0656715D02*
Y0652500D01*
X0440715D01*
X0440618Y0653237D01*
X0440140Y0654390D01*
X0439381Y0655381D01*
X0438390Y0656141D01*
X0437237Y0656618D01*
X0436500Y0656715D01*
D02*
G37*
G36*
X0425500Y0656740D02*
X0421260D01*
Y0652500D01*
X0425500D01*
Y0656740D01*
D02*
G37*
G36*
X0343500Y0643724D02*
X0342649Y0643555D01*
X0341928Y0643073D01*
X0341445Y0642351D01*
X0341276Y0641500D01*
X0341445Y0640649D01*
X0341928Y0639927D01*
X0342649Y0639445D01*
X0343500Y0639276D01*
X0344351Y0639445D01*
X0345073Y0639927D01*
X0345555Y0640649D01*
X0345724Y0641500D01*
X0345555Y0642351D01*
X0345073Y0643073D01*
X0344351Y0643555D01*
X0343500Y0643724D01*
D02*
G37*
G36*
X0336000D02*
X0335149Y0643555D01*
X0334427Y0643073D01*
X0333945Y0642351D01*
X0333776Y0641500D01*
X0333945Y0640649D01*
X0334427Y0639927D01*
X0335149Y0639445D01*
X0336000Y0639276D01*
X0336851Y0639445D01*
X0337573Y0639927D01*
X0338055Y0640649D01*
X0338224Y0641500D01*
X0338055Y0642351D01*
X0337573Y0643073D01*
X0336851Y0643555D01*
X0336000Y0643724D01*
D02*
G37*
G36*
X0309500Y0642224D02*
X0308649Y0642055D01*
X0307927Y0641573D01*
X0307445Y0640851D01*
X0307276Y0640000D01*
X0307445Y0639149D01*
X0307927Y0638427D01*
X0308649Y0637945D01*
X0309500Y0637776D01*
X0310351Y0637945D01*
X0311072Y0638427D01*
X0311555Y0639149D01*
X0311724Y0640000D01*
X0311555Y0640851D01*
X0311072Y0641573D01*
X0310351Y0642055D01*
X0309500Y0642224D01*
D02*
G37*
G36*
X0302500D02*
X0301649Y0642055D01*
X0300927Y0641573D01*
X0300445Y0640851D01*
X0300276Y0640000D01*
X0300445Y0639149D01*
X0300927Y0638427D01*
X0301649Y0637945D01*
X0302500Y0637776D01*
X0303351Y0637945D01*
X0304072Y0638427D01*
X0304555Y0639149D01*
X0304724Y0640000D01*
X0304555Y0640851D01*
X0304072Y0641573D01*
X0303351Y0642055D01*
X0302500Y0642224D01*
D02*
G37*
G36*
X0374000Y0638724D02*
X0373149Y0638555D01*
X0372428Y0638072D01*
X0371945Y0637351D01*
X0371776Y0636500D01*
X0371945Y0635649D01*
X0372428Y0634928D01*
X0373149Y0634445D01*
X0374000Y0634276D01*
X0374851Y0634445D01*
X0375572Y0634928D01*
X0376055Y0635649D01*
X0376224Y0636500D01*
X0376055Y0637351D01*
X0375572Y0638072D01*
X0374851Y0638555D01*
X0374000Y0638724D01*
D02*
G37*
G36*
X0366000D02*
X0365149Y0638555D01*
X0364427Y0638072D01*
X0363945Y0637351D01*
X0363776Y0636500D01*
X0363945Y0635649D01*
X0364427Y0634928D01*
X0365149Y0634445D01*
X0366000Y0634276D01*
X0366851Y0634445D01*
X0367572Y0634928D01*
X0368055Y0635649D01*
X0368224Y0636500D01*
X0368055Y0637351D01*
X0367572Y0638072D01*
X0366851Y0638555D01*
X0366000Y0638724D01*
D02*
G37*
G36*
X0319000D02*
X0318149Y0638555D01*
X0317427Y0638072D01*
X0316945Y0637351D01*
X0316776Y0636500D01*
X0316945Y0635649D01*
X0317427Y0634928D01*
X0318149Y0634445D01*
X0319000Y0634276D01*
X0319851Y0634445D01*
X0320572Y0634928D01*
X0321055Y0635649D01*
X0321224Y0636500D01*
X0321055Y0637351D01*
X0320572Y0638072D01*
X0319851Y0638555D01*
X0319000Y0638724D01*
D02*
G37*
G36*
X0279000Y0633224D02*
X0278149Y0633055D01*
X0277428Y0632573D01*
X0276945Y0631851D01*
X0276776Y0631000D01*
X0276945Y0630149D01*
X0277428Y0629427D01*
X0278149Y0628945D01*
X0279000Y0628776D01*
X0279851Y0628945D01*
X0280573Y0629427D01*
X0281055Y0630149D01*
X0281224Y0631000D01*
X0281055Y0631851D01*
X0280573Y0632573D01*
X0279851Y0633055D01*
X0279000Y0633224D01*
D02*
G37*
G36*
X0194500Y0630724D02*
X0193649Y0630555D01*
X0192928Y0630072D01*
X0192446Y0629351D01*
X0192276Y0628500D01*
X0192446Y0627649D01*
X0192928Y0626928D01*
X0193649Y0626445D01*
X0194500Y0626276D01*
X0195351Y0626445D01*
X0196072Y0626928D01*
X0196555Y0627649D01*
X0196724Y0628500D01*
X0196555Y0629351D01*
X0196072Y0630072D01*
X0195351Y0630555D01*
X0194500Y0630724D01*
D02*
G37*
G36*
X0183000Y0618724D02*
X0182149Y0618555D01*
X0181428Y0618073D01*
X0180946Y0617351D01*
X0180776Y0616500D01*
X0180946Y0615649D01*
X0181428Y0614927D01*
X0182149Y0614445D01*
X0183000Y0614276D01*
X0183851Y0614445D01*
X0184573Y0614927D01*
X0185055Y0615649D01*
X0185224Y0616500D01*
X0185055Y0617351D01*
X0184573Y0618073D01*
X0183851Y0618555D01*
X0183000Y0618724D01*
D02*
G37*
G36*
X0276500Y0617724D02*
X0275649Y0617555D01*
X0274927Y0617072D01*
X0274445Y0616351D01*
X0274276Y0615500D01*
X0274445Y0614649D01*
X0274927Y0613928D01*
X0275649Y0613445D01*
X0276500Y0613276D01*
X0277351Y0613445D01*
X0278073Y0613928D01*
X0278555Y0614649D01*
X0278724Y0615500D01*
X0278555Y0616351D01*
X0278073Y0617072D01*
X0277351Y0617555D01*
X0276500Y0617724D01*
D02*
G37*
G36*
X0387500Y0615224D02*
X0386649Y0615055D01*
X0385928Y0614572D01*
X0385445Y0613851D01*
X0385276Y0613000D01*
X0385445Y0612149D01*
X0385928Y0611427D01*
X0386649Y0610945D01*
X0387500Y0610776D01*
X0388351Y0610945D01*
X0389072Y0611427D01*
X0389555Y0612149D01*
X0389724Y0613000D01*
X0389555Y0613851D01*
X0389072Y0614572D01*
X0388351Y0615055D01*
X0387500Y0615224D01*
D02*
G37*
G36*
X0276500Y0610224D02*
X0275649Y0610055D01*
X0274927Y0609573D01*
X0274445Y0608851D01*
X0274276Y0608000D01*
X0274445Y0607149D01*
X0274927Y0606427D01*
X0275649Y0605945D01*
X0276500Y0605776D01*
X0277351Y0605945D01*
X0278073Y0606427D01*
X0278555Y0607149D01*
X0278724Y0608000D01*
X0278555Y0608851D01*
X0278073Y0609573D01*
X0277351Y0610055D01*
X0276500Y0610224D01*
D02*
G37*
G36*
X0246000Y0602224D02*
X0245149Y0602055D01*
X0244427Y0601573D01*
X0243945Y0600851D01*
X0243776Y0600000D01*
X0243945Y0599149D01*
X0244427Y0598427D01*
X0245149Y0597945D01*
X0246000Y0597776D01*
X0246851Y0597945D01*
X0247572Y0598427D01*
X0248055Y0599149D01*
X0248224Y0600000D01*
X0248055Y0600851D01*
X0247572Y0601573D01*
X0246851Y0602055D01*
X0246000Y0602224D01*
D02*
G37*
G36*
X0179000Y0598224D02*
X0178149Y0598055D01*
X0177427Y0597573D01*
X0176945Y0596851D01*
X0176776Y0596000D01*
X0176945Y0595149D01*
X0177427Y0594427D01*
X0178149Y0593945D01*
X0179000Y0593776D01*
X0179851Y0593945D01*
X0180572Y0594427D01*
X0181054Y0595149D01*
X0181224Y0596000D01*
X0181054Y0596851D01*
X0180572Y0597573D01*
X0179851Y0598055D01*
X0179000Y0598224D01*
D02*
G37*
G36*
X0273500Y0591724D02*
X0272649Y0591555D01*
X0271927Y0591073D01*
X0271445Y0590351D01*
X0271276Y0589500D01*
X0271445Y0588649D01*
X0271927Y0587927D01*
X0272649Y0587445D01*
X0273500Y0587276D01*
X0274351Y0587445D01*
X0275073Y0587927D01*
X0275555Y0588649D01*
X0275724Y0589500D01*
X0275555Y0590351D01*
X0275073Y0591073D01*
X0274351Y0591555D01*
X0273500Y0591724D01*
D02*
G37*
G36*
X0387500Y0591224D02*
X0386649Y0591055D01*
X0385928Y0590573D01*
X0385445Y0589851D01*
X0385276Y0589000D01*
X0385445Y0588149D01*
X0385928Y0587428D01*
X0386649Y0586945D01*
X0387500Y0586776D01*
X0388351Y0586945D01*
X0389072Y0587428D01*
X0389555Y0588149D01*
X0389724Y0589000D01*
X0389555Y0589851D01*
X0389072Y0590573D01*
X0388351Y0591055D01*
X0387500Y0591224D01*
D02*
G37*
G36*
X0246500Y0583224D02*
X0245649Y0583055D01*
X0244928Y0582573D01*
X0244445Y0581851D01*
X0244276Y0581000D01*
X0244445Y0580149D01*
X0244928Y0579427D01*
X0245649Y0578945D01*
X0246500Y0578776D01*
X0247351Y0578945D01*
X0248073Y0579427D01*
X0248555Y0580149D01*
X0248724Y0581000D01*
X0248555Y0581851D01*
X0248073Y0582573D01*
X0247351Y0583055D01*
X0246500Y0583224D01*
D02*
G37*
G36*
X0297000Y0579224D02*
X0296149Y0579055D01*
X0295427Y0578573D01*
X0294945Y0577851D01*
X0294776Y0577000D01*
X0294945Y0576149D01*
X0295427Y0575427D01*
X0296149Y0574945D01*
X0297000Y0574776D01*
X0297851Y0574945D01*
X0298572Y0575427D01*
X0299055Y0576149D01*
X0299224Y0577000D01*
X0299055Y0577851D01*
X0298572Y0578573D01*
X0297851Y0579055D01*
X0297000Y0579224D01*
D02*
G37*
G36*
X0387500Y0576224D02*
X0386649Y0576055D01*
X0385928Y0575572D01*
X0385445Y0574851D01*
X0385276Y0574000D01*
X0385445Y0573149D01*
X0385928Y0572428D01*
X0386649Y0571945D01*
X0387500Y0571776D01*
X0388351Y0571945D01*
X0389072Y0572428D01*
X0389555Y0573149D01*
X0389724Y0574000D01*
X0389555Y0574851D01*
X0389072Y0575572D01*
X0388351Y0576055D01*
X0387500Y0576224D01*
D02*
G37*
G36*
X0183000D02*
X0182149Y0576055D01*
X0181428Y0575572D01*
X0180946Y0574851D01*
X0180776Y0574000D01*
X0180946Y0573149D01*
X0181428Y0572428D01*
X0182149Y0571945D01*
X0183000Y0571776D01*
X0183851Y0571945D01*
X0184573Y0572428D01*
X0185055Y0573149D01*
X0185224Y0574000D01*
X0185055Y0574851D01*
X0184573Y0575572D01*
X0183851Y0576055D01*
X0183000Y0576224D01*
D02*
G37*
G36*
X0266500Y0557224D02*
X0265649Y0557055D01*
X0264928Y0556572D01*
X0264445Y0555851D01*
X0264276Y0555000D01*
X0264445Y0554149D01*
X0264928Y0553428D01*
X0265649Y0552945D01*
X0266500Y0552776D01*
X0267351Y0552945D01*
X0268073Y0553428D01*
X0268555Y0554149D01*
X0268724Y0555000D01*
X0268555Y0555851D01*
X0268073Y0556572D01*
X0267351Y0557055D01*
X0266500Y0557224D01*
D02*
G37*
G36*
X0388500Y0555224D02*
X0387649Y0555055D01*
X0386928Y0554572D01*
X0386445Y0553851D01*
X0386276Y0553000D01*
X0386445Y0552149D01*
X0386928Y0551428D01*
X0387649Y0550945D01*
X0388500Y0550776D01*
X0389351Y0550945D01*
X0390072Y0551428D01*
X0390555Y0552149D01*
X0390724Y0553000D01*
X0390555Y0553851D01*
X0390072Y0554572D01*
X0389351Y0555055D01*
X0388500Y0555224D01*
D02*
G37*
G36*
X0379000Y0544224D02*
X0378149Y0544055D01*
X0377428Y0543573D01*
X0376945Y0542851D01*
X0376776Y0542000D01*
X0376945Y0541149D01*
X0377428Y0540427D01*
X0378149Y0539945D01*
X0379000Y0539776D01*
X0379851Y0539945D01*
X0380573Y0540427D01*
X0381055Y0541149D01*
X0381224Y0542000D01*
X0381055Y0542851D01*
X0380573Y0543573D01*
X0379851Y0544055D01*
X0379000Y0544224D01*
D02*
G37*
G36*
X0407776Y0554783D02*
X0406925Y0554614D01*
X0406203Y0554132D01*
X0405721Y0553410D01*
X0405716Y0553383D01*
X0385372Y0533039D01*
X0383874D01*
X0383851Y0533055D01*
X0383000Y0533224D01*
X0382149Y0533055D01*
X0381428Y0532573D01*
X0380945Y0531851D01*
X0380776Y0531000D01*
X0380945Y0530149D01*
X0381428Y0529427D01*
X0382149Y0528945D01*
X0383000Y0528776D01*
X0383851Y0528945D01*
X0383874Y0528961D01*
X0386216D01*
X0386997Y0529116D01*
X0387658Y0529558D01*
X0408600Y0550499D01*
X0408627Y0550504D01*
X0409348Y0550987D01*
X0409830Y0551708D01*
X0409999Y0552559D01*
X0409830Y0553410D01*
X0409348Y0554132D01*
X0408627Y0554614D01*
X0407776Y0554783D01*
D02*
G37*
G36*
X0228100Y0568224D02*
X0227249Y0568055D01*
X0226528Y0567572D01*
X0226045Y0566851D01*
X0225876Y0566000D01*
X0226045Y0565149D01*
X0226528Y0564428D01*
X0227249Y0563945D01*
X0228100Y0563776D01*
X0228391Y0563834D01*
X0259013Y0533212D01*
X0258786Y0532591D01*
X0258573Y0532573D01*
X0257851Y0533055D01*
X0257000Y0533224D01*
X0256149Y0533055D01*
X0255428Y0532573D01*
X0254945Y0531851D01*
X0254776Y0531000D01*
X0254945Y0530149D01*
X0255428Y0529427D01*
X0256149Y0528945D01*
X0257000Y0528776D01*
X0257851Y0528945D01*
X0258573Y0529427D01*
X0258737Y0529674D01*
X0266016D01*
X0266246Y0529120D01*
X0264291Y0527166D01*
X0264000Y0527224D01*
X0263149Y0527055D01*
X0262427Y0526573D01*
X0261945Y0525851D01*
X0261776Y0525000D01*
X0261945Y0524149D01*
X0262427Y0523427D01*
X0263149Y0522945D01*
X0263249Y0522926D01*
X0263190Y0522326D01*
X0241000D01*
X0240493Y0522225D01*
X0240063Y0521937D01*
X0214063Y0495937D01*
X0213775Y0495507D01*
X0213674Y0495000D01*
Y0482911D01*
X0213074Y0482616D01*
X0212390Y0483141D01*
X0211237Y0483618D01*
X0210500Y0483715D01*
Y0479000D01*
X0210000D01*
Y0478500D01*
X0205285D01*
X0205382Y0477763D01*
X0205859Y0476610D01*
X0206619Y0475619D01*
X0207610Y0474860D01*
X0208763Y0474382D01*
X0209365Y0474303D01*
Y0473697D01*
X0208763Y0473618D01*
X0207610Y0473140D01*
X0206619Y0472381D01*
X0205859Y0471390D01*
X0205382Y0470237D01*
X0205285Y0469500D01*
X0210000D01*
Y0469000D01*
X0210500D01*
Y0464285D01*
X0211237Y0464382D01*
X0212390Y0464859D01*
X0213074Y0465384D01*
X0213674Y0465089D01*
Y0434000D01*
X0213775Y0433493D01*
X0214063Y0433063D01*
X0229174Y0417951D01*
Y0334500D01*
X0229275Y0333993D01*
X0229563Y0333563D01*
X0235834Y0327291D01*
X0235776Y0327000D01*
X0235945Y0326149D01*
X0236427Y0325428D01*
X0237149Y0324945D01*
X0238000Y0324776D01*
X0238851Y0324945D01*
X0239573Y0325428D01*
X0240055Y0326149D01*
X0240224Y0327000D01*
X0240055Y0327851D01*
X0239573Y0328573D01*
X0238851Y0329055D01*
X0238000Y0329224D01*
X0237709Y0329166D01*
X0231825Y0335049D01*
Y0418500D01*
X0231725Y0419007D01*
X0231437Y0419437D01*
X0216325Y0434549D01*
Y0465089D01*
X0216926Y0465384D01*
X0217610Y0464859D01*
X0218763Y0464382D01*
X0220000Y0464219D01*
X0221237Y0464382D01*
X0222391Y0464859D01*
X0223381Y0465619D01*
X0224141Y0466609D01*
X0224618Y0467763D01*
X0224697Y0468365D01*
X0225303D01*
X0225382Y0467763D01*
X0225859Y0466609D01*
X0226619Y0465619D01*
X0226675Y0465577D01*
Y0432500D01*
X0226775Y0431993D01*
X0227063Y0431563D01*
X0229834Y0428791D01*
X0229776Y0428500D01*
X0229945Y0427649D01*
X0230428Y0426928D01*
X0231149Y0426445D01*
X0232000Y0426276D01*
X0232851Y0426445D01*
X0233573Y0426928D01*
X0234055Y0427649D01*
X0234224Y0428500D01*
X0234055Y0429351D01*
X0233573Y0430072D01*
X0232851Y0430555D01*
X0232000Y0430724D01*
X0231709Y0430666D01*
X0229326Y0433049D01*
Y0434690D01*
X0229925Y0434749D01*
X0229945Y0434649D01*
X0230428Y0433927D01*
X0231149Y0433445D01*
X0232000Y0433276D01*
X0232851Y0433445D01*
X0233573Y0433927D01*
X0234055Y0434649D01*
X0234224Y0435500D01*
X0234166Y0435791D01*
X0240937Y0442563D01*
X0241225Y0442993D01*
X0241325Y0443500D01*
Y0464418D01*
X0242390Y0464859D01*
X0243381Y0465619D01*
X0244141Y0466609D01*
X0244618Y0467763D01*
X0244697Y0468365D01*
X0245303D01*
X0245382Y0467763D01*
X0245860Y0466609D01*
X0246619Y0465619D01*
X0247609Y0464859D01*
X0248763Y0464382D01*
X0250000Y0464219D01*
X0251237Y0464382D01*
X0252391Y0464859D01*
X0253381Y0465619D01*
X0254140Y0466609D01*
X0254618Y0467763D01*
X0254697Y0468365D01*
X0255303D01*
X0255382Y0467763D01*
X0255859Y0466609D01*
X0256619Y0465619D01*
X0257610Y0464859D01*
X0258763Y0464382D01*
X0260000Y0464219D01*
X0261237Y0464382D01*
X0262390Y0464859D01*
X0263381Y0465619D01*
X0264141Y0466609D01*
X0264618Y0467763D01*
X0264697Y0468365D01*
X0265303D01*
X0265382Y0467763D01*
X0265860Y0466609D01*
X0266619Y0465619D01*
X0267610Y0464859D01*
X0268763Y0464382D01*
X0270000Y0464219D01*
X0271237Y0464382D01*
X0272391Y0464859D01*
X0273381Y0465619D01*
X0274141Y0466609D01*
X0274618Y0467763D01*
X0274697Y0468365D01*
X0275303D01*
X0275382Y0467763D01*
X0275859Y0466609D01*
X0276619Y0465619D01*
X0277609Y0464859D01*
X0278763Y0464382D01*
X0280000Y0464219D01*
X0281237Y0464382D01*
X0282390Y0464859D01*
X0283381Y0465619D01*
X0284140Y0466609D01*
X0284618Y0467763D01*
X0284697Y0468365D01*
X0285303D01*
X0285382Y0467763D01*
X0285859Y0466609D01*
X0286619Y0465619D01*
X0287610Y0464859D01*
X0288763Y0464382D01*
X0290000Y0464219D01*
X0291237Y0464382D01*
X0292390Y0464859D01*
X0293381Y0465619D01*
X0294141Y0466609D01*
X0294618Y0467763D01*
X0294697Y0468365D01*
X0295303D01*
X0295382Y0467763D01*
X0295860Y0466609D01*
X0296619Y0465619D01*
X0297609Y0464859D01*
X0298763Y0464382D01*
X0300000Y0464219D01*
X0301237Y0464382D01*
X0302391Y0464859D01*
X0303381Y0465619D01*
X0304140Y0466609D01*
X0304618Y0467763D01*
X0304697Y0468365D01*
X0305303D01*
X0305382Y0467763D01*
X0305859Y0466609D01*
X0306619Y0465619D01*
X0307610Y0464859D01*
X0308763Y0464382D01*
X0310000Y0464219D01*
X0311237Y0464382D01*
X0312390Y0464859D01*
X0313381Y0465619D01*
X0314141Y0466609D01*
X0314618Y0467763D01*
X0314697Y0468365D01*
X0315303D01*
X0315382Y0467763D01*
X0315860Y0466609D01*
X0316619Y0465619D01*
X0317610Y0464859D01*
X0318763Y0464382D01*
X0320000Y0464219D01*
X0321237Y0464382D01*
X0322391Y0464859D01*
X0323381Y0465619D01*
X0324141Y0466609D01*
X0324618Y0467763D01*
X0324697Y0468365D01*
X0325303D01*
X0325382Y0467763D01*
X0325859Y0466609D01*
X0326619Y0465619D01*
X0327609Y0464859D01*
X0328763Y0464382D01*
X0330000Y0464219D01*
X0331237Y0464382D01*
X0332390Y0464859D01*
X0333381Y0465619D01*
X0334140Y0466609D01*
X0334618Y0467763D01*
X0334697Y0468365D01*
X0335303D01*
X0335382Y0467763D01*
X0335859Y0466609D01*
X0336619Y0465619D01*
X0337610Y0464859D01*
X0338763Y0464382D01*
X0340000Y0464219D01*
X0341237Y0464382D01*
X0342390Y0464859D01*
X0343381Y0465619D01*
X0344141Y0466609D01*
X0344618Y0467763D01*
X0344697Y0468365D01*
X0345303D01*
X0345382Y0467763D01*
X0345860Y0466609D01*
X0346619Y0465619D01*
X0347609Y0464859D01*
X0348763Y0464382D01*
X0350000Y0464219D01*
X0351237Y0464382D01*
X0352391Y0464859D01*
X0353381Y0465619D01*
X0354140Y0466609D01*
X0354618Y0467763D01*
X0354697Y0468365D01*
X0355303D01*
X0355382Y0467763D01*
X0355859Y0466609D01*
X0356619Y0465619D01*
X0357610Y0464859D01*
X0358763Y0464382D01*
X0360000Y0464219D01*
X0361237Y0464382D01*
X0362390Y0464859D01*
X0363381Y0465619D01*
X0364141Y0466609D01*
X0364618Y0467763D01*
X0364697Y0468365D01*
X0365303D01*
X0365382Y0467763D01*
X0365860Y0466609D01*
X0366619Y0465619D01*
X0367610Y0464859D01*
X0368763Y0464382D01*
X0370000Y0464219D01*
X0371237Y0464382D01*
X0372391Y0464859D01*
X0373381Y0465619D01*
X0374141Y0466609D01*
X0374618Y0467763D01*
X0374781Y0469000D01*
X0374618Y0470237D01*
X0374141Y0471390D01*
X0373616Y0472075D01*
X0373911Y0472675D01*
X0377841D01*
X0377945Y0472149D01*
X0378428Y0471427D01*
X0379149Y0470945D01*
X0380000Y0470776D01*
X0380851Y0470945D01*
X0381573Y0471427D01*
X0382055Y0472149D01*
X0382224Y0473000D01*
X0382055Y0473851D01*
X0381573Y0474573D01*
X0380851Y0475055D01*
X0380000Y0475224D01*
X0379621Y0475148D01*
X0379507Y0475225D01*
X0379000Y0475325D01*
X0374740D01*
Y0483740D01*
X0365260D01*
Y0479960D01*
X0364660Y0479921D01*
X0364618Y0480237D01*
X0364141Y0481390D01*
X0363381Y0482381D01*
X0362390Y0483141D01*
X0361237Y0483618D01*
X0360000Y0483781D01*
X0358763Y0483618D01*
X0357610Y0483141D01*
X0356619Y0482381D01*
X0355859Y0481390D01*
X0355382Y0480237D01*
X0355303Y0479635D01*
X0354697D01*
X0354618Y0480237D01*
X0354140Y0481390D01*
X0353381Y0482381D01*
X0352391Y0483141D01*
X0351237Y0483618D01*
X0350000Y0483781D01*
X0348763Y0483618D01*
X0347609Y0483141D01*
X0346619Y0482381D01*
X0345860Y0481390D01*
X0345382Y0480237D01*
X0345303Y0479635D01*
X0344697D01*
X0344618Y0480237D01*
X0344141Y0481390D01*
X0343381Y0482381D01*
X0342390Y0483141D01*
X0341237Y0483618D01*
X0340000Y0483781D01*
X0338763Y0483618D01*
X0337610Y0483141D01*
X0336619Y0482381D01*
X0335859Y0481390D01*
X0335382Y0480237D01*
X0335303Y0479635D01*
X0334697D01*
X0334618Y0480237D01*
X0334140Y0481390D01*
X0333381Y0482381D01*
X0332390Y0483141D01*
X0331237Y0483618D01*
X0330000Y0483781D01*
X0328763Y0483618D01*
X0327609Y0483141D01*
X0326619Y0482381D01*
X0325859Y0481390D01*
X0325382Y0480237D01*
X0325303Y0479635D01*
X0324697D01*
X0324618Y0480237D01*
X0324141Y0481390D01*
X0323381Y0482381D01*
X0322391Y0483141D01*
X0321237Y0483618D01*
X0320000Y0483781D01*
X0318763Y0483618D01*
X0317610Y0483141D01*
X0316619Y0482381D01*
X0315860Y0481390D01*
X0315382Y0480237D01*
X0315303Y0479635D01*
X0314697D01*
X0314618Y0480237D01*
X0314177Y0481302D01*
X0317549Y0484675D01*
X0349500D01*
X0350007Y0484775D01*
X0350437Y0485063D01*
X0358209Y0492834D01*
X0358500Y0492776D01*
X0359351Y0492945D01*
X0360072Y0493428D01*
X0360555Y0494149D01*
X0360724Y0495000D01*
X0360555Y0495851D01*
X0360072Y0496572D01*
X0359351Y0497055D01*
X0358873Y0497150D01*
X0358675Y0497801D01*
X0363937Y0503063D01*
X0364225Y0503493D01*
X0364325Y0504000D01*
Y0510262D01*
X0364573Y0510428D01*
X0365055Y0511149D01*
X0365224Y0512000D01*
X0365055Y0512851D01*
X0364573Y0513573D01*
X0363851Y0514055D01*
X0363000Y0514224D01*
X0362149Y0514055D01*
X0361427Y0513573D01*
X0360945Y0512851D01*
X0360861Y0512428D01*
X0360806Y0512149D01*
X0360194D01*
X0360139Y0512428D01*
X0360055Y0512851D01*
X0359573Y0513573D01*
X0358851Y0514055D01*
X0358000Y0514224D01*
X0357149Y0514055D01*
X0356428Y0513573D01*
X0356262Y0513326D01*
X0325697D01*
X0325190Y0513225D01*
X0324760Y0512937D01*
X0322383Y0510560D01*
X0321917Y0510943D01*
X0322055Y0511149D01*
X0322224Y0512000D01*
X0322055Y0512851D01*
X0321572Y0513573D01*
X0320851Y0514055D01*
X0320000Y0514224D01*
X0319621Y0514149D01*
X0319507Y0514225D01*
X0319000Y0514326D01*
X0307737D01*
X0307573Y0514572D01*
X0306851Y0515055D01*
X0306000Y0515224D01*
X0305149Y0515055D01*
X0304428Y0514572D01*
X0303945Y0513851D01*
X0303818Y0513208D01*
X0303219Y0512958D01*
X0303040Y0513137D01*
X0302610Y0513425D01*
X0302103Y0513525D01*
X0246806D01*
X0246299Y0513425D01*
X0245869Y0513137D01*
X0220063Y0487331D01*
X0219775Y0486901D01*
X0219674Y0486394D01*
Y0483738D01*
X0218763Y0483618D01*
X0217610Y0483141D01*
X0216926Y0482616D01*
X0216325Y0482911D01*
Y0494451D01*
X0241549Y0519674D01*
X0285500D01*
X0286007Y0519775D01*
X0286437Y0520063D01*
X0287049Y0520675D01*
X0317641D01*
X0317745Y0520149D01*
X0318228Y0519427D01*
X0318949Y0518945D01*
X0319800Y0518776D01*
X0320651Y0518945D01*
X0321373Y0519427D01*
X0321855Y0520149D01*
X0322024Y0521000D01*
X0321969Y0521275D01*
X0322462Y0521875D01*
X0323806D01*
X0324313Y0521975D01*
X0324743Y0522263D01*
X0325555Y0523074D01*
X0329051D01*
X0332834Y0519291D01*
X0332776Y0519000D01*
X0332945Y0518149D01*
X0333428Y0517427D01*
X0334149Y0516945D01*
X0335000Y0516776D01*
X0335851Y0516945D01*
X0336573Y0517427D01*
X0337055Y0518149D01*
X0337224Y0519000D01*
X0337055Y0519851D01*
X0336573Y0520573D01*
X0335851Y0521055D01*
X0335000Y0521224D01*
X0334709Y0521166D01*
X0333638Y0522236D01*
X0333934Y0522789D01*
X0334000Y0522776D01*
X0334851Y0522945D01*
X0335573Y0523427D01*
X0336055Y0524149D01*
X0336224Y0525000D01*
X0336055Y0525851D01*
X0335573Y0526573D01*
X0334851Y0527055D01*
X0334715Y0527350D01*
X0334851Y0527945D01*
X0335573Y0528428D01*
X0336055Y0529149D01*
X0336224Y0530000D01*
X0336055Y0530851D01*
X0335573Y0531572D01*
X0334851Y0532055D01*
X0334000Y0532224D01*
X0333149Y0532055D01*
X0332428Y0531572D01*
X0331823Y0531748D01*
X0331260Y0532312D01*
X0331556Y0532865D01*
X0332000Y0532776D01*
X0332851Y0532945D01*
X0333573Y0533427D01*
X0334055Y0534149D01*
X0334224Y0535000D01*
X0334055Y0535851D01*
X0333573Y0536573D01*
X0332851Y0537055D01*
X0332000Y0537224D01*
X0331149Y0537055D01*
X0330428Y0536573D01*
X0330196Y0536226D01*
X0279102D01*
X0278920Y0536826D01*
X0279072Y0536928D01*
X0279555Y0537649D01*
X0279724Y0538500D01*
X0279555Y0539351D01*
X0279072Y0540072D01*
X0278351Y0540555D01*
X0277500Y0540724D01*
X0276649Y0540555D01*
X0275927Y0540072D01*
X0275445Y0539351D01*
X0275276Y0538500D01*
X0275445Y0537649D01*
X0275927Y0536928D01*
X0276080Y0536826D01*
X0275898Y0536226D01*
X0270506D01*
X0269999Y0536125D01*
X0269569Y0535837D01*
X0267657Y0533925D01*
X0262049D01*
X0230266Y0565709D01*
X0230324Y0566000D01*
X0230155Y0566851D01*
X0229673Y0567572D01*
X0228951Y0568055D01*
X0228100Y0568224D01*
D02*
G37*
G36*
X0366142Y0533720D02*
X0365291Y0533551D01*
X0364569Y0533069D01*
X0364087Y0532347D01*
X0363918Y0531496D01*
X0364087Y0530645D01*
X0364569Y0529924D01*
X0365291Y0529441D01*
X0366142Y0529272D01*
X0366993Y0529441D01*
X0367714Y0529924D01*
X0368196Y0530645D01*
X0368366Y0531496D01*
X0368196Y0532347D01*
X0367714Y0533069D01*
X0366993Y0533551D01*
X0366142Y0533720D01*
D02*
G37*
G36*
X0347400Y0532224D02*
X0346549Y0532055D01*
X0345828Y0531572D01*
X0345345Y0530851D01*
X0345176Y0530000D01*
X0345345Y0529149D01*
X0345828Y0528428D01*
X0346549Y0527945D01*
X0347400Y0527776D01*
X0348251Y0527945D01*
X0348973Y0528428D01*
X0349455Y0529149D01*
X0349624Y0530000D01*
X0349455Y0530851D01*
X0348973Y0531572D01*
X0348251Y0532055D01*
X0347400Y0532224D01*
D02*
G37*
G36*
X0201500Y0530224D02*
X0200649Y0530055D01*
X0199927Y0529572D01*
X0199445Y0528851D01*
X0199276Y0528000D01*
X0199445Y0527149D01*
X0199927Y0526428D01*
X0200649Y0525945D01*
X0201500Y0525776D01*
X0202351Y0525945D01*
X0203073Y0526428D01*
X0203555Y0527149D01*
X0203724Y0528000D01*
X0203555Y0528851D01*
X0203073Y0529572D01*
X0202351Y0530055D01*
X0201500Y0530224D01*
D02*
G37*
G36*
X0228000Y0527224D02*
X0227149Y0527055D01*
X0226428Y0526573D01*
X0225945Y0525851D01*
X0225776Y0525000D01*
X0225945Y0524149D01*
X0226428Y0523427D01*
X0227149Y0522945D01*
X0228000Y0522776D01*
X0228851Y0522945D01*
X0229573Y0523427D01*
X0230055Y0524149D01*
X0230224Y0525000D01*
X0230055Y0525851D01*
X0229573Y0526573D01*
X0228851Y0527055D01*
X0228000Y0527224D01*
D02*
G37*
G36*
X0355315Y0525846D02*
X0354464Y0525677D01*
X0353743Y0525195D01*
X0353260Y0524473D01*
X0353091Y0523622D01*
X0353260Y0522771D01*
X0353743Y0522050D01*
X0354464Y0521567D01*
X0355315Y0521398D01*
X0356166Y0521567D01*
X0356887Y0522050D01*
X0357369Y0522771D01*
X0357539Y0523622D01*
X0357369Y0524473D01*
X0356887Y0525195D01*
X0356166Y0525677D01*
X0355315Y0525846D01*
D02*
G37*
G36*
X0400000Y0507000D02*
X0375000D01*
Y0485000D01*
X0400000D01*
Y0507000D01*
D02*
G37*
G36*
X0209500Y0483715D02*
X0208763Y0483618D01*
X0207610Y0483141D01*
X0206619Y0482381D01*
X0205859Y0481390D01*
X0205382Y0480237D01*
X0205285Y0479500D01*
X0209500D01*
Y0483715D01*
D02*
G37*
G36*
X0447000Y0470224D02*
X0446149Y0470055D01*
X0445428Y0469572D01*
X0444945Y0468851D01*
X0444776Y0468000D01*
X0444945Y0467149D01*
X0445428Y0466428D01*
X0446149Y0465945D01*
X0447000Y0465776D01*
X0447851Y0465945D01*
X0448572Y0466428D01*
X0449055Y0467149D01*
X0449224Y0468000D01*
X0449055Y0468851D01*
X0448572Y0469572D01*
X0447851Y0470055D01*
X0447000Y0470224D01*
D02*
G37*
G36*
X0209500Y0468500D02*
X0205285D01*
X0205382Y0467763D01*
X0205859Y0466609D01*
X0206619Y0465619D01*
X0207610Y0464859D01*
X0208763Y0464382D01*
X0209500Y0464285D01*
Y0468500D01*
D02*
G37*
G36*
X0408500Y0452914D02*
X0407711Y0452810D01*
X0406510Y0452313D01*
X0405479Y0451521D01*
X0404688Y0450490D01*
X0404190Y0449289D01*
X0404086Y0448500D01*
X0408500D01*
Y0452914D01*
D02*
G37*
G36*
X0295500Y0452724D02*
X0294649Y0452555D01*
X0293928Y0452072D01*
X0293445Y0451351D01*
X0293276Y0450500D01*
X0293445Y0449649D01*
X0293928Y0448927D01*
X0294649Y0448445D01*
X0295500Y0448276D01*
X0296351Y0448445D01*
X0297073Y0448927D01*
X0297555Y0449649D01*
X0297724Y0450500D01*
X0297555Y0451351D01*
X0297073Y0452072D01*
X0296351Y0452555D01*
X0295500Y0452724D01*
D02*
G37*
G36*
X0313761Y0457585D02*
X0312910Y0457415D01*
X0312188Y0456933D01*
X0311706Y0456212D01*
X0311537Y0455361D01*
X0311706Y0454510D01*
X0312188Y0453788D01*
X0312486Y0453589D01*
X0312536Y0453338D01*
X0312824Y0452908D01*
X0313708Y0452023D01*
X0313649Y0451748D01*
X0313469Y0451414D01*
X0312732Y0451267D01*
X0312010Y0450785D01*
X0311528Y0450064D01*
X0311359Y0449213D01*
X0311528Y0448362D01*
X0312010Y0447640D01*
X0312732Y0447158D01*
X0312895Y0447125D01*
X0312836Y0446525D01*
X0312140D01*
X0306890Y0451776D01*
X0306926Y0452379D01*
X0307107Y0452500D01*
X0307589Y0453221D01*
X0307758Y0454072D01*
X0307589Y0454923D01*
X0307107Y0455645D01*
X0306386Y0456127D01*
X0305535Y0456296D01*
X0304684Y0456127D01*
X0303962Y0455645D01*
X0303480Y0454923D01*
X0303311Y0454072D01*
X0303480Y0453221D01*
X0303962Y0452500D01*
X0304209Y0452335D01*
Y0451257D01*
X0304240Y0451103D01*
X0303700Y0450742D01*
X0303382Y0450955D01*
X0302531Y0451124D01*
X0301680Y0450955D01*
X0300959Y0450472D01*
X0300477Y0449751D01*
X0300307Y0448900D01*
X0300477Y0448049D01*
X0300959Y0447328D01*
X0301680Y0446845D01*
X0302531Y0446676D01*
X0302823Y0446734D01*
X0306494Y0443063D01*
X0306924Y0442775D01*
X0307431Y0442674D01*
X0346451D01*
X0361834Y0427291D01*
X0361776Y0427000D01*
X0361945Y0426149D01*
X0362427Y0425427D01*
X0363149Y0424945D01*
X0364000Y0424776D01*
X0364851Y0424945D01*
X0365573Y0425427D01*
X0366055Y0426149D01*
X0366224Y0427000D01*
X0366055Y0427851D01*
X0365573Y0428573D01*
X0364851Y0429055D01*
X0364000Y0429224D01*
X0363709Y0429166D01*
X0362143Y0430731D01*
X0362145Y0430918D01*
X0362358Y0431365D01*
X0362509Y0431373D01*
X0363149Y0430945D01*
X0364000Y0430776D01*
X0364851Y0430945D01*
X0365573Y0431427D01*
X0366055Y0432149D01*
X0366224Y0433000D01*
X0366055Y0433851D01*
X0365573Y0434573D01*
X0364851Y0435055D01*
X0364000Y0435224D01*
X0363149Y0435055D01*
X0362427Y0434573D01*
X0362263Y0434326D01*
X0361549D01*
X0351354Y0444520D01*
X0351584Y0445075D01*
X0356051D01*
X0361834Y0439291D01*
X0361776Y0439000D01*
X0361945Y0438149D01*
X0362427Y0437428D01*
X0363149Y0436945D01*
X0364000Y0436776D01*
X0364851Y0436945D01*
X0365573Y0437428D01*
X0366055Y0438149D01*
X0366224Y0439000D01*
X0366055Y0439851D01*
X0365573Y0440573D01*
X0364851Y0441055D01*
X0364000Y0441224D01*
X0363709Y0441166D01*
X0359154Y0445720D01*
X0359384Y0446275D01*
X0360851D01*
X0361834Y0445291D01*
X0361776Y0445000D01*
X0361945Y0444149D01*
X0362427Y0443428D01*
X0363149Y0442945D01*
X0364000Y0442776D01*
X0364851Y0442945D01*
X0365573Y0443428D01*
X0366055Y0444149D01*
X0366224Y0445000D01*
X0366055Y0445851D01*
X0365573Y0446572D01*
X0364851Y0447055D01*
X0364000Y0447224D01*
X0363709Y0447166D01*
X0362337Y0448537D01*
X0361907Y0448825D01*
X0361400Y0448925D01*
X0320555D01*
X0315477Y0454003D01*
X0315815Y0454510D01*
X0315985Y0455361D01*
X0315815Y0456212D01*
X0315333Y0456933D01*
X0314612Y0457415D01*
X0313761Y0457585D01*
D02*
G37*
G36*
X0220000Y0448724D02*
X0219149Y0448555D01*
X0218427Y0448072D01*
X0217945Y0447351D01*
X0217776Y0446500D01*
X0217945Y0445649D01*
X0218427Y0444928D01*
X0219149Y0444445D01*
X0220000Y0444276D01*
X0220851Y0444445D01*
X0221572Y0444928D01*
X0222055Y0445649D01*
X0222224Y0446500D01*
X0222055Y0447351D01*
X0221572Y0448072D01*
X0220851Y0448555D01*
X0220000Y0448724D01*
D02*
G37*
G36*
X0442500Y0433387D02*
X0436381D01*
X0435655Y0433242D01*
X0435039Y0432831D01*
X0434628Y0432215D01*
X0434483Y0431489D01*
Y0429405D01*
X0442500D01*
Y0433387D01*
D02*
G37*
G36*
X0280500Y0431224D02*
X0279649Y0431055D01*
X0278927Y0430573D01*
X0278445Y0429851D01*
X0278276Y0429000D01*
X0278445Y0428149D01*
X0278927Y0427427D01*
X0279649Y0426945D01*
X0280500Y0426776D01*
X0281351Y0426945D01*
X0282072Y0427427D01*
X0282555Y0428149D01*
X0282724Y0429000D01*
X0282555Y0429851D01*
X0282072Y0430573D01*
X0281351Y0431055D01*
X0280500Y0431224D01*
D02*
G37*
G36*
X0442500Y0428406D02*
X0434483D01*
Y0426322D01*
X0434628Y0425596D01*
X0435039Y0424980D01*
X0435655Y0424569D01*
X0436381Y0424424D01*
X0442500D01*
Y0428406D01*
D02*
G37*
G36*
X0408500Y0427323D02*
X0407711Y0427219D01*
X0406510Y0426722D01*
X0405479Y0425931D01*
X0404688Y0424899D01*
X0404190Y0423698D01*
X0404086Y0422909D01*
X0408500D01*
Y0427323D01*
D02*
G37*
G36*
X0326181Y0422499D02*
X0325330Y0422330D01*
X0324609Y0421848D01*
X0324127Y0421127D01*
X0323957Y0420276D01*
X0324127Y0419425D01*
X0324609Y0418703D01*
X0325330Y0418221D01*
X0326181Y0418052D01*
X0327032Y0418221D01*
X0327754Y0418703D01*
X0328236Y0419425D01*
X0328405Y0420276D01*
X0328236Y0421127D01*
X0327754Y0421848D01*
X0327032Y0422330D01*
X0326181Y0422499D01*
D02*
G37*
G36*
X0413914Y0421909D02*
X0409500D01*
Y0417496D01*
X0410289Y0417599D01*
X0411490Y0418097D01*
X0412521Y0418888D01*
X0413312Y0419920D01*
X0413810Y0421121D01*
X0413914Y0421909D01*
D02*
G37*
G36*
X0408500D02*
X0404086D01*
X0404190Y0421121D01*
X0404688Y0419920D01*
X0405479Y0418888D01*
X0406510Y0418097D01*
X0407711Y0417599D01*
X0408500Y0417496D01*
Y0421909D01*
D02*
G37*
G36*
X0391283Y0452980D02*
X0389995Y0452810D01*
X0388794Y0452313D01*
X0387762Y0451521D01*
X0386971Y0450490D01*
X0386473Y0449289D01*
X0386304Y0448000D01*
X0386473Y0446711D01*
X0386971Y0445510D01*
X0387762Y0444479D01*
X0388794Y0443687D01*
X0389958Y0443205D01*
Y0427204D01*
X0388794Y0426722D01*
X0387762Y0425931D01*
X0386971Y0424899D01*
X0386473Y0423698D01*
X0386304Y0422409D01*
X0386473Y0421121D01*
X0386971Y0419920D01*
X0387762Y0418888D01*
X0388794Y0418097D01*
X0389995Y0417599D01*
X0391283Y0417430D01*
X0392572Y0417599D01*
X0393773Y0418097D01*
X0394805Y0418888D01*
X0395596Y0419920D01*
X0396093Y0421121D01*
X0396263Y0422409D01*
X0396093Y0423698D01*
X0395596Y0424899D01*
X0394805Y0425931D01*
X0393773Y0426722D01*
X0392609Y0427204D01*
Y0443205D01*
X0393773Y0443687D01*
X0394805Y0444479D01*
X0395596Y0445510D01*
X0396093Y0446711D01*
X0396263Y0448000D01*
X0396093Y0449289D01*
X0395596Y0450490D01*
X0394805Y0451521D01*
X0393773Y0452313D01*
X0392572Y0452810D01*
X0391283Y0452980D01*
D02*
G37*
G36*
X0409500Y0414224D02*
X0408649Y0414055D01*
X0407928Y0413573D01*
X0407445Y0412851D01*
X0407276Y0412000D01*
X0407445Y0411149D01*
X0407928Y0410428D01*
X0408649Y0409945D01*
X0409500Y0409776D01*
X0410351Y0409945D01*
X0411072Y0410428D01*
X0411555Y0411149D01*
X0411724Y0412000D01*
X0411555Y0412851D01*
X0411072Y0413573D01*
X0410351Y0414055D01*
X0409500Y0414224D01*
D02*
G37*
G36*
X0297349Y0413573D02*
X0296498Y0413404D01*
X0295777Y0412922D01*
X0295295Y0412200D01*
X0295126Y0411349D01*
X0295295Y0410498D01*
X0295777Y0409777D01*
X0296498Y0409295D01*
X0297349Y0409126D01*
X0298200Y0409295D01*
X0298922Y0409777D01*
X0299404Y0410498D01*
X0299573Y0411349D01*
X0299404Y0412200D01*
X0298922Y0412922D01*
X0298200Y0413404D01*
X0297349Y0413573D01*
D02*
G37*
G36*
X0442500Y0411576D02*
X0436381D01*
X0435655Y0411431D01*
X0435039Y0411020D01*
X0434628Y0410404D01*
X0434483Y0409678D01*
Y0407594D01*
X0442500D01*
Y0411576D01*
D02*
G37*
G36*
X0221000Y0409224D02*
X0220149Y0409055D01*
X0219427Y0408572D01*
X0218945Y0407851D01*
X0218776Y0407000D01*
X0218945Y0406149D01*
X0219427Y0405428D01*
X0220149Y0404945D01*
X0221000Y0404776D01*
X0221851Y0404945D01*
X0222572Y0405428D01*
X0223055Y0406149D01*
X0223224Y0407000D01*
X0223055Y0407851D01*
X0222572Y0408572D01*
X0221851Y0409055D01*
X0221000Y0409224D01*
D02*
G37*
G36*
X0347000Y0407724D02*
X0346149Y0407555D01*
X0345427Y0407072D01*
X0344945Y0406351D01*
X0344776Y0405500D01*
X0344945Y0404649D01*
X0345427Y0403928D01*
X0346149Y0403445D01*
X0347000Y0403276D01*
X0347851Y0403445D01*
X0348572Y0403928D01*
X0349055Y0404649D01*
X0349224Y0405500D01*
X0349055Y0406351D01*
X0348572Y0407072D01*
X0347851Y0407555D01*
X0347000Y0407724D01*
D02*
G37*
G36*
X0442500Y0406595D02*
X0434483D01*
Y0404511D01*
X0434628Y0403785D01*
X0435039Y0403169D01*
X0435655Y0402758D01*
X0436381Y0402613D01*
X0442500D01*
Y0406595D01*
D02*
G37*
G36*
X0442500Y0394387D02*
X0436381D01*
X0435655Y0394242D01*
X0435039Y0393831D01*
X0434628Y0393215D01*
X0434483Y0392489D01*
Y0390406D01*
X0442500D01*
Y0394387D01*
D02*
G37*
G36*
Y0389405D02*
X0434483D01*
Y0387322D01*
X0434628Y0386596D01*
X0435039Y0385980D01*
X0435655Y0385569D01*
X0436381Y0385424D01*
X0442500D01*
Y0389405D01*
D02*
G37*
G36*
X0345000Y0386224D02*
X0344149Y0386055D01*
X0343427Y0385573D01*
X0342945Y0384851D01*
X0342776Y0384000D01*
X0342945Y0383149D01*
X0343427Y0382428D01*
X0344149Y0381945D01*
X0345000Y0381776D01*
X0345851Y0381945D01*
X0346572Y0382428D01*
X0347055Y0383149D01*
X0347224Y0384000D01*
X0347055Y0384851D01*
X0346572Y0385573D01*
X0345851Y0386055D01*
X0345000Y0386224D01*
D02*
G37*
G36*
X0374000Y0385224D02*
X0373149Y0385055D01*
X0372428Y0384573D01*
X0371945Y0383851D01*
X0371776Y0383000D01*
X0371945Y0382149D01*
X0372428Y0381428D01*
X0373149Y0380945D01*
X0374000Y0380776D01*
X0374851Y0380945D01*
X0375572Y0381428D01*
X0376055Y0382149D01*
X0376224Y0383000D01*
X0376055Y0383851D01*
X0375572Y0384573D01*
X0374851Y0385055D01*
X0374000Y0385224D01*
D02*
G37*
G36*
X0442500Y0372576D02*
X0436381D01*
X0435655Y0372431D01*
X0435039Y0372020D01*
X0434628Y0371404D01*
X0434483Y0370678D01*
Y0368595D01*
X0442500D01*
Y0372576D01*
D02*
G37*
G36*
X0373721Y0368759D02*
X0372869Y0368590D01*
X0372148Y0368108D01*
X0371666Y0367387D01*
X0371497Y0366535D01*
X0371666Y0365684D01*
X0372148Y0364963D01*
X0372869Y0364481D01*
X0373721Y0364312D01*
X0374571Y0364481D01*
X0375293Y0364963D01*
X0375775Y0365684D01*
X0375944Y0366535D01*
X0375775Y0367387D01*
X0375293Y0368108D01*
X0374571Y0368590D01*
X0373721Y0368759D01*
D02*
G37*
G36*
X0364173Y0368169D02*
X0363322Y0367999D01*
X0362601Y0367517D01*
X0362119Y0366796D01*
X0361949Y0365945D01*
X0362119Y0365094D01*
X0362601Y0364372D01*
X0363322Y0363890D01*
X0364173Y0363721D01*
X0365024Y0363890D01*
X0365746Y0364372D01*
X0366228Y0365094D01*
X0366397Y0365945D01*
X0366228Y0366796D01*
X0365746Y0367517D01*
X0365024Y0367999D01*
X0364173Y0368169D01*
D02*
G37*
G36*
X0442500Y0367595D02*
X0434483D01*
Y0365511D01*
X0434628Y0364785D01*
X0435039Y0364169D01*
X0435655Y0363758D01*
X0436381Y0363613D01*
X0442500D01*
Y0367595D01*
D02*
G37*
G36*
X0332000Y0360224D02*
X0331149Y0360055D01*
X0330428Y0359573D01*
X0329945Y0358851D01*
X0329776Y0358000D01*
X0329945Y0357149D01*
X0330428Y0356428D01*
X0331149Y0355945D01*
X0332000Y0355776D01*
X0332851Y0355945D01*
X0333573Y0356428D01*
X0334055Y0357149D01*
X0334224Y0358000D01*
X0334055Y0358851D01*
X0333573Y0359573D01*
X0332851Y0360055D01*
X0332000Y0360224D01*
D02*
G37*
G36*
X0279000D02*
X0278149Y0360055D01*
X0277428Y0359573D01*
X0276945Y0358851D01*
X0276776Y0358000D01*
X0276945Y0357149D01*
X0277428Y0356428D01*
X0278149Y0355945D01*
X0279000Y0355776D01*
X0279851Y0355945D01*
X0280573Y0356428D01*
X0281055Y0357149D01*
X0281224Y0358000D01*
X0281055Y0358851D01*
X0280573Y0359573D01*
X0279851Y0360055D01*
X0279000Y0360224D01*
D02*
G37*
G36*
X0388500Y0359224D02*
X0387649Y0359055D01*
X0386928Y0358573D01*
X0386445Y0357851D01*
X0386276Y0357000D01*
X0386445Y0356149D01*
X0386928Y0355428D01*
X0387649Y0354945D01*
X0388500Y0354776D01*
X0389351Y0354945D01*
X0390072Y0355428D01*
X0390555Y0356149D01*
X0390724Y0357000D01*
X0390555Y0357851D01*
X0390072Y0358573D01*
X0389351Y0359055D01*
X0388500Y0359224D01*
D02*
G37*
G36*
X0350500D02*
X0349649Y0359055D01*
X0348927Y0358573D01*
X0348445Y0357851D01*
X0348276Y0357000D01*
X0348445Y0356149D01*
X0348927Y0355428D01*
X0349649Y0354945D01*
X0350500Y0354776D01*
X0351351Y0354945D01*
X0352073Y0355428D01*
X0352555Y0356149D01*
X0352724Y0357000D01*
X0352555Y0357851D01*
X0352073Y0358573D01*
X0351351Y0359055D01*
X0350500Y0359224D01*
D02*
G37*
G36*
X0364173Y0359169D02*
X0363322Y0358999D01*
X0362601Y0358517D01*
X0362119Y0357796D01*
X0361949Y0356945D01*
X0362119Y0356094D01*
X0362601Y0355372D01*
X0363322Y0354890D01*
X0364173Y0354721D01*
X0365024Y0354890D01*
X0365746Y0355372D01*
X0366228Y0356094D01*
X0366397Y0356945D01*
X0366228Y0357796D01*
X0365746Y0358517D01*
X0365024Y0358999D01*
X0364173Y0359169D01*
D02*
G37*
G36*
X0373721Y0358759D02*
X0372869Y0358590D01*
X0372148Y0358108D01*
X0371666Y0357386D01*
X0371497Y0356535D01*
X0371666Y0355684D01*
X0372148Y0354963D01*
X0372869Y0354481D01*
X0373721Y0354312D01*
X0374571Y0354481D01*
X0375293Y0354963D01*
X0375775Y0355684D01*
X0375944Y0356535D01*
X0375775Y0357386D01*
X0375293Y0358108D01*
X0374571Y0358590D01*
X0373721Y0358759D01*
D02*
G37*
G36*
X0185500Y0347000D02*
Y0338500D01*
X0194000D01*
Y0347000D01*
X0185500D01*
D02*
G37*
G36*
X0320071Y0349244D02*
X0311772D01*
Y0340945D01*
X0312973D01*
X0313177Y0340345D01*
X0312962Y0340180D01*
X0312297Y0339313D01*
X0311878Y0338304D01*
X0311802Y0337720D01*
X0315921D01*
X0320041D01*
X0319964Y0338304D01*
X0319546Y0339313D01*
X0318881Y0340180D01*
X0318666Y0340345D01*
X0318870Y0340945D01*
X0320071D01*
Y0349244D01*
D02*
G37*
G36*
X0441500Y0346000D02*
X0433000D01*
Y0337500D01*
X0441500D01*
Y0346000D01*
D02*
G37*
G36*
X0392000Y0341224D02*
X0391149Y0341055D01*
X0390427Y0340573D01*
X0389945Y0339851D01*
X0389776Y0339000D01*
X0389945Y0338149D01*
X0390427Y0337427D01*
X0391149Y0336945D01*
X0392000Y0336776D01*
X0392851Y0336945D01*
X0393572Y0337427D01*
X0394055Y0338149D01*
X0394224Y0339000D01*
X0394055Y0339851D01*
X0393572Y0340573D01*
X0392851Y0341055D01*
X0392000Y0341224D01*
D02*
G37*
G36*
X0320041Y0336720D02*
X0316421D01*
Y0333101D01*
X0317004Y0333178D01*
X0318014Y0333596D01*
X0318881Y0334261D01*
X0319546Y0335128D01*
X0319964Y0336137D01*
X0320041Y0336720D01*
D02*
G37*
G36*
X0315421D02*
X0311802D01*
X0311878Y0336137D01*
X0312297Y0335128D01*
X0312962Y0334261D01*
X0313828Y0333596D01*
X0314838Y0333178D01*
X0315421Y0333101D01*
Y0336720D01*
D02*
G37*
G36*
X0306079Y0349280D02*
X0304995Y0349137D01*
X0303986Y0348719D01*
X0303119Y0348054D01*
X0302454Y0347187D01*
X0302036Y0346178D01*
X0301893Y0345094D01*
X0302036Y0344011D01*
X0302454Y0343002D01*
X0303119Y0342135D01*
X0303965Y0341486D01*
X0304016Y0341161D01*
Y0341153D01*
X0303965Y0340829D01*
X0303119Y0340180D01*
X0302454Y0339313D01*
X0302036Y0338304D01*
X0301893Y0337221D01*
X0302036Y0336137D01*
X0302454Y0335128D01*
X0303119Y0334261D01*
X0303986Y0333596D01*
X0304995Y0333178D01*
X0306079Y0333035D01*
X0307162Y0333178D01*
X0308172Y0333596D01*
X0309038Y0334261D01*
X0309703Y0335128D01*
X0310121Y0336137D01*
X0310264Y0337221D01*
X0310121Y0338304D01*
X0309703Y0339313D01*
X0309038Y0340180D01*
X0308192Y0340829D01*
X0308142Y0341153D01*
Y0341161D01*
X0308192Y0341486D01*
X0309038Y0342135D01*
X0309703Y0343002D01*
X0310121Y0344011D01*
X0310264Y0345094D01*
X0310121Y0346178D01*
X0309703Y0347187D01*
X0309038Y0348054D01*
X0308172Y0348719D01*
X0307162Y0349137D01*
X0306079Y0349280D01*
D02*
G37*
G36*
X0194000Y0337500D02*
X0185500D01*
Y0329000D01*
X0194000D01*
Y0337500D01*
D02*
G37*
G36*
X0441500Y0336500D02*
X0433000D01*
Y0328000D01*
X0441500D01*
Y0336500D01*
D02*
G37*
G36*
X0334701Y0335072D02*
X0333038Y0334909D01*
X0331440Y0334424D01*
X0329967Y0333636D01*
X0328675Y0332577D01*
X0327615Y0331285D01*
X0326828Y0329812D01*
X0326343Y0328214D01*
X0326179Y0326551D01*
X0326343Y0324889D01*
X0326828Y0323290D01*
X0327615Y0321817D01*
X0328675Y0320526D01*
X0329967Y0319466D01*
X0331440Y0318678D01*
X0333038Y0318194D01*
X0334701Y0318030D01*
X0336363Y0318194D01*
X0337962Y0318678D01*
X0339435Y0319466D01*
X0340726Y0320526D01*
X0341786Y0321817D01*
X0342573Y0323290D01*
X0343058Y0324889D01*
X0343222Y0326551D01*
X0343058Y0328214D01*
X0342573Y0329812D01*
X0341786Y0331285D01*
X0340726Y0332577D01*
X0339435Y0333636D01*
X0337962Y0334424D01*
X0336363Y0334909D01*
X0334701Y0335072D01*
D02*
G37*
G36*
X0287299D02*
X0285637Y0334909D01*
X0284038Y0334424D01*
X0282565Y0333636D01*
X0281274Y0332577D01*
X0280214Y0331285D01*
X0279427Y0329812D01*
X0278942Y0328214D01*
X0278778Y0326551D01*
X0278942Y0324889D01*
X0279427Y0323290D01*
X0280214Y0321817D01*
X0281274Y0320526D01*
X0282565Y0319466D01*
X0284038Y0318678D01*
X0285637Y0318194D01*
X0287299Y0318030D01*
X0288962Y0318194D01*
X0290560Y0318678D01*
X0292033Y0319466D01*
X0293325Y0320526D01*
X0294385Y0321817D01*
X0295172Y0323290D01*
X0295657Y0324889D01*
X0295821Y0326551D01*
X0295657Y0328214D01*
X0295172Y0329812D01*
X0294385Y0331285D01*
X0293325Y0332577D01*
X0292033Y0333636D01*
X0290560Y0334424D01*
X0288962Y0334909D01*
X0287299Y0335072D01*
D02*
G37*
%LPD*%
G36*
X0222293Y0771314D02*
X0222349Y0771309D01*
X0222405Y0771299D01*
X0222456Y0771284D01*
X0222507Y0771269D01*
X0222512D01*
X0222522Y0771258D01*
X0222543Y0771248D01*
X0222563Y0771238D01*
X0222584Y0771218D01*
X0222604Y0771198D01*
X0222614Y0771172D01*
X0222619Y0771147D01*
Y0770643D01*
X0223652D01*
X0223657D01*
X0223678Y0770638D01*
X0223708Y0770633D01*
X0223734Y0770612D01*
X0223739Y0770607D01*
X0223749Y0770592D01*
X0223769Y0770561D01*
X0223785Y0770520D01*
Y0770510D01*
X0223790Y0770495D01*
X0223795Y0770475D01*
X0223800Y0770419D01*
X0223810Y0770347D01*
Y0770327D01*
X0223815Y0770307D01*
Y0770276D01*
X0223820Y0770235D01*
Y0770190D01*
X0223826Y0770139D01*
Y0769986D01*
X0223820Y0769940D01*
Y0769900D01*
X0223810Y0769808D01*
Y0769793D01*
X0223805Y0769772D01*
Y0769747D01*
X0223795Y0769691D01*
X0223785Y0769635D01*
X0223780Y0769625D01*
X0223769Y0769599D01*
X0223754Y0769574D01*
X0223734Y0769548D01*
X0223729Y0769543D01*
X0223708Y0769538D01*
X0223683Y0769533D01*
X0223652Y0769528D01*
X0222619D01*
Y0767314D01*
X0222614Y0767278D01*
X0222604Y0767237D01*
X0222599Y0767232D01*
X0222589Y0767212D01*
X0222568Y0767186D01*
X0222538Y0767161D01*
X0222533D01*
X0222528Y0767156D01*
X0222497Y0767146D01*
X0222446Y0767131D01*
X0222380Y0767115D01*
X0222375D01*
X0222359D01*
X0222339Y0767110D01*
X0222304D01*
X0222268Y0767105D01*
X0222217D01*
X0222166Y0767100D01*
X0222105D01*
X0222100D01*
X0222080D01*
X0222054D01*
X0222019D01*
X0221942D01*
X0221861Y0767105D01*
X0221856D01*
X0221845D01*
X0221825Y0767110D01*
X0221800D01*
X0221739Y0767115D01*
X0221677Y0767126D01*
X0221672D01*
X0221662Y0767131D01*
X0221647D01*
X0221627Y0767136D01*
X0221576Y0767151D01*
X0221520Y0767166D01*
X0221515D01*
X0221504Y0767171D01*
X0221489Y0767176D01*
X0221469Y0767186D01*
X0221418Y0767212D01*
X0221357Y0767242D01*
X0218242Y0769009D01*
X0218237Y0769014D01*
X0218216Y0769024D01*
X0218196Y0769050D01*
X0218176Y0769080D01*
Y0769085D01*
X0218170Y0769090D01*
X0218155Y0769121D01*
X0218140Y0769167D01*
X0218125Y0769228D01*
Y0769233D01*
X0218120Y0769243D01*
Y0769268D01*
X0218114Y0769294D01*
X0218109Y0769329D01*
X0218104Y0769370D01*
X0218099Y0769416D01*
X0218094Y0769467D01*
Y0769492D01*
X0218089Y0769523D01*
Y0769620D01*
X0218084Y0769675D01*
Y0769950D01*
X0218089Y0770012D01*
Y0770078D01*
X0218094Y0770144D01*
X0218099Y0770205D01*
Y0770230D01*
X0218104Y0770261D01*
X0218109Y0770296D01*
X0218120Y0770378D01*
X0218125Y0770419D01*
X0218135Y0770454D01*
Y0770459D01*
X0218140Y0770470D01*
X0218145Y0770490D01*
X0218150Y0770510D01*
X0218165Y0770556D01*
X0218191Y0770597D01*
X0218196Y0770602D01*
X0218216Y0770622D01*
X0218242Y0770638D01*
X0218277Y0770643D01*
X0221698D01*
Y0771157D01*
X0221703Y0771172D01*
X0221713Y0771187D01*
X0221723Y0771208D01*
X0221744Y0771228D01*
X0221774Y0771248D01*
X0221810Y0771269D01*
X0221815D01*
X0221830Y0771279D01*
X0221856Y0771284D01*
X0221896Y0771294D01*
X0221942Y0771304D01*
X0222003Y0771309D01*
X0222080Y0771320D01*
X0222166D01*
X0222176D01*
X0222202D01*
X0222242D01*
X0222293Y0771314D01*
D02*
G37*
%LPC*%
G36*
X0221698Y0769528D02*
X0219082D01*
Y0769518D01*
X0221698Y0768021D01*
Y0769528D01*
D02*
G37*
%LPD*%
G36*
X0360861Y0511572D02*
X0360945Y0511149D01*
X0361427Y0510428D01*
X0361674Y0510262D01*
Y0504549D01*
X0348657Y0491532D01*
X0348083Y0491706D01*
X0348055Y0491851D01*
X0347572Y0492572D01*
X0346851Y0493055D01*
X0346000Y0493224D01*
X0345149Y0493055D01*
X0344661Y0492729D01*
X0344229Y0493161D01*
X0344555Y0493649D01*
X0344724Y0494500D01*
X0344555Y0495351D01*
X0344073Y0496072D01*
X0344043Y0496092D01*
X0344038Y0496154D01*
X0344194Y0496713D01*
X0344507Y0496775D01*
X0344937Y0497063D01*
X0348692Y0500817D01*
X0348900Y0500776D01*
X0349751Y0500945D01*
X0350472Y0501428D01*
X0350955Y0502149D01*
X0351124Y0503000D01*
X0350955Y0503851D01*
X0350472Y0504572D01*
X0349751Y0505055D01*
X0348900Y0505224D01*
X0348049Y0505055D01*
X0347327Y0504572D01*
X0346845Y0503851D01*
X0346676Y0503000D01*
X0346751Y0502625D01*
X0343451Y0499326D01*
X0261091D01*
X0260584Y0499225D01*
X0260154Y0498937D01*
X0249063Y0487846D01*
X0248775Y0487416D01*
X0248675Y0486909D01*
Y0483582D01*
X0247609Y0483141D01*
X0246619Y0482381D01*
X0245860Y0481390D01*
X0245382Y0480237D01*
X0245303Y0479635D01*
X0244697D01*
X0244618Y0480237D01*
X0244141Y0481390D01*
X0243381Y0482381D01*
X0242390Y0483141D01*
X0241237Y0483618D01*
X0240000Y0483781D01*
X0238763Y0483618D01*
X0237610Y0483141D01*
X0236926Y0482616D01*
X0236326Y0482911D01*
Y0496451D01*
X0246549Y0506674D01*
X0286762D01*
X0286928Y0506427D01*
X0287443Y0506083D01*
X0287448Y0506070D01*
Y0505430D01*
X0287443Y0505417D01*
X0286928Y0505072D01*
X0286445Y0504351D01*
X0286276Y0503500D01*
X0286445Y0502649D01*
X0286928Y0501928D01*
X0287649Y0501445D01*
X0288500Y0501276D01*
X0289351Y0501445D01*
X0289694Y0501675D01*
X0334262D01*
X0334427Y0501428D01*
X0335149Y0500945D01*
X0336000Y0500776D01*
X0336851Y0500945D01*
X0337573Y0501428D01*
X0338055Y0502149D01*
X0338224Y0503000D01*
X0338055Y0503851D01*
X0337573Y0504572D01*
X0336851Y0505055D01*
X0336000Y0505224D01*
X0335149Y0505055D01*
X0334427Y0504572D01*
X0334262Y0504325D01*
X0290560D01*
X0290555Y0504351D01*
X0290072Y0505072D01*
X0289557Y0505417D01*
X0289552Y0505430D01*
Y0506070D01*
X0289557Y0506083D01*
X0290072Y0506427D01*
X0290555Y0507149D01*
X0290724Y0508000D01*
X0290555Y0508851D01*
X0290405Y0509074D01*
X0290726Y0509675D01*
X0301057D01*
X0304069Y0506663D01*
X0304499Y0506375D01*
X0305006Y0506275D01*
X0322994D01*
X0323501Y0506375D01*
X0323931Y0506663D01*
X0324943Y0507675D01*
X0338263D01*
X0338427Y0507428D01*
X0339149Y0506945D01*
X0340000Y0506776D01*
X0340851Y0506945D01*
X0341572Y0507428D01*
X0342055Y0508149D01*
X0342224Y0509000D01*
X0342055Y0509851D01*
X0341905Y0510075D01*
X0342226Y0510674D01*
X0356262D01*
X0356428Y0510428D01*
X0357149Y0509945D01*
X0358000Y0509776D01*
X0358851Y0509945D01*
X0359573Y0510428D01*
X0360055Y0511149D01*
X0360139Y0511572D01*
X0360194Y0511851D01*
X0360806D01*
X0360861Y0511572D01*
D02*
G37*
D12*
X0346358Y0706000D02*
Y0727060D01*
X0340000Y0733418D02*
X0346358Y0727060D01*
X0340000Y0733418D02*
Y0736000D01*
X0332000Y0716000D02*
Y0722000D01*
D14*
X0270506Y0534900D02*
X0331900D01*
X0332000Y0535000D01*
X0415851Y0428851D02*
X0420200Y0433200D01*
X0412945Y0428851D02*
X0415851D01*
X0414382Y0432382D02*
X0419000Y0437000D01*
X0410728Y0432382D02*
X0414382D01*
X0413574Y0437574D02*
X0417800Y0441800D01*
X0411243Y0437574D02*
X0413574D01*
X0411221Y0441081D02*
X0415400Y0445261D01*
Y0493794D01*
X0419000Y0437000D02*
Y0450303D01*
X0420200Y0433200D02*
Y0494492D01*
X0348900Y0502900D02*
Y0503000D01*
X0344000Y0498000D02*
X0348900Y0502900D01*
X0232500Y0441500D02*
X0234868Y0443868D01*
Y0471573D02*
X0240000Y0476706D01*
X0234868Y0443868D02*
Y0471573D01*
X0232000Y0441500D02*
X0232500D01*
X0240000Y0476706D02*
Y0479000D01*
X0252853Y0469000D02*
X0257550Y0473697D01*
X0262197D02*
X0265000Y0476500D01*
X0257550Y0473697D02*
X0262197D01*
X0414700Y0496598D02*
Y0646496D01*
X0404197Y0657000D02*
X0414700Y0646496D01*
X0374250Y0657000D02*
X0404197D01*
X0313583Y0449213D02*
X0316395Y0446400D01*
X0356600D01*
X0311591Y0445200D02*
X0348800D01*
X0305535Y0451257D02*
Y0454072D01*
Y0451257D02*
X0311591Y0445200D01*
X0313761Y0453845D02*
Y0455361D01*
Y0453845D02*
X0320006Y0447600D01*
X0361400D01*
X0230500Y0334500D02*
Y0418500D01*
X0238000Y0327000D02*
Y0327000D01*
X0230500Y0334500D02*
X0238000Y0327000D01*
X0420000Y0681500D02*
X0437000Y0698500D01*
X0420000Y0663200D02*
Y0681500D01*
X0382000Y0663000D02*
X0382200Y0663200D01*
X0420000D01*
X0386000Y0660000D02*
X0407000D01*
X0389000Y0644000D02*
Y0646000D01*
X0379000Y0474000D02*
X0380000Y0473000D01*
X0335000Y0474000D02*
X0379000D01*
X0330000Y0469000D02*
X0335000Y0474000D01*
X0325697Y0512000D02*
X0358000D01*
X0322497Y0508800D02*
X0325697Y0512000D01*
X0261091Y0498000D02*
X0344000D01*
X0250000Y0486909D02*
X0261091Y0498000D01*
X0271353Y0494500D02*
X0342000D01*
X0265000Y0488147D02*
X0271353Y0494500D01*
X0215000Y0434000D02*
X0230500Y0418500D01*
X0215000Y0434000D02*
Y0495000D01*
X0265000Y0476500D02*
Y0488147D01*
X0361400Y0447600D02*
X0364000Y0445000D01*
X0361000Y0433000D02*
X0364000D01*
X0319000Y0513000D02*
X0320000Y0512000D01*
X0306000Y0513000D02*
X0319000D01*
X0305006Y0507600D02*
X0322994D01*
X0305503Y0508800D02*
X0322497D01*
X0324394Y0509000D02*
X0340000D01*
X0322994Y0507600D02*
X0324394Y0509000D01*
X0250000Y0469000D02*
X0252853D01*
X0250000Y0479000D02*
Y0486909D01*
X0220000Y0479000D02*
X0221000Y0480000D01*
X0220000Y0469000D02*
X0225000Y0474000D01*
X0221000Y0480000D02*
Y0486394D01*
X0225000Y0474000D02*
Y0488697D01*
X0391283Y0422409D02*
Y0448000D01*
X0356600Y0446400D02*
X0364000Y0439000D01*
X0348800Y0445200D02*
X0361000Y0433000D01*
X0302531Y0448900D02*
X0307431Y0444000D01*
X0347000D02*
X0364000Y0427000D01*
X0307431Y0444000D02*
X0347000D01*
X0230000Y0469000D02*
Y0470000D01*
X0235000Y0497000D02*
X0246000Y0508000D01*
X0230000Y0470000D02*
X0235000Y0475000D01*
Y0497000D01*
X0232000Y0435500D02*
X0240000Y0443500D01*
Y0469000D01*
X0228000Y0432500D02*
X0232000Y0428500D01*
X0228000Y0432500D02*
Y0467000D01*
X0230000Y0469000D01*
X0310000Y0479000D02*
X0317000Y0486000D01*
X0325500Y0491000D02*
X0346000D01*
X0363000Y0504000D02*
Y0512000D01*
X0347000Y0488000D02*
X0363000Y0504000D01*
X0317000Y0486000D02*
X0349500D01*
X0358500Y0495000D01*
X0264000Y0525000D02*
X0271500Y0532500D01*
X0257000Y0531000D02*
X0268303D01*
X0271003Y0533700D01*
X0228100Y0566000D02*
X0261500Y0532600D01*
X0268206D01*
X0270506Y0534900D01*
X0288500Y0503500D02*
X0289000Y0503000D01*
X0336000D01*
X0246000Y0508000D02*
X0288500D01*
X0225000Y0488697D02*
X0247303Y0511000D01*
X0301606D01*
X0305006Y0507600D01*
X0221000Y0486394D02*
X0246806Y0512200D01*
X0302103D01*
X0305503Y0508800D01*
X0215000Y0495000D02*
X0241000Y0521000D01*
X0318800Y0522000D02*
X0319800Y0521000D01*
X0286500Y0522000D02*
X0318800D01*
X0285500Y0521000D02*
X0286500Y0522000D01*
X0285903Y0523100D02*
X0286003Y0523200D01*
X0269000Y0525000D02*
X0270900Y0523100D01*
X0285903D01*
X0241000Y0521000D02*
X0285500D01*
X0271500Y0532500D02*
X0327500D01*
X0334000Y0526000D01*
X0271003Y0533700D02*
X0327997D01*
X0331697Y0530000D01*
X0334000D01*
X0286003Y0523200D02*
X0323806D01*
X0325006Y0524400D01*
X0329600D02*
X0335000Y0519000D01*
X0325006Y0524400D02*
X0329600D01*
X0417800Y0441800D02*
Y0449806D01*
X0416600Y0451006D02*
X0417800Y0449806D01*
Y0451503D02*
X0419000Y0450303D01*
X0417800Y0451503D02*
Y0495195D01*
X0416600Y0451006D02*
Y0494698D01*
X0415900Y0497095D02*
X0417800Y0495195D01*
X0414700Y0496598D02*
X0416600Y0494698D01*
X0412400Y0496794D02*
Y0620600D01*
X0389000Y0644000D02*
X0412400Y0620600D01*
X0407000Y0660000D02*
X0415900Y0651100D01*
Y0497095D02*
Y0651100D01*
X0417100Y0497592D02*
X0420200Y0494492D01*
X0417100Y0497592D02*
Y0659900D01*
X0420200Y0663000D01*
X0412400Y0496794D02*
X0415400Y0493794D01*
X0284000Y0488000D02*
X0347000D01*
D22*
X0185000Y0338000D02*
D03*
X0442000Y0337000D02*
D03*
X0185000Y0727000D02*
D03*
X0441000Y0728000D02*
D03*
D40*
X0443000Y0389906D02*
D03*
Y0368094D02*
D03*
Y0428905D02*
D03*
Y0407094D02*
D03*
D44*
X0327709Y0770500D02*
D03*
X0316291D02*
D03*
D87*
X0364272Y0557776D02*
D03*
X0363878Y0594882D02*
D03*
X0326181Y0420276D02*
D03*
X0323228Y0395768D02*
D03*
X0314961Y0396063D02*
D03*
X0305413Y0395965D02*
D03*
X0301575Y0423917D02*
D03*
X0297638Y0395571D02*
D03*
X0296654Y0594882D02*
D03*
X0228248Y0595177D02*
D03*
X0407776Y0552559D02*
D03*
X0412945Y0428851D02*
D03*
X0410728Y0432382D02*
D03*
X0411243Y0437574D02*
D03*
X0411221Y0441081D02*
D03*
X0179724Y0628346D02*
D03*
X0297349Y0411349D02*
D03*
X0296654Y0611811D02*
D03*
X0379000Y0549000D02*
D03*
X0355315Y0523622D02*
D03*
X0347400Y0525000D02*
D03*
X0348900Y0503000D02*
D03*
X0347400Y0530000D02*
D03*
X0366142Y0531496D02*
D03*
X0294000Y0706000D02*
D03*
X0411417Y0476378D02*
D03*
X0391732Y0470472D02*
D03*
X0397092Y0609908D02*
D03*
X0178740Y0590945D02*
D03*
X0285827Y0366043D02*
D03*
X0438386Y0398327D02*
D03*
X0443209Y0398721D02*
D03*
X0442913Y0436811D02*
D03*
X0407928Y0653269D02*
D03*
X0313583Y0449213D02*
D03*
X0305535Y0454072D02*
D03*
X0313761Y0455361D02*
D03*
X0422244Y0710630D02*
D03*
X0237205Y0332705D02*
D03*
X0276000Y0302000D02*
D03*
X0268500D02*
D03*
X0225500Y0708098D02*
D03*
X0322638Y0695638D02*
D03*
X0327362Y0700362D02*
D03*
X0322638D02*
D03*
X0327362Y0695638D02*
D03*
X0431500Y0668500D02*
D03*
X0429095Y0368094D02*
D03*
X0383000Y0531000D02*
D03*
X0356575Y0549925D02*
D03*
X0434150Y0513150D02*
D03*
X0220000Y0446500D02*
D03*
X0382000Y0663000D02*
D03*
X0386000Y0660000D02*
D03*
X0274500Y0503000D02*
D03*
X0255500Y0660000D02*
D03*
X0270500D02*
D03*
X0332000Y0722000D02*
D03*
Y0716000D02*
D03*
X0323000Y0713000D02*
D03*
X0441000Y0484000D02*
D03*
X0364000Y0618000D02*
D03*
X0447000Y0468000D02*
D03*
X0266500Y0535000D02*
D03*
X0228100Y0579500D02*
D03*
X0256000Y0585000D02*
D03*
X0257500Y0558500D02*
D03*
X0264500Y0581000D02*
D03*
X0266500Y0565500D02*
D03*
X0296000Y0571500D02*
D03*
X0183000Y0602000D02*
D03*
X0228246Y0614146D02*
D03*
X0252500Y0600000D02*
D03*
X0228100Y0620500D02*
D03*
X0197000Y0727000D02*
D03*
X0233000Y0708000D02*
D03*
X0261000Y0631000D02*
D03*
Y0623000D02*
D03*
X0258000Y0697000D02*
D03*
Y0703000D02*
D03*
Y0709000D02*
D03*
X0264500Y0585500D02*
D03*
X0271500Y0615500D02*
D03*
X0309000Y0618000D02*
D03*
X0302500Y0644500D02*
D03*
X0298000Y0694000D02*
D03*
X0306000Y0715000D02*
D03*
X0321000Y0617500D02*
D03*
X0356575Y0617075D02*
D03*
X0319000Y0641500D02*
D03*
X0327000Y0646000D02*
D03*
X0336500Y0646500D02*
D03*
X0408150Y0716850D02*
D03*
X0375000Y0456000D02*
D03*
X0238000Y0327000D02*
D03*
X0319800Y0521000D02*
D03*
X0238000Y0377000D02*
D03*
X0221000Y0407000D02*
D03*
Y0421000D02*
D03*
X0366000Y0636500D02*
D03*
X0326000Y0366000D02*
D03*
X0270000Y0425000D02*
D03*
X0335000Y0519000D02*
D03*
X0334000Y0525000D02*
D03*
X0343500Y0520500D02*
D03*
X0374250Y0657000D02*
D03*
X0396500Y0585000D02*
D03*
Y0580500D02*
D03*
Y0570000D02*
D03*
X0398000Y0556500D02*
D03*
X0401000Y0537000D02*
D03*
X0379000Y0542000D02*
D03*
X0362000Y0587000D02*
D03*
X0326000Y0520000D02*
D03*
X0305000Y0519500D02*
D03*
X0320000Y0512000D02*
D03*
X0306000Y0513000D02*
D03*
X0336000Y0503000D02*
D03*
X0288500Y0503500D02*
D03*
X0342500Y0494500D02*
D03*
X0346000Y0491000D02*
D03*
X0325500D02*
D03*
X0284500Y0487500D02*
D03*
X0278000Y0525500D02*
D03*
X0179000Y0596000D02*
D03*
X0183000Y0574000D02*
D03*
X0297000Y0577000D02*
D03*
X0398000Y0520000D02*
D03*
X0316500Y0551500D02*
D03*
X0266500Y0555000D02*
D03*
X0276500Y0608000D02*
D03*
X0206500Y0528000D02*
D03*
X0246500Y0581000D02*
D03*
X0347000Y0405500D02*
D03*
X0326016Y0410984D02*
D03*
X0324500Y0424500D02*
D03*
X0278500Y0385500D02*
D03*
X0279000Y0358000D02*
D03*
X0332000D02*
D03*
X0305000Y0361000D02*
D03*
X0345000Y0384000D02*
D03*
X0328000Y0372000D02*
D03*
X0331500Y0552000D02*
D03*
X0332000Y0535000D02*
D03*
X0228100Y0566000D02*
D03*
X0194500Y0628500D02*
D03*
X0269000Y0525000D02*
D03*
X0264000D02*
D03*
X0257000Y0531000D02*
D03*
X0334000Y0530000D02*
D03*
X0385000Y0340000D02*
D03*
X0392000Y0339000D02*
D03*
X0374000Y0383000D02*
D03*
X0350500Y0357000D02*
D03*
X0404000Y0341000D02*
D03*
X0407000Y0660000D02*
D03*
X0271000Y0434500D02*
D03*
X0358000Y0512000D02*
D03*
X0340000Y0509000D02*
D03*
X0363000Y0512000D02*
D03*
X0380000Y0473000D02*
D03*
X0345000Y0378000D02*
D03*
X0370000Y0312000D02*
D03*
X0340000Y0697000D02*
D03*
X0302531Y0448900D02*
D03*
X0364000Y0445000D02*
D03*
Y0439000D02*
D03*
Y0433000D02*
D03*
Y0427000D02*
D03*
X0389000Y0646000D02*
D03*
X0286500Y0446500D02*
D03*
X0183000Y0616500D02*
D03*
X0201500Y0528000D02*
D03*
X0228000Y0525000D02*
D03*
X0185000Y0350000D02*
D03*
X0442000D02*
D03*
X0441000Y0716000D02*
D03*
X0250000Y0750000D02*
D03*
X0297244D02*
D03*
X0400000D02*
D03*
X0279000Y0631000D02*
D03*
X0200000Y0500000D02*
D03*
X0201000Y0450000D02*
D03*
X0202000Y0400000D02*
D03*
X0400500Y0375000D02*
D03*
X0409500Y0412000D02*
D03*
X0319000Y0452000D02*
D03*
X0305500Y0727000D02*
D03*
X0346358Y0706000D02*
D03*
X0340000Y0736000D02*
D03*
X0200689Y0580315D02*
D03*
X0284000Y0373000D02*
D03*
X0368000Y0383000D02*
D03*
X0352000Y0405500D02*
D03*
X0322000Y0727000D02*
D03*
X0232000Y0441500D02*
D03*
Y0435500D02*
D03*
Y0428500D02*
D03*
X0358500Y0495000D02*
D03*
X0273500Y0589500D02*
D03*
X0309500Y0644500D02*
D03*
X0319000Y0636500D02*
D03*
X0322500Y0646000D02*
D03*
X0343500Y0641500D02*
D03*
X0302500Y0640000D02*
D03*
X0309500D02*
D03*
X0343500Y0646500D02*
D03*
X0366000Y0641500D02*
D03*
X0374000D02*
D03*
Y0636500D02*
D03*
X0246000Y0600000D02*
D03*
X0276500Y0615500D02*
D03*
X0271500Y0608000D02*
D03*
X0251500Y0581000D02*
D03*
X0261500Y0555000D02*
D03*
X0277500Y0538500D02*
D03*
X0265000Y0544000D02*
D03*
X0270500Y0538500D02*
D03*
X0288500Y0508000D02*
D03*
X0305000Y0526000D02*
D03*
X0297000D02*
D03*
Y0519500D02*
D03*
X0322000Y0529000D02*
D03*
X0388500Y0553000D02*
D03*
X0393500D02*
D03*
X0387500Y0574000D02*
D03*
X0392500D02*
D03*
X0387500Y0589000D02*
D03*
Y0613000D02*
D03*
X0392500D02*
D03*
X0431500Y0679500D02*
D03*
X0438500Y0668000D02*
D03*
Y0679500D02*
D03*
X0295500Y0450500D02*
D03*
X0280500Y0429000D02*
D03*
X0336000Y0641500D02*
D03*
X0420500Y0503500D02*
D03*
Y0499000D02*
D03*
X0420000Y0509000D02*
D03*
X0391500Y0526500D02*
D03*
X0388500Y0357000D02*
D03*
X0373721Y0356535D02*
D03*
X0364173Y0356945D02*
D03*
Y0365945D02*
D03*
X0373721Y0366535D02*
D03*
D88*
X0294000Y0706000D02*
X0295000D01*
D90*
X0322953Y0394953D02*
X0323228Y0395228D01*
Y0395768D01*
X0301575Y0423917D02*
Y0424925D01*
X0301400Y0425100D02*
X0301575Y0424925D01*
X0386216Y0531000D02*
X0407776Y0552559D01*
X0383000Y0531000D02*
X0386216D01*
X0438386Y0394520D02*
X0443000Y0389906D01*
X0438386Y0394520D02*
Y0398327D01*
X0443209Y0398721D02*
Y0406886D01*
X0443000Y0407094D02*
X0443209Y0406886D01*
X0442913Y0428992D02*
Y0436811D01*
Y0428992D02*
X0443000Y0428905D01*
X0429095Y0368094D02*
X0443000D01*
X0356575Y0548575D02*
Y0549925D01*
X0228100Y0614291D02*
X0228246Y0614146D01*
X0263391Y0727779D02*
X0264079D01*
X0315921Y0337221D02*
X0316609D01*
X0270000Y0425000D02*
X0270100Y0425100D01*
X0441000Y0716000D02*
Y0728000D01*
X0185000Y0338000D02*
Y0350000D01*
X0442000Y0337000D02*
Y0350000D01*
D91*
X0447000Y0511500D02*
Y0535480D01*
X0436000Y0542000D02*
X0436475Y0541525D01*
X0440955D01*
X0447000Y0535480D01*
X0316291Y0760709D02*
Y0770500D01*
Y0760709D02*
X0318000Y0759000D01*
X0327709Y0759291D02*
X0328000Y0759000D01*
X0327709Y0759291D02*
Y0770500D01*
X0318000Y0759000D02*
X0328000D01*
X0421000Y0503500D02*
X0439000D01*
X0447000Y0511500D01*
X0420500Y0499000D02*
Y0503500D01*
D95*
X0409000Y0448000D02*
D03*
Y0422409D02*
D03*
X0391283Y0448000D02*
D03*
Y0422409D02*
D03*
D96*
X0328000Y0759000D02*
D03*
X0307500Y0669000D02*
D03*
X0357000Y0698500D02*
D03*
X0370000Y0479000D02*
D03*
D97*
X0318000Y0759000D02*
D03*
X0307500Y0679000D02*
D03*
X0317500Y0669000D02*
D03*
Y0679000D02*
D03*
X0327500Y0669000D02*
D03*
Y0679000D02*
D03*
X0337500Y0669000D02*
D03*
Y0679000D02*
D03*
X0347500Y0669000D02*
D03*
Y0679000D02*
D03*
X0357500Y0669000D02*
D03*
Y0679000D02*
D03*
X0367500Y0669000D02*
D03*
Y0679000D02*
D03*
X0367000Y0698500D02*
D03*
X0437000D02*
D03*
X0427000D02*
D03*
X0417000D02*
D03*
X0407000D02*
D03*
X0397000D02*
D03*
X0387000D02*
D03*
X0377000D02*
D03*
X0370000Y0469000D02*
D03*
X0360000Y0479000D02*
D03*
Y0469000D02*
D03*
X0350000Y0479000D02*
D03*
Y0469000D02*
D03*
X0340000Y0479000D02*
D03*
Y0469000D02*
D03*
X0330000Y0479000D02*
D03*
Y0469000D02*
D03*
X0320000Y0479000D02*
D03*
Y0469000D02*
D03*
X0310000Y0479000D02*
D03*
Y0469000D02*
D03*
X0300000Y0479000D02*
D03*
Y0469000D02*
D03*
X0290000Y0479000D02*
D03*
Y0469000D02*
D03*
X0280000Y0479000D02*
D03*
Y0469000D02*
D03*
X0270000Y0479000D02*
D03*
Y0469000D02*
D03*
X0260000Y0479000D02*
D03*
Y0469000D02*
D03*
X0250000Y0479000D02*
D03*
Y0469000D02*
D03*
X0240000Y0479000D02*
D03*
Y0469000D02*
D03*
X0230000Y0479000D02*
D03*
Y0469000D02*
D03*
X0220000Y0479000D02*
D03*
Y0469000D02*
D03*
X0210000Y0479000D02*
D03*
Y0469000D02*
D03*
X0436000Y0532000D02*
D03*
X0426000D02*
D03*
X0436000Y0542000D02*
D03*
X0426000D02*
D03*
X0436000Y0552000D02*
D03*
X0426000D02*
D03*
X0436000Y0562000D02*
D03*
X0426000D02*
D03*
X0436000Y0572000D02*
D03*
X0426000D02*
D03*
X0436000Y0582000D02*
D03*
X0426000D02*
D03*
X0436000Y0592000D02*
D03*
X0426000D02*
D03*
X0436000Y0602000D02*
D03*
X0426000D02*
D03*
X0436000Y0612000D02*
D03*
X0426000D02*
D03*
X0436000Y0622000D02*
D03*
X0426000D02*
D03*
X0436000Y0632000D02*
D03*
X0426000D02*
D03*
X0436000Y0642000D02*
D03*
X0426000D02*
D03*
X0436000Y0652000D02*
D03*
D98*
X0199000Y0754000D02*
D03*
X0427098D02*
D03*
Y0311000D02*
D03*
X0199098D02*
D03*
D99*
X0373063Y0728858D02*
D03*
X0363221Y0728858D02*
D03*
X0380937Y0728858D02*
D03*
X0306079Y0345094D02*
D03*
X0315921Y0337221D02*
D03*
X0306079D02*
D03*
X0273921Y0727779D02*
D03*
X0264079D02*
D03*
X0273921Y0719906D02*
D03*
D100*
X0390779Y0728858D02*
D03*
D101*
X0402866Y0739528D02*
D03*
X0351134D02*
D03*
X0334701Y0326551D02*
D03*
X0287299D02*
D03*
X0292701Y0738449D02*
D03*
X0245299D02*
D03*
D102*
X0315921Y0345094D02*
D03*
X0264079Y0719906D02*
D03*
D103*
X0426000Y0652000D02*
D03*
M02*
