G04*
G04 #@! TF.GenerationSoftware,Altium Limited,Altium Designer,20.0.13 (296)*
G04*
G04 Layer_Color=8388736*
%FSAX25Y25*%
%MOIN*%
G70*
G01*
G75*
%ADD12C,0.01000*%
%ADD14C,0.00600*%
%ADD119C,0.01500*%
D12*
X0174098Y0271000D02*
X0180098Y0273000D01*
X0174098Y0271000D02*
X0180098Y0269000D01*
X0446098D02*
X0452098Y0271000D01*
X0446098Y0273000D02*
X0452098Y0271000D01*
X0174098D02*
X0274910D01*
X0348087D02*
X0452098D01*
X0174098Y0270000D02*
Y0309500D01*
X0452098Y0270000D02*
Y0309598D01*
X0156500Y0292000D02*
X0158500Y0286000D01*
X0160500Y0292000D01*
X0158500Y0779000D02*
X0160500Y0773000D01*
X0156500D02*
X0158500Y0779000D01*
Y0286000D02*
Y0494311D01*
Y0567489D02*
Y0779000D01*
X0157500Y0286000D02*
X0199197D01*
X0157500Y0779000D02*
X0199000D01*
X0546200Y0565598D02*
Y0559600D01*
X0549199D01*
X0550199Y0560600D01*
Y0564598D01*
X0549199Y0565598D01*
X0546200D01*
X0552198Y0559600D02*
Y0565598D01*
X0555197D01*
X0556197Y0564598D01*
Y0562599D01*
X0555197Y0561599D01*
X0552198D01*
X0554197D02*
X0556197Y0559600D01*
X0562195Y0564598D02*
X0561195Y0565598D01*
X0559196D01*
X0558196Y0564598D01*
Y0560600D01*
X0559196Y0559600D01*
X0561195D01*
X0562195Y0560600D01*
X0570192Y0563599D02*
Y0559600D01*
Y0561599D01*
X0571192Y0562599D01*
X0572192Y0563599D01*
X0573191D01*
X0576190D02*
Y0560600D01*
X0577190Y0559600D01*
X0580189D01*
Y0563599D01*
X0582188Y0559600D02*
X0584188D01*
X0583188D01*
Y0565598D01*
X0582188D01*
X0590186Y0559600D02*
X0588186D01*
X0587187Y0560600D01*
Y0562599D01*
X0588186Y0563599D01*
X0590186D01*
X0591186Y0562599D01*
Y0561599D01*
X0587187D01*
X0593185Y0559600D02*
X0596184D01*
X0597184Y0560600D01*
X0596184Y0561599D01*
X0594184D01*
X0593185Y0562599D01*
X0594184Y0563599D01*
X0597184D01*
X0606181D02*
X0608180D01*
X0609180Y0562599D01*
Y0559600D01*
X0606181D01*
X0605181Y0560600D01*
X0606181Y0561599D01*
X0609180D01*
X0611179Y0563599D02*
Y0559600D01*
Y0561599D01*
X0612179Y0562599D01*
X0613178Y0563599D01*
X0614178D01*
X0620176Y0559600D02*
X0618177D01*
X0617177Y0560600D01*
Y0562599D01*
X0618177Y0563599D01*
X0620176D01*
X0621176Y0562599D01*
Y0561599D01*
X0617177D01*
X0630173Y0559600D02*
Y0564598D01*
Y0562599D01*
X0629173D01*
X0631173D01*
X0630173D01*
Y0564598D01*
X0631173Y0565598D01*
X0635171Y0559600D02*
X0637171D01*
X0638170Y0560600D01*
Y0562599D01*
X0637171Y0563599D01*
X0635171D01*
X0634171Y0562599D01*
Y0560600D01*
X0635171Y0559600D01*
X0640170D02*
X0642169D01*
X0641169D01*
Y0565598D01*
X0640170D01*
X0645168Y0559600D02*
X0647167D01*
X0646168D01*
Y0565598D01*
X0645168D01*
X0651166Y0559600D02*
X0653165D01*
X0654165Y0560600D01*
Y0562599D01*
X0653165Y0563599D01*
X0651166D01*
X0650166Y0562599D01*
Y0560600D01*
X0651166Y0559600D01*
X0656164Y0563599D02*
Y0560600D01*
X0657164Y0559600D01*
X0658164Y0560600D01*
X0659164Y0559600D01*
X0660163Y0560600D01*
Y0563599D01*
X0665162Y0559600D02*
X0663162D01*
X0662162Y0560600D01*
Y0562599D01*
X0663162Y0563599D01*
X0665162D01*
X0666161Y0562599D01*
Y0561599D01*
X0662162D01*
X0672159Y0565598D02*
Y0559600D01*
X0669160D01*
X0668160Y0560600D01*
Y0562599D01*
X0669160Y0563599D01*
X0672159D01*
X0530199Y0575598D02*
X0528199Y0574598D01*
X0526200Y0572599D01*
Y0570600D01*
X0527200Y0569600D01*
X0529199D01*
X0530199Y0570600D01*
Y0571599D01*
X0529199Y0572599D01*
X0526200D01*
X0532198Y0569600D02*
Y0570600D01*
X0533198D01*
Y0569600D01*
X0532198D01*
X0543194Y0575598D02*
Y0571599D01*
X0545194Y0569600D01*
X0547193Y0571599D01*
Y0575598D01*
X0552192Y0569600D02*
X0550192D01*
X0549193Y0570600D01*
Y0572599D01*
X0550192Y0573599D01*
X0552192D01*
X0553191Y0572599D01*
Y0571599D01*
X0549193D01*
X0555191Y0569600D02*
Y0573599D01*
X0558190D01*
X0559189Y0572599D01*
Y0569600D01*
X0565187Y0575598D02*
Y0569600D01*
X0562188D01*
X0561189Y0570600D01*
Y0572599D01*
X0562188Y0573599D01*
X0565187D01*
X0568186Y0569600D02*
X0570186D01*
X0571185Y0570600D01*
Y0572599D01*
X0570186Y0573599D01*
X0568186D01*
X0567187Y0572599D01*
Y0570600D01*
X0568186Y0569600D01*
X0573185Y0573599D02*
Y0569600D01*
Y0571599D01*
X0574185Y0572599D01*
X0575184Y0573599D01*
X0576184D01*
X0585181Y0569600D02*
Y0573599D01*
X0586181D01*
X0587180Y0572599D01*
Y0569600D01*
Y0572599D01*
X0588180Y0573599D01*
X0589180Y0572599D01*
Y0569600D01*
X0592179Y0573599D02*
X0594178D01*
X0595178Y0572599D01*
Y0569600D01*
X0592179D01*
X0591179Y0570600D01*
X0592179Y0571599D01*
X0595178D01*
X0597177Y0573599D02*
Y0570600D01*
X0598177Y0569600D01*
X0601176D01*
Y0568600D01*
X0600176Y0567601D01*
X0599176D01*
X0601176Y0569600D02*
Y0573599D01*
X0609173D02*
Y0570600D01*
X0610173Y0569600D01*
X0613172D01*
Y0573599D01*
X0615171Y0569600D02*
X0618170D01*
X0619170Y0570600D01*
X0618170Y0571599D01*
X0616171D01*
X0615171Y0572599D01*
X0616171Y0573599D01*
X0619170D01*
X0624168Y0569600D02*
X0622169D01*
X0621169Y0570600D01*
Y0572599D01*
X0622169Y0573599D01*
X0624168D01*
X0625168Y0572599D01*
Y0571599D01*
X0621169D01*
X0634165Y0574598D02*
Y0573599D01*
X0633165D01*
X0635165D01*
X0634165D01*
Y0570600D01*
X0635165Y0569600D01*
X0641163D02*
X0639163D01*
X0638164Y0570600D01*
Y0572599D01*
X0639163Y0573599D01*
X0641163D01*
X0642163Y0572599D01*
Y0571599D01*
X0638164D01*
X0645161Y0573599D02*
X0647161D01*
X0648161Y0572599D01*
Y0569600D01*
X0645161D01*
X0644162Y0570600D01*
X0645161Y0571599D01*
X0648161D01*
X0650160Y0573599D02*
Y0569600D01*
Y0571599D01*
X0651160Y0572599D01*
X0652159Y0573599D01*
X0653159D01*
X0666155Y0575598D02*
Y0569600D01*
X0663156D01*
X0662156Y0570600D01*
Y0572599D01*
X0663156Y0573599D01*
X0666155D01*
X0668154D02*
Y0569600D01*
Y0571599D01*
X0669154Y0572599D01*
X0670153Y0573599D01*
X0671153D01*
X0675152Y0569600D02*
X0677151D01*
X0678151Y0570600D01*
Y0572599D01*
X0677151Y0573599D01*
X0675152D01*
X0674152Y0572599D01*
Y0570600D01*
X0675152Y0569600D01*
X0680150Y0567601D02*
Y0573599D01*
X0683149D01*
X0684149Y0572599D01*
Y0570600D01*
X0683149Y0569600D01*
X0680150D01*
X0686148D02*
X0689147D01*
X0690147Y0570600D01*
X0689147Y0571599D01*
X0687148D01*
X0686148Y0572599D01*
X0687148Y0573599D01*
X0690147D01*
X0699144Y0574598D02*
Y0573599D01*
X0698144D01*
X0700144D01*
X0699144D01*
Y0570600D01*
X0700144Y0569600D01*
X0704142D02*
X0706142D01*
X0707141Y0570600D01*
Y0572599D01*
X0706142Y0573599D01*
X0704142D01*
X0703143Y0572599D01*
Y0570600D01*
X0704142Y0569600D01*
X0715139D02*
X0717138D01*
X0716139D01*
Y0573599D01*
X0715139D01*
X0720137Y0569600D02*
Y0573599D01*
X0721137D01*
X0722137Y0572599D01*
Y0569600D01*
Y0572599D01*
X0723136Y0573599D01*
X0724136Y0572599D01*
Y0569600D01*
X0726135Y0567601D02*
Y0573599D01*
X0729134D01*
X0730134Y0572599D01*
Y0570600D01*
X0729134Y0569600D01*
X0726135D01*
X0732133Y0573599D02*
Y0569600D01*
Y0571599D01*
X0733133Y0572599D01*
X0734133Y0573599D01*
X0735132D01*
X0739131Y0569600D02*
X0741130D01*
X0742130Y0570600D01*
Y0572599D01*
X0741130Y0573599D01*
X0739131D01*
X0738131Y0572599D01*
Y0570600D01*
X0739131Y0569600D01*
X0744130Y0573599D02*
X0746129Y0569600D01*
X0748128Y0573599D01*
X0753127Y0569600D02*
X0751127D01*
X0750128Y0570600D01*
Y0572599D01*
X0751127Y0573599D01*
X0753127D01*
X0754126Y0572599D01*
Y0571599D01*
X0750128D01*
X0763123Y0573599D02*
X0765123D01*
X0766122Y0572599D01*
Y0569600D01*
X0763123D01*
X0762124Y0570600D01*
X0763123Y0571599D01*
X0766122D01*
X0768122Y0569600D02*
Y0573599D01*
X0771121D01*
X0772120Y0572599D01*
Y0569600D01*
X0774120D02*
Y0573599D01*
X0777119D01*
X0778119Y0572599D01*
Y0569600D01*
X0780118Y0573599D02*
Y0570600D01*
X0781117Y0569600D01*
X0784117D01*
Y0573599D01*
X0786116Y0569600D02*
X0788115D01*
X0787116D01*
Y0575598D01*
X0786116D01*
X0792114Y0573599D02*
X0794113D01*
X0795113Y0572599D01*
Y0569600D01*
X0792114D01*
X0791114Y0570600D01*
X0792114Y0571599D01*
X0795113D01*
X0797112Y0573599D02*
Y0569600D01*
Y0571599D01*
X0798112Y0572599D01*
X0799112Y0573599D01*
X0800111D01*
X0809109D02*
Y0569600D01*
Y0571599D01*
X0810108Y0572599D01*
X0811108Y0573599D01*
X0812107D01*
X0815106Y0569600D02*
X0817106D01*
X0816106D01*
Y0573599D01*
X0815106D01*
X0820105Y0569600D02*
Y0573599D01*
X0823104D01*
X0824104Y0572599D01*
Y0569600D01*
X0828102Y0567601D02*
X0829102D01*
X0830102Y0568600D01*
Y0573599D01*
X0827103D01*
X0826103Y0572599D01*
Y0570600D01*
X0827103Y0569600D01*
X0830102D01*
X0832101D02*
X0835100D01*
X0836100Y0570600D01*
X0835100Y0571599D01*
X0833101D01*
X0832101Y0572599D01*
X0833101Y0573599D01*
X0836100D01*
X0845097D02*
X0847096D01*
X0848096Y0572599D01*
Y0569600D01*
X0845097D01*
X0844097Y0570600D01*
X0845097Y0571599D01*
X0848096D01*
X0850095Y0569600D02*
X0853094D01*
X0854094Y0570600D01*
X0853094Y0571599D01*
X0851095D01*
X0850095Y0572599D01*
X0851095Y0573599D01*
X0854094D01*
X0862091Y0569600D02*
X0864091D01*
X0863091D01*
Y0575598D01*
X0862091D01*
X0868089Y0569600D02*
X0870089D01*
X0871088Y0570600D01*
Y0572599D01*
X0870089Y0573599D01*
X0868089D01*
X0867090Y0572599D01*
Y0570600D01*
X0868089Y0569600D01*
X0873088D02*
Y0573599D01*
X0876087D01*
X0877087Y0572599D01*
Y0569600D01*
X0881085Y0567601D02*
X0882085D01*
X0883084Y0568600D01*
Y0573599D01*
X0880085D01*
X0879086Y0572599D01*
Y0570600D01*
X0880085Y0569600D01*
X0883084D01*
X0892082Y0573599D02*
X0894081D01*
X0895081Y0572599D01*
Y0569600D01*
X0892082D01*
X0891082Y0570600D01*
X0892082Y0571599D01*
X0895081D01*
X0897080Y0569600D02*
X0900079D01*
X0901079Y0570600D01*
X0900079Y0571599D01*
X0898080D01*
X0897080Y0572599D01*
X0898080Y0573599D01*
X0901079D01*
X0529199Y0589600D02*
Y0595598D01*
X0526200Y0592599D01*
X0530199D01*
X0532198Y0589600D02*
Y0590600D01*
X0533198D01*
Y0589600D01*
X0532198D01*
X0547193Y0595598D02*
X0543194D01*
Y0592599D01*
X0545194D01*
X0543194D01*
Y0589600D01*
X0549193D02*
X0551192D01*
X0550192D01*
Y0593599D01*
X0549193D01*
X0554191Y0589600D02*
Y0593599D01*
X0557190D01*
X0558190Y0592599D01*
Y0589600D01*
X0560189D02*
X0562188D01*
X0561189D01*
Y0593599D01*
X0560189D01*
X0565187Y0589600D02*
X0568186D01*
X0569186Y0590600D01*
X0568186Y0591599D01*
X0566187D01*
X0565187Y0592599D01*
X0566187Y0593599D01*
X0569186D01*
X0571185Y0595598D02*
Y0589600D01*
Y0592599D01*
X0572185Y0593599D01*
X0574185D01*
X0575184Y0592599D01*
Y0589600D01*
X0577183Y0593599D02*
X0578183D01*
Y0592599D01*
X0577183D01*
Y0593599D01*
Y0590600D02*
X0578183D01*
Y0589600D01*
X0577183D01*
Y0590600D01*
X0592179Y0595598D02*
X0588180D01*
Y0589600D01*
X0592179D01*
X0588180Y0592599D02*
X0590179D01*
X0594178Y0589600D02*
Y0595598D01*
X0598177Y0589600D01*
Y0595598D01*
X0600176D02*
X0602175D01*
X0601176D01*
Y0589600D01*
X0600176D01*
X0602175D01*
X0609173Y0594598D02*
X0608174Y0595598D01*
X0606174D01*
X0605174Y0594598D01*
Y0590600D01*
X0606174Y0589600D01*
X0608174D01*
X0609173Y0590600D01*
Y0592599D01*
X0607174D01*
X0619170Y0589600D02*
X0617171Y0591599D01*
Y0593599D01*
X0619170Y0595598D01*
X0622169Y0594598D02*
X0623169Y0595598D01*
X0625168D01*
X0626168Y0594598D01*
Y0593599D01*
X0625168Y0592599D01*
X0624168D01*
X0625168D01*
X0626168Y0591599D01*
Y0590600D01*
X0625168Y0589600D01*
X0623169D01*
X0622169Y0590600D01*
X0628167Y0593599D02*
Y0590600D01*
X0629167Y0589600D01*
X0632166D01*
Y0593599D01*
X0634165Y0592599D02*
X0638164D01*
X0644162Y0595598D02*
X0640163D01*
Y0592599D01*
X0642163Y0593599D01*
X0643162D01*
X0644162Y0592599D01*
Y0590600D01*
X0643162Y0589600D01*
X0641163D01*
X0640163Y0590600D01*
X0646161Y0593599D02*
Y0590600D01*
X0647161Y0589600D01*
X0650160D01*
Y0593599D01*
X0659157Y0594598D02*
Y0593599D01*
X0658157D01*
X0660157D01*
X0659157D01*
Y0590600D01*
X0660157Y0589600D01*
X0663156Y0595598D02*
Y0589600D01*
Y0592599D01*
X0664155Y0593599D01*
X0666155D01*
X0667154Y0592599D01*
Y0589600D01*
X0669154D02*
X0671153D01*
X0670153D01*
Y0593599D01*
X0669154D01*
X0678151D02*
X0675152D01*
X0674152Y0592599D01*
Y0590600D01*
X0675152Y0589600D01*
X0678151D01*
X0680150D02*
Y0595598D01*
Y0591599D02*
X0683149Y0593599D01*
X0680150Y0591599D02*
X0683149Y0589600D01*
X0686148D02*
Y0593599D01*
X0689147D01*
X0690147Y0592599D01*
Y0589600D01*
X0695145D02*
X0693146D01*
X0692146Y0590600D01*
Y0592599D01*
X0693146Y0593599D01*
X0695145D01*
X0696145Y0592599D01*
Y0591599D01*
X0692146D01*
X0698144Y0589600D02*
X0701143D01*
X0702143Y0590600D01*
X0701143Y0591599D01*
X0699144D01*
X0698144Y0592599D01*
X0699144Y0593599D01*
X0702143D01*
X0704142Y0589600D02*
X0707141D01*
X0708141Y0590600D01*
X0707141Y0591599D01*
X0705142D01*
X0704142Y0592599D01*
X0705142Y0593599D01*
X0708141D01*
X0710141Y0589600D02*
X0712140Y0591599D01*
Y0593599D01*
X0710141Y0595598D01*
X0526200Y0604598D02*
X0527200Y0605598D01*
X0529199D01*
X0530199Y0604598D01*
Y0603599D01*
X0529199Y0602599D01*
X0528199D01*
X0529199D01*
X0530199Y0601599D01*
Y0600600D01*
X0529199Y0599600D01*
X0527200D01*
X0526200Y0600600D01*
X0532198Y0599600D02*
Y0600600D01*
X0533198D01*
Y0599600D01*
X0532198D01*
X0547193Y0604598D02*
X0546194Y0605598D01*
X0544194D01*
X0543194Y0604598D01*
Y0603599D01*
X0544194Y0602599D01*
X0546194D01*
X0547193Y0601599D01*
Y0600600D01*
X0546194Y0599600D01*
X0544194D01*
X0543194Y0600600D01*
X0550192Y0599600D02*
X0552192D01*
X0553191Y0600600D01*
Y0602599D01*
X0552192Y0603599D01*
X0550192D01*
X0549193Y0602599D01*
Y0600600D01*
X0550192Y0599600D01*
X0555191D02*
X0557190D01*
X0556190D01*
Y0605598D01*
X0555191D01*
X0564188D02*
Y0599600D01*
X0561189D01*
X0560189Y0600600D01*
Y0602599D01*
X0561189Y0603599D01*
X0564188D01*
X0569186Y0599600D02*
X0567187D01*
X0566187Y0600600D01*
Y0602599D01*
X0567187Y0603599D01*
X0569186D01*
X0570186Y0602599D01*
Y0601599D01*
X0566187D01*
X0572185Y0603599D02*
Y0599600D01*
Y0601599D01*
X0573185Y0602599D01*
X0574185Y0603599D01*
X0575184D01*
X0584181Y0599600D02*
Y0603599D01*
X0585181D01*
X0586181Y0602599D01*
Y0599600D01*
Y0602599D01*
X0587180Y0603599D01*
X0588180Y0602599D01*
Y0599600D01*
X0591179Y0603599D02*
X0593178D01*
X0594178Y0602599D01*
Y0599600D01*
X0591179D01*
X0590179Y0600600D01*
X0591179Y0601599D01*
X0594178D01*
X0596177Y0599600D02*
X0599176D01*
X0600176Y0600600D01*
X0599176Y0601599D01*
X0597177D01*
X0596177Y0602599D01*
X0597177Y0603599D01*
X0600176D01*
X0602175Y0599600D02*
Y0605598D01*
Y0601599D02*
X0605174Y0603599D01*
X0602175Y0601599D02*
X0605174Y0599600D01*
X0608174Y0603599D02*
X0609173D01*
Y0602599D01*
X0608174D01*
Y0603599D01*
Y0600600D02*
X0609173D01*
Y0599600D01*
X0608174D01*
Y0600600D01*
X0619170Y0599600D02*
Y0605598D01*
X0622169D01*
X0623169Y0604598D01*
Y0602599D01*
X0622169Y0601599D01*
X0619170D01*
X0621169D02*
X0623169Y0599600D01*
X0626168D02*
X0628167D01*
X0629167Y0600600D01*
Y0602599D01*
X0628167Y0603599D01*
X0626168D01*
X0625168Y0602599D01*
Y0600600D01*
X0626168Y0599600D01*
X0631166Y0605598D02*
Y0599600D01*
Y0602599D01*
X0635165D01*
Y0605598D01*
Y0599600D01*
X0641163Y0604598D02*
X0640163Y0605598D01*
X0638164D01*
X0637164Y0604598D01*
Y0603599D01*
X0638164Y0602599D01*
X0640163D01*
X0641163Y0601599D01*
Y0600600D01*
X0640163Y0599600D01*
X0638164D01*
X0637164Y0600600D01*
X0643162Y0602599D02*
X0647161D01*
X0653159Y0603599D02*
X0650160D01*
X0649160Y0602599D01*
Y0600600D01*
X0650160Y0599600D01*
X0653159D01*
X0656158D02*
X0658157D01*
X0659157Y0600600D01*
Y0602599D01*
X0658157Y0603599D01*
X0656158D01*
X0655158Y0602599D01*
Y0600600D01*
X0656158Y0599600D01*
X0661156D02*
Y0603599D01*
X0662156D01*
X0663156Y0602599D01*
Y0599600D01*
Y0602599D01*
X0664155Y0603599D01*
X0665155Y0602599D01*
Y0599600D01*
X0667154Y0597601D02*
Y0603599D01*
X0670153D01*
X0671153Y0602599D01*
Y0600600D01*
X0670153Y0599600D01*
X0667154D01*
X0673152D02*
X0675152D01*
X0674152D01*
Y0605598D01*
X0673152D01*
X0678151Y0599600D02*
X0680150D01*
X0679150D01*
Y0603599D01*
X0678151D01*
X0684149D02*
X0686148D01*
X0687148Y0602599D01*
Y0599600D01*
X0684149D01*
X0683149Y0600600D01*
X0684149Y0601599D01*
X0687148D01*
X0689147Y0599600D02*
Y0603599D01*
X0692146D01*
X0693146Y0602599D01*
Y0599600D01*
X0696145Y0604598D02*
Y0603599D01*
X0695145D01*
X0697145D01*
X0696145D01*
Y0600600D01*
X0697145Y0599600D01*
X0710141Y0604598D02*
X0709141Y0605598D01*
X0707141D01*
X0706142Y0604598D01*
Y0603599D01*
X0707141Y0602599D01*
X0709141D01*
X0710141Y0601599D01*
Y0600600D01*
X0709141Y0599600D01*
X0707141D01*
X0706142Y0600600D01*
X0712140Y0599600D02*
Y0605598D01*
X0714139Y0603599D01*
X0716139Y0605598D01*
Y0599600D01*
X0721137Y0605598D02*
X0719138D01*
X0718138Y0604598D01*
Y0600600D01*
X0719138Y0599600D01*
X0721137D01*
X0722137Y0600600D01*
Y0604598D01*
X0721137Y0605598D01*
X0724136D02*
Y0599600D01*
X0727135D01*
X0728135Y0600600D01*
Y0601599D01*
X0727135Y0602599D01*
X0724136D01*
X0727135D01*
X0728135Y0603599D01*
Y0604598D01*
X0727135Y0605598D01*
X0724136D01*
X0734133Y0604598D02*
X0733133Y0605598D01*
X0731134D01*
X0730134Y0604598D01*
Y0600600D01*
X0731134Y0599600D01*
X0733133D01*
X0734133Y0600600D01*
X0737132Y0598600D02*
X0738131Y0599600D01*
Y0600600D01*
X0737132D01*
Y0599600D01*
X0738131D01*
X0737132Y0598600D01*
X0736132Y0597601D01*
X0749128Y0604598D02*
Y0603599D01*
X0748128D01*
X0750128D01*
X0749128D01*
Y0600600D01*
X0750128Y0599600D01*
X0753127Y0603599D02*
Y0600600D01*
X0754126Y0599600D01*
X0757125D01*
Y0598600D01*
X0756126Y0597601D01*
X0755126D01*
X0757125Y0599600D02*
Y0603599D01*
X0759125Y0597601D02*
Y0603599D01*
X0762124D01*
X0763123Y0602599D01*
Y0600600D01*
X0762124Y0599600D01*
X0759125D01*
X0768122D02*
X0766122D01*
X0765123Y0600600D01*
Y0602599D01*
X0766122Y0603599D01*
X0768122D01*
X0769121Y0602599D01*
Y0601599D01*
X0765123D01*
X0777119Y0605598D02*
Y0599600D01*
X0781117D01*
X0783117D02*
Y0605598D01*
X0786116D01*
X0787116Y0604598D01*
Y0602599D01*
X0786116Y0601599D01*
X0783117D01*
X0789115Y0605598D02*
X0791114D01*
X0790115D01*
Y0599600D01*
X0789115D01*
X0791114D01*
X0802111D02*
X0800111Y0601599D01*
Y0603599D01*
X0802111Y0605598D01*
X0809109Y0603599D02*
X0806109D01*
X0805110Y0602599D01*
Y0600600D01*
X0806109Y0599600D01*
X0809109D01*
X0812107D02*
X0814107D01*
X0815106Y0600600D01*
Y0602599D01*
X0814107Y0603599D01*
X0812107D01*
X0811108Y0602599D01*
Y0600600D01*
X0812107Y0599600D01*
X0817106D02*
X0819105D01*
X0818106D01*
Y0605598D01*
X0817106D01*
X0823104Y0599600D02*
X0825103D01*
X0826103Y0600600D01*
Y0602599D01*
X0825103Y0603599D01*
X0823104D01*
X0822104Y0602599D01*
Y0600600D01*
X0823104Y0599600D01*
X0828102Y0603599D02*
Y0599600D01*
Y0601599D01*
X0829102Y0602599D01*
X0830102Y0603599D01*
X0831101D01*
X0840098Y0601599D02*
X0844097D01*
X0840098Y0603599D02*
X0844097D01*
X0852095Y0605598D02*
Y0599600D01*
X0855094D01*
X0856093Y0600600D01*
Y0601599D01*
X0855094Y0602599D01*
X0852095D01*
X0855094D01*
X0856093Y0603599D01*
Y0604598D01*
X0855094Y0605598D01*
X0852095D01*
X0858093D02*
Y0599600D01*
X0862091D01*
X0864091Y0605598D02*
Y0600600D01*
X0865090Y0599600D01*
X0867090D01*
X0868089Y0600600D01*
Y0605598D01*
X0874087D02*
X0870089D01*
Y0599600D01*
X0874087D01*
X0870089Y0602599D02*
X0872088D01*
X0876087Y0599600D02*
X0878086Y0601599D01*
Y0603599D01*
X0876087Y0605598D01*
X0541200Y0619600D02*
Y0623599D01*
X0544199D01*
X0545199Y0622599D01*
Y0619600D01*
X0548198D02*
X0550197D01*
X0551197Y0620600D01*
Y0622599D01*
X0550197Y0623599D01*
X0548198D01*
X0547198Y0622599D01*
Y0620600D01*
X0548198Y0619600D01*
X0554196Y0624598D02*
Y0623599D01*
X0553196D01*
X0555196D01*
X0554196D01*
Y0620600D01*
X0555196Y0619600D01*
X0565192Y0623599D02*
X0567192D01*
X0568191Y0622599D01*
Y0619600D01*
X0565192D01*
X0564193Y0620600D01*
X0565192Y0621599D01*
X0568191D01*
X0570191Y0619600D02*
X0572190D01*
X0571190D01*
Y0625598D01*
X0570191D01*
X0575189Y0619600D02*
X0577188D01*
X0576189D01*
Y0625598D01*
X0575189D01*
X0581187Y0619600D02*
X0583186D01*
X0584186Y0620600D01*
Y0622599D01*
X0583186Y0623599D01*
X0581187D01*
X0580187Y0622599D01*
Y0620600D01*
X0581187Y0619600D01*
X0586185Y0623599D02*
Y0620600D01*
X0587185Y0619600D01*
X0588185Y0620600D01*
X0589185Y0619600D01*
X0590184Y0620600D01*
Y0623599D01*
X0595183Y0619600D02*
X0593183D01*
X0592183Y0620600D01*
Y0622599D01*
X0593183Y0623599D01*
X0595183D01*
X0596182Y0622599D01*
Y0621599D01*
X0592183D01*
X0602180Y0625598D02*
Y0619600D01*
X0599181D01*
X0598182Y0620600D01*
Y0622599D01*
X0599181Y0623599D01*
X0602180D01*
X0611177Y0619600D02*
X0613177D01*
X0614176Y0620600D01*
Y0622599D01*
X0613177Y0623599D01*
X0611177D01*
X0610178Y0622599D01*
Y0620600D01*
X0611177Y0619600D01*
X0616176D02*
Y0623599D01*
X0619175D01*
X0620174Y0622599D01*
Y0619600D01*
X0632171Y0623599D02*
X0629172D01*
X0628172Y0622599D01*
Y0620600D01*
X0629172Y0619600D01*
X0632171D01*
X0635170D02*
X0637169D01*
X0638169Y0620600D01*
Y0622599D01*
X0637169Y0623599D01*
X0635170D01*
X0634170Y0622599D01*
Y0620600D01*
X0635170Y0619600D01*
X0640168D02*
Y0623599D01*
X0641168D01*
X0642167Y0622599D01*
Y0619600D01*
Y0622599D01*
X0643167Y0623599D01*
X0644167Y0622599D01*
Y0619600D01*
X0646166Y0617601D02*
Y0623599D01*
X0649165D01*
X0650165Y0622599D01*
Y0620600D01*
X0649165Y0619600D01*
X0646166D01*
X0653164D02*
X0655163D01*
X0656163Y0620600D01*
Y0622599D01*
X0655163Y0623599D01*
X0653164D01*
X0652164Y0622599D01*
Y0620600D01*
X0653164Y0619600D01*
X0658162D02*
Y0623599D01*
X0661161D01*
X0662161Y0622599D01*
Y0619600D01*
X0667159D02*
X0665160D01*
X0664160Y0620600D01*
Y0622599D01*
X0665160Y0623599D01*
X0667159D01*
X0668159Y0622599D01*
Y0621599D01*
X0664160D01*
X0670158Y0619600D02*
Y0623599D01*
X0673157D01*
X0674157Y0622599D01*
Y0619600D01*
X0677156Y0624598D02*
Y0623599D01*
X0676156D01*
X0678156D01*
X0677156D01*
Y0620600D01*
X0678156Y0619600D01*
X0687153Y0617601D02*
Y0623599D01*
X0690152D01*
X0691152Y0622599D01*
Y0620600D01*
X0690152Y0619600D01*
X0687153D01*
X0694150Y0623599D02*
X0696150D01*
X0697150Y0622599D01*
Y0619600D01*
X0694150D01*
X0693151Y0620600D01*
X0694150Y0621599D01*
X0697150D01*
X0703148Y0625598D02*
Y0619600D01*
X0700149D01*
X0699149Y0620600D01*
Y0622599D01*
X0700149Y0623599D01*
X0703148D01*
X0705147Y0619600D02*
X0708146D01*
X0709146Y0620600D01*
X0708146Y0621599D01*
X0706147D01*
X0705147Y0622599D01*
X0706147Y0623599D01*
X0709146D01*
X0718143Y0619600D02*
X0720142D01*
X0721142Y0620600D01*
Y0622599D01*
X0720142Y0623599D01*
X0718143D01*
X0717143Y0622599D01*
Y0620600D01*
X0718143Y0619600D01*
X0723141Y0623599D02*
Y0619600D01*
Y0621599D01*
X0724141Y0622599D01*
X0725140Y0623599D01*
X0726140D01*
X0735137D02*
X0737137Y0619600D01*
X0739136Y0623599D01*
X0741135Y0619600D02*
X0743135D01*
X0742135D01*
Y0623599D01*
X0741135D01*
X0747133D02*
X0749133D01*
X0750132Y0622599D01*
Y0619600D01*
X0747133D01*
X0746134Y0620600D01*
X0747133Y0621599D01*
X0750132D01*
X0752132Y0619600D02*
X0755131D01*
X0756131Y0620600D01*
X0755131Y0621599D01*
X0753131D01*
X0752132Y0622599D01*
X0753131Y0623599D01*
X0756131D01*
X0766127Y0619600D02*
X0764128Y0621599D01*
Y0623599D01*
X0766127Y0625598D01*
X0773125Y0623599D02*
X0770126D01*
X0769126Y0622599D01*
Y0620600D01*
X0770126Y0619600D01*
X0773125D01*
X0776124D02*
X0778123D01*
X0779123Y0620600D01*
Y0622599D01*
X0778123Y0623599D01*
X0776124D01*
X0775124Y0622599D01*
Y0620600D01*
X0776124Y0619600D01*
X0781122D02*
X0783122D01*
X0782122D01*
Y0625598D01*
X0781122D01*
X0787120Y0619600D02*
X0789120D01*
X0790120Y0620600D01*
Y0622599D01*
X0789120Y0623599D01*
X0787120D01*
X0786121Y0622599D01*
Y0620600D01*
X0787120Y0619600D01*
X0792119Y0623599D02*
Y0619600D01*
Y0621599D01*
X0793118Y0622599D01*
X0794118Y0623599D01*
X0795118D01*
X0804115Y0621599D02*
X0808114D01*
X0804115Y0623599D02*
X0808114D01*
X0816111Y0625598D02*
Y0619600D01*
X0818110Y0621599D01*
X0820110Y0619600D01*
Y0625598D01*
X0822109D02*
Y0619600D01*
Y0622599D01*
X0826108D01*
Y0625598D01*
Y0619600D01*
X0828107Y0625598D02*
X0830107D01*
X0829107D01*
Y0619600D01*
X0828107D01*
X0830107D01*
X0833106Y0625598D02*
X0837104D01*
X0835105D01*
Y0619600D01*
X0843102Y0625598D02*
X0839104D01*
Y0619600D01*
X0843102D01*
X0839104Y0622599D02*
X0841103D01*
X0845102Y0619600D02*
X0847101Y0621599D01*
Y0623599D01*
X0845102Y0625598D01*
X0526200Y0629600D02*
X0528199D01*
X0527200D01*
Y0635598D01*
X0526200Y0634598D01*
X0531198Y0629600D02*
Y0630600D01*
X0532198D01*
Y0629600D01*
X0531198D01*
X0546194Y0634598D02*
X0545194Y0635598D01*
X0543194D01*
X0542195Y0634598D01*
Y0633599D01*
X0543194Y0632599D01*
X0545194D01*
X0546194Y0631599D01*
Y0630600D01*
X0545194Y0629600D01*
X0543194D01*
X0542195Y0630600D01*
X0548193Y0629600D02*
X0550192D01*
X0549193D01*
Y0633599D01*
X0548193D01*
X0553191Y0629600D02*
X0555191D01*
X0554191D01*
Y0635598D01*
X0553191D01*
X0558190Y0629600D02*
Y0635598D01*
Y0631599D02*
X0561189Y0633599D01*
X0558190Y0631599D02*
X0561189Y0629600D01*
X0564188D02*
X0567187D01*
X0568186Y0630600D01*
X0567187Y0631599D01*
X0565187D01*
X0564188Y0632599D01*
X0565187Y0633599D01*
X0568186D01*
X0574185D02*
X0571185D01*
X0570186Y0632599D01*
Y0630600D01*
X0571185Y0629600D01*
X0574185D01*
X0576184Y0633599D02*
Y0629600D01*
Y0631599D01*
X0577183Y0632599D01*
X0578183Y0633599D01*
X0579183D01*
X0585181Y0629600D02*
X0583182D01*
X0582182Y0630600D01*
Y0632599D01*
X0583182Y0633599D01*
X0585181D01*
X0586181Y0632599D01*
Y0631599D01*
X0582182D01*
X0591179Y0629600D02*
X0589180D01*
X0588180Y0630600D01*
Y0632599D01*
X0589180Y0633599D01*
X0591179D01*
X0592179Y0632599D01*
Y0631599D01*
X0588180D01*
X0594178Y0629600D02*
Y0633599D01*
X0597177D01*
X0598177Y0632599D01*
Y0629600D01*
X0606174Y0635598D02*
Y0629600D01*
X0609173D01*
X0610173Y0630600D01*
Y0631599D01*
Y0632599D01*
X0609173Y0633599D01*
X0606174D01*
X0613172Y0629600D02*
X0615171D01*
X0616171Y0630600D01*
Y0632599D01*
X0615171Y0633599D01*
X0613172D01*
X0612172Y0632599D01*
Y0630600D01*
X0613172Y0629600D01*
X0619170Y0634598D02*
Y0633599D01*
X0618170D01*
X0620170D01*
X0619170D01*
Y0630600D01*
X0620170Y0629600D01*
X0623169Y0635598D02*
Y0629600D01*
Y0632599D01*
X0624168Y0633599D01*
X0626168D01*
X0627167Y0632599D01*
Y0629600D01*
X0635165D02*
X0638164D01*
X0639163Y0630600D01*
X0638164Y0631599D01*
X0636164D01*
X0635165Y0632599D01*
X0636164Y0633599D01*
X0639163D01*
X0641163Y0629600D02*
X0643162D01*
X0642163D01*
Y0633599D01*
X0641163D01*
X0650160Y0635598D02*
Y0629600D01*
X0647161D01*
X0646161Y0630600D01*
Y0632599D01*
X0647161Y0633599D01*
X0650160D01*
X0655158Y0629600D02*
X0653159D01*
X0652159Y0630600D01*
Y0632599D01*
X0653159Y0633599D01*
X0655158D01*
X0656158Y0632599D01*
Y0631599D01*
X0652159D01*
X0658157Y0629600D02*
X0661156D01*
X0662156Y0630600D01*
X0661156Y0631599D01*
X0659157D01*
X0658157Y0632599D01*
X0659157Y0633599D01*
X0662156D01*
X0670153D02*
Y0630600D01*
X0671153Y0629600D01*
X0672153Y0630600D01*
X0673152Y0629600D01*
X0674152Y0630600D01*
Y0633599D01*
X0676152Y0629600D02*
X0678151D01*
X0677151D01*
Y0633599D01*
X0676152D01*
X0682150Y0634598D02*
Y0633599D01*
X0681150D01*
X0683149D01*
X0682150D01*
Y0630600D01*
X0683149Y0629600D01*
X0686148Y0635598D02*
Y0629600D01*
Y0632599D01*
X0687148Y0633599D01*
X0689147D01*
X0690147Y0632599D01*
Y0629600D01*
X0698144D02*
Y0633599D01*
X0701143D01*
X0702143Y0632599D01*
Y0629600D01*
X0705142D02*
X0707141D01*
X0708141Y0630600D01*
Y0632599D01*
X0707141Y0633599D01*
X0705142D01*
X0704142Y0632599D01*
Y0630600D01*
X0705142Y0629600D01*
X0710141D02*
Y0633599D01*
X0713139D01*
X0714139Y0632599D01*
Y0629600D01*
X0716139Y0632599D02*
X0720137D01*
X0726135Y0633599D02*
X0723136D01*
X0722137Y0632599D01*
Y0630600D01*
X0723136Y0629600D01*
X0726135D01*
X0729134D02*
X0731134D01*
X0732133Y0630600D01*
Y0632599D01*
X0731134Y0633599D01*
X0729134D01*
X0728135Y0632599D01*
Y0630600D01*
X0729134Y0629600D01*
X0734133D02*
Y0633599D01*
X0737132D01*
X0738131Y0632599D01*
Y0629600D01*
X0744130Y0635598D02*
Y0629600D01*
X0741130D01*
X0740131Y0630600D01*
Y0632599D01*
X0741130Y0633599D01*
X0744130D01*
X0746129D02*
Y0630600D01*
X0747128Y0629600D01*
X0750128D01*
Y0633599D01*
X0756126D02*
X0753127D01*
X0752127Y0632599D01*
Y0630600D01*
X0753127Y0629600D01*
X0756126D01*
X0759125Y0634598D02*
Y0633599D01*
X0758125D01*
X0760124D01*
X0759125D01*
Y0630600D01*
X0760124Y0629600D01*
X0763123D02*
X0765123D01*
X0764123D01*
Y0633599D01*
X0763123D01*
X0768122D02*
X0770121Y0629600D01*
X0772120Y0633599D01*
X0777119Y0629600D02*
X0775119D01*
X0774120Y0630600D01*
Y0632599D01*
X0775119Y0633599D01*
X0777119D01*
X0778119Y0632599D01*
Y0631599D01*
X0774120D01*
X0781117Y0628600D02*
X0782117Y0629600D01*
Y0630600D01*
X0781117D01*
Y0629600D01*
X0782117D01*
X0781117Y0628600D01*
X0780118Y0627601D01*
X0792114Y0629600D02*
Y0635598D01*
X0795113D01*
X0796113Y0634598D01*
Y0632599D01*
X0795113Y0631599D01*
X0792114D01*
X0794113D02*
X0796113Y0629600D01*
X0799112D02*
X0801111D01*
X0802111Y0630600D01*
Y0632599D01*
X0801111Y0633599D01*
X0799112D01*
X0798112Y0632599D01*
Y0630600D01*
X0799112Y0629600D01*
X0804110Y0635598D02*
Y0629600D01*
Y0632599D01*
X0808109D01*
Y0635598D01*
Y0629600D01*
X0814107Y0634598D02*
X0813107Y0635598D01*
X0811108D01*
X0810108Y0634598D01*
Y0633599D01*
X0811108Y0632599D01*
X0813107D01*
X0814107Y0631599D01*
Y0630600D01*
X0813107Y0629600D01*
X0811108D01*
X0810108Y0630600D01*
X0826103Y0633599D02*
X0823104D01*
X0822104Y0632599D01*
Y0630600D01*
X0823104Y0629600D01*
X0826103D01*
X0829102D02*
X0831101D01*
X0832101Y0630600D01*
Y0632599D01*
X0831101Y0633599D01*
X0829102D01*
X0828102Y0632599D01*
Y0630600D01*
X0829102Y0629600D01*
X0834100D02*
Y0633599D01*
X0835100D01*
X0836100Y0632599D01*
Y0629600D01*
Y0632599D01*
X0837099Y0633599D01*
X0838099Y0632599D01*
Y0629600D01*
X0840098Y0627601D02*
Y0633599D01*
X0843097D01*
X0844097Y0632599D01*
Y0630600D01*
X0843097Y0629600D01*
X0840098D01*
X0846097D02*
X0848096D01*
X0847096D01*
Y0635598D01*
X0846097D01*
X0851095Y0629600D02*
X0853094D01*
X0852095D01*
Y0633599D01*
X0851095D01*
X0857093D02*
X0859092D01*
X0860092Y0632599D01*
Y0629600D01*
X0857093D01*
X0856093Y0630600D01*
X0857093Y0631599D01*
X0860092D01*
X0862091Y0629600D02*
Y0633599D01*
X0865090D01*
X0866090Y0632599D01*
Y0629600D01*
X0869089Y0634598D02*
Y0633599D01*
X0868089D01*
X0870089D01*
X0869089D01*
Y0630600D01*
X0870089Y0629600D01*
X0879086D02*
X0881085D01*
X0880085D01*
Y0633599D01*
X0879086D01*
X0884084Y0629600D02*
Y0633599D01*
X0887083D01*
X0888083Y0632599D01*
Y0629600D01*
X0890082D02*
Y0635598D01*
Y0631599D02*
X0893081Y0633599D01*
X0890082Y0631599D02*
X0893081Y0629600D01*
X0526200Y0644600D02*
Y0650598D01*
X0530199Y0644600D01*
Y0650598D01*
X0533198Y0644600D02*
X0535197D01*
X0536197Y0645600D01*
Y0647599D01*
X0535197Y0648599D01*
X0533198D01*
X0532198Y0647599D01*
Y0645600D01*
X0533198Y0644600D01*
X0539196Y0649598D02*
Y0648599D01*
X0538196D01*
X0540196D01*
X0539196D01*
Y0645600D01*
X0540196Y0644600D01*
X0546194D02*
X0544194D01*
X0543194Y0645600D01*
Y0647599D01*
X0544194Y0648599D01*
X0546194D01*
X0547193Y0647599D01*
Y0646599D01*
X0543194D01*
X0549193Y0644600D02*
X0552192D01*
X0553191Y0645600D01*
X0552192Y0646599D01*
X0550192D01*
X0549193Y0647599D01*
X0550192Y0648599D01*
X0553191D01*
X0555191D02*
X0556190D01*
Y0647599D01*
X0555191D01*
Y0648599D01*
Y0645600D02*
X0556190D01*
Y0644600D01*
X0555191D01*
Y0645600D01*
X0566187Y0648599D02*
Y0645600D01*
X0567187Y0644600D01*
X0570186D01*
Y0648599D01*
X0572185Y0644600D02*
Y0648599D01*
X0575184D01*
X0576184Y0647599D01*
Y0644600D01*
X0578183D02*
X0580183D01*
X0579183D01*
Y0650598D01*
X0578183D01*
X0586181Y0644600D02*
X0584181D01*
X0583182Y0645600D01*
Y0647599D01*
X0584181Y0648599D01*
X0586181D01*
X0587180Y0647599D01*
Y0646599D01*
X0583182D01*
X0589180Y0644600D02*
X0592179D01*
X0593178Y0645600D01*
X0592179Y0646599D01*
X0590179D01*
X0589180Y0647599D01*
X0590179Y0648599D01*
X0593178D01*
X0595178Y0644600D02*
X0598177D01*
X0599176Y0645600D01*
X0598177Y0646599D01*
X0596177D01*
X0595178Y0647599D01*
X0596177Y0648599D01*
X0599176D01*
X0608174Y0644600D02*
X0610173D01*
X0611172Y0645600D01*
Y0647599D01*
X0610173Y0648599D01*
X0608174D01*
X0607174Y0647599D01*
Y0645600D01*
X0608174Y0644600D01*
X0614172Y0649598D02*
Y0648599D01*
X0613172D01*
X0615171D01*
X0614172D01*
Y0645600D01*
X0615171Y0644600D01*
X0618170Y0650598D02*
Y0644600D01*
Y0647599D01*
X0619170Y0648599D01*
X0621169D01*
X0622169Y0647599D01*
Y0644600D01*
X0627167D02*
X0625168D01*
X0624168Y0645600D01*
Y0647599D01*
X0625168Y0648599D01*
X0627167D01*
X0628167Y0647599D01*
Y0646599D01*
X0624168D01*
X0630166Y0648599D02*
Y0644600D01*
Y0646599D01*
X0631166Y0647599D01*
X0632166Y0648599D01*
X0633165D01*
X0636164D02*
Y0645600D01*
X0637164Y0644600D01*
X0638164Y0645600D01*
X0639163Y0644600D01*
X0640163Y0645600D01*
Y0648599D01*
X0642163Y0644600D02*
X0644162D01*
X0643162D01*
Y0648599D01*
X0642163D01*
X0647161Y0644600D02*
X0650160D01*
X0651160Y0645600D01*
X0650160Y0646599D01*
X0648161D01*
X0647161Y0647599D01*
X0648161Y0648599D01*
X0651160D01*
X0656158Y0644600D02*
X0654159D01*
X0653159Y0645600D01*
Y0647599D01*
X0654159Y0648599D01*
X0656158D01*
X0657158Y0647599D01*
Y0646599D01*
X0653159D01*
X0665155Y0644600D02*
X0668154D01*
X0669154Y0645600D01*
X0668154Y0646599D01*
X0666155D01*
X0665155Y0647599D01*
X0666155Y0648599D01*
X0669154D01*
X0671153Y0642601D02*
Y0648599D01*
X0674152D01*
X0675152Y0647599D01*
Y0645600D01*
X0674152Y0644600D01*
X0671153D01*
X0680150D02*
X0678151D01*
X0677151Y0645600D01*
Y0647599D01*
X0678151Y0648599D01*
X0680150D01*
X0681150Y0647599D01*
Y0646599D01*
X0677151D01*
X0687148Y0648599D02*
X0684149D01*
X0683149Y0647599D01*
Y0645600D01*
X0684149Y0644600D01*
X0687148D01*
X0689147D02*
X0691147D01*
X0690147D01*
Y0648599D01*
X0689147D01*
X0695145Y0644600D02*
Y0649598D01*
Y0647599D01*
X0694146D01*
X0696145D01*
X0695145D01*
Y0649598D01*
X0696145Y0650598D01*
X0699144Y0644600D02*
X0701143D01*
X0700144D01*
Y0648599D01*
X0699144D01*
X0707141Y0644600D02*
X0705142D01*
X0704142Y0645600D01*
Y0647599D01*
X0705142Y0648599D01*
X0707141D01*
X0708141Y0647599D01*
Y0646599D01*
X0704142D01*
X0714139Y0650598D02*
Y0644600D01*
X0711140D01*
X0710141Y0645600D01*
Y0647599D01*
X0711140Y0648599D01*
X0714139D01*
X0526200Y0555598D02*
X0530199D01*
Y0554598D01*
X0526200Y0550600D01*
Y0549600D01*
X0532198D02*
Y0550600D01*
X0533198D01*
Y0549600D01*
X0532198D01*
X0543194D02*
Y0553599D01*
X0545194Y0555598D01*
X0547193Y0553599D01*
Y0549600D01*
Y0552599D01*
X0543194D01*
X0549193Y0549600D02*
X0551192D01*
X0550192D01*
Y0555598D01*
X0549193D01*
X0554191Y0549600D02*
X0556190D01*
X0555191D01*
Y0555598D01*
X0554191D01*
X0566187Y0549600D02*
Y0554598D01*
Y0552599D01*
X0565187D01*
X0567187D01*
X0566187D01*
Y0554598D01*
X0567187Y0555598D01*
X0570186Y0549600D02*
X0572185D01*
X0571185D01*
Y0553599D01*
X0570186D01*
X0575184Y0549600D02*
Y0553599D01*
X0578183D01*
X0579183Y0552599D01*
Y0549600D01*
X0581182D02*
X0583181D01*
X0582182D01*
Y0553599D01*
X0581182D01*
X0586181Y0549600D02*
X0589180D01*
X0590179Y0550600D01*
X0589180Y0551599D01*
X0587180D01*
X0586181Y0552599D01*
X0587180Y0553599D01*
X0590179D01*
X0592179Y0555598D02*
Y0549600D01*
Y0552599D01*
X0593178Y0553599D01*
X0595178D01*
X0596177Y0552599D01*
Y0549600D01*
X0601176D02*
X0599176D01*
X0598177Y0550600D01*
Y0552599D01*
X0599176Y0553599D01*
X0601176D01*
X0602175Y0552599D01*
Y0551599D01*
X0598177D01*
X0608174Y0555598D02*
Y0549600D01*
X0605174D01*
X0604175Y0550600D01*
Y0552599D01*
X0605174Y0553599D01*
X0608174D01*
X0616171Y0547601D02*
Y0553599D01*
X0619170D01*
X0620170Y0552599D01*
Y0550600D01*
X0619170Y0549600D01*
X0616171D01*
X0623169Y0553599D02*
X0625168D01*
X0626168Y0552599D01*
Y0549600D01*
X0623169D01*
X0622169Y0550600D01*
X0623169Y0551599D01*
X0626168D01*
X0632166Y0555598D02*
Y0549600D01*
X0629167D01*
X0628167Y0550600D01*
Y0552599D01*
X0629167Y0553599D01*
X0632166D01*
X0634165Y0549600D02*
X0637164D01*
X0638164Y0550600D01*
X0637164Y0551599D01*
X0635165D01*
X0634165Y0552599D01*
X0635165Y0553599D01*
X0638164D01*
X0647161Y0554598D02*
Y0553599D01*
X0646161D01*
X0648161D01*
X0647161D01*
Y0550600D01*
X0648161Y0549600D01*
X0652159D02*
X0654159D01*
X0655158Y0550600D01*
Y0552599D01*
X0654159Y0553599D01*
X0652159D01*
X0651160Y0552599D01*
Y0550600D01*
X0652159Y0549600D01*
X0663156Y0555598D02*
Y0549600D01*
X0666155D01*
X0667154Y0550600D01*
Y0551599D01*
Y0552599D01*
X0666155Y0553599D01*
X0663156D01*
X0672153Y0549600D02*
X0670153D01*
X0669154Y0550600D01*
Y0552599D01*
X0670153Y0553599D01*
X0672153D01*
X0673152Y0552599D01*
Y0551599D01*
X0669154D01*
X0681150Y0549600D02*
X0683149D01*
X0682150D01*
Y0555598D01*
X0681150Y0554598D01*
X0686148D02*
X0687148Y0555598D01*
X0689147D01*
X0690147Y0554598D01*
Y0550600D01*
X0689147Y0549600D01*
X0687148D01*
X0686148Y0550600D01*
Y0554598D01*
X0692146D02*
X0693146Y0555598D01*
X0695145D01*
X0696145Y0554598D01*
Y0550600D01*
X0695145Y0549600D01*
X0693146D01*
X0692146Y0550600D01*
Y0554598D01*
X0698144Y0550600D02*
X0703143Y0555598D01*
X0698144D02*
Y0556598D01*
X0699144D01*
Y0555598D01*
X0698144D01*
X0702143Y0549600D02*
Y0550600D01*
X0703143D01*
Y0549600D01*
X0702143D01*
X0714139D02*
X0712140D01*
X0711140Y0550600D01*
Y0552599D01*
X0712140Y0553599D01*
X0714139D01*
X0715139Y0552599D01*
Y0551599D01*
X0711140D01*
X0717138Y0549600D02*
X0719138D01*
X0718138D01*
Y0555598D01*
X0717138D01*
X0725136Y0549600D02*
X0723136D01*
X0722137Y0550600D01*
Y0552599D01*
X0723136Y0553599D01*
X0725136D01*
X0726135Y0552599D01*
Y0551599D01*
X0722137D01*
X0732133Y0553599D02*
X0729134D01*
X0728135Y0552599D01*
Y0550600D01*
X0729134Y0549600D01*
X0732133D01*
X0735132Y0554598D02*
Y0553599D01*
X0734133D01*
X0736132D01*
X0735132D01*
Y0550600D01*
X0736132Y0549600D01*
X0739131Y0553599D02*
Y0549600D01*
Y0551599D01*
X0740131Y0552599D01*
X0741130Y0553599D01*
X0742130D01*
X0745129Y0549600D02*
X0747128D01*
X0746129D01*
Y0553599D01*
X0745129D01*
X0754126D02*
X0751127D01*
X0750128Y0552599D01*
Y0550600D01*
X0751127Y0549600D01*
X0754126D01*
X0757125Y0553599D02*
X0759125D01*
X0760124Y0552599D01*
Y0549600D01*
X0757125D01*
X0756126Y0550600D01*
X0757125Y0551599D01*
X0760124D01*
X0762124Y0549600D02*
X0764123D01*
X0763123D01*
Y0555598D01*
X0762124D01*
X0767122Y0549600D02*
X0769121D01*
X0768122D01*
Y0555598D01*
X0767122D01*
X0772120Y0553599D02*
Y0550600D01*
X0773120Y0549600D01*
X0776119D01*
Y0548600D01*
X0775119Y0547601D01*
X0774120D01*
X0776119Y0549600D02*
Y0553599D01*
X0785116Y0554598D02*
Y0553599D01*
X0784117D01*
X0786116D01*
X0785116D01*
Y0550600D01*
X0786116Y0549600D01*
X0792114D02*
X0790115D01*
X0789115Y0550600D01*
Y0552599D01*
X0790115Y0553599D01*
X0792114D01*
X0793114Y0552599D01*
Y0551599D01*
X0789115D01*
X0795113Y0549600D02*
X0798112D01*
X0799112Y0550600D01*
X0798112Y0551599D01*
X0796113D01*
X0795113Y0552599D01*
X0796113Y0553599D01*
X0799112D01*
X0802111Y0554598D02*
Y0553599D01*
X0801111D01*
X0803110D01*
X0802111D01*
Y0550600D01*
X0803110Y0549600D01*
X0809108D02*
X0807109D01*
X0806109Y0550600D01*
Y0552599D01*
X0807109Y0553599D01*
X0809108D01*
X0810108Y0552599D01*
Y0551599D01*
X0806109D01*
X0816106Y0555598D02*
Y0549600D01*
X0813107D01*
X0812107Y0550600D01*
Y0552599D01*
X0813107Y0553599D01*
X0816106D01*
X0530199Y0585598D02*
X0526200D01*
Y0582599D01*
X0528199Y0583599D01*
X0529199D01*
X0530199Y0582599D01*
Y0580600D01*
X0529199Y0579600D01*
X0527200D01*
X0526200Y0580600D01*
X0532198Y0579600D02*
Y0580600D01*
X0533198D01*
Y0579600D01*
X0532198D01*
X0543194D02*
Y0583599D01*
X0545194Y0585598D01*
X0547193Y0583599D01*
Y0579600D01*
Y0582599D01*
X0543194D01*
X0549193Y0579600D02*
X0551192D01*
X0550192D01*
Y0585598D01*
X0549193D01*
X0554191Y0579600D02*
X0556190D01*
X0555191D01*
Y0585598D01*
X0554191D01*
X0565187D02*
Y0579600D01*
Y0582599D01*
X0566187Y0583599D01*
X0568186D01*
X0569186Y0582599D01*
Y0579600D01*
X0572185D02*
X0574185D01*
X0575184Y0580600D01*
Y0582599D01*
X0574185Y0583599D01*
X0572185D01*
X0571185Y0582599D01*
Y0580600D01*
X0572185Y0579600D01*
X0577183D02*
X0579183D01*
X0578183D01*
Y0585598D01*
X0577183D01*
X0585181Y0579600D02*
X0583182D01*
X0582182Y0580600D01*
Y0582599D01*
X0583182Y0583599D01*
X0585181D01*
X0586181Y0582599D01*
Y0581599D01*
X0582182D01*
X0594178Y0579600D02*
X0597177D01*
X0598177Y0580600D01*
X0597177Y0581599D01*
X0595178D01*
X0594178Y0582599D01*
X0595178Y0583599D01*
X0598177D01*
X0600176Y0579600D02*
X0602175D01*
X0601176D01*
Y0583599D01*
X0600176D01*
X0605174D02*
X0609173D01*
X0605174Y0579600D01*
X0609173D01*
X0614172D02*
X0612172D01*
X0611172Y0580600D01*
Y0582599D01*
X0612172Y0583599D01*
X0614172D01*
X0615171Y0582599D01*
Y0581599D01*
X0611172D01*
X0617171Y0579600D02*
X0620170D01*
X0621169Y0580600D01*
X0620170Y0581599D01*
X0618170D01*
X0617171Y0582599D01*
X0618170Y0583599D01*
X0621169D01*
X0630166D02*
X0632166D01*
X0633165Y0582599D01*
Y0579600D01*
X0630166D01*
X0629167Y0580600D01*
X0630166Y0581599D01*
X0633165D01*
X0635165Y0583599D02*
Y0579600D01*
Y0581599D01*
X0636164Y0582599D01*
X0637164Y0583599D01*
X0638164D01*
X0644162Y0579600D02*
X0642163D01*
X0641163Y0580600D01*
Y0582599D01*
X0642163Y0583599D01*
X0644162D01*
X0645161Y0582599D01*
Y0581599D01*
X0641163D01*
X0654159Y0583599D02*
X0656158D01*
X0657158Y0582599D01*
Y0579600D01*
X0654159D01*
X0653159Y0580600D01*
X0654159Y0581599D01*
X0657158D01*
X0660157Y0579600D02*
Y0584598D01*
Y0582599D01*
X0659157D01*
X0661156D01*
X0660157D01*
Y0584598D01*
X0661156Y0585598D01*
X0665155Y0584598D02*
Y0583599D01*
X0664155D01*
X0666155D01*
X0665155D01*
Y0580600D01*
X0666155Y0579600D01*
X0672153D02*
X0670153D01*
X0669154Y0580600D01*
Y0582599D01*
X0670153Y0583599D01*
X0672153D01*
X0673152Y0582599D01*
Y0581599D01*
X0669154D01*
X0675152Y0583599D02*
Y0579600D01*
Y0581599D01*
X0676152Y0582599D01*
X0677151Y0583599D01*
X0678151D01*
X0687148Y0577601D02*
Y0583599D01*
X0690147D01*
X0691147Y0582599D01*
Y0580600D01*
X0690147Y0579600D01*
X0687148D01*
X0693146D02*
X0695145D01*
X0694146D01*
Y0585598D01*
X0693146D01*
X0699144Y0583599D02*
X0701143D01*
X0702143Y0582599D01*
Y0579600D01*
X0699144D01*
X0698144Y0580600D01*
X0699144Y0581599D01*
X0702143D01*
X0705142Y0584598D02*
Y0583599D01*
X0704142D01*
X0706142D01*
X0705142D01*
Y0580600D01*
X0706142Y0579600D01*
X0709141D02*
X0711140D01*
X0710141D01*
Y0583599D01*
X0709141D01*
X0714139Y0579600D02*
Y0583599D01*
X0717138D01*
X0718138Y0582599D01*
Y0579600D01*
X0722137Y0577601D02*
X0723136D01*
X0724136Y0578600D01*
Y0583599D01*
X0721137D01*
X0720137Y0582599D01*
Y0580600D01*
X0721137Y0579600D01*
X0724136D01*
X0530199Y0609600D02*
X0526200D01*
X0530199Y0613599D01*
Y0614598D01*
X0529199Y0615598D01*
X0527200D01*
X0526200Y0614598D01*
X0532198Y0609600D02*
Y0610600D01*
X0533198D01*
Y0609600D01*
X0532198D01*
X0543194D02*
Y0615598D01*
X0545194Y0613599D01*
X0547193Y0615598D01*
Y0609600D01*
X0550192Y0613599D02*
X0552192D01*
X0553191Y0612599D01*
Y0609600D01*
X0550192D01*
X0549193Y0610600D01*
X0550192Y0611599D01*
X0553191D01*
X0556190Y0614598D02*
Y0613599D01*
X0555191D01*
X0557190D01*
X0556190D01*
Y0610600D01*
X0557190Y0609600D01*
X0563188D02*
X0561189D01*
X0560189Y0610600D01*
Y0612599D01*
X0561189Y0613599D01*
X0563188D01*
X0564188Y0612599D01*
Y0611599D01*
X0560189D01*
X0566187Y0613599D02*
Y0609600D01*
Y0611599D01*
X0567187Y0612599D01*
X0568186Y0613599D01*
X0569186D01*
X0572185Y0609600D02*
X0574185D01*
X0573185D01*
Y0613599D01*
X0572185D01*
X0578183D02*
X0580183D01*
X0581182Y0612599D01*
Y0609600D01*
X0578183D01*
X0577183Y0610600D01*
X0578183Y0611599D01*
X0581182D01*
X0583182Y0609600D02*
X0585181D01*
X0584181D01*
Y0615598D01*
X0583182D01*
X0588180Y0613599D02*
X0589180D01*
Y0612599D01*
X0588180D01*
Y0613599D01*
Y0610600D02*
X0589180D01*
Y0609600D01*
X0588180D01*
Y0610600D01*
X0599176Y0609600D02*
Y0615598D01*
X0602175D01*
X0603175Y0614598D01*
Y0612599D01*
X0602175Y0611599D01*
X0599176D01*
X0601176D02*
X0603175Y0609600D01*
X0606174D02*
X0608174D01*
X0609173Y0610600D01*
Y0612599D01*
X0608174Y0613599D01*
X0606174D01*
X0605174Y0612599D01*
Y0610600D01*
X0606174Y0609600D01*
X0611172Y0615598D02*
Y0609600D01*
Y0612599D01*
X0615171D01*
Y0615598D01*
Y0609600D01*
X0621169Y0614598D02*
X0620170Y0615598D01*
X0618170D01*
X0617171Y0614598D01*
Y0613599D01*
X0618170Y0612599D01*
X0620170D01*
X0621169Y0611599D01*
Y0610600D01*
X0620170Y0609600D01*
X0618170D01*
X0617171Y0610600D01*
X0623169Y0612599D02*
X0627167D01*
X0633165Y0613599D02*
X0630166D01*
X0629167Y0612599D01*
Y0610600D01*
X0630166Y0609600D01*
X0633165D01*
X0636164D02*
X0638164D01*
X0639163Y0610600D01*
Y0612599D01*
X0638164Y0613599D01*
X0636164D01*
X0635165Y0612599D01*
Y0610600D01*
X0636164Y0609600D01*
X0641163D02*
Y0613599D01*
X0642163D01*
X0643162Y0612599D01*
Y0609600D01*
Y0612599D01*
X0644162Y0613599D01*
X0645161Y0612599D01*
Y0609600D01*
X0647161Y0607601D02*
Y0613599D01*
X0650160D01*
X0651160Y0612599D01*
Y0610600D01*
X0650160Y0609600D01*
X0647161D01*
X0653159D02*
X0655158D01*
X0654159D01*
Y0615598D01*
X0653159D01*
X0658157Y0609600D02*
X0660157D01*
X0659157D01*
Y0613599D01*
X0658157D01*
X0664155D02*
X0666155D01*
X0667154Y0612599D01*
Y0609600D01*
X0664155D01*
X0663156Y0610600D01*
X0664155Y0611599D01*
X0667154D01*
X0669154Y0609600D02*
Y0613599D01*
X0672153D01*
X0673152Y0612599D01*
Y0609600D01*
X0676152Y0614598D02*
Y0613599D01*
X0675152D01*
X0677151D01*
X0676152D01*
Y0610600D01*
X0677151Y0609600D01*
X0690147Y0615598D02*
X0686148D01*
Y0612599D01*
X0688148D01*
X0686148D01*
Y0609600D01*
X0692146D02*
Y0615598D01*
X0695145D01*
X0696145Y0614598D01*
Y0612599D01*
X0695145Y0611599D01*
X0692146D01*
X0694146D02*
X0696145Y0609600D01*
X0701143D02*
Y0615598D01*
X0698144Y0612599D01*
X0702143D01*
X0705142Y0608600D02*
X0706142Y0609600D01*
Y0610600D01*
X0705142D01*
Y0609600D01*
X0706142D01*
X0705142Y0608600D01*
X0704142Y0607601D01*
X0716139Y0609600D02*
X0718138D01*
X0717138D01*
Y0615598D01*
X0716139Y0614598D01*
X0728135Y0609600D02*
X0730134D01*
X0731134Y0610600D01*
Y0612599D01*
X0730134Y0613599D01*
X0728135D01*
X0727135Y0612599D01*
Y0610600D01*
X0728135Y0609600D01*
X0733133Y0613599D02*
X0737132D01*
X0733133Y0609600D01*
X0737132D01*
X0749128Y0613599D02*
X0746129D01*
X0745129Y0612599D01*
Y0610600D01*
X0746129Y0609600D01*
X0749128D01*
X0752127D02*
X0754126D01*
X0755126Y0610600D01*
Y0612599D01*
X0754126Y0613599D01*
X0752127D01*
X0751127Y0612599D01*
Y0610600D01*
X0752127Y0609600D01*
X0757125Y0607601D02*
Y0613599D01*
X0760124D01*
X0761124Y0612599D01*
Y0610600D01*
X0760124Y0609600D01*
X0757125D01*
X0763123Y0607601D02*
Y0613599D01*
X0766122D01*
X0767122Y0612599D01*
Y0610600D01*
X0766122Y0609600D01*
X0763123D01*
X0772120D02*
X0770121D01*
X0769121Y0610600D01*
Y0612599D01*
X0770121Y0613599D01*
X0772120D01*
X0773120Y0612599D01*
Y0611599D01*
X0769121D01*
X0775119Y0613599D02*
Y0609600D01*
Y0611599D01*
X0776119Y0612599D01*
X0777119Y0613599D01*
X0778119D01*
X0788115Y0609600D02*
X0790115D01*
X0791114Y0610600D01*
Y0612599D01*
X0790115Y0613599D01*
X0788115D01*
X0787116Y0612599D01*
Y0610600D01*
X0788115Y0609600D01*
X0793114D02*
Y0613599D01*
X0796113D01*
X0797112Y0612599D01*
Y0609600D01*
X0806109Y0613599D02*
X0808109D01*
X0809109Y0612599D01*
Y0609600D01*
X0806109D01*
X0805110Y0610600D01*
X0806109Y0611599D01*
X0809109D01*
X0811108Y0609600D02*
X0813107D01*
X0812107D01*
Y0615598D01*
X0811108D01*
X0816106Y0609600D02*
X0818106D01*
X0817106D01*
Y0615598D01*
X0816106D01*
X0827103Y0609600D02*
X0829102D01*
X0828102D01*
Y0615598D01*
X0827103D01*
X0833101Y0613599D02*
X0835100D01*
X0836100Y0612599D01*
Y0609600D01*
X0833101D01*
X0832101Y0610600D01*
X0833101Y0611599D01*
X0836100D01*
X0838099Y0613599D02*
Y0610600D01*
X0839099Y0609600D01*
X0842098D01*
Y0608600D01*
X0841098Y0607601D01*
X0840098D01*
X0842098Y0609600D02*
Y0613599D01*
X0847096Y0609600D02*
X0845097D01*
X0844097Y0610600D01*
Y0612599D01*
X0845097Y0613599D01*
X0847096D01*
X0848096Y0612599D01*
Y0611599D01*
X0844097D01*
X0850095Y0613599D02*
Y0609600D01*
Y0611599D01*
X0851095Y0612599D01*
X0852094Y0613599D01*
X0853094D01*
X0856093Y0609600D02*
X0859092D01*
X0860092Y0610600D01*
X0859092Y0611599D01*
X0857093D01*
X0856093Y0612599D01*
X0857093Y0613599D01*
X0860092D01*
X0533509Y0535498D02*
Y0529500D01*
X0537507D01*
X0540507Y0533499D02*
X0542506D01*
X0543505Y0532499D01*
Y0529500D01*
X0540507D01*
X0539507Y0530500D01*
X0540507Y0531499D01*
X0543505D01*
X0545505Y0533499D02*
Y0530500D01*
X0546504Y0529500D01*
X0549504D01*
Y0528500D01*
X0548504Y0527501D01*
X0547504D01*
X0549504Y0529500D02*
Y0533499D01*
X0554502Y0529500D02*
X0552503D01*
X0551503Y0530500D01*
Y0532499D01*
X0552503Y0533499D01*
X0554502D01*
X0555502Y0532499D01*
Y0531499D01*
X0551503D01*
X0557501Y0533499D02*
Y0529500D01*
Y0531499D01*
X0558501Y0532499D01*
X0559500Y0533499D01*
X0560500D01*
X0536508Y0421500D02*
Y0427498D01*
X0533509Y0424499D01*
X0537507D01*
X0533509Y0450498D02*
X0534508Y0451498D01*
X0536508D01*
X0537507Y0450498D01*
Y0449499D01*
X0536508Y0448499D01*
X0535508D01*
X0536508D01*
X0537507Y0447499D01*
Y0446500D01*
X0536508Y0445500D01*
X0534508D01*
X0533509Y0446500D01*
X0537507Y0469500D02*
X0533509D01*
X0537507Y0473499D01*
Y0474498D01*
X0536508Y0475498D01*
X0534508D01*
X0533509Y0474498D01*
Y0493500D02*
X0535508D01*
X0534508D01*
Y0499498D01*
X0533509Y0498498D01*
X0574500Y0529500D02*
Y0535498D01*
X0578499Y0529500D01*
Y0535498D01*
X0581498Y0533499D02*
X0583497D01*
X0584497Y0532499D01*
Y0529500D01*
X0581498D01*
X0580498Y0530500D01*
X0581498Y0531499D01*
X0584497D01*
X0586496Y0529500D02*
Y0533499D01*
X0587496D01*
X0588495Y0532499D01*
Y0529500D01*
Y0532499D01*
X0589495Y0533499D01*
X0590495Y0532499D01*
Y0529500D01*
X0595493D02*
X0593494D01*
X0592494Y0530500D01*
Y0532499D01*
X0593494Y0533499D01*
X0595493D01*
X0596493Y0532499D01*
Y0531499D01*
X0592494D01*
X0574500Y0403498D02*
Y0397500D01*
X0577499D01*
X0578499Y0398500D01*
Y0399499D01*
X0577499Y0400499D01*
X0574500D01*
X0577499D01*
X0578499Y0401499D01*
Y0402498D01*
X0577499Y0403498D01*
X0574500D01*
X0581498Y0397500D02*
X0583497D01*
X0584497Y0398500D01*
Y0400499D01*
X0583497Y0401499D01*
X0581498D01*
X0580498Y0400499D01*
Y0398500D01*
X0581498Y0397500D01*
X0587496Y0402498D02*
Y0401499D01*
X0586496D01*
X0588495D01*
X0587496D01*
Y0398500D01*
X0588495Y0397500D01*
X0592494Y0402498D02*
Y0401499D01*
X0591495D01*
X0593494D01*
X0592494D01*
Y0398500D01*
X0593494Y0397500D01*
X0597493D02*
X0599492D01*
X0600492Y0398500D01*
Y0400499D01*
X0599492Y0401499D01*
X0597493D01*
X0596493Y0400499D01*
Y0398500D01*
X0597493Y0397500D01*
X0602491D02*
Y0401499D01*
X0603491D01*
X0604490Y0400499D01*
Y0397500D01*
Y0400499D01*
X0605490Y0401499D01*
X0606490Y0400499D01*
Y0397500D01*
X0617486Y0403498D02*
X0615487D01*
X0614487Y0402498D01*
Y0398500D01*
X0615487Y0397500D01*
X0617486D01*
X0618486Y0398500D01*
Y0402498D01*
X0617486Y0403498D01*
X0620485Y0401499D02*
X0622484Y0397500D01*
X0624484Y0401499D01*
X0629482Y0397500D02*
X0627483D01*
X0626483Y0398500D01*
Y0400499D01*
X0627483Y0401499D01*
X0629482D01*
X0630482Y0400499D01*
Y0399499D01*
X0626483D01*
X0632481Y0401499D02*
Y0397500D01*
Y0399499D01*
X0633481Y0400499D01*
X0634481Y0401499D01*
X0635480D01*
X0638479Y0397500D02*
X0640479D01*
X0639479D01*
Y0403498D01*
X0638479D01*
X0644477Y0401499D02*
X0646477D01*
X0647476Y0400499D01*
Y0397500D01*
X0644477D01*
X0643478Y0398500D01*
X0644477Y0399499D01*
X0647476D01*
X0649476Y0401499D02*
Y0398500D01*
X0650475Y0397500D01*
X0653474D01*
Y0396500D01*
X0652475Y0395501D01*
X0651475D01*
X0653474Y0397500D02*
Y0401499D01*
X0574500Y0415498D02*
Y0409500D01*
X0577499D01*
X0578499Y0410500D01*
Y0411499D01*
X0577499Y0412499D01*
X0574500D01*
X0577499D01*
X0578499Y0413499D01*
Y0414498D01*
X0577499Y0415498D01*
X0574500D01*
X0581498Y0409500D02*
X0583497D01*
X0584497Y0410500D01*
Y0412499D01*
X0583497Y0413499D01*
X0581498D01*
X0580498Y0412499D01*
Y0410500D01*
X0581498Y0409500D01*
X0587496Y0414498D02*
Y0413499D01*
X0586496D01*
X0588495D01*
X0587496D01*
Y0410500D01*
X0588495Y0409500D01*
X0592494Y0414498D02*
Y0413499D01*
X0591495D01*
X0593494D01*
X0592494D01*
Y0410500D01*
X0593494Y0409500D01*
X0597493D02*
X0599492D01*
X0600492Y0410500D01*
Y0412499D01*
X0599492Y0413499D01*
X0597493D01*
X0596493Y0412499D01*
Y0410500D01*
X0597493Y0409500D01*
X0602491D02*
Y0413499D01*
X0603491D01*
X0604490Y0412499D01*
Y0409500D01*
Y0412499D01*
X0605490Y0413499D01*
X0606490Y0412499D01*
Y0409500D01*
X0618486Y0414498D02*
X0617486Y0415498D01*
X0615487D01*
X0614487Y0414498D01*
Y0413499D01*
X0615487Y0412499D01*
X0617486D01*
X0618486Y0411499D01*
Y0410500D01*
X0617486Y0409500D01*
X0615487D01*
X0614487Y0410500D01*
X0621485Y0409500D02*
X0623484D01*
X0624484Y0410500D01*
Y0412499D01*
X0623484Y0413499D01*
X0621485D01*
X0620485Y0412499D01*
Y0410500D01*
X0621485Y0409500D01*
X0626483D02*
X0628482D01*
X0627483D01*
Y0415498D01*
X0626483D01*
X0635480D02*
Y0409500D01*
X0632481D01*
X0631482Y0410500D01*
Y0412499D01*
X0632481Y0413499D01*
X0635480D01*
X0640479Y0409500D02*
X0638479D01*
X0637480Y0410500D01*
Y0412499D01*
X0638479Y0413499D01*
X0640479D01*
X0641478Y0412499D01*
Y0411499D01*
X0637480D01*
X0643478Y0413499D02*
Y0409500D01*
Y0411499D01*
X0644477Y0412499D01*
X0645477Y0413499D01*
X0646477D01*
X0574500Y0427498D02*
Y0421500D01*
X0577499D01*
X0578499Y0422500D01*
Y0423499D01*
X0577499Y0424499D01*
X0574500D01*
X0577499D01*
X0578499Y0425499D01*
Y0426498D01*
X0577499Y0427498D01*
X0574500D01*
X0581498Y0421500D02*
X0583497D01*
X0584497Y0422500D01*
Y0424499D01*
X0583497Y0425499D01*
X0581498D01*
X0580498Y0424499D01*
Y0422500D01*
X0581498Y0421500D01*
X0587496Y0426498D02*
Y0425499D01*
X0586496D01*
X0588495D01*
X0587496D01*
Y0422500D01*
X0588495Y0421500D01*
X0592494Y0426498D02*
Y0425499D01*
X0591495D01*
X0593494D01*
X0592494D01*
Y0422500D01*
X0593494Y0421500D01*
X0597493D02*
X0599492D01*
X0600492Y0422500D01*
Y0424499D01*
X0599492Y0425499D01*
X0597493D01*
X0596493Y0424499D01*
Y0422500D01*
X0597493Y0421500D01*
X0602491D02*
Y0425499D01*
X0603491D01*
X0604490Y0424499D01*
Y0421500D01*
Y0424499D01*
X0605490Y0425499D01*
X0606490Y0424499D01*
Y0421500D01*
X0614487Y0427498D02*
Y0421500D01*
X0618486D01*
X0621485Y0425499D02*
X0623484D01*
X0624484Y0424499D01*
Y0421500D01*
X0621485D01*
X0620485Y0422500D01*
X0621485Y0423499D01*
X0624484D01*
X0626483Y0425499D02*
Y0422500D01*
X0627483Y0421500D01*
X0630482D01*
Y0420500D01*
X0629482Y0419501D01*
X0628482D01*
X0630482Y0421500D02*
Y0425499D01*
X0635480Y0421500D02*
X0633481D01*
X0632481Y0422500D01*
Y0424499D01*
X0633481Y0425499D01*
X0635480D01*
X0636480Y0424499D01*
Y0423499D01*
X0632481D01*
X0638479Y0425499D02*
Y0421500D01*
Y0423499D01*
X0639479Y0424499D01*
X0640479Y0425499D01*
X0641478D01*
X0574500Y0439498D02*
Y0433500D01*
X0577499D01*
X0578499Y0434500D01*
Y0438498D01*
X0577499Y0439498D01*
X0574500D01*
X0580498Y0433500D02*
X0582497D01*
X0581498D01*
Y0437499D01*
X0580498D01*
X0588495Y0433500D02*
X0586496D01*
X0585496Y0434500D01*
Y0436499D01*
X0586496Y0437499D01*
X0588495D01*
X0589495Y0436499D01*
Y0435499D01*
X0585496D01*
X0591495Y0433500D02*
X0593494D01*
X0592494D01*
Y0439498D01*
X0591495D01*
X0599492Y0433500D02*
X0597493D01*
X0596493Y0434500D01*
Y0436499D01*
X0597493Y0437499D01*
X0599492D01*
X0600492Y0436499D01*
Y0435499D01*
X0596493D01*
X0606490Y0437499D02*
X0603491D01*
X0602491Y0436499D01*
Y0434500D01*
X0603491Y0433500D01*
X0606490D01*
X0609489Y0438498D02*
Y0437499D01*
X0608489D01*
X0610488D01*
X0609489D01*
Y0434500D01*
X0610488Y0433500D01*
X0613487Y0437499D02*
Y0433500D01*
Y0435499D01*
X0614487Y0436499D01*
X0615487Y0437499D01*
X0616486D01*
X0619485Y0433500D02*
X0621485D01*
X0620485D01*
Y0437499D01*
X0619485D01*
X0628482D02*
X0625484D01*
X0624484Y0436499D01*
Y0434500D01*
X0625484Y0433500D01*
X0628482D01*
X0634481D02*
X0630482D01*
X0634481Y0437499D01*
Y0438498D01*
X0633481Y0439498D01*
X0631482D01*
X0630482Y0438498D01*
X0574500Y0445500D02*
Y0451498D01*
X0577499D01*
X0578499Y0450498D01*
Y0448499D01*
X0577499Y0447499D01*
X0574500D01*
X0581498Y0445500D02*
X0583497D01*
X0584497Y0446500D01*
Y0448499D01*
X0583497Y0449499D01*
X0581498D01*
X0580498Y0448499D01*
Y0446500D01*
X0581498Y0445500D01*
X0586496Y0449499D02*
Y0446500D01*
X0587496Y0445500D01*
X0588495Y0446500D01*
X0589495Y0445500D01*
X0590495Y0446500D01*
Y0449499D01*
X0595493Y0445500D02*
X0593494D01*
X0592494Y0446500D01*
Y0448499D01*
X0593494Y0449499D01*
X0595493D01*
X0596493Y0448499D01*
Y0447499D01*
X0592494D01*
X0598492Y0449499D02*
Y0445500D01*
Y0447499D01*
X0599492Y0448499D01*
X0600492Y0449499D01*
X0601491D01*
X0574500Y0463498D02*
Y0457500D01*
X0577499D01*
X0578499Y0458500D01*
Y0462498D01*
X0577499Y0463498D01*
X0574500D01*
X0580498Y0457500D02*
X0582497D01*
X0581498D01*
Y0461499D01*
X0580498D01*
X0588495Y0457500D02*
X0586496D01*
X0585496Y0458500D01*
Y0460499D01*
X0586496Y0461499D01*
X0588495D01*
X0589495Y0460499D01*
Y0459499D01*
X0585496D01*
X0591495Y0457500D02*
X0593494D01*
X0592494D01*
Y0463498D01*
X0591495D01*
X0599492Y0457500D02*
X0597493D01*
X0596493Y0458500D01*
Y0460499D01*
X0597493Y0461499D01*
X0599492D01*
X0600492Y0460499D01*
Y0459499D01*
X0596493D01*
X0606490Y0461499D02*
X0603491D01*
X0602491Y0460499D01*
Y0458500D01*
X0603491Y0457500D01*
X0606490D01*
X0609489Y0462498D02*
Y0461499D01*
X0608489D01*
X0610488D01*
X0609489D01*
Y0458500D01*
X0610488Y0457500D01*
X0613487Y0461499D02*
Y0457500D01*
Y0459499D01*
X0614487Y0460499D01*
X0615487Y0461499D01*
X0616486D01*
X0619485Y0457500D02*
X0621485D01*
X0620485D01*
Y0461499D01*
X0619485D01*
X0628482D02*
X0625484D01*
X0624484Y0460499D01*
Y0458500D01*
X0625484Y0457500D01*
X0628482D01*
X0630482Y0462498D02*
X0631482Y0463498D01*
X0633481D01*
X0634481Y0462498D01*
Y0461499D01*
X0633481Y0460499D01*
X0632481D01*
X0633481D01*
X0634481Y0459499D01*
Y0458500D01*
X0633481Y0457500D01*
X0631482D01*
X0630482Y0458500D01*
X0578499Y0474498D02*
X0577499Y0475498D01*
X0575500D01*
X0574500Y0474498D01*
Y0470500D01*
X0575500Y0469500D01*
X0577499D01*
X0578499Y0470500D01*
Y0472499D01*
X0576499D01*
X0580498Y0473499D02*
Y0469500D01*
Y0471499D01*
X0581498Y0472499D01*
X0582497Y0473499D01*
X0583497D01*
X0587496Y0469500D02*
X0589495D01*
X0590495Y0470500D01*
Y0472499D01*
X0589495Y0473499D01*
X0587496D01*
X0586496Y0472499D01*
Y0470500D01*
X0587496Y0469500D01*
X0592494Y0473499D02*
Y0470500D01*
X0593494Y0469500D01*
X0596493D01*
Y0473499D01*
X0598492Y0469500D02*
Y0473499D01*
X0601491D01*
X0602491Y0472499D01*
Y0469500D01*
X0608489Y0475498D02*
Y0469500D01*
X0605490D01*
X0604490Y0470500D01*
Y0472499D01*
X0605490Y0473499D01*
X0608489D01*
X0574500Y0487498D02*
Y0481500D01*
X0577499D01*
X0578499Y0482500D01*
Y0486498D01*
X0577499Y0487498D01*
X0574500D01*
X0580498Y0481500D02*
X0582497D01*
X0581498D01*
Y0485499D01*
X0580498D01*
X0588495Y0481500D02*
X0586496D01*
X0585496Y0482500D01*
Y0484499D01*
X0586496Y0485499D01*
X0588495D01*
X0589495Y0484499D01*
Y0483499D01*
X0585496D01*
X0591495Y0481500D02*
X0593494D01*
X0592494D01*
Y0487498D01*
X0591495D01*
X0599492Y0481500D02*
X0597493D01*
X0596493Y0482500D01*
Y0484499D01*
X0597493Y0485499D01*
X0599492D01*
X0600492Y0484499D01*
Y0483499D01*
X0596493D01*
X0606490Y0485499D02*
X0603491D01*
X0602491Y0484499D01*
Y0482500D01*
X0603491Y0481500D01*
X0606490D01*
X0609489Y0486498D02*
Y0485499D01*
X0608489D01*
X0610488D01*
X0609489D01*
Y0482500D01*
X0610488Y0481500D01*
X0613487Y0485499D02*
Y0481500D01*
Y0483499D01*
X0614487Y0484499D01*
X0615487Y0485499D01*
X0616486D01*
X0619485Y0481500D02*
X0621485D01*
X0620485D01*
Y0485499D01*
X0619485D01*
X0628482D02*
X0625484D01*
X0624484Y0484499D01*
Y0482500D01*
X0625484Y0481500D01*
X0628482D01*
X0630482D02*
X0632481D01*
X0631482D01*
Y0487498D01*
X0630482Y0486498D01*
X0574500Y0499498D02*
X0578499D01*
X0576499D01*
Y0493500D01*
X0581498D02*
X0583497D01*
X0584497Y0494500D01*
Y0496499D01*
X0583497Y0497499D01*
X0581498D01*
X0580498Y0496499D01*
Y0494500D01*
X0581498Y0493500D01*
X0586496Y0491501D02*
Y0497499D01*
X0589495D01*
X0590495Y0496499D01*
Y0494500D01*
X0589495Y0493500D01*
X0586496D01*
X0598492Y0499498D02*
Y0493500D01*
X0602491D01*
X0605490Y0497499D02*
X0607489D01*
X0608489Y0496499D01*
Y0493500D01*
X0605490D01*
X0604490Y0494500D01*
X0605490Y0495499D01*
X0608489D01*
X0610488Y0497499D02*
Y0494500D01*
X0611488Y0493500D01*
X0614487D01*
Y0492500D01*
X0613487Y0491501D01*
X0612488D01*
X0614487Y0493500D02*
Y0497499D01*
X0619486Y0493500D02*
X0617486D01*
X0616486Y0494500D01*
Y0496499D01*
X0617486Y0497499D01*
X0619486D01*
X0620485Y0496499D01*
Y0495499D01*
X0616486D01*
X0622484Y0497499D02*
Y0493500D01*
Y0495499D01*
X0623484Y0496499D01*
X0624484Y0497499D01*
X0625484D01*
X0574500Y0511498D02*
X0578499D01*
X0576499D01*
Y0505500D01*
X0581498D02*
X0583497D01*
X0584497Y0506500D01*
Y0508499D01*
X0583497Y0509499D01*
X0581498D01*
X0580498Y0508499D01*
Y0506500D01*
X0581498Y0505500D01*
X0586496Y0503501D02*
Y0509499D01*
X0589495D01*
X0590495Y0508499D01*
Y0506500D01*
X0589495Y0505500D01*
X0586496D01*
X0602491Y0510498D02*
X0601491Y0511498D01*
X0599492D01*
X0598492Y0510498D01*
Y0509499D01*
X0599492Y0508499D01*
X0601491D01*
X0602491Y0507499D01*
Y0506500D01*
X0601491Y0505500D01*
X0599492D01*
X0598492Y0506500D01*
X0605490Y0505500D02*
X0607489D01*
X0608489Y0506500D01*
Y0508499D01*
X0607489Y0509499D01*
X0605490D01*
X0604490Y0508499D01*
Y0506500D01*
X0605490Y0505500D01*
X0610488D02*
X0612488D01*
X0611488D01*
Y0511498D01*
X0610488D01*
X0619486D02*
Y0505500D01*
X0616486D01*
X0615487Y0506500D01*
Y0508499D01*
X0616486Y0509499D01*
X0619486D01*
X0624484Y0505500D02*
X0622484D01*
X0621485Y0506500D01*
Y0508499D01*
X0622484Y0509499D01*
X0624484D01*
X0625484Y0508499D01*
Y0507499D01*
X0621485D01*
X0627483Y0509499D02*
Y0505500D01*
Y0507499D01*
X0628482Y0508499D01*
X0629482Y0509499D01*
X0630482D01*
X0574500Y0523498D02*
X0578499D01*
X0576499D01*
Y0517500D01*
X0581498D02*
X0583497D01*
X0584497Y0518500D01*
Y0520499D01*
X0583497Y0521499D01*
X0581498D01*
X0580498Y0520499D01*
Y0518500D01*
X0581498Y0517500D01*
X0586496Y0515501D02*
Y0521499D01*
X0589495D01*
X0590495Y0520499D01*
Y0518500D01*
X0589495Y0517500D01*
X0586496D01*
X0601491Y0523498D02*
X0599492D01*
X0598492Y0522498D01*
Y0518500D01*
X0599492Y0517500D01*
X0601491D01*
X0602491Y0518500D01*
Y0522498D01*
X0601491Y0523498D01*
X0604490Y0521499D02*
X0606490Y0517500D01*
X0608489Y0521499D01*
X0613487Y0517500D02*
X0611488D01*
X0610488Y0518500D01*
Y0520499D01*
X0611488Y0521499D01*
X0613487D01*
X0614487Y0520499D01*
Y0519499D01*
X0610488D01*
X0616486Y0521499D02*
Y0517500D01*
Y0519499D01*
X0617486Y0520499D01*
X0618486Y0521499D01*
X0619486D01*
X0622484Y0517500D02*
X0624484D01*
X0623484D01*
Y0523498D01*
X0622484D01*
X0628482Y0521499D02*
X0630482D01*
X0631482Y0520499D01*
Y0517500D01*
X0628482D01*
X0627483Y0518500D01*
X0628482Y0519499D01*
X0631482D01*
X0633481Y0521499D02*
Y0518500D01*
X0634481Y0517500D01*
X0637480D01*
Y0516500D01*
X0636480Y0515501D01*
X0635480D01*
X0637480Y0517500D02*
Y0521499D01*
X0667474Y0529500D02*
Y0535498D01*
X0669474Y0533499D01*
X0671473Y0535498D01*
Y0529500D01*
X0674472Y0533499D02*
X0676472D01*
X0677471Y0532499D01*
Y0529500D01*
X0674472D01*
X0673472Y0530500D01*
X0674472Y0531499D01*
X0677471D01*
X0680470Y0534498D02*
Y0533499D01*
X0679471D01*
X0681470D01*
X0680470D01*
Y0530500D01*
X0681470Y0529500D01*
X0687468D02*
X0685469D01*
X0684469Y0530500D01*
Y0532499D01*
X0685469Y0533499D01*
X0687468D01*
X0688468Y0532499D01*
Y0531499D01*
X0684469D01*
X0690467Y0533499D02*
Y0529500D01*
Y0531499D01*
X0691467Y0532499D01*
X0692466Y0533499D01*
X0693466D01*
X0696465Y0529500D02*
X0698464D01*
X0697465D01*
Y0533499D01*
X0696465D01*
X0702463D02*
X0704462D01*
X0705462Y0532499D01*
Y0529500D01*
X0702463D01*
X0701464Y0530500D01*
X0702463Y0531499D01*
X0705462D01*
X0707462Y0529500D02*
X0709461D01*
X0708461D01*
Y0535498D01*
X0707462D01*
X0671473Y0414498D02*
X0670473Y0415498D01*
X0668474D01*
X0667474Y0414498D01*
Y0413499D01*
X0668474Y0412499D01*
X0670473D01*
X0671473Y0411499D01*
Y0410500D01*
X0670473Y0409500D01*
X0668474D01*
X0667474Y0410500D01*
X0674472Y0409500D02*
X0676472D01*
X0677471Y0410500D01*
Y0412499D01*
X0676472Y0413499D01*
X0674472D01*
X0673472Y0412499D01*
Y0410500D01*
X0674472Y0409500D01*
X0679471D02*
X0681470D01*
X0680470D01*
Y0415498D01*
X0679471D01*
X0688468D02*
Y0409500D01*
X0685469D01*
X0684469Y0410500D01*
Y0412499D01*
X0685469Y0413499D01*
X0688468D01*
X0693466Y0409500D02*
X0691467D01*
X0690467Y0410500D01*
Y0412499D01*
X0691467Y0413499D01*
X0693466D01*
X0694466Y0412499D01*
Y0411499D01*
X0690467D01*
X0696465Y0413499D02*
Y0409500D01*
Y0411499D01*
X0697465Y0412499D01*
X0698464Y0413499D01*
X0699464D01*
X0708461Y0409500D02*
Y0415498D01*
X0711460D01*
X0712460Y0414498D01*
Y0412499D01*
X0711460Y0411499D01*
X0708461D01*
X0710461D02*
X0712460Y0409500D01*
X0717458D02*
X0715459D01*
X0714459Y0410500D01*
Y0412499D01*
X0715459Y0413499D01*
X0717458D01*
X0718458Y0412499D01*
Y0411499D01*
X0714459D01*
X0720457Y0409500D02*
X0723456D01*
X0724456Y0410500D01*
X0723456Y0411499D01*
X0721457D01*
X0720457Y0412499D01*
X0721457Y0413499D01*
X0724456D01*
X0726455Y0409500D02*
X0728455D01*
X0727455D01*
Y0413499D01*
X0726455D01*
X0731454Y0409500D02*
X0734453D01*
X0735453Y0410500D01*
X0734453Y0411499D01*
X0732453D01*
X0731454Y0412499D01*
X0732453Y0413499D01*
X0735453D01*
X0738451Y0414498D02*
Y0413499D01*
X0737452D01*
X0739451D01*
X0738451D01*
Y0410500D01*
X0739451Y0409500D01*
X0671473Y0426498D02*
X0670473Y0427498D01*
X0668474D01*
X0667474Y0426498D01*
Y0422500D01*
X0668474Y0421500D01*
X0670473D01*
X0671473Y0422500D01*
X0674472Y0421500D02*
X0676472D01*
X0677471Y0422500D01*
Y0424499D01*
X0676472Y0425499D01*
X0674472D01*
X0673472Y0424499D01*
Y0422500D01*
X0674472Y0421500D01*
X0679471Y0419501D02*
Y0425499D01*
X0682470D01*
X0683469Y0424499D01*
Y0422500D01*
X0682470Y0421500D01*
X0679471D01*
X0685469Y0419501D02*
Y0425499D01*
X0688468D01*
X0689467Y0424499D01*
Y0422500D01*
X0688468Y0421500D01*
X0685469D01*
X0694466D02*
X0692466D01*
X0691467Y0422500D01*
Y0424499D01*
X0692466Y0425499D01*
X0694466D01*
X0695465Y0424499D01*
Y0423499D01*
X0691467D01*
X0697465Y0425499D02*
Y0421500D01*
Y0423499D01*
X0698464Y0424499D01*
X0699464Y0425499D01*
X0700464D01*
X0671473Y0439498D02*
X0667474D01*
Y0436499D01*
X0669474D01*
X0667474D01*
Y0433500D01*
X0673472D02*
Y0439498D01*
X0676472D01*
X0677471Y0438498D01*
Y0436499D01*
X0676472Y0435499D01*
X0673472D01*
X0675472D02*
X0677471Y0433500D01*
X0679471Y0436499D02*
X0683469D01*
X0688468Y0433500D02*
Y0439498D01*
X0685469Y0436499D01*
X0689467D01*
X0671473Y0450498D02*
X0670473Y0451498D01*
X0668474D01*
X0667474Y0450498D01*
Y0446500D01*
X0668474Y0445500D01*
X0670473D01*
X0671473Y0446500D01*
X0674472Y0445500D02*
X0676472D01*
X0677471Y0446500D01*
Y0448499D01*
X0676472Y0449499D01*
X0674472D01*
X0673472Y0448499D01*
Y0446500D01*
X0674472Y0445500D01*
X0679471Y0443501D02*
Y0449499D01*
X0682470D01*
X0683469Y0448499D01*
Y0446500D01*
X0682470Y0445500D01*
X0679471D01*
X0685469Y0443501D02*
Y0449499D01*
X0688468D01*
X0689467Y0448499D01*
Y0446500D01*
X0688468Y0445500D01*
X0685469D01*
X0694466D02*
X0692466D01*
X0691467Y0446500D01*
Y0448499D01*
X0692466Y0449499D01*
X0694466D01*
X0695465Y0448499D01*
Y0447499D01*
X0691467D01*
X0697465Y0449499D02*
Y0445500D01*
Y0447499D01*
X0698464Y0448499D01*
X0699464Y0449499D01*
X0700464D01*
X0671473Y0463498D02*
X0667474D01*
Y0460499D01*
X0669474D01*
X0667474D01*
Y0457500D01*
X0673472D02*
Y0463498D01*
X0676472D01*
X0677471Y0462498D01*
Y0460499D01*
X0676472Y0459499D01*
X0673472D01*
X0675472D02*
X0677471Y0457500D01*
X0679471Y0460499D02*
X0683469D01*
X0688468Y0457500D02*
Y0463498D01*
X0685469Y0460499D01*
X0689467D01*
X0671473Y0474498D02*
X0670473Y0475498D01*
X0668474D01*
X0667474Y0474498D01*
Y0470500D01*
X0668474Y0469500D01*
X0670473D01*
X0671473Y0470500D01*
X0674472Y0469500D02*
X0676472D01*
X0677471Y0470500D01*
Y0472499D01*
X0676472Y0473499D01*
X0674472D01*
X0673472Y0472499D01*
Y0470500D01*
X0674472Y0469500D01*
X0679471Y0467501D02*
Y0473499D01*
X0682470D01*
X0683469Y0472499D01*
Y0470500D01*
X0682470Y0469500D01*
X0679471D01*
X0685469Y0467501D02*
Y0473499D01*
X0688468D01*
X0689467Y0472499D01*
Y0470500D01*
X0688468Y0469500D01*
X0685469D01*
X0694466D02*
X0692466D01*
X0691467Y0470500D01*
Y0472499D01*
X0692466Y0473499D01*
X0694466D01*
X0695465Y0472499D01*
Y0471499D01*
X0691467D01*
X0697465Y0473499D02*
Y0469500D01*
Y0471499D01*
X0698464Y0472499D01*
X0699464Y0473499D01*
X0700464D01*
X0671473Y0487498D02*
X0667474D01*
Y0484499D01*
X0669474D01*
X0667474D01*
Y0481500D01*
X0673472D02*
Y0487498D01*
X0676472D01*
X0677471Y0486498D01*
Y0484499D01*
X0676472Y0483499D01*
X0673472D01*
X0675472D02*
X0677471Y0481500D01*
X0679471Y0484499D02*
X0683469D01*
X0688468Y0481500D02*
Y0487498D01*
X0685469Y0484499D01*
X0689467D01*
X0671473Y0498498D02*
X0670473Y0499498D01*
X0668474D01*
X0667474Y0498498D01*
Y0494500D01*
X0668474Y0493500D01*
X0670473D01*
X0671473Y0494500D01*
X0674472Y0493500D02*
X0676472D01*
X0677471Y0494500D01*
Y0496499D01*
X0676472Y0497499D01*
X0674472D01*
X0673472Y0496499D01*
Y0494500D01*
X0674472Y0493500D01*
X0679471Y0491501D02*
Y0497499D01*
X0682470D01*
X0683469Y0496499D01*
Y0494500D01*
X0682470Y0493500D01*
X0679471D01*
X0685469Y0491501D02*
Y0497499D01*
X0688468D01*
X0689467Y0496499D01*
Y0494500D01*
X0688468Y0493500D01*
X0685469D01*
X0694466D02*
X0692466D01*
X0691467Y0494500D01*
Y0496499D01*
X0692466Y0497499D01*
X0694466D01*
X0695465Y0496499D01*
Y0495499D01*
X0691467D01*
X0697465Y0497499D02*
Y0493500D01*
Y0495499D01*
X0698464Y0496499D01*
X0699464Y0497499D01*
X0700464D01*
X0671473Y0510498D02*
X0670473Y0511498D01*
X0668474D01*
X0667474Y0510498D01*
Y0509499D01*
X0668474Y0508499D01*
X0670473D01*
X0671473Y0507499D01*
Y0506500D01*
X0670473Y0505500D01*
X0668474D01*
X0667474Y0506500D01*
X0674472Y0505500D02*
X0676472D01*
X0677471Y0506500D01*
Y0508499D01*
X0676472Y0509499D01*
X0674472D01*
X0673472Y0508499D01*
Y0506500D01*
X0674472Y0505500D01*
X0679471D02*
X0681470D01*
X0680470D01*
Y0511498D01*
X0679471D01*
X0688468D02*
Y0505500D01*
X0685469D01*
X0684469Y0506500D01*
Y0508499D01*
X0685469Y0509499D01*
X0688468D01*
X0693466Y0505500D02*
X0691467D01*
X0690467Y0506500D01*
Y0508499D01*
X0691467Y0509499D01*
X0693466D01*
X0694466Y0508499D01*
Y0507499D01*
X0690467D01*
X0696465Y0509499D02*
Y0505500D01*
Y0507499D01*
X0697465Y0508499D01*
X0698464Y0509499D01*
X0699464D01*
X0708461Y0505500D02*
Y0511498D01*
X0711460D01*
X0712460Y0510498D01*
Y0508499D01*
X0711460Y0507499D01*
X0708461D01*
X0710461D02*
X0712460Y0505500D01*
X0717458D02*
X0715459D01*
X0714459Y0506500D01*
Y0508499D01*
X0715459Y0509499D01*
X0717458D01*
X0718458Y0508499D01*
Y0507499D01*
X0714459D01*
X0720457Y0505500D02*
X0723456D01*
X0724456Y0506500D01*
X0723456Y0507499D01*
X0721457D01*
X0720457Y0508499D01*
X0721457Y0509499D01*
X0724456D01*
X0726455Y0505500D02*
X0728455D01*
X0727455D01*
Y0509499D01*
X0726455D01*
X0731454Y0505500D02*
X0734453D01*
X0735453Y0506500D01*
X0734453Y0507499D01*
X0732453D01*
X0731454Y0508499D01*
X0732453Y0509499D01*
X0735453D01*
X0738451Y0510498D02*
Y0509499D01*
X0737452D01*
X0739451D01*
X0738451D01*
Y0506500D01*
X0739451Y0505500D01*
X0753451Y0535498D02*
X0757450D01*
X0755450D01*
Y0529500D01*
X0759449Y0535498D02*
Y0529500D01*
Y0532499D01*
X0760449Y0533499D01*
X0762448D01*
X0763448Y0532499D01*
Y0529500D01*
X0765447D02*
X0767447D01*
X0766447D01*
Y0533499D01*
X0765447D01*
X0774444D02*
X0771445D01*
X0770446Y0532499D01*
Y0530500D01*
X0771445Y0529500D01*
X0774444D01*
X0776444D02*
Y0535498D01*
Y0531499D02*
X0779443Y0533499D01*
X0776444Y0531499D02*
X0779443Y0529500D01*
X0782442D02*
Y0533499D01*
X0785441D01*
X0786441Y0532499D01*
Y0529500D01*
X0791439D02*
X0789439D01*
X0788440Y0530500D01*
Y0532499D01*
X0789439Y0533499D01*
X0791439D01*
X0792439Y0532499D01*
Y0531499D01*
X0788440D01*
X0794438Y0529500D02*
X0797437D01*
X0798437Y0530500D01*
X0797437Y0531499D01*
X0795438D01*
X0794438Y0532499D01*
X0795438Y0533499D01*
X0798437D01*
X0800436Y0529500D02*
X0803435D01*
X0804435Y0530500D01*
X0803435Y0531499D01*
X0801436D01*
X0800436Y0532499D01*
X0801436Y0533499D01*
X0804435D01*
X0753451Y0414498D02*
X0754451Y0415498D01*
X0756450D01*
X0757450Y0414498D01*
Y0410500D01*
X0756450Y0409500D01*
X0754451D01*
X0753451Y0410500D01*
Y0414498D01*
X0759449Y0409500D02*
Y0410500D01*
X0760449D01*
Y0409500D01*
X0759449D01*
X0767447D02*
Y0415498D01*
X0764448Y0412499D01*
X0768446D01*
X0770446Y0414498D02*
X0771445Y0415498D01*
X0773445D01*
X0774444Y0414498D01*
Y0410500D01*
X0773445Y0409500D01*
X0771445D01*
X0770446Y0410500D01*
Y0414498D01*
X0776444Y0409500D02*
Y0413499D01*
X0777443D01*
X0778443Y0412499D01*
Y0409500D01*
Y0412499D01*
X0779443Y0413499D01*
X0780442Y0412499D01*
Y0409500D01*
X0782442D02*
X0784441D01*
X0783441D01*
Y0413499D01*
X0782442D01*
X0787440Y0409500D02*
X0789439D01*
X0788440D01*
Y0415498D01*
X0787440D01*
X0753451Y0421500D02*
X0755450D01*
X0754451D01*
Y0427498D01*
X0753451Y0426498D01*
X0758450Y0421500D02*
Y0422500D01*
X0759449D01*
Y0421500D01*
X0758450D01*
X0766447D02*
Y0427498D01*
X0763448Y0424499D01*
X0767447D01*
X0769446Y0426498D02*
X0770446Y0427498D01*
X0772445D01*
X0773445Y0426498D01*
Y0422500D01*
X0772445Y0421500D01*
X0770446D01*
X0769446Y0422500D01*
Y0426498D01*
X0775444Y0421500D02*
Y0425499D01*
X0776444D01*
X0777443Y0424499D01*
Y0421500D01*
Y0424499D01*
X0778443Y0425499D01*
X0779443Y0424499D01*
Y0421500D01*
X0781442D02*
X0783441D01*
X0782442D01*
Y0425499D01*
X0781442D01*
X0786441Y0421500D02*
X0788440D01*
X0787440D01*
Y0427498D01*
X0786441D01*
X0753451Y0438498D02*
X0754451Y0439498D01*
X0756450D01*
X0757450Y0438498D01*
Y0437499D01*
X0756450Y0436499D01*
X0757450Y0435499D01*
Y0434500D01*
X0756450Y0433500D01*
X0754451D01*
X0753451Y0434500D01*
Y0435499D01*
X0754451Y0436499D01*
X0753451Y0437499D01*
Y0438498D01*
X0754451Y0436499D02*
X0756450D01*
X0759449Y0433500D02*
Y0434500D01*
X0760449D01*
Y0433500D01*
X0759449D01*
X0764448Y0438498D02*
X0765447Y0439498D01*
X0767447D01*
X0768446Y0438498D01*
Y0434500D01*
X0767447Y0433500D01*
X0765447D01*
X0764448Y0434500D01*
Y0438498D01*
X0770446D02*
X0771445Y0439498D01*
X0773445D01*
X0774444Y0438498D01*
Y0434500D01*
X0773445Y0433500D01*
X0771445D01*
X0770446Y0434500D01*
Y0438498D01*
X0776444Y0433500D02*
Y0437499D01*
X0777443D01*
X0778443Y0436499D01*
Y0433500D01*
Y0436499D01*
X0779443Y0437499D01*
X0780442Y0436499D01*
Y0433500D01*
X0782442D02*
X0784441D01*
X0783441D01*
Y0437499D01*
X0782442D01*
X0787440Y0433500D02*
X0789439D01*
X0788440D01*
Y0439498D01*
X0787440D01*
X0753451Y0445500D02*
X0755450D01*
X0754451D01*
Y0451498D01*
X0753451Y0450498D01*
X0758450Y0445500D02*
Y0446500D01*
X0759449D01*
Y0445500D01*
X0758450D01*
X0766447D02*
Y0451498D01*
X0763448Y0448499D01*
X0767447D01*
X0769446Y0450498D02*
X0770446Y0451498D01*
X0772445D01*
X0773445Y0450498D01*
Y0446500D01*
X0772445Y0445500D01*
X0770446D01*
X0769446Y0446500D01*
Y0450498D01*
X0775444Y0445500D02*
Y0449499D01*
X0776444D01*
X0777443Y0448499D01*
Y0445500D01*
Y0448499D01*
X0778443Y0449499D01*
X0779443Y0448499D01*
Y0445500D01*
X0781442D02*
X0783441D01*
X0782442D01*
Y0449499D01*
X0781442D01*
X0786441Y0445500D02*
X0788440D01*
X0787440D01*
Y0451498D01*
X0786441D01*
X0756450Y0457500D02*
Y0463498D01*
X0753451Y0460499D01*
X0757450D01*
X0759449Y0462498D02*
X0760449Y0463498D01*
X0762448D01*
X0763448Y0462498D01*
Y0458500D01*
X0762448Y0457500D01*
X0760449D01*
X0759449Y0458500D01*
Y0462498D01*
X0765447Y0457500D02*
Y0458500D01*
X0766447D01*
Y0457500D01*
X0765447D01*
X0770446Y0462498D02*
X0771445Y0463498D01*
X0773445D01*
X0774444Y0462498D01*
Y0458500D01*
X0773445Y0457500D01*
X0771445D01*
X0770446Y0458500D01*
Y0462498D01*
X0776444D02*
X0777443Y0463498D01*
X0779443D01*
X0780442Y0462498D01*
Y0458500D01*
X0779443Y0457500D01*
X0777443D01*
X0776444Y0458500D01*
Y0462498D01*
X0782442Y0457500D02*
Y0461499D01*
X0783441D01*
X0784441Y0460499D01*
Y0457500D01*
Y0460499D01*
X0785441Y0461499D01*
X0786441Y0460499D01*
Y0457500D01*
X0788440D02*
X0790439D01*
X0789439D01*
Y0461499D01*
X0788440D01*
X0793438Y0457500D02*
X0795438D01*
X0794438D01*
Y0463498D01*
X0793438D01*
X0753451Y0469500D02*
X0755450D01*
X0754451D01*
Y0475498D01*
X0753451Y0474498D01*
X0758450Y0469500D02*
Y0470500D01*
X0759449D01*
Y0469500D01*
X0758450D01*
X0766447D02*
Y0475498D01*
X0763448Y0472499D01*
X0767447D01*
X0769446Y0474498D02*
X0770446Y0475498D01*
X0772445D01*
X0773445Y0474498D01*
Y0470500D01*
X0772445Y0469500D01*
X0770446D01*
X0769446Y0470500D01*
Y0474498D01*
X0775444Y0469500D02*
Y0473499D01*
X0776444D01*
X0777443Y0472499D01*
Y0469500D01*
Y0472499D01*
X0778443Y0473499D01*
X0779443Y0472499D01*
Y0469500D01*
X0781442D02*
X0783441D01*
X0782442D01*
Y0473499D01*
X0781442D01*
X0786441Y0469500D02*
X0788440D01*
X0787440D01*
Y0475498D01*
X0786441D01*
X0753451Y0486498D02*
X0754451Y0487498D01*
X0756450D01*
X0757450Y0486498D01*
Y0485499D01*
X0756450Y0484499D01*
X0757450Y0483499D01*
Y0482500D01*
X0756450Y0481500D01*
X0754451D01*
X0753451Y0482500D01*
Y0483499D01*
X0754451Y0484499D01*
X0753451Y0485499D01*
Y0486498D01*
X0754451Y0484499D02*
X0756450D01*
X0759449Y0481500D02*
Y0482500D01*
X0760449D01*
Y0481500D01*
X0759449D01*
X0764448Y0486498D02*
X0765447Y0487498D01*
X0767447D01*
X0768446Y0486498D01*
Y0482500D01*
X0767447Y0481500D01*
X0765447D01*
X0764448Y0482500D01*
Y0486498D01*
X0770446D02*
X0771445Y0487498D01*
X0773445D01*
X0774444Y0486498D01*
Y0482500D01*
X0773445Y0481500D01*
X0771445D01*
X0770446Y0482500D01*
Y0486498D01*
X0776444Y0481500D02*
Y0485499D01*
X0777443D01*
X0778443Y0484499D01*
Y0481500D01*
Y0484499D01*
X0779443Y0485499D01*
X0780442Y0484499D01*
Y0481500D01*
X0782442D02*
X0784441D01*
X0783441D01*
Y0485499D01*
X0782442D01*
X0787440Y0481500D02*
X0789439D01*
X0788440D01*
Y0487498D01*
X0787440D01*
X0753451Y0493500D02*
X0755450D01*
X0754451D01*
Y0499498D01*
X0753451Y0498498D01*
X0758450Y0493500D02*
Y0494500D01*
X0759449D01*
Y0493500D01*
X0758450D01*
X0766447D02*
Y0499498D01*
X0763448Y0496499D01*
X0767447D01*
X0769446Y0498498D02*
X0770446Y0499498D01*
X0772445D01*
X0773445Y0498498D01*
Y0494500D01*
X0772445Y0493500D01*
X0770446D01*
X0769446Y0494500D01*
Y0498498D01*
X0775444Y0493500D02*
Y0497499D01*
X0776444D01*
X0777443Y0496499D01*
Y0493500D01*
Y0496499D01*
X0778443Y0497499D01*
X0779443Y0496499D01*
Y0493500D01*
X0781442D02*
X0783441D01*
X0782442D01*
Y0497499D01*
X0781442D01*
X0786441Y0493500D02*
X0788440D01*
X0787440D01*
Y0499498D01*
X0786441D01*
X0753451Y0510498D02*
X0754451Y0511498D01*
X0756450D01*
X0757450Y0510498D01*
Y0506500D01*
X0756450Y0505500D01*
X0754451D01*
X0753451Y0506500D01*
Y0510498D01*
X0759449Y0505500D02*
Y0506500D01*
X0760449D01*
Y0505500D01*
X0759449D01*
X0767447D02*
Y0511498D01*
X0764448Y0508499D01*
X0768446D01*
X0770446Y0510498D02*
X0771445Y0511498D01*
X0773445D01*
X0774444Y0510498D01*
Y0506500D01*
X0773445Y0505500D01*
X0771445D01*
X0770446Y0506500D01*
Y0510498D01*
X0776444Y0505500D02*
Y0509499D01*
X0777443D01*
X0778443Y0508499D01*
Y0505500D01*
Y0508499D01*
X0779443Y0509499D01*
X0780442Y0508499D01*
Y0505500D01*
X0782442D02*
X0784441D01*
X0783441D01*
Y0509499D01*
X0782442D01*
X0787440Y0505500D02*
X0789439D01*
X0788440D01*
Y0511498D01*
X0787440D01*
X0822433Y0534498D02*
X0821434Y0535498D01*
X0819434D01*
X0818435Y0534498D01*
Y0530500D01*
X0819434Y0529500D01*
X0821434D01*
X0822433Y0530500D01*
X0825432Y0529500D02*
X0827432D01*
X0828431Y0530500D01*
Y0532499D01*
X0827432Y0533499D01*
X0825432D01*
X0824433Y0532499D01*
Y0530500D01*
X0825432Y0529500D01*
X0830431D02*
Y0533499D01*
X0833430D01*
X0834429Y0532499D01*
Y0529500D01*
X0836429D02*
X0839428D01*
X0840428Y0530500D01*
X0839428Y0531499D01*
X0837428D01*
X0836429Y0532499D01*
X0837428Y0533499D01*
X0840428D01*
X0843427Y0534498D02*
Y0533499D01*
X0842427D01*
X0844426D01*
X0843427D01*
Y0530500D01*
X0844426Y0529500D01*
X0848425Y0533499D02*
X0850424D01*
X0851424Y0532499D01*
Y0529500D01*
X0848425D01*
X0847425Y0530500D01*
X0848425Y0531499D01*
X0851424D01*
X0853423Y0529500D02*
Y0533499D01*
X0856422D01*
X0857422Y0532499D01*
Y0529500D01*
X0860421Y0534498D02*
Y0533499D01*
X0859421D01*
X0861421D01*
X0860421D01*
Y0530500D01*
X0861421Y0529500D01*
X0818435Y0414498D02*
X0819434Y0415498D01*
X0821434D01*
X0822433Y0414498D01*
Y0413499D01*
X0821434Y0412499D01*
X0820434D01*
X0821434D01*
X0822433Y0411499D01*
Y0410500D01*
X0821434Y0409500D01*
X0819434D01*
X0818435Y0410500D01*
X0824433Y0409500D02*
Y0410500D01*
X0825432D01*
Y0409500D01*
X0824433D01*
X0833430Y0415498D02*
X0829431D01*
Y0412499D01*
X0831431Y0413499D01*
X0832430D01*
X0833430Y0412499D01*
Y0410500D01*
X0832430Y0409500D01*
X0830431D01*
X0829431Y0410500D01*
X0821434Y0433500D02*
Y0439498D01*
X0818435Y0436499D01*
X0822433D01*
X0824433Y0433500D02*
Y0434500D01*
X0825432D01*
Y0433500D01*
X0824433D01*
X0829431Y0438498D02*
X0830431Y0439498D01*
X0832430D01*
X0833430Y0438498D01*
Y0437499D01*
X0832430Y0436499D01*
X0833430Y0435499D01*
Y0434500D01*
X0832430Y0433500D01*
X0830431D01*
X0829431Y0434500D01*
Y0435499D01*
X0830431Y0436499D01*
X0829431Y0437499D01*
Y0438498D01*
X0830431Y0436499D02*
X0832430D01*
X0821434Y0457500D02*
Y0463498D01*
X0818435Y0460499D01*
X0822433D01*
X0824433Y0457500D02*
Y0458500D01*
X0825432D01*
Y0457500D01*
X0824433D01*
X0829431Y0462498D02*
X0830431Y0463498D01*
X0832430D01*
X0833430Y0462498D01*
Y0461499D01*
X0832430Y0460499D01*
X0833430Y0459499D01*
Y0458500D01*
X0832430Y0457500D01*
X0830431D01*
X0829431Y0458500D01*
Y0459499D01*
X0830431Y0460499D01*
X0829431Y0461499D01*
Y0462498D01*
X0830431Y0460499D02*
X0832430D01*
X0821434Y0481500D02*
Y0487498D01*
X0818435Y0484499D01*
X0822433D01*
X0824433Y0481500D02*
Y0482500D01*
X0825432D01*
Y0481500D01*
X0824433D01*
X0829431Y0486498D02*
X0830431Y0487498D01*
X0832430D01*
X0833430Y0486498D01*
Y0485499D01*
X0832430Y0484499D01*
X0833430Y0483499D01*
Y0482500D01*
X0832430Y0481500D01*
X0830431D01*
X0829431Y0482500D01*
Y0483499D01*
X0830431Y0484499D01*
X0829431Y0485499D01*
Y0486498D01*
X0830431Y0484499D02*
X0832430D01*
X0818435Y0510498D02*
X0819434Y0511498D01*
X0821434D01*
X0822433Y0510498D01*
Y0509499D01*
X0821434Y0508499D01*
X0820434D01*
X0821434D01*
X0822433Y0507499D01*
Y0506500D01*
X0821434Y0505500D01*
X0819434D01*
X0818435Y0506500D01*
X0824433Y0505500D02*
Y0506500D01*
X0825432D01*
Y0505500D01*
X0824433D01*
X0833430Y0511498D02*
X0829431D01*
Y0508499D01*
X0831431Y0509499D01*
X0832430D01*
X0833430Y0508499D01*
Y0506500D01*
X0832430Y0505500D01*
X0830431D01*
X0829431Y0506500D01*
X0879420Y0534498D02*
X0878420Y0535498D01*
X0876420D01*
X0875421Y0534498D01*
Y0530500D01*
X0876420Y0529500D01*
X0878420D01*
X0879420Y0530500D01*
Y0532499D01*
X0877420D01*
X0884418Y0529500D02*
X0882419D01*
X0881419Y0530500D01*
Y0532499D01*
X0882419Y0533499D01*
X0884418D01*
X0885417Y0532499D01*
Y0531499D01*
X0881419D01*
X0887417Y0533499D02*
Y0529500D01*
Y0531499D01*
X0888417Y0532499D01*
X0889416Y0533499D01*
X0890416D01*
X0893415Y0535498D02*
Y0529500D01*
X0896414D01*
X0897414Y0530500D01*
Y0531499D01*
Y0532499D01*
X0896414Y0533499D01*
X0893415D01*
X0902412Y0529500D02*
X0900413D01*
X0899413Y0530500D01*
Y0532499D01*
X0900413Y0533499D01*
X0902412D01*
X0903412Y0532499D01*
Y0531499D01*
X0899413D01*
X0905411Y0533499D02*
Y0529500D01*
Y0531499D01*
X0906411Y0532499D01*
X0907410Y0533499D01*
X0908410D01*
X0879420Y0402498D02*
X0878420Y0403498D01*
X0876420D01*
X0875421Y0402498D01*
Y0398500D01*
X0876420Y0397500D01*
X0878420D01*
X0879420Y0398500D01*
Y0400499D01*
X0877420D01*
X0881419Y0403498D02*
Y0397500D01*
X0884418D01*
X0885417Y0398500D01*
Y0399499D01*
X0884418Y0400499D01*
X0881419D01*
X0884418D01*
X0885417Y0401499D01*
Y0402498D01*
X0884418Y0403498D01*
X0881419D01*
X0890416D02*
X0888417D01*
X0887417Y0402498D01*
Y0398500D01*
X0888417Y0397500D01*
X0890416D01*
X0891416Y0398500D01*
Y0402498D01*
X0890416Y0403498D01*
X0879420Y0414498D02*
X0878420Y0415498D01*
X0876420D01*
X0875421Y0414498D01*
Y0410500D01*
X0876420Y0409500D01*
X0878420D01*
X0879420Y0410500D01*
Y0412499D01*
X0877420D01*
X0881419Y0415498D02*
Y0409500D01*
X0884418D01*
X0885417Y0410500D01*
Y0411499D01*
X0884418Y0412499D01*
X0881419D01*
X0884418D01*
X0885417Y0413499D01*
Y0414498D01*
X0884418Y0415498D01*
X0881419D01*
X0891416Y0414498D02*
X0890416Y0415498D01*
X0888417D01*
X0887417Y0414498D01*
Y0413499D01*
X0888417Y0412499D01*
X0890416D01*
X0891416Y0411499D01*
Y0410500D01*
X0890416Y0409500D01*
X0888417D01*
X0887417Y0410500D01*
X0879420Y0426498D02*
X0878420Y0427498D01*
X0876420D01*
X0875421Y0426498D01*
Y0422500D01*
X0876420Y0421500D01*
X0878420D01*
X0879420Y0422500D01*
Y0424499D01*
X0877420D01*
X0881419Y0427498D02*
Y0421500D01*
X0884418D01*
X0885417Y0422500D01*
Y0423499D01*
X0884418Y0424499D01*
X0881419D01*
X0884418D01*
X0885417Y0425499D01*
Y0426498D01*
X0884418Y0427498D01*
X0881419D01*
X0887417D02*
Y0421500D01*
X0891416D01*
X0879420Y0450498D02*
X0878420Y0451498D01*
X0876420D01*
X0875421Y0450498D01*
Y0446500D01*
X0876420Y0445500D01*
X0878420D01*
X0879420Y0446500D01*
Y0448499D01*
X0877420D01*
X0881419Y0445500D02*
Y0451498D01*
X0884418D01*
X0885417Y0450498D01*
Y0448499D01*
X0884418Y0447499D01*
X0881419D01*
X0891416Y0445500D02*
X0887417D01*
X0891416Y0449499D01*
Y0450498D01*
X0890416Y0451498D01*
X0888417D01*
X0887417Y0450498D01*
X0879420Y0474498D02*
X0878420Y0475498D01*
X0876420D01*
X0875421Y0474498D01*
Y0470500D01*
X0876420Y0469500D01*
X0878420D01*
X0879420Y0470500D01*
Y0472499D01*
X0877420D01*
X0881419Y0469500D02*
Y0475498D01*
X0884418D01*
X0885417Y0474498D01*
Y0472499D01*
X0884418Y0471499D01*
X0881419D01*
X0887417Y0469500D02*
X0889416D01*
X0888417D01*
Y0475498D01*
X0887417Y0474498D01*
X0879420Y0498498D02*
X0878420Y0499498D01*
X0876420D01*
X0875421Y0498498D01*
Y0494500D01*
X0876420Y0493500D01*
X0878420D01*
X0879420Y0494500D01*
Y0496499D01*
X0877420D01*
X0881419Y0499498D02*
X0885417D01*
X0883418D01*
Y0493500D01*
X0887417Y0499498D02*
Y0493500D01*
X0891416D01*
X0879420Y0510498D02*
X0878420Y0511498D01*
X0876420D01*
X0875421Y0510498D01*
Y0506500D01*
X0876420Y0505500D01*
X0878420D01*
X0879420Y0506500D01*
Y0508499D01*
X0877420D01*
X0881419Y0511498D02*
X0885417D01*
X0883418D01*
Y0505500D01*
X0891416Y0510498D02*
X0890416Y0511498D01*
X0888417D01*
X0887417Y0510498D01*
Y0509499D01*
X0888417Y0508499D01*
X0890416D01*
X0891416Y0507499D01*
Y0506500D01*
X0890416Y0505500D01*
X0888417D01*
X0887417Y0506500D01*
X0879420Y0522498D02*
X0878420Y0523498D01*
X0876420D01*
X0875421Y0522498D01*
Y0518500D01*
X0876420Y0517500D01*
X0878420D01*
X0879420Y0518500D01*
Y0520499D01*
X0877420D01*
X0881419Y0523498D02*
X0885417D01*
X0883418D01*
Y0517500D01*
X0890416Y0523498D02*
X0888417D01*
X0887417Y0522498D01*
Y0518500D01*
X0888417Y0517500D01*
X0890416D01*
X0891416Y0518500D01*
Y0522498D01*
X0890416Y0523498D01*
X0533509Y0391498D02*
X0537507D01*
X0535508D01*
Y0385500D01*
X0540507D02*
X0542506D01*
X0543505Y0386500D01*
Y0388499D01*
X0542506Y0389499D01*
X0540507D01*
X0539507Y0388499D01*
Y0386500D01*
X0540507Y0385500D01*
X0546504Y0390498D02*
Y0389499D01*
X0545505D01*
X0547504D01*
X0546504D01*
Y0386500D01*
X0547504Y0385500D01*
X0551503Y0389499D02*
X0553502D01*
X0554502Y0388499D01*
Y0385500D01*
X0551503D01*
X0550503Y0386500D01*
X0551503Y0387499D01*
X0554502D01*
X0556501Y0385500D02*
X0558501D01*
X0557501D01*
Y0391498D01*
X0556501D01*
X0567498D02*
Y0385500D01*
X0570497D01*
X0571496Y0386500D01*
Y0387499D01*
Y0388499D01*
X0570497Y0389499D01*
X0567498D01*
X0574496Y0385500D02*
X0576495D01*
X0577494Y0386500D01*
Y0388499D01*
X0576495Y0389499D01*
X0574496D01*
X0573496Y0388499D01*
Y0386500D01*
X0574496Y0385500D01*
X0580493Y0389499D02*
X0582493D01*
X0583493Y0388499D01*
Y0385500D01*
X0580493D01*
X0579494Y0386500D01*
X0580493Y0387499D01*
X0583493D01*
X0585492Y0389499D02*
Y0385500D01*
Y0387499D01*
X0586492Y0388499D01*
X0587491Y0389499D01*
X0588491D01*
X0595489Y0391498D02*
Y0385500D01*
X0592490D01*
X0591490Y0386500D01*
Y0388499D01*
X0592490Y0389499D01*
X0595489D01*
X0604486Y0390498D02*
Y0389499D01*
X0603486D01*
X0605485D01*
X0604486D01*
Y0386500D01*
X0605485Y0385500D01*
X0608485Y0391498D02*
Y0385500D01*
Y0388499D01*
X0609484Y0389499D01*
X0611483D01*
X0612483Y0388499D01*
Y0385500D01*
X0614482D02*
X0616482D01*
X0615482D01*
Y0389499D01*
X0614482D01*
X0623480D02*
X0620481D01*
X0619481Y0388499D01*
Y0386500D01*
X0620481Y0385500D01*
X0623480D01*
X0625479D02*
Y0391498D01*
Y0387499D02*
X0628478Y0389499D01*
X0625479Y0387499D02*
X0628478Y0385500D01*
X0631477D02*
Y0389499D01*
X0634476D01*
X0635476Y0388499D01*
Y0385500D01*
X0640474D02*
X0638475D01*
X0637475Y0386500D01*
Y0388499D01*
X0638475Y0389499D01*
X0640474D01*
X0641474Y0388499D01*
Y0387499D01*
X0637475D01*
X0643473Y0385500D02*
X0646472D01*
X0647472Y0386500D01*
X0646472Y0387499D01*
X0644473D01*
X0643473Y0388499D01*
X0644473Y0389499D01*
X0647472D01*
X0649471Y0385500D02*
X0652470D01*
X0653470Y0386500D01*
X0652470Y0387499D01*
X0650471D01*
X0649471Y0388499D01*
X0650471Y0389499D01*
X0653470D01*
X0655469D02*
X0656469D01*
Y0388499D01*
X0655469D01*
Y0389499D01*
Y0386500D02*
X0656469D01*
Y0385500D01*
X0655469D01*
Y0386500D01*
X0757450Y0391498D02*
X0755450Y0390498D01*
X0753451Y0388499D01*
Y0386500D01*
X0754451Y0385500D01*
X0756450D01*
X0757450Y0386500D01*
Y0387499D01*
X0756450Y0388499D01*
X0753451D01*
X0763448Y0385500D02*
X0759449D01*
X0763448Y0389499D01*
Y0390498D01*
X0762448Y0391498D01*
X0760449D01*
X0759449Y0390498D01*
X0765447Y0385500D02*
Y0386500D01*
X0766447D01*
Y0385500D01*
X0765447D01*
X0773445D02*
Y0391498D01*
X0770446Y0388499D01*
X0774444D01*
X0776444Y0390498D02*
X0777443Y0391498D01*
X0779443D01*
X0780442Y0390498D01*
Y0386500D01*
X0779443Y0385500D01*
X0777443D01*
X0776444Y0386500D01*
Y0390498D01*
X0782442Y0385500D02*
Y0389499D01*
X0783441D01*
X0784441Y0388499D01*
Y0385500D01*
Y0388499D01*
X0785441Y0389499D01*
X0786441Y0388499D01*
Y0385500D01*
X0788440D02*
X0790439D01*
X0789439D01*
Y0389499D01*
X0788440D01*
X0793438Y0385500D02*
X0795438D01*
X0794438D01*
Y0391498D01*
X0793438D01*
D14*
X0280508Y0267401D02*
X0276510D01*
X0280508Y0271400D01*
Y0272399D01*
X0279509Y0273399D01*
X0277509D01*
X0276510Y0272399D01*
X0282508Y0273399D02*
X0286506D01*
Y0272399D01*
X0282508Y0268401D01*
Y0267401D01*
X0288506Y0272399D02*
X0289506Y0273399D01*
X0291505D01*
X0292505Y0272399D01*
Y0271400D01*
X0291505Y0270400D01*
X0292505Y0269400D01*
Y0268401D01*
X0291505Y0267401D01*
X0289506D01*
X0288506Y0268401D01*
Y0269400D01*
X0289506Y0270400D01*
X0288506Y0271400D01*
Y0272399D01*
X0289506Y0270400D02*
X0291505D01*
X0294504Y0272399D02*
X0295503Y0273399D01*
X0297503D01*
X0298503Y0272399D01*
Y0268401D01*
X0297503Y0267401D01*
X0295503D01*
X0294504Y0268401D01*
Y0272399D01*
X0300502Y0267401D02*
Y0268401D01*
X0301502D01*
Y0267401D01*
X0300502D01*
X0305500Y0272399D02*
X0306500Y0273399D01*
X0308499D01*
X0309499Y0272399D01*
Y0268401D01*
X0308499Y0267401D01*
X0306500D01*
X0305500Y0268401D01*
Y0272399D01*
X0311498D02*
X0312498Y0273399D01*
X0314497D01*
X0315497Y0272399D01*
Y0268401D01*
X0314497Y0267401D01*
X0312498D01*
X0311498Y0268401D01*
Y0272399D01*
X0325494Y0267401D02*
X0323495Y0269400D01*
Y0271400D01*
X0325494Y0273399D01*
X0328493Y0267401D02*
Y0271400D01*
X0329492D01*
X0330492Y0270400D01*
Y0267401D01*
Y0270400D01*
X0331492Y0271400D01*
X0332492Y0270400D01*
Y0267401D01*
X0334491D02*
X0336490D01*
X0335491D01*
Y0271400D01*
X0334491D01*
X0339489Y0267401D02*
X0341489D01*
X0340489D01*
Y0273399D01*
X0339489D01*
X0344488Y0267401D02*
X0346487Y0269400D01*
Y0271400D01*
X0344488Y0273399D01*
X0162099Y0498910D02*
X0156101D01*
X0159100Y0495911D01*
Y0499910D01*
X0161099Y0501909D02*
X0162099Y0502909D01*
Y0504908D01*
X0161099Y0505908D01*
X0157101D01*
X0156101Y0504908D01*
Y0502909D01*
X0157101Y0501909D01*
X0158100D01*
X0159100Y0502909D01*
Y0505908D01*
X0157101Y0507907D02*
X0156101Y0508907D01*
Y0510907D01*
X0157101Y0511906D01*
X0158100D01*
X0159100Y0510907D01*
Y0509907D01*
Y0510907D01*
X0160100Y0511906D01*
X0161099D01*
X0162099Y0510907D01*
Y0508907D01*
X0161099Y0507907D01*
X0157101Y0513905D02*
X0156101Y0514905D01*
Y0516904D01*
X0157101Y0517904D01*
X0161099D01*
X0162099Y0516904D01*
Y0514905D01*
X0161099Y0513905D01*
X0157101D01*
X0162099Y0519904D02*
X0161099D01*
Y0520903D01*
X0162099D01*
Y0519904D01*
X0157101Y0524902D02*
X0156101Y0525902D01*
Y0527901D01*
X0157101Y0528901D01*
X0161099D01*
X0162099Y0527901D01*
Y0525902D01*
X0161099Y0524902D01*
X0157101D01*
Y0530900D02*
X0156101Y0531900D01*
Y0533899D01*
X0157101Y0534899D01*
X0161099D01*
X0162099Y0533899D01*
Y0531900D01*
X0161099Y0530900D01*
X0157101D01*
X0162099Y0544896D02*
X0160100Y0542896D01*
X0158100D01*
X0156101Y0544896D01*
X0162099Y0547894D02*
X0158100D01*
Y0548894D01*
X0159100Y0549894D01*
X0162099D01*
X0159100D01*
X0158100Y0550893D01*
X0159100Y0551893D01*
X0162099D01*
Y0553893D02*
Y0555892D01*
Y0554892D01*
X0158100D01*
Y0553893D01*
X0162099Y0558891D02*
Y0560890D01*
Y0559891D01*
X0156101D01*
Y0558891D01*
X0162099Y0563889D02*
X0160100Y0565889D01*
X0158100D01*
X0156101Y0563889D01*
D119*
X0526509Y0526500D02*
X0915410D01*
X0526509Y0538500D02*
X0915410D01*
X0526509Y0394500D02*
Y0538500D01*
Y0394500D02*
X0567500D01*
X0526509Y0406500D02*
X0567500D01*
X0526509Y0418500D02*
X0567500D01*
X0526509Y0430500D02*
X0567500D01*
X0526509Y0442500D02*
X0567500D01*
X0526509Y0454500D02*
X0567500D01*
X0526509Y0466500D02*
X0567500D01*
X0526509Y0478500D02*
X0567500D01*
X0526509Y0490500D02*
X0567500D01*
X0526509Y0502500D02*
X0567500D01*
X0526509Y0514500D02*
X0567500D01*
Y0394500D02*
Y0538500D01*
Y0394500D02*
X0660474D01*
X0567500Y0406500D02*
X0660474D01*
X0567500Y0418500D02*
X0660474D01*
X0567500Y0430500D02*
X0660474D01*
X0567500Y0442500D02*
X0660474D01*
X0567500Y0454500D02*
X0660474D01*
X0567500Y0466500D02*
X0660474D01*
X0567500Y0478500D02*
X0660474D01*
X0567500Y0490500D02*
X0660474D01*
X0567500Y0502500D02*
X0660474D01*
X0567500Y0514500D02*
X0660474D01*
Y0394500D02*
Y0538500D01*
Y0394500D02*
X0746451D01*
X0660474Y0406500D02*
X0746451D01*
X0660474Y0418500D02*
X0746451D01*
X0660474Y0430500D02*
X0746451D01*
X0660474Y0442500D02*
X0746451D01*
X0660474Y0454500D02*
X0746451D01*
X0660474Y0466500D02*
X0746451D01*
X0660474Y0478500D02*
X0746451D01*
X0660474Y0490500D02*
X0746451D01*
X0660474Y0502500D02*
X0746451D01*
X0660474Y0514500D02*
X0746451D01*
Y0394500D02*
Y0538500D01*
Y0394500D02*
X0811435D01*
X0746451Y0406500D02*
X0811435D01*
X0746451Y0418500D02*
X0811435D01*
X0746451Y0430500D02*
X0811435D01*
X0746451Y0442500D02*
X0811435D01*
X0746451Y0454500D02*
X0811435D01*
X0746451Y0466500D02*
X0811435D01*
X0746451Y0478500D02*
X0811435D01*
X0746451Y0490500D02*
X0811435D01*
X0746451Y0502500D02*
X0811435D01*
X0746451Y0514500D02*
X0811435D01*
Y0394500D02*
Y0538500D01*
Y0394500D02*
X0868421D01*
X0811435Y0406500D02*
X0868421D01*
X0811435Y0418500D02*
X0868421D01*
X0811435Y0430500D02*
X0868421D01*
X0811435Y0442500D02*
X0868421D01*
X0811435Y0454500D02*
X0868421D01*
X0811435Y0466500D02*
X0868421D01*
X0811435Y0478500D02*
X0868421D01*
X0811435Y0490500D02*
X0868421D01*
X0811435Y0502500D02*
X0868421D01*
X0811435Y0514500D02*
X0868421D01*
Y0394500D02*
Y0538500D01*
Y0394500D02*
X0915410D01*
X0868421Y0406500D02*
X0915410D01*
X0868421Y0418500D02*
X0915410D01*
X0868421Y0430500D02*
X0915410D01*
X0868421Y0442500D02*
X0915410D01*
X0868421Y0454500D02*
X0915410D01*
X0868421Y0466500D02*
X0915410D01*
X0868421Y0478500D02*
X0915410D01*
X0868421Y0490500D02*
X0915410D01*
X0868421Y0502500D02*
X0915410D01*
X0868421Y0514500D02*
X0915410D01*
Y0394500D02*
Y0538500D01*
M02*
