G04*
G04 #@! TF.GenerationSoftware,Altium Limited,Altium Designer,20.0.13 (296)*
G04*
G04 Layer_Color=8388736*
%FSAX25Y25*%
%MOIN*%
G70*
G01*
G75*
%ADD43C,0.06000*%
G04:AMPARAMS|DCode=44|XSize=82.8mil|YSize=55.24mil|CornerRadius=11.09mil|HoleSize=0mil|Usage=FLASHONLY|Rotation=0.000|XOffset=0mil|YOffset=0mil|HoleType=Round|Shape=RoundedRectangle|*
%AMROUNDEDRECTD44*
21,1,0.08280,0.03307,0,0,0.0*
21,1,0.06063,0.05524,0,0,0.0*
1,1,0.02217,0.03032,-0.01654*
1,1,0.02217,-0.03032,-0.01654*
1,1,0.02217,-0.03032,0.01654*
1,1,0.02217,0.03032,0.01654*
%
%ADD44ROUNDEDRECTD44*%
G04:AMPARAMS|DCode=45|XSize=168mil|YSize=168mil|CornerRadius=28mil|HoleSize=0mil|Usage=FLASHONLY|Rotation=0.000|XOffset=0mil|YOffset=0mil|HoleType=Round|Shape=RoundedRectangle|*
%AMROUNDEDRECTD45*
21,1,0.16800,0.11200,0,0,0.0*
21,1,0.11200,0.16800,0,0,0.0*
1,1,0.05600,0.05600,-0.05600*
1,1,0.05600,-0.05600,-0.05600*
1,1,0.05600,-0.05600,0.05600*
1,1,0.05600,0.05600,0.05600*
%
%ADD45ROUNDEDRECTD45*%
G04:AMPARAMS|DCode=46|XSize=39.5mil|YSize=47.37mil|CornerRadius=8.72mil|HoleSize=0mil|Usage=FLASHONLY|Rotation=0.000|XOffset=0mil|YOffset=0mil|HoleType=Round|Shape=RoundedRectangle|*
%AMROUNDEDRECTD46*
21,1,0.03950,0.02992,0,0,0.0*
21,1,0.02205,0.04737,0,0,0.0*
1,1,0.01745,0.01102,-0.01496*
1,1,0.01745,-0.01102,-0.01496*
1,1,0.01745,-0.01102,0.01496*
1,1,0.01745,0.01102,0.01496*
%
%ADD46ROUNDEDRECTD46*%
%ADD47O,0.07887X0.01981*%
%ADD48O,0.01981X0.07887*%
G04:AMPARAMS|DCode=49|XSize=224.53mil|YSize=86.74mil|CornerRadius=15.81mil|HoleSize=0mil|Usage=FLASHONLY|Rotation=270.000|XOffset=0mil|YOffset=0mil|HoleType=Round|Shape=RoundedRectangle|*
%AMROUNDEDRECTD49*
21,1,0.22453,0.05512,0,0,270.0*
21,1,0.19291,0.08674,0,0,270.0*
1,1,0.03162,-0.02756,-0.09646*
1,1,0.03162,-0.02756,0.09646*
1,1,0.03162,0.02756,0.09646*
1,1,0.03162,0.02756,-0.09646*
%
%ADD49ROUNDEDRECTD49*%
G04:AMPARAMS|DCode=50|XSize=67.06mil|YSize=55.24mil|CornerRadius=11.09mil|HoleSize=0mil|Usage=FLASHONLY|Rotation=90.000|XOffset=0mil|YOffset=0mil|HoleType=Round|Shape=RoundedRectangle|*
%AMROUNDEDRECTD50*
21,1,0.06706,0.03307,0,0,90.0*
21,1,0.04488,0.05524,0,0,90.0*
1,1,0.02217,0.01654,0.02244*
1,1,0.02217,0.01654,-0.02244*
1,1,0.02217,-0.01654,-0.02244*
1,1,0.02217,-0.01654,0.02244*
%
%ADD50ROUNDEDRECTD50*%
G04:AMPARAMS|DCode=51|XSize=47.37mil|YSize=43.43mil|CornerRadius=9.32mil|HoleSize=0mil|Usage=FLASHONLY|Rotation=270.000|XOffset=0mil|YOffset=0mil|HoleType=Round|Shape=RoundedRectangle|*
%AMROUNDEDRECTD51*
21,1,0.04737,0.02480,0,0,270.0*
21,1,0.02874,0.04343,0,0,270.0*
1,1,0.01863,-0.01240,-0.01437*
1,1,0.01863,-0.01240,0.01437*
1,1,0.01863,0.01240,0.01437*
1,1,0.01863,0.01240,-0.01437*
%
%ADD51ROUNDEDRECTD51*%
%ADD52O,0.07690X0.01981*%
%ADD53O,0.01981X0.07690*%
G04:AMPARAMS|DCode=54|XSize=82.8mil|YSize=59.18mil|CornerRadius=11.68mil|HoleSize=0mil|Usage=FLASHONLY|Rotation=90.000|XOffset=0mil|YOffset=0mil|HoleType=Round|Shape=RoundedRectangle|*
%AMROUNDEDRECTD54*
21,1,0.08280,0.03583,0,0,90.0*
21,1,0.05945,0.05918,0,0,90.0*
1,1,0.02335,0.01791,0.02972*
1,1,0.02335,0.01791,-0.02972*
1,1,0.02335,-0.01791,-0.02972*
1,1,0.02335,-0.01791,0.02972*
%
%ADD54ROUNDEDRECTD54*%
%ADD55O,0.01535X0.06063*%
%ADD56O,0.06063X0.01535*%
G04:AMPARAMS|DCode=57|XSize=103.94mil|YSize=103.94mil|CornerRadius=17.52mil|HoleSize=0mil|Usage=FLASHONLY|Rotation=90.000|XOffset=0mil|YOffset=0mil|HoleType=Round|Shape=RoundedRectangle|*
%AMROUNDEDRECTD57*
21,1,0.10394,0.06890,0,0,90.0*
21,1,0.06890,0.10394,0,0,90.0*
1,1,0.03504,0.03445,0.03445*
1,1,0.03504,0.03445,-0.03445*
1,1,0.03504,-0.03445,-0.03445*
1,1,0.03504,-0.03445,0.03445*
%
%ADD57ROUNDEDRECTD57*%
G04:AMPARAMS|DCode=58|XSize=33.59mil|YSize=51.31mil|CornerRadius=7.84mil|HoleSize=0mil|Usage=FLASHONLY|Rotation=270.000|XOffset=0mil|YOffset=0mil|HoleType=Round|Shape=RoundedRectangle|*
%AMROUNDEDRECTD58*
21,1,0.03359,0.03563,0,0,270.0*
21,1,0.01791,0.05131,0,0,270.0*
1,1,0.01568,-0.01782,-0.00896*
1,1,0.01568,-0.01782,0.00896*
1,1,0.01568,0.01782,0.00896*
1,1,0.01568,0.01782,-0.00896*
%
%ADD58ROUNDEDRECTD58*%
%ADD59O,0.06706X0.02965*%
%ADD60O,0.08674X0.03162*%
G04:AMPARAMS|DCode=61|XSize=43mil|YSize=77.5mil|CornerRadius=9.25mil|HoleSize=0mil|Usage=FLASHONLY|Rotation=270.000|XOffset=0mil|YOffset=0mil|HoleType=Round|Shape=RoundedRectangle|*
%AMROUNDEDRECTD61*
21,1,0.04300,0.05900,0,0,270.0*
21,1,0.02450,0.07750,0,0,270.0*
1,1,0.01850,-0.02950,-0.01225*
1,1,0.01850,-0.02950,0.01225*
1,1,0.01850,0.02950,0.01225*
1,1,0.01850,0.02950,-0.01225*
%
%ADD61ROUNDEDRECTD61*%
G04:AMPARAMS|DCode=62|XSize=132mil|YSize=77.5mil|CornerRadius=14.43mil|HoleSize=0mil|Usage=FLASHONLY|Rotation=270.000|XOffset=0mil|YOffset=0mil|HoleType=Round|Shape=RoundedRectangle|*
%AMROUNDEDRECTD62*
21,1,0.13200,0.04865,0,0,270.0*
21,1,0.10315,0.07750,0,0,270.0*
1,1,0.02885,-0.02433,-0.05158*
1,1,0.02885,-0.02433,0.05158*
1,1,0.02885,0.02433,0.05158*
1,1,0.02885,0.02433,-0.05158*
%
%ADD62ROUNDEDRECTD62*%
G04:AMPARAMS|DCode=63|XSize=67.06mil|YSize=114.3mil|CornerRadius=12.86mil|HoleSize=0mil|Usage=FLASHONLY|Rotation=90.000|XOffset=0mil|YOffset=0mil|HoleType=Round|Shape=RoundedRectangle|*
%AMROUNDEDRECTD63*
21,1,0.06706,0.08858,0,0,90.0*
21,1,0.04134,0.11430,0,0,90.0*
1,1,0.02572,0.04429,0.02067*
1,1,0.02572,0.04429,-0.02067*
1,1,0.02572,-0.04429,-0.02067*
1,1,0.02572,-0.04429,0.02067*
%
%ADD63ROUNDEDRECTD63*%
G04:AMPARAMS|DCode=64|XSize=31.62mil|YSize=39.5mil|CornerRadius=7.54mil|HoleSize=0mil|Usage=FLASHONLY|Rotation=270.000|XOffset=0mil|YOffset=0mil|HoleType=Round|Shape=RoundedRectangle|*
%AMROUNDEDRECTD64*
21,1,0.03162,0.02441,0,0,270.0*
21,1,0.01654,0.03950,0,0,270.0*
1,1,0.01509,-0.01221,-0.00827*
1,1,0.01509,-0.01221,0.00827*
1,1,0.01509,0.01221,0.00827*
1,1,0.01509,0.01221,-0.00827*
%
%ADD64ROUNDEDRECTD64*%
%ADD65C,0.06800*%
G04:AMPARAMS|DCode=66|XSize=76.9mil|YSize=157.61mil|CornerRadius=12.61mil|HoleSize=0mil|Usage=FLASHONLY|Rotation=90.000|XOffset=0mil|YOffset=0mil|HoleType=Round|Shape=RoundedRectangle|*
%AMROUNDEDRECTD66*
21,1,0.07690,0.13238,0,0,90.0*
21,1,0.05167,0.15761,0,0,90.0*
1,1,0.02522,0.06619,0.02584*
1,1,0.02522,0.06619,-0.02584*
1,1,0.02522,-0.06619,-0.02584*
1,1,0.02522,-0.06619,0.02584*
%
%ADD66ROUNDEDRECTD66*%
G04:AMPARAMS|DCode=67|XSize=47.37mil|YSize=47.37mil|CornerRadius=9.91mil|HoleSize=0mil|Usage=FLASHONLY|Rotation=180.000|XOffset=0mil|YOffset=0mil|HoleType=Round|Shape=RoundedRectangle|*
%AMROUNDEDRECTD67*
21,1,0.04737,0.02756,0,0,180.0*
21,1,0.02756,0.04737,0,0,180.0*
1,1,0.01981,-0.01378,0.01378*
1,1,0.01981,0.01378,0.01378*
1,1,0.01981,0.01378,-0.01378*
1,1,0.01981,-0.01378,-0.01378*
%
%ADD67ROUNDEDRECTD67*%
G04:AMPARAMS|DCode=68|XSize=47.37mil|YSize=43.43mil|CornerRadius=9.32mil|HoleSize=0mil|Usage=FLASHONLY|Rotation=0.000|XOffset=0mil|YOffset=0mil|HoleType=Round|Shape=RoundedRectangle|*
%AMROUNDEDRECTD68*
21,1,0.04737,0.02480,0,0,0.0*
21,1,0.02874,0.04343,0,0,0.0*
1,1,0.01863,0.01437,-0.01240*
1,1,0.01863,-0.01437,-0.01240*
1,1,0.01863,-0.01437,0.01240*
1,1,0.01863,0.01437,0.01240*
%
%ADD68ROUNDEDRECTD68*%
%ADD69C,0.07087*%
G04:AMPARAMS|DCode=70|XSize=47.37mil|YSize=47.37mil|CornerRadius=9.91mil|HoleSize=0mil|Usage=FLASHONLY|Rotation=270.000|XOffset=0mil|YOffset=0mil|HoleType=Round|Shape=RoundedRectangle|*
%AMROUNDEDRECTD70*
21,1,0.04737,0.02756,0,0,270.0*
21,1,0.02756,0.04737,0,0,270.0*
1,1,0.01981,-0.01378,-0.01378*
1,1,0.01981,-0.01378,0.01378*
1,1,0.01981,0.01378,0.01378*
1,1,0.01981,0.01378,-0.01378*
%
%ADD70ROUNDEDRECTD70*%
G04:AMPARAMS|DCode=71|XSize=39.5mil|YSize=47.37mil|CornerRadius=8.72mil|HoleSize=0mil|Usage=FLASHONLY|Rotation=90.000|XOffset=0mil|YOffset=0mil|HoleType=Round|Shape=RoundedRectangle|*
%AMROUNDEDRECTD71*
21,1,0.03950,0.02992,0,0,90.0*
21,1,0.02205,0.04737,0,0,90.0*
1,1,0.01745,0.01496,0.01102*
1,1,0.01745,0.01496,-0.01102*
1,1,0.01745,-0.01496,-0.01102*
1,1,0.01745,-0.01496,0.01102*
%
%ADD71ROUNDEDRECTD71*%
G04:AMPARAMS|DCode=72|XSize=31.62mil|YSize=39.5mil|CornerRadius=7.54mil|HoleSize=0mil|Usage=FLASHONLY|Rotation=180.000|XOffset=0mil|YOffset=0mil|HoleType=Round|Shape=RoundedRectangle|*
%AMROUNDEDRECTD72*
21,1,0.03162,0.02441,0,0,180.0*
21,1,0.01654,0.03950,0,0,180.0*
1,1,0.01509,-0.00827,0.01221*
1,1,0.01509,0.00827,0.01221*
1,1,0.01509,0.00827,-0.01221*
1,1,0.01509,-0.00827,-0.01221*
%
%ADD72ROUNDEDRECTD72*%
G04:AMPARAMS|DCode=73|XSize=67.06mil|YSize=55.24mil|CornerRadius=11.09mil|HoleSize=0mil|Usage=FLASHONLY|Rotation=0.000|XOffset=0mil|YOffset=0mil|HoleType=Round|Shape=RoundedRectangle|*
%AMROUNDEDRECTD73*
21,1,0.06706,0.03307,0,0,0.0*
21,1,0.04488,0.05524,0,0,0.0*
1,1,0.02217,0.02244,-0.01654*
1,1,0.02217,-0.02244,-0.01654*
1,1,0.02217,-0.02244,0.01654*
1,1,0.02217,0.02244,0.01654*
%
%ADD73ROUNDEDRECTD73*%
G04:AMPARAMS|DCode=74|XSize=224.53mil|YSize=86.74mil|CornerRadius=15.81mil|HoleSize=0mil|Usage=FLASHONLY|Rotation=0.000|XOffset=0mil|YOffset=0mil|HoleType=Round|Shape=RoundedRectangle|*
%AMROUNDEDRECTD74*
21,1,0.22453,0.05512,0,0,0.0*
21,1,0.19291,0.08674,0,0,0.0*
1,1,0.03162,0.09646,-0.02756*
1,1,0.03162,-0.09646,-0.02756*
1,1,0.03162,-0.09646,0.02756*
1,1,0.03162,0.09646,0.02756*
%
%ADD74ROUNDEDRECTD74*%
G04:AMPARAMS|DCode=75|XSize=78.87mil|YSize=59.18mil|CornerRadius=11.68mil|HoleSize=0mil|Usage=FLASHONLY|Rotation=90.000|XOffset=0mil|YOffset=0mil|HoleType=Round|Shape=RoundedRectangle|*
%AMROUNDEDRECTD75*
21,1,0.07887,0.03583,0,0,90.0*
21,1,0.05551,0.05918,0,0,90.0*
1,1,0.02335,0.01791,0.02776*
1,1,0.02335,0.01791,-0.02776*
1,1,0.02335,-0.01791,-0.02776*
1,1,0.02335,-0.01791,0.02776*
%
%ADD75ROUNDEDRECTD75*%
G04:AMPARAMS|DCode=76|XSize=82.8mil|YSize=82.8mil|CornerRadius=15.22mil|HoleSize=0mil|Usage=FLASHONLY|Rotation=180.000|XOffset=0mil|YOffset=0mil|HoleType=Round|Shape=RoundedRectangle|*
%AMROUNDEDRECTD76*
21,1,0.08280,0.05236,0,0,180.0*
21,1,0.05236,0.08280,0,0,180.0*
1,1,0.03044,-0.02618,0.02618*
1,1,0.03044,0.02618,0.02618*
1,1,0.03044,0.02618,-0.02618*
1,1,0.03044,-0.02618,-0.02618*
%
%ADD76ROUNDEDRECTD76*%
%ADD77C,0.08280*%
%ADD78C,0.23635*%
%ADD79C,0.08674*%
%ADD80C,0.07099*%
G04:AMPARAMS|DCode=81|XSize=70.99mil|YSize=70.99mil|CornerRadius=13.45mil|HoleSize=0mil|Usage=FLASHONLY|Rotation=180.000|XOffset=0mil|YOffset=0mil|HoleType=Round|Shape=RoundedRectangle|*
%AMROUNDEDRECTD81*
21,1,0.07099,0.04409,0,0,180.0*
21,1,0.04409,0.07099,0,0,180.0*
1,1,0.02690,-0.02205,0.02205*
1,1,0.02690,0.02205,0.02205*
1,1,0.02690,0.02205,-0.02205*
1,1,0.02690,-0.02205,-0.02205*
%
%ADD81ROUNDEDRECTD81*%
%ADD82C,0.15761*%
G04:AMPARAMS|DCode=83|XSize=70.99mil|YSize=70.99mil|CornerRadius=13.45mil|HoleSize=0mil|Usage=FLASHONLY|Rotation=90.000|XOffset=0mil|YOffset=0mil|HoleType=Round|Shape=RoundedRectangle|*
%AMROUNDEDRECTD83*
21,1,0.07099,0.04409,0,0,90.0*
21,1,0.04409,0.07099,0,0,90.0*
1,1,0.02690,0.02205,0.02205*
1,1,0.02690,0.02205,-0.02205*
1,1,0.02690,-0.02205,-0.02205*
1,1,0.02690,-0.02205,0.02205*
%
%ADD83ROUNDEDRECTD83*%
G04:AMPARAMS|DCode=84|XSize=82.8mil|YSize=82.8mil|CornerRadius=15.22mil|HoleSize=0mil|Usage=FLASHONLY|Rotation=270.000|XOffset=0mil|YOffset=0mil|HoleType=Round|Shape=RoundedRectangle|*
%AMROUNDEDRECTD84*
21,1,0.08280,0.05236,0,0,270.0*
21,1,0.05236,0.08280,0,0,270.0*
1,1,0.03044,-0.02618,-0.02618*
1,1,0.03044,-0.02618,0.02618*
1,1,0.03044,0.02618,0.02618*
1,1,0.03044,0.02618,-0.02618*
%
%ADD84ROUNDEDRECTD84*%
%ADD85C,0.02362*%
G36*
X0008465Y0025000D02*
Y0024748D01*
X0008366Y0024253D01*
X0008173Y0023788D01*
X0007893Y0023369D01*
X0007537Y0023012D01*
X0007118Y0022732D01*
X0006652Y0022539D01*
X0006157Y0022441D01*
X0005906D01*
X0005654D01*
X0005159Y0022539D01*
X0004693Y0022732D01*
X0004274Y0023012D01*
X0003918Y0023369D01*
X0003638Y0023788D01*
X0003445Y0024253D01*
X0003347Y0024748D01*
Y0025000D01*
Y0025252D01*
X0003445Y0025746D01*
X0003638Y0026212D01*
X0003918Y0026631D01*
X0004274Y0026988D01*
X0004693Y0027268D01*
X0005159Y0027461D01*
X0005654Y0027559D01*
X0005906D01*
X0006157D01*
X0006652Y0027461D01*
X0007118Y0027268D01*
X0007537Y0026988D01*
X0007893Y0026631D01*
X0008173Y0026212D01*
X0008366Y0025746D01*
X0008465Y0025252D01*
Y0025000D01*
D01*
D02*
G37*
G36*
X0274555D02*
Y0024748D01*
X0274457Y0024253D01*
X0274264Y0023788D01*
X0273984Y0023369D01*
X0273627Y0023012D01*
X0273208Y0022732D01*
X0272743Y0022539D01*
X0272248Y0022441D01*
X0271996D01*
X0271744D01*
X0271250Y0022539D01*
X0270784Y0022732D01*
X0270365Y0023012D01*
X0270008Y0023369D01*
X0269728Y0023788D01*
X0269535Y0024253D01*
X0269437Y0024748D01*
Y0025000D01*
Y0025252D01*
X0269535Y0025746D01*
X0269728Y0026212D01*
X0270008Y0026631D01*
X0270365Y0026988D01*
X0270784Y0027268D01*
X0271250Y0027461D01*
X0271744Y0027559D01*
X0271996D01*
X0272248D01*
X0272743Y0027461D01*
X0273208Y0027268D01*
X0273627Y0026988D01*
X0273984Y0026631D01*
X0274264Y0026212D01*
X0274457Y0025746D01*
X0274555Y0025252D01*
Y0025000D01*
D01*
D02*
G37*
G36*
X0145902Y0406000D02*
X0155902D01*
Y0400500D01*
X0145902D01*
Y0406000D01*
D02*
G37*
G36*
X0008465Y0468000D02*
Y0467748D01*
X0008366Y0467253D01*
X0008173Y0466788D01*
X0007893Y0466369D01*
X0007537Y0466012D01*
X0007118Y0465732D01*
X0006652Y0465539D01*
X0006157Y0465441D01*
X0005906D01*
X0005654D01*
X0005159Y0465539D01*
X0004693Y0465732D01*
X0004274Y0466012D01*
X0003918Y0466369D01*
X0003638Y0466788D01*
X0003445Y0467253D01*
X0003347Y0467748D01*
Y0468000D01*
Y0468252D01*
X0003445Y0468747D01*
X0003638Y0469212D01*
X0003918Y0469631D01*
X0004274Y0469988D01*
X0004693Y0470268D01*
X0005159Y0470461D01*
X0005654Y0470559D01*
X0005906D01*
X0006157D01*
X0006652Y0470461D01*
X0007118Y0470268D01*
X0007537Y0469988D01*
X0007893Y0469631D01*
X0008173Y0469212D01*
X0008366Y0468747D01*
X0008465Y0468252D01*
Y0468000D01*
D01*
D02*
G37*
G36*
X0139402Y0417000D02*
X0144902D01*
Y0407000D01*
X0139402D01*
Y0417000D01*
D02*
G37*
G36*
X0145902Y0423500D02*
X0155902D01*
Y0418000D01*
X0145902D01*
Y0423500D01*
D02*
G37*
G36*
X0156902Y0417000D02*
X0162402D01*
Y0407000D01*
X0156902D01*
Y0417000D01*
D02*
G37*
D43*
X0016202Y0252900D02*
X0016302Y0333400D01*
X0060602Y0253400D02*
X0060702Y0333900D01*
D44*
X0200902Y0247299D02*
D03*
Y0234701D02*
D03*
D45*
X0010902Y0052000D02*
D03*
X0266902Y0442000D02*
D03*
X0267902Y0051000D02*
D03*
X0010902Y0441000D02*
D03*
D46*
X0082736Y0238961D02*
D03*
X0077225D02*
D03*
Y0213961D02*
D03*
X0082736D02*
D03*
Y0226461D02*
D03*
X0077225D02*
D03*
D47*
X0114366Y0332449D02*
D03*
Y0330480D02*
D03*
Y0328512D02*
D03*
Y0326543D02*
D03*
Y0324575D02*
D03*
Y0322606D02*
D03*
Y0320638D02*
D03*
Y0318669D02*
D03*
Y0316701D02*
D03*
Y0314732D02*
D03*
Y0312764D02*
D03*
Y0310795D02*
D03*
Y0308827D02*
D03*
Y0306858D02*
D03*
Y0304890D02*
D03*
Y0302921D02*
D03*
Y0300953D02*
D03*
Y0298984D02*
D03*
Y0297016D02*
D03*
Y0295047D02*
D03*
Y0293079D02*
D03*
Y0291110D02*
D03*
Y0289142D02*
D03*
Y0287173D02*
D03*
Y0285205D02*
D03*
Y0283236D02*
D03*
Y0281268D02*
D03*
Y0279299D02*
D03*
Y0277331D02*
D03*
Y0275362D02*
D03*
Y0273394D02*
D03*
Y0271425D02*
D03*
Y0269457D02*
D03*
Y0267488D02*
D03*
Y0265520D02*
D03*
Y0263551D02*
D03*
X0197437D02*
D03*
Y0265520D02*
D03*
Y0267488D02*
D03*
Y0269457D02*
D03*
Y0271425D02*
D03*
Y0273394D02*
D03*
Y0275362D02*
D03*
Y0277331D02*
D03*
Y0279299D02*
D03*
Y0281268D02*
D03*
Y0283236D02*
D03*
Y0285205D02*
D03*
Y0287173D02*
D03*
Y0289142D02*
D03*
Y0291110D02*
D03*
Y0293079D02*
D03*
Y0295047D02*
D03*
Y0297016D02*
D03*
Y0298984D02*
D03*
Y0300953D02*
D03*
Y0302921D02*
D03*
Y0304890D02*
D03*
Y0306858D02*
D03*
Y0308827D02*
D03*
Y0310795D02*
D03*
Y0312764D02*
D03*
Y0314732D02*
D03*
Y0316701D02*
D03*
Y0318669D02*
D03*
Y0320638D02*
D03*
Y0322606D02*
D03*
Y0324575D02*
D03*
Y0326543D02*
D03*
Y0328512D02*
D03*
Y0330480D02*
D03*
Y0332449D02*
D03*
D48*
X0121453Y0256465D02*
D03*
X0123422D02*
D03*
X0125390D02*
D03*
X0127358D02*
D03*
X0129327D02*
D03*
X0131296D02*
D03*
X0133264D02*
D03*
X0135232D02*
D03*
X0137201D02*
D03*
X0139170D02*
D03*
X0141138D02*
D03*
X0143106D02*
D03*
X0145075D02*
D03*
X0147044D02*
D03*
X0149012D02*
D03*
X0150980D02*
D03*
X0152949D02*
D03*
X0154918D02*
D03*
X0156886D02*
D03*
X0158854D02*
D03*
X0160823D02*
D03*
X0162792D02*
D03*
X0164760D02*
D03*
X0166728D02*
D03*
X0168697D02*
D03*
X0170666D02*
D03*
X0172634D02*
D03*
X0174602D02*
D03*
X0176571D02*
D03*
X0178540D02*
D03*
X0180508D02*
D03*
X0182477D02*
D03*
X0184445D02*
D03*
X0186414D02*
D03*
X0188382D02*
D03*
X0190351D02*
D03*
Y0339535D02*
D03*
X0188382D02*
D03*
X0186414D02*
D03*
X0184445D02*
D03*
X0182477D02*
D03*
X0180508D02*
D03*
X0178540D02*
D03*
X0176571D02*
D03*
X0174602D02*
D03*
X0172634D02*
D03*
X0170666D02*
D03*
X0168697D02*
D03*
X0166728D02*
D03*
X0164760D02*
D03*
X0162792D02*
D03*
X0160823D02*
D03*
X0158854D02*
D03*
X0156886D02*
D03*
X0154918D02*
D03*
X0152949D02*
D03*
X0150980D02*
D03*
X0149012D02*
D03*
X0147044D02*
D03*
X0145075D02*
D03*
X0143106D02*
D03*
X0141138D02*
D03*
X0139170D02*
D03*
X0137201D02*
D03*
X0135232D02*
D03*
X0133264D02*
D03*
X0131296D02*
D03*
X0129327D02*
D03*
X0127358D02*
D03*
X0125390D02*
D03*
X0123422D02*
D03*
X0121453D02*
D03*
D49*
X0088902Y0047898D02*
D03*
Y0085299D02*
D03*
D50*
X0122248Y0087000D02*
D03*
X0115555D02*
D03*
X0210555Y0234000D02*
D03*
X0217248D02*
D03*
X0103248Y0258000D02*
D03*
X0096555D02*
D03*
X0097055Y0244500D02*
D03*
X0103748D02*
D03*
X0099248Y0345000D02*
D03*
X0092555D02*
D03*
X0220248Y0251000D02*
D03*
X0213555D02*
D03*
X0099248Y0337000D02*
D03*
X0092555D02*
D03*
X0264248Y0388000D02*
D03*
X0257555D02*
D03*
X0141555Y0087000D02*
D03*
X0148248D02*
D03*
D51*
X0104248Y0286500D02*
D03*
X0097555D02*
D03*
X0258902Y0204000D02*
D03*
X0267169D02*
D03*
Y0211480D02*
D03*
X0258902D02*
D03*
X0088555Y0402000D02*
D03*
X0095248D02*
D03*
X0098748Y0352500D02*
D03*
X0092055D02*
D03*
X0052748Y0143000D02*
D03*
X0046055D02*
D03*
X0052748Y0149500D02*
D03*
X0046055D02*
D03*
X0046055Y0155500D02*
D03*
X0052748D02*
D03*
X0159555Y0098000D02*
D03*
X0166248D02*
D03*
X0068555Y0041000D02*
D03*
X0075248D02*
D03*
X0194555Y0141000D02*
D03*
X0201248D02*
D03*
X0194555Y0147000D02*
D03*
X0201248D02*
D03*
X0194555Y0153000D02*
D03*
X0201248D02*
D03*
X0194555Y0159000D02*
D03*
X0201248D02*
D03*
X0223555Y0126000D02*
D03*
X0230248D02*
D03*
X0066748Y0226500D02*
D03*
X0060055D02*
D03*
X0060555Y0239000D02*
D03*
X0067248D02*
D03*
X0130823Y0419906D02*
D03*
X0124130D02*
D03*
X0069555Y0137000D02*
D03*
X0076248D02*
D03*
X0260555Y0182000D02*
D03*
X0267248D02*
D03*
X0060555Y0214000D02*
D03*
X0067248D02*
D03*
X0110248Y0423000D02*
D03*
X0103555D02*
D03*
X0220248Y0261500D02*
D03*
X0213555D02*
D03*
D52*
X0115953Y0109236D02*
D03*
Y0111205D02*
D03*
Y0113173D02*
D03*
Y0115142D02*
D03*
Y0117110D02*
D03*
Y0119079D02*
D03*
Y0121047D02*
D03*
Y0123016D02*
D03*
Y0124984D02*
D03*
Y0126953D02*
D03*
Y0128921D02*
D03*
Y0130890D02*
D03*
Y0132858D02*
D03*
Y0134827D02*
D03*
Y0136795D02*
D03*
Y0138764D02*
D03*
X0159851D02*
D03*
Y0136795D02*
D03*
Y0134827D02*
D03*
Y0132858D02*
D03*
Y0130890D02*
D03*
Y0128921D02*
D03*
Y0126953D02*
D03*
Y0124984D02*
D03*
Y0123016D02*
D03*
Y0121047D02*
D03*
Y0119079D02*
D03*
Y0117110D02*
D03*
Y0115142D02*
D03*
Y0113173D02*
D03*
Y0111205D02*
D03*
Y0109236D02*
D03*
D53*
X0123138Y0145949D02*
D03*
X0125107D02*
D03*
X0127075D02*
D03*
X0129043D02*
D03*
X0131012D02*
D03*
X0132981D02*
D03*
X0134949D02*
D03*
X0136917D02*
D03*
X0138886D02*
D03*
X0140855D02*
D03*
X0142823D02*
D03*
X0144791D02*
D03*
X0146760D02*
D03*
X0148729D02*
D03*
X0150697D02*
D03*
X0152665D02*
D03*
Y0102051D02*
D03*
X0150697D02*
D03*
X0148729D02*
D03*
X0146760D02*
D03*
X0144791D02*
D03*
X0142823D02*
D03*
X0140855D02*
D03*
X0138886D02*
D03*
X0136917D02*
D03*
X0134949D02*
D03*
X0132981D02*
D03*
X0131012D02*
D03*
X0129043D02*
D03*
X0127075D02*
D03*
X0125107D02*
D03*
X0123138D02*
D03*
D54*
X0121610Y0072000D02*
D03*
X0110193D02*
D03*
X0183193Y0046000D02*
D03*
X0194610D02*
D03*
X0152610Y0072000D02*
D03*
X0141193D02*
D03*
D55*
X0145981Y0403240D02*
D03*
X0147949D02*
D03*
X0149917D02*
D03*
X0151886D02*
D03*
X0153855D02*
D03*
X0155823D02*
D03*
Y0420760D02*
D03*
X0153855D02*
D03*
X0151886D02*
D03*
X0149917D02*
D03*
X0147949D02*
D03*
X0145981D02*
D03*
D56*
X0159662Y0407079D02*
D03*
Y0409047D02*
D03*
Y0411016D02*
D03*
Y0412984D02*
D03*
Y0414953D02*
D03*
Y0416921D02*
D03*
X0142142D02*
D03*
Y0414953D02*
D03*
Y0412984D02*
D03*
Y0411016D02*
D03*
Y0409047D02*
D03*
Y0407079D02*
D03*
D57*
X0150902Y0412000D02*
D03*
D58*
X0221177Y0217260D02*
D03*
Y0224740D02*
D03*
X0230626D02*
D03*
Y0221000D02*
D03*
Y0217260D02*
D03*
D59*
X0016258Y0334445D02*
D03*
Y0331295D02*
D03*
Y0328146D02*
D03*
Y0324996D02*
D03*
Y0321847D02*
D03*
Y0318697D02*
D03*
Y0315547D02*
D03*
Y0312398D02*
D03*
Y0309248D02*
D03*
Y0306098D02*
D03*
Y0302949D02*
D03*
Y0299799D02*
D03*
Y0296650D02*
D03*
Y0293500D02*
D03*
Y0290350D02*
D03*
Y0287201D02*
D03*
Y0284051D02*
D03*
Y0280902D02*
D03*
Y0277752D02*
D03*
Y0274602D02*
D03*
Y0271453D02*
D03*
Y0268303D02*
D03*
Y0265154D02*
D03*
Y0262004D02*
D03*
Y0258854D02*
D03*
Y0255705D02*
D03*
Y0252555D02*
D03*
X0060746Y0334445D02*
D03*
Y0331295D02*
D03*
Y0328146D02*
D03*
Y0324996D02*
D03*
Y0321847D02*
D03*
Y0318697D02*
D03*
Y0315547D02*
D03*
Y0312398D02*
D03*
Y0309248D02*
D03*
Y0306098D02*
D03*
Y0302949D02*
D03*
Y0299799D02*
D03*
Y0296650D02*
D03*
Y0293500D02*
D03*
Y0290350D02*
D03*
Y0287201D02*
D03*
Y0284051D02*
D03*
Y0280902D02*
D03*
Y0277752D02*
D03*
Y0274602D02*
D03*
Y0271453D02*
D03*
Y0268303D02*
D03*
Y0265154D02*
D03*
Y0262004D02*
D03*
Y0258854D02*
D03*
Y0255705D02*
D03*
Y0252555D02*
D03*
D60*
X0061059Y0130500D02*
D03*
Y0125500D02*
D03*
Y0120500D02*
D03*
Y0115500D02*
D03*
X0080744Y0130500D02*
D03*
Y0125500D02*
D03*
Y0120500D02*
D03*
Y0115500D02*
D03*
D61*
X0182627Y0080100D02*
D03*
Y0071000D02*
D03*
Y0061900D02*
D03*
D62*
X0207177Y0071000D02*
D03*
D63*
X0208902Y0225331D02*
D03*
Y0216669D02*
D03*
D64*
X0261540Y0192000D02*
D03*
X0266264D02*
D03*
X0077264Y0299000D02*
D03*
X0072540D02*
D03*
X0010140Y0342500D02*
D03*
X0014864D02*
D03*
X0032364Y0246000D02*
D03*
X0027640D02*
D03*
X0089540Y0417000D02*
D03*
X0094264D02*
D03*
X0094264Y0411000D02*
D03*
X0089539D02*
D03*
X0094540Y0299500D02*
D03*
X0099264D02*
D03*
X0218264Y0299000D02*
D03*
X0213540D02*
D03*
X0218264Y0284000D02*
D03*
X0213540D02*
D03*
X0219264Y0271000D02*
D03*
X0214540D02*
D03*
X0190264Y0403500D02*
D03*
X0185540D02*
D03*
X0087540Y0273000D02*
D03*
X0092264D02*
D03*
X0097540Y0326000D02*
D03*
X0102264D02*
D03*
X0094540Y0295000D02*
D03*
X0099264D02*
D03*
X0096540Y0279500D02*
D03*
X0101264D02*
D03*
X0218264Y0294500D02*
D03*
X0213540D02*
D03*
X0259264Y0234000D02*
D03*
X0254540D02*
D03*
X0218264Y0323000D02*
D03*
X0213540D02*
D03*
X0165264Y0092000D02*
D03*
X0160540D02*
D03*
X0101540Y0148500D02*
D03*
X0106264D02*
D03*
X0177764Y0115500D02*
D03*
X0173040D02*
D03*
X0116540Y0160500D02*
D03*
X0121264D02*
D03*
X0101540Y0139000D02*
D03*
X0106264D02*
D03*
X0146264Y0080000D02*
D03*
X0141540D02*
D03*
X0116540D02*
D03*
X0121264D02*
D03*
X0190264Y0026000D02*
D03*
X0185540D02*
D03*
X0110540Y0099500D02*
D03*
X0115264D02*
D03*
D65*
X0192043Y0245496D02*
D03*
X0233382Y0194315D02*
D03*
X0223540D02*
D03*
X0233382Y0184472D02*
D03*
X0223540D02*
D03*
X0104902Y0411000D02*
D03*
X0137713Y0420299D02*
D03*
X0181217Y0237622D02*
D03*
X0188902Y0369000D02*
D03*
D66*
X0268902Y0093000D02*
D03*
Y0103905D02*
D03*
Y0082095D02*
D03*
Y0132000D02*
D03*
Y0142905D02*
D03*
Y0121095D02*
D03*
D67*
X0101902Y0027650D02*
D03*
Y0021350D02*
D03*
X0224902Y0054850D02*
D03*
Y0061150D02*
D03*
X0008902Y0299150D02*
D03*
Y0292850D02*
D03*
X0239902Y0437150D02*
D03*
Y0430850D02*
D03*
X0058902Y0434150D02*
D03*
Y0427850D02*
D03*
D68*
X0094402Y0027846D02*
D03*
Y0021154D02*
D03*
X0157902Y0161346D02*
D03*
Y0154654D02*
D03*
X0172902Y0145346D02*
D03*
Y0138654D02*
D03*
X0165902Y0443347D02*
D03*
Y0436654D02*
D03*
Y0424653D02*
D03*
Y0431347D02*
D03*
X0217902Y0048346D02*
D03*
Y0041654D02*
D03*
X0130902Y0086847D02*
D03*
Y0080154D02*
D03*
X0077902Y0108346D02*
D03*
Y0101654D02*
D03*
X0071902D02*
D03*
Y0108346D02*
D03*
X0065902D02*
D03*
Y0101654D02*
D03*
X0051402Y0427654D02*
D03*
Y0434346D02*
D03*
X0246902Y0430653D02*
D03*
Y0437347D02*
D03*
D69*
X0271996Y0025000D02*
D03*
X0005906Y0468000D02*
D03*
Y0025000D02*
D03*
D70*
X0136752Y0441000D02*
D03*
X0143051D02*
D03*
X0200051Y0092000D02*
D03*
X0193752D02*
D03*
X0071752Y0318500D02*
D03*
X0078051D02*
D03*
X0088752Y0423000D02*
D03*
X0095051D02*
D03*
X0136752Y0429000D02*
D03*
X0143051D02*
D03*
X0076051Y0374000D02*
D03*
X0069752D02*
D03*
X0108051D02*
D03*
X0101752D02*
D03*
X0135051Y0408000D02*
D03*
X0128752D02*
D03*
X0075051Y0091000D02*
D03*
X0068752D02*
D03*
Y0047000D02*
D03*
X0075051D02*
D03*
D71*
X0210941Y0047835D02*
D03*
Y0042323D02*
D03*
D72*
X0008902Y0305638D02*
D03*
Y0310362D02*
D03*
Y0321638D02*
D03*
Y0326362D02*
D03*
X0151902Y0238138D02*
D03*
Y0242862D02*
D03*
X0165902Y0360362D02*
D03*
Y0355638D02*
D03*
X0195902Y0355362D02*
D03*
Y0350638D02*
D03*
X0131902Y0358362D02*
D03*
Y0353638D02*
D03*
X0152902Y0355362D02*
D03*
Y0350638D02*
D03*
X0148402Y0355362D02*
D03*
Y0350638D02*
D03*
X0169402Y0239138D02*
D03*
Y0243862D02*
D03*
X0126902Y0235138D02*
D03*
Y0239862D02*
D03*
X0144902Y0160362D02*
D03*
Y0155638D02*
D03*
X0046902Y0130362D02*
D03*
Y0125638D02*
D03*
D73*
X0238402Y0222847D02*
D03*
Y0216154D02*
D03*
D74*
X0107603Y0388000D02*
D03*
X0070201D02*
D03*
D75*
X0183193Y0035000D02*
D03*
X0194610D02*
D03*
D76*
X0153902Y0473000D02*
D03*
X0133402Y0383000D02*
D03*
X0182902Y0412500D02*
D03*
X0195902Y0193000D02*
D03*
D77*
X0143902Y0473000D02*
D03*
X0133402Y0393000D02*
D03*
X0143402Y0383000D02*
D03*
Y0393000D02*
D03*
X0153402Y0383000D02*
D03*
Y0393000D02*
D03*
X0163402Y0383000D02*
D03*
Y0393000D02*
D03*
X0173402Y0383000D02*
D03*
Y0393000D02*
D03*
X0183402Y0383000D02*
D03*
Y0393000D02*
D03*
X0193402Y0383000D02*
D03*
Y0393000D02*
D03*
X0192902Y0412500D02*
D03*
X0262902D02*
D03*
X0252902D02*
D03*
X0242902D02*
D03*
X0232902D02*
D03*
X0222902D02*
D03*
X0212902D02*
D03*
X0202902D02*
D03*
X0195902Y0183000D02*
D03*
X0185902Y0193000D02*
D03*
Y0183000D02*
D03*
X0175902Y0193000D02*
D03*
Y0183000D02*
D03*
X0165902Y0193000D02*
D03*
Y0183000D02*
D03*
X0155902Y0193000D02*
D03*
Y0183000D02*
D03*
X0145902Y0193000D02*
D03*
Y0183000D02*
D03*
X0135902Y0193000D02*
D03*
Y0183000D02*
D03*
X0125902Y0193000D02*
D03*
Y0183000D02*
D03*
X0115902Y0193000D02*
D03*
Y0183000D02*
D03*
X0105902Y0193000D02*
D03*
Y0183000D02*
D03*
X0095902Y0193000D02*
D03*
Y0183000D02*
D03*
X0085902Y0193000D02*
D03*
Y0183000D02*
D03*
X0075902Y0193000D02*
D03*
Y0183000D02*
D03*
X0065902Y0193000D02*
D03*
Y0183000D02*
D03*
X0055902Y0193000D02*
D03*
Y0183000D02*
D03*
X0045902Y0193000D02*
D03*
Y0183000D02*
D03*
X0035902Y0193000D02*
D03*
Y0183000D02*
D03*
X0261902Y0246000D02*
D03*
X0251902D02*
D03*
X0261902Y0256000D02*
D03*
X0251902D02*
D03*
X0261902Y0266000D02*
D03*
X0251902D02*
D03*
X0261902Y0276000D02*
D03*
X0251902D02*
D03*
X0261902Y0286000D02*
D03*
X0251902D02*
D03*
X0261902Y0296000D02*
D03*
X0251902D02*
D03*
X0261902Y0306000D02*
D03*
X0251902D02*
D03*
X0261902Y0316000D02*
D03*
X0251902D02*
D03*
X0261902Y0326000D02*
D03*
X0251902D02*
D03*
X0261902Y0336000D02*
D03*
X0251902D02*
D03*
X0261902Y0346000D02*
D03*
X0251902D02*
D03*
X0261902Y0356000D02*
D03*
X0251902D02*
D03*
X0261902Y0366000D02*
D03*
D78*
X0253000Y0468000D02*
D03*
X0024902D02*
D03*
X0025000Y0025000D02*
D03*
X0253000D02*
D03*
D79*
X0234902Y0162000D02*
D03*
Y0136409D02*
D03*
X0217185Y0162000D02*
D03*
Y0136409D02*
D03*
D80*
X0198965Y0442858D02*
D03*
X0189122Y0442858D02*
D03*
X0206839Y0442858D02*
D03*
X0131981Y0059095D02*
D03*
X0141823Y0051221D02*
D03*
X0131981D02*
D03*
X0099823Y0441780D02*
D03*
X0089981D02*
D03*
X0099823Y0433906D02*
D03*
D81*
X0216681Y0442858D02*
D03*
D82*
X0228768Y0453528D02*
D03*
X0177036D02*
D03*
X0160602Y0040551D02*
D03*
X0113201D02*
D03*
X0118603Y0452449D02*
D03*
X0071201D02*
D03*
D83*
X0141823Y0059095D02*
D03*
X0089981Y0433906D02*
D03*
D84*
X0251902Y0366000D02*
D03*
D85*
X0148540Y0409638D02*
D03*
X0153264Y0414362D02*
D03*
X0148540D02*
D03*
X0153264Y0409638D02*
D03*
X0190173Y0271776D02*
D03*
X0189780Y0308882D02*
D03*
X0152083Y0134276D02*
D03*
X0149130Y0109768D02*
D03*
X0140862Y0110063D02*
D03*
X0131315Y0109965D02*
D03*
X0127477Y0137917D02*
D03*
X0123540Y0109571D02*
D03*
X0122555Y0308882D02*
D03*
X0054150Y0309177D02*
D03*
X0233677Y0266559D02*
D03*
X0238847Y0142851D02*
D03*
X0236630Y0146382D02*
D03*
X0237145Y0151574D02*
D03*
X0237122Y0155081D02*
D03*
X0005626Y0342347D02*
D03*
X0123251Y0125349D02*
D03*
X0122555Y0325811D02*
D03*
X0204902Y0263000D02*
D03*
X0181217Y0237622D02*
D03*
X0173302Y0239000D02*
D03*
X0174802Y0217000D02*
D03*
X0173302Y0244000D02*
D03*
X0192043Y0245496D02*
D03*
X0119902Y0420000D02*
D03*
X0237319Y0190378D02*
D03*
X0217634Y0184472D02*
D03*
X0222994Y0323908D02*
D03*
X0004642Y0304945D02*
D03*
X0111729Y0080043D02*
D03*
X0264288Y0112327D02*
D03*
X0269110Y0112721D02*
D03*
X0268815Y0150811D02*
D03*
X0233829Y0367269D02*
D03*
X0139484Y0163213D02*
D03*
X0131436Y0168072D02*
D03*
X0139663Y0169361D02*
D03*
X0248146Y0424630D02*
D03*
X0063107Y0046705D02*
D03*
X0101902Y0016000D02*
D03*
X0094402D02*
D03*
X0051402Y0422098D02*
D03*
X0257402Y0382500D02*
D03*
X0254996Y0082095D02*
D03*
X0208902Y0245000D02*
D03*
X0182477Y0263925D02*
D03*
X0260051Y0227150D02*
D03*
X0045902Y0160500D02*
D03*
X0207902Y0377000D02*
D03*
X0211902Y0374000D02*
D03*
X0100402Y0217000D02*
D03*
X0081402Y0374000D02*
D03*
X0096402D02*
D03*
X0157902Y0436000D02*
D03*
Y0430000D02*
D03*
X0148902Y0427000D02*
D03*
X0266902Y0198000D02*
D03*
X0189902Y0332000D02*
D03*
X0272902Y0182000D02*
D03*
X0092402Y0249000D02*
D03*
X0054002Y0293500D02*
D03*
X0081902Y0299000D02*
D03*
X0083402Y0272500D02*
D03*
X0090402Y0295000D02*
D03*
X0092402Y0279500D02*
D03*
X0121902Y0285500D02*
D03*
X0008902Y0316000D02*
D03*
X0054147Y0328146D02*
D03*
X0078402Y0314000D02*
D03*
X0054002Y0334500D02*
D03*
X0022902Y0441000D02*
D03*
X0058902Y0422000D02*
D03*
X0086902Y0345000D02*
D03*
Y0337000D02*
D03*
X0083902Y0411000D02*
D03*
Y0417000D02*
D03*
Y0423000D02*
D03*
X0090402Y0299500D02*
D03*
X0097402Y0329500D02*
D03*
X0134902Y0332000D02*
D03*
X0128402Y0358500D02*
D03*
X0123902Y0408000D02*
D03*
X0131902Y0429000D02*
D03*
X0146902Y0331500D02*
D03*
X0182477Y0331075D02*
D03*
X0144902Y0355500D02*
D03*
X0152902Y0360000D02*
D03*
X0162402Y0360500D02*
D03*
X0234051Y0430850D02*
D03*
X0200902Y0170000D02*
D03*
X0063902Y0041000D02*
D03*
X0145702Y0235000D02*
D03*
X0063902Y0091000D02*
D03*
X0046902Y0121000D02*
D03*
Y0135000D02*
D03*
X0191902Y0350500D02*
D03*
X0151902Y0080000D02*
D03*
X0095902Y0139000D02*
D03*
X0160902Y0233000D02*
D03*
X0159902Y0239000D02*
D03*
X0169402Y0234500D02*
D03*
X0200152Y0371000D02*
D03*
X0222402Y0299000D02*
D03*
Y0294500D02*
D03*
Y0284000D02*
D03*
X0223902Y0270500D02*
D03*
X0226902Y0251000D02*
D03*
X0204902Y0256000D02*
D03*
X0187902Y0301000D02*
D03*
X0151902Y0234000D02*
D03*
X0130902Y0233500D02*
D03*
X0145902Y0226000D02*
D03*
X0131902Y0227000D02*
D03*
X0161902Y0217000D02*
D03*
X0114402Y0217500D02*
D03*
X0168402Y0208500D02*
D03*
X0171902Y0205000D02*
D03*
X0151402D02*
D03*
X0110402Y0201500D02*
D03*
X0103902Y0239500D02*
D03*
X0004902Y0310000D02*
D03*
X0008902Y0288000D02*
D03*
X0122902Y0291000D02*
D03*
X0223902Y0234000D02*
D03*
X0142402Y0265500D02*
D03*
X0092402Y0269000D02*
D03*
X0102402Y0322000D02*
D03*
X0032402Y0242000D02*
D03*
X0072402Y0295000D02*
D03*
X0172902Y0119500D02*
D03*
X0151918Y0124984D02*
D03*
X0150402Y0138500D02*
D03*
X0104402Y0099500D02*
D03*
X0104902Y0072000D02*
D03*
X0157902D02*
D03*
X0130902Y0075000D02*
D03*
X0170902Y0098000D02*
D03*
X0153902Y0086000D02*
D03*
X0157402Y0266000D02*
D03*
X0157902Y0249000D02*
D03*
X0054002Y0280000D02*
D03*
X0020402Y0342500D02*
D03*
X0094902Y0239000D02*
D03*
X0089902D02*
D03*
X0082902Y0245000D02*
D03*
X0159902Y0244000D02*
D03*
X0210902Y0054000D02*
D03*
X0217902Y0053000D02*
D03*
X0199902Y0097000D02*
D03*
X0176402Y0071000D02*
D03*
X0229902Y0055000D02*
D03*
X0232902Y0374000D02*
D03*
X0096902Y0148500D02*
D03*
X0183902Y0226000D02*
D03*
X0165902Y0223000D02*
D03*
X0188902Y0226000D02*
D03*
X0205902Y0187000D02*
D03*
X0170902Y0092000D02*
D03*
X0195902Y0026000D02*
D03*
X0165902Y0411000D02*
D03*
X0128433Y0162900D02*
D03*
X0189902Y0159000D02*
D03*
Y0153000D02*
D03*
Y0147000D02*
D03*
Y0141000D02*
D03*
X0214902Y0360000D02*
D03*
X0112402Y0160500D02*
D03*
X0008902Y0330500D02*
D03*
X0027402Y0242000D02*
D03*
X0053902Y0239000D02*
D03*
X0010902Y0064000D02*
D03*
X0267902D02*
D03*
X0266902Y0430000D02*
D03*
X0075902Y0464000D02*
D03*
X0123146D02*
D03*
X0225902D02*
D03*
X0104902Y0345000D02*
D03*
X0025902Y0214000D02*
D03*
X0026902Y0164000D02*
D03*
X0027902Y0114000D02*
D03*
X0226402Y0089000D02*
D03*
X0235402Y0126000D02*
D03*
X0144902Y0166000D02*
D03*
X0131402Y0441000D02*
D03*
X0172259Y0420000D02*
D03*
X0165902Y0450000D02*
D03*
X0026591Y0294315D02*
D03*
X0109902Y0087000D02*
D03*
X0193902Y0097000D02*
D03*
X0177902Y0119500D02*
D03*
X0147902Y0441000D02*
D03*
X0057902Y0155500D02*
D03*
Y0149500D02*
D03*
Y0142500D02*
D03*
X0184402Y0209000D02*
D03*
X0099402Y0303500D02*
D03*
X0135402Y0358500D02*
D03*
X0144902Y0350500D02*
D03*
X0148402Y0360000D02*
D03*
X0169402Y0355500D02*
D03*
X0128402Y0354000D02*
D03*
X0135402D02*
D03*
X0169402Y0360500D02*
D03*
X0191902Y0355500D02*
D03*
X0199902D02*
D03*
Y0350500D02*
D03*
X0071902Y0314000D02*
D03*
X0102402Y0329500D02*
D03*
X0097402Y0322000D02*
D03*
X0077402Y0295000D02*
D03*
X0087402Y0269000D02*
D03*
X0103402Y0252500D02*
D03*
X0090902Y0258000D02*
D03*
X0096402Y0252500D02*
D03*
X0114402Y0222000D02*
D03*
X0130902Y0240000D02*
D03*
X0122902D02*
D03*
Y0233500D02*
D03*
X0147902Y0243000D02*
D03*
X0214402Y0267000D02*
D03*
X0219402D02*
D03*
X0213402Y0288000D02*
D03*
X0218402D02*
D03*
X0213402Y0303000D02*
D03*
Y0327000D02*
D03*
X0218402D02*
D03*
X0257402Y0393500D02*
D03*
X0264402Y0382000D02*
D03*
Y0393500D02*
D03*
X0121402Y0164500D02*
D03*
X0106402Y0143000D02*
D03*
X0161902Y0355500D02*
D03*
X0246402Y0217500D02*
D03*
Y0213000D02*
D03*
X0245902Y0223000D02*
D03*
X0217402Y0240500D02*
D03*
X0214402Y0071000D02*
D03*
X0199622Y0070535D02*
D03*
X0190075Y0070945D02*
D03*
Y0079945D02*
D03*
X0199622Y0080535D02*
D03*
M02*
