G04*
G04 #@! TF.GenerationSoftware,Altium Limited,Altium Designer,20.0.13 (296)*
G04*
G04 Layer_Physical_Order=4*
G04 Layer_Color=16711680*
%FSAX25Y25*%
%MOIN*%
G70*
G01*
G75*
%ADD12C,0.01000*%
%ADD14C,0.00600*%
%ADD16R,0.14961X0.03937*%
%ADD22C,0.03000*%
%ADD32R,0.05118X0.07087*%
%ADD37R,0.16000X0.16000*%
%ADD88C,0.02000*%
%ADD90C,0.01200*%
%ADD91C,0.05000*%
%ADD95R,0.05906X0.05906*%
%ADD96C,0.05906*%
%ADD97C,0.07874*%
%ADD98R,0.05906X0.05906*%
%ADD99C,0.14961*%
%ADD100C,0.06299*%
%ADD101R,0.06299X0.06299*%
%ADD102C,0.22835*%
%ADD103R,0.06299X0.06299*%
%ADD104C,0.02400*%
G36*
X0429728Y0777340D02*
X0432325Y0776898D01*
X0434856Y0776169D01*
X0437289Y0775161D01*
X0439594Y0773887D01*
X0441742Y0772363D01*
X0443706Y0770608D01*
X0445461Y0768644D01*
X0446986Y0766496D01*
X0448260Y0764191D01*
X0449268Y0761757D01*
X0449997Y0759226D01*
X0450438Y0756630D01*
X0450560Y0754451D01*
X0450471Y0754000D01*
Y0737312D01*
X0450000Y0737000D01*
X0449871Y0737000D01*
X0441500D01*
Y0728000D01*
Y0719000D01*
X0449871D01*
X0450000Y0719000D01*
X0450471Y0718688D01*
Y0533212D01*
X0449871Y0533008D01*
X0449496Y0533496D01*
X0439774Y0543219D01*
X0439453Y0543993D01*
X0438819Y0544819D01*
X0437993Y0545453D01*
X0437032Y0545851D01*
X0436000Y0545987D01*
X0434968Y0545851D01*
X0434007Y0545453D01*
X0433181Y0544819D01*
X0432547Y0543993D01*
X0432149Y0543032D01*
X0432013Y0542000D01*
X0432149Y0540968D01*
X0432547Y0540007D01*
X0433181Y0539181D01*
X0434007Y0538547D01*
X0434781Y0538227D01*
X0436479Y0536529D01*
X0436198Y0535961D01*
X0436000Y0535987D01*
X0434968Y0535851D01*
X0434007Y0535453D01*
X0433181Y0534819D01*
X0432547Y0533993D01*
X0432149Y0533032D01*
X0432013Y0532000D01*
X0432149Y0530968D01*
X0432547Y0530007D01*
X0433181Y0529181D01*
X0434007Y0528547D01*
X0434968Y0528149D01*
X0436000Y0528013D01*
X0437032Y0528149D01*
X0437993Y0528547D01*
X0438819Y0529181D01*
X0439453Y0530007D01*
X0439851Y0530968D01*
X0439987Y0532000D01*
X0439961Y0532198D01*
X0440529Y0532479D01*
X0443470Y0529538D01*
Y0512962D01*
X0437538Y0507030D01*
X0421000D01*
X0420750Y0506997D01*
X0420500Y0507030D01*
X0419586Y0506910D01*
X0419026Y0506678D01*
X0418426Y0507032D01*
Y0659351D01*
X0421137Y0662063D01*
X0421425Y0662493D01*
X0421525Y0663000D01*
X0421425Y0663507D01*
X0421325Y0663656D01*
Y0680951D01*
X0435300Y0694926D01*
X0435968Y0694649D01*
X0437000Y0694513D01*
X0438032Y0694649D01*
X0438993Y0695047D01*
X0439819Y0695681D01*
X0440453Y0696507D01*
X0440851Y0697468D01*
X0440987Y0698500D01*
X0440851Y0699532D01*
X0440453Y0700493D01*
X0439819Y0701319D01*
X0438993Y0701953D01*
X0438032Y0702351D01*
X0437000Y0702487D01*
X0435968Y0702351D01*
X0435007Y0701953D01*
X0434181Y0701319D01*
X0433547Y0700493D01*
X0433149Y0699532D01*
X0433013Y0698500D01*
X0433149Y0697468D01*
X0433426Y0696800D01*
X0419063Y0682437D01*
X0418775Y0682007D01*
X0418675Y0681500D01*
Y0664526D01*
X0383627D01*
X0383586Y0664586D01*
X0382858Y0665072D01*
X0382000Y0665243D01*
X0381142Y0665072D01*
X0380414Y0664586D01*
X0379928Y0663858D01*
X0379757Y0663000D01*
X0379928Y0662142D01*
X0380414Y0661414D01*
X0381142Y0660928D01*
X0382000Y0660757D01*
X0382858Y0660928D01*
X0383586Y0661414D01*
X0384069Y0661070D01*
X0383928Y0660858D01*
X0383757Y0660000D01*
X0383928Y0659142D01*
X0384072Y0658925D01*
X0383751Y0658325D01*
X0376010D01*
X0375836Y0658586D01*
X0375108Y0659072D01*
X0374250Y0659243D01*
X0373392Y0659072D01*
X0372664Y0658586D01*
X0372178Y0657858D01*
X0372007Y0657000D01*
X0372178Y0656142D01*
X0372664Y0655414D01*
X0373392Y0654928D01*
X0374250Y0654757D01*
X0375108Y0654928D01*
X0375836Y0655414D01*
X0376010Y0655675D01*
X0404451D01*
X0407818Y0652307D01*
X0407757Y0652000D01*
X0407928Y0651142D01*
X0408414Y0650414D01*
X0409142Y0649928D01*
X0409212Y0649914D01*
X0413375Y0645751D01*
Y0622348D01*
X0412775Y0622100D01*
X0390575Y0644300D01*
X0390586Y0644414D01*
X0391072Y0645142D01*
X0391243Y0646000D01*
X0391072Y0646858D01*
X0390586Y0647586D01*
X0389858Y0648072D01*
X0389000Y0648243D01*
X0388142Y0648072D01*
X0387414Y0647586D01*
X0386928Y0646858D01*
X0386757Y0646000D01*
X0386928Y0645142D01*
X0387414Y0644414D01*
X0387674Y0644240D01*
Y0644000D01*
X0387775Y0643493D01*
X0388063Y0643063D01*
X0411074Y0620051D01*
Y0555947D01*
X0410474Y0555455D01*
X0410000Y0555549D01*
X0409024Y0555355D01*
X0408198Y0554802D01*
X0407645Y0553975D01*
X0407534Y0553418D01*
X0387155Y0533039D01*
X0384448D01*
X0383976Y0533355D01*
X0383000Y0533549D01*
X0382025Y0533355D01*
X0381198Y0532802D01*
X0380645Y0531976D01*
X0380451Y0531000D01*
X0380645Y0530024D01*
X0381198Y0529198D01*
X0382025Y0528645D01*
X0383000Y0528451D01*
X0383976Y0528645D01*
X0384448Y0528961D01*
X0388000D01*
X0388780Y0529116D01*
X0389442Y0529558D01*
X0410418Y0550534D01*
X0410474Y0550545D01*
X0411074Y0550053D01*
Y0496794D01*
X0411175Y0496287D01*
X0411463Y0495857D01*
X0414075Y0493245D01*
Y0450218D01*
X0413475Y0450099D01*
X0413312Y0450490D01*
X0412521Y0451521D01*
X0411490Y0452313D01*
X0410289Y0452810D01*
X0409500Y0452914D01*
Y0448000D01*
Y0443086D01*
X0410289Y0443190D01*
X0411490Y0443687D01*
X0412285Y0444298D01*
X0412881Y0444153D01*
X0412919Y0444129D01*
X0412960Y0444093D01*
X0413414Y0443414D01*
X0414142Y0442928D01*
X0415000Y0442757D01*
X0415651Y0442886D01*
X0416167Y0442573D01*
X0416256Y0442472D01*
X0416290Y0442164D01*
X0415307Y0441182D01*
X0415000Y0441243D01*
X0414142Y0441072D01*
X0413414Y0440586D01*
X0412928Y0439858D01*
X0412757Y0439000D01*
X0412928Y0438142D01*
X0413414Y0437414D01*
X0414142Y0436928D01*
X0415000Y0436757D01*
X0415858Y0436928D01*
X0416586Y0437414D01*
X0416974Y0437994D01*
X0417587Y0437888D01*
X0417625Y0437499D01*
X0415307Y0435182D01*
X0415000Y0435243D01*
X0414142Y0435072D01*
X0413414Y0434586D01*
X0412928Y0433858D01*
X0412757Y0433000D01*
X0412928Y0432142D01*
X0413414Y0431414D01*
X0414142Y0430928D01*
X0414754Y0430806D01*
Y0430194D01*
X0414142Y0430072D01*
X0413414Y0429586D01*
X0412928Y0428858D01*
X0412757Y0428000D01*
X0412928Y0427142D01*
X0413414Y0426414D01*
X0414142Y0425928D01*
X0415000Y0425757D01*
X0415858Y0425928D01*
X0416586Y0426414D01*
X0417072Y0427142D01*
X0417243Y0428000D01*
X0417182Y0428307D01*
X0421137Y0432263D01*
X0421425Y0432693D01*
X0421525Y0433200D01*
Y0494492D01*
X0421427Y0494987D01*
X0421424Y0495004D01*
X0421423Y0495090D01*
X0421678Y0495700D01*
X0422265Y0495943D01*
X0422996Y0496504D01*
X0423557Y0497235D01*
X0423910Y0498086D01*
X0424030Y0499000D01*
Y0499970D01*
X0439000D01*
X0439914Y0500090D01*
X0440765Y0500443D01*
X0441496Y0501004D01*
X0449496Y0509004D01*
X0449871Y0509492D01*
X0450471Y0509288D01*
Y0431874D01*
X0443500D01*
Y0428905D01*
Y0425937D01*
X0450471D01*
Y0410063D01*
X0443500D01*
Y0407094D01*
Y0404126D01*
X0450471D01*
Y0392874D01*
X0443500D01*
Y0389906D01*
Y0386937D01*
X0450471D01*
Y0371063D01*
X0443500D01*
Y0368094D01*
Y0365126D01*
X0450471D01*
Y0346000D01*
X0442500D01*
Y0337000D01*
Y0328000D01*
X0450471D01*
Y0311098D01*
X0450565Y0310626D01*
X0450438Y0308370D01*
X0449997Y0305774D01*
X0449268Y0303243D01*
X0448260Y0300809D01*
X0446986Y0298504D01*
X0445461Y0296356D01*
X0443706Y0294392D01*
X0441742Y0292637D01*
X0439594Y0291113D01*
X0437289Y0289839D01*
X0434856Y0288831D01*
X0432325Y0288102D01*
X0429728Y0287661D01*
X0427163Y0287516D01*
X0427098Y0287529D01*
X0199197D01*
X0199120Y0287514D01*
X0199098Y0287513D01*
X0196469Y0287661D01*
X0193872Y0288102D01*
X0191341Y0288831D01*
X0188908Y0289839D01*
X0186602Y0291113D01*
X0184454Y0292637D01*
X0182491Y0294392D01*
X0180735Y0296356D01*
X0179211Y0298504D01*
X0177937Y0300809D01*
X0176929Y0303243D01*
X0176200Y0305774D01*
X0175759Y0308370D01*
X0175612Y0310984D01*
X0175628Y0311000D01*
X0175628D01*
X0175529Y0311494D01*
Y0328688D01*
X0176000Y0329000D01*
X0176129Y0329000D01*
X0184500D01*
Y0338000D01*
Y0347000D01*
X0176129D01*
X0176000Y0347000D01*
X0175529Y0347312D01*
Y0717688D01*
X0176000Y0718000D01*
X0176129Y0718000D01*
X0184500D01*
Y0727000D01*
Y0736000D01*
X0176129D01*
X0176000Y0736000D01*
X0175529Y0736312D01*
Y0753902D01*
X0175514Y0753979D01*
X0175513Y0754000D01*
X0175661Y0756630D01*
X0176102Y0759226D01*
X0176831Y0761757D01*
X0177839Y0764191D01*
X0179113Y0766496D01*
X0180637Y0768644D01*
X0182392Y0770608D01*
X0184356Y0772363D01*
X0186504Y0773887D01*
X0188809Y0775161D01*
X0191243Y0776169D01*
X0193774Y0776898D01*
X0196370Y0777340D01*
X0198935Y0777484D01*
X0199000Y0777471D01*
X0427000D01*
X0427077Y0777486D01*
X0427098Y0777487D01*
X0429728Y0777340D01*
D02*
G37*
%LPC*%
G36*
X0331268Y0775043D02*
X0324150D01*
Y0769500D01*
X0319850D01*
Y0775043D01*
X0312732D01*
Y0769500D01*
X0305000D01*
Y0739000D01*
X0338000D01*
X0338500Y0739500D01*
Y0769500D01*
X0331268D01*
Y0775043D01*
D02*
G37*
G36*
X0351134Y0748049D02*
X0349471Y0747885D01*
X0347873Y0747400D01*
X0346400Y0746613D01*
X0345108Y0745553D01*
X0344049Y0744262D01*
X0343261Y0742789D01*
X0342776Y0741190D01*
X0342613Y0739528D01*
X0342776Y0737865D01*
X0343261Y0736267D01*
X0343854Y0735157D01*
X0343367Y0734796D01*
X0342230Y0735933D01*
X0342243Y0736000D01*
X0342072Y0736858D01*
X0341586Y0737586D01*
X0340858Y0738072D01*
X0340000Y0738243D01*
X0339142Y0738072D01*
X0338414Y0737586D01*
X0337928Y0736858D01*
X0337757Y0736000D01*
X0337928Y0735142D01*
X0338414Y0734414D01*
X0339142Y0733928D01*
X0340000Y0733757D01*
X0340067Y0733770D01*
X0344828Y0729009D01*
Y0707624D01*
X0344772Y0707586D01*
X0344285Y0706858D01*
X0344115Y0706000D01*
X0344285Y0705142D01*
X0344772Y0704414D01*
X0345499Y0703928D01*
X0346358Y0703757D01*
X0347216Y0703928D01*
X0347944Y0704414D01*
X0348430Y0705142D01*
X0348601Y0706000D01*
X0348430Y0706858D01*
X0347944Y0707586D01*
X0347887Y0707624D01*
Y0729642D01*
X0347771Y0730228D01*
X0347439Y0730724D01*
X0346402Y0731761D01*
X0346764Y0732248D01*
X0347873Y0731655D01*
X0349471Y0731170D01*
X0351134Y0731006D01*
X0352796Y0731170D01*
X0354395Y0731655D01*
X0355868Y0732442D01*
X0357159Y0733502D01*
X0358219Y0734793D01*
X0359007Y0736267D01*
X0359491Y0737865D01*
X0359655Y0739528D01*
X0359491Y0741190D01*
X0359007Y0742789D01*
X0358219Y0744262D01*
X0357159Y0745553D01*
X0355868Y0746613D01*
X0354395Y0747400D01*
X0352796Y0747885D01*
X0351134Y0748049D01*
D02*
G37*
G36*
X0225969Y0774100D02*
X0215968D01*
Y0744100D01*
X0215800D01*
Y0734100D01*
X0225969D01*
Y0774100D01*
D02*
G37*
G36*
X0402866Y0748049D02*
X0401204Y0747885D01*
X0399605Y0747400D01*
X0398132Y0746613D01*
X0396841Y0745553D01*
X0395781Y0744262D01*
X0394993Y0742789D01*
X0394509Y0741190D01*
X0394345Y0739528D01*
X0394509Y0737865D01*
X0394993Y0736267D01*
X0395781Y0734793D01*
X0396841Y0733502D01*
X0398132Y0732442D01*
X0399605Y0731655D01*
X0401204Y0731170D01*
X0402866Y0731006D01*
X0404529Y0731170D01*
X0406127Y0731655D01*
X0407600Y0732442D01*
X0408892Y0733502D01*
X0409951Y0734793D01*
X0410739Y0736267D01*
X0411224Y0737865D01*
X0411387Y0739528D01*
X0411224Y0741190D01*
X0410739Y0742789D01*
X0409951Y0744262D01*
X0408892Y0745553D01*
X0407600Y0746613D01*
X0406127Y0747400D01*
X0404529Y0747885D01*
X0402866Y0748049D01*
D02*
G37*
G36*
X0380937Y0733044D02*
X0379854Y0732901D01*
X0378844Y0732483D01*
X0377977Y0731818D01*
X0377328Y0730972D01*
X0377004Y0730921D01*
X0376996D01*
X0376672Y0730972D01*
X0376023Y0731818D01*
X0375156Y0732483D01*
X0374146Y0732901D01*
X0373063Y0733044D01*
X0371980Y0732901D01*
X0370970Y0732483D01*
X0370104Y0731818D01*
X0369438Y0730951D01*
X0369020Y0729942D01*
X0368878Y0728858D01*
X0369020Y0727775D01*
X0369438Y0726766D01*
X0370104Y0725899D01*
X0370970Y0725234D01*
X0371980Y0724816D01*
X0373063Y0724673D01*
X0374146Y0724816D01*
X0375156Y0725234D01*
X0376023Y0725899D01*
X0376672Y0726745D01*
X0376996Y0726795D01*
X0377004D01*
X0377328Y0726745D01*
X0377977Y0725899D01*
X0378844Y0725234D01*
X0379854Y0724816D01*
X0380937Y0724673D01*
X0382020Y0724816D01*
X0383030Y0725234D01*
X0383896Y0725899D01*
X0384562Y0726766D01*
X0384980Y0727775D01*
X0385122Y0728858D01*
X0384980Y0729942D01*
X0384562Y0730951D01*
X0383896Y0731818D01*
X0383030Y0732483D01*
X0382020Y0732901D01*
X0380937Y0733044D01*
D02*
G37*
G36*
X0292701Y0746970D02*
X0291038Y0746806D01*
X0289440Y0746321D01*
X0287967Y0745534D01*
X0286675Y0744474D01*
X0285615Y0743183D01*
X0284828Y0741710D01*
X0284343Y0740111D01*
X0284179Y0738449D01*
X0284343Y0736786D01*
X0284828Y0735188D01*
X0285615Y0733715D01*
X0286675Y0732423D01*
X0287967Y0731364D01*
X0289440Y0730576D01*
X0291038Y0730091D01*
X0292701Y0729927D01*
X0294363Y0730091D01*
X0295962Y0730576D01*
X0297435Y0731364D01*
X0298726Y0732423D01*
X0299786Y0733715D01*
X0300573Y0735188D01*
X0301058Y0736786D01*
X0301222Y0738449D01*
X0301058Y0740111D01*
X0300573Y0741710D01*
X0299786Y0743183D01*
X0298726Y0744474D01*
X0297435Y0745534D01*
X0295962Y0746321D01*
X0294363Y0746806D01*
X0292701Y0746970D01*
D02*
G37*
G36*
X0245299D02*
X0243637Y0746806D01*
X0242038Y0746321D01*
X0240565Y0745534D01*
X0239274Y0744474D01*
X0238214Y0743183D01*
X0237426Y0741710D01*
X0236942Y0740111D01*
X0236778Y0738449D01*
X0236942Y0736786D01*
X0237426Y0735188D01*
X0238214Y0733715D01*
X0239274Y0732423D01*
X0240565Y0731364D01*
X0242038Y0730576D01*
X0243637Y0730091D01*
X0245299Y0729927D01*
X0246962Y0730091D01*
X0248560Y0730576D01*
X0250033Y0731364D01*
X0251325Y0732423D01*
X0252384Y0733715D01*
X0253172Y0735188D01*
X0253657Y0736786D01*
X0253821Y0738449D01*
X0253657Y0740111D01*
X0253172Y0741710D01*
X0252384Y0743183D01*
X0251325Y0744474D01*
X0250033Y0745534D01*
X0248560Y0746321D01*
X0246962Y0746806D01*
X0245299Y0746970D01*
D02*
G37*
G36*
X0363720Y0732978D02*
Y0729358D01*
X0367340D01*
X0367263Y0729942D01*
X0366845Y0730951D01*
X0366180Y0731818D01*
X0365313Y0732483D01*
X0364304Y0732901D01*
X0363720Y0732978D01*
D02*
G37*
G36*
X0362720Y0732978D02*
X0362137Y0732901D01*
X0361128Y0732483D01*
X0360261Y0731818D01*
X0359596Y0730951D01*
X0359178Y0729942D01*
X0359101Y0729358D01*
X0362720D01*
Y0732978D01*
D02*
G37*
G36*
X0440500Y0737000D02*
X0432000D01*
Y0728500D01*
X0440500D01*
Y0737000D01*
D02*
G37*
G36*
X0264579Y0731899D02*
Y0728279D01*
X0268198D01*
X0268122Y0728863D01*
X0267703Y0729872D01*
X0267038Y0730739D01*
X0266172Y0731404D01*
X0265162Y0731822D01*
X0264579Y0731899D01*
D02*
G37*
G36*
X0263579Y0731899D02*
X0262996Y0731822D01*
X0261986Y0731404D01*
X0261119Y0730739D01*
X0260454Y0729872D01*
X0260036Y0728863D01*
X0259959Y0728279D01*
X0263579D01*
Y0731899D01*
D02*
G37*
G36*
X0185500Y0736000D02*
Y0727500D01*
X0194000D01*
Y0736000D01*
X0185500D01*
D02*
G37*
G36*
X0367340Y0728358D02*
X0363720D01*
Y0724739D01*
X0364304Y0724816D01*
X0365313Y0725234D01*
X0366180Y0725899D01*
X0366845Y0726766D01*
X0367263Y0727775D01*
X0367340Y0728358D01*
D02*
G37*
G36*
X0362720D02*
X0359101D01*
X0359178Y0727775D01*
X0359596Y0726766D01*
X0360261Y0725899D01*
X0361128Y0725234D01*
X0362137Y0724816D01*
X0362720Y0724739D01*
Y0728358D01*
D02*
G37*
G36*
X0394929Y0733008D02*
X0386630D01*
Y0724709D01*
X0394929D01*
Y0733008D01*
D02*
G37*
G36*
X0322000Y0729549D02*
X0321024Y0729355D01*
X0320198Y0728802D01*
X0319645Y0727976D01*
X0319451Y0727000D01*
X0319645Y0726024D01*
X0320198Y0725198D01*
X0321024Y0724645D01*
X0322000Y0724451D01*
X0322975Y0724645D01*
X0323802Y0725198D01*
X0324355Y0726024D01*
X0324549Y0727000D01*
X0324355Y0727976D01*
X0323802Y0728802D01*
X0322975Y0729355D01*
X0322000Y0729549D01*
D02*
G37*
G36*
X0440500Y0727500D02*
X0432000D01*
Y0719000D01*
X0440500D01*
Y0727500D01*
D02*
G37*
G36*
X0194000Y0726500D02*
X0185500D01*
Y0718000D01*
X0194000D01*
Y0726500D01*
D02*
G37*
G36*
X0268198Y0727280D02*
X0264079D01*
X0259959D01*
X0260036Y0726696D01*
X0260454Y0725687D01*
X0261119Y0724820D01*
X0261334Y0724655D01*
X0261130Y0724055D01*
X0259929D01*
Y0715756D01*
X0268228D01*
Y0724055D01*
X0267027D01*
X0266823Y0724655D01*
X0267038Y0724820D01*
X0267703Y0725687D01*
X0268122Y0726696D01*
X0268198Y0727280D01*
D02*
G37*
G36*
X0273921Y0731965D02*
X0272838Y0731822D01*
X0271829Y0731404D01*
X0270962Y0730739D01*
X0270297Y0729872D01*
X0269879Y0728863D01*
X0269736Y0727779D01*
X0269879Y0726696D01*
X0270297Y0725687D01*
X0270962Y0724820D01*
X0271808Y0724171D01*
X0271858Y0723847D01*
Y0723839D01*
X0271808Y0723514D01*
X0270962Y0722865D01*
X0270297Y0721998D01*
X0269879Y0720989D01*
X0269736Y0719906D01*
X0269879Y0718822D01*
X0270297Y0717813D01*
X0270962Y0716946D01*
X0271829Y0716281D01*
X0272838Y0715863D01*
X0273921Y0715720D01*
X0275005Y0715863D01*
X0276014Y0716281D01*
X0276881Y0716946D01*
X0277546Y0717813D01*
X0277964Y0718822D01*
X0278107Y0719906D01*
X0277964Y0720989D01*
X0277546Y0721998D01*
X0276881Y0722865D01*
X0276035Y0723514D01*
X0275984Y0723839D01*
Y0723847D01*
X0276035Y0724171D01*
X0276881Y0724820D01*
X0277546Y0725687D01*
X0277964Y0726696D01*
X0278107Y0727779D01*
X0277964Y0728863D01*
X0277546Y0729872D01*
X0276881Y0730739D01*
X0276014Y0731404D01*
X0275005Y0731822D01*
X0273921Y0731965D01*
D02*
G37*
G36*
X0332000Y0724243D02*
X0331142Y0724072D01*
X0330414Y0723586D01*
X0329928Y0722858D01*
X0329757Y0722000D01*
X0329928Y0721142D01*
X0330414Y0720414D01*
X0330471Y0720376D01*
Y0717624D01*
X0330414Y0717586D01*
X0329928Y0716858D01*
X0329757Y0716000D01*
X0329928Y0715142D01*
X0330414Y0714414D01*
X0331142Y0713928D01*
X0332000Y0713757D01*
X0332858Y0713928D01*
X0333586Y0714414D01*
X0334072Y0715142D01*
X0334243Y0716000D01*
X0334072Y0716858D01*
X0333586Y0717586D01*
X0333529Y0717624D01*
Y0720376D01*
X0333586Y0720414D01*
X0334072Y0721142D01*
X0334243Y0722000D01*
X0334072Y0722858D01*
X0333586Y0723586D01*
X0332858Y0724072D01*
X0332000Y0724243D01*
D02*
G37*
G36*
X0323000Y0715549D02*
X0322024Y0715355D01*
X0321198Y0714802D01*
X0320645Y0713975D01*
X0320451Y0713000D01*
X0320645Y0712024D01*
X0321198Y0711198D01*
X0322024Y0710645D01*
X0323000Y0710451D01*
X0323975Y0710645D01*
X0324802Y0711198D01*
X0325355Y0712024D01*
X0325549Y0713000D01*
X0325355Y0713975D01*
X0324802Y0714802D01*
X0323975Y0715355D01*
X0323000Y0715549D01*
D02*
G37*
G36*
X0367500Y0702421D02*
Y0699000D01*
X0370921D01*
X0370851Y0699532D01*
X0370453Y0700493D01*
X0369819Y0701319D01*
X0368993Y0701953D01*
X0368032Y0702351D01*
X0367500Y0702421D01*
D02*
G37*
G36*
X0366500D02*
X0365968Y0702351D01*
X0365007Y0701953D01*
X0364181Y0701319D01*
X0363547Y0700493D01*
X0363149Y0699532D01*
X0363079Y0699000D01*
X0366500D01*
Y0702421D01*
D02*
G37*
G36*
X0370921Y0698000D02*
X0367500D01*
Y0694579D01*
X0368032Y0694649D01*
X0368993Y0695047D01*
X0369819Y0695681D01*
X0370453Y0696507D01*
X0370851Y0697468D01*
X0370921Y0698000D01*
D02*
G37*
G36*
X0366500D02*
X0363079D01*
X0363149Y0697468D01*
X0363547Y0696507D01*
X0364181Y0695681D01*
X0365007Y0695047D01*
X0365968Y0694649D01*
X0366500Y0694579D01*
Y0698000D01*
D02*
G37*
G36*
X0360953Y0702453D02*
X0353047D01*
Y0694547D01*
X0360953D01*
Y0702453D01*
D02*
G37*
G36*
X0427000Y0702487D02*
X0425968Y0702351D01*
X0425007Y0701953D01*
X0424181Y0701319D01*
X0423547Y0700493D01*
X0423149Y0699532D01*
X0423013Y0698500D01*
X0423149Y0697468D01*
X0423547Y0696507D01*
X0424181Y0695681D01*
X0425007Y0695047D01*
X0425968Y0694649D01*
X0427000Y0694513D01*
X0428032Y0694649D01*
X0428993Y0695047D01*
X0429819Y0695681D01*
X0430453Y0696507D01*
X0430851Y0697468D01*
X0430987Y0698500D01*
X0430851Y0699532D01*
X0430453Y0700493D01*
X0429819Y0701319D01*
X0428993Y0701953D01*
X0428032Y0702351D01*
X0427000Y0702487D01*
D02*
G37*
G36*
X0417000D02*
X0415968Y0702351D01*
X0415007Y0701953D01*
X0414181Y0701319D01*
X0413547Y0700493D01*
X0413149Y0699532D01*
X0413013Y0698500D01*
X0413149Y0697468D01*
X0413547Y0696507D01*
X0414181Y0695681D01*
X0415007Y0695047D01*
X0415968Y0694649D01*
X0417000Y0694513D01*
X0418032Y0694649D01*
X0418993Y0695047D01*
X0419819Y0695681D01*
X0420453Y0696507D01*
X0420851Y0697468D01*
X0420987Y0698500D01*
X0420851Y0699532D01*
X0420453Y0700493D01*
X0419819Y0701319D01*
X0418993Y0701953D01*
X0418032Y0702351D01*
X0417000Y0702487D01*
D02*
G37*
G36*
X0407000D02*
X0405968Y0702351D01*
X0405007Y0701953D01*
X0404181Y0701319D01*
X0403547Y0700493D01*
X0403149Y0699532D01*
X0403013Y0698500D01*
X0403149Y0697468D01*
X0403547Y0696507D01*
X0404181Y0695681D01*
X0405007Y0695047D01*
X0405968Y0694649D01*
X0407000Y0694513D01*
X0408032Y0694649D01*
X0408993Y0695047D01*
X0409819Y0695681D01*
X0410453Y0696507D01*
X0410851Y0697468D01*
X0410987Y0698500D01*
X0410851Y0699532D01*
X0410453Y0700493D01*
X0409819Y0701319D01*
X0408993Y0701953D01*
X0408032Y0702351D01*
X0407000Y0702487D01*
D02*
G37*
G36*
X0397000D02*
X0395968Y0702351D01*
X0395007Y0701953D01*
X0394181Y0701319D01*
X0393547Y0700493D01*
X0393149Y0699532D01*
X0393013Y0698500D01*
X0393149Y0697468D01*
X0393547Y0696507D01*
X0394181Y0695681D01*
X0395007Y0695047D01*
X0395968Y0694649D01*
X0397000Y0694513D01*
X0398032Y0694649D01*
X0398993Y0695047D01*
X0399819Y0695681D01*
X0400453Y0696507D01*
X0400851Y0697468D01*
X0400987Y0698500D01*
X0400851Y0699532D01*
X0400453Y0700493D01*
X0399819Y0701319D01*
X0398993Y0701953D01*
X0398032Y0702351D01*
X0397000Y0702487D01*
D02*
G37*
G36*
X0387000D02*
X0385968Y0702351D01*
X0385007Y0701953D01*
X0384181Y0701319D01*
X0383547Y0700493D01*
X0383149Y0699532D01*
X0383013Y0698500D01*
X0383149Y0697468D01*
X0383547Y0696507D01*
X0384181Y0695681D01*
X0385007Y0695047D01*
X0385968Y0694649D01*
X0387000Y0694513D01*
X0388032Y0694649D01*
X0388993Y0695047D01*
X0389819Y0695681D01*
X0390453Y0696507D01*
X0390851Y0697468D01*
X0390987Y0698500D01*
X0390851Y0699532D01*
X0390453Y0700493D01*
X0389819Y0701319D01*
X0388993Y0701953D01*
X0388032Y0702351D01*
X0387000Y0702487D01*
D02*
G37*
G36*
X0377000D02*
X0375968Y0702351D01*
X0375007Y0701953D01*
X0374181Y0701319D01*
X0373547Y0700493D01*
X0373149Y0699532D01*
X0373013Y0698500D01*
X0373149Y0697468D01*
X0373547Y0696507D01*
X0374181Y0695681D01*
X0375007Y0695047D01*
X0375968Y0694649D01*
X0377000Y0694513D01*
X0378032Y0694649D01*
X0378993Y0695047D01*
X0379819Y0695681D01*
X0380453Y0696507D01*
X0380851Y0697468D01*
X0380987Y0698500D01*
X0380851Y0699532D01*
X0380453Y0700493D01*
X0379819Y0701319D01*
X0378993Y0701953D01*
X0378032Y0702351D01*
X0377000Y0702487D01*
D02*
G37*
G36*
X0340000Y0699549D02*
X0339024Y0699355D01*
X0338198Y0698802D01*
X0337645Y0697975D01*
X0337451Y0697000D01*
X0337645Y0696025D01*
X0338198Y0695198D01*
X0339024Y0694645D01*
X0340000Y0694451D01*
X0340975Y0694645D01*
X0341802Y0695198D01*
X0342355Y0696025D01*
X0342549Y0697000D01*
X0342355Y0697975D01*
X0341802Y0698802D01*
X0340975Y0699355D01*
X0340000Y0699549D01*
D02*
G37*
G36*
X0368000Y0682921D02*
Y0679500D01*
X0371421D01*
X0371351Y0680032D01*
X0370953Y0680993D01*
X0370319Y0681819D01*
X0369493Y0682453D01*
X0368532Y0682851D01*
X0368000Y0682921D01*
D02*
G37*
G36*
X0367000D02*
X0366468Y0682851D01*
X0365507Y0682453D01*
X0364681Y0681819D01*
X0364047Y0680993D01*
X0363649Y0680032D01*
X0363579Y0679500D01*
X0367000D01*
Y0682921D01*
D02*
G37*
G36*
X0431500Y0682049D02*
X0430524Y0681855D01*
X0429698Y0681302D01*
X0429145Y0680476D01*
X0428951Y0679500D01*
X0429145Y0678524D01*
X0429698Y0677698D01*
X0430524Y0677145D01*
X0431500Y0676951D01*
X0432476Y0677145D01*
X0433302Y0677698D01*
X0433855Y0678524D01*
X0434049Y0679500D01*
X0433855Y0680476D01*
X0433302Y0681302D01*
X0432476Y0681855D01*
X0431500Y0682049D01*
D02*
G37*
G36*
X0371421Y0678500D02*
X0368000D01*
Y0675079D01*
X0368532Y0675149D01*
X0369493Y0675547D01*
X0370319Y0676181D01*
X0370953Y0677007D01*
X0371351Y0677968D01*
X0371421Y0678500D01*
D02*
G37*
G36*
X0367000D02*
X0363579D01*
X0363649Y0677968D01*
X0364047Y0677007D01*
X0364681Y0676181D01*
X0365507Y0675547D01*
X0366468Y0675149D01*
X0367000Y0675079D01*
Y0678500D01*
D02*
G37*
G36*
X0357500Y0682987D02*
X0356468Y0682851D01*
X0355507Y0682453D01*
X0354681Y0681819D01*
X0354047Y0680993D01*
X0353649Y0680032D01*
X0353513Y0679000D01*
X0353649Y0677968D01*
X0354047Y0677007D01*
X0354681Y0676181D01*
X0355507Y0675547D01*
X0356468Y0675149D01*
X0357500Y0675013D01*
X0358532Y0675149D01*
X0359493Y0675547D01*
X0360319Y0676181D01*
X0360953Y0677007D01*
X0361351Y0677968D01*
X0361487Y0679000D01*
X0361351Y0680032D01*
X0360953Y0680993D01*
X0360319Y0681819D01*
X0359493Y0682453D01*
X0358532Y0682851D01*
X0357500Y0682987D01*
D02*
G37*
G36*
X0347500D02*
X0346468Y0682851D01*
X0345507Y0682453D01*
X0344681Y0681819D01*
X0344047Y0680993D01*
X0343649Y0680032D01*
X0343513Y0679000D01*
X0343649Y0677968D01*
X0344047Y0677007D01*
X0344681Y0676181D01*
X0345507Y0675547D01*
X0346468Y0675149D01*
X0347500Y0675013D01*
X0348532Y0675149D01*
X0349493Y0675547D01*
X0350319Y0676181D01*
X0350953Y0677007D01*
X0351351Y0677968D01*
X0351487Y0679000D01*
X0351351Y0680032D01*
X0350953Y0680993D01*
X0350319Y0681819D01*
X0349493Y0682453D01*
X0348532Y0682851D01*
X0347500Y0682987D01*
D02*
G37*
G36*
X0337500D02*
X0336468Y0682851D01*
X0335507Y0682453D01*
X0334681Y0681819D01*
X0334047Y0680993D01*
X0333649Y0680032D01*
X0333513Y0679000D01*
X0333649Y0677968D01*
X0334047Y0677007D01*
X0334681Y0676181D01*
X0335507Y0675547D01*
X0336468Y0675149D01*
X0337500Y0675013D01*
X0338532Y0675149D01*
X0339493Y0675547D01*
X0340319Y0676181D01*
X0340953Y0677007D01*
X0341351Y0677968D01*
X0341487Y0679000D01*
X0341351Y0680032D01*
X0340953Y0680993D01*
X0340319Y0681819D01*
X0339493Y0682453D01*
X0338532Y0682851D01*
X0337500Y0682987D01*
D02*
G37*
G36*
X0327500D02*
X0326468Y0682851D01*
X0325507Y0682453D01*
X0324681Y0681819D01*
X0324047Y0680993D01*
X0323649Y0680032D01*
X0323513Y0679000D01*
X0323649Y0677968D01*
X0324047Y0677007D01*
X0324681Y0676181D01*
X0325507Y0675547D01*
X0326468Y0675149D01*
X0327500Y0675013D01*
X0328532Y0675149D01*
X0329493Y0675547D01*
X0330319Y0676181D01*
X0330953Y0677007D01*
X0331351Y0677968D01*
X0331487Y0679000D01*
X0331351Y0680032D01*
X0330953Y0680993D01*
X0330319Y0681819D01*
X0329493Y0682453D01*
X0328532Y0682851D01*
X0327500Y0682987D01*
D02*
G37*
G36*
X0317500D02*
X0316468Y0682851D01*
X0315507Y0682453D01*
X0314681Y0681819D01*
X0314047Y0680993D01*
X0313649Y0680032D01*
X0313513Y0679000D01*
X0313649Y0677968D01*
X0314047Y0677007D01*
X0314681Y0676181D01*
X0315507Y0675547D01*
X0316468Y0675149D01*
X0317500Y0675013D01*
X0318532Y0675149D01*
X0319493Y0675547D01*
X0320319Y0676181D01*
X0320953Y0677007D01*
X0321351Y0677968D01*
X0321487Y0679000D01*
X0321351Y0680032D01*
X0320953Y0680993D01*
X0320319Y0681819D01*
X0319493Y0682453D01*
X0318532Y0682851D01*
X0317500Y0682987D01*
D02*
G37*
G36*
X0307500D02*
X0306468Y0682851D01*
X0305507Y0682453D01*
X0304681Y0681819D01*
X0304047Y0680993D01*
X0303649Y0680032D01*
X0303513Y0679000D01*
X0303649Y0677968D01*
X0304047Y0677007D01*
X0304681Y0676181D01*
X0305507Y0675547D01*
X0306468Y0675149D01*
X0307500Y0675013D01*
X0308532Y0675149D01*
X0309493Y0675547D01*
X0310319Y0676181D01*
X0310953Y0677007D01*
X0311351Y0677968D01*
X0311487Y0679000D01*
X0311351Y0680032D01*
X0310953Y0680993D01*
X0310319Y0681819D01*
X0309493Y0682453D01*
X0308532Y0682851D01*
X0307500Y0682987D01*
D02*
G37*
G36*
X0431500Y0671049D02*
X0430524Y0670855D01*
X0429698Y0670302D01*
X0429145Y0669476D01*
X0428951Y0668500D01*
X0429145Y0667524D01*
X0429698Y0666698D01*
X0430524Y0666145D01*
X0431500Y0665951D01*
X0432476Y0666145D01*
X0433302Y0666698D01*
X0433855Y0667524D01*
X0434049Y0668500D01*
X0433855Y0669476D01*
X0433302Y0670302D01*
X0432476Y0670855D01*
X0431500Y0671049D01*
D02*
G37*
G36*
X0311453Y0672953D02*
X0303547D01*
Y0665047D01*
X0311453D01*
Y0672953D01*
D02*
G37*
G36*
X0367500Y0672987D02*
X0366468Y0672851D01*
X0365507Y0672453D01*
X0364681Y0671819D01*
X0364047Y0670993D01*
X0363649Y0670032D01*
X0363513Y0669000D01*
X0363649Y0667968D01*
X0364047Y0667007D01*
X0364681Y0666181D01*
X0365507Y0665547D01*
X0366468Y0665149D01*
X0367500Y0665013D01*
X0368532Y0665149D01*
X0369493Y0665547D01*
X0370319Y0666181D01*
X0370953Y0667007D01*
X0371351Y0667968D01*
X0371487Y0669000D01*
X0371351Y0670032D01*
X0370953Y0670993D01*
X0370319Y0671819D01*
X0369493Y0672453D01*
X0368532Y0672851D01*
X0367500Y0672987D01*
D02*
G37*
G36*
X0357500D02*
X0356468Y0672851D01*
X0355507Y0672453D01*
X0354681Y0671819D01*
X0354047Y0670993D01*
X0353649Y0670032D01*
X0353513Y0669000D01*
X0353649Y0667968D01*
X0354047Y0667007D01*
X0354681Y0666181D01*
X0355507Y0665547D01*
X0356468Y0665149D01*
X0357500Y0665013D01*
X0358532Y0665149D01*
X0359493Y0665547D01*
X0360319Y0666181D01*
X0360953Y0667007D01*
X0361351Y0667968D01*
X0361487Y0669000D01*
X0361351Y0670032D01*
X0360953Y0670993D01*
X0360319Y0671819D01*
X0359493Y0672453D01*
X0358532Y0672851D01*
X0357500Y0672987D01*
D02*
G37*
G36*
X0347500D02*
X0346468Y0672851D01*
X0345507Y0672453D01*
X0344681Y0671819D01*
X0344047Y0670993D01*
X0343649Y0670032D01*
X0343513Y0669000D01*
X0343649Y0667968D01*
X0344047Y0667007D01*
X0344681Y0666181D01*
X0345507Y0665547D01*
X0346468Y0665149D01*
X0347500Y0665013D01*
X0348532Y0665149D01*
X0349493Y0665547D01*
X0350319Y0666181D01*
X0350953Y0667007D01*
X0351351Y0667968D01*
X0351487Y0669000D01*
X0351351Y0670032D01*
X0350953Y0670993D01*
X0350319Y0671819D01*
X0349493Y0672453D01*
X0348532Y0672851D01*
X0347500Y0672987D01*
D02*
G37*
G36*
X0337500D02*
X0336468Y0672851D01*
X0335507Y0672453D01*
X0334681Y0671819D01*
X0334047Y0670993D01*
X0333649Y0670032D01*
X0333513Y0669000D01*
X0333649Y0667968D01*
X0334047Y0667007D01*
X0334681Y0666181D01*
X0335507Y0665547D01*
X0336468Y0665149D01*
X0337500Y0665013D01*
X0338532Y0665149D01*
X0339493Y0665547D01*
X0340319Y0666181D01*
X0340953Y0667007D01*
X0341351Y0667968D01*
X0341487Y0669000D01*
X0341351Y0670032D01*
X0340953Y0670993D01*
X0340319Y0671819D01*
X0339493Y0672453D01*
X0338532Y0672851D01*
X0337500Y0672987D01*
D02*
G37*
G36*
X0327500D02*
X0326468Y0672851D01*
X0325507Y0672453D01*
X0324681Y0671819D01*
X0324047Y0670993D01*
X0323649Y0670032D01*
X0323513Y0669000D01*
X0323649Y0667968D01*
X0324047Y0667007D01*
X0324681Y0666181D01*
X0325507Y0665547D01*
X0326468Y0665149D01*
X0327500Y0665013D01*
X0328532Y0665149D01*
X0329493Y0665547D01*
X0330319Y0666181D01*
X0330953Y0667007D01*
X0331351Y0667968D01*
X0331487Y0669000D01*
X0331351Y0670032D01*
X0330953Y0670993D01*
X0330319Y0671819D01*
X0329493Y0672453D01*
X0328532Y0672851D01*
X0327500Y0672987D01*
D02*
G37*
G36*
X0317500D02*
X0316468Y0672851D01*
X0315507Y0672453D01*
X0314681Y0671819D01*
X0314047Y0670993D01*
X0313649Y0670032D01*
X0313513Y0669000D01*
X0313649Y0667968D01*
X0314047Y0667007D01*
X0314681Y0666181D01*
X0315507Y0665547D01*
X0316468Y0665149D01*
X0317500Y0665013D01*
X0318532Y0665149D01*
X0319493Y0665547D01*
X0320319Y0666181D01*
X0320953Y0667007D01*
X0321351Y0667968D01*
X0321487Y0669000D01*
X0321351Y0670032D01*
X0320953Y0670993D01*
X0320319Y0671819D01*
X0319493Y0672453D01*
X0318532Y0672851D01*
X0317500Y0672987D01*
D02*
G37*
G36*
X0436500Y0655921D02*
Y0652500D01*
X0439921D01*
X0439851Y0653032D01*
X0439453Y0653993D01*
X0438819Y0654819D01*
X0437993Y0655453D01*
X0437032Y0655851D01*
X0436500Y0655921D01*
D02*
G37*
G36*
X0429953Y0655953D02*
X0426500D01*
Y0652500D01*
X0429953D01*
Y0655953D01*
D02*
G37*
G36*
X0435500Y0655921D02*
X0434968Y0655851D01*
X0434007Y0655453D01*
X0433181Y0654819D01*
X0432547Y0653993D01*
X0432149Y0653032D01*
X0432079Y0652500D01*
X0435500D01*
Y0655921D01*
D02*
G37*
G36*
X0425500Y0655953D02*
X0422047D01*
Y0652500D01*
X0425500D01*
Y0655953D01*
D02*
G37*
G36*
X0439921Y0651500D02*
X0436500D01*
Y0648079D01*
X0437032Y0648149D01*
X0437993Y0648547D01*
X0438819Y0649181D01*
X0439453Y0650007D01*
X0439851Y0650968D01*
X0439921Y0651500D01*
D02*
G37*
G36*
X0435500D02*
X0432079D01*
X0432149Y0650968D01*
X0432547Y0650007D01*
X0433181Y0649181D01*
X0434007Y0648547D01*
X0434968Y0648149D01*
X0435500Y0648079D01*
Y0651500D01*
D02*
G37*
G36*
X0429953D02*
X0426500D01*
Y0648047D01*
X0429953D01*
Y0651500D01*
D02*
G37*
G36*
X0425500D02*
X0422047D01*
Y0648047D01*
X0425500D01*
Y0651500D01*
D02*
G37*
G36*
X0343500Y0644049D02*
X0342525Y0643855D01*
X0341698Y0643302D01*
X0341145Y0642476D01*
X0340951Y0641500D01*
X0341145Y0640524D01*
X0341698Y0639698D01*
X0342525Y0639145D01*
X0343500Y0638951D01*
X0344476Y0639145D01*
X0345302Y0639698D01*
X0345855Y0640524D01*
X0346049Y0641500D01*
X0345855Y0642476D01*
X0345302Y0643302D01*
X0344476Y0643855D01*
X0343500Y0644049D01*
D02*
G37*
G36*
X0336000D02*
X0335024Y0643855D01*
X0334198Y0643302D01*
X0333645Y0642476D01*
X0333451Y0641500D01*
X0333645Y0640524D01*
X0334198Y0639698D01*
X0335024Y0639145D01*
X0336000Y0638951D01*
X0336976Y0639145D01*
X0337802Y0639698D01*
X0338355Y0640524D01*
X0338549Y0641500D01*
X0338355Y0642476D01*
X0337802Y0643302D01*
X0336976Y0643855D01*
X0336000Y0644049D01*
D02*
G37*
G36*
X0436000Y0645987D02*
X0434968Y0645851D01*
X0434007Y0645453D01*
X0433181Y0644819D01*
X0432547Y0643993D01*
X0432149Y0643032D01*
X0432013Y0642000D01*
X0432149Y0640968D01*
X0432547Y0640007D01*
X0433181Y0639181D01*
X0434007Y0638547D01*
X0434968Y0638149D01*
X0436000Y0638013D01*
X0437032Y0638149D01*
X0437993Y0638547D01*
X0438819Y0639181D01*
X0439453Y0640007D01*
X0439851Y0640968D01*
X0439987Y0642000D01*
X0439851Y0643032D01*
X0439453Y0643993D01*
X0438819Y0644819D01*
X0437993Y0645453D01*
X0437032Y0645851D01*
X0436000Y0645987D01*
D02*
G37*
G36*
X0426000D02*
X0424968Y0645851D01*
X0424007Y0645453D01*
X0423181Y0644819D01*
X0422547Y0643993D01*
X0422149Y0643032D01*
X0422013Y0642000D01*
X0422149Y0640968D01*
X0422547Y0640007D01*
X0423181Y0639181D01*
X0424007Y0638547D01*
X0424968Y0638149D01*
X0426000Y0638013D01*
X0427032Y0638149D01*
X0427993Y0638547D01*
X0428819Y0639181D01*
X0429453Y0640007D01*
X0429851Y0640968D01*
X0429987Y0642000D01*
X0429851Y0643032D01*
X0429453Y0643993D01*
X0428819Y0644819D01*
X0427993Y0645453D01*
X0427032Y0645851D01*
X0426000Y0645987D01*
D02*
G37*
G36*
X0309500Y0642549D02*
X0308524Y0642355D01*
X0307698Y0641802D01*
X0307145Y0640976D01*
X0306951Y0640000D01*
X0307145Y0639024D01*
X0307698Y0638198D01*
X0308524Y0637645D01*
X0309500Y0637451D01*
X0310475Y0637645D01*
X0311302Y0638198D01*
X0311855Y0639024D01*
X0312049Y0640000D01*
X0311855Y0640976D01*
X0311302Y0641802D01*
X0310475Y0642355D01*
X0309500Y0642549D01*
D02*
G37*
G36*
X0302500D02*
X0301524Y0642355D01*
X0300698Y0641802D01*
X0300145Y0640976D01*
X0299951Y0640000D01*
X0300145Y0639024D01*
X0300698Y0638198D01*
X0301524Y0637645D01*
X0302500Y0637451D01*
X0303475Y0637645D01*
X0304302Y0638198D01*
X0304855Y0639024D01*
X0305049Y0640000D01*
X0304855Y0640976D01*
X0304302Y0641802D01*
X0303475Y0642355D01*
X0302500Y0642549D01*
D02*
G37*
G36*
X0374000Y0639049D02*
X0373025Y0638855D01*
X0372198Y0638302D01*
X0371645Y0637475D01*
X0371451Y0636500D01*
X0371645Y0635525D01*
X0372198Y0634698D01*
X0373025Y0634145D01*
X0374000Y0633951D01*
X0374975Y0634145D01*
X0375802Y0634698D01*
X0376355Y0635525D01*
X0376549Y0636500D01*
X0376355Y0637475D01*
X0375802Y0638302D01*
X0374975Y0638855D01*
X0374000Y0639049D01*
D02*
G37*
G36*
X0366000D02*
X0365024Y0638855D01*
X0364198Y0638302D01*
X0363645Y0637475D01*
X0363451Y0636500D01*
X0363645Y0635525D01*
X0364198Y0634698D01*
X0365024Y0634145D01*
X0366000Y0633951D01*
X0366975Y0634145D01*
X0367802Y0634698D01*
X0368355Y0635525D01*
X0368549Y0636500D01*
X0368355Y0637475D01*
X0367802Y0638302D01*
X0366975Y0638855D01*
X0366000Y0639049D01*
D02*
G37*
G36*
X0319000D02*
X0318024Y0638855D01*
X0317198Y0638302D01*
X0316645Y0637475D01*
X0316451Y0636500D01*
X0316645Y0635525D01*
X0317198Y0634698D01*
X0318024Y0634145D01*
X0319000Y0633951D01*
X0319975Y0634145D01*
X0320802Y0634698D01*
X0321355Y0635525D01*
X0321549Y0636500D01*
X0321355Y0637475D01*
X0320802Y0638302D01*
X0319975Y0638855D01*
X0319000Y0639049D01*
D02*
G37*
G36*
X0279000Y0633549D02*
X0278025Y0633355D01*
X0277198Y0632802D01*
X0276645Y0631976D01*
X0276451Y0631000D01*
X0276645Y0630024D01*
X0277198Y0629198D01*
X0278025Y0628645D01*
X0279000Y0628451D01*
X0279976Y0628645D01*
X0280802Y0629198D01*
X0281355Y0630024D01*
X0281549Y0631000D01*
X0281355Y0631976D01*
X0280802Y0632802D01*
X0279976Y0633355D01*
X0279000Y0633549D01*
D02*
G37*
G36*
X0436000Y0635987D02*
X0434968Y0635851D01*
X0434007Y0635453D01*
X0433181Y0634819D01*
X0432547Y0633993D01*
X0432149Y0633032D01*
X0432013Y0632000D01*
X0432149Y0630968D01*
X0432547Y0630007D01*
X0433181Y0629181D01*
X0434007Y0628547D01*
X0434968Y0628149D01*
X0436000Y0628013D01*
X0437032Y0628149D01*
X0437993Y0628547D01*
X0438819Y0629181D01*
X0439453Y0630007D01*
X0439851Y0630968D01*
X0439987Y0632000D01*
X0439851Y0633032D01*
X0439453Y0633993D01*
X0438819Y0634819D01*
X0437993Y0635453D01*
X0437032Y0635851D01*
X0436000Y0635987D01*
D02*
G37*
G36*
X0426000D02*
X0424968Y0635851D01*
X0424007Y0635453D01*
X0423181Y0634819D01*
X0422547Y0633993D01*
X0422149Y0633032D01*
X0422013Y0632000D01*
X0422149Y0630968D01*
X0422547Y0630007D01*
X0423181Y0629181D01*
X0424007Y0628547D01*
X0424968Y0628149D01*
X0426000Y0628013D01*
X0427032Y0628149D01*
X0427993Y0628547D01*
X0428819Y0629181D01*
X0429453Y0630007D01*
X0429851Y0630968D01*
X0429987Y0632000D01*
X0429851Y0633032D01*
X0429453Y0633993D01*
X0428819Y0634819D01*
X0427993Y0635453D01*
X0427032Y0635851D01*
X0426000Y0635987D01*
D02*
G37*
G36*
X0194500Y0631049D02*
X0193525Y0630855D01*
X0192698Y0630302D01*
X0192145Y0629475D01*
X0191951Y0628500D01*
X0192145Y0627525D01*
X0192698Y0626698D01*
X0193525Y0626145D01*
X0194500Y0625951D01*
X0195475Y0626145D01*
X0196302Y0626698D01*
X0196855Y0627525D01*
X0197049Y0628500D01*
X0196855Y0629475D01*
X0196302Y0630302D01*
X0195475Y0630855D01*
X0194500Y0631049D01*
D02*
G37*
G36*
X0436000Y0625987D02*
X0434968Y0625851D01*
X0434007Y0625453D01*
X0433181Y0624819D01*
X0432547Y0623993D01*
X0432149Y0623032D01*
X0432013Y0622000D01*
X0432149Y0620968D01*
X0432547Y0620007D01*
X0433181Y0619181D01*
X0434007Y0618547D01*
X0434968Y0618149D01*
X0436000Y0618013D01*
X0437032Y0618149D01*
X0437993Y0618547D01*
X0438819Y0619181D01*
X0439453Y0620007D01*
X0439851Y0620968D01*
X0439987Y0622000D01*
X0439851Y0623032D01*
X0439453Y0623993D01*
X0438819Y0624819D01*
X0437993Y0625453D01*
X0437032Y0625851D01*
X0436000Y0625987D01*
D02*
G37*
G36*
X0426000D02*
X0424968Y0625851D01*
X0424007Y0625453D01*
X0423181Y0624819D01*
X0422547Y0623993D01*
X0422149Y0623032D01*
X0422013Y0622000D01*
X0422149Y0620968D01*
X0422547Y0620007D01*
X0423181Y0619181D01*
X0424007Y0618547D01*
X0424968Y0618149D01*
X0426000Y0618013D01*
X0427032Y0618149D01*
X0427993Y0618547D01*
X0428819Y0619181D01*
X0429453Y0620007D01*
X0429851Y0620968D01*
X0429987Y0622000D01*
X0429851Y0623032D01*
X0429453Y0623993D01*
X0428819Y0624819D01*
X0427993Y0625453D01*
X0427032Y0625851D01*
X0426000Y0625987D01*
D02*
G37*
G36*
X0183000Y0619049D02*
X0182025Y0618855D01*
X0181198Y0618302D01*
X0180645Y0617476D01*
X0180451Y0616500D01*
X0180645Y0615524D01*
X0181198Y0614698D01*
X0182025Y0614145D01*
X0183000Y0613951D01*
X0183976Y0614145D01*
X0184802Y0614698D01*
X0185355Y0615524D01*
X0185549Y0616500D01*
X0185355Y0617476D01*
X0184802Y0618302D01*
X0183976Y0618855D01*
X0183000Y0619049D01*
D02*
G37*
G36*
X0276500Y0618049D02*
X0275524Y0617855D01*
X0274698Y0617302D01*
X0274145Y0616475D01*
X0273951Y0615500D01*
X0274145Y0614525D01*
X0274698Y0613698D01*
X0275524Y0613145D01*
X0276500Y0612951D01*
X0277476Y0613145D01*
X0278302Y0613698D01*
X0278855Y0614525D01*
X0279049Y0615500D01*
X0278855Y0616475D01*
X0278302Y0617302D01*
X0277476Y0617855D01*
X0276500Y0618049D01*
D02*
G37*
G36*
X0387500Y0615549D02*
X0386525Y0615355D01*
X0385698Y0614802D01*
X0385145Y0613975D01*
X0384951Y0613000D01*
X0385145Y0612024D01*
X0385698Y0611198D01*
X0386525Y0610645D01*
X0387500Y0610451D01*
X0388475Y0610645D01*
X0389302Y0611198D01*
X0389855Y0612024D01*
X0390049Y0613000D01*
X0389855Y0613975D01*
X0389302Y0614802D01*
X0388475Y0615355D01*
X0387500Y0615549D01*
D02*
G37*
G36*
X0436000Y0615987D02*
X0434968Y0615851D01*
X0434007Y0615453D01*
X0433181Y0614819D01*
X0432547Y0613993D01*
X0432149Y0613032D01*
X0432013Y0612000D01*
X0432149Y0610968D01*
X0432547Y0610007D01*
X0433181Y0609181D01*
X0434007Y0608547D01*
X0434968Y0608149D01*
X0436000Y0608013D01*
X0437032Y0608149D01*
X0437993Y0608547D01*
X0438819Y0609181D01*
X0439453Y0610007D01*
X0439851Y0610968D01*
X0439987Y0612000D01*
X0439851Y0613032D01*
X0439453Y0613993D01*
X0438819Y0614819D01*
X0437993Y0615453D01*
X0437032Y0615851D01*
X0436000Y0615987D01*
D02*
G37*
G36*
X0426000D02*
X0424968Y0615851D01*
X0424007Y0615453D01*
X0423181Y0614819D01*
X0422547Y0613993D01*
X0422149Y0613032D01*
X0422013Y0612000D01*
X0422149Y0610968D01*
X0422547Y0610007D01*
X0423181Y0609181D01*
X0424007Y0608547D01*
X0424968Y0608149D01*
X0426000Y0608013D01*
X0427032Y0608149D01*
X0427993Y0608547D01*
X0428819Y0609181D01*
X0429453Y0610007D01*
X0429851Y0610968D01*
X0429987Y0612000D01*
X0429851Y0613032D01*
X0429453Y0613993D01*
X0428819Y0614819D01*
X0427993Y0615453D01*
X0427032Y0615851D01*
X0426000Y0615987D01*
D02*
G37*
G36*
X0276500Y0610549D02*
X0275524Y0610355D01*
X0274698Y0609802D01*
X0274145Y0608976D01*
X0273951Y0608000D01*
X0274145Y0607024D01*
X0274698Y0606198D01*
X0275524Y0605645D01*
X0276500Y0605451D01*
X0277476Y0605645D01*
X0278302Y0606198D01*
X0278855Y0607024D01*
X0279049Y0608000D01*
X0278855Y0608976D01*
X0278302Y0609802D01*
X0277476Y0610355D01*
X0276500Y0610549D01*
D02*
G37*
G36*
X0436000Y0605987D02*
X0434968Y0605851D01*
X0434007Y0605453D01*
X0433181Y0604819D01*
X0432547Y0603993D01*
X0432149Y0603032D01*
X0432013Y0602000D01*
X0432149Y0600968D01*
X0432547Y0600007D01*
X0433181Y0599181D01*
X0434007Y0598547D01*
X0434968Y0598149D01*
X0436000Y0598013D01*
X0437032Y0598149D01*
X0437993Y0598547D01*
X0438819Y0599181D01*
X0439453Y0600007D01*
X0439851Y0600968D01*
X0439987Y0602000D01*
X0439851Y0603032D01*
X0439453Y0603993D01*
X0438819Y0604819D01*
X0437993Y0605453D01*
X0437032Y0605851D01*
X0436000Y0605987D01*
D02*
G37*
G36*
X0426000D02*
X0424968Y0605851D01*
X0424007Y0605453D01*
X0423181Y0604819D01*
X0422547Y0603993D01*
X0422149Y0603032D01*
X0422013Y0602000D01*
X0422149Y0600968D01*
X0422547Y0600007D01*
X0423181Y0599181D01*
X0424007Y0598547D01*
X0424968Y0598149D01*
X0426000Y0598013D01*
X0427032Y0598149D01*
X0427993Y0598547D01*
X0428819Y0599181D01*
X0429453Y0600007D01*
X0429851Y0600968D01*
X0429987Y0602000D01*
X0429851Y0603032D01*
X0429453Y0603993D01*
X0428819Y0604819D01*
X0427993Y0605453D01*
X0427032Y0605851D01*
X0426000Y0605987D01*
D02*
G37*
G36*
X0246000Y0602549D02*
X0245024Y0602355D01*
X0244198Y0601802D01*
X0243645Y0600976D01*
X0243451Y0600000D01*
X0243645Y0599024D01*
X0244198Y0598198D01*
X0245024Y0597645D01*
X0246000Y0597451D01*
X0246975Y0597645D01*
X0247802Y0598198D01*
X0248355Y0599024D01*
X0248549Y0600000D01*
X0248355Y0600976D01*
X0247802Y0601802D01*
X0246975Y0602355D01*
X0246000Y0602549D01*
D02*
G37*
G36*
X0179000Y0598549D02*
X0178024Y0598355D01*
X0177198Y0597802D01*
X0176645Y0596976D01*
X0176451Y0596000D01*
X0176645Y0595024D01*
X0177198Y0594198D01*
X0178024Y0593645D01*
X0179000Y0593451D01*
X0179975Y0593645D01*
X0180802Y0594198D01*
X0181355Y0595024D01*
X0181549Y0596000D01*
X0181355Y0596976D01*
X0180802Y0597802D01*
X0179975Y0598355D01*
X0179000Y0598549D01*
D02*
G37*
G36*
X0436000Y0595987D02*
X0434968Y0595851D01*
X0434007Y0595453D01*
X0433181Y0594819D01*
X0432547Y0593993D01*
X0432149Y0593032D01*
X0432013Y0592000D01*
X0432149Y0590968D01*
X0432547Y0590007D01*
X0433181Y0589181D01*
X0434007Y0588547D01*
X0434968Y0588149D01*
X0436000Y0588013D01*
X0437032Y0588149D01*
X0437993Y0588547D01*
X0438819Y0589181D01*
X0439453Y0590007D01*
X0439851Y0590968D01*
X0439987Y0592000D01*
X0439851Y0593032D01*
X0439453Y0593993D01*
X0438819Y0594819D01*
X0437993Y0595453D01*
X0437032Y0595851D01*
X0436000Y0595987D01*
D02*
G37*
G36*
X0426000D02*
X0424968Y0595851D01*
X0424007Y0595453D01*
X0423181Y0594819D01*
X0422547Y0593993D01*
X0422149Y0593032D01*
X0422013Y0592000D01*
X0422149Y0590968D01*
X0422547Y0590007D01*
X0423181Y0589181D01*
X0424007Y0588547D01*
X0424968Y0588149D01*
X0426000Y0588013D01*
X0427032Y0588149D01*
X0427993Y0588547D01*
X0428819Y0589181D01*
X0429453Y0590007D01*
X0429851Y0590968D01*
X0429987Y0592000D01*
X0429851Y0593032D01*
X0429453Y0593993D01*
X0428819Y0594819D01*
X0427993Y0595453D01*
X0427032Y0595851D01*
X0426000Y0595987D01*
D02*
G37*
G36*
X0273500Y0592049D02*
X0272524Y0591855D01*
X0271698Y0591302D01*
X0271145Y0590476D01*
X0270951Y0589500D01*
X0271145Y0588524D01*
X0271698Y0587698D01*
X0272524Y0587145D01*
X0273500Y0586951D01*
X0274476Y0587145D01*
X0275302Y0587698D01*
X0275855Y0588524D01*
X0276049Y0589500D01*
X0275855Y0590476D01*
X0275302Y0591302D01*
X0274476Y0591855D01*
X0273500Y0592049D01*
D02*
G37*
G36*
X0387500Y0591549D02*
X0386525Y0591355D01*
X0385698Y0590802D01*
X0385145Y0589976D01*
X0384951Y0589000D01*
X0385145Y0588025D01*
X0385698Y0587198D01*
X0386525Y0586645D01*
X0387500Y0586451D01*
X0388475Y0586645D01*
X0389302Y0587198D01*
X0389855Y0588025D01*
X0390049Y0589000D01*
X0389855Y0589976D01*
X0389302Y0590802D01*
X0388475Y0591355D01*
X0387500Y0591549D01*
D02*
G37*
G36*
X0246500Y0583549D02*
X0245525Y0583355D01*
X0244698Y0582802D01*
X0244145Y0581976D01*
X0243951Y0581000D01*
X0244145Y0580024D01*
X0244698Y0579198D01*
X0245525Y0578645D01*
X0246500Y0578451D01*
X0247476Y0578645D01*
X0248302Y0579198D01*
X0248855Y0580024D01*
X0249049Y0581000D01*
X0248855Y0581976D01*
X0248302Y0582802D01*
X0247476Y0583355D01*
X0246500Y0583549D01*
D02*
G37*
G36*
X0436000Y0585987D02*
X0434968Y0585851D01*
X0434007Y0585453D01*
X0433181Y0584819D01*
X0432547Y0583993D01*
X0432149Y0583032D01*
X0432013Y0582000D01*
X0432149Y0580968D01*
X0432547Y0580007D01*
X0433181Y0579181D01*
X0434007Y0578547D01*
X0434968Y0578149D01*
X0436000Y0578013D01*
X0437032Y0578149D01*
X0437993Y0578547D01*
X0438819Y0579181D01*
X0439453Y0580007D01*
X0439851Y0580968D01*
X0439987Y0582000D01*
X0439851Y0583032D01*
X0439453Y0583993D01*
X0438819Y0584819D01*
X0437993Y0585453D01*
X0437032Y0585851D01*
X0436000Y0585987D01*
D02*
G37*
G36*
X0426000D02*
X0424968Y0585851D01*
X0424007Y0585453D01*
X0423181Y0584819D01*
X0422547Y0583993D01*
X0422149Y0583032D01*
X0422013Y0582000D01*
X0422149Y0580968D01*
X0422547Y0580007D01*
X0423181Y0579181D01*
X0424007Y0578547D01*
X0424968Y0578149D01*
X0426000Y0578013D01*
X0427032Y0578149D01*
X0427993Y0578547D01*
X0428819Y0579181D01*
X0429453Y0580007D01*
X0429851Y0580968D01*
X0429987Y0582000D01*
X0429851Y0583032D01*
X0429453Y0583993D01*
X0428819Y0584819D01*
X0427993Y0585453D01*
X0427032Y0585851D01*
X0426000Y0585987D01*
D02*
G37*
G36*
X0297000Y0579549D02*
X0296024Y0579355D01*
X0295198Y0578802D01*
X0294645Y0577976D01*
X0294451Y0577000D01*
X0294645Y0576024D01*
X0295198Y0575198D01*
X0296024Y0574645D01*
X0297000Y0574451D01*
X0297975Y0574645D01*
X0298802Y0575198D01*
X0299355Y0576024D01*
X0299549Y0577000D01*
X0299355Y0577976D01*
X0298802Y0578802D01*
X0297975Y0579355D01*
X0297000Y0579549D01*
D02*
G37*
G36*
X0387500Y0576549D02*
X0386525Y0576355D01*
X0385698Y0575802D01*
X0385145Y0574975D01*
X0384951Y0574000D01*
X0385145Y0573025D01*
X0385698Y0572198D01*
X0386525Y0571645D01*
X0387500Y0571451D01*
X0388475Y0571645D01*
X0389302Y0572198D01*
X0389855Y0573025D01*
X0390049Y0574000D01*
X0389855Y0574975D01*
X0389302Y0575802D01*
X0388475Y0576355D01*
X0387500Y0576549D01*
D02*
G37*
G36*
X0183000D02*
X0182025Y0576355D01*
X0181198Y0575802D01*
X0180645Y0574975D01*
X0180451Y0574000D01*
X0180645Y0573025D01*
X0181198Y0572198D01*
X0182025Y0571645D01*
X0183000Y0571451D01*
X0183976Y0571645D01*
X0184802Y0572198D01*
X0185355Y0573025D01*
X0185549Y0574000D01*
X0185355Y0574975D01*
X0184802Y0575802D01*
X0183976Y0576355D01*
X0183000Y0576549D01*
D02*
G37*
G36*
X0436000Y0575987D02*
X0434968Y0575851D01*
X0434007Y0575453D01*
X0433181Y0574819D01*
X0432547Y0573993D01*
X0432149Y0573032D01*
X0432013Y0572000D01*
X0432149Y0570968D01*
X0432547Y0570007D01*
X0433181Y0569181D01*
X0434007Y0568547D01*
X0434968Y0568149D01*
X0436000Y0568013D01*
X0437032Y0568149D01*
X0437993Y0568547D01*
X0438819Y0569181D01*
X0439453Y0570007D01*
X0439851Y0570968D01*
X0439987Y0572000D01*
X0439851Y0573032D01*
X0439453Y0573993D01*
X0438819Y0574819D01*
X0437993Y0575453D01*
X0437032Y0575851D01*
X0436000Y0575987D01*
D02*
G37*
G36*
X0426000D02*
X0424968Y0575851D01*
X0424007Y0575453D01*
X0423181Y0574819D01*
X0422547Y0573993D01*
X0422149Y0573032D01*
X0422013Y0572000D01*
X0422149Y0570968D01*
X0422547Y0570007D01*
X0423181Y0569181D01*
X0424007Y0568547D01*
X0424968Y0568149D01*
X0426000Y0568013D01*
X0427032Y0568149D01*
X0427993Y0568547D01*
X0428819Y0569181D01*
X0429453Y0570007D01*
X0429851Y0570968D01*
X0429987Y0572000D01*
X0429851Y0573032D01*
X0429453Y0573993D01*
X0428819Y0574819D01*
X0427993Y0575453D01*
X0427032Y0575851D01*
X0426000Y0575987D01*
D02*
G37*
G36*
X0436000Y0565987D02*
X0434968Y0565851D01*
X0434007Y0565453D01*
X0433181Y0564819D01*
X0432547Y0563993D01*
X0432149Y0563032D01*
X0432013Y0562000D01*
X0432149Y0560968D01*
X0432547Y0560007D01*
X0433181Y0559181D01*
X0434007Y0558547D01*
X0434968Y0558149D01*
X0436000Y0558013D01*
X0437032Y0558149D01*
X0437993Y0558547D01*
X0438819Y0559181D01*
X0439453Y0560007D01*
X0439851Y0560968D01*
X0439987Y0562000D01*
X0439851Y0563032D01*
X0439453Y0563993D01*
X0438819Y0564819D01*
X0437993Y0565453D01*
X0437032Y0565851D01*
X0436000Y0565987D01*
D02*
G37*
G36*
X0426000D02*
X0424968Y0565851D01*
X0424007Y0565453D01*
X0423181Y0564819D01*
X0422547Y0563993D01*
X0422149Y0563032D01*
X0422013Y0562000D01*
X0422149Y0560968D01*
X0422547Y0560007D01*
X0423181Y0559181D01*
X0424007Y0558547D01*
X0424968Y0558149D01*
X0426000Y0558013D01*
X0427032Y0558149D01*
X0427993Y0558547D01*
X0428819Y0559181D01*
X0429453Y0560007D01*
X0429851Y0560968D01*
X0429987Y0562000D01*
X0429851Y0563032D01*
X0429453Y0563993D01*
X0428819Y0564819D01*
X0427993Y0565453D01*
X0427032Y0565851D01*
X0426000Y0565987D01*
D02*
G37*
G36*
X0266500Y0557549D02*
X0265525Y0557355D01*
X0264698Y0556802D01*
X0264145Y0555975D01*
X0263951Y0555000D01*
X0264145Y0554025D01*
X0264698Y0553198D01*
X0265525Y0552645D01*
X0266500Y0552451D01*
X0267476Y0552645D01*
X0268302Y0553198D01*
X0268855Y0554025D01*
X0269049Y0555000D01*
X0268855Y0555975D01*
X0268302Y0556802D01*
X0267476Y0557355D01*
X0266500Y0557549D01*
D02*
G37*
G36*
X0388500Y0555549D02*
X0387525Y0555355D01*
X0386698Y0554802D01*
X0386145Y0553975D01*
X0385951Y0553000D01*
X0386145Y0552025D01*
X0386698Y0551198D01*
X0387525Y0550645D01*
X0388500Y0550451D01*
X0389475Y0550645D01*
X0390302Y0551198D01*
X0390855Y0552025D01*
X0391049Y0553000D01*
X0390855Y0553975D01*
X0390302Y0554802D01*
X0389475Y0555355D01*
X0388500Y0555549D01*
D02*
G37*
G36*
X0436000Y0555987D02*
X0434968Y0555851D01*
X0434007Y0555453D01*
X0433181Y0554819D01*
X0432547Y0553993D01*
X0432149Y0553032D01*
X0432013Y0552000D01*
X0432149Y0550968D01*
X0432547Y0550007D01*
X0433181Y0549181D01*
X0434007Y0548547D01*
X0434968Y0548149D01*
X0436000Y0548013D01*
X0437032Y0548149D01*
X0437993Y0548547D01*
X0438819Y0549181D01*
X0439453Y0550007D01*
X0439851Y0550968D01*
X0439987Y0552000D01*
X0439851Y0553032D01*
X0439453Y0553993D01*
X0438819Y0554819D01*
X0437993Y0555453D01*
X0437032Y0555851D01*
X0436000Y0555987D01*
D02*
G37*
G36*
X0426000D02*
X0424968Y0555851D01*
X0424007Y0555453D01*
X0423181Y0554819D01*
X0422547Y0553993D01*
X0422149Y0553032D01*
X0422013Y0552000D01*
X0422149Y0550968D01*
X0422547Y0550007D01*
X0423181Y0549181D01*
X0424007Y0548547D01*
X0424968Y0548149D01*
X0426000Y0548013D01*
X0427032Y0548149D01*
X0427993Y0548547D01*
X0428819Y0549181D01*
X0429453Y0550007D01*
X0429851Y0550968D01*
X0429987Y0552000D01*
X0429851Y0553032D01*
X0429453Y0553993D01*
X0428819Y0554819D01*
X0427993Y0555453D01*
X0427032Y0555851D01*
X0426000Y0555987D01*
D02*
G37*
G36*
X0379000Y0544549D02*
X0378025Y0544355D01*
X0377198Y0543802D01*
X0376645Y0542976D01*
X0376451Y0542000D01*
X0376645Y0541024D01*
X0377198Y0540198D01*
X0378025Y0539645D01*
X0379000Y0539451D01*
X0379976Y0539645D01*
X0380802Y0540198D01*
X0381355Y0541024D01*
X0381549Y0542000D01*
X0381355Y0542976D01*
X0380802Y0543802D01*
X0379976Y0544355D01*
X0379000Y0544549D01*
D02*
G37*
G36*
X0426000Y0545987D02*
X0424968Y0545851D01*
X0424007Y0545453D01*
X0423181Y0544819D01*
X0422547Y0543993D01*
X0422149Y0543032D01*
X0422013Y0542000D01*
X0422149Y0540968D01*
X0422547Y0540007D01*
X0423181Y0539181D01*
X0424007Y0538547D01*
X0424968Y0538149D01*
X0426000Y0538013D01*
X0427032Y0538149D01*
X0427993Y0538547D01*
X0428819Y0539181D01*
X0429453Y0540007D01*
X0429851Y0540968D01*
X0429987Y0542000D01*
X0429851Y0543032D01*
X0429453Y0543993D01*
X0428819Y0544819D01*
X0427993Y0545453D01*
X0427032Y0545851D01*
X0426000Y0545987D01*
D02*
G37*
G36*
X0228100Y0568243D02*
X0227242Y0568072D01*
X0226514Y0567586D01*
X0226028Y0566858D01*
X0225857Y0566000D01*
X0226028Y0565142D01*
X0226514Y0564414D01*
X0227242Y0563928D01*
X0228100Y0563757D01*
X0228407Y0563818D01*
X0258989Y0533237D01*
X0258770Y0532607D01*
X0258586Y0532586D01*
X0257858Y0533072D01*
X0257000Y0533243D01*
X0256142Y0533072D01*
X0255414Y0532586D01*
X0254928Y0531858D01*
X0254757Y0531000D01*
X0254928Y0530142D01*
X0255414Y0529414D01*
X0256142Y0528928D01*
X0257000Y0528757D01*
X0257858Y0528928D01*
X0258586Y0529414D01*
X0258760Y0529674D01*
X0266016D01*
X0266246Y0529120D01*
X0264307Y0527182D01*
X0264000Y0527243D01*
X0263142Y0527072D01*
X0262414Y0526586D01*
X0261928Y0525858D01*
X0261757Y0525000D01*
X0261928Y0524142D01*
X0262414Y0523414D01*
X0263142Y0522928D01*
X0263153Y0522926D01*
X0263093Y0522326D01*
X0241000D01*
X0240493Y0522225D01*
X0240063Y0521937D01*
X0214063Y0495937D01*
X0213775Y0495507D01*
X0213674Y0495000D01*
Y0481690D01*
X0213074Y0481486D01*
X0212819Y0481819D01*
X0211993Y0482453D01*
X0211032Y0482851D01*
X0210500Y0482921D01*
Y0479000D01*
Y0475079D01*
X0211032Y0475149D01*
X0211993Y0475547D01*
X0212819Y0476181D01*
X0213074Y0476514D01*
X0213674Y0476310D01*
Y0471690D01*
X0213074Y0471486D01*
X0212819Y0471819D01*
X0211993Y0472453D01*
X0211032Y0472851D01*
X0210500Y0472921D01*
Y0469000D01*
Y0465079D01*
X0211032Y0465149D01*
X0211993Y0465547D01*
X0212819Y0466181D01*
X0213074Y0466514D01*
X0213674Y0466310D01*
Y0434000D01*
X0213775Y0433493D01*
X0214063Y0433063D01*
X0229174Y0417951D01*
Y0335500D01*
X0229275Y0334993D01*
X0229563Y0334563D01*
X0236064Y0328062D01*
X0235928Y0327858D01*
X0235757Y0327000D01*
X0235928Y0326142D01*
X0236414Y0325414D01*
X0237142Y0324928D01*
X0238000Y0324757D01*
X0238858Y0324928D01*
X0239586Y0325414D01*
X0240072Y0326142D01*
X0240243Y0327000D01*
X0240072Y0327858D01*
X0239586Y0328586D01*
X0238858Y0329072D01*
X0238788Y0329086D01*
X0231825Y0336049D01*
Y0418500D01*
X0231725Y0419007D01*
X0231437Y0419437D01*
X0216325Y0434549D01*
Y0466310D01*
X0216926Y0466514D01*
X0217181Y0466181D01*
X0218007Y0465547D01*
X0218968Y0465149D01*
X0220000Y0465013D01*
X0221032Y0465149D01*
X0221993Y0465547D01*
X0222819Y0466181D01*
X0223453Y0467007D01*
X0223851Y0467968D01*
X0223987Y0469000D01*
X0223851Y0470032D01*
X0223574Y0470700D01*
X0225937Y0473063D01*
X0226225Y0473493D01*
X0226325Y0474000D01*
Y0476310D01*
X0226925Y0476514D01*
X0227181Y0476181D01*
X0228007Y0475547D01*
X0228968Y0475149D01*
X0230000Y0475013D01*
X0231032Y0475149D01*
X0231993Y0475547D01*
X0232819Y0476181D01*
X0233074Y0476514D01*
X0233675Y0476310D01*
Y0475549D01*
X0230983Y0472857D01*
X0230000Y0472987D01*
X0228968Y0472851D01*
X0228007Y0472453D01*
X0227181Y0471819D01*
X0226547Y0470993D01*
X0226149Y0470032D01*
X0226013Y0469000D01*
X0226149Y0467968D01*
X0226547Y0467007D01*
X0226675Y0466841D01*
Y0432500D01*
X0226775Y0431993D01*
X0227063Y0431563D01*
X0229818Y0428807D01*
X0229757Y0428500D01*
X0229928Y0427642D01*
X0230414Y0426914D01*
X0231142Y0426428D01*
X0232000Y0426257D01*
X0232858Y0426428D01*
X0233586Y0426914D01*
X0234072Y0427642D01*
X0234243Y0428500D01*
X0234072Y0429358D01*
X0233586Y0430086D01*
X0232858Y0430572D01*
X0232000Y0430743D01*
X0231693Y0430682D01*
X0229326Y0433049D01*
Y0434593D01*
X0229925Y0434653D01*
X0229928Y0434642D01*
X0230414Y0433914D01*
X0231142Y0433428D01*
X0232000Y0433257D01*
X0232858Y0433428D01*
X0233586Y0433914D01*
X0234072Y0434642D01*
X0234243Y0435500D01*
X0234182Y0435807D01*
X0240937Y0442563D01*
X0241225Y0442993D01*
X0241325Y0443500D01*
Y0465271D01*
X0241993Y0465547D01*
X0242819Y0466181D01*
X0243453Y0467007D01*
X0243851Y0467968D01*
X0243987Y0469000D01*
X0243851Y0470032D01*
X0243453Y0470993D01*
X0242819Y0471819D01*
X0241993Y0472453D01*
X0241032Y0472851D01*
X0240000Y0472987D01*
X0238968Y0472851D01*
X0238798Y0472781D01*
X0238458Y0473289D01*
X0240210Y0475041D01*
X0241032Y0475149D01*
X0241993Y0475547D01*
X0242819Y0476181D01*
X0243453Y0477007D01*
X0243851Y0477968D01*
X0243987Y0479000D01*
X0243851Y0480032D01*
X0243453Y0480993D01*
X0242819Y0481819D01*
X0241993Y0482453D01*
X0241032Y0482851D01*
X0240000Y0482987D01*
X0238968Y0482851D01*
X0238007Y0482453D01*
X0237181Y0481819D01*
X0236926Y0481486D01*
X0236326Y0481690D01*
Y0496451D01*
X0246549Y0506674D01*
X0286740D01*
X0286914Y0506414D01*
X0287400Y0506089D01*
Y0505411D01*
X0286914Y0505086D01*
X0286428Y0504358D01*
X0286257Y0503500D01*
X0286428Y0502642D01*
X0286914Y0501914D01*
X0287642Y0501428D01*
X0288500Y0501257D01*
X0289358Y0501428D01*
X0289728Y0501675D01*
X0334240D01*
X0334414Y0501414D01*
X0335142Y0500928D01*
X0336000Y0500757D01*
X0336858Y0500928D01*
X0337586Y0501414D01*
X0338072Y0502142D01*
X0338243Y0503000D01*
X0338072Y0503858D01*
X0337586Y0504586D01*
X0336858Y0505072D01*
X0336000Y0505243D01*
X0335142Y0505072D01*
X0334414Y0504586D01*
X0334240Y0504325D01*
X0290579D01*
X0290572Y0504358D01*
X0290086Y0505086D01*
X0289600Y0505411D01*
Y0506089D01*
X0290086Y0506414D01*
X0290572Y0507142D01*
X0290743Y0508000D01*
X0290572Y0508858D01*
X0290428Y0509074D01*
X0290749Y0509675D01*
X0301057D01*
X0304069Y0506663D01*
X0304499Y0506375D01*
X0305006Y0506275D01*
X0322994D01*
X0323501Y0506375D01*
X0323931Y0506663D01*
X0324943Y0507675D01*
X0338240D01*
X0338414Y0507414D01*
X0339142Y0506928D01*
X0340000Y0506757D01*
X0340858Y0506928D01*
X0341586Y0507414D01*
X0342072Y0508142D01*
X0342243Y0509000D01*
X0342072Y0509858D01*
X0341928Y0510075D01*
X0342249Y0510674D01*
X0356240D01*
X0356414Y0510414D01*
X0357142Y0509928D01*
X0358000Y0509757D01*
X0358858Y0509928D01*
X0359586Y0510414D01*
X0360072Y0511142D01*
X0360174Y0511654D01*
X0360194Y0511754D01*
X0360806D01*
X0360826Y0511654D01*
X0360928Y0511142D01*
X0361414Y0510414D01*
X0361674Y0510240D01*
Y0504549D01*
X0348674Y0491548D01*
X0348099Y0491722D01*
X0348072Y0491858D01*
X0347586Y0492586D01*
X0346858Y0493072D01*
X0346000Y0493243D01*
X0345142Y0493072D01*
X0344730Y0492797D01*
X0344297Y0493230D01*
X0344572Y0493642D01*
X0344743Y0494500D01*
X0344572Y0495358D01*
X0344086Y0496086D01*
X0344073Y0496095D01*
X0344220Y0496718D01*
X0344507Y0496775D01*
X0344937Y0497063D01*
X0348693Y0500818D01*
X0349000Y0500757D01*
X0349858Y0500928D01*
X0350586Y0501414D01*
X0351072Y0502142D01*
X0351243Y0503000D01*
X0351072Y0503858D01*
X0350586Y0504586D01*
X0349858Y0505072D01*
X0349000Y0505243D01*
X0348142Y0505072D01*
X0347414Y0504586D01*
X0346928Y0503858D01*
X0346757Y0503000D01*
X0346818Y0502693D01*
X0343451Y0499326D01*
X0261091D01*
X0260584Y0499225D01*
X0260154Y0498937D01*
X0249063Y0487846D01*
X0248775Y0487416D01*
X0248675Y0486909D01*
Y0482729D01*
X0248007Y0482453D01*
X0247181Y0481819D01*
X0246547Y0480993D01*
X0246149Y0480032D01*
X0246013Y0479000D01*
X0246149Y0477968D01*
X0246547Y0477007D01*
X0247181Y0476181D01*
X0248007Y0475547D01*
X0248968Y0475149D01*
X0250000Y0475013D01*
X0251032Y0475149D01*
X0251993Y0475547D01*
X0252819Y0476181D01*
X0253453Y0477007D01*
X0253851Y0477968D01*
X0253987Y0479000D01*
X0253851Y0480032D01*
X0253453Y0480993D01*
X0252819Y0481819D01*
X0251993Y0482453D01*
X0251325Y0482729D01*
Y0486360D01*
X0261640Y0496674D01*
X0340273D01*
X0340600Y0496074D01*
X0340463Y0495863D01*
X0340407Y0495825D01*
X0271353D01*
X0270846Y0495725D01*
X0270415Y0495437D01*
X0264063Y0489084D01*
X0263775Y0488655D01*
X0263674Y0488147D01*
Y0481690D01*
X0263074Y0481486D01*
X0262819Y0481819D01*
X0261993Y0482453D01*
X0261032Y0482851D01*
X0260000Y0482987D01*
X0258968Y0482851D01*
X0258007Y0482453D01*
X0257181Y0481819D01*
X0256547Y0480993D01*
X0256149Y0480032D01*
X0256013Y0479000D01*
X0256149Y0477968D01*
X0256547Y0477007D01*
X0257181Y0476181D01*
X0258007Y0475547D01*
X0258301Y0475425D01*
X0258181Y0474825D01*
X0257353D01*
X0256845Y0474725D01*
X0256416Y0474437D01*
X0253566Y0471587D01*
X0252967Y0471627D01*
X0252819Y0471819D01*
X0251993Y0472453D01*
X0251032Y0472851D01*
X0250000Y0472987D01*
X0248968Y0472851D01*
X0248007Y0472453D01*
X0247181Y0471819D01*
X0246547Y0470993D01*
X0246149Y0470032D01*
X0246013Y0469000D01*
X0246149Y0467968D01*
X0246547Y0467007D01*
X0247181Y0466181D01*
X0248007Y0465547D01*
X0248968Y0465149D01*
X0250000Y0465013D01*
X0251032Y0465149D01*
X0251993Y0465547D01*
X0252819Y0466181D01*
X0253453Y0467007D01*
X0253851Y0467968D01*
X0253875Y0468147D01*
X0255511Y0469784D01*
X0256079Y0469504D01*
X0256013Y0469000D01*
X0256149Y0467968D01*
X0256547Y0467007D01*
X0257181Y0466181D01*
X0258007Y0465547D01*
X0258968Y0465149D01*
X0260000Y0465013D01*
X0261032Y0465149D01*
X0261993Y0465547D01*
X0262819Y0466181D01*
X0263453Y0467007D01*
X0263851Y0467968D01*
X0263987Y0469000D01*
X0263851Y0470032D01*
X0263453Y0470993D01*
X0262848Y0471781D01*
X0262821Y0471840D01*
X0262883Y0472527D01*
X0262937Y0472563D01*
X0265937Y0475563D01*
X0266225Y0475993D01*
X0266296Y0476349D01*
X0266696Y0476508D01*
X0266926Y0476514D01*
X0267181Y0476181D01*
X0268007Y0475547D01*
X0268968Y0475149D01*
X0270000Y0475013D01*
X0271032Y0475149D01*
X0271993Y0475547D01*
X0272819Y0476181D01*
X0273453Y0477007D01*
X0273851Y0477968D01*
X0273987Y0479000D01*
X0273851Y0480032D01*
X0273453Y0480993D01*
X0272819Y0481819D01*
X0271993Y0482453D01*
X0271032Y0482851D01*
X0270000Y0482987D01*
X0268968Y0482851D01*
X0268007Y0482453D01*
X0267181Y0481819D01*
X0266926Y0481486D01*
X0266325Y0481690D01*
Y0487598D01*
X0271902Y0493175D01*
X0323715D01*
X0323893Y0492649D01*
X0323906Y0492575D01*
X0323428Y0491858D01*
X0323257Y0491000D01*
X0323428Y0490142D01*
X0323572Y0489925D01*
X0323251Y0489326D01*
X0285728D01*
X0285358Y0489572D01*
X0284500Y0489743D01*
X0283642Y0489572D01*
X0282914Y0489086D01*
X0282428Y0488358D01*
X0282257Y0487500D01*
X0282428Y0486642D01*
X0282914Y0485914D01*
X0283642Y0485428D01*
X0284500Y0485257D01*
X0285358Y0485428D01*
X0286086Y0485914D01*
X0286572Y0486642D01*
X0286579Y0486674D01*
X0315016D01*
X0315246Y0486120D01*
X0311700Y0482574D01*
X0311032Y0482851D01*
X0310000Y0482987D01*
X0308968Y0482851D01*
X0308007Y0482453D01*
X0307181Y0481819D01*
X0306547Y0480993D01*
X0306149Y0480032D01*
X0306013Y0479000D01*
X0306149Y0477968D01*
X0306547Y0477007D01*
X0307181Y0476181D01*
X0308007Y0475547D01*
X0308968Y0475149D01*
X0310000Y0475013D01*
X0311032Y0475149D01*
X0311993Y0475547D01*
X0312819Y0476181D01*
X0313453Y0477007D01*
X0313851Y0477968D01*
X0313987Y0479000D01*
X0313851Y0480032D01*
X0313574Y0480700D01*
X0317549Y0484675D01*
X0349500D01*
X0350007Y0484775D01*
X0350437Y0485063D01*
X0358193Y0492818D01*
X0358500Y0492757D01*
X0359358Y0492928D01*
X0360086Y0493414D01*
X0360572Y0494142D01*
X0360743Y0495000D01*
X0360572Y0495858D01*
X0360086Y0496586D01*
X0359358Y0497072D01*
X0358889Y0497166D01*
X0358691Y0497817D01*
X0363937Y0503063D01*
X0364225Y0503493D01*
X0364325Y0504000D01*
Y0510240D01*
X0364586Y0510414D01*
X0365072Y0511142D01*
X0365243Y0512000D01*
X0365072Y0512858D01*
X0364586Y0513586D01*
X0363858Y0514072D01*
X0363000Y0514243D01*
X0362142Y0514072D01*
X0361414Y0513586D01*
X0360928Y0512858D01*
X0360826Y0512346D01*
X0360806Y0512246D01*
X0360194D01*
X0360174Y0512346D01*
X0360072Y0512858D01*
X0359586Y0513586D01*
X0358858Y0514072D01*
X0358000Y0514243D01*
X0357142Y0514072D01*
X0356414Y0513586D01*
X0356240Y0513326D01*
X0325697D01*
X0325190Y0513225D01*
X0324760Y0512937D01*
X0322451Y0510629D01*
X0321985Y0511011D01*
X0322072Y0511142D01*
X0322243Y0512000D01*
X0322072Y0512858D01*
X0321586Y0513586D01*
X0320858Y0514072D01*
X0320000Y0514243D01*
X0319599Y0514163D01*
X0319507Y0514225D01*
X0319000Y0514326D01*
X0307760D01*
X0307586Y0514586D01*
X0306858Y0515072D01*
X0306000Y0515243D01*
X0305142Y0515072D01*
X0304414Y0514586D01*
X0303928Y0513858D01*
X0303801Y0513224D01*
X0303195Y0512982D01*
X0303040Y0513137D01*
X0302610Y0513425D01*
X0302103Y0513525D01*
X0246806D01*
X0246299Y0513425D01*
X0245869Y0513137D01*
X0220063Y0487331D01*
X0219775Y0486901D01*
X0219674Y0486394D01*
Y0482944D01*
X0218968Y0482851D01*
X0218007Y0482453D01*
X0217181Y0481819D01*
X0216926Y0481486D01*
X0216325Y0481690D01*
Y0494451D01*
X0241549Y0519674D01*
X0285500D01*
X0286007Y0519775D01*
X0286437Y0520063D01*
X0287049Y0520675D01*
X0317622D01*
X0317728Y0520142D01*
X0318214Y0519414D01*
X0318942Y0518928D01*
X0319800Y0518757D01*
X0320658Y0518928D01*
X0321386Y0519414D01*
X0321872Y0520142D01*
X0322043Y0521000D01*
X0321989Y0521275D01*
X0322481Y0521875D01*
X0323806D01*
X0324313Y0521975D01*
X0324743Y0522263D01*
X0325555Y0523074D01*
X0329051D01*
X0332818Y0519307D01*
X0332757Y0519000D01*
X0332928Y0518142D01*
X0333414Y0517414D01*
X0334142Y0516928D01*
X0335000Y0516757D01*
X0335858Y0516928D01*
X0336586Y0517414D01*
X0337072Y0518142D01*
X0337243Y0519000D01*
X0337072Y0519858D01*
X0336586Y0520586D01*
X0335858Y0521072D01*
X0335000Y0521243D01*
X0334693Y0521182D01*
X0333662Y0522212D01*
X0333958Y0522765D01*
X0334000Y0522757D01*
X0334858Y0522928D01*
X0335586Y0523414D01*
X0336072Y0524142D01*
X0336243Y0525000D01*
X0336072Y0525858D01*
X0335586Y0526586D01*
X0334858Y0527072D01*
X0334755Y0527329D01*
X0334858Y0527928D01*
X0335586Y0528414D01*
X0336072Y0529142D01*
X0336243Y0530000D01*
X0336072Y0530858D01*
X0335586Y0531586D01*
X0334858Y0532072D01*
X0334000Y0532243D01*
X0333142Y0532072D01*
X0332414Y0531586D01*
X0332024Y0531548D01*
X0331451Y0532120D01*
X0331681Y0532675D01*
X0332000D01*
X0332507Y0532775D01*
X0332683Y0532893D01*
X0332858Y0532928D01*
X0333586Y0533414D01*
X0334072Y0534142D01*
X0334243Y0535000D01*
X0334072Y0535858D01*
X0333586Y0536586D01*
X0332858Y0537072D01*
X0332000Y0537243D01*
X0331142Y0537072D01*
X0330414Y0536586D01*
X0330060Y0536057D01*
X0329575Y0535887D01*
X0329326Y0535908D01*
X0329001Y0536125D01*
X0328494Y0536226D01*
X0279594D01*
X0279388Y0536826D01*
X0279855Y0537525D01*
X0280049Y0538500D01*
X0279855Y0539475D01*
X0279302Y0540302D01*
X0278475Y0540855D01*
X0277500Y0541049D01*
X0276524Y0540855D01*
X0275698Y0540302D01*
X0275145Y0539475D01*
X0274951Y0538500D01*
X0275145Y0537525D01*
X0275612Y0536826D01*
X0275406Y0536226D01*
X0270506D01*
X0269999Y0536125D01*
X0269569Y0535837D01*
X0267657Y0533925D01*
X0262049D01*
X0230282Y0565693D01*
X0230343Y0566000D01*
X0230172Y0566858D01*
X0229686Y0567586D01*
X0228958Y0568072D01*
X0228100Y0568243D01*
D02*
G37*
G36*
X0367000Y0533243D02*
X0366142Y0533072D01*
X0365414Y0532586D01*
X0364928Y0531858D01*
X0364757Y0531000D01*
X0364928Y0530142D01*
X0365414Y0529414D01*
X0366142Y0528928D01*
X0367000Y0528757D01*
X0367858Y0528928D01*
X0368586Y0529414D01*
X0369072Y0530142D01*
X0369243Y0531000D01*
X0369072Y0531858D01*
X0368586Y0532586D01*
X0367858Y0533072D01*
X0367000Y0533243D01*
D02*
G37*
G36*
X0426000Y0535987D02*
X0424968Y0535851D01*
X0424007Y0535453D01*
X0423181Y0534819D01*
X0422547Y0533993D01*
X0422149Y0533032D01*
X0422013Y0532000D01*
X0422149Y0530968D01*
X0422547Y0530007D01*
X0423181Y0529181D01*
X0424007Y0528547D01*
X0424968Y0528149D01*
X0426000Y0528013D01*
X0427032Y0528149D01*
X0427993Y0528547D01*
X0428819Y0529181D01*
X0429453Y0530007D01*
X0429851Y0530968D01*
X0429987Y0532000D01*
X0429851Y0533032D01*
X0429453Y0533993D01*
X0428819Y0534819D01*
X0427993Y0535453D01*
X0427032Y0535851D01*
X0426000Y0535987D01*
D02*
G37*
G36*
X0355000Y0532243D02*
X0354142Y0532072D01*
X0353414Y0531586D01*
X0352928Y0530858D01*
X0352757Y0530000D01*
X0352928Y0529142D01*
X0353414Y0528414D01*
X0354142Y0527928D01*
X0355000Y0527757D01*
X0355858Y0527928D01*
X0356586Y0528414D01*
X0357072Y0529142D01*
X0357243Y0530000D01*
X0357072Y0530858D01*
X0356586Y0531586D01*
X0355858Y0532072D01*
X0355000Y0532243D01*
D02*
G37*
G36*
X0347500Y0532549D02*
X0346525Y0532355D01*
X0345698Y0531802D01*
X0345145Y0530975D01*
X0344951Y0530000D01*
X0345145Y0529025D01*
X0345698Y0528198D01*
X0346525Y0527645D01*
X0347500Y0527451D01*
X0348476Y0527645D01*
X0349302Y0528198D01*
X0349855Y0529025D01*
X0350049Y0530000D01*
X0349855Y0530975D01*
X0349302Y0531802D01*
X0348476Y0532355D01*
X0347500Y0532549D01*
D02*
G37*
G36*
X0201500Y0530549D02*
X0200524Y0530355D01*
X0199698Y0529802D01*
X0199145Y0528975D01*
X0198951Y0528000D01*
X0199145Y0527025D01*
X0199698Y0526198D01*
X0200524Y0525645D01*
X0201500Y0525451D01*
X0202476Y0525645D01*
X0203302Y0526198D01*
X0203855Y0527025D01*
X0204049Y0528000D01*
X0203855Y0528975D01*
X0203302Y0529802D01*
X0202476Y0530355D01*
X0201500Y0530549D01*
D02*
G37*
G36*
X0228000Y0527549D02*
X0227025Y0527355D01*
X0226198Y0526802D01*
X0225645Y0525976D01*
X0225451Y0525000D01*
X0225645Y0524024D01*
X0226198Y0523198D01*
X0227025Y0522645D01*
X0228000Y0522451D01*
X0228976Y0522645D01*
X0229802Y0523198D01*
X0230355Y0524024D01*
X0230549Y0525000D01*
X0230355Y0525976D01*
X0229802Y0526802D01*
X0228976Y0527355D01*
X0228000Y0527549D01*
D02*
G37*
G36*
X0406000Y0490549D02*
X0405024Y0490355D01*
X0404198Y0489802D01*
X0403645Y0488975D01*
X0403451Y0488000D01*
X0403645Y0487024D01*
X0404198Y0486198D01*
X0405024Y0485645D01*
X0406000Y0485451D01*
X0406976Y0485645D01*
X0407802Y0486198D01*
X0408355Y0487024D01*
X0408549Y0488000D01*
X0408355Y0488975D01*
X0407802Y0489802D01*
X0406976Y0490355D01*
X0406000Y0490549D01*
D02*
G37*
G36*
X0400000Y0507000D02*
X0375000D01*
Y0485000D01*
X0400000D01*
Y0507000D01*
D02*
G37*
G36*
X0209500Y0482921D02*
X0208968Y0482851D01*
X0208007Y0482453D01*
X0207181Y0481819D01*
X0206547Y0480993D01*
X0206149Y0480032D01*
X0206079Y0479500D01*
X0209500D01*
Y0482921D01*
D02*
G37*
G36*
X0360000Y0482987D02*
X0358968Y0482851D01*
X0358007Y0482453D01*
X0357181Y0481819D01*
X0356547Y0480993D01*
X0356149Y0480032D01*
X0356013Y0479000D01*
X0356149Y0477968D01*
X0356547Y0477007D01*
X0357181Y0476181D01*
X0357514Y0475925D01*
X0357310Y0475325D01*
X0352690D01*
X0352486Y0475925D01*
X0352819Y0476181D01*
X0353453Y0477007D01*
X0353851Y0477968D01*
X0353987Y0479000D01*
X0353851Y0480032D01*
X0353453Y0480993D01*
X0352819Y0481819D01*
X0351993Y0482453D01*
X0351032Y0482851D01*
X0350000Y0482987D01*
X0348968Y0482851D01*
X0348007Y0482453D01*
X0347181Y0481819D01*
X0346547Y0480993D01*
X0346149Y0480032D01*
X0346013Y0479000D01*
X0346149Y0477968D01*
X0346547Y0477007D01*
X0347181Y0476181D01*
X0347514Y0475925D01*
X0347310Y0475325D01*
X0342690D01*
X0342486Y0475925D01*
X0342819Y0476181D01*
X0343453Y0477007D01*
X0343851Y0477968D01*
X0343987Y0479000D01*
X0343851Y0480032D01*
X0343453Y0480993D01*
X0342819Y0481819D01*
X0341993Y0482453D01*
X0341032Y0482851D01*
X0340000Y0482987D01*
X0338968Y0482851D01*
X0338007Y0482453D01*
X0337181Y0481819D01*
X0336547Y0480993D01*
X0336149Y0480032D01*
X0336013Y0479000D01*
X0336149Y0477968D01*
X0336547Y0477007D01*
X0337181Y0476181D01*
X0337514Y0475925D01*
X0337310Y0475325D01*
X0335000D01*
X0334493Y0475225D01*
X0334063Y0474937D01*
X0331700Y0472574D01*
X0331032Y0472851D01*
X0330000Y0472987D01*
X0328968Y0472851D01*
X0328007Y0472453D01*
X0327181Y0471819D01*
X0326547Y0470993D01*
X0326149Y0470032D01*
X0326013Y0469000D01*
X0326149Y0467968D01*
X0326547Y0467007D01*
X0327181Y0466181D01*
X0328007Y0465547D01*
X0328968Y0465149D01*
X0330000Y0465013D01*
X0331032Y0465149D01*
X0331993Y0465547D01*
X0332819Y0466181D01*
X0333453Y0467007D01*
X0333851Y0467968D01*
X0333987Y0469000D01*
X0333851Y0470032D01*
X0333574Y0470700D01*
X0335549Y0472675D01*
X0337310D01*
X0337514Y0472075D01*
X0337181Y0471819D01*
X0336547Y0470993D01*
X0336149Y0470032D01*
X0336013Y0469000D01*
X0336149Y0467968D01*
X0336547Y0467007D01*
X0337181Y0466181D01*
X0338007Y0465547D01*
X0338968Y0465149D01*
X0340000Y0465013D01*
X0341032Y0465149D01*
X0341993Y0465547D01*
X0342819Y0466181D01*
X0343453Y0467007D01*
X0343851Y0467968D01*
X0343987Y0469000D01*
X0343851Y0470032D01*
X0343453Y0470993D01*
X0342819Y0471819D01*
X0342486Y0472075D01*
X0342690Y0472675D01*
X0347310D01*
X0347514Y0472075D01*
X0347181Y0471819D01*
X0346547Y0470993D01*
X0346149Y0470032D01*
X0346013Y0469000D01*
X0346149Y0467968D01*
X0346547Y0467007D01*
X0347181Y0466181D01*
X0348007Y0465547D01*
X0348968Y0465149D01*
X0350000Y0465013D01*
X0351032Y0465149D01*
X0351993Y0465547D01*
X0352819Y0466181D01*
X0353453Y0467007D01*
X0353851Y0467968D01*
X0353987Y0469000D01*
X0353851Y0470032D01*
X0353453Y0470993D01*
X0352819Y0471819D01*
X0352486Y0472075D01*
X0352690Y0472675D01*
X0357310D01*
X0357514Y0472075D01*
X0357181Y0471819D01*
X0356547Y0470993D01*
X0356149Y0470032D01*
X0356013Y0469000D01*
X0356149Y0467968D01*
X0356547Y0467007D01*
X0357181Y0466181D01*
X0358007Y0465547D01*
X0358968Y0465149D01*
X0360000Y0465013D01*
X0361032Y0465149D01*
X0361993Y0465547D01*
X0362819Y0466181D01*
X0363453Y0467007D01*
X0363851Y0467968D01*
X0363987Y0469000D01*
X0363851Y0470032D01*
X0363453Y0470993D01*
X0362819Y0471819D01*
X0362486Y0472075D01*
X0362690Y0472675D01*
X0367310D01*
X0367514Y0472075D01*
X0367181Y0471819D01*
X0366547Y0470993D01*
X0366149Y0470032D01*
X0366013Y0469000D01*
X0366149Y0467968D01*
X0366547Y0467007D01*
X0367181Y0466181D01*
X0368007Y0465547D01*
X0368968Y0465149D01*
X0370000Y0465013D01*
X0371032Y0465149D01*
X0371993Y0465547D01*
X0372819Y0466181D01*
X0373453Y0467007D01*
X0373851Y0467968D01*
X0373987Y0469000D01*
X0373851Y0470032D01*
X0373453Y0470993D01*
X0372819Y0471819D01*
X0372486Y0472075D01*
X0372690Y0472675D01*
X0377822D01*
X0377928Y0472142D01*
X0378414Y0471414D01*
X0379142Y0470928D01*
X0380000Y0470757D01*
X0380858Y0470928D01*
X0381586Y0471414D01*
X0382072Y0472142D01*
X0382243Y0473000D01*
X0382072Y0473858D01*
X0381586Y0474586D01*
X0380858Y0475072D01*
X0380000Y0475243D01*
X0379599Y0475163D01*
X0379507Y0475225D01*
X0379000Y0475325D01*
X0373953D01*
Y0482953D01*
X0366047D01*
Y0475325D01*
X0362690D01*
X0362486Y0475925D01*
X0362819Y0476181D01*
X0363453Y0477007D01*
X0363851Y0477968D01*
X0363987Y0479000D01*
X0363851Y0480032D01*
X0363453Y0480993D01*
X0362819Y0481819D01*
X0361993Y0482453D01*
X0361032Y0482851D01*
X0360000Y0482987D01*
D02*
G37*
G36*
X0209500Y0478500D02*
X0206079D01*
X0206149Y0477968D01*
X0206547Y0477007D01*
X0207181Y0476181D01*
X0208007Y0475547D01*
X0208968Y0475149D01*
X0209500Y0475079D01*
Y0478500D01*
D02*
G37*
G36*
X0330000Y0482987D02*
X0328968Y0482851D01*
X0328007Y0482453D01*
X0327181Y0481819D01*
X0326547Y0480993D01*
X0326149Y0480032D01*
X0326013Y0479000D01*
X0326149Y0477968D01*
X0326547Y0477007D01*
X0327181Y0476181D01*
X0328007Y0475547D01*
X0328968Y0475149D01*
X0330000Y0475013D01*
X0331032Y0475149D01*
X0331993Y0475547D01*
X0332819Y0476181D01*
X0333453Y0477007D01*
X0333851Y0477968D01*
X0333987Y0479000D01*
X0333851Y0480032D01*
X0333453Y0480993D01*
X0332819Y0481819D01*
X0331993Y0482453D01*
X0331032Y0482851D01*
X0330000Y0482987D01*
D02*
G37*
G36*
X0320000D02*
X0318968Y0482851D01*
X0318007Y0482453D01*
X0317181Y0481819D01*
X0316547Y0480993D01*
X0316149Y0480032D01*
X0316013Y0479000D01*
X0316149Y0477968D01*
X0316547Y0477007D01*
X0317181Y0476181D01*
X0318007Y0475547D01*
X0318968Y0475149D01*
X0320000Y0475013D01*
X0321032Y0475149D01*
X0321993Y0475547D01*
X0322819Y0476181D01*
X0323453Y0477007D01*
X0323851Y0477968D01*
X0323987Y0479000D01*
X0323851Y0480032D01*
X0323453Y0480993D01*
X0322819Y0481819D01*
X0321993Y0482453D01*
X0321032Y0482851D01*
X0320000Y0482987D01*
D02*
G37*
G36*
X0300000D02*
X0298968Y0482851D01*
X0298007Y0482453D01*
X0297181Y0481819D01*
X0296547Y0480993D01*
X0296149Y0480032D01*
X0296013Y0479000D01*
X0296149Y0477968D01*
X0296547Y0477007D01*
X0297181Y0476181D01*
X0298007Y0475547D01*
X0298968Y0475149D01*
X0300000Y0475013D01*
X0301032Y0475149D01*
X0301993Y0475547D01*
X0302819Y0476181D01*
X0303453Y0477007D01*
X0303851Y0477968D01*
X0303987Y0479000D01*
X0303851Y0480032D01*
X0303453Y0480993D01*
X0302819Y0481819D01*
X0301993Y0482453D01*
X0301032Y0482851D01*
X0300000Y0482987D01*
D02*
G37*
G36*
X0290000D02*
X0288968Y0482851D01*
X0288007Y0482453D01*
X0287181Y0481819D01*
X0286547Y0480993D01*
X0286149Y0480032D01*
X0286013Y0479000D01*
X0286149Y0477968D01*
X0286547Y0477007D01*
X0287181Y0476181D01*
X0288007Y0475547D01*
X0288968Y0475149D01*
X0290000Y0475013D01*
X0291032Y0475149D01*
X0291993Y0475547D01*
X0292819Y0476181D01*
X0293453Y0477007D01*
X0293851Y0477968D01*
X0293987Y0479000D01*
X0293851Y0480032D01*
X0293453Y0480993D01*
X0292819Y0481819D01*
X0291993Y0482453D01*
X0291032Y0482851D01*
X0290000Y0482987D01*
D02*
G37*
G36*
X0280000D02*
X0278968Y0482851D01*
X0278007Y0482453D01*
X0277181Y0481819D01*
X0276547Y0480993D01*
X0276149Y0480032D01*
X0276013Y0479000D01*
X0276149Y0477968D01*
X0276547Y0477007D01*
X0277181Y0476181D01*
X0278007Y0475547D01*
X0278968Y0475149D01*
X0280000Y0475013D01*
X0281032Y0475149D01*
X0281993Y0475547D01*
X0282819Y0476181D01*
X0283453Y0477007D01*
X0283851Y0477968D01*
X0283987Y0479000D01*
X0283851Y0480032D01*
X0283453Y0480993D01*
X0282819Y0481819D01*
X0281993Y0482453D01*
X0281032Y0482851D01*
X0280000Y0482987D01*
D02*
G37*
G36*
X0209500Y0472921D02*
X0208968Y0472851D01*
X0208007Y0472453D01*
X0207181Y0471819D01*
X0206547Y0470993D01*
X0206149Y0470032D01*
X0206079Y0469500D01*
X0209500D01*
Y0472921D01*
D02*
G37*
G36*
X0447000Y0470549D02*
X0446025Y0470355D01*
X0445198Y0469802D01*
X0444645Y0468975D01*
X0444451Y0468000D01*
X0444645Y0467025D01*
X0445198Y0466198D01*
X0446025Y0465645D01*
X0447000Y0465451D01*
X0447975Y0465645D01*
X0448802Y0466198D01*
X0449355Y0467025D01*
X0449549Y0468000D01*
X0449355Y0468975D01*
X0448802Y0469802D01*
X0447975Y0470355D01*
X0447000Y0470549D01*
D02*
G37*
G36*
X0209500Y0468500D02*
X0206079D01*
X0206149Y0467968D01*
X0206547Y0467007D01*
X0207181Y0466181D01*
X0208007Y0465547D01*
X0208968Y0465149D01*
X0209500Y0465079D01*
Y0468500D01*
D02*
G37*
G36*
X0320000Y0472987D02*
X0318968Y0472851D01*
X0318007Y0472453D01*
X0317181Y0471819D01*
X0316547Y0470993D01*
X0316149Y0470032D01*
X0316013Y0469000D01*
X0316149Y0467968D01*
X0316547Y0467007D01*
X0317181Y0466181D01*
X0318007Y0465547D01*
X0318968Y0465149D01*
X0320000Y0465013D01*
X0321032Y0465149D01*
X0321993Y0465547D01*
X0322819Y0466181D01*
X0323453Y0467007D01*
X0323851Y0467968D01*
X0323987Y0469000D01*
X0323851Y0470032D01*
X0323453Y0470993D01*
X0322819Y0471819D01*
X0321993Y0472453D01*
X0321032Y0472851D01*
X0320000Y0472987D01*
D02*
G37*
G36*
X0310000D02*
X0308968Y0472851D01*
X0308007Y0472453D01*
X0307181Y0471819D01*
X0306547Y0470993D01*
X0306149Y0470032D01*
X0306013Y0469000D01*
X0306149Y0467968D01*
X0306547Y0467007D01*
X0307181Y0466181D01*
X0308007Y0465547D01*
X0308968Y0465149D01*
X0310000Y0465013D01*
X0311032Y0465149D01*
X0311993Y0465547D01*
X0312819Y0466181D01*
X0313453Y0467007D01*
X0313851Y0467968D01*
X0313987Y0469000D01*
X0313851Y0470032D01*
X0313453Y0470993D01*
X0312819Y0471819D01*
X0311993Y0472453D01*
X0311032Y0472851D01*
X0310000Y0472987D01*
D02*
G37*
G36*
X0300000D02*
X0298968Y0472851D01*
X0298007Y0472453D01*
X0297181Y0471819D01*
X0296547Y0470993D01*
X0296149Y0470032D01*
X0296013Y0469000D01*
X0296149Y0467968D01*
X0296547Y0467007D01*
X0297181Y0466181D01*
X0298007Y0465547D01*
X0298968Y0465149D01*
X0300000Y0465013D01*
X0301032Y0465149D01*
X0301993Y0465547D01*
X0302819Y0466181D01*
X0303453Y0467007D01*
X0303851Y0467968D01*
X0303987Y0469000D01*
X0303851Y0470032D01*
X0303453Y0470993D01*
X0302819Y0471819D01*
X0301993Y0472453D01*
X0301032Y0472851D01*
X0300000Y0472987D01*
D02*
G37*
G36*
X0290000D02*
X0288968Y0472851D01*
X0288007Y0472453D01*
X0287181Y0471819D01*
X0286547Y0470993D01*
X0286149Y0470032D01*
X0286013Y0469000D01*
X0286149Y0467968D01*
X0286547Y0467007D01*
X0287181Y0466181D01*
X0288007Y0465547D01*
X0288968Y0465149D01*
X0290000Y0465013D01*
X0291032Y0465149D01*
X0291993Y0465547D01*
X0292819Y0466181D01*
X0293453Y0467007D01*
X0293851Y0467968D01*
X0293987Y0469000D01*
X0293851Y0470032D01*
X0293453Y0470993D01*
X0292819Y0471819D01*
X0291993Y0472453D01*
X0291032Y0472851D01*
X0290000Y0472987D01*
D02*
G37*
G36*
X0280000D02*
X0278968Y0472851D01*
X0278007Y0472453D01*
X0277181Y0471819D01*
X0276547Y0470993D01*
X0276149Y0470032D01*
X0276013Y0469000D01*
X0276149Y0467968D01*
X0276547Y0467007D01*
X0277181Y0466181D01*
X0278007Y0465547D01*
X0278968Y0465149D01*
X0280000Y0465013D01*
X0281032Y0465149D01*
X0281993Y0465547D01*
X0282819Y0466181D01*
X0283453Y0467007D01*
X0283851Y0467968D01*
X0283987Y0469000D01*
X0283851Y0470032D01*
X0283453Y0470993D01*
X0282819Y0471819D01*
X0281993Y0472453D01*
X0281032Y0472851D01*
X0280000Y0472987D01*
D02*
G37*
G36*
X0270000D02*
X0268968Y0472851D01*
X0268007Y0472453D01*
X0267181Y0471819D01*
X0266547Y0470993D01*
X0266149Y0470032D01*
X0266013Y0469000D01*
X0266149Y0467968D01*
X0266547Y0467007D01*
X0267181Y0466181D01*
X0268007Y0465547D01*
X0268968Y0465149D01*
X0270000Y0465013D01*
X0271032Y0465149D01*
X0271993Y0465547D01*
X0272819Y0466181D01*
X0273453Y0467007D01*
X0273851Y0467968D01*
X0273987Y0469000D01*
X0273851Y0470032D01*
X0273453Y0470993D01*
X0272819Y0471819D01*
X0271993Y0472453D01*
X0271032Y0472851D01*
X0270000Y0472987D01*
D02*
G37*
G36*
X0314000Y0456243D02*
X0313142Y0456072D01*
X0312414Y0455586D01*
X0311928Y0454858D01*
X0311757Y0454000D01*
X0311928Y0453142D01*
X0312414Y0452414D01*
X0312757Y0452184D01*
X0312775Y0452093D01*
X0313063Y0451663D01*
X0312823Y0451114D01*
X0312791Y0451086D01*
X0312000Y0451243D01*
X0311142Y0451072D01*
X0310414Y0450586D01*
X0309928Y0449858D01*
X0309757Y0449000D01*
X0309928Y0448142D01*
X0310147Y0447813D01*
X0309681Y0447430D01*
X0308326Y0448786D01*
Y0450240D01*
X0308586Y0450414D01*
X0309072Y0451142D01*
X0309243Y0452000D01*
X0309072Y0452858D01*
X0308586Y0453586D01*
X0307858Y0454072D01*
X0307000Y0454243D01*
X0306142Y0454072D01*
X0305414Y0453586D01*
X0304928Y0452858D01*
X0304757Y0452000D01*
X0304928Y0451142D01*
X0305414Y0450414D01*
X0305675Y0450240D01*
Y0448480D01*
X0305158Y0448261D01*
X0304727Y0448660D01*
X0304774Y0448900D01*
X0304604Y0449758D01*
X0304117Y0450486D01*
X0303390Y0450972D01*
X0302531Y0451143D01*
X0301673Y0450972D01*
X0300945Y0450486D01*
X0300459Y0449758D01*
X0300288Y0448900D01*
X0300459Y0448042D01*
X0300945Y0447314D01*
X0301673Y0446828D01*
X0302531Y0446657D01*
X0302839Y0446718D01*
X0306494Y0443063D01*
X0306924Y0442775D01*
X0307431Y0442674D01*
X0346451D01*
X0361818Y0427307D01*
X0361757Y0427000D01*
X0361928Y0426142D01*
X0362414Y0425414D01*
X0363142Y0424928D01*
X0364000Y0424757D01*
X0364858Y0424928D01*
X0365586Y0425414D01*
X0366072Y0426142D01*
X0366243Y0427000D01*
X0366072Y0427858D01*
X0365586Y0428586D01*
X0364858Y0429072D01*
X0364000Y0429243D01*
X0363693Y0429182D01*
X0362156Y0430719D01*
X0362154Y0430727D01*
X0362379Y0431345D01*
X0362501Y0431355D01*
X0363142Y0430928D01*
X0364000Y0430757D01*
X0364858Y0430928D01*
X0365586Y0431414D01*
X0366072Y0432142D01*
X0366243Y0433000D01*
X0366072Y0433858D01*
X0365586Y0434586D01*
X0364858Y0435072D01*
X0364000Y0435243D01*
X0363142Y0435072D01*
X0362414Y0434586D01*
X0362240Y0434326D01*
X0361549D01*
X0351354Y0444520D01*
X0351584Y0445075D01*
X0356051D01*
X0361818Y0439307D01*
X0361757Y0439000D01*
X0361928Y0438142D01*
X0362414Y0437414D01*
X0363142Y0436928D01*
X0364000Y0436757D01*
X0364858Y0436928D01*
X0365586Y0437414D01*
X0366072Y0438142D01*
X0366243Y0439000D01*
X0366072Y0439858D01*
X0365586Y0440586D01*
X0364858Y0441072D01*
X0364000Y0441243D01*
X0363693Y0441182D01*
X0359154Y0445720D01*
X0359384Y0446275D01*
X0360851D01*
X0361818Y0445307D01*
X0361757Y0445000D01*
X0361928Y0444142D01*
X0362414Y0443414D01*
X0363142Y0442928D01*
X0364000Y0442757D01*
X0364858Y0442928D01*
X0365586Y0443414D01*
X0366072Y0444142D01*
X0366243Y0445000D01*
X0366072Y0445858D01*
X0365586Y0446586D01*
X0364858Y0447072D01*
X0364000Y0447243D01*
X0363693Y0447182D01*
X0362337Y0448537D01*
X0361907Y0448825D01*
X0361400Y0448925D01*
X0319549D01*
X0315776Y0452698D01*
X0316072Y0453142D01*
X0316243Y0454000D01*
X0316072Y0454858D01*
X0315586Y0455586D01*
X0314858Y0456072D01*
X0314000Y0456243D01*
D02*
G37*
G36*
X0408500Y0452914D02*
X0407711Y0452810D01*
X0406510Y0452313D01*
X0405479Y0451521D01*
X0404688Y0450490D01*
X0404190Y0449289D01*
X0404086Y0448500D01*
X0408500D01*
Y0452914D01*
D02*
G37*
G36*
X0295500Y0453049D02*
X0294525Y0452855D01*
X0293698Y0452302D01*
X0293145Y0451475D01*
X0292951Y0450500D01*
X0293145Y0449524D01*
X0293698Y0448698D01*
X0294525Y0448145D01*
X0295500Y0447951D01*
X0296476Y0448145D01*
X0297302Y0448698D01*
X0297855Y0449524D01*
X0298049Y0450500D01*
X0297855Y0451475D01*
X0297302Y0452302D01*
X0296476Y0452855D01*
X0295500Y0453049D01*
D02*
G37*
G36*
X0220000Y0449049D02*
X0219024Y0448855D01*
X0218198Y0448302D01*
X0217645Y0447475D01*
X0217451Y0446500D01*
X0217645Y0445525D01*
X0218198Y0444698D01*
X0219024Y0444145D01*
X0220000Y0443951D01*
X0220975Y0444145D01*
X0221802Y0444698D01*
X0222355Y0445525D01*
X0222549Y0446500D01*
X0222355Y0447475D01*
X0221802Y0448302D01*
X0220975Y0448855D01*
X0220000Y0449049D01*
D02*
G37*
G36*
X0408500Y0447500D02*
X0404086D01*
X0404190Y0446711D01*
X0404688Y0445510D01*
X0405479Y0444479D01*
X0406510Y0443687D01*
X0407711Y0443190D01*
X0408500Y0443086D01*
Y0447500D01*
D02*
G37*
G36*
X0442500Y0431874D02*
X0434520D01*
Y0429405D01*
X0442500D01*
Y0431874D01*
D02*
G37*
G36*
X0280500Y0431549D02*
X0279524Y0431355D01*
X0278698Y0430802D01*
X0278145Y0429976D01*
X0277951Y0429000D01*
X0278145Y0428024D01*
X0278698Y0427198D01*
X0279524Y0426645D01*
X0280500Y0426451D01*
X0281475Y0426645D01*
X0282302Y0427198D01*
X0282855Y0428024D01*
X0283049Y0429000D01*
X0282855Y0429976D01*
X0282302Y0430802D01*
X0281475Y0431355D01*
X0280500Y0431549D01*
D02*
G37*
G36*
X0442500Y0428406D02*
X0434520D01*
Y0425937D01*
X0442500D01*
Y0428406D01*
D02*
G37*
G36*
X0409500Y0427323D02*
Y0422909D01*
X0413914D01*
X0413810Y0423698D01*
X0413312Y0424899D01*
X0412521Y0425931D01*
X0411490Y0426722D01*
X0410289Y0427219D01*
X0409500Y0427323D01*
D02*
G37*
G36*
X0408500D02*
X0407711Y0427219D01*
X0406510Y0426722D01*
X0405479Y0425931D01*
X0404688Y0424899D01*
X0404190Y0423698D01*
X0404086Y0422909D01*
X0408500D01*
Y0427323D01*
D02*
G37*
G36*
X0413914Y0421909D02*
X0409500D01*
Y0417496D01*
X0410289Y0417599D01*
X0411490Y0418097D01*
X0412521Y0418888D01*
X0413312Y0419920D01*
X0413810Y0421121D01*
X0413914Y0421909D01*
D02*
G37*
G36*
X0408500D02*
X0404086D01*
X0404190Y0421121D01*
X0404688Y0419920D01*
X0405479Y0418888D01*
X0406510Y0418097D01*
X0407711Y0417599D01*
X0408500Y0417496D01*
Y0421909D01*
D02*
G37*
G36*
X0327000Y0422549D02*
X0326025Y0422355D01*
X0325198Y0421802D01*
X0324645Y0420975D01*
X0324451Y0420000D01*
X0324645Y0419025D01*
X0325198Y0418198D01*
X0326025Y0417645D01*
X0327000Y0417451D01*
X0327976Y0417645D01*
X0328802Y0418198D01*
X0329355Y0419025D01*
X0329549Y0420000D01*
X0329355Y0420975D01*
X0328802Y0421802D01*
X0327976Y0422355D01*
X0327000Y0422549D01*
D02*
G37*
G36*
X0391283Y0452980D02*
X0389995Y0452810D01*
X0388794Y0452313D01*
X0387762Y0451521D01*
X0386971Y0450490D01*
X0386473Y0449289D01*
X0386304Y0448000D01*
X0386473Y0446711D01*
X0386971Y0445510D01*
X0387762Y0444479D01*
X0388794Y0443687D01*
X0389958Y0443205D01*
Y0427204D01*
X0388794Y0426722D01*
X0387762Y0425931D01*
X0386971Y0424899D01*
X0386473Y0423698D01*
X0386304Y0422409D01*
X0386473Y0421121D01*
X0386971Y0419920D01*
X0387762Y0418888D01*
X0388794Y0418097D01*
X0389995Y0417599D01*
X0391283Y0417430D01*
X0392572Y0417599D01*
X0393773Y0418097D01*
X0394805Y0418888D01*
X0395596Y0419920D01*
X0396093Y0421121D01*
X0396263Y0422409D01*
X0396093Y0423698D01*
X0395596Y0424899D01*
X0394805Y0425931D01*
X0393773Y0426722D01*
X0392609Y0427204D01*
Y0443205D01*
X0393773Y0443687D01*
X0394805Y0444479D01*
X0395596Y0445510D01*
X0396093Y0446711D01*
X0396263Y0448000D01*
X0396093Y0449289D01*
X0395596Y0450490D01*
X0394805Y0451521D01*
X0393773Y0452313D01*
X0392572Y0452810D01*
X0391283Y0452980D01*
D02*
G37*
G36*
X0409500Y0414549D02*
X0408525Y0414355D01*
X0407698Y0413802D01*
X0407145Y0412976D01*
X0406951Y0412000D01*
X0407145Y0411025D01*
X0407698Y0410198D01*
X0408525Y0409645D01*
X0409500Y0409451D01*
X0410475Y0409645D01*
X0411302Y0410198D01*
X0411855Y0411025D01*
X0412049Y0412000D01*
X0411855Y0412976D01*
X0411302Y0413802D01*
X0410475Y0414355D01*
X0409500Y0414549D01*
D02*
G37*
G36*
X0297000Y0413549D02*
X0296024Y0413355D01*
X0295198Y0412802D01*
X0294645Y0411975D01*
X0294451Y0411000D01*
X0294645Y0410024D01*
X0295198Y0409198D01*
X0296024Y0408645D01*
X0297000Y0408451D01*
X0297975Y0408645D01*
X0298802Y0409198D01*
X0299355Y0410024D01*
X0299549Y0411000D01*
X0299355Y0411975D01*
X0298802Y0412802D01*
X0297975Y0413355D01*
X0297000Y0413549D01*
D02*
G37*
G36*
X0442500Y0410063D02*
X0434520D01*
Y0407594D01*
X0442500D01*
Y0410063D01*
D02*
G37*
G36*
X0221000Y0409549D02*
X0220024Y0409355D01*
X0219198Y0408802D01*
X0218645Y0407975D01*
X0218451Y0407000D01*
X0218645Y0406025D01*
X0219198Y0405198D01*
X0220024Y0404645D01*
X0221000Y0404451D01*
X0221975Y0404645D01*
X0222802Y0405198D01*
X0223355Y0406025D01*
X0223549Y0407000D01*
X0223355Y0407975D01*
X0222802Y0408802D01*
X0221975Y0409355D01*
X0221000Y0409549D01*
D02*
G37*
G36*
X0442500Y0406595D02*
X0434520D01*
Y0404126D01*
X0442500D01*
Y0406595D01*
D02*
G37*
G36*
X0347000Y0408049D02*
X0346024Y0407855D01*
X0345198Y0407302D01*
X0344645Y0406475D01*
X0344451Y0405500D01*
X0344645Y0404525D01*
X0345198Y0403698D01*
X0346024Y0403145D01*
X0347000Y0402951D01*
X0347975Y0403145D01*
X0348802Y0403698D01*
X0349355Y0404525D01*
X0349549Y0405500D01*
X0349355Y0406475D01*
X0348802Y0407302D01*
X0347975Y0407855D01*
X0347000Y0408049D01*
D02*
G37*
G36*
X0442500Y0392874D02*
X0434520D01*
Y0390406D01*
X0442500D01*
Y0392874D01*
D02*
G37*
G36*
Y0389405D02*
X0434520D01*
Y0386937D01*
X0442500D01*
Y0389405D01*
D02*
G37*
G36*
X0345000Y0386549D02*
X0344024Y0386355D01*
X0343198Y0385802D01*
X0342645Y0384976D01*
X0342451Y0384000D01*
X0342645Y0383025D01*
X0343198Y0382198D01*
X0344024Y0381645D01*
X0345000Y0381451D01*
X0345975Y0381645D01*
X0346802Y0382198D01*
X0347355Y0383025D01*
X0347549Y0384000D01*
X0347355Y0384976D01*
X0346802Y0385802D01*
X0345975Y0386355D01*
X0345000Y0386549D01*
D02*
G37*
G36*
X0374000Y0385549D02*
X0373025Y0385355D01*
X0372198Y0384802D01*
X0371645Y0383976D01*
X0371451Y0383000D01*
X0371645Y0382025D01*
X0372198Y0381198D01*
X0373025Y0380645D01*
X0374000Y0380451D01*
X0374975Y0380645D01*
X0375802Y0381198D01*
X0376355Y0382025D01*
X0376549Y0383000D01*
X0376355Y0383976D01*
X0375802Y0384802D01*
X0374975Y0385355D01*
X0374000Y0385549D01*
D02*
G37*
G36*
X0442500Y0371063D02*
X0434520D01*
Y0368595D01*
X0442500D01*
Y0371063D01*
D02*
G37*
G36*
Y0367595D02*
X0434520D01*
Y0365126D01*
X0442500D01*
Y0367595D01*
D02*
G37*
G36*
X0374500Y0369049D02*
X0373524Y0368855D01*
X0372698Y0368302D01*
X0372145Y0367476D01*
X0371951Y0366500D01*
X0372145Y0365525D01*
X0372698Y0364698D01*
X0373524Y0364145D01*
X0374500Y0363951D01*
X0375476Y0364145D01*
X0376302Y0364698D01*
X0376855Y0365525D01*
X0377049Y0366500D01*
X0376855Y0367476D01*
X0376302Y0368302D01*
X0375476Y0368855D01*
X0374500Y0369049D01*
D02*
G37*
G36*
X0363500Y0368549D02*
X0362525Y0368355D01*
X0361698Y0367802D01*
X0361145Y0366975D01*
X0360951Y0366000D01*
X0361145Y0365024D01*
X0361698Y0364198D01*
X0362525Y0363645D01*
X0363500Y0363451D01*
X0364475Y0363645D01*
X0365302Y0364198D01*
X0365855Y0365024D01*
X0366049Y0366000D01*
X0365855Y0366975D01*
X0365302Y0367802D01*
X0364475Y0368355D01*
X0363500Y0368549D01*
D02*
G37*
G36*
X0332000Y0360549D02*
X0331025Y0360355D01*
X0330198Y0359802D01*
X0329645Y0358976D01*
X0329451Y0358000D01*
X0329645Y0357025D01*
X0330198Y0356198D01*
X0331025Y0355645D01*
X0332000Y0355451D01*
X0332976Y0355645D01*
X0333802Y0356198D01*
X0334355Y0357025D01*
X0334549Y0358000D01*
X0334355Y0358976D01*
X0333802Y0359802D01*
X0332976Y0360355D01*
X0332000Y0360549D01*
D02*
G37*
G36*
X0279000D02*
X0278025Y0360355D01*
X0277198Y0359802D01*
X0276645Y0358976D01*
X0276451Y0358000D01*
X0276645Y0357025D01*
X0277198Y0356198D01*
X0278025Y0355645D01*
X0279000Y0355451D01*
X0279976Y0355645D01*
X0280802Y0356198D01*
X0281355Y0357025D01*
X0281549Y0358000D01*
X0281355Y0358976D01*
X0280802Y0359802D01*
X0279976Y0360355D01*
X0279000Y0360549D01*
D02*
G37*
G36*
X0388500Y0359549D02*
X0387525Y0359355D01*
X0386698Y0358802D01*
X0386145Y0357976D01*
X0385951Y0357000D01*
X0386145Y0356025D01*
X0386698Y0355198D01*
X0387525Y0354645D01*
X0388500Y0354451D01*
X0389475Y0354645D01*
X0390302Y0355198D01*
X0390855Y0356025D01*
X0391049Y0357000D01*
X0390855Y0357976D01*
X0390302Y0358802D01*
X0389475Y0359355D01*
X0388500Y0359549D01*
D02*
G37*
G36*
X0363500D02*
X0362525Y0359355D01*
X0361698Y0358802D01*
X0361145Y0357976D01*
X0360951Y0357000D01*
X0361145Y0356025D01*
X0361698Y0355198D01*
X0362525Y0354645D01*
X0363500Y0354451D01*
X0364475Y0354645D01*
X0365302Y0355198D01*
X0365855Y0356025D01*
X0366049Y0357000D01*
X0365855Y0357976D01*
X0365302Y0358802D01*
X0364475Y0359355D01*
X0363500Y0359549D01*
D02*
G37*
G36*
X0350500D02*
X0349524Y0359355D01*
X0348698Y0358802D01*
X0348145Y0357976D01*
X0347951Y0357000D01*
X0348145Y0356025D01*
X0348698Y0355198D01*
X0349524Y0354645D01*
X0350500Y0354451D01*
X0351476Y0354645D01*
X0352302Y0355198D01*
X0352855Y0356025D01*
X0353049Y0357000D01*
X0352855Y0357976D01*
X0352302Y0358802D01*
X0351476Y0359355D01*
X0350500Y0359549D01*
D02*
G37*
G36*
X0374500Y0359049D02*
X0373524Y0358855D01*
X0372698Y0358302D01*
X0372145Y0357475D01*
X0371951Y0356500D01*
X0372145Y0355524D01*
X0372698Y0354698D01*
X0373524Y0354145D01*
X0374500Y0353951D01*
X0375476Y0354145D01*
X0376302Y0354698D01*
X0376855Y0355524D01*
X0377049Y0356500D01*
X0376855Y0357475D01*
X0376302Y0358302D01*
X0375476Y0358855D01*
X0374500Y0359049D01*
D02*
G37*
G36*
X0185500Y0347000D02*
Y0338500D01*
X0194000D01*
Y0347000D01*
X0185500D01*
D02*
G37*
G36*
X0320071Y0349244D02*
X0311772D01*
Y0340945D01*
X0312973D01*
X0313177Y0340345D01*
X0312962Y0340180D01*
X0312297Y0339313D01*
X0311878Y0338304D01*
X0311802Y0337720D01*
X0315921D01*
X0320041D01*
X0319964Y0338304D01*
X0319546Y0339313D01*
X0318881Y0340180D01*
X0318666Y0340345D01*
X0318870Y0340945D01*
X0320071D01*
Y0349244D01*
D02*
G37*
G36*
X0441500Y0346000D02*
X0433000D01*
Y0337500D01*
X0441500D01*
Y0346000D01*
D02*
G37*
G36*
X0392000Y0341549D02*
X0391024Y0341355D01*
X0390198Y0340802D01*
X0389645Y0339976D01*
X0389451Y0339000D01*
X0389645Y0338024D01*
X0390198Y0337198D01*
X0391024Y0336645D01*
X0392000Y0336451D01*
X0392975Y0336645D01*
X0393802Y0337198D01*
X0394355Y0338024D01*
X0394549Y0339000D01*
X0394355Y0339976D01*
X0393802Y0340802D01*
X0392975Y0341355D01*
X0392000Y0341549D01*
D02*
G37*
G36*
X0320041Y0336720D02*
X0316421D01*
Y0333101D01*
X0317004Y0333178D01*
X0318014Y0333596D01*
X0318881Y0334261D01*
X0319546Y0335128D01*
X0319964Y0336137D01*
X0320041Y0336720D01*
D02*
G37*
G36*
X0315421D02*
X0311802D01*
X0311878Y0336137D01*
X0312297Y0335128D01*
X0312962Y0334261D01*
X0313828Y0333596D01*
X0314838Y0333178D01*
X0315421Y0333101D01*
Y0336720D01*
D02*
G37*
G36*
X0306079Y0349280D02*
X0304995Y0349137D01*
X0303986Y0348719D01*
X0303119Y0348054D01*
X0302454Y0347187D01*
X0302036Y0346178D01*
X0301893Y0345094D01*
X0302036Y0344011D01*
X0302454Y0343002D01*
X0303119Y0342135D01*
X0303965Y0341486D01*
X0304016Y0341161D01*
Y0341153D01*
X0303965Y0340829D01*
X0303119Y0340180D01*
X0302454Y0339313D01*
X0302036Y0338304D01*
X0301893Y0337221D01*
X0302036Y0336137D01*
X0302454Y0335128D01*
X0303119Y0334261D01*
X0303986Y0333596D01*
X0304995Y0333178D01*
X0306079Y0333035D01*
X0307162Y0333178D01*
X0308172Y0333596D01*
X0309038Y0334261D01*
X0309703Y0335128D01*
X0310121Y0336137D01*
X0310264Y0337221D01*
X0310121Y0338304D01*
X0309703Y0339313D01*
X0309038Y0340180D01*
X0308192Y0340829D01*
X0308142Y0341153D01*
Y0341161D01*
X0308192Y0341486D01*
X0309038Y0342135D01*
X0309703Y0343002D01*
X0310121Y0344011D01*
X0310264Y0345094D01*
X0310121Y0346178D01*
X0309703Y0347187D01*
X0309038Y0348054D01*
X0308172Y0348719D01*
X0307162Y0349137D01*
X0306079Y0349280D01*
D02*
G37*
G36*
X0194000Y0337500D02*
X0185500D01*
Y0329000D01*
X0194000D01*
Y0337500D01*
D02*
G37*
G36*
X0441500Y0336500D02*
X0433000D01*
Y0328000D01*
X0441500D01*
Y0336500D01*
D02*
G37*
G36*
X0287799Y0335023D02*
Y0327051D01*
X0295771D01*
X0295657Y0328214D01*
X0295172Y0329812D01*
X0294385Y0331285D01*
X0293325Y0332577D01*
X0292033Y0333636D01*
X0290560Y0334424D01*
X0288962Y0334909D01*
X0287799Y0335023D01*
D02*
G37*
G36*
X0286799D02*
X0285637Y0334909D01*
X0284038Y0334424D01*
X0282565Y0333636D01*
X0281274Y0332577D01*
X0280214Y0331285D01*
X0279427Y0329812D01*
X0278942Y0328214D01*
X0278827Y0327051D01*
X0286799D01*
Y0335023D01*
D02*
G37*
G36*
X0335201D02*
Y0327051D01*
X0343173D01*
X0343058Y0328214D01*
X0342573Y0329812D01*
X0341786Y0331285D01*
X0340726Y0332577D01*
X0339435Y0333636D01*
X0337962Y0334424D01*
X0336363Y0334909D01*
X0335201Y0335023D01*
D02*
G37*
G36*
X0334201D02*
X0333038Y0334909D01*
X0331440Y0334424D01*
X0329967Y0333636D01*
X0328675Y0332577D01*
X0327615Y0331285D01*
X0326828Y0329812D01*
X0326343Y0328214D01*
X0326229Y0327051D01*
X0334201D01*
Y0335023D01*
D02*
G37*
G36*
X0343173Y0326051D02*
X0335201D01*
Y0318079D01*
X0336363Y0318194D01*
X0337962Y0318678D01*
X0339435Y0319466D01*
X0340726Y0320526D01*
X0341786Y0321817D01*
X0342573Y0323290D01*
X0343058Y0324889D01*
X0343173Y0326051D01*
D02*
G37*
G36*
X0286799Y0326051D02*
X0278827D01*
X0278942Y0324889D01*
X0279427Y0323290D01*
X0280214Y0321817D01*
X0281274Y0320526D01*
X0282565Y0319466D01*
X0284038Y0318678D01*
X0285637Y0318194D01*
X0286799Y0318079D01*
Y0326051D01*
D02*
G37*
G36*
X0295771D02*
X0287799D01*
Y0318079D01*
X0288962Y0318194D01*
X0290560Y0318678D01*
X0292033Y0319466D01*
X0293325Y0320526D01*
X0294385Y0321817D01*
X0295172Y0323290D01*
X0295657Y0324889D01*
X0295771Y0326051D01*
D02*
G37*
G36*
X0334201Y0326051D02*
X0326229D01*
X0326343Y0324889D01*
X0326828Y0323290D01*
X0327615Y0321817D01*
X0328675Y0320526D01*
X0329967Y0319466D01*
X0331440Y0318678D01*
X0333038Y0318194D01*
X0334201Y0318079D01*
Y0326051D01*
D02*
G37*
%LPD*%
G36*
X0222293Y0771314D02*
X0222349Y0771309D01*
X0222405Y0771299D01*
X0222456Y0771284D01*
X0222507Y0771269D01*
X0222512D01*
X0222522Y0771258D01*
X0222543Y0771248D01*
X0222563Y0771238D01*
X0222584Y0771218D01*
X0222604Y0771198D01*
X0222614Y0771172D01*
X0222619Y0771147D01*
Y0770643D01*
X0223652D01*
X0223657D01*
X0223678Y0770638D01*
X0223708Y0770633D01*
X0223734Y0770612D01*
X0223739Y0770607D01*
X0223749Y0770592D01*
X0223769Y0770561D01*
X0223785Y0770520D01*
Y0770510D01*
X0223790Y0770495D01*
X0223795Y0770475D01*
X0223800Y0770419D01*
X0223810Y0770347D01*
Y0770327D01*
X0223815Y0770307D01*
Y0770276D01*
X0223820Y0770235D01*
Y0770190D01*
X0223826Y0770139D01*
Y0769986D01*
X0223820Y0769940D01*
Y0769900D01*
X0223810Y0769808D01*
Y0769793D01*
X0223805Y0769772D01*
Y0769747D01*
X0223795Y0769691D01*
X0223785Y0769635D01*
X0223780Y0769625D01*
X0223769Y0769599D01*
X0223754Y0769574D01*
X0223734Y0769548D01*
X0223729Y0769543D01*
X0223708Y0769538D01*
X0223683Y0769533D01*
X0223652Y0769528D01*
X0222619D01*
Y0767314D01*
X0222614Y0767278D01*
X0222604Y0767237D01*
X0222599Y0767232D01*
X0222589Y0767212D01*
X0222568Y0767186D01*
X0222538Y0767161D01*
X0222533D01*
X0222528Y0767156D01*
X0222497Y0767146D01*
X0222446Y0767131D01*
X0222380Y0767115D01*
X0222375D01*
X0222359D01*
X0222339Y0767110D01*
X0222304D01*
X0222268Y0767105D01*
X0222217D01*
X0222166Y0767100D01*
X0222105D01*
X0222100D01*
X0222080D01*
X0222054D01*
X0222019D01*
X0221942D01*
X0221861Y0767105D01*
X0221856D01*
X0221845D01*
X0221825Y0767110D01*
X0221800D01*
X0221739Y0767115D01*
X0221677Y0767126D01*
X0221672D01*
X0221662Y0767131D01*
X0221647D01*
X0221627Y0767136D01*
X0221576Y0767151D01*
X0221520Y0767166D01*
X0221515D01*
X0221504Y0767171D01*
X0221489Y0767176D01*
X0221469Y0767186D01*
X0221418Y0767212D01*
X0221357Y0767242D01*
X0218242Y0769009D01*
X0218237Y0769014D01*
X0218216Y0769024D01*
X0218196Y0769050D01*
X0218176Y0769080D01*
Y0769085D01*
X0218170Y0769090D01*
X0218155Y0769121D01*
X0218140Y0769167D01*
X0218125Y0769228D01*
Y0769233D01*
X0218120Y0769243D01*
Y0769268D01*
X0218114Y0769294D01*
X0218109Y0769329D01*
X0218104Y0769370D01*
X0218099Y0769416D01*
X0218094Y0769467D01*
Y0769492D01*
X0218089Y0769523D01*
Y0769620D01*
X0218084Y0769675D01*
Y0769950D01*
X0218089Y0770012D01*
Y0770078D01*
X0218094Y0770144D01*
X0218099Y0770205D01*
Y0770230D01*
X0218104Y0770261D01*
X0218109Y0770296D01*
X0218120Y0770378D01*
X0218125Y0770419D01*
X0218135Y0770454D01*
Y0770459D01*
X0218140Y0770470D01*
X0218145Y0770490D01*
X0218150Y0770510D01*
X0218165Y0770556D01*
X0218191Y0770597D01*
X0218196Y0770602D01*
X0218216Y0770622D01*
X0218242Y0770638D01*
X0218277Y0770643D01*
X0221698D01*
Y0771157D01*
X0221703Y0771172D01*
X0221713Y0771187D01*
X0221723Y0771208D01*
X0221744Y0771228D01*
X0221774Y0771248D01*
X0221810Y0771269D01*
X0221815D01*
X0221830Y0771279D01*
X0221856Y0771284D01*
X0221896Y0771294D01*
X0221942Y0771304D01*
X0222003Y0771309D01*
X0222080Y0771320D01*
X0222166D01*
X0222176D01*
X0222202D01*
X0222242D01*
X0222293Y0771314D01*
D02*
G37*
%LPC*%
G36*
X0221698Y0769528D02*
X0219082D01*
Y0769518D01*
X0221698Y0768021D01*
Y0769528D01*
D02*
G37*
%LPD*%
D12*
X0332000Y0716000D02*
Y0722000D01*
X0346358Y0706000D02*
Y0729642D01*
X0340000Y0736000D02*
X0346358Y0729642D01*
D14*
X0420000Y0681500D02*
X0437000Y0698500D01*
X0420000Y0663200D02*
Y0681500D01*
X0410000Y0651000D02*
Y0652000D01*
X0374250Y0657000D02*
X0405000D01*
X0410000Y0652000D01*
X0382000Y0663000D02*
X0382200Y0663200D01*
X0420000D01*
X0386000Y0660000D02*
X0407000D01*
X0389000Y0644000D02*
Y0646000D01*
X0379000Y0474000D02*
X0380000Y0473000D01*
X0335000Y0474000D02*
X0379000D01*
X0330000Y0469000D02*
X0335000Y0474000D01*
X0325697Y0512000D02*
X0358000D01*
X0322497Y0508800D02*
X0325697Y0512000D01*
X0344000Y0498000D02*
X0349000Y0503000D01*
X0261091Y0498000D02*
X0344000D01*
X0250000Y0486909D02*
X0261091Y0498000D01*
X0271353Y0494500D02*
X0342000D01*
X0265000Y0488147D02*
X0271353Y0494500D01*
X0215000Y0434000D02*
X0230500Y0418500D01*
Y0335500D02*
Y0418500D01*
Y0335500D02*
X0238000Y0328000D01*
X0215000Y0434000D02*
Y0495000D01*
X0265000Y0476500D02*
Y0488147D01*
X0262000Y0473500D02*
X0265000Y0476500D01*
X0257353Y0473500D02*
X0262000D01*
X0252853Y0469000D02*
X0257353Y0473500D01*
X0361400Y0447600D02*
X0364000Y0445000D01*
X0361000Y0433000D02*
X0364000D01*
X0238000Y0327000D02*
Y0328000D01*
X0319000Y0513000D02*
X0320000Y0512000D01*
X0306000Y0513000D02*
X0319000D01*
X0305006Y0507600D02*
X0322994D01*
X0305503Y0508800D02*
X0322497D01*
X0324394Y0509000D02*
X0340000D01*
X0322994Y0507600D02*
X0324394Y0509000D01*
X0250000Y0469000D02*
X0252853D01*
X0250000Y0479000D02*
Y0486909D01*
X0220000Y0479000D02*
X0221000Y0480000D01*
X0220000Y0469000D02*
X0225000Y0474000D01*
X0221000Y0480000D02*
Y0486394D01*
X0225000Y0474000D02*
Y0488697D01*
X0391283Y0422409D02*
Y0448000D01*
X0356600Y0446400D02*
X0364000Y0439000D01*
X0314000Y0452600D02*
Y0454000D01*
Y0452600D02*
X0319000Y0447600D01*
X0361400D01*
X0348800Y0445200D02*
X0361000Y0433000D01*
X0302531Y0448900D02*
X0307431Y0444000D01*
X0347000D02*
X0364000Y0427000D01*
X0307431Y0444000D02*
X0347000D01*
X0310037Y0445200D02*
X0348800D01*
X0312000Y0449000D02*
X0314600Y0446400D01*
X0356600D01*
X0307000Y0448237D02*
X0310037Y0445200D01*
X0307000Y0448237D02*
Y0452000D01*
X0230000Y0469000D02*
Y0470000D01*
X0235000Y0497000D02*
X0246000Y0508000D01*
X0230000Y0470000D02*
X0235000Y0475000D01*
Y0497000D01*
X0236147Y0472853D02*
X0240000Y0476706D01*
Y0479000D01*
X0232500Y0441500D02*
X0236147Y0445147D01*
Y0472853D01*
X0232000Y0441500D02*
X0232500D01*
X0232000Y0435500D02*
X0240000Y0443500D01*
Y0469000D01*
X0228000Y0432500D02*
X0232000Y0428500D01*
X0228000Y0432500D02*
Y0467000D01*
X0230000Y0469000D01*
X0310000Y0479000D02*
X0317000Y0486000D01*
X0325500Y0491000D02*
X0346000D01*
X0363000Y0504000D02*
Y0512000D01*
X0347000Y0488000D02*
X0363000Y0504000D01*
X0317000Y0486000D02*
X0349500D01*
X0358500Y0495000D01*
X0264000Y0525000D02*
X0271500Y0532500D01*
X0257000Y0531000D02*
X0268303D01*
X0271003Y0533700D01*
X0228100Y0566000D02*
X0261500Y0532600D01*
X0268206D01*
X0270506Y0534900D01*
X0288500Y0503500D02*
X0289000Y0503000D01*
X0336000D01*
X0246000Y0508000D02*
X0288500D01*
X0225000Y0488697D02*
X0247303Y0511000D01*
X0301606D01*
X0305006Y0507600D01*
X0221000Y0486394D02*
X0246806Y0512200D01*
X0302103D01*
X0305503Y0508800D01*
X0215000Y0495000D02*
X0241000Y0521000D01*
X0318800Y0522000D02*
X0319800Y0521000D01*
X0286500Y0522000D02*
X0318800D01*
X0285500Y0521000D02*
X0286500Y0522000D01*
X0285903Y0523100D02*
X0286003Y0523200D01*
X0269000Y0525000D02*
X0270900Y0523100D01*
X0285903D01*
X0241000Y0521000D02*
X0285500D01*
X0270506Y0534900D02*
X0328494D01*
X0271500Y0532500D02*
X0327500D01*
X0334000Y0526000D01*
X0271003Y0533700D02*
X0327997D01*
X0331697Y0530000D01*
X0334000D01*
X0328494Y0534900D02*
X0329394Y0534000D01*
X0286003Y0523200D02*
X0323806D01*
X0325006Y0524400D01*
X0329600D02*
X0335000Y0519000D01*
X0325006Y0524400D02*
X0329600D01*
X0415000Y0428000D02*
X0420200Y0433200D01*
X0415000Y0433000D02*
X0419000Y0437000D01*
Y0450303D01*
X0415000Y0439000D02*
X0417800Y0441800D01*
Y0449806D01*
X0416600Y0451006D02*
X0417800Y0449806D01*
Y0451503D02*
X0419000Y0450303D01*
X0417800Y0451503D02*
Y0495195D01*
X0416600Y0451006D02*
Y0494698D01*
X0415900Y0497095D02*
X0417800Y0495195D01*
X0414700Y0496598D02*
X0416600Y0494698D01*
X0412400Y0496794D02*
Y0620600D01*
X0389000Y0644000D02*
X0412400Y0620600D01*
X0410000Y0651000D02*
X0414700Y0646300D01*
Y0496598D02*
Y0646300D01*
X0407000Y0660000D02*
X0415900Y0651100D01*
Y0497095D02*
Y0651100D01*
X0420200Y0433200D02*
Y0494492D01*
X0417100Y0497592D02*
X0420200Y0494492D01*
X0417100Y0497592D02*
Y0659900D01*
X0420200Y0663000D01*
X0412400Y0496794D02*
X0415400Y0493794D01*
X0284000Y0488000D02*
X0347000D01*
X0329394Y0534000D02*
X0332000D01*
X0415400Y0445000D02*
Y0493794D01*
D16*
X0443000Y0407094D02*
D03*
Y0428905D02*
D03*
Y0389906D02*
D03*
Y0368094D02*
D03*
D22*
X0431500Y0668500D02*
D03*
X0443000Y0436000D02*
D03*
Y0399500D02*
D03*
X0438500Y0397500D02*
D03*
X0429095Y0368094D02*
D03*
X0410000Y0553000D02*
D03*
X0383000Y0531000D02*
D03*
X0356575Y0549925D02*
D03*
X0434150Y0513150D02*
D03*
X0220000Y0446500D02*
D03*
X0274500Y0503000D02*
D03*
X0255500Y0660000D02*
D03*
X0270500D02*
D03*
X0294000Y0706000D02*
D03*
X0177000Y0591000D02*
D03*
X0327362Y0695638D02*
D03*
X0322638Y0700362D02*
D03*
X0323000Y0713000D02*
D03*
X0327362Y0700362D02*
D03*
X0441000Y0484000D02*
D03*
X0364000Y0618000D02*
D03*
X0447000Y0468000D02*
D03*
X0327000Y0420000D02*
D03*
X0266500Y0535000D02*
D03*
X0228100Y0579500D02*
D03*
X0256000Y0585000D02*
D03*
X0257500Y0558500D02*
D03*
X0264500Y0581000D02*
D03*
X0266500Y0565500D02*
D03*
X0296000Y0571500D02*
D03*
X0228352Y0595248D02*
D03*
X0183000Y0602000D02*
D03*
X0228246Y0614146D02*
D03*
X0252500Y0600000D02*
D03*
X0183500Y0623500D02*
D03*
X0228100Y0620500D02*
D03*
X0197000Y0727000D02*
D03*
X0233000Y0708000D02*
D03*
X0261000Y0631000D02*
D03*
Y0623000D02*
D03*
X0258000Y0697000D02*
D03*
Y0703000D02*
D03*
Y0709000D02*
D03*
X0264500Y0585500D02*
D03*
X0271500Y0615500D02*
D03*
X0295327Y0594827D02*
D03*
X0297000Y0613000D02*
D03*
X0309000Y0618000D02*
D03*
X0302500Y0644500D02*
D03*
X0298000Y0694000D02*
D03*
X0306000Y0715000D02*
D03*
X0321000Y0617500D02*
D03*
X0356575Y0617075D02*
D03*
X0319000Y0641500D02*
D03*
X0327000Y0646000D02*
D03*
X0336500Y0646500D02*
D03*
X0408150Y0716850D02*
D03*
X0375000Y0456000D02*
D03*
X0242500Y0338500D02*
D03*
X0238000Y0377000D02*
D03*
X0221000Y0407000D02*
D03*
Y0421000D02*
D03*
X0366000Y0636500D02*
D03*
X0365000Y0559000D02*
D03*
X0326000Y0366000D02*
D03*
X0270000Y0425000D02*
D03*
X0285000Y0366000D02*
D03*
X0343500Y0520500D02*
D03*
X0365000Y0595000D02*
D03*
X0398000Y0609000D02*
D03*
X0396500Y0585000D02*
D03*
Y0580500D02*
D03*
Y0570000D02*
D03*
X0398000Y0556500D02*
D03*
X0401000Y0537000D02*
D03*
X0379000Y0542000D02*
D03*
X0362000Y0587000D02*
D03*
X0326000Y0520000D02*
D03*
X0305000Y0519500D02*
D03*
X0278000Y0525500D02*
D03*
X0179000Y0596000D02*
D03*
X0183000Y0574000D02*
D03*
X0297000Y0577000D02*
D03*
X0379000Y0549000D02*
D03*
X0398000Y0520000D02*
D03*
X0316500Y0551500D02*
D03*
X0266500Y0555000D02*
D03*
X0276500Y0608000D02*
D03*
X0206500Y0528000D02*
D03*
X0246500Y0581000D02*
D03*
X0347000Y0405500D02*
D03*
X0326016Y0410984D02*
D03*
X0324500Y0424500D02*
D03*
X0301500Y0425000D02*
D03*
X0278500Y0385500D02*
D03*
X0279000Y0358000D02*
D03*
X0332000D02*
D03*
X0305000Y0361000D02*
D03*
X0345000Y0384000D02*
D03*
X0314953Y0394953D02*
D03*
X0328000Y0372000D02*
D03*
X0331500Y0552000D02*
D03*
X0194500Y0628500D02*
D03*
X0385000Y0340000D02*
D03*
X0392000Y0339000D02*
D03*
X0374000Y0383000D02*
D03*
X0350500Y0357000D02*
D03*
X0404000Y0341000D02*
D03*
X0271000Y0434500D02*
D03*
X0297000Y0411000D02*
D03*
X0345000Y0378000D02*
D03*
X0370000Y0312000D02*
D03*
X0299000Y0395000D02*
D03*
X0305110Y0394110D02*
D03*
X0323000Y0395000D02*
D03*
X0340000Y0697000D02*
D03*
X0286500Y0446500D02*
D03*
X0183000Y0616500D02*
D03*
X0201500Y0528000D02*
D03*
X0228000Y0525000D02*
D03*
X0185000Y0350000D02*
D03*
X0442000D02*
D03*
X0441000Y0716000D02*
D03*
X0250000Y0750000D02*
D03*
X0300000D02*
D03*
X0400000D02*
D03*
X0279000Y0631000D02*
D03*
X0200000Y0500000D02*
D03*
X0201000Y0450000D02*
D03*
X0202000Y0400000D02*
D03*
X0400500Y0375000D02*
D03*
X0409500Y0412000D02*
D03*
X0319000Y0452000D02*
D03*
X0322638Y0695638D02*
D03*
X0305500Y0727000D02*
D03*
X0400000Y0468000D02*
D03*
X0205000Y0583000D02*
D03*
X0284000Y0373000D02*
D03*
X0368000Y0383000D02*
D03*
X0352000Y0405500D02*
D03*
X0322000Y0727000D02*
D03*
X0406000Y0488000D02*
D03*
X0273500Y0589500D02*
D03*
X0309500Y0644500D02*
D03*
X0319000Y0636500D02*
D03*
X0322500Y0646000D02*
D03*
X0343500Y0641500D02*
D03*
X0302500Y0640000D02*
D03*
X0309500D02*
D03*
X0343500Y0646500D02*
D03*
X0366000Y0641500D02*
D03*
X0374000D02*
D03*
Y0636500D02*
D03*
X0246000Y0600000D02*
D03*
X0276500Y0615500D02*
D03*
X0271500Y0608000D02*
D03*
X0251500Y0581000D02*
D03*
X0261500Y0555000D02*
D03*
X0277500Y0538500D02*
D03*
X0265000Y0544000D02*
D03*
X0270500Y0538500D02*
D03*
X0305000Y0526000D02*
D03*
X0297000D02*
D03*
Y0519500D02*
D03*
X0322000Y0529000D02*
D03*
X0347500Y0525000D02*
D03*
Y0530000D02*
D03*
X0388500Y0553000D02*
D03*
X0393500D02*
D03*
X0387500Y0574000D02*
D03*
X0392500D02*
D03*
X0387500Y0589000D02*
D03*
Y0613000D02*
D03*
X0392500D02*
D03*
X0431500Y0679500D02*
D03*
X0438500Y0668000D02*
D03*
Y0679500D02*
D03*
X0295500Y0450500D02*
D03*
X0280500Y0429000D02*
D03*
X0336000Y0641500D02*
D03*
X0420500Y0503500D02*
D03*
Y0499000D02*
D03*
X0420000Y0509000D02*
D03*
X0391500Y0526500D02*
D03*
X0388500Y0357000D02*
D03*
X0374500Y0356500D02*
D03*
X0363500Y0357000D02*
D03*
Y0366000D02*
D03*
X0374500Y0366500D02*
D03*
D32*
X0316291Y0770500D02*
D03*
X0327709D02*
D03*
D37*
X0185000Y0338000D02*
D03*
X0442000Y0337000D02*
D03*
X0185000Y0727000D02*
D03*
X0441000Y0728000D02*
D03*
D88*
X0443000Y0428905D02*
Y0436000D01*
X0429095Y0368094D02*
X0443000D01*
X0356575Y0548575D02*
Y0549925D01*
X0228100Y0614291D02*
X0228246Y0614146D01*
X0263391Y0727779D02*
X0264079D01*
X0315921Y0337221D02*
X0316609D01*
X0270000Y0425000D02*
X0270100Y0425100D01*
X0301400D02*
X0301500Y0425000D01*
X0322953Y0394953D02*
X0323000Y0395000D01*
X0441000Y0716000D02*
Y0728000D01*
X0185000Y0338000D02*
Y0350000D01*
X0442000Y0337000D02*
Y0350000D01*
X0383000Y0531000D02*
X0388000D01*
X0409500Y0552500D01*
X0443000Y0399500D02*
Y0407094D01*
X0438500Y0394406D02*
Y0397500D01*
Y0394406D02*
X0443000Y0389906D01*
D90*
X0294000Y0706000D02*
X0295000D01*
D91*
X0316291Y0760709D02*
Y0770500D01*
Y0760709D02*
X0318000Y0759000D01*
X0327709Y0759291D02*
X0328000Y0759000D01*
X0327709Y0759291D02*
Y0770500D01*
X0318000Y0759000D02*
X0328000D01*
X0421000Y0503500D02*
X0439000D01*
X0447000Y0511500D01*
Y0531000D01*
X0436000Y0542000D02*
X0447000Y0531000D01*
X0420500Y0499000D02*
Y0503500D01*
D95*
X0426000Y0652000D02*
D03*
D96*
X0436000D02*
D03*
X0426000Y0642000D02*
D03*
X0436000D02*
D03*
X0426000Y0632000D02*
D03*
X0436000D02*
D03*
X0426000Y0622000D02*
D03*
X0436000D02*
D03*
X0426000Y0612000D02*
D03*
X0436000D02*
D03*
X0426000Y0602000D02*
D03*
X0436000D02*
D03*
X0426000Y0592000D02*
D03*
X0436000D02*
D03*
X0426000Y0582000D02*
D03*
X0436000D02*
D03*
X0426000Y0572000D02*
D03*
X0436000D02*
D03*
X0426000Y0562000D02*
D03*
X0436000D02*
D03*
X0426000Y0552000D02*
D03*
X0436000D02*
D03*
X0426000Y0542000D02*
D03*
X0436000D02*
D03*
X0426000Y0532000D02*
D03*
X0436000D02*
D03*
X0367500Y0679000D02*
D03*
Y0669000D02*
D03*
X0357500Y0679000D02*
D03*
Y0669000D02*
D03*
X0347500Y0679000D02*
D03*
Y0669000D02*
D03*
X0337500Y0679000D02*
D03*
Y0669000D02*
D03*
X0327500Y0679000D02*
D03*
Y0669000D02*
D03*
X0317500Y0679000D02*
D03*
Y0669000D02*
D03*
X0307500Y0679000D02*
D03*
X0210000Y0469000D02*
D03*
Y0479000D02*
D03*
X0220000Y0469000D02*
D03*
Y0479000D02*
D03*
X0230000Y0469000D02*
D03*
Y0479000D02*
D03*
X0240000Y0469000D02*
D03*
Y0479000D02*
D03*
X0250000Y0469000D02*
D03*
Y0479000D02*
D03*
X0260000Y0469000D02*
D03*
Y0479000D02*
D03*
X0270000Y0469000D02*
D03*
Y0479000D02*
D03*
X0280000Y0469000D02*
D03*
Y0479000D02*
D03*
X0290000Y0469000D02*
D03*
Y0479000D02*
D03*
X0300000Y0469000D02*
D03*
Y0479000D02*
D03*
X0310000Y0469000D02*
D03*
Y0479000D02*
D03*
X0320000Y0469000D02*
D03*
Y0479000D02*
D03*
X0330000Y0469000D02*
D03*
Y0479000D02*
D03*
X0340000Y0469000D02*
D03*
Y0479000D02*
D03*
X0350000Y0469000D02*
D03*
Y0479000D02*
D03*
X0360000Y0469000D02*
D03*
Y0479000D02*
D03*
X0370000Y0469000D02*
D03*
X0377000Y0698500D02*
D03*
X0387000D02*
D03*
X0397000D02*
D03*
X0407000D02*
D03*
X0417000D02*
D03*
X0427000D02*
D03*
X0437000D02*
D03*
X0367000D02*
D03*
X0318000Y0759000D02*
D03*
D97*
X0409000Y0448000D02*
D03*
Y0422409D02*
D03*
X0391283Y0448000D02*
D03*
Y0422409D02*
D03*
D98*
X0307500Y0669000D02*
D03*
X0370000Y0479000D02*
D03*
X0357000Y0698500D02*
D03*
X0328000Y0759000D02*
D03*
D99*
X0287299Y0326551D02*
D03*
X0334701D02*
D03*
X0292701Y0738449D02*
D03*
X0245299D02*
D03*
X0351134Y0739528D02*
D03*
X0402866D02*
D03*
D100*
X0306079Y0337221D02*
D03*
X0315921D02*
D03*
X0306079Y0345094D02*
D03*
X0273921Y0727779D02*
D03*
X0264079D02*
D03*
X0273921Y0719906D02*
D03*
X0380937Y0728858D02*
D03*
X0363221Y0728858D02*
D03*
X0373063Y0728858D02*
D03*
D101*
X0315921Y0345094D02*
D03*
X0264079Y0719906D02*
D03*
D102*
X0199000Y0754000D02*
D03*
X0427098D02*
D03*
Y0311000D02*
D03*
X0199098D02*
D03*
D103*
X0390779Y0728858D02*
D03*
D104*
X0382000Y0663000D02*
D03*
X0386000Y0660000D02*
D03*
X0415000Y0433000D02*
D03*
X0332000Y0722000D02*
D03*
Y0716000D02*
D03*
X0238000Y0327000D02*
D03*
X0319800Y0521000D02*
D03*
X0335000Y0519000D02*
D03*
X0334000Y0525000D02*
D03*
X0374250Y0657000D02*
D03*
X0320000Y0512000D02*
D03*
X0306000Y0513000D02*
D03*
X0336000Y0503000D02*
D03*
X0288500Y0503500D02*
D03*
X0349000Y0503000D02*
D03*
X0342500Y0494500D02*
D03*
X0346000Y0491000D02*
D03*
X0325500D02*
D03*
X0284500Y0487500D02*
D03*
X0332000Y0535000D02*
D03*
X0228100Y0566000D02*
D03*
X0269000Y0525000D02*
D03*
X0264000D02*
D03*
X0257000Y0531000D02*
D03*
X0334000Y0530000D02*
D03*
X0407000Y0660000D02*
D03*
X0410000Y0652000D02*
D03*
X0358000Y0512000D02*
D03*
X0340000Y0509000D02*
D03*
X0363000Y0512000D02*
D03*
X0380000Y0473000D02*
D03*
X0302531Y0448900D02*
D03*
X0307000Y0452000D02*
D03*
X0312000Y0449000D02*
D03*
X0364000Y0445000D02*
D03*
Y0439000D02*
D03*
Y0433000D02*
D03*
Y0427000D02*
D03*
X0314000Y0454000D02*
D03*
X0415000Y0445000D02*
D03*
Y0439000D02*
D03*
Y0428000D02*
D03*
X0389000Y0646000D02*
D03*
X0346358Y0706000D02*
D03*
X0340000Y0736000D02*
D03*
X0232000Y0441500D02*
D03*
Y0435500D02*
D03*
Y0428500D02*
D03*
X0355000Y0530000D02*
D03*
X0367000Y0531000D02*
D03*
X0358500Y0495000D02*
D03*
X0288500Y0508000D02*
D03*
M02*
