G04*
G04 #@! TF.GenerationSoftware,Altium Limited,Altium Designer,20.0.13 (296)*
G04*
G04 Layer_Color=8388736*
%FSAX25Y25*%
%MOIN*%
G70*
G01*
G75*
%ADD46C,0.06000*%
%ADD47C,0.06800*%
G04:AMPARAMS|DCode=48|XSize=43mil|YSize=77.5mil|CornerRadius=9.25mil|HoleSize=0mil|Usage=FLASHONLY|Rotation=270.000|XOffset=0mil|YOffset=0mil|HoleType=Round|Shape=RoundedRectangle|*
%AMROUNDEDRECTD48*
21,1,0.04300,0.05900,0,0,270.0*
21,1,0.02450,0.07750,0,0,270.0*
1,1,0.01850,-0.02950,-0.01225*
1,1,0.01850,-0.02950,0.01225*
1,1,0.01850,0.02950,0.01225*
1,1,0.01850,0.02950,-0.01225*
%
%ADD48ROUNDEDRECTD48*%
G04:AMPARAMS|DCode=49|XSize=132mil|YSize=77.5mil|CornerRadius=14.43mil|HoleSize=0mil|Usage=FLASHONLY|Rotation=270.000|XOffset=0mil|YOffset=0mil|HoleType=Round|Shape=RoundedRectangle|*
%AMROUNDEDRECTD49*
21,1,0.13200,0.04865,0,0,270.0*
21,1,0.10315,0.07750,0,0,270.0*
1,1,0.02885,-0.02433,-0.05158*
1,1,0.02885,-0.02433,0.05158*
1,1,0.02885,0.02433,0.05158*
1,1,0.02885,0.02433,-0.05158*
%
%ADD49ROUNDEDRECTD49*%
G04:AMPARAMS|DCode=50|XSize=47.37mil|YSize=47.37mil|CornerRadius=9.91mil|HoleSize=0mil|Usage=FLASHONLY|Rotation=90.000|XOffset=0mil|YOffset=0mil|HoleType=Round|Shape=RoundedRectangle|*
%AMROUNDEDRECTD50*
21,1,0.04737,0.02756,0,0,90.0*
21,1,0.02756,0.04737,0,0,90.0*
1,1,0.01981,0.01378,0.01378*
1,1,0.01981,0.01378,-0.01378*
1,1,0.01981,-0.01378,-0.01378*
1,1,0.01981,-0.01378,0.01378*
%
%ADD50ROUNDEDRECTD50*%
G04:AMPARAMS|DCode=51|XSize=47.37mil|YSize=43.43mil|CornerRadius=9.32mil|HoleSize=0mil|Usage=FLASHONLY|Rotation=0.000|XOffset=0mil|YOffset=0mil|HoleType=Round|Shape=RoundedRectangle|*
%AMROUNDEDRECTD51*
21,1,0.04737,0.02480,0,0,0.0*
21,1,0.02874,0.04343,0,0,0.0*
1,1,0.01863,0.01437,-0.01240*
1,1,0.01863,-0.01437,-0.01240*
1,1,0.01863,-0.01437,0.01240*
1,1,0.01863,0.01437,0.01240*
%
%ADD51ROUNDEDRECTD51*%
G04:AMPARAMS|DCode=52|XSize=47.37mil|YSize=47.37mil|CornerRadius=9.91mil|HoleSize=0mil|Usage=FLASHONLY|Rotation=180.000|XOffset=0mil|YOffset=0mil|HoleType=Round|Shape=RoundedRectangle|*
%AMROUNDEDRECTD52*
21,1,0.04737,0.02756,0,0,180.0*
21,1,0.02756,0.04737,0,0,180.0*
1,1,0.01981,-0.01378,0.01378*
1,1,0.01981,0.01378,0.01378*
1,1,0.01981,0.01378,-0.01378*
1,1,0.01981,-0.01378,-0.01378*
%
%ADD52ROUNDEDRECTD52*%
G04:AMPARAMS|DCode=53|XSize=82.8mil|YSize=55.24mil|CornerRadius=11.09mil|HoleSize=0mil|Usage=FLASHONLY|Rotation=0.000|XOffset=0mil|YOffset=0mil|HoleType=Round|Shape=RoundedRectangle|*
%AMROUNDEDRECTD53*
21,1,0.08280,0.03307,0,0,0.0*
21,1,0.06063,0.05524,0,0,0.0*
1,1,0.02217,0.03032,-0.01654*
1,1,0.02217,-0.03032,-0.01654*
1,1,0.02217,-0.03032,0.01654*
1,1,0.02217,0.03032,0.01654*
%
%ADD53ROUNDEDRECTD53*%
G04:AMPARAMS|DCode=54|XSize=168mil|YSize=168mil|CornerRadius=28mil|HoleSize=0mil|Usage=FLASHONLY|Rotation=0.000|XOffset=0mil|YOffset=0mil|HoleType=Round|Shape=RoundedRectangle|*
%AMROUNDEDRECTD54*
21,1,0.16800,0.11200,0,0,0.0*
21,1,0.11200,0.16800,0,0,0.0*
1,1,0.05600,0.05600,-0.05600*
1,1,0.05600,-0.05600,-0.05600*
1,1,0.05600,-0.05600,0.05600*
1,1,0.05600,0.05600,0.05600*
%
%ADD54ROUNDEDRECTD54*%
G04:AMPARAMS|DCode=55|XSize=39.5mil|YSize=47.37mil|CornerRadius=8.72mil|HoleSize=0mil|Usage=FLASHONLY|Rotation=0.000|XOffset=0mil|YOffset=0mil|HoleType=Round|Shape=RoundedRectangle|*
%AMROUNDEDRECTD55*
21,1,0.03950,0.02992,0,0,0.0*
21,1,0.02205,0.04737,0,0,0.0*
1,1,0.01745,0.01102,-0.01496*
1,1,0.01745,-0.01102,-0.01496*
1,1,0.01745,-0.01102,0.01496*
1,1,0.01745,0.01102,0.01496*
%
%ADD55ROUNDEDRECTD55*%
%ADD56O,0.07887X0.01981*%
%ADD57O,0.01981X0.07887*%
G04:AMPARAMS|DCode=58|XSize=224.53mil|YSize=86.74mil|CornerRadius=15.81mil|HoleSize=0mil|Usage=FLASHONLY|Rotation=270.000|XOffset=0mil|YOffset=0mil|HoleType=Round|Shape=RoundedRectangle|*
%AMROUNDEDRECTD58*
21,1,0.22453,0.05512,0,0,270.0*
21,1,0.19291,0.08674,0,0,270.0*
1,1,0.03162,-0.02756,-0.09646*
1,1,0.03162,-0.02756,0.09646*
1,1,0.03162,0.02756,0.09646*
1,1,0.03162,0.02756,-0.09646*
%
%ADD58ROUNDEDRECTD58*%
G04:AMPARAMS|DCode=59|XSize=67.06mil|YSize=55.24mil|CornerRadius=11.09mil|HoleSize=0mil|Usage=FLASHONLY|Rotation=90.000|XOffset=0mil|YOffset=0mil|HoleType=Round|Shape=RoundedRectangle|*
%AMROUNDEDRECTD59*
21,1,0.06706,0.03307,0,0,90.0*
21,1,0.04488,0.05524,0,0,90.0*
1,1,0.02217,0.01654,0.02244*
1,1,0.02217,0.01654,-0.02244*
1,1,0.02217,-0.01654,-0.02244*
1,1,0.02217,-0.01654,0.02244*
%
%ADD59ROUNDEDRECTD59*%
G04:AMPARAMS|DCode=60|XSize=47.37mil|YSize=43.43mil|CornerRadius=9.32mil|HoleSize=0mil|Usage=FLASHONLY|Rotation=270.000|XOffset=0mil|YOffset=0mil|HoleType=Round|Shape=RoundedRectangle|*
%AMROUNDEDRECTD60*
21,1,0.04737,0.02480,0,0,270.0*
21,1,0.02874,0.04343,0,0,270.0*
1,1,0.01863,-0.01240,-0.01437*
1,1,0.01863,-0.01240,0.01437*
1,1,0.01863,0.01240,0.01437*
1,1,0.01863,0.01240,-0.01437*
%
%ADD60ROUNDEDRECTD60*%
%ADD61O,0.07690X0.01981*%
%ADD62O,0.01981X0.07690*%
G04:AMPARAMS|DCode=63|XSize=82.8mil|YSize=59.18mil|CornerRadius=11.68mil|HoleSize=0mil|Usage=FLASHONLY|Rotation=90.000|XOffset=0mil|YOffset=0mil|HoleType=Round|Shape=RoundedRectangle|*
%AMROUNDEDRECTD63*
21,1,0.08280,0.03583,0,0,90.0*
21,1,0.05945,0.05918,0,0,90.0*
1,1,0.02335,0.01791,0.02972*
1,1,0.02335,0.01791,-0.02972*
1,1,0.02335,-0.01791,-0.02972*
1,1,0.02335,-0.01791,0.02972*
%
%ADD63ROUNDEDRECTD63*%
%ADD64O,0.01535X0.06063*%
%ADD65O,0.06063X0.01535*%
G04:AMPARAMS|DCode=66|XSize=103.94mil|YSize=103.94mil|CornerRadius=17.52mil|HoleSize=0mil|Usage=FLASHONLY|Rotation=90.000|XOffset=0mil|YOffset=0mil|HoleType=Round|Shape=RoundedRectangle|*
%AMROUNDEDRECTD66*
21,1,0.10394,0.06890,0,0,90.0*
21,1,0.06890,0.10394,0,0,90.0*
1,1,0.03504,0.03445,0.03445*
1,1,0.03504,0.03445,-0.03445*
1,1,0.03504,-0.03445,-0.03445*
1,1,0.03504,-0.03445,0.03445*
%
%ADD66ROUNDEDRECTD66*%
G04:AMPARAMS|DCode=67|XSize=33.59mil|YSize=51.31mil|CornerRadius=7.84mil|HoleSize=0mil|Usage=FLASHONLY|Rotation=270.000|XOffset=0mil|YOffset=0mil|HoleType=Round|Shape=RoundedRectangle|*
%AMROUNDEDRECTD67*
21,1,0.03359,0.03563,0,0,270.0*
21,1,0.01791,0.05131,0,0,270.0*
1,1,0.01568,-0.01782,-0.00896*
1,1,0.01568,-0.01782,0.00896*
1,1,0.01568,0.01782,0.00896*
1,1,0.01568,0.01782,-0.00896*
%
%ADD67ROUNDEDRECTD67*%
%ADD68O,0.06706X0.02965*%
%ADD69O,0.08674X0.03162*%
G04:AMPARAMS|DCode=70|XSize=67.06mil|YSize=114.3mil|CornerRadius=12.86mil|HoleSize=0mil|Usage=FLASHONLY|Rotation=90.000|XOffset=0mil|YOffset=0mil|HoleType=Round|Shape=RoundedRectangle|*
%AMROUNDEDRECTD70*
21,1,0.06706,0.08858,0,0,90.0*
21,1,0.04134,0.11430,0,0,90.0*
1,1,0.02572,0.04429,0.02067*
1,1,0.02572,0.04429,-0.02067*
1,1,0.02572,-0.04429,-0.02067*
1,1,0.02572,-0.04429,0.02067*
%
%ADD70ROUNDEDRECTD70*%
G04:AMPARAMS|DCode=71|XSize=31.62mil|YSize=39.5mil|CornerRadius=7.54mil|HoleSize=0mil|Usage=FLASHONLY|Rotation=270.000|XOffset=0mil|YOffset=0mil|HoleType=Round|Shape=RoundedRectangle|*
%AMROUNDEDRECTD71*
21,1,0.03162,0.02441,0,0,270.0*
21,1,0.01654,0.03950,0,0,270.0*
1,1,0.01509,-0.01221,-0.00827*
1,1,0.01509,-0.01221,0.00827*
1,1,0.01509,0.01221,0.00827*
1,1,0.01509,0.01221,-0.00827*
%
%ADD71ROUNDEDRECTD71*%
G04:AMPARAMS|DCode=72|XSize=76.9mil|YSize=157.61mil|CornerRadius=12.61mil|HoleSize=0mil|Usage=FLASHONLY|Rotation=90.000|XOffset=0mil|YOffset=0mil|HoleType=Round|Shape=RoundedRectangle|*
%AMROUNDEDRECTD72*
21,1,0.07690,0.13238,0,0,90.0*
21,1,0.05167,0.15761,0,0,90.0*
1,1,0.02522,0.06619,0.02584*
1,1,0.02522,0.06619,-0.02584*
1,1,0.02522,-0.06619,-0.02584*
1,1,0.02522,-0.06619,0.02584*
%
%ADD72ROUNDEDRECTD72*%
G04:AMPARAMS|DCode=73|XSize=67.06mil|YSize=55.24mil|CornerRadius=11.09mil|HoleSize=0mil|Usage=FLASHONLY|Rotation=0.000|XOffset=0mil|YOffset=0mil|HoleType=Round|Shape=RoundedRectangle|*
%AMROUNDEDRECTD73*
21,1,0.06706,0.03307,0,0,0.0*
21,1,0.04488,0.05524,0,0,0.0*
1,1,0.02217,0.02244,-0.01654*
1,1,0.02217,-0.02244,-0.01654*
1,1,0.02217,-0.02244,0.01654*
1,1,0.02217,0.02244,0.01654*
%
%ADD73ROUNDEDRECTD73*%
G04:AMPARAMS|DCode=74|XSize=224.53mil|YSize=86.74mil|CornerRadius=15.81mil|HoleSize=0mil|Usage=FLASHONLY|Rotation=0.000|XOffset=0mil|YOffset=0mil|HoleType=Round|Shape=RoundedRectangle|*
%AMROUNDEDRECTD74*
21,1,0.22453,0.05512,0,0,0.0*
21,1,0.19291,0.08674,0,0,0.0*
1,1,0.03162,0.09646,-0.02756*
1,1,0.03162,-0.09646,-0.02756*
1,1,0.03162,-0.09646,0.02756*
1,1,0.03162,0.09646,0.02756*
%
%ADD74ROUNDEDRECTD74*%
G04:AMPARAMS|DCode=75|XSize=39.5mil|YSize=47.37mil|CornerRadius=8.72mil|HoleSize=0mil|Usage=FLASHONLY|Rotation=90.000|XOffset=0mil|YOffset=0mil|HoleType=Round|Shape=RoundedRectangle|*
%AMROUNDEDRECTD75*
21,1,0.03950,0.02992,0,0,90.0*
21,1,0.02205,0.04737,0,0,90.0*
1,1,0.01745,0.01496,0.01102*
1,1,0.01745,0.01496,-0.01102*
1,1,0.01745,-0.01496,-0.01102*
1,1,0.01745,-0.01496,0.01102*
%
%ADD75ROUNDEDRECTD75*%
G04:AMPARAMS|DCode=76|XSize=78.87mil|YSize=59.18mil|CornerRadius=11.68mil|HoleSize=0mil|Usage=FLASHONLY|Rotation=90.000|XOffset=0mil|YOffset=0mil|HoleType=Round|Shape=RoundedRectangle|*
%AMROUNDEDRECTD76*
21,1,0.07887,0.03583,0,0,90.0*
21,1,0.05551,0.05918,0,0,90.0*
1,1,0.02335,0.01791,0.02776*
1,1,0.02335,0.01791,-0.02776*
1,1,0.02335,-0.01791,-0.02776*
1,1,0.02335,-0.01791,0.02776*
%
%ADD76ROUNDEDRECTD76*%
G04:AMPARAMS|DCode=77|XSize=31.62mil|YSize=39.5mil|CornerRadius=7.54mil|HoleSize=0mil|Usage=FLASHONLY|Rotation=0.000|XOffset=0mil|YOffset=0mil|HoleType=Round|Shape=RoundedRectangle|*
%AMROUNDEDRECTD77*
21,1,0.03162,0.02441,0,0,0.0*
21,1,0.01654,0.03950,0,0,0.0*
1,1,0.01509,0.00827,-0.01221*
1,1,0.01509,-0.00827,-0.01221*
1,1,0.01509,-0.00827,0.01221*
1,1,0.01509,0.00827,0.01221*
%
%ADD77ROUNDEDRECTD77*%
%ADD78C,0.08674*%
G04:AMPARAMS|DCode=79|XSize=82.8mil|YSize=82.8mil|CornerRadius=15.22mil|HoleSize=0mil|Usage=FLASHONLY|Rotation=180.000|XOffset=0mil|YOffset=0mil|HoleType=Round|Shape=RoundedRectangle|*
%AMROUNDEDRECTD79*
21,1,0.08280,0.05236,0,0,180.0*
21,1,0.05236,0.08280,0,0,180.0*
1,1,0.03044,-0.02618,0.02618*
1,1,0.03044,0.02618,0.02618*
1,1,0.03044,0.02618,-0.02618*
1,1,0.03044,-0.02618,-0.02618*
%
%ADD79ROUNDEDRECTD79*%
%ADD80C,0.08280*%
%ADD81C,0.23635*%
%ADD82C,0.07099*%
G04:AMPARAMS|DCode=83|XSize=70.99mil|YSize=70.99mil|CornerRadius=13.45mil|HoleSize=0mil|Usage=FLASHONLY|Rotation=180.000|XOffset=0mil|YOffset=0mil|HoleType=Round|Shape=RoundedRectangle|*
%AMROUNDEDRECTD83*
21,1,0.07099,0.04409,0,0,180.0*
21,1,0.04409,0.07099,0,0,180.0*
1,1,0.02690,-0.02205,0.02205*
1,1,0.02690,0.02205,0.02205*
1,1,0.02690,0.02205,-0.02205*
1,1,0.02690,-0.02205,-0.02205*
%
%ADD83ROUNDEDRECTD83*%
%ADD84C,0.15761*%
G04:AMPARAMS|DCode=85|XSize=70.99mil|YSize=70.99mil|CornerRadius=13.45mil|HoleSize=0mil|Usage=FLASHONLY|Rotation=90.000|XOffset=0mil|YOffset=0mil|HoleType=Round|Shape=RoundedRectangle|*
%AMROUNDEDRECTD85*
21,1,0.07099,0.04409,0,0,90.0*
21,1,0.04409,0.07099,0,0,90.0*
1,1,0.02690,0.02205,0.02205*
1,1,0.02690,0.02205,-0.02205*
1,1,0.02690,-0.02205,-0.02205*
1,1,0.02690,-0.02205,0.02205*
%
%ADD85ROUNDEDRECTD85*%
G04:AMPARAMS|DCode=86|XSize=82.8mil|YSize=82.8mil|CornerRadius=15.22mil|HoleSize=0mil|Usage=FLASHONLY|Rotation=270.000|XOffset=0mil|YOffset=0mil|HoleType=Round|Shape=RoundedRectangle|*
%AMROUNDEDRECTD86*
21,1,0.08280,0.05236,0,0,270.0*
21,1,0.05236,0.08280,0,0,270.0*
1,1,0.03044,-0.02618,-0.02618*
1,1,0.03044,-0.02618,0.02618*
1,1,0.03044,0.02618,0.02618*
1,1,0.03044,0.02618,-0.02618*
%
%ADD86ROUNDEDRECTD86*%
%ADD87C,0.02362*%
G36*
X0330000Y0704000D02*
X0320000D01*
Y0709500D01*
X0330000D01*
Y0704000D01*
D02*
G37*
G36*
X0336500Y0693000D02*
X0331000D01*
Y0703000D01*
X0336500D01*
Y0693000D01*
D02*
G37*
G36*
X0319000D02*
X0313500D01*
Y0703000D01*
X0319000D01*
Y0693000D01*
D02*
G37*
G36*
X0330000Y0686500D02*
X0320000D01*
Y0692000D01*
X0330000D01*
Y0686500D01*
D02*
G37*
D46*
X0190300Y0538900D02*
X0190400Y0619400D01*
X0234700Y0539400D02*
X0234800Y0619900D01*
D47*
X0366142Y0531496D02*
D03*
X0363000Y0655000D02*
D03*
X0355315Y0523622D02*
D03*
X0311811Y0706299D02*
D03*
X0279000Y0697000D02*
D03*
X0407480Y0470472D02*
D03*
X0397638Y0480315D02*
D03*
X0407480D02*
D03*
X0397638Y0470472D02*
D03*
D48*
X0356725Y0366100D02*
D03*
Y0357000D02*
D03*
Y0347900D02*
D03*
D49*
X0381275Y0357000D02*
D03*
D50*
X0374150Y0378000D02*
D03*
X0367850D02*
D03*
X0310850Y0727000D02*
D03*
X0317150D02*
D03*
X0245850Y0604500D02*
D03*
X0252150D02*
D03*
X0262850Y0709000D02*
D03*
X0269150D02*
D03*
X0310850Y0715000D02*
D03*
X0317150D02*
D03*
X0250150Y0660000D02*
D03*
X0243850D02*
D03*
X0282150D02*
D03*
X0275850D02*
D03*
X0309150Y0694000D02*
D03*
X0302850D02*
D03*
X0249150Y0377000D02*
D03*
X0242850D02*
D03*
Y0333000D02*
D03*
X0249150D02*
D03*
D51*
X0268500Y0313846D02*
D03*
Y0307154D02*
D03*
X0225500Y0713654D02*
D03*
Y0720346D02*
D03*
X0421000Y0716653D02*
D03*
Y0723347D02*
D03*
X0392000Y0334347D02*
D03*
Y0327654D02*
D03*
X0305000Y0372847D02*
D03*
Y0366154D02*
D03*
X0252000Y0394346D02*
D03*
Y0387653D02*
D03*
X0246000D02*
D03*
Y0394346D02*
D03*
X0240000D02*
D03*
Y0387653D02*
D03*
X0340000Y0729347D02*
D03*
Y0722653D02*
D03*
Y0710653D02*
D03*
Y0717346D02*
D03*
X0332000Y0447346D02*
D03*
Y0440654D02*
D03*
X0347000Y0431347D02*
D03*
Y0424653D02*
D03*
D52*
X0276000Y0313650D02*
D03*
Y0307350D02*
D03*
X0414000Y0723150D02*
D03*
Y0716850D02*
D03*
X0233000Y0720150D02*
D03*
Y0713850D02*
D03*
X0399000Y0340850D02*
D03*
Y0347150D02*
D03*
X0183000Y0585150D02*
D03*
Y0578850D02*
D03*
D53*
X0375000Y0533299D02*
D03*
Y0520701D02*
D03*
D54*
X0185000Y0338000D02*
D03*
Y0727000D02*
D03*
X0442000Y0337000D02*
D03*
X0441000Y0728000D02*
D03*
D55*
X0256835Y0524961D02*
D03*
X0251323D02*
D03*
Y0499961D02*
D03*
X0256835D02*
D03*
Y0512461D02*
D03*
X0251323D02*
D03*
D56*
X0288465Y0618449D02*
D03*
Y0616480D02*
D03*
Y0614512D02*
D03*
Y0612543D02*
D03*
Y0610575D02*
D03*
Y0608606D02*
D03*
Y0606638D02*
D03*
Y0604669D02*
D03*
Y0602701D02*
D03*
Y0600732D02*
D03*
Y0598764D02*
D03*
Y0596795D02*
D03*
Y0594827D02*
D03*
Y0592858D02*
D03*
Y0590890D02*
D03*
Y0588921D02*
D03*
Y0586953D02*
D03*
Y0584984D02*
D03*
Y0583016D02*
D03*
Y0581047D02*
D03*
Y0579079D02*
D03*
Y0577110D02*
D03*
Y0575142D02*
D03*
Y0573173D02*
D03*
Y0571205D02*
D03*
Y0569236D02*
D03*
Y0567268D02*
D03*
Y0565299D02*
D03*
Y0563331D02*
D03*
Y0561362D02*
D03*
Y0559394D02*
D03*
Y0557425D02*
D03*
Y0555457D02*
D03*
Y0553488D02*
D03*
Y0551520D02*
D03*
Y0549551D02*
D03*
X0371535D02*
D03*
Y0551520D02*
D03*
Y0553488D02*
D03*
Y0555457D02*
D03*
Y0557425D02*
D03*
Y0559394D02*
D03*
Y0561362D02*
D03*
Y0563331D02*
D03*
Y0565299D02*
D03*
Y0567268D02*
D03*
Y0569236D02*
D03*
Y0571205D02*
D03*
Y0573173D02*
D03*
Y0575142D02*
D03*
Y0577110D02*
D03*
Y0579079D02*
D03*
Y0581047D02*
D03*
Y0583016D02*
D03*
Y0584984D02*
D03*
Y0586953D02*
D03*
Y0588921D02*
D03*
Y0590890D02*
D03*
Y0592858D02*
D03*
Y0594827D02*
D03*
Y0596795D02*
D03*
Y0598764D02*
D03*
Y0600732D02*
D03*
Y0602701D02*
D03*
Y0604669D02*
D03*
Y0606638D02*
D03*
Y0608606D02*
D03*
Y0610575D02*
D03*
Y0612543D02*
D03*
Y0614512D02*
D03*
Y0616480D02*
D03*
Y0618449D02*
D03*
D57*
X0295551Y0542465D02*
D03*
X0297520D02*
D03*
X0299488D02*
D03*
X0301457D02*
D03*
X0303425D02*
D03*
X0305394D02*
D03*
X0307362D02*
D03*
X0309331D02*
D03*
X0311299D02*
D03*
X0313268D02*
D03*
X0315236D02*
D03*
X0317205D02*
D03*
X0319173D02*
D03*
X0321142D02*
D03*
X0323110D02*
D03*
X0325079D02*
D03*
X0327047D02*
D03*
X0329016D02*
D03*
X0330984D02*
D03*
X0332953D02*
D03*
X0334921D02*
D03*
X0336890D02*
D03*
X0338858D02*
D03*
X0340827D02*
D03*
X0342795D02*
D03*
X0344764D02*
D03*
X0346732D02*
D03*
X0348701D02*
D03*
X0350669D02*
D03*
X0352638D02*
D03*
X0354606D02*
D03*
X0356575D02*
D03*
X0358543D02*
D03*
X0360512D02*
D03*
X0362480D02*
D03*
X0364449D02*
D03*
Y0625535D02*
D03*
X0362480D02*
D03*
X0360512D02*
D03*
X0358543D02*
D03*
X0356575D02*
D03*
X0354606D02*
D03*
X0352638D02*
D03*
X0350669D02*
D03*
X0348701D02*
D03*
X0346732D02*
D03*
X0344764D02*
D03*
X0342795D02*
D03*
X0340827D02*
D03*
X0338858D02*
D03*
X0336890D02*
D03*
X0334921D02*
D03*
X0332953D02*
D03*
X0330984D02*
D03*
X0329016D02*
D03*
X0327047D02*
D03*
X0325079D02*
D03*
X0323110D02*
D03*
X0321142D02*
D03*
X0319173D02*
D03*
X0317205D02*
D03*
X0315236D02*
D03*
X0313268D02*
D03*
X0311299D02*
D03*
X0309331D02*
D03*
X0307362D02*
D03*
X0305394D02*
D03*
X0303425D02*
D03*
X0301457D02*
D03*
X0299488D02*
D03*
X0297520D02*
D03*
X0295551D02*
D03*
D58*
X0263000Y0333898D02*
D03*
Y0371299D02*
D03*
D59*
X0296346Y0373000D02*
D03*
X0289653D02*
D03*
X0384653Y0520000D02*
D03*
X0391347D02*
D03*
X0277346Y0544000D02*
D03*
X0270654D02*
D03*
X0271153Y0530500D02*
D03*
X0277847D02*
D03*
X0273346Y0631000D02*
D03*
X0266653D02*
D03*
X0394346Y0537000D02*
D03*
X0387653D02*
D03*
X0273346Y0623000D02*
D03*
X0266653D02*
D03*
X0438346Y0674000D02*
D03*
X0431653D02*
D03*
X0315653Y0373000D02*
D03*
X0322346D02*
D03*
D60*
X0278346Y0572500D02*
D03*
X0271654D02*
D03*
X0434654Y0468000D02*
D03*
X0441347D02*
D03*
X0433000Y0490000D02*
D03*
X0441268D02*
D03*
Y0497480D02*
D03*
X0433000D02*
D03*
X0394346Y0547500D02*
D03*
X0387653D02*
D03*
X0284347Y0709000D02*
D03*
X0277654D02*
D03*
X0234653Y0500000D02*
D03*
X0241347D02*
D03*
X0242653Y0327000D02*
D03*
X0249346D02*
D03*
X0397654Y0412000D02*
D03*
X0404347D02*
D03*
X0240846Y0512500D02*
D03*
X0234154D02*
D03*
X0234653Y0525000D02*
D03*
X0241347D02*
D03*
X0304921Y0705905D02*
D03*
X0298228D02*
D03*
X0368653Y0445000D02*
D03*
X0375346D02*
D03*
X0368653Y0439000D02*
D03*
X0375346D02*
D03*
X0368653Y0433000D02*
D03*
X0375346D02*
D03*
X0368653Y0427000D02*
D03*
X0375346D02*
D03*
X0333653Y0384000D02*
D03*
X0340347D02*
D03*
X0243653Y0423000D02*
D03*
X0250346D02*
D03*
X0220153Y0441500D02*
D03*
X0226847D02*
D03*
X0226847Y0435500D02*
D03*
X0220153D02*
D03*
X0226847Y0429000D02*
D03*
X0220153D02*
D03*
X0272847Y0638500D02*
D03*
X0266154D02*
D03*
X0262653Y0688000D02*
D03*
X0269346D02*
D03*
D61*
X0290051Y0395236D02*
D03*
Y0397205D02*
D03*
Y0399173D02*
D03*
Y0401142D02*
D03*
Y0403110D02*
D03*
Y0405079D02*
D03*
Y0407047D02*
D03*
Y0409016D02*
D03*
Y0410984D02*
D03*
Y0412953D02*
D03*
Y0414921D02*
D03*
Y0416890D02*
D03*
Y0418858D02*
D03*
Y0420827D02*
D03*
Y0422795D02*
D03*
Y0424764D02*
D03*
X0333949D02*
D03*
Y0422795D02*
D03*
Y0420827D02*
D03*
Y0418858D02*
D03*
Y0416890D02*
D03*
Y0414921D02*
D03*
Y0412953D02*
D03*
Y0410984D02*
D03*
Y0409016D02*
D03*
Y0407047D02*
D03*
Y0405079D02*
D03*
Y0403110D02*
D03*
Y0401142D02*
D03*
Y0399173D02*
D03*
Y0397205D02*
D03*
Y0395236D02*
D03*
D62*
X0297236Y0431949D02*
D03*
X0299205D02*
D03*
X0301173D02*
D03*
X0303142D02*
D03*
X0305110D02*
D03*
X0307079D02*
D03*
X0309047D02*
D03*
X0311016D02*
D03*
X0312984D02*
D03*
X0314953D02*
D03*
X0316921D02*
D03*
X0318890D02*
D03*
X0320858D02*
D03*
X0322827D02*
D03*
X0324795D02*
D03*
X0326764D02*
D03*
Y0388051D02*
D03*
X0324795D02*
D03*
X0322827D02*
D03*
X0320858D02*
D03*
X0318890D02*
D03*
X0316921D02*
D03*
X0314953D02*
D03*
X0312984D02*
D03*
X0311016D02*
D03*
X0309047D02*
D03*
X0307079D02*
D03*
X0305110D02*
D03*
X0303142D02*
D03*
X0301173D02*
D03*
X0299205D02*
D03*
X0297236D02*
D03*
D63*
X0295709Y0358000D02*
D03*
X0284291D02*
D03*
X0326709D02*
D03*
X0315291D02*
D03*
X0357291Y0332000D02*
D03*
X0368709D02*
D03*
D64*
X0320079Y0689240D02*
D03*
X0322047D02*
D03*
X0324016D02*
D03*
X0325984D02*
D03*
X0327953D02*
D03*
X0329921D02*
D03*
Y0706760D02*
D03*
X0327953D02*
D03*
X0325984D02*
D03*
X0324016D02*
D03*
X0322047D02*
D03*
X0320079D02*
D03*
D65*
X0333760Y0693079D02*
D03*
Y0695047D02*
D03*
Y0697016D02*
D03*
Y0698984D02*
D03*
Y0700953D02*
D03*
Y0702921D02*
D03*
X0316240D02*
D03*
Y0700953D02*
D03*
Y0698984D02*
D03*
Y0697016D02*
D03*
Y0695047D02*
D03*
Y0693079D02*
D03*
D66*
X0325000Y0698000D02*
D03*
D67*
X0395276Y0503260D02*
D03*
Y0510740D02*
D03*
X0404724D02*
D03*
Y0507000D02*
D03*
Y0503260D02*
D03*
D68*
X0190356Y0620445D02*
D03*
Y0617295D02*
D03*
Y0614146D02*
D03*
Y0610996D02*
D03*
Y0607846D02*
D03*
Y0604697D02*
D03*
Y0601547D02*
D03*
Y0598398D02*
D03*
Y0595248D02*
D03*
Y0592098D02*
D03*
Y0588949D02*
D03*
Y0585799D02*
D03*
Y0582650D02*
D03*
Y0579500D02*
D03*
Y0576350D02*
D03*
Y0573201D02*
D03*
Y0570051D02*
D03*
Y0566902D02*
D03*
Y0563752D02*
D03*
Y0560602D02*
D03*
Y0557453D02*
D03*
Y0554303D02*
D03*
Y0551154D02*
D03*
Y0548004D02*
D03*
Y0544854D02*
D03*
Y0541705D02*
D03*
Y0538555D02*
D03*
X0234844Y0620445D02*
D03*
Y0617295D02*
D03*
Y0614146D02*
D03*
Y0610996D02*
D03*
Y0607846D02*
D03*
Y0604697D02*
D03*
Y0601547D02*
D03*
Y0598398D02*
D03*
Y0595248D02*
D03*
Y0592098D02*
D03*
Y0588949D02*
D03*
Y0585799D02*
D03*
Y0582650D02*
D03*
Y0579500D02*
D03*
Y0576350D02*
D03*
Y0573201D02*
D03*
Y0570051D02*
D03*
Y0566902D02*
D03*
Y0563752D02*
D03*
Y0560602D02*
D03*
Y0557453D02*
D03*
Y0554303D02*
D03*
Y0551154D02*
D03*
Y0548004D02*
D03*
Y0544854D02*
D03*
Y0541705D02*
D03*
Y0538555D02*
D03*
D69*
X0235157Y0416500D02*
D03*
Y0411500D02*
D03*
Y0406500D02*
D03*
Y0401500D02*
D03*
X0254842Y0416500D02*
D03*
Y0411500D02*
D03*
Y0406500D02*
D03*
Y0401500D02*
D03*
D70*
X0383000Y0511331D02*
D03*
Y0502669D02*
D03*
D71*
X0435638Y0478000D02*
D03*
X0440362D02*
D03*
X0268638Y0581000D02*
D03*
X0273362D02*
D03*
X0270638Y0565500D02*
D03*
X0275362D02*
D03*
X0184238Y0628500D02*
D03*
X0188962D02*
D03*
X0433362Y0520000D02*
D03*
X0428638D02*
D03*
X0392362Y0609000D02*
D03*
X0387638D02*
D03*
X0251362Y0585000D02*
D03*
X0246638D02*
D03*
X0392362Y0580500D02*
D03*
X0387638D02*
D03*
X0268638Y0585500D02*
D03*
X0273362D02*
D03*
X0261638Y0559000D02*
D03*
X0266362D02*
D03*
X0392362Y0585000D02*
D03*
X0387638D02*
D03*
X0284638Y0385500D02*
D03*
X0289362D02*
D03*
X0206462Y0532000D02*
D03*
X0201738D02*
D03*
X0271638Y0612000D02*
D03*
X0276362D02*
D03*
X0263638Y0703000D02*
D03*
X0268362D02*
D03*
X0393362Y0557000D02*
D03*
X0388638D02*
D03*
X0364362Y0689500D02*
D03*
X0359638D02*
D03*
X0268362Y0697000D02*
D03*
X0263638D02*
D03*
X0364362Y0312000D02*
D03*
X0359638D02*
D03*
X0290638Y0366000D02*
D03*
X0295362D02*
D03*
X0392362Y0570000D02*
D03*
X0387638D02*
D03*
X0320362Y0366000D02*
D03*
X0315638D02*
D03*
X0339362Y0378000D02*
D03*
X0334638D02*
D03*
X0275638Y0434500D02*
D03*
X0280362D02*
D03*
X0351862Y0401500D02*
D03*
X0347138D02*
D03*
X0290638Y0446500D02*
D03*
X0295362D02*
D03*
X0275638Y0425000D02*
D03*
X0280362D02*
D03*
D72*
X0443000Y0368094D02*
D03*
Y0389906D02*
D03*
Y0379000D02*
D03*
Y0407094D02*
D03*
Y0428905D02*
D03*
Y0418000D02*
D03*
D73*
X0412500Y0508847D02*
D03*
Y0502153D02*
D03*
D74*
X0281701Y0674000D02*
D03*
X0244299D02*
D03*
D75*
X0385039Y0333835D02*
D03*
Y0328323D02*
D03*
D76*
X0357291Y0321000D02*
D03*
X0368709D02*
D03*
D77*
X0327000Y0641362D02*
D03*
Y0636638D02*
D03*
X0322500Y0641362D02*
D03*
Y0636638D02*
D03*
X0343500Y0525138D02*
D03*
Y0529862D02*
D03*
X0301000Y0521138D02*
D03*
Y0525862D02*
D03*
X0326000Y0524138D02*
D03*
Y0528862D02*
D03*
X0306000Y0644362D02*
D03*
Y0639638D02*
D03*
X0183000Y0607638D02*
D03*
Y0612362D02*
D03*
Y0591638D02*
D03*
Y0596362D02*
D03*
X0370000Y0641362D02*
D03*
Y0636638D02*
D03*
X0319000Y0446362D02*
D03*
Y0441638D02*
D03*
X0221000Y0416362D02*
D03*
Y0411638D02*
D03*
X0340000Y0646362D02*
D03*
Y0641638D02*
D03*
D78*
X0409000Y0448000D02*
D03*
Y0422409D02*
D03*
X0391283Y0448000D02*
D03*
Y0422409D02*
D03*
D79*
X0328000Y0759000D02*
D03*
X0307500Y0669000D02*
D03*
X0357000Y0698500D02*
D03*
X0370000Y0479000D02*
D03*
D80*
X0318000Y0759000D02*
D03*
X0307500Y0679000D02*
D03*
X0317500Y0669000D02*
D03*
Y0679000D02*
D03*
X0327500Y0669000D02*
D03*
Y0679000D02*
D03*
X0337500Y0669000D02*
D03*
Y0679000D02*
D03*
X0347500Y0669000D02*
D03*
Y0679000D02*
D03*
X0357500Y0669000D02*
D03*
Y0679000D02*
D03*
X0367500Y0669000D02*
D03*
Y0679000D02*
D03*
X0367000Y0698500D02*
D03*
X0437000D02*
D03*
X0427000D02*
D03*
X0417000D02*
D03*
X0407000D02*
D03*
X0397000D02*
D03*
X0387000D02*
D03*
X0377000D02*
D03*
X0370000Y0469000D02*
D03*
X0360000Y0479000D02*
D03*
Y0469000D02*
D03*
X0350000Y0479000D02*
D03*
Y0469000D02*
D03*
X0340000Y0479000D02*
D03*
Y0469000D02*
D03*
X0330000Y0479000D02*
D03*
Y0469000D02*
D03*
X0320000Y0479000D02*
D03*
Y0469000D02*
D03*
X0310000Y0479000D02*
D03*
Y0469000D02*
D03*
X0300000Y0479000D02*
D03*
Y0469000D02*
D03*
X0290000Y0479000D02*
D03*
Y0469000D02*
D03*
X0280000Y0479000D02*
D03*
Y0469000D02*
D03*
X0270000Y0479000D02*
D03*
Y0469000D02*
D03*
X0260000Y0479000D02*
D03*
Y0469000D02*
D03*
X0250000Y0479000D02*
D03*
Y0469000D02*
D03*
X0240000Y0479000D02*
D03*
Y0469000D02*
D03*
X0230000Y0479000D02*
D03*
Y0469000D02*
D03*
X0220000Y0479000D02*
D03*
Y0469000D02*
D03*
X0210000Y0479000D02*
D03*
Y0469000D02*
D03*
X0436000Y0532000D02*
D03*
X0426000D02*
D03*
X0436000Y0542000D02*
D03*
X0426000D02*
D03*
X0436000Y0552000D02*
D03*
X0426000D02*
D03*
X0436000Y0562000D02*
D03*
X0426000D02*
D03*
X0436000Y0572000D02*
D03*
X0426000D02*
D03*
X0436000Y0582000D02*
D03*
X0426000D02*
D03*
X0436000Y0592000D02*
D03*
X0426000D02*
D03*
X0436000Y0602000D02*
D03*
X0426000D02*
D03*
X0436000Y0612000D02*
D03*
X0426000D02*
D03*
X0436000Y0622000D02*
D03*
X0426000D02*
D03*
X0436000Y0632000D02*
D03*
X0426000D02*
D03*
X0436000Y0642000D02*
D03*
X0426000D02*
D03*
X0436000Y0652000D02*
D03*
D81*
X0199000Y0754000D02*
D03*
X0427098D02*
D03*
Y0311000D02*
D03*
X0199098D02*
D03*
D82*
X0373063Y0728858D02*
D03*
X0363221Y0728858D02*
D03*
X0380937Y0728858D02*
D03*
X0306079Y0345094D02*
D03*
X0315921Y0337221D02*
D03*
X0306079D02*
D03*
X0273921Y0727779D02*
D03*
X0264079D02*
D03*
X0273921Y0719906D02*
D03*
D83*
X0390779Y0728858D02*
D03*
D84*
X0402866Y0739528D02*
D03*
X0351134D02*
D03*
X0334701Y0326551D02*
D03*
X0287299D02*
D03*
X0292701Y0738449D02*
D03*
X0245299D02*
D03*
D85*
X0315921Y0345094D02*
D03*
X0264079Y0719906D02*
D03*
D86*
X0426000Y0652000D02*
D03*
D87*
X0364272Y0557776D02*
D03*
X0363878Y0594882D02*
D03*
X0326181Y0420276D02*
D03*
X0323228Y0395768D02*
D03*
X0314961Y0396063D02*
D03*
X0305413Y0395965D02*
D03*
X0301575Y0423917D02*
D03*
X0297638Y0395571D02*
D03*
X0296654Y0594882D02*
D03*
X0228248Y0595177D02*
D03*
X0407776Y0552559D02*
D03*
X0412945Y0428851D02*
D03*
X0410728Y0432382D02*
D03*
X0411243Y0437574D02*
D03*
X0411221Y0441081D02*
D03*
X0179724Y0628346D02*
D03*
X0297349Y0411349D02*
D03*
X0296654Y0611811D02*
D03*
X0379000Y0549000D02*
D03*
X0355315Y0523622D02*
D03*
X0347400Y0525000D02*
D03*
X0348900Y0503000D02*
D03*
X0347400Y0530000D02*
D03*
X0366142Y0531496D02*
D03*
X0294000Y0706000D02*
D03*
X0411417Y0476378D02*
D03*
X0391732Y0470472D02*
D03*
X0397092Y0609908D02*
D03*
X0178740Y0590945D02*
D03*
X0285827Y0366043D02*
D03*
X0438386Y0398327D02*
D03*
X0443209Y0398721D02*
D03*
X0442913Y0436811D02*
D03*
X0407928Y0653269D02*
D03*
X0313583Y0449213D02*
D03*
X0305535Y0454072D02*
D03*
X0313761Y0455361D02*
D03*
X0422244Y0710630D02*
D03*
X0237205Y0332705D02*
D03*
X0276000Y0302000D02*
D03*
X0268500D02*
D03*
X0225500Y0708098D02*
D03*
X0322638Y0695638D02*
D03*
X0327362Y0700362D02*
D03*
X0322638D02*
D03*
X0327362Y0695638D02*
D03*
X0431500Y0668500D02*
D03*
X0429095Y0368094D02*
D03*
X0383000Y0531000D02*
D03*
X0356575Y0549925D02*
D03*
X0434150Y0513150D02*
D03*
X0220000Y0446500D02*
D03*
X0382000Y0663000D02*
D03*
X0386000Y0660000D02*
D03*
X0274500Y0503000D02*
D03*
X0255500Y0660000D02*
D03*
X0270500D02*
D03*
X0332000Y0722000D02*
D03*
Y0716000D02*
D03*
X0323000Y0713000D02*
D03*
X0441000Y0484000D02*
D03*
X0364000Y0618000D02*
D03*
X0447000Y0468000D02*
D03*
X0266500Y0535000D02*
D03*
X0228100Y0579500D02*
D03*
X0256000Y0585000D02*
D03*
X0257500Y0558500D02*
D03*
X0264500Y0581000D02*
D03*
X0266500Y0565500D02*
D03*
X0296000Y0571500D02*
D03*
X0183000Y0602000D02*
D03*
X0228246Y0614146D02*
D03*
X0252500Y0600000D02*
D03*
X0228100Y0620500D02*
D03*
X0197000Y0727000D02*
D03*
X0233000Y0708000D02*
D03*
X0261000Y0631000D02*
D03*
Y0623000D02*
D03*
X0258000Y0697000D02*
D03*
Y0703000D02*
D03*
Y0709000D02*
D03*
X0264500Y0585500D02*
D03*
X0271500Y0615500D02*
D03*
X0309000Y0618000D02*
D03*
X0302500Y0644500D02*
D03*
X0298000Y0694000D02*
D03*
X0306000Y0715000D02*
D03*
X0321000Y0617500D02*
D03*
X0356575Y0617075D02*
D03*
X0319000Y0641500D02*
D03*
X0327000Y0646000D02*
D03*
X0336500Y0646500D02*
D03*
X0408150Y0716850D02*
D03*
X0375000Y0456000D02*
D03*
X0238000Y0327000D02*
D03*
X0319800Y0521000D02*
D03*
X0238000Y0377000D02*
D03*
X0221000Y0407000D02*
D03*
Y0421000D02*
D03*
X0366000Y0636500D02*
D03*
X0326000Y0366000D02*
D03*
X0270000Y0425000D02*
D03*
X0335000Y0519000D02*
D03*
X0334000Y0525000D02*
D03*
X0343500Y0520500D02*
D03*
X0374250Y0657000D02*
D03*
X0396500Y0585000D02*
D03*
Y0580500D02*
D03*
Y0570000D02*
D03*
X0398000Y0556500D02*
D03*
X0401000Y0537000D02*
D03*
X0379000Y0542000D02*
D03*
X0362000Y0587000D02*
D03*
X0326000Y0520000D02*
D03*
X0305000Y0519500D02*
D03*
X0320000Y0512000D02*
D03*
X0306000Y0513000D02*
D03*
X0336000Y0503000D02*
D03*
X0288500Y0503500D02*
D03*
X0342500Y0494500D02*
D03*
X0346000Y0491000D02*
D03*
X0325500D02*
D03*
X0284500Y0487500D02*
D03*
X0278000Y0525500D02*
D03*
X0179000Y0596000D02*
D03*
X0183000Y0574000D02*
D03*
X0297000Y0577000D02*
D03*
X0398000Y0520000D02*
D03*
X0316500Y0551500D02*
D03*
X0266500Y0555000D02*
D03*
X0276500Y0608000D02*
D03*
X0206500Y0528000D02*
D03*
X0246500Y0581000D02*
D03*
X0347000Y0405500D02*
D03*
X0326016Y0410984D02*
D03*
X0324500Y0424500D02*
D03*
X0278500Y0385500D02*
D03*
X0279000Y0358000D02*
D03*
X0332000D02*
D03*
X0305000Y0361000D02*
D03*
X0345000Y0384000D02*
D03*
X0328000Y0372000D02*
D03*
X0331500Y0552000D02*
D03*
X0332000Y0535000D02*
D03*
X0228100Y0566000D02*
D03*
X0194500Y0628500D02*
D03*
X0269000Y0525000D02*
D03*
X0264000D02*
D03*
X0257000Y0531000D02*
D03*
X0334000Y0530000D02*
D03*
X0385000Y0340000D02*
D03*
X0392000Y0339000D02*
D03*
X0374000Y0383000D02*
D03*
X0350500Y0357000D02*
D03*
X0404000Y0341000D02*
D03*
X0407000Y0660000D02*
D03*
X0271000Y0434500D02*
D03*
X0358000Y0512000D02*
D03*
X0340000Y0509000D02*
D03*
X0363000Y0512000D02*
D03*
X0380000Y0473000D02*
D03*
X0345000Y0378000D02*
D03*
X0370000Y0312000D02*
D03*
X0340000Y0697000D02*
D03*
X0302531Y0448900D02*
D03*
X0364000Y0445000D02*
D03*
Y0439000D02*
D03*
Y0433000D02*
D03*
Y0427000D02*
D03*
X0389000Y0646000D02*
D03*
X0286500Y0446500D02*
D03*
X0183000Y0616500D02*
D03*
X0201500Y0528000D02*
D03*
X0228000Y0525000D02*
D03*
X0185000Y0350000D02*
D03*
X0442000D02*
D03*
X0441000Y0716000D02*
D03*
X0250000Y0750000D02*
D03*
X0297244D02*
D03*
X0400000D02*
D03*
X0279000Y0631000D02*
D03*
X0200000Y0500000D02*
D03*
X0201000Y0450000D02*
D03*
X0202000Y0400000D02*
D03*
X0400500Y0375000D02*
D03*
X0409500Y0412000D02*
D03*
X0319000Y0452000D02*
D03*
X0305500Y0727000D02*
D03*
X0346358Y0706000D02*
D03*
X0340000Y0736000D02*
D03*
X0200689Y0580315D02*
D03*
X0284000Y0373000D02*
D03*
X0368000Y0383000D02*
D03*
X0352000Y0405500D02*
D03*
X0322000Y0727000D02*
D03*
X0232000Y0441500D02*
D03*
Y0435500D02*
D03*
Y0428500D02*
D03*
X0358500Y0495000D02*
D03*
X0273500Y0589500D02*
D03*
X0309500Y0644500D02*
D03*
X0319000Y0636500D02*
D03*
X0322500Y0646000D02*
D03*
X0343500Y0641500D02*
D03*
X0302500Y0640000D02*
D03*
X0309500D02*
D03*
X0343500Y0646500D02*
D03*
X0366000Y0641500D02*
D03*
X0374000D02*
D03*
Y0636500D02*
D03*
X0246000Y0600000D02*
D03*
X0276500Y0615500D02*
D03*
X0271500Y0608000D02*
D03*
X0251500Y0581000D02*
D03*
X0261500Y0555000D02*
D03*
X0277500Y0538500D02*
D03*
X0265000Y0544000D02*
D03*
X0270500Y0538500D02*
D03*
X0288500Y0508000D02*
D03*
X0305000Y0526000D02*
D03*
X0297000D02*
D03*
Y0519500D02*
D03*
X0322000Y0529000D02*
D03*
X0388500Y0553000D02*
D03*
X0393500D02*
D03*
X0387500Y0574000D02*
D03*
X0392500D02*
D03*
X0387500Y0589000D02*
D03*
Y0613000D02*
D03*
X0392500D02*
D03*
X0431500Y0679500D02*
D03*
X0438500Y0668000D02*
D03*
Y0679500D02*
D03*
X0295500Y0450500D02*
D03*
X0280500Y0429000D02*
D03*
X0336000Y0641500D02*
D03*
X0420500Y0503500D02*
D03*
Y0499000D02*
D03*
X0420000Y0509000D02*
D03*
X0391500Y0526500D02*
D03*
X0388500Y0357000D02*
D03*
X0373721Y0356535D02*
D03*
X0364173Y0356945D02*
D03*
Y0365945D02*
D03*
X0373721Y0366535D02*
D03*
M02*
